M48
; DRILL file {KiCad (5.1.0)-1} date 27-1-2021 12:24:32
; FORMAT={-:-/ absolute / inch / decimal}
; #@! TF.CreationDate,2021-01-27T12:24:32+01:00
; #@! TF.GenerationSoftware,Kicad,Pcbnew,(5.1.0)-1
FMAT,2
INCH
T1C0.0079
T2C0.0157
T3C0.0256
T4C0.0276
T5C0.0280
T6C0.0315
T7C0.0394
T8C0.0472
T9C0.0866
%
G90
G05
T1
X7.062Y-3.8201
X7.0994Y-3.7975
X7.0994Y-3.8428
X7.1368Y-3.8201
T2
X6.82Y-3.765
X6.925Y-4.0817
X6.925Y-4.1683
X7.035Y-3.765
X7.0352Y-3.8752
X7.1788Y-4.7088
X7.25Y-5.67
X7.3Y-3.44
X7.3895Y-4.6215
X7.49Y-4.52
X7.54Y-4.795
X7.5544Y-3.5656
X7.565Y-4.67
X7.565Y-4.95
X7.57Y-4.575
X7.5702Y-4.7398
X7.58Y-3.875
X7.595Y-5.025
X7.6398Y-4.9402
X7.64Y-4.575
X7.6562Y-4.68
X7.6575Y-4.9852
X7.6575Y-5.0325
X7.66Y-4.42
X7.675Y-3.81
X7.705Y-3.78
X7.71Y-3.615
X7.719Y-4.8837
X7.74Y-4.05
X7.76Y-4.9065
X7.765Y-4.12
X7.77Y-3.97
X7.8194Y-4.744
X7.825Y-4.705
X7.87Y-3.585
X7.875Y-3.73
X7.875Y-3.8385
X7.8858Y-3.6292
X7.935Y-4.475
X7.935Y-4.515
X7.945Y-3.34
X7.945Y-4.64
X7.945Y-4.6794
X7.984Y-3.96
X8.0482Y-3.605
X8.0554Y-3.6754
X8.075Y-4.41
X8.115Y-4.415
X8.118Y-4.022
X8.12Y-3.755
X8.135Y-4.3
X8.135Y-4.875
X8.16Y-5.16
X8.16Y-5.205
X8.17Y-4.425
X8.1702Y-4.8574
X8.21Y-4.41
X8.24Y-3.58
X8.26Y-3.34
X8.26Y-5.0639
X8.28Y-4.425
X8.3Y-4.355
X8.3Y-5.1587
X8.34Y-5.13
X8.35Y-3.34
X8.355Y-3.285
X8.365Y-3.825
X8.405Y-4.895
X8.44Y-3.39
X8.4573Y-5.0123
X8.4573Y-5.1223
X8.465Y-4.65
X8.5165Y-3.93
X8.59Y-4.11
X8.63Y-4.14
X8.7673Y-4.1577
X8.785Y-4.11
X8.815Y-5.285
X8.97Y-5.665
X8.9891Y-5.6191
X8.9891Y-5.7109
X9.035Y-5.6
X9.035Y-5.73
X9.0809Y-5.6191
X9.0809Y-5.7109
X9.1Y-5.665
X8.97Y-3.205
X8.9891Y-3.1591
X8.9891Y-3.2509
X9.035Y-3.14
X9.035Y-3.27
X9.0809Y-3.1591
X9.0809Y-3.2509
X9.1Y-3.205
X6.48Y-3.205
X6.4991Y-3.1591
X6.4991Y-3.2509
X6.545Y-3.14
X6.545Y-3.27
X6.5909Y-3.1591
X6.5909Y-3.2509
X6.61Y-3.205
X6.48Y-5.665
X6.4991Y-5.6191
X6.4991Y-5.7109
X6.545Y-5.6
X6.545Y-5.73
X6.5909Y-5.6191
X6.5909Y-5.7109
X6.61Y-5.665
T5
X6.7156Y-4.4569
X6.7156Y-5.3231
X6.7943Y-4.4569
X6.7943Y-5.3231
X6.8731Y-4.4569
X6.8731Y-5.3231
X6.9518Y-4.4569
X6.9518Y-5.3231
X7.0306Y-4.4569
X7.0306Y-5.3231
X7.1093Y-4.4569
X7.1093Y-5.3231
X7.188Y-4.4569
X7.188Y-5.3231
X7.2668Y-4.4569
X7.2668Y-5.3231
X7.3455Y-4.4569
X7.3455Y-5.3231
X7.4243Y-4.4569
X7.4243Y-5.3231
T6
X6.9541Y-4.9724
X6.9541Y-5.0433
X7.24Y-4.9859
X7.505Y-5.45
T7
X6.93Y-5.57
X7.03Y-5.57
X6.92Y-3.25
X6.92Y-3.35
X6.83Y-5.465
X6.93Y-5.465
X7.03Y-5.465
X7.13Y-5.465
X7.23Y-5.465
X7.33Y-5.465
X7.715Y-5.66
X7.815Y-5.66
X7.915Y-5.66
X8.015Y-5.66
X8.115Y-5.66
X8.215Y-5.66
X8.315Y-5.66
X8.415Y-5.66
X8.515Y-5.66
X8.615Y-5.66
X8.715Y-5.66
X8.815Y-5.66
X7.335Y-4.21
X7.335Y-4.31
X7.435Y-4.21
X7.435Y-4.31
X7.535Y-4.21
X7.535Y-4.31
X7.635Y-4.21
X7.635Y-4.31
X7.735Y-4.21
X7.735Y-4.31
X8.53Y-4.505
X8.53Y-4.605
X8.53Y-4.705
X8.53Y-4.805
X8.53Y-4.905
X8.63Y-4.505
X8.63Y-4.605
X8.63Y-4.705
X8.63Y-4.805
X8.63Y-4.905
X7.065Y-3.255
X7.065Y-3.355
X9.03Y-3.905
X9.03Y-4.005
X9.03Y-4.105
X9.03Y-4.205
X9.03Y-4.305
X9.03Y-4.405
X9.03Y-4.505
X9.03Y-4.605
X9.03Y-4.705
X9.03Y-4.805
X9.03Y-4.905
X9.03Y-5.005
X8.86Y-4.11
X8.86Y-4.21
X8.86Y-4.31
X8.86Y-4.41
X8.86Y-4.51
X8.86Y-4.61
X7.335Y-4.745
X7.335Y-4.845
X7.335Y-4.945
X7.335Y-5.045
X7.435Y-4.745
X7.435Y-4.845
X7.435Y-4.945
X7.435Y-5.045
X7.255Y-3.2
X7.355Y-3.2
X7.455Y-3.2
X7.555Y-3.2
X7.655Y-3.2
X7.755Y-3.2
X7.855Y-3.2
X7.955Y-3.2
X8.055Y-3.2
X8.155Y-3.2
X8.255Y-3.2
X8.355Y-3.2
T8
X8.63Y-3.48
X8.8269Y-3.48
T9
X9.035Y-5.665
X9.035Y-3.205
X6.545Y-3.205
X6.545Y-5.665
T3
G00X6.6421Y-3.6406
M15
G01X6.6579Y-3.6406
M16
G05
G00X6.6421Y-3.8311
M15
G01X6.6579Y-3.8311
M16
G05
T4
G00X6.522Y-3.6283
M15
G01X6.5417Y-3.6283
M16
G05
G00X6.522Y-3.8433
M15
G01X6.5417Y-3.8433
M16
G05
T0
M30
