G04 #@! TF.GenerationSoftware,KiCad,Pcbnew,(5.1.0)-1*
G04 #@! TF.CreationDate,2021-01-27T12:23:48+01:00*
G04 #@! TF.ProjectId,SmartSensor,536d6172-7453-4656-9e73-6f722e6b6963,rev?*
G04 #@! TF.SameCoordinates,Original*
G04 #@! TF.FileFunction,Paste,Top*
G04 #@! TF.FilePolarity,Positive*
%FSLAX46Y46*%
G04 Gerber Fmt 4.6, Leading zero omitted, Abs format (unit mm)*
G04 Created by KiCad (PCBNEW (5.1.0)-1) date 2021-01-27 12:23:48*
%MOMM*%
%LPD*%
G04 APERTURE LIST*
%ADD10C,0.100000*%
%ADD11C,0.975000*%
%ADD12C,1.125000*%
%ADD13R,3.000000X0.650000*%
%ADD14R,0.800000X0.350000*%
%ADD15R,0.300000X0.500000*%
%ADD16R,2.000000X1.350000*%
%ADD17R,0.700000X1.825000*%
%ADD18R,1.500000X2.000000*%
%ADD19R,1.650000X0.400000*%
%ADD20R,2.500000X1.430000*%
%ADD21R,1.903000X2.790000*%
%ADD22C,1.425000*%
%ADD23R,0.800000X0.900000*%
%ADD24R,0.900000X0.800000*%
%ADD25C,1.060000*%
%ADD26C,0.250000*%
%ADD27R,0.240000X0.600000*%
%ADD28C,0.300000*%
%ADD29R,1.000000X0.300000*%
%ADD30R,1.300000X2.200000*%
%ADD31R,0.600000X0.400000*%
%ADD32R,1.550000X0.600000*%
%ADD33R,1.500000X0.550000*%
%ADD34R,0.550000X1.500000*%
%ADD35R,1.800000X1.000000*%
%ADD36R,1.500000X0.650000*%
%ADD37R,2.400000X1.900000*%
%ADD38R,2.100000X1.400000*%
%ADD39R,1.400000X2.100000*%
G04 APERTURE END LIST*
D10*
G36*
X185560642Y-97853174D02*
G01*
X185584303Y-97856684D01*
X185607507Y-97862496D01*
X185630029Y-97870554D01*
X185651653Y-97880782D01*
X185672170Y-97893079D01*
X185691383Y-97907329D01*
X185709107Y-97923393D01*
X185725171Y-97941117D01*
X185739421Y-97960330D01*
X185751718Y-97980847D01*
X185761946Y-98002471D01*
X185770004Y-98024993D01*
X185775816Y-98048197D01*
X185779326Y-98071858D01*
X185780500Y-98095750D01*
X185780500Y-99008250D01*
X185779326Y-99032142D01*
X185775816Y-99055803D01*
X185770004Y-99079007D01*
X185761946Y-99101529D01*
X185751718Y-99123153D01*
X185739421Y-99143670D01*
X185725171Y-99162883D01*
X185709107Y-99180607D01*
X185691383Y-99196671D01*
X185672170Y-99210921D01*
X185651653Y-99223218D01*
X185630029Y-99233446D01*
X185607507Y-99241504D01*
X185584303Y-99247316D01*
X185560642Y-99250826D01*
X185536750Y-99252000D01*
X185049250Y-99252000D01*
X185025358Y-99250826D01*
X185001697Y-99247316D01*
X184978493Y-99241504D01*
X184955971Y-99233446D01*
X184934347Y-99223218D01*
X184913830Y-99210921D01*
X184894617Y-99196671D01*
X184876893Y-99180607D01*
X184860829Y-99162883D01*
X184846579Y-99143670D01*
X184834282Y-99123153D01*
X184824054Y-99101529D01*
X184815996Y-99079007D01*
X184810184Y-99055803D01*
X184806674Y-99032142D01*
X184805500Y-99008250D01*
X184805500Y-98095750D01*
X184806674Y-98071858D01*
X184810184Y-98048197D01*
X184815996Y-98024993D01*
X184824054Y-98002471D01*
X184834282Y-97980847D01*
X184846579Y-97960330D01*
X184860829Y-97941117D01*
X184876893Y-97923393D01*
X184894617Y-97907329D01*
X184913830Y-97893079D01*
X184934347Y-97880782D01*
X184955971Y-97870554D01*
X184978493Y-97862496D01*
X185001697Y-97856684D01*
X185025358Y-97853174D01*
X185049250Y-97852000D01*
X185536750Y-97852000D01*
X185560642Y-97853174D01*
X185560642Y-97853174D01*
G37*
D11*
X185293000Y-98552000D03*
D10*
G36*
X187435642Y-97853174D02*
G01*
X187459303Y-97856684D01*
X187482507Y-97862496D01*
X187505029Y-97870554D01*
X187526653Y-97880782D01*
X187547170Y-97893079D01*
X187566383Y-97907329D01*
X187584107Y-97923393D01*
X187600171Y-97941117D01*
X187614421Y-97960330D01*
X187626718Y-97980847D01*
X187636946Y-98002471D01*
X187645004Y-98024993D01*
X187650816Y-98048197D01*
X187654326Y-98071858D01*
X187655500Y-98095750D01*
X187655500Y-99008250D01*
X187654326Y-99032142D01*
X187650816Y-99055803D01*
X187645004Y-99079007D01*
X187636946Y-99101529D01*
X187626718Y-99123153D01*
X187614421Y-99143670D01*
X187600171Y-99162883D01*
X187584107Y-99180607D01*
X187566383Y-99196671D01*
X187547170Y-99210921D01*
X187526653Y-99223218D01*
X187505029Y-99233446D01*
X187482507Y-99241504D01*
X187459303Y-99247316D01*
X187435642Y-99250826D01*
X187411750Y-99252000D01*
X186924250Y-99252000D01*
X186900358Y-99250826D01*
X186876697Y-99247316D01*
X186853493Y-99241504D01*
X186830971Y-99233446D01*
X186809347Y-99223218D01*
X186788830Y-99210921D01*
X186769617Y-99196671D01*
X186751893Y-99180607D01*
X186735829Y-99162883D01*
X186721579Y-99143670D01*
X186709282Y-99123153D01*
X186699054Y-99101529D01*
X186690996Y-99079007D01*
X186685184Y-99055803D01*
X186681674Y-99032142D01*
X186680500Y-99008250D01*
X186680500Y-98095750D01*
X186681674Y-98071858D01*
X186685184Y-98048197D01*
X186690996Y-98024993D01*
X186699054Y-98002471D01*
X186709282Y-97980847D01*
X186721579Y-97960330D01*
X186735829Y-97941117D01*
X186751893Y-97923393D01*
X186769617Y-97907329D01*
X186788830Y-97893079D01*
X186809347Y-97880782D01*
X186830971Y-97870554D01*
X186853493Y-97862496D01*
X186876697Y-97856684D01*
X186900358Y-97853174D01*
X186924250Y-97852000D01*
X187411750Y-97852000D01*
X187435642Y-97853174D01*
X187435642Y-97853174D01*
G37*
D11*
X187168000Y-98552000D03*
D10*
G36*
X184290642Y-93154174D02*
G01*
X184314303Y-93157684D01*
X184337507Y-93163496D01*
X184360029Y-93171554D01*
X184381653Y-93181782D01*
X184402170Y-93194079D01*
X184421383Y-93208329D01*
X184439107Y-93224393D01*
X184455171Y-93242117D01*
X184469421Y-93261330D01*
X184481718Y-93281847D01*
X184491946Y-93303471D01*
X184500004Y-93325993D01*
X184505816Y-93349197D01*
X184509326Y-93372858D01*
X184510500Y-93396750D01*
X184510500Y-94309250D01*
X184509326Y-94333142D01*
X184505816Y-94356803D01*
X184500004Y-94380007D01*
X184491946Y-94402529D01*
X184481718Y-94424153D01*
X184469421Y-94444670D01*
X184455171Y-94463883D01*
X184439107Y-94481607D01*
X184421383Y-94497671D01*
X184402170Y-94511921D01*
X184381653Y-94524218D01*
X184360029Y-94534446D01*
X184337507Y-94542504D01*
X184314303Y-94548316D01*
X184290642Y-94551826D01*
X184266750Y-94553000D01*
X183779250Y-94553000D01*
X183755358Y-94551826D01*
X183731697Y-94548316D01*
X183708493Y-94542504D01*
X183685971Y-94534446D01*
X183664347Y-94524218D01*
X183643830Y-94511921D01*
X183624617Y-94497671D01*
X183606893Y-94481607D01*
X183590829Y-94463883D01*
X183576579Y-94444670D01*
X183564282Y-94424153D01*
X183554054Y-94402529D01*
X183545996Y-94380007D01*
X183540184Y-94356803D01*
X183536674Y-94333142D01*
X183535500Y-94309250D01*
X183535500Y-93396750D01*
X183536674Y-93372858D01*
X183540184Y-93349197D01*
X183545996Y-93325993D01*
X183554054Y-93303471D01*
X183564282Y-93281847D01*
X183576579Y-93261330D01*
X183590829Y-93242117D01*
X183606893Y-93224393D01*
X183624617Y-93208329D01*
X183643830Y-93194079D01*
X183664347Y-93181782D01*
X183685971Y-93171554D01*
X183708493Y-93163496D01*
X183731697Y-93157684D01*
X183755358Y-93154174D01*
X183779250Y-93153000D01*
X184266750Y-93153000D01*
X184290642Y-93154174D01*
X184290642Y-93154174D01*
G37*
D11*
X184023000Y-93853000D03*
D10*
G36*
X182415642Y-93154174D02*
G01*
X182439303Y-93157684D01*
X182462507Y-93163496D01*
X182485029Y-93171554D01*
X182506653Y-93181782D01*
X182527170Y-93194079D01*
X182546383Y-93208329D01*
X182564107Y-93224393D01*
X182580171Y-93242117D01*
X182594421Y-93261330D01*
X182606718Y-93281847D01*
X182616946Y-93303471D01*
X182625004Y-93325993D01*
X182630816Y-93349197D01*
X182634326Y-93372858D01*
X182635500Y-93396750D01*
X182635500Y-94309250D01*
X182634326Y-94333142D01*
X182630816Y-94356803D01*
X182625004Y-94380007D01*
X182616946Y-94402529D01*
X182606718Y-94424153D01*
X182594421Y-94444670D01*
X182580171Y-94463883D01*
X182564107Y-94481607D01*
X182546383Y-94497671D01*
X182527170Y-94511921D01*
X182506653Y-94524218D01*
X182485029Y-94534446D01*
X182462507Y-94542504D01*
X182439303Y-94548316D01*
X182415642Y-94551826D01*
X182391750Y-94553000D01*
X181904250Y-94553000D01*
X181880358Y-94551826D01*
X181856697Y-94548316D01*
X181833493Y-94542504D01*
X181810971Y-94534446D01*
X181789347Y-94524218D01*
X181768830Y-94511921D01*
X181749617Y-94497671D01*
X181731893Y-94481607D01*
X181715829Y-94463883D01*
X181701579Y-94444670D01*
X181689282Y-94424153D01*
X181679054Y-94402529D01*
X181670996Y-94380007D01*
X181665184Y-94356803D01*
X181661674Y-94333142D01*
X181660500Y-94309250D01*
X181660500Y-93396750D01*
X181661674Y-93372858D01*
X181665184Y-93349197D01*
X181670996Y-93325993D01*
X181679054Y-93303471D01*
X181689282Y-93281847D01*
X181701579Y-93261330D01*
X181715829Y-93242117D01*
X181731893Y-93224393D01*
X181749617Y-93208329D01*
X181768830Y-93194079D01*
X181789347Y-93181782D01*
X181810971Y-93171554D01*
X181833493Y-93163496D01*
X181856697Y-93157684D01*
X181880358Y-93154174D01*
X181904250Y-93153000D01*
X182391750Y-93153000D01*
X182415642Y-93154174D01*
X182415642Y-93154174D01*
G37*
D11*
X182148000Y-93853000D03*
D10*
G36*
X175176642Y-93281174D02*
G01*
X175200303Y-93284684D01*
X175223507Y-93290496D01*
X175246029Y-93298554D01*
X175267653Y-93308782D01*
X175288170Y-93321079D01*
X175307383Y-93335329D01*
X175325107Y-93351393D01*
X175341171Y-93369117D01*
X175355421Y-93388330D01*
X175367718Y-93408847D01*
X175377946Y-93430471D01*
X175386004Y-93452993D01*
X175391816Y-93476197D01*
X175395326Y-93499858D01*
X175396500Y-93523750D01*
X175396500Y-94436250D01*
X175395326Y-94460142D01*
X175391816Y-94483803D01*
X175386004Y-94507007D01*
X175377946Y-94529529D01*
X175367718Y-94551153D01*
X175355421Y-94571670D01*
X175341171Y-94590883D01*
X175325107Y-94608607D01*
X175307383Y-94624671D01*
X175288170Y-94638921D01*
X175267653Y-94651218D01*
X175246029Y-94661446D01*
X175223507Y-94669504D01*
X175200303Y-94675316D01*
X175176642Y-94678826D01*
X175152750Y-94680000D01*
X174665250Y-94680000D01*
X174641358Y-94678826D01*
X174617697Y-94675316D01*
X174594493Y-94669504D01*
X174571971Y-94661446D01*
X174550347Y-94651218D01*
X174529830Y-94638921D01*
X174510617Y-94624671D01*
X174492893Y-94608607D01*
X174476829Y-94590883D01*
X174462579Y-94571670D01*
X174450282Y-94551153D01*
X174440054Y-94529529D01*
X174431996Y-94507007D01*
X174426184Y-94483803D01*
X174422674Y-94460142D01*
X174421500Y-94436250D01*
X174421500Y-93523750D01*
X174422674Y-93499858D01*
X174426184Y-93476197D01*
X174431996Y-93452993D01*
X174440054Y-93430471D01*
X174450282Y-93408847D01*
X174462579Y-93388330D01*
X174476829Y-93369117D01*
X174492893Y-93351393D01*
X174510617Y-93335329D01*
X174529830Y-93321079D01*
X174550347Y-93308782D01*
X174571971Y-93298554D01*
X174594493Y-93290496D01*
X174617697Y-93284684D01*
X174641358Y-93281174D01*
X174665250Y-93280000D01*
X175152750Y-93280000D01*
X175176642Y-93281174D01*
X175176642Y-93281174D01*
G37*
D11*
X174909000Y-93980000D03*
D10*
G36*
X177051642Y-93281174D02*
G01*
X177075303Y-93284684D01*
X177098507Y-93290496D01*
X177121029Y-93298554D01*
X177142653Y-93308782D01*
X177163170Y-93321079D01*
X177182383Y-93335329D01*
X177200107Y-93351393D01*
X177216171Y-93369117D01*
X177230421Y-93388330D01*
X177242718Y-93408847D01*
X177252946Y-93430471D01*
X177261004Y-93452993D01*
X177266816Y-93476197D01*
X177270326Y-93499858D01*
X177271500Y-93523750D01*
X177271500Y-94436250D01*
X177270326Y-94460142D01*
X177266816Y-94483803D01*
X177261004Y-94507007D01*
X177252946Y-94529529D01*
X177242718Y-94551153D01*
X177230421Y-94571670D01*
X177216171Y-94590883D01*
X177200107Y-94608607D01*
X177182383Y-94624671D01*
X177163170Y-94638921D01*
X177142653Y-94651218D01*
X177121029Y-94661446D01*
X177098507Y-94669504D01*
X177075303Y-94675316D01*
X177051642Y-94678826D01*
X177027750Y-94680000D01*
X176540250Y-94680000D01*
X176516358Y-94678826D01*
X176492697Y-94675316D01*
X176469493Y-94669504D01*
X176446971Y-94661446D01*
X176425347Y-94651218D01*
X176404830Y-94638921D01*
X176385617Y-94624671D01*
X176367893Y-94608607D01*
X176351829Y-94590883D01*
X176337579Y-94571670D01*
X176325282Y-94551153D01*
X176315054Y-94529529D01*
X176306996Y-94507007D01*
X176301184Y-94483803D01*
X176297674Y-94460142D01*
X176296500Y-94436250D01*
X176296500Y-93523750D01*
X176297674Y-93499858D01*
X176301184Y-93476197D01*
X176306996Y-93452993D01*
X176315054Y-93430471D01*
X176325282Y-93408847D01*
X176337579Y-93388330D01*
X176351829Y-93369117D01*
X176367893Y-93351393D01*
X176385617Y-93335329D01*
X176404830Y-93321079D01*
X176425347Y-93308782D01*
X176446971Y-93298554D01*
X176469493Y-93290496D01*
X176492697Y-93284684D01*
X176516358Y-93281174D01*
X176540250Y-93280000D01*
X177027750Y-93280000D01*
X177051642Y-93281174D01*
X177051642Y-93281174D01*
G37*
D11*
X176784000Y-93980000D03*
D10*
G36*
X178956642Y-93154174D02*
G01*
X178980303Y-93157684D01*
X179003507Y-93163496D01*
X179026029Y-93171554D01*
X179047653Y-93181782D01*
X179068170Y-93194079D01*
X179087383Y-93208329D01*
X179105107Y-93224393D01*
X179121171Y-93242117D01*
X179135421Y-93261330D01*
X179147718Y-93281847D01*
X179157946Y-93303471D01*
X179166004Y-93325993D01*
X179171816Y-93349197D01*
X179175326Y-93372858D01*
X179176500Y-93396750D01*
X179176500Y-94309250D01*
X179175326Y-94333142D01*
X179171816Y-94356803D01*
X179166004Y-94380007D01*
X179157946Y-94402529D01*
X179147718Y-94424153D01*
X179135421Y-94444670D01*
X179121171Y-94463883D01*
X179105107Y-94481607D01*
X179087383Y-94497671D01*
X179068170Y-94511921D01*
X179047653Y-94524218D01*
X179026029Y-94534446D01*
X179003507Y-94542504D01*
X178980303Y-94548316D01*
X178956642Y-94551826D01*
X178932750Y-94553000D01*
X178445250Y-94553000D01*
X178421358Y-94551826D01*
X178397697Y-94548316D01*
X178374493Y-94542504D01*
X178351971Y-94534446D01*
X178330347Y-94524218D01*
X178309830Y-94511921D01*
X178290617Y-94497671D01*
X178272893Y-94481607D01*
X178256829Y-94463883D01*
X178242579Y-94444670D01*
X178230282Y-94424153D01*
X178220054Y-94402529D01*
X178211996Y-94380007D01*
X178206184Y-94356803D01*
X178202674Y-94333142D01*
X178201500Y-94309250D01*
X178201500Y-93396750D01*
X178202674Y-93372858D01*
X178206184Y-93349197D01*
X178211996Y-93325993D01*
X178220054Y-93303471D01*
X178230282Y-93281847D01*
X178242579Y-93261330D01*
X178256829Y-93242117D01*
X178272893Y-93224393D01*
X178290617Y-93208329D01*
X178309830Y-93194079D01*
X178330347Y-93181782D01*
X178351971Y-93171554D01*
X178374493Y-93163496D01*
X178397697Y-93157684D01*
X178421358Y-93154174D01*
X178445250Y-93153000D01*
X178932750Y-93153000D01*
X178956642Y-93154174D01*
X178956642Y-93154174D01*
G37*
D11*
X178689000Y-93853000D03*
D10*
G36*
X180831642Y-93154174D02*
G01*
X180855303Y-93157684D01*
X180878507Y-93163496D01*
X180901029Y-93171554D01*
X180922653Y-93181782D01*
X180943170Y-93194079D01*
X180962383Y-93208329D01*
X180980107Y-93224393D01*
X180996171Y-93242117D01*
X181010421Y-93261330D01*
X181022718Y-93281847D01*
X181032946Y-93303471D01*
X181041004Y-93325993D01*
X181046816Y-93349197D01*
X181050326Y-93372858D01*
X181051500Y-93396750D01*
X181051500Y-94309250D01*
X181050326Y-94333142D01*
X181046816Y-94356803D01*
X181041004Y-94380007D01*
X181032946Y-94402529D01*
X181022718Y-94424153D01*
X181010421Y-94444670D01*
X180996171Y-94463883D01*
X180980107Y-94481607D01*
X180962383Y-94497671D01*
X180943170Y-94511921D01*
X180922653Y-94524218D01*
X180901029Y-94534446D01*
X180878507Y-94542504D01*
X180855303Y-94548316D01*
X180831642Y-94551826D01*
X180807750Y-94553000D01*
X180320250Y-94553000D01*
X180296358Y-94551826D01*
X180272697Y-94548316D01*
X180249493Y-94542504D01*
X180226971Y-94534446D01*
X180205347Y-94524218D01*
X180184830Y-94511921D01*
X180165617Y-94497671D01*
X180147893Y-94481607D01*
X180131829Y-94463883D01*
X180117579Y-94444670D01*
X180105282Y-94424153D01*
X180095054Y-94402529D01*
X180086996Y-94380007D01*
X180081184Y-94356803D01*
X180077674Y-94333142D01*
X180076500Y-94309250D01*
X180076500Y-93396750D01*
X180077674Y-93372858D01*
X180081184Y-93349197D01*
X180086996Y-93325993D01*
X180095054Y-93303471D01*
X180105282Y-93281847D01*
X180117579Y-93261330D01*
X180131829Y-93242117D01*
X180147893Y-93224393D01*
X180165617Y-93208329D01*
X180184830Y-93194079D01*
X180205347Y-93181782D01*
X180226971Y-93171554D01*
X180249493Y-93163496D01*
X180272697Y-93157684D01*
X180296358Y-93154174D01*
X180320250Y-93153000D01*
X180807750Y-93153000D01*
X180831642Y-93154174D01*
X180831642Y-93154174D01*
G37*
D11*
X180564000Y-93853000D03*
D10*
G36*
X208125142Y-88032674D02*
G01*
X208148803Y-88036184D01*
X208172007Y-88041996D01*
X208194529Y-88050054D01*
X208216153Y-88060282D01*
X208236670Y-88072579D01*
X208255883Y-88086829D01*
X208273607Y-88102893D01*
X208289671Y-88120617D01*
X208303921Y-88139830D01*
X208316218Y-88160347D01*
X208326446Y-88181971D01*
X208334504Y-88204493D01*
X208340316Y-88227697D01*
X208343826Y-88251358D01*
X208345000Y-88275250D01*
X208345000Y-88762750D01*
X208343826Y-88786642D01*
X208340316Y-88810303D01*
X208334504Y-88833507D01*
X208326446Y-88856029D01*
X208316218Y-88877653D01*
X208303921Y-88898170D01*
X208289671Y-88917383D01*
X208273607Y-88935107D01*
X208255883Y-88951171D01*
X208236670Y-88965421D01*
X208216153Y-88977718D01*
X208194529Y-88987946D01*
X208172007Y-88996004D01*
X208148803Y-89001816D01*
X208125142Y-89005326D01*
X208101250Y-89006500D01*
X207188750Y-89006500D01*
X207164858Y-89005326D01*
X207141197Y-89001816D01*
X207117993Y-88996004D01*
X207095471Y-88987946D01*
X207073847Y-88977718D01*
X207053330Y-88965421D01*
X207034117Y-88951171D01*
X207016393Y-88935107D01*
X207000329Y-88917383D01*
X206986079Y-88898170D01*
X206973782Y-88877653D01*
X206963554Y-88856029D01*
X206955496Y-88833507D01*
X206949684Y-88810303D01*
X206946174Y-88786642D01*
X206945000Y-88762750D01*
X206945000Y-88275250D01*
X206946174Y-88251358D01*
X206949684Y-88227697D01*
X206955496Y-88204493D01*
X206963554Y-88181971D01*
X206973782Y-88160347D01*
X206986079Y-88139830D01*
X207000329Y-88120617D01*
X207016393Y-88102893D01*
X207034117Y-88086829D01*
X207053330Y-88072579D01*
X207073847Y-88060282D01*
X207095471Y-88050054D01*
X207117993Y-88041996D01*
X207141197Y-88036184D01*
X207164858Y-88032674D01*
X207188750Y-88031500D01*
X208101250Y-88031500D01*
X208125142Y-88032674D01*
X208125142Y-88032674D01*
G37*
D11*
X207645000Y-88519000D03*
D10*
G36*
X208125142Y-89907674D02*
G01*
X208148803Y-89911184D01*
X208172007Y-89916996D01*
X208194529Y-89925054D01*
X208216153Y-89935282D01*
X208236670Y-89947579D01*
X208255883Y-89961829D01*
X208273607Y-89977893D01*
X208289671Y-89995617D01*
X208303921Y-90014830D01*
X208316218Y-90035347D01*
X208326446Y-90056971D01*
X208334504Y-90079493D01*
X208340316Y-90102697D01*
X208343826Y-90126358D01*
X208345000Y-90150250D01*
X208345000Y-90637750D01*
X208343826Y-90661642D01*
X208340316Y-90685303D01*
X208334504Y-90708507D01*
X208326446Y-90731029D01*
X208316218Y-90752653D01*
X208303921Y-90773170D01*
X208289671Y-90792383D01*
X208273607Y-90810107D01*
X208255883Y-90826171D01*
X208236670Y-90840421D01*
X208216153Y-90852718D01*
X208194529Y-90862946D01*
X208172007Y-90871004D01*
X208148803Y-90876816D01*
X208125142Y-90880326D01*
X208101250Y-90881500D01*
X207188750Y-90881500D01*
X207164858Y-90880326D01*
X207141197Y-90876816D01*
X207117993Y-90871004D01*
X207095471Y-90862946D01*
X207073847Y-90852718D01*
X207053330Y-90840421D01*
X207034117Y-90826171D01*
X207016393Y-90810107D01*
X207000329Y-90792383D01*
X206986079Y-90773170D01*
X206973782Y-90752653D01*
X206963554Y-90731029D01*
X206955496Y-90708507D01*
X206949684Y-90685303D01*
X206946174Y-90661642D01*
X206945000Y-90637750D01*
X206945000Y-90150250D01*
X206946174Y-90126358D01*
X206949684Y-90102697D01*
X206955496Y-90079493D01*
X206963554Y-90056971D01*
X206973782Y-90035347D01*
X206986079Y-90014830D01*
X207000329Y-89995617D01*
X207016393Y-89977893D01*
X207034117Y-89961829D01*
X207053330Y-89947579D01*
X207073847Y-89935282D01*
X207095471Y-89925054D01*
X207117993Y-89916996D01*
X207141197Y-89911184D01*
X207164858Y-89907674D01*
X207188750Y-89906500D01*
X208101250Y-89906500D01*
X208125142Y-89907674D01*
X208125142Y-89907674D01*
G37*
D11*
X207645000Y-90394000D03*
D10*
G36*
X206093142Y-89937674D02*
G01*
X206116803Y-89941184D01*
X206140007Y-89946996D01*
X206162529Y-89955054D01*
X206184153Y-89965282D01*
X206204670Y-89977579D01*
X206223883Y-89991829D01*
X206241607Y-90007893D01*
X206257671Y-90025617D01*
X206271921Y-90044830D01*
X206284218Y-90065347D01*
X206294446Y-90086971D01*
X206302504Y-90109493D01*
X206308316Y-90132697D01*
X206311826Y-90156358D01*
X206313000Y-90180250D01*
X206313000Y-90667750D01*
X206311826Y-90691642D01*
X206308316Y-90715303D01*
X206302504Y-90738507D01*
X206294446Y-90761029D01*
X206284218Y-90782653D01*
X206271921Y-90803170D01*
X206257671Y-90822383D01*
X206241607Y-90840107D01*
X206223883Y-90856171D01*
X206204670Y-90870421D01*
X206184153Y-90882718D01*
X206162529Y-90892946D01*
X206140007Y-90901004D01*
X206116803Y-90906816D01*
X206093142Y-90910326D01*
X206069250Y-90911500D01*
X205156750Y-90911500D01*
X205132858Y-90910326D01*
X205109197Y-90906816D01*
X205085993Y-90901004D01*
X205063471Y-90892946D01*
X205041847Y-90882718D01*
X205021330Y-90870421D01*
X205002117Y-90856171D01*
X204984393Y-90840107D01*
X204968329Y-90822383D01*
X204954079Y-90803170D01*
X204941782Y-90782653D01*
X204931554Y-90761029D01*
X204923496Y-90738507D01*
X204917684Y-90715303D01*
X204914174Y-90691642D01*
X204913000Y-90667750D01*
X204913000Y-90180250D01*
X204914174Y-90156358D01*
X204917684Y-90132697D01*
X204923496Y-90109493D01*
X204931554Y-90086971D01*
X204941782Y-90065347D01*
X204954079Y-90044830D01*
X204968329Y-90025617D01*
X204984393Y-90007893D01*
X205002117Y-89991829D01*
X205021330Y-89977579D01*
X205041847Y-89965282D01*
X205063471Y-89955054D01*
X205085993Y-89946996D01*
X205109197Y-89941184D01*
X205132858Y-89937674D01*
X205156750Y-89936500D01*
X206069250Y-89936500D01*
X206093142Y-89937674D01*
X206093142Y-89937674D01*
G37*
D11*
X205613000Y-90424000D03*
D10*
G36*
X206093142Y-88062674D02*
G01*
X206116803Y-88066184D01*
X206140007Y-88071996D01*
X206162529Y-88080054D01*
X206184153Y-88090282D01*
X206204670Y-88102579D01*
X206223883Y-88116829D01*
X206241607Y-88132893D01*
X206257671Y-88150617D01*
X206271921Y-88169830D01*
X206284218Y-88190347D01*
X206294446Y-88211971D01*
X206302504Y-88234493D01*
X206308316Y-88257697D01*
X206311826Y-88281358D01*
X206313000Y-88305250D01*
X206313000Y-88792750D01*
X206311826Y-88816642D01*
X206308316Y-88840303D01*
X206302504Y-88863507D01*
X206294446Y-88886029D01*
X206284218Y-88907653D01*
X206271921Y-88928170D01*
X206257671Y-88947383D01*
X206241607Y-88965107D01*
X206223883Y-88981171D01*
X206204670Y-88995421D01*
X206184153Y-89007718D01*
X206162529Y-89017946D01*
X206140007Y-89026004D01*
X206116803Y-89031816D01*
X206093142Y-89035326D01*
X206069250Y-89036500D01*
X205156750Y-89036500D01*
X205132858Y-89035326D01*
X205109197Y-89031816D01*
X205085993Y-89026004D01*
X205063471Y-89017946D01*
X205041847Y-89007718D01*
X205021330Y-88995421D01*
X205002117Y-88981171D01*
X204984393Y-88965107D01*
X204968329Y-88947383D01*
X204954079Y-88928170D01*
X204941782Y-88907653D01*
X204931554Y-88886029D01*
X204923496Y-88863507D01*
X204917684Y-88840303D01*
X204914174Y-88816642D01*
X204913000Y-88792750D01*
X204913000Y-88305250D01*
X204914174Y-88281358D01*
X204917684Y-88257697D01*
X204923496Y-88234493D01*
X204931554Y-88211971D01*
X204941782Y-88190347D01*
X204954079Y-88169830D01*
X204968329Y-88150617D01*
X204984393Y-88132893D01*
X205002117Y-88116829D01*
X205021330Y-88102579D01*
X205041847Y-88090282D01*
X205063471Y-88080054D01*
X205085993Y-88071996D01*
X205109197Y-88066184D01*
X205132858Y-88062674D01*
X205156750Y-88061500D01*
X206069250Y-88061500D01*
X206093142Y-88062674D01*
X206093142Y-88062674D01*
G37*
D11*
X205613000Y-88549000D03*
D10*
G36*
X199276642Y-98488174D02*
G01*
X199300303Y-98491684D01*
X199323507Y-98497496D01*
X199346029Y-98505554D01*
X199367653Y-98515782D01*
X199388170Y-98528079D01*
X199407383Y-98542329D01*
X199425107Y-98558393D01*
X199441171Y-98576117D01*
X199455421Y-98595330D01*
X199467718Y-98615847D01*
X199477946Y-98637471D01*
X199486004Y-98659993D01*
X199491816Y-98683197D01*
X199495326Y-98706858D01*
X199496500Y-98730750D01*
X199496500Y-99643250D01*
X199495326Y-99667142D01*
X199491816Y-99690803D01*
X199486004Y-99714007D01*
X199477946Y-99736529D01*
X199467718Y-99758153D01*
X199455421Y-99778670D01*
X199441171Y-99797883D01*
X199425107Y-99815607D01*
X199407383Y-99831671D01*
X199388170Y-99845921D01*
X199367653Y-99858218D01*
X199346029Y-99868446D01*
X199323507Y-99876504D01*
X199300303Y-99882316D01*
X199276642Y-99885826D01*
X199252750Y-99887000D01*
X198765250Y-99887000D01*
X198741358Y-99885826D01*
X198717697Y-99882316D01*
X198694493Y-99876504D01*
X198671971Y-99868446D01*
X198650347Y-99858218D01*
X198629830Y-99845921D01*
X198610617Y-99831671D01*
X198592893Y-99815607D01*
X198576829Y-99797883D01*
X198562579Y-99778670D01*
X198550282Y-99758153D01*
X198540054Y-99736529D01*
X198531996Y-99714007D01*
X198526184Y-99690803D01*
X198522674Y-99667142D01*
X198521500Y-99643250D01*
X198521500Y-98730750D01*
X198522674Y-98706858D01*
X198526184Y-98683197D01*
X198531996Y-98659993D01*
X198540054Y-98637471D01*
X198550282Y-98615847D01*
X198562579Y-98595330D01*
X198576829Y-98576117D01*
X198592893Y-98558393D01*
X198610617Y-98542329D01*
X198629830Y-98528079D01*
X198650347Y-98515782D01*
X198671971Y-98505554D01*
X198694493Y-98497496D01*
X198717697Y-98491684D01*
X198741358Y-98488174D01*
X198765250Y-98487000D01*
X199252750Y-98487000D01*
X199276642Y-98488174D01*
X199276642Y-98488174D01*
G37*
D11*
X199009000Y-99187000D03*
D10*
G36*
X197401642Y-98488174D02*
G01*
X197425303Y-98491684D01*
X197448507Y-98497496D01*
X197471029Y-98505554D01*
X197492653Y-98515782D01*
X197513170Y-98528079D01*
X197532383Y-98542329D01*
X197550107Y-98558393D01*
X197566171Y-98576117D01*
X197580421Y-98595330D01*
X197592718Y-98615847D01*
X197602946Y-98637471D01*
X197611004Y-98659993D01*
X197616816Y-98683197D01*
X197620326Y-98706858D01*
X197621500Y-98730750D01*
X197621500Y-99643250D01*
X197620326Y-99667142D01*
X197616816Y-99690803D01*
X197611004Y-99714007D01*
X197602946Y-99736529D01*
X197592718Y-99758153D01*
X197580421Y-99778670D01*
X197566171Y-99797883D01*
X197550107Y-99815607D01*
X197532383Y-99831671D01*
X197513170Y-99845921D01*
X197492653Y-99858218D01*
X197471029Y-99868446D01*
X197448507Y-99876504D01*
X197425303Y-99882316D01*
X197401642Y-99885826D01*
X197377750Y-99887000D01*
X196890250Y-99887000D01*
X196866358Y-99885826D01*
X196842697Y-99882316D01*
X196819493Y-99876504D01*
X196796971Y-99868446D01*
X196775347Y-99858218D01*
X196754830Y-99845921D01*
X196735617Y-99831671D01*
X196717893Y-99815607D01*
X196701829Y-99797883D01*
X196687579Y-99778670D01*
X196675282Y-99758153D01*
X196665054Y-99736529D01*
X196656996Y-99714007D01*
X196651184Y-99690803D01*
X196647674Y-99667142D01*
X196646500Y-99643250D01*
X196646500Y-98730750D01*
X196647674Y-98706858D01*
X196651184Y-98683197D01*
X196656996Y-98659993D01*
X196665054Y-98637471D01*
X196675282Y-98615847D01*
X196687579Y-98595330D01*
X196701829Y-98576117D01*
X196717893Y-98558393D01*
X196735617Y-98542329D01*
X196754830Y-98528079D01*
X196775347Y-98515782D01*
X196796971Y-98505554D01*
X196819493Y-98497496D01*
X196842697Y-98491684D01*
X196866358Y-98488174D01*
X196890250Y-98487000D01*
X197377750Y-98487000D01*
X197401642Y-98488174D01*
X197401642Y-98488174D01*
G37*
D11*
X197134000Y-99187000D03*
D10*
G36*
X190218142Y-87905674D02*
G01*
X190241803Y-87909184D01*
X190265007Y-87914996D01*
X190287529Y-87923054D01*
X190309153Y-87933282D01*
X190329670Y-87945579D01*
X190348883Y-87959829D01*
X190366607Y-87975893D01*
X190382671Y-87993617D01*
X190396921Y-88012830D01*
X190409218Y-88033347D01*
X190419446Y-88054971D01*
X190427504Y-88077493D01*
X190433316Y-88100697D01*
X190436826Y-88124358D01*
X190438000Y-88148250D01*
X190438000Y-88635750D01*
X190436826Y-88659642D01*
X190433316Y-88683303D01*
X190427504Y-88706507D01*
X190419446Y-88729029D01*
X190409218Y-88750653D01*
X190396921Y-88771170D01*
X190382671Y-88790383D01*
X190366607Y-88808107D01*
X190348883Y-88824171D01*
X190329670Y-88838421D01*
X190309153Y-88850718D01*
X190287529Y-88860946D01*
X190265007Y-88869004D01*
X190241803Y-88874816D01*
X190218142Y-88878326D01*
X190194250Y-88879500D01*
X189281750Y-88879500D01*
X189257858Y-88878326D01*
X189234197Y-88874816D01*
X189210993Y-88869004D01*
X189188471Y-88860946D01*
X189166847Y-88850718D01*
X189146330Y-88838421D01*
X189127117Y-88824171D01*
X189109393Y-88808107D01*
X189093329Y-88790383D01*
X189079079Y-88771170D01*
X189066782Y-88750653D01*
X189056554Y-88729029D01*
X189048496Y-88706507D01*
X189042684Y-88683303D01*
X189039174Y-88659642D01*
X189038000Y-88635750D01*
X189038000Y-88148250D01*
X189039174Y-88124358D01*
X189042684Y-88100697D01*
X189048496Y-88077493D01*
X189056554Y-88054971D01*
X189066782Y-88033347D01*
X189079079Y-88012830D01*
X189093329Y-87993617D01*
X189109393Y-87975893D01*
X189127117Y-87959829D01*
X189146330Y-87945579D01*
X189166847Y-87933282D01*
X189188471Y-87923054D01*
X189210993Y-87914996D01*
X189234197Y-87909184D01*
X189257858Y-87905674D01*
X189281750Y-87904500D01*
X190194250Y-87904500D01*
X190218142Y-87905674D01*
X190218142Y-87905674D01*
G37*
D11*
X189738000Y-88392000D03*
D10*
G36*
X190218142Y-89780674D02*
G01*
X190241803Y-89784184D01*
X190265007Y-89789996D01*
X190287529Y-89798054D01*
X190309153Y-89808282D01*
X190329670Y-89820579D01*
X190348883Y-89834829D01*
X190366607Y-89850893D01*
X190382671Y-89868617D01*
X190396921Y-89887830D01*
X190409218Y-89908347D01*
X190419446Y-89929971D01*
X190427504Y-89952493D01*
X190433316Y-89975697D01*
X190436826Y-89999358D01*
X190438000Y-90023250D01*
X190438000Y-90510750D01*
X190436826Y-90534642D01*
X190433316Y-90558303D01*
X190427504Y-90581507D01*
X190419446Y-90604029D01*
X190409218Y-90625653D01*
X190396921Y-90646170D01*
X190382671Y-90665383D01*
X190366607Y-90683107D01*
X190348883Y-90699171D01*
X190329670Y-90713421D01*
X190309153Y-90725718D01*
X190287529Y-90735946D01*
X190265007Y-90744004D01*
X190241803Y-90749816D01*
X190218142Y-90753326D01*
X190194250Y-90754500D01*
X189281750Y-90754500D01*
X189257858Y-90753326D01*
X189234197Y-90749816D01*
X189210993Y-90744004D01*
X189188471Y-90735946D01*
X189166847Y-90725718D01*
X189146330Y-90713421D01*
X189127117Y-90699171D01*
X189109393Y-90683107D01*
X189093329Y-90665383D01*
X189079079Y-90646170D01*
X189066782Y-90625653D01*
X189056554Y-90604029D01*
X189048496Y-90581507D01*
X189042684Y-90558303D01*
X189039174Y-90534642D01*
X189038000Y-90510750D01*
X189038000Y-90023250D01*
X189039174Y-89999358D01*
X189042684Y-89975697D01*
X189048496Y-89952493D01*
X189056554Y-89929971D01*
X189066782Y-89908347D01*
X189079079Y-89887830D01*
X189093329Y-89868617D01*
X189109393Y-89850893D01*
X189127117Y-89834829D01*
X189146330Y-89820579D01*
X189166847Y-89808282D01*
X189188471Y-89798054D01*
X189210993Y-89789996D01*
X189234197Y-89784184D01*
X189257858Y-89780674D01*
X189281750Y-89779500D01*
X190194250Y-89779500D01*
X190218142Y-89780674D01*
X190218142Y-89780674D01*
G37*
D11*
X189738000Y-90267000D03*
D10*
G36*
X221755642Y-107124174D02*
G01*
X221779303Y-107127684D01*
X221802507Y-107133496D01*
X221825029Y-107141554D01*
X221846653Y-107151782D01*
X221867170Y-107164079D01*
X221886383Y-107178329D01*
X221904107Y-107194393D01*
X221920171Y-107212117D01*
X221934421Y-107231330D01*
X221946718Y-107251847D01*
X221956946Y-107273471D01*
X221965004Y-107295993D01*
X221970816Y-107319197D01*
X221974326Y-107342858D01*
X221975500Y-107366750D01*
X221975500Y-108279250D01*
X221974326Y-108303142D01*
X221970816Y-108326803D01*
X221965004Y-108350007D01*
X221956946Y-108372529D01*
X221946718Y-108394153D01*
X221934421Y-108414670D01*
X221920171Y-108433883D01*
X221904107Y-108451607D01*
X221886383Y-108467671D01*
X221867170Y-108481921D01*
X221846653Y-108494218D01*
X221825029Y-108504446D01*
X221802507Y-108512504D01*
X221779303Y-108518316D01*
X221755642Y-108521826D01*
X221731750Y-108523000D01*
X221244250Y-108523000D01*
X221220358Y-108521826D01*
X221196697Y-108518316D01*
X221173493Y-108512504D01*
X221150971Y-108504446D01*
X221129347Y-108494218D01*
X221108830Y-108481921D01*
X221089617Y-108467671D01*
X221071893Y-108451607D01*
X221055829Y-108433883D01*
X221041579Y-108414670D01*
X221029282Y-108394153D01*
X221019054Y-108372529D01*
X221010996Y-108350007D01*
X221005184Y-108326803D01*
X221001674Y-108303142D01*
X221000500Y-108279250D01*
X221000500Y-107366750D01*
X221001674Y-107342858D01*
X221005184Y-107319197D01*
X221010996Y-107295993D01*
X221019054Y-107273471D01*
X221029282Y-107251847D01*
X221041579Y-107231330D01*
X221055829Y-107212117D01*
X221071893Y-107194393D01*
X221089617Y-107178329D01*
X221108830Y-107164079D01*
X221129347Y-107151782D01*
X221150971Y-107141554D01*
X221173493Y-107133496D01*
X221196697Y-107127684D01*
X221220358Y-107124174D01*
X221244250Y-107123000D01*
X221731750Y-107123000D01*
X221755642Y-107124174D01*
X221755642Y-107124174D01*
G37*
D11*
X221488000Y-107823000D03*
D10*
G36*
X219880642Y-107124174D02*
G01*
X219904303Y-107127684D01*
X219927507Y-107133496D01*
X219950029Y-107141554D01*
X219971653Y-107151782D01*
X219992170Y-107164079D01*
X220011383Y-107178329D01*
X220029107Y-107194393D01*
X220045171Y-107212117D01*
X220059421Y-107231330D01*
X220071718Y-107251847D01*
X220081946Y-107273471D01*
X220090004Y-107295993D01*
X220095816Y-107319197D01*
X220099326Y-107342858D01*
X220100500Y-107366750D01*
X220100500Y-108279250D01*
X220099326Y-108303142D01*
X220095816Y-108326803D01*
X220090004Y-108350007D01*
X220081946Y-108372529D01*
X220071718Y-108394153D01*
X220059421Y-108414670D01*
X220045171Y-108433883D01*
X220029107Y-108451607D01*
X220011383Y-108467671D01*
X219992170Y-108481921D01*
X219971653Y-108494218D01*
X219950029Y-108504446D01*
X219927507Y-108512504D01*
X219904303Y-108518316D01*
X219880642Y-108521826D01*
X219856750Y-108523000D01*
X219369250Y-108523000D01*
X219345358Y-108521826D01*
X219321697Y-108518316D01*
X219298493Y-108512504D01*
X219275971Y-108504446D01*
X219254347Y-108494218D01*
X219233830Y-108481921D01*
X219214617Y-108467671D01*
X219196893Y-108451607D01*
X219180829Y-108433883D01*
X219166579Y-108414670D01*
X219154282Y-108394153D01*
X219144054Y-108372529D01*
X219135996Y-108350007D01*
X219130184Y-108326803D01*
X219126674Y-108303142D01*
X219125500Y-108279250D01*
X219125500Y-107366750D01*
X219126674Y-107342858D01*
X219130184Y-107319197D01*
X219135996Y-107295993D01*
X219144054Y-107273471D01*
X219154282Y-107251847D01*
X219166579Y-107231330D01*
X219180829Y-107212117D01*
X219196893Y-107194393D01*
X219214617Y-107178329D01*
X219233830Y-107164079D01*
X219254347Y-107151782D01*
X219275971Y-107141554D01*
X219298493Y-107133496D01*
X219321697Y-107127684D01*
X219345358Y-107124174D01*
X219369250Y-107123000D01*
X219856750Y-107123000D01*
X219880642Y-107124174D01*
X219880642Y-107124174D01*
G37*
D11*
X219613000Y-107823000D03*
D10*
G36*
X218737642Y-134937174D02*
G01*
X218761303Y-134940684D01*
X218784507Y-134946496D01*
X218807029Y-134954554D01*
X218828653Y-134964782D01*
X218849170Y-134977079D01*
X218868383Y-134991329D01*
X218886107Y-135007393D01*
X218902171Y-135025117D01*
X218916421Y-135044330D01*
X218928718Y-135064847D01*
X218938946Y-135086471D01*
X218947004Y-135108993D01*
X218952816Y-135132197D01*
X218956326Y-135155858D01*
X218957500Y-135179750D01*
X218957500Y-136092250D01*
X218956326Y-136116142D01*
X218952816Y-136139803D01*
X218947004Y-136163007D01*
X218938946Y-136185529D01*
X218928718Y-136207153D01*
X218916421Y-136227670D01*
X218902171Y-136246883D01*
X218886107Y-136264607D01*
X218868383Y-136280671D01*
X218849170Y-136294921D01*
X218828653Y-136307218D01*
X218807029Y-136317446D01*
X218784507Y-136325504D01*
X218761303Y-136331316D01*
X218737642Y-136334826D01*
X218713750Y-136336000D01*
X218226250Y-136336000D01*
X218202358Y-136334826D01*
X218178697Y-136331316D01*
X218155493Y-136325504D01*
X218132971Y-136317446D01*
X218111347Y-136307218D01*
X218090830Y-136294921D01*
X218071617Y-136280671D01*
X218053893Y-136264607D01*
X218037829Y-136246883D01*
X218023579Y-136227670D01*
X218011282Y-136207153D01*
X218001054Y-136185529D01*
X217992996Y-136163007D01*
X217987184Y-136139803D01*
X217983674Y-136116142D01*
X217982500Y-136092250D01*
X217982500Y-135179750D01*
X217983674Y-135155858D01*
X217987184Y-135132197D01*
X217992996Y-135108993D01*
X218001054Y-135086471D01*
X218011282Y-135064847D01*
X218023579Y-135044330D01*
X218037829Y-135025117D01*
X218053893Y-135007393D01*
X218071617Y-134991329D01*
X218090830Y-134977079D01*
X218111347Y-134964782D01*
X218132971Y-134954554D01*
X218155493Y-134946496D01*
X218178697Y-134940684D01*
X218202358Y-134937174D01*
X218226250Y-134936000D01*
X218713750Y-134936000D01*
X218737642Y-134937174D01*
X218737642Y-134937174D01*
G37*
D11*
X218470000Y-135636000D03*
D10*
G36*
X220612642Y-134937174D02*
G01*
X220636303Y-134940684D01*
X220659507Y-134946496D01*
X220682029Y-134954554D01*
X220703653Y-134964782D01*
X220724170Y-134977079D01*
X220743383Y-134991329D01*
X220761107Y-135007393D01*
X220777171Y-135025117D01*
X220791421Y-135044330D01*
X220803718Y-135064847D01*
X220813946Y-135086471D01*
X220822004Y-135108993D01*
X220827816Y-135132197D01*
X220831326Y-135155858D01*
X220832500Y-135179750D01*
X220832500Y-136092250D01*
X220831326Y-136116142D01*
X220827816Y-136139803D01*
X220822004Y-136163007D01*
X220813946Y-136185529D01*
X220803718Y-136207153D01*
X220791421Y-136227670D01*
X220777171Y-136246883D01*
X220761107Y-136264607D01*
X220743383Y-136280671D01*
X220724170Y-136294921D01*
X220703653Y-136307218D01*
X220682029Y-136317446D01*
X220659507Y-136325504D01*
X220636303Y-136331316D01*
X220612642Y-136334826D01*
X220588750Y-136336000D01*
X220101250Y-136336000D01*
X220077358Y-136334826D01*
X220053697Y-136331316D01*
X220030493Y-136325504D01*
X220007971Y-136317446D01*
X219986347Y-136307218D01*
X219965830Y-136294921D01*
X219946617Y-136280671D01*
X219928893Y-136264607D01*
X219912829Y-136246883D01*
X219898579Y-136227670D01*
X219886282Y-136207153D01*
X219876054Y-136185529D01*
X219867996Y-136163007D01*
X219862184Y-136139803D01*
X219858674Y-136116142D01*
X219857500Y-136092250D01*
X219857500Y-135179750D01*
X219858674Y-135155858D01*
X219862184Y-135132197D01*
X219867996Y-135108993D01*
X219876054Y-135086471D01*
X219886282Y-135064847D01*
X219898579Y-135044330D01*
X219912829Y-135025117D01*
X219928893Y-135007393D01*
X219946617Y-134991329D01*
X219965830Y-134977079D01*
X219986347Y-134964782D01*
X220007971Y-134954554D01*
X220030493Y-134946496D01*
X220053697Y-134940684D01*
X220077358Y-134937174D01*
X220101250Y-134936000D01*
X220588750Y-134936000D01*
X220612642Y-134937174D01*
X220612642Y-134937174D01*
G37*
D11*
X220345000Y-135636000D03*
D10*
G36*
X219880642Y-109156174D02*
G01*
X219904303Y-109159684D01*
X219927507Y-109165496D01*
X219950029Y-109173554D01*
X219971653Y-109183782D01*
X219992170Y-109196079D01*
X220011383Y-109210329D01*
X220029107Y-109226393D01*
X220045171Y-109244117D01*
X220059421Y-109263330D01*
X220071718Y-109283847D01*
X220081946Y-109305471D01*
X220090004Y-109327993D01*
X220095816Y-109351197D01*
X220099326Y-109374858D01*
X220100500Y-109398750D01*
X220100500Y-110311250D01*
X220099326Y-110335142D01*
X220095816Y-110358803D01*
X220090004Y-110382007D01*
X220081946Y-110404529D01*
X220071718Y-110426153D01*
X220059421Y-110446670D01*
X220045171Y-110465883D01*
X220029107Y-110483607D01*
X220011383Y-110499671D01*
X219992170Y-110513921D01*
X219971653Y-110526218D01*
X219950029Y-110536446D01*
X219927507Y-110544504D01*
X219904303Y-110550316D01*
X219880642Y-110553826D01*
X219856750Y-110555000D01*
X219369250Y-110555000D01*
X219345358Y-110553826D01*
X219321697Y-110550316D01*
X219298493Y-110544504D01*
X219275971Y-110536446D01*
X219254347Y-110526218D01*
X219233830Y-110513921D01*
X219214617Y-110499671D01*
X219196893Y-110483607D01*
X219180829Y-110465883D01*
X219166579Y-110446670D01*
X219154282Y-110426153D01*
X219144054Y-110404529D01*
X219135996Y-110382007D01*
X219130184Y-110358803D01*
X219126674Y-110335142D01*
X219125500Y-110311250D01*
X219125500Y-109398750D01*
X219126674Y-109374858D01*
X219130184Y-109351197D01*
X219135996Y-109327993D01*
X219144054Y-109305471D01*
X219154282Y-109283847D01*
X219166579Y-109263330D01*
X219180829Y-109244117D01*
X219196893Y-109226393D01*
X219214617Y-109210329D01*
X219233830Y-109196079D01*
X219254347Y-109183782D01*
X219275971Y-109173554D01*
X219298493Y-109165496D01*
X219321697Y-109159684D01*
X219345358Y-109156174D01*
X219369250Y-109155000D01*
X219856750Y-109155000D01*
X219880642Y-109156174D01*
X219880642Y-109156174D01*
G37*
D11*
X219613000Y-109855000D03*
D10*
G36*
X221755642Y-109156174D02*
G01*
X221779303Y-109159684D01*
X221802507Y-109165496D01*
X221825029Y-109173554D01*
X221846653Y-109183782D01*
X221867170Y-109196079D01*
X221886383Y-109210329D01*
X221904107Y-109226393D01*
X221920171Y-109244117D01*
X221934421Y-109263330D01*
X221946718Y-109283847D01*
X221956946Y-109305471D01*
X221965004Y-109327993D01*
X221970816Y-109351197D01*
X221974326Y-109374858D01*
X221975500Y-109398750D01*
X221975500Y-110311250D01*
X221974326Y-110335142D01*
X221970816Y-110358803D01*
X221965004Y-110382007D01*
X221956946Y-110404529D01*
X221946718Y-110426153D01*
X221934421Y-110446670D01*
X221920171Y-110465883D01*
X221904107Y-110483607D01*
X221886383Y-110499671D01*
X221867170Y-110513921D01*
X221846653Y-110526218D01*
X221825029Y-110536446D01*
X221802507Y-110544504D01*
X221779303Y-110550316D01*
X221755642Y-110553826D01*
X221731750Y-110555000D01*
X221244250Y-110555000D01*
X221220358Y-110553826D01*
X221196697Y-110550316D01*
X221173493Y-110544504D01*
X221150971Y-110536446D01*
X221129347Y-110526218D01*
X221108830Y-110513921D01*
X221089617Y-110499671D01*
X221071893Y-110483607D01*
X221055829Y-110465883D01*
X221041579Y-110446670D01*
X221029282Y-110426153D01*
X221019054Y-110404529D01*
X221010996Y-110382007D01*
X221005184Y-110358803D01*
X221001674Y-110335142D01*
X221000500Y-110311250D01*
X221000500Y-109398750D01*
X221001674Y-109374858D01*
X221005184Y-109351197D01*
X221010996Y-109327993D01*
X221019054Y-109305471D01*
X221029282Y-109283847D01*
X221041579Y-109263330D01*
X221055829Y-109244117D01*
X221071893Y-109226393D01*
X221089617Y-109210329D01*
X221108830Y-109196079D01*
X221129347Y-109183782D01*
X221150971Y-109173554D01*
X221173493Y-109165496D01*
X221196697Y-109159684D01*
X221220358Y-109156174D01*
X221244250Y-109155000D01*
X221731750Y-109155000D01*
X221755642Y-109156174D01*
X221755642Y-109156174D01*
G37*
D11*
X221488000Y-109855000D03*
D10*
G36*
X214221142Y-117593674D02*
G01*
X214244803Y-117597184D01*
X214268007Y-117602996D01*
X214290529Y-117611054D01*
X214312153Y-117621282D01*
X214332670Y-117633579D01*
X214351883Y-117647829D01*
X214369607Y-117663893D01*
X214385671Y-117681617D01*
X214399921Y-117700830D01*
X214412218Y-117721347D01*
X214422446Y-117742971D01*
X214430504Y-117765493D01*
X214436316Y-117788697D01*
X214439826Y-117812358D01*
X214441000Y-117836250D01*
X214441000Y-118323750D01*
X214439826Y-118347642D01*
X214436316Y-118371303D01*
X214430504Y-118394507D01*
X214422446Y-118417029D01*
X214412218Y-118438653D01*
X214399921Y-118459170D01*
X214385671Y-118478383D01*
X214369607Y-118496107D01*
X214351883Y-118512171D01*
X214332670Y-118526421D01*
X214312153Y-118538718D01*
X214290529Y-118548946D01*
X214268007Y-118557004D01*
X214244803Y-118562816D01*
X214221142Y-118566326D01*
X214197250Y-118567500D01*
X213284750Y-118567500D01*
X213260858Y-118566326D01*
X213237197Y-118562816D01*
X213213993Y-118557004D01*
X213191471Y-118548946D01*
X213169847Y-118538718D01*
X213149330Y-118526421D01*
X213130117Y-118512171D01*
X213112393Y-118496107D01*
X213096329Y-118478383D01*
X213082079Y-118459170D01*
X213069782Y-118438653D01*
X213059554Y-118417029D01*
X213051496Y-118394507D01*
X213045684Y-118371303D01*
X213042174Y-118347642D01*
X213041000Y-118323750D01*
X213041000Y-117836250D01*
X213042174Y-117812358D01*
X213045684Y-117788697D01*
X213051496Y-117765493D01*
X213059554Y-117742971D01*
X213069782Y-117721347D01*
X213082079Y-117700830D01*
X213096329Y-117681617D01*
X213112393Y-117663893D01*
X213130117Y-117647829D01*
X213149330Y-117633579D01*
X213169847Y-117621282D01*
X213191471Y-117611054D01*
X213213993Y-117602996D01*
X213237197Y-117597184D01*
X213260858Y-117593674D01*
X213284750Y-117592500D01*
X214197250Y-117592500D01*
X214221142Y-117593674D01*
X214221142Y-117593674D01*
G37*
D11*
X213741000Y-118080000D03*
D10*
G36*
X214221142Y-115718674D02*
G01*
X214244803Y-115722184D01*
X214268007Y-115727996D01*
X214290529Y-115736054D01*
X214312153Y-115746282D01*
X214332670Y-115758579D01*
X214351883Y-115772829D01*
X214369607Y-115788893D01*
X214385671Y-115806617D01*
X214399921Y-115825830D01*
X214412218Y-115846347D01*
X214422446Y-115867971D01*
X214430504Y-115890493D01*
X214436316Y-115913697D01*
X214439826Y-115937358D01*
X214441000Y-115961250D01*
X214441000Y-116448750D01*
X214439826Y-116472642D01*
X214436316Y-116496303D01*
X214430504Y-116519507D01*
X214422446Y-116542029D01*
X214412218Y-116563653D01*
X214399921Y-116584170D01*
X214385671Y-116603383D01*
X214369607Y-116621107D01*
X214351883Y-116637171D01*
X214332670Y-116651421D01*
X214312153Y-116663718D01*
X214290529Y-116673946D01*
X214268007Y-116682004D01*
X214244803Y-116687816D01*
X214221142Y-116691326D01*
X214197250Y-116692500D01*
X213284750Y-116692500D01*
X213260858Y-116691326D01*
X213237197Y-116687816D01*
X213213993Y-116682004D01*
X213191471Y-116673946D01*
X213169847Y-116663718D01*
X213149330Y-116651421D01*
X213130117Y-116637171D01*
X213112393Y-116621107D01*
X213096329Y-116603383D01*
X213082079Y-116584170D01*
X213069782Y-116563653D01*
X213059554Y-116542029D01*
X213051496Y-116519507D01*
X213045684Y-116496303D01*
X213042174Y-116472642D01*
X213041000Y-116448750D01*
X213041000Y-115961250D01*
X213042174Y-115937358D01*
X213045684Y-115913697D01*
X213051496Y-115890493D01*
X213059554Y-115867971D01*
X213069782Y-115846347D01*
X213082079Y-115825830D01*
X213096329Y-115806617D01*
X213112393Y-115788893D01*
X213130117Y-115772829D01*
X213149330Y-115758579D01*
X213169847Y-115746282D01*
X213191471Y-115736054D01*
X213213993Y-115727996D01*
X213237197Y-115722184D01*
X213260858Y-115718674D01*
X213284750Y-115717500D01*
X214197250Y-115717500D01*
X214221142Y-115718674D01*
X214221142Y-115718674D01*
G37*
D11*
X213741000Y-116205000D03*
D10*
G36*
X197420142Y-117030174D02*
G01*
X197443803Y-117033684D01*
X197467007Y-117039496D01*
X197489529Y-117047554D01*
X197511153Y-117057782D01*
X197531670Y-117070079D01*
X197550883Y-117084329D01*
X197568607Y-117100393D01*
X197584671Y-117118117D01*
X197598921Y-117137330D01*
X197611218Y-117157847D01*
X197621446Y-117179471D01*
X197629504Y-117201993D01*
X197635316Y-117225197D01*
X197638826Y-117248858D01*
X197640000Y-117272750D01*
X197640000Y-118185250D01*
X197638826Y-118209142D01*
X197635316Y-118232803D01*
X197629504Y-118256007D01*
X197621446Y-118278529D01*
X197611218Y-118300153D01*
X197598921Y-118320670D01*
X197584671Y-118339883D01*
X197568607Y-118357607D01*
X197550883Y-118373671D01*
X197531670Y-118387921D01*
X197511153Y-118400218D01*
X197489529Y-118410446D01*
X197467007Y-118418504D01*
X197443803Y-118424316D01*
X197420142Y-118427826D01*
X197396250Y-118429000D01*
X196908750Y-118429000D01*
X196884858Y-118427826D01*
X196861197Y-118424316D01*
X196837993Y-118418504D01*
X196815471Y-118410446D01*
X196793847Y-118400218D01*
X196773330Y-118387921D01*
X196754117Y-118373671D01*
X196736393Y-118357607D01*
X196720329Y-118339883D01*
X196706079Y-118320670D01*
X196693782Y-118300153D01*
X196683554Y-118278529D01*
X196675496Y-118256007D01*
X196669684Y-118232803D01*
X196666174Y-118209142D01*
X196665000Y-118185250D01*
X196665000Y-117272750D01*
X196666174Y-117248858D01*
X196669684Y-117225197D01*
X196675496Y-117201993D01*
X196683554Y-117179471D01*
X196693782Y-117157847D01*
X196706079Y-117137330D01*
X196720329Y-117118117D01*
X196736393Y-117100393D01*
X196754117Y-117084329D01*
X196773330Y-117070079D01*
X196793847Y-117057782D01*
X196815471Y-117047554D01*
X196837993Y-117039496D01*
X196861197Y-117033684D01*
X196884858Y-117030174D01*
X196908750Y-117029000D01*
X197396250Y-117029000D01*
X197420142Y-117030174D01*
X197420142Y-117030174D01*
G37*
D11*
X197152500Y-117729000D03*
D10*
G36*
X195545142Y-117030174D02*
G01*
X195568803Y-117033684D01*
X195592007Y-117039496D01*
X195614529Y-117047554D01*
X195636153Y-117057782D01*
X195656670Y-117070079D01*
X195675883Y-117084329D01*
X195693607Y-117100393D01*
X195709671Y-117118117D01*
X195723921Y-117137330D01*
X195736218Y-117157847D01*
X195746446Y-117179471D01*
X195754504Y-117201993D01*
X195760316Y-117225197D01*
X195763826Y-117248858D01*
X195765000Y-117272750D01*
X195765000Y-118185250D01*
X195763826Y-118209142D01*
X195760316Y-118232803D01*
X195754504Y-118256007D01*
X195746446Y-118278529D01*
X195736218Y-118300153D01*
X195723921Y-118320670D01*
X195709671Y-118339883D01*
X195693607Y-118357607D01*
X195675883Y-118373671D01*
X195656670Y-118387921D01*
X195636153Y-118400218D01*
X195614529Y-118410446D01*
X195592007Y-118418504D01*
X195568803Y-118424316D01*
X195545142Y-118427826D01*
X195521250Y-118429000D01*
X195033750Y-118429000D01*
X195009858Y-118427826D01*
X194986197Y-118424316D01*
X194962993Y-118418504D01*
X194940471Y-118410446D01*
X194918847Y-118400218D01*
X194898330Y-118387921D01*
X194879117Y-118373671D01*
X194861393Y-118357607D01*
X194845329Y-118339883D01*
X194831079Y-118320670D01*
X194818782Y-118300153D01*
X194808554Y-118278529D01*
X194800496Y-118256007D01*
X194794684Y-118232803D01*
X194791174Y-118209142D01*
X194790000Y-118185250D01*
X194790000Y-117272750D01*
X194791174Y-117248858D01*
X194794684Y-117225197D01*
X194800496Y-117201993D01*
X194808554Y-117179471D01*
X194818782Y-117157847D01*
X194831079Y-117137330D01*
X194845329Y-117118117D01*
X194861393Y-117100393D01*
X194879117Y-117084329D01*
X194898330Y-117070079D01*
X194918847Y-117057782D01*
X194940471Y-117047554D01*
X194962993Y-117039496D01*
X194986197Y-117033684D01*
X195009858Y-117030174D01*
X195033750Y-117029000D01*
X195521250Y-117029000D01*
X195545142Y-117030174D01*
X195545142Y-117030174D01*
G37*
D11*
X195277500Y-117729000D03*
D10*
G36*
X219215642Y-102425174D02*
G01*
X219239303Y-102428684D01*
X219262507Y-102434496D01*
X219285029Y-102442554D01*
X219306653Y-102452782D01*
X219327170Y-102465079D01*
X219346383Y-102479329D01*
X219364107Y-102495393D01*
X219380171Y-102513117D01*
X219394421Y-102532330D01*
X219406718Y-102552847D01*
X219416946Y-102574471D01*
X219425004Y-102596993D01*
X219430816Y-102620197D01*
X219434326Y-102643858D01*
X219435500Y-102667750D01*
X219435500Y-103580250D01*
X219434326Y-103604142D01*
X219430816Y-103627803D01*
X219425004Y-103651007D01*
X219416946Y-103673529D01*
X219406718Y-103695153D01*
X219394421Y-103715670D01*
X219380171Y-103734883D01*
X219364107Y-103752607D01*
X219346383Y-103768671D01*
X219327170Y-103782921D01*
X219306653Y-103795218D01*
X219285029Y-103805446D01*
X219262507Y-103813504D01*
X219239303Y-103819316D01*
X219215642Y-103822826D01*
X219191750Y-103824000D01*
X218704250Y-103824000D01*
X218680358Y-103822826D01*
X218656697Y-103819316D01*
X218633493Y-103813504D01*
X218610971Y-103805446D01*
X218589347Y-103795218D01*
X218568830Y-103782921D01*
X218549617Y-103768671D01*
X218531893Y-103752607D01*
X218515829Y-103734883D01*
X218501579Y-103715670D01*
X218489282Y-103695153D01*
X218479054Y-103673529D01*
X218470996Y-103651007D01*
X218465184Y-103627803D01*
X218461674Y-103604142D01*
X218460500Y-103580250D01*
X218460500Y-102667750D01*
X218461674Y-102643858D01*
X218465184Y-102620197D01*
X218470996Y-102596993D01*
X218479054Y-102574471D01*
X218489282Y-102552847D01*
X218501579Y-102532330D01*
X218515829Y-102513117D01*
X218531893Y-102495393D01*
X218549617Y-102479329D01*
X218568830Y-102465079D01*
X218589347Y-102452782D01*
X218610971Y-102442554D01*
X218633493Y-102434496D01*
X218656697Y-102428684D01*
X218680358Y-102425174D01*
X218704250Y-102424000D01*
X219191750Y-102424000D01*
X219215642Y-102425174D01*
X219215642Y-102425174D01*
G37*
D11*
X218948000Y-103124000D03*
D10*
G36*
X217340642Y-102425174D02*
G01*
X217364303Y-102428684D01*
X217387507Y-102434496D01*
X217410029Y-102442554D01*
X217431653Y-102452782D01*
X217452170Y-102465079D01*
X217471383Y-102479329D01*
X217489107Y-102495393D01*
X217505171Y-102513117D01*
X217519421Y-102532330D01*
X217531718Y-102552847D01*
X217541946Y-102574471D01*
X217550004Y-102596993D01*
X217555816Y-102620197D01*
X217559326Y-102643858D01*
X217560500Y-102667750D01*
X217560500Y-103580250D01*
X217559326Y-103604142D01*
X217555816Y-103627803D01*
X217550004Y-103651007D01*
X217541946Y-103673529D01*
X217531718Y-103695153D01*
X217519421Y-103715670D01*
X217505171Y-103734883D01*
X217489107Y-103752607D01*
X217471383Y-103768671D01*
X217452170Y-103782921D01*
X217431653Y-103795218D01*
X217410029Y-103805446D01*
X217387507Y-103813504D01*
X217364303Y-103819316D01*
X217340642Y-103822826D01*
X217316750Y-103824000D01*
X216829250Y-103824000D01*
X216805358Y-103822826D01*
X216781697Y-103819316D01*
X216758493Y-103813504D01*
X216735971Y-103805446D01*
X216714347Y-103795218D01*
X216693830Y-103782921D01*
X216674617Y-103768671D01*
X216656893Y-103752607D01*
X216640829Y-103734883D01*
X216626579Y-103715670D01*
X216614282Y-103695153D01*
X216604054Y-103673529D01*
X216595996Y-103651007D01*
X216590184Y-103627803D01*
X216586674Y-103604142D01*
X216585500Y-103580250D01*
X216585500Y-102667750D01*
X216586674Y-102643858D01*
X216590184Y-102620197D01*
X216595996Y-102596993D01*
X216604054Y-102574471D01*
X216614282Y-102552847D01*
X216626579Y-102532330D01*
X216640829Y-102513117D01*
X216656893Y-102495393D01*
X216674617Y-102479329D01*
X216693830Y-102465079D01*
X216714347Y-102452782D01*
X216735971Y-102442554D01*
X216758493Y-102434496D01*
X216781697Y-102428684D01*
X216805358Y-102425174D01*
X216829250Y-102424000D01*
X217316750Y-102424000D01*
X217340642Y-102425174D01*
X217340642Y-102425174D01*
G37*
D11*
X217073000Y-103124000D03*
D10*
G36*
X172733642Y-131508174D02*
G01*
X172757303Y-131511684D01*
X172780507Y-131517496D01*
X172803029Y-131525554D01*
X172824653Y-131535782D01*
X172845170Y-131548079D01*
X172864383Y-131562329D01*
X172882107Y-131578393D01*
X172898171Y-131596117D01*
X172912421Y-131615330D01*
X172924718Y-131635847D01*
X172934946Y-131657471D01*
X172943004Y-131679993D01*
X172948816Y-131703197D01*
X172952326Y-131726858D01*
X172953500Y-131750750D01*
X172953500Y-132663250D01*
X172952326Y-132687142D01*
X172948816Y-132710803D01*
X172943004Y-132734007D01*
X172934946Y-132756529D01*
X172924718Y-132778153D01*
X172912421Y-132798670D01*
X172898171Y-132817883D01*
X172882107Y-132835607D01*
X172864383Y-132851671D01*
X172845170Y-132865921D01*
X172824653Y-132878218D01*
X172803029Y-132888446D01*
X172780507Y-132896504D01*
X172757303Y-132902316D01*
X172733642Y-132905826D01*
X172709750Y-132907000D01*
X172222250Y-132907000D01*
X172198358Y-132905826D01*
X172174697Y-132902316D01*
X172151493Y-132896504D01*
X172128971Y-132888446D01*
X172107347Y-132878218D01*
X172086830Y-132865921D01*
X172067617Y-132851671D01*
X172049893Y-132835607D01*
X172033829Y-132817883D01*
X172019579Y-132798670D01*
X172007282Y-132778153D01*
X171997054Y-132756529D01*
X171988996Y-132734007D01*
X171983184Y-132710803D01*
X171979674Y-132687142D01*
X171978500Y-132663250D01*
X171978500Y-131750750D01*
X171979674Y-131726858D01*
X171983184Y-131703197D01*
X171988996Y-131679993D01*
X171997054Y-131657471D01*
X172007282Y-131635847D01*
X172019579Y-131615330D01*
X172033829Y-131596117D01*
X172049893Y-131578393D01*
X172067617Y-131562329D01*
X172086830Y-131548079D01*
X172107347Y-131535782D01*
X172128971Y-131525554D01*
X172151493Y-131517496D01*
X172174697Y-131511684D01*
X172198358Y-131508174D01*
X172222250Y-131507000D01*
X172709750Y-131507000D01*
X172733642Y-131508174D01*
X172733642Y-131508174D01*
G37*
D11*
X172466000Y-132207000D03*
D10*
G36*
X170858642Y-131508174D02*
G01*
X170882303Y-131511684D01*
X170905507Y-131517496D01*
X170928029Y-131525554D01*
X170949653Y-131535782D01*
X170970170Y-131548079D01*
X170989383Y-131562329D01*
X171007107Y-131578393D01*
X171023171Y-131596117D01*
X171037421Y-131615330D01*
X171049718Y-131635847D01*
X171059946Y-131657471D01*
X171068004Y-131679993D01*
X171073816Y-131703197D01*
X171077326Y-131726858D01*
X171078500Y-131750750D01*
X171078500Y-132663250D01*
X171077326Y-132687142D01*
X171073816Y-132710803D01*
X171068004Y-132734007D01*
X171059946Y-132756529D01*
X171049718Y-132778153D01*
X171037421Y-132798670D01*
X171023171Y-132817883D01*
X171007107Y-132835607D01*
X170989383Y-132851671D01*
X170970170Y-132865921D01*
X170949653Y-132878218D01*
X170928029Y-132888446D01*
X170905507Y-132896504D01*
X170882303Y-132902316D01*
X170858642Y-132905826D01*
X170834750Y-132907000D01*
X170347250Y-132907000D01*
X170323358Y-132905826D01*
X170299697Y-132902316D01*
X170276493Y-132896504D01*
X170253971Y-132888446D01*
X170232347Y-132878218D01*
X170211830Y-132865921D01*
X170192617Y-132851671D01*
X170174893Y-132835607D01*
X170158829Y-132817883D01*
X170144579Y-132798670D01*
X170132282Y-132778153D01*
X170122054Y-132756529D01*
X170113996Y-132734007D01*
X170108184Y-132710803D01*
X170104674Y-132687142D01*
X170103500Y-132663250D01*
X170103500Y-131750750D01*
X170104674Y-131726858D01*
X170108184Y-131703197D01*
X170113996Y-131679993D01*
X170122054Y-131657471D01*
X170132282Y-131635847D01*
X170144579Y-131615330D01*
X170158829Y-131596117D01*
X170174893Y-131578393D01*
X170192617Y-131562329D01*
X170211830Y-131548079D01*
X170232347Y-131535782D01*
X170253971Y-131525554D01*
X170276493Y-131517496D01*
X170299697Y-131511684D01*
X170323358Y-131508174D01*
X170347250Y-131507000D01*
X170834750Y-131507000D01*
X170858642Y-131508174D01*
X170858642Y-131508174D01*
G37*
D11*
X170591000Y-132207000D03*
D10*
G36*
X170858642Y-129349174D02*
G01*
X170882303Y-129352684D01*
X170905507Y-129358496D01*
X170928029Y-129366554D01*
X170949653Y-129376782D01*
X170970170Y-129389079D01*
X170989383Y-129403329D01*
X171007107Y-129419393D01*
X171023171Y-129437117D01*
X171037421Y-129456330D01*
X171049718Y-129476847D01*
X171059946Y-129498471D01*
X171068004Y-129520993D01*
X171073816Y-129544197D01*
X171077326Y-129567858D01*
X171078500Y-129591750D01*
X171078500Y-130504250D01*
X171077326Y-130528142D01*
X171073816Y-130551803D01*
X171068004Y-130575007D01*
X171059946Y-130597529D01*
X171049718Y-130619153D01*
X171037421Y-130639670D01*
X171023171Y-130658883D01*
X171007107Y-130676607D01*
X170989383Y-130692671D01*
X170970170Y-130706921D01*
X170949653Y-130719218D01*
X170928029Y-130729446D01*
X170905507Y-130737504D01*
X170882303Y-130743316D01*
X170858642Y-130746826D01*
X170834750Y-130748000D01*
X170347250Y-130748000D01*
X170323358Y-130746826D01*
X170299697Y-130743316D01*
X170276493Y-130737504D01*
X170253971Y-130729446D01*
X170232347Y-130719218D01*
X170211830Y-130706921D01*
X170192617Y-130692671D01*
X170174893Y-130676607D01*
X170158829Y-130658883D01*
X170144579Y-130639670D01*
X170132282Y-130619153D01*
X170122054Y-130597529D01*
X170113996Y-130575007D01*
X170108184Y-130551803D01*
X170104674Y-130528142D01*
X170103500Y-130504250D01*
X170103500Y-129591750D01*
X170104674Y-129567858D01*
X170108184Y-129544197D01*
X170113996Y-129520993D01*
X170122054Y-129498471D01*
X170132282Y-129476847D01*
X170144579Y-129456330D01*
X170158829Y-129437117D01*
X170174893Y-129419393D01*
X170192617Y-129403329D01*
X170211830Y-129389079D01*
X170232347Y-129376782D01*
X170253971Y-129366554D01*
X170276493Y-129358496D01*
X170299697Y-129352684D01*
X170323358Y-129349174D01*
X170347250Y-129348000D01*
X170834750Y-129348000D01*
X170858642Y-129349174D01*
X170858642Y-129349174D01*
G37*
D11*
X170591000Y-130048000D03*
D10*
G36*
X172733642Y-129349174D02*
G01*
X172757303Y-129352684D01*
X172780507Y-129358496D01*
X172803029Y-129366554D01*
X172824653Y-129376782D01*
X172845170Y-129389079D01*
X172864383Y-129403329D01*
X172882107Y-129419393D01*
X172898171Y-129437117D01*
X172912421Y-129456330D01*
X172924718Y-129476847D01*
X172934946Y-129498471D01*
X172943004Y-129520993D01*
X172948816Y-129544197D01*
X172952326Y-129567858D01*
X172953500Y-129591750D01*
X172953500Y-130504250D01*
X172952326Y-130528142D01*
X172948816Y-130551803D01*
X172943004Y-130575007D01*
X172934946Y-130597529D01*
X172924718Y-130619153D01*
X172912421Y-130639670D01*
X172898171Y-130658883D01*
X172882107Y-130676607D01*
X172864383Y-130692671D01*
X172845170Y-130706921D01*
X172824653Y-130719218D01*
X172803029Y-130729446D01*
X172780507Y-130737504D01*
X172757303Y-130743316D01*
X172733642Y-130746826D01*
X172709750Y-130748000D01*
X172222250Y-130748000D01*
X172198358Y-130746826D01*
X172174697Y-130743316D01*
X172151493Y-130737504D01*
X172128971Y-130729446D01*
X172107347Y-130719218D01*
X172086830Y-130706921D01*
X172067617Y-130692671D01*
X172049893Y-130676607D01*
X172033829Y-130658883D01*
X172019579Y-130639670D01*
X172007282Y-130619153D01*
X171997054Y-130597529D01*
X171988996Y-130575007D01*
X171983184Y-130551803D01*
X171979674Y-130528142D01*
X171978500Y-130504250D01*
X171978500Y-129591750D01*
X171979674Y-129567858D01*
X171983184Y-129544197D01*
X171988996Y-129520993D01*
X171997054Y-129498471D01*
X172007282Y-129476847D01*
X172019579Y-129456330D01*
X172033829Y-129437117D01*
X172049893Y-129419393D01*
X172067617Y-129403329D01*
X172086830Y-129389079D01*
X172107347Y-129376782D01*
X172128971Y-129366554D01*
X172151493Y-129358496D01*
X172174697Y-129352684D01*
X172198358Y-129349174D01*
X172222250Y-129348000D01*
X172709750Y-129348000D01*
X172733642Y-129349174D01*
X172733642Y-129349174D01*
G37*
D11*
X172466000Y-130048000D03*
D10*
G36*
X170858642Y-127190174D02*
G01*
X170882303Y-127193684D01*
X170905507Y-127199496D01*
X170928029Y-127207554D01*
X170949653Y-127217782D01*
X170970170Y-127230079D01*
X170989383Y-127244329D01*
X171007107Y-127260393D01*
X171023171Y-127278117D01*
X171037421Y-127297330D01*
X171049718Y-127317847D01*
X171059946Y-127339471D01*
X171068004Y-127361993D01*
X171073816Y-127385197D01*
X171077326Y-127408858D01*
X171078500Y-127432750D01*
X171078500Y-128345250D01*
X171077326Y-128369142D01*
X171073816Y-128392803D01*
X171068004Y-128416007D01*
X171059946Y-128438529D01*
X171049718Y-128460153D01*
X171037421Y-128480670D01*
X171023171Y-128499883D01*
X171007107Y-128517607D01*
X170989383Y-128533671D01*
X170970170Y-128547921D01*
X170949653Y-128560218D01*
X170928029Y-128570446D01*
X170905507Y-128578504D01*
X170882303Y-128584316D01*
X170858642Y-128587826D01*
X170834750Y-128589000D01*
X170347250Y-128589000D01*
X170323358Y-128587826D01*
X170299697Y-128584316D01*
X170276493Y-128578504D01*
X170253971Y-128570446D01*
X170232347Y-128560218D01*
X170211830Y-128547921D01*
X170192617Y-128533671D01*
X170174893Y-128517607D01*
X170158829Y-128499883D01*
X170144579Y-128480670D01*
X170132282Y-128460153D01*
X170122054Y-128438529D01*
X170113996Y-128416007D01*
X170108184Y-128392803D01*
X170104674Y-128369142D01*
X170103500Y-128345250D01*
X170103500Y-127432750D01*
X170104674Y-127408858D01*
X170108184Y-127385197D01*
X170113996Y-127361993D01*
X170122054Y-127339471D01*
X170132282Y-127317847D01*
X170144579Y-127297330D01*
X170158829Y-127278117D01*
X170174893Y-127260393D01*
X170192617Y-127244329D01*
X170211830Y-127230079D01*
X170232347Y-127217782D01*
X170253971Y-127207554D01*
X170276493Y-127199496D01*
X170299697Y-127193684D01*
X170323358Y-127190174D01*
X170347250Y-127189000D01*
X170834750Y-127189000D01*
X170858642Y-127190174D01*
X170858642Y-127190174D01*
G37*
D11*
X170591000Y-127889000D03*
D10*
G36*
X172733642Y-127190174D02*
G01*
X172757303Y-127193684D01*
X172780507Y-127199496D01*
X172803029Y-127207554D01*
X172824653Y-127217782D01*
X172845170Y-127230079D01*
X172864383Y-127244329D01*
X172882107Y-127260393D01*
X172898171Y-127278117D01*
X172912421Y-127297330D01*
X172924718Y-127317847D01*
X172934946Y-127339471D01*
X172943004Y-127361993D01*
X172948816Y-127385197D01*
X172952326Y-127408858D01*
X172953500Y-127432750D01*
X172953500Y-128345250D01*
X172952326Y-128369142D01*
X172948816Y-128392803D01*
X172943004Y-128416007D01*
X172934946Y-128438529D01*
X172924718Y-128460153D01*
X172912421Y-128480670D01*
X172898171Y-128499883D01*
X172882107Y-128517607D01*
X172864383Y-128533671D01*
X172845170Y-128547921D01*
X172824653Y-128560218D01*
X172803029Y-128570446D01*
X172780507Y-128578504D01*
X172757303Y-128584316D01*
X172733642Y-128587826D01*
X172709750Y-128589000D01*
X172222250Y-128589000D01*
X172198358Y-128587826D01*
X172174697Y-128584316D01*
X172151493Y-128578504D01*
X172128971Y-128570446D01*
X172107347Y-128560218D01*
X172086830Y-128547921D01*
X172067617Y-128533671D01*
X172049893Y-128517607D01*
X172033829Y-128499883D01*
X172019579Y-128480670D01*
X172007282Y-128460153D01*
X171997054Y-128438529D01*
X171988996Y-128416007D01*
X171983184Y-128392803D01*
X171979674Y-128369142D01*
X171978500Y-128345250D01*
X171978500Y-127432750D01*
X171979674Y-127408858D01*
X171983184Y-127385197D01*
X171988996Y-127361993D01*
X171997054Y-127339471D01*
X172007282Y-127317847D01*
X172019579Y-127297330D01*
X172033829Y-127278117D01*
X172049893Y-127260393D01*
X172067617Y-127244329D01*
X172086830Y-127230079D01*
X172107347Y-127217782D01*
X172128971Y-127207554D01*
X172151493Y-127199496D01*
X172174697Y-127193684D01*
X172198358Y-127190174D01*
X172222250Y-127189000D01*
X172709750Y-127189000D01*
X172733642Y-127190174D01*
X172733642Y-127190174D01*
G37*
D11*
X172466000Y-127889000D03*
D10*
G36*
X175176642Y-91122174D02*
G01*
X175200303Y-91125684D01*
X175223507Y-91131496D01*
X175246029Y-91139554D01*
X175267653Y-91149782D01*
X175288170Y-91162079D01*
X175307383Y-91176329D01*
X175325107Y-91192393D01*
X175341171Y-91210117D01*
X175355421Y-91229330D01*
X175367718Y-91249847D01*
X175377946Y-91271471D01*
X175386004Y-91293993D01*
X175391816Y-91317197D01*
X175395326Y-91340858D01*
X175396500Y-91364750D01*
X175396500Y-92277250D01*
X175395326Y-92301142D01*
X175391816Y-92324803D01*
X175386004Y-92348007D01*
X175377946Y-92370529D01*
X175367718Y-92392153D01*
X175355421Y-92412670D01*
X175341171Y-92431883D01*
X175325107Y-92449607D01*
X175307383Y-92465671D01*
X175288170Y-92479921D01*
X175267653Y-92492218D01*
X175246029Y-92502446D01*
X175223507Y-92510504D01*
X175200303Y-92516316D01*
X175176642Y-92519826D01*
X175152750Y-92521000D01*
X174665250Y-92521000D01*
X174641358Y-92519826D01*
X174617697Y-92516316D01*
X174594493Y-92510504D01*
X174571971Y-92502446D01*
X174550347Y-92492218D01*
X174529830Y-92479921D01*
X174510617Y-92465671D01*
X174492893Y-92449607D01*
X174476829Y-92431883D01*
X174462579Y-92412670D01*
X174450282Y-92392153D01*
X174440054Y-92370529D01*
X174431996Y-92348007D01*
X174426184Y-92324803D01*
X174422674Y-92301142D01*
X174421500Y-92277250D01*
X174421500Y-91364750D01*
X174422674Y-91340858D01*
X174426184Y-91317197D01*
X174431996Y-91293993D01*
X174440054Y-91271471D01*
X174450282Y-91249847D01*
X174462579Y-91229330D01*
X174476829Y-91210117D01*
X174492893Y-91192393D01*
X174510617Y-91176329D01*
X174529830Y-91162079D01*
X174550347Y-91149782D01*
X174571971Y-91139554D01*
X174594493Y-91131496D01*
X174617697Y-91125684D01*
X174641358Y-91122174D01*
X174665250Y-91121000D01*
X175152750Y-91121000D01*
X175176642Y-91122174D01*
X175176642Y-91122174D01*
G37*
D11*
X174909000Y-91821000D03*
D10*
G36*
X177051642Y-91122174D02*
G01*
X177075303Y-91125684D01*
X177098507Y-91131496D01*
X177121029Y-91139554D01*
X177142653Y-91149782D01*
X177163170Y-91162079D01*
X177182383Y-91176329D01*
X177200107Y-91192393D01*
X177216171Y-91210117D01*
X177230421Y-91229330D01*
X177242718Y-91249847D01*
X177252946Y-91271471D01*
X177261004Y-91293993D01*
X177266816Y-91317197D01*
X177270326Y-91340858D01*
X177271500Y-91364750D01*
X177271500Y-92277250D01*
X177270326Y-92301142D01*
X177266816Y-92324803D01*
X177261004Y-92348007D01*
X177252946Y-92370529D01*
X177242718Y-92392153D01*
X177230421Y-92412670D01*
X177216171Y-92431883D01*
X177200107Y-92449607D01*
X177182383Y-92465671D01*
X177163170Y-92479921D01*
X177142653Y-92492218D01*
X177121029Y-92502446D01*
X177098507Y-92510504D01*
X177075303Y-92516316D01*
X177051642Y-92519826D01*
X177027750Y-92521000D01*
X176540250Y-92521000D01*
X176516358Y-92519826D01*
X176492697Y-92516316D01*
X176469493Y-92510504D01*
X176446971Y-92502446D01*
X176425347Y-92492218D01*
X176404830Y-92479921D01*
X176385617Y-92465671D01*
X176367893Y-92449607D01*
X176351829Y-92431883D01*
X176337579Y-92412670D01*
X176325282Y-92392153D01*
X176315054Y-92370529D01*
X176306996Y-92348007D01*
X176301184Y-92324803D01*
X176297674Y-92301142D01*
X176296500Y-92277250D01*
X176296500Y-91364750D01*
X176297674Y-91340858D01*
X176301184Y-91317197D01*
X176306996Y-91293993D01*
X176315054Y-91271471D01*
X176325282Y-91249847D01*
X176337579Y-91229330D01*
X176351829Y-91210117D01*
X176367893Y-91192393D01*
X176385617Y-91176329D01*
X176404830Y-91162079D01*
X176425347Y-91149782D01*
X176446971Y-91139554D01*
X176469493Y-91131496D01*
X176492697Y-91125684D01*
X176516358Y-91122174D01*
X176540250Y-91121000D01*
X177027750Y-91121000D01*
X177051642Y-91122174D01*
X177051642Y-91122174D01*
G37*
D11*
X176784000Y-91821000D03*
D10*
G36*
X220952142Y-131242674D02*
G01*
X220975803Y-131246184D01*
X220999007Y-131251996D01*
X221021529Y-131260054D01*
X221043153Y-131270282D01*
X221063670Y-131282579D01*
X221082883Y-131296829D01*
X221100607Y-131312893D01*
X221116671Y-131330617D01*
X221130921Y-131349830D01*
X221143218Y-131370347D01*
X221153446Y-131391971D01*
X221161504Y-131414493D01*
X221167316Y-131437697D01*
X221170826Y-131461358D01*
X221172000Y-131485250D01*
X221172000Y-131972750D01*
X221170826Y-131996642D01*
X221167316Y-132020303D01*
X221161504Y-132043507D01*
X221153446Y-132066029D01*
X221143218Y-132087653D01*
X221130921Y-132108170D01*
X221116671Y-132127383D01*
X221100607Y-132145107D01*
X221082883Y-132161171D01*
X221063670Y-132175421D01*
X221043153Y-132187718D01*
X221021529Y-132197946D01*
X220999007Y-132206004D01*
X220975803Y-132211816D01*
X220952142Y-132215326D01*
X220928250Y-132216500D01*
X220015750Y-132216500D01*
X219991858Y-132215326D01*
X219968197Y-132211816D01*
X219944993Y-132206004D01*
X219922471Y-132197946D01*
X219900847Y-132187718D01*
X219880330Y-132175421D01*
X219861117Y-132161171D01*
X219843393Y-132145107D01*
X219827329Y-132127383D01*
X219813079Y-132108170D01*
X219800782Y-132087653D01*
X219790554Y-132066029D01*
X219782496Y-132043507D01*
X219776684Y-132020303D01*
X219773174Y-131996642D01*
X219772000Y-131972750D01*
X219772000Y-131485250D01*
X219773174Y-131461358D01*
X219776684Y-131437697D01*
X219782496Y-131414493D01*
X219790554Y-131391971D01*
X219800782Y-131370347D01*
X219813079Y-131349830D01*
X219827329Y-131330617D01*
X219843393Y-131312893D01*
X219861117Y-131296829D01*
X219880330Y-131282579D01*
X219900847Y-131270282D01*
X219922471Y-131260054D01*
X219944993Y-131251996D01*
X219968197Y-131246184D01*
X219991858Y-131242674D01*
X220015750Y-131241500D01*
X220928250Y-131241500D01*
X220952142Y-131242674D01*
X220952142Y-131242674D01*
G37*
D11*
X220472000Y-131729000D03*
D10*
G36*
X220952142Y-133117674D02*
G01*
X220975803Y-133121184D01*
X220999007Y-133126996D01*
X221021529Y-133135054D01*
X221043153Y-133145282D01*
X221063670Y-133157579D01*
X221082883Y-133171829D01*
X221100607Y-133187893D01*
X221116671Y-133205617D01*
X221130921Y-133224830D01*
X221143218Y-133245347D01*
X221153446Y-133266971D01*
X221161504Y-133289493D01*
X221167316Y-133312697D01*
X221170826Y-133336358D01*
X221172000Y-133360250D01*
X221172000Y-133847750D01*
X221170826Y-133871642D01*
X221167316Y-133895303D01*
X221161504Y-133918507D01*
X221153446Y-133941029D01*
X221143218Y-133962653D01*
X221130921Y-133983170D01*
X221116671Y-134002383D01*
X221100607Y-134020107D01*
X221082883Y-134036171D01*
X221063670Y-134050421D01*
X221043153Y-134062718D01*
X221021529Y-134072946D01*
X220999007Y-134081004D01*
X220975803Y-134086816D01*
X220952142Y-134090326D01*
X220928250Y-134091500D01*
X220015750Y-134091500D01*
X219991858Y-134090326D01*
X219968197Y-134086816D01*
X219944993Y-134081004D01*
X219922471Y-134072946D01*
X219900847Y-134062718D01*
X219880330Y-134050421D01*
X219861117Y-134036171D01*
X219843393Y-134020107D01*
X219827329Y-134002383D01*
X219813079Y-133983170D01*
X219800782Y-133962653D01*
X219790554Y-133941029D01*
X219782496Y-133918507D01*
X219776684Y-133895303D01*
X219773174Y-133871642D01*
X219772000Y-133847750D01*
X219772000Y-133360250D01*
X219773174Y-133336358D01*
X219776684Y-133312697D01*
X219782496Y-133289493D01*
X219790554Y-133266971D01*
X219800782Y-133245347D01*
X219813079Y-133224830D01*
X219827329Y-133205617D01*
X219843393Y-133187893D01*
X219861117Y-133171829D01*
X219880330Y-133157579D01*
X219900847Y-133145282D01*
X219922471Y-133135054D01*
X219944993Y-133126996D01*
X219968197Y-133121184D01*
X219991858Y-133117674D01*
X220015750Y-133116500D01*
X220928250Y-133116500D01*
X220952142Y-133117674D01*
X220952142Y-133117674D01*
G37*
D11*
X220472000Y-133604000D03*
D10*
G36*
X211341642Y-104330174D02*
G01*
X211365303Y-104333684D01*
X211388507Y-104339496D01*
X211411029Y-104347554D01*
X211432653Y-104357782D01*
X211453170Y-104370079D01*
X211472383Y-104384329D01*
X211490107Y-104400393D01*
X211506171Y-104418117D01*
X211520421Y-104437330D01*
X211532718Y-104457847D01*
X211542946Y-104479471D01*
X211551004Y-104501993D01*
X211556816Y-104525197D01*
X211560326Y-104548858D01*
X211561500Y-104572750D01*
X211561500Y-105485250D01*
X211560326Y-105509142D01*
X211556816Y-105532803D01*
X211551004Y-105556007D01*
X211542946Y-105578529D01*
X211532718Y-105600153D01*
X211520421Y-105620670D01*
X211506171Y-105639883D01*
X211490107Y-105657607D01*
X211472383Y-105673671D01*
X211453170Y-105687921D01*
X211432653Y-105700218D01*
X211411029Y-105710446D01*
X211388507Y-105718504D01*
X211365303Y-105724316D01*
X211341642Y-105727826D01*
X211317750Y-105729000D01*
X210830250Y-105729000D01*
X210806358Y-105727826D01*
X210782697Y-105724316D01*
X210759493Y-105718504D01*
X210736971Y-105710446D01*
X210715347Y-105700218D01*
X210694830Y-105687921D01*
X210675617Y-105673671D01*
X210657893Y-105657607D01*
X210641829Y-105639883D01*
X210627579Y-105620670D01*
X210615282Y-105600153D01*
X210605054Y-105578529D01*
X210596996Y-105556007D01*
X210591184Y-105532803D01*
X210587674Y-105509142D01*
X210586500Y-105485250D01*
X210586500Y-104572750D01*
X210587674Y-104548858D01*
X210591184Y-104525197D01*
X210596996Y-104501993D01*
X210605054Y-104479471D01*
X210615282Y-104457847D01*
X210627579Y-104437330D01*
X210641829Y-104418117D01*
X210657893Y-104400393D01*
X210675617Y-104384329D01*
X210694830Y-104370079D01*
X210715347Y-104357782D01*
X210736971Y-104347554D01*
X210759493Y-104339496D01*
X210782697Y-104333684D01*
X210806358Y-104330174D01*
X210830250Y-104329000D01*
X211317750Y-104329000D01*
X211341642Y-104330174D01*
X211341642Y-104330174D01*
G37*
D11*
X211074000Y-105029000D03*
D10*
G36*
X213216642Y-104330174D02*
G01*
X213240303Y-104333684D01*
X213263507Y-104339496D01*
X213286029Y-104347554D01*
X213307653Y-104357782D01*
X213328170Y-104370079D01*
X213347383Y-104384329D01*
X213365107Y-104400393D01*
X213381171Y-104418117D01*
X213395421Y-104437330D01*
X213407718Y-104457847D01*
X213417946Y-104479471D01*
X213426004Y-104501993D01*
X213431816Y-104525197D01*
X213435326Y-104548858D01*
X213436500Y-104572750D01*
X213436500Y-105485250D01*
X213435326Y-105509142D01*
X213431816Y-105532803D01*
X213426004Y-105556007D01*
X213417946Y-105578529D01*
X213407718Y-105600153D01*
X213395421Y-105620670D01*
X213381171Y-105639883D01*
X213365107Y-105657607D01*
X213347383Y-105673671D01*
X213328170Y-105687921D01*
X213307653Y-105700218D01*
X213286029Y-105710446D01*
X213263507Y-105718504D01*
X213240303Y-105724316D01*
X213216642Y-105727826D01*
X213192750Y-105729000D01*
X212705250Y-105729000D01*
X212681358Y-105727826D01*
X212657697Y-105724316D01*
X212634493Y-105718504D01*
X212611971Y-105710446D01*
X212590347Y-105700218D01*
X212569830Y-105687921D01*
X212550617Y-105673671D01*
X212532893Y-105657607D01*
X212516829Y-105639883D01*
X212502579Y-105620670D01*
X212490282Y-105600153D01*
X212480054Y-105578529D01*
X212471996Y-105556007D01*
X212466184Y-105532803D01*
X212462674Y-105509142D01*
X212461500Y-105485250D01*
X212461500Y-104572750D01*
X212462674Y-104548858D01*
X212466184Y-104525197D01*
X212471996Y-104501993D01*
X212480054Y-104479471D01*
X212490282Y-104457847D01*
X212502579Y-104437330D01*
X212516829Y-104418117D01*
X212532893Y-104400393D01*
X212550617Y-104384329D01*
X212569830Y-104370079D01*
X212590347Y-104357782D01*
X212611971Y-104347554D01*
X212634493Y-104339496D01*
X212657697Y-104333684D01*
X212681358Y-104330174D01*
X212705250Y-104329000D01*
X213192750Y-104329000D01*
X213216642Y-104330174D01*
X213216642Y-104330174D01*
G37*
D11*
X212949000Y-105029000D03*
D10*
G36*
X173073142Y-103556674D02*
G01*
X173096803Y-103560184D01*
X173120007Y-103565996D01*
X173142529Y-103574054D01*
X173164153Y-103584282D01*
X173184670Y-103596579D01*
X173203883Y-103610829D01*
X173221607Y-103626893D01*
X173237671Y-103644617D01*
X173251921Y-103663830D01*
X173264218Y-103684347D01*
X173274446Y-103705971D01*
X173282504Y-103728493D01*
X173288316Y-103751697D01*
X173291826Y-103775358D01*
X173293000Y-103799250D01*
X173293000Y-104286750D01*
X173291826Y-104310642D01*
X173288316Y-104334303D01*
X173282504Y-104357507D01*
X173274446Y-104380029D01*
X173264218Y-104401653D01*
X173251921Y-104422170D01*
X173237671Y-104441383D01*
X173221607Y-104459107D01*
X173203883Y-104475171D01*
X173184670Y-104489421D01*
X173164153Y-104501718D01*
X173142529Y-104511946D01*
X173120007Y-104520004D01*
X173096803Y-104525816D01*
X173073142Y-104529326D01*
X173049250Y-104530500D01*
X172136750Y-104530500D01*
X172112858Y-104529326D01*
X172089197Y-104525816D01*
X172065993Y-104520004D01*
X172043471Y-104511946D01*
X172021847Y-104501718D01*
X172001330Y-104489421D01*
X171982117Y-104475171D01*
X171964393Y-104459107D01*
X171948329Y-104441383D01*
X171934079Y-104422170D01*
X171921782Y-104401653D01*
X171911554Y-104380029D01*
X171903496Y-104357507D01*
X171897684Y-104334303D01*
X171894174Y-104310642D01*
X171893000Y-104286750D01*
X171893000Y-103799250D01*
X171894174Y-103775358D01*
X171897684Y-103751697D01*
X171903496Y-103728493D01*
X171911554Y-103705971D01*
X171921782Y-103684347D01*
X171934079Y-103663830D01*
X171948329Y-103644617D01*
X171964393Y-103626893D01*
X171982117Y-103610829D01*
X172001330Y-103596579D01*
X172021847Y-103584282D01*
X172043471Y-103574054D01*
X172065993Y-103565996D01*
X172089197Y-103560184D01*
X172112858Y-103556674D01*
X172136750Y-103555500D01*
X173049250Y-103555500D01*
X173073142Y-103556674D01*
X173073142Y-103556674D01*
G37*
D11*
X172593000Y-104043000D03*
D10*
G36*
X173073142Y-105431674D02*
G01*
X173096803Y-105435184D01*
X173120007Y-105440996D01*
X173142529Y-105449054D01*
X173164153Y-105459282D01*
X173184670Y-105471579D01*
X173203883Y-105485829D01*
X173221607Y-105501893D01*
X173237671Y-105519617D01*
X173251921Y-105538830D01*
X173264218Y-105559347D01*
X173274446Y-105580971D01*
X173282504Y-105603493D01*
X173288316Y-105626697D01*
X173291826Y-105650358D01*
X173293000Y-105674250D01*
X173293000Y-106161750D01*
X173291826Y-106185642D01*
X173288316Y-106209303D01*
X173282504Y-106232507D01*
X173274446Y-106255029D01*
X173264218Y-106276653D01*
X173251921Y-106297170D01*
X173237671Y-106316383D01*
X173221607Y-106334107D01*
X173203883Y-106350171D01*
X173184670Y-106364421D01*
X173164153Y-106376718D01*
X173142529Y-106386946D01*
X173120007Y-106395004D01*
X173096803Y-106400816D01*
X173073142Y-106404326D01*
X173049250Y-106405500D01*
X172136750Y-106405500D01*
X172112858Y-106404326D01*
X172089197Y-106400816D01*
X172065993Y-106395004D01*
X172043471Y-106386946D01*
X172021847Y-106376718D01*
X172001330Y-106364421D01*
X171982117Y-106350171D01*
X171964393Y-106334107D01*
X171948329Y-106316383D01*
X171934079Y-106297170D01*
X171921782Y-106276653D01*
X171911554Y-106255029D01*
X171903496Y-106232507D01*
X171897684Y-106209303D01*
X171894174Y-106185642D01*
X171893000Y-106161750D01*
X171893000Y-105674250D01*
X171894174Y-105650358D01*
X171897684Y-105626697D01*
X171903496Y-105603493D01*
X171911554Y-105580971D01*
X171921782Y-105559347D01*
X171934079Y-105538830D01*
X171948329Y-105519617D01*
X171964393Y-105501893D01*
X171982117Y-105485829D01*
X172001330Y-105471579D01*
X172021847Y-105459282D01*
X172043471Y-105449054D01*
X172065993Y-105440996D01*
X172089197Y-105435184D01*
X172112858Y-105431674D01*
X172136750Y-105430500D01*
X173049250Y-105430500D01*
X173073142Y-105431674D01*
X173073142Y-105431674D01*
G37*
D11*
X172593000Y-105918000D03*
D10*
G36*
X226286142Y-98222674D02*
G01*
X226309803Y-98226184D01*
X226333007Y-98231996D01*
X226355529Y-98240054D01*
X226377153Y-98250282D01*
X226397670Y-98262579D01*
X226416883Y-98276829D01*
X226434607Y-98292893D01*
X226450671Y-98310617D01*
X226464921Y-98329830D01*
X226477218Y-98350347D01*
X226487446Y-98371971D01*
X226495504Y-98394493D01*
X226501316Y-98417697D01*
X226504826Y-98441358D01*
X226506000Y-98465250D01*
X226506000Y-98952750D01*
X226504826Y-98976642D01*
X226501316Y-99000303D01*
X226495504Y-99023507D01*
X226487446Y-99046029D01*
X226477218Y-99067653D01*
X226464921Y-99088170D01*
X226450671Y-99107383D01*
X226434607Y-99125107D01*
X226416883Y-99141171D01*
X226397670Y-99155421D01*
X226377153Y-99167718D01*
X226355529Y-99177946D01*
X226333007Y-99186004D01*
X226309803Y-99191816D01*
X226286142Y-99195326D01*
X226262250Y-99196500D01*
X225349750Y-99196500D01*
X225325858Y-99195326D01*
X225302197Y-99191816D01*
X225278993Y-99186004D01*
X225256471Y-99177946D01*
X225234847Y-99167718D01*
X225214330Y-99155421D01*
X225195117Y-99141171D01*
X225177393Y-99125107D01*
X225161329Y-99107383D01*
X225147079Y-99088170D01*
X225134782Y-99067653D01*
X225124554Y-99046029D01*
X225116496Y-99023507D01*
X225110684Y-99000303D01*
X225107174Y-98976642D01*
X225106000Y-98952750D01*
X225106000Y-98465250D01*
X225107174Y-98441358D01*
X225110684Y-98417697D01*
X225116496Y-98394493D01*
X225124554Y-98371971D01*
X225134782Y-98350347D01*
X225147079Y-98329830D01*
X225161329Y-98310617D01*
X225177393Y-98292893D01*
X225195117Y-98276829D01*
X225214330Y-98262579D01*
X225234847Y-98250282D01*
X225256471Y-98240054D01*
X225278993Y-98231996D01*
X225302197Y-98226184D01*
X225325858Y-98222674D01*
X225349750Y-98221500D01*
X226262250Y-98221500D01*
X226286142Y-98222674D01*
X226286142Y-98222674D01*
G37*
D11*
X225806000Y-98709000D03*
D10*
G36*
X226286142Y-100097674D02*
G01*
X226309803Y-100101184D01*
X226333007Y-100106996D01*
X226355529Y-100115054D01*
X226377153Y-100125282D01*
X226397670Y-100137579D01*
X226416883Y-100151829D01*
X226434607Y-100167893D01*
X226450671Y-100185617D01*
X226464921Y-100204830D01*
X226477218Y-100225347D01*
X226487446Y-100246971D01*
X226495504Y-100269493D01*
X226501316Y-100292697D01*
X226504826Y-100316358D01*
X226506000Y-100340250D01*
X226506000Y-100827750D01*
X226504826Y-100851642D01*
X226501316Y-100875303D01*
X226495504Y-100898507D01*
X226487446Y-100921029D01*
X226477218Y-100942653D01*
X226464921Y-100963170D01*
X226450671Y-100982383D01*
X226434607Y-101000107D01*
X226416883Y-101016171D01*
X226397670Y-101030421D01*
X226377153Y-101042718D01*
X226355529Y-101052946D01*
X226333007Y-101061004D01*
X226309803Y-101066816D01*
X226286142Y-101070326D01*
X226262250Y-101071500D01*
X225349750Y-101071500D01*
X225325858Y-101070326D01*
X225302197Y-101066816D01*
X225278993Y-101061004D01*
X225256471Y-101052946D01*
X225234847Y-101042718D01*
X225214330Y-101030421D01*
X225195117Y-101016171D01*
X225177393Y-101000107D01*
X225161329Y-100982383D01*
X225147079Y-100963170D01*
X225134782Y-100942653D01*
X225124554Y-100921029D01*
X225116496Y-100898507D01*
X225110684Y-100875303D01*
X225107174Y-100851642D01*
X225106000Y-100827750D01*
X225106000Y-100340250D01*
X225107174Y-100316358D01*
X225110684Y-100292697D01*
X225116496Y-100269493D01*
X225124554Y-100246971D01*
X225134782Y-100225347D01*
X225147079Y-100204830D01*
X225161329Y-100185617D01*
X225177393Y-100167893D01*
X225195117Y-100151829D01*
X225214330Y-100137579D01*
X225234847Y-100125282D01*
X225256471Y-100115054D01*
X225278993Y-100106996D01*
X225302197Y-100101184D01*
X225325858Y-100097674D01*
X225349750Y-100096500D01*
X226262250Y-100096500D01*
X226286142Y-100097674D01*
X226286142Y-100097674D01*
G37*
D11*
X225806000Y-100584000D03*
D10*
G36*
X183344005Y-88852204D02*
G01*
X183368273Y-88855804D01*
X183392072Y-88861765D01*
X183415171Y-88870030D01*
X183437350Y-88880520D01*
X183458393Y-88893132D01*
X183478099Y-88907747D01*
X183496277Y-88924223D01*
X183512753Y-88942401D01*
X183527368Y-88962107D01*
X183539980Y-88983150D01*
X183550470Y-89005329D01*
X183558735Y-89028428D01*
X183564696Y-89052227D01*
X183568296Y-89076495D01*
X183569500Y-89100999D01*
X183569500Y-92001001D01*
X183568296Y-92025505D01*
X183564696Y-92049773D01*
X183558735Y-92073572D01*
X183550470Y-92096671D01*
X183539980Y-92118850D01*
X183527368Y-92139893D01*
X183512753Y-92159599D01*
X183496277Y-92177777D01*
X183478099Y-92194253D01*
X183458393Y-92208868D01*
X183437350Y-92221480D01*
X183415171Y-92231970D01*
X183392072Y-92240235D01*
X183368273Y-92246196D01*
X183344005Y-92249796D01*
X183319501Y-92251000D01*
X182694499Y-92251000D01*
X182669995Y-92249796D01*
X182645727Y-92246196D01*
X182621928Y-92240235D01*
X182598829Y-92231970D01*
X182576650Y-92221480D01*
X182555607Y-92208868D01*
X182535901Y-92194253D01*
X182517723Y-92177777D01*
X182501247Y-92159599D01*
X182486632Y-92139893D01*
X182474020Y-92118850D01*
X182463530Y-92096671D01*
X182455265Y-92073572D01*
X182449304Y-92049773D01*
X182445704Y-92025505D01*
X182444500Y-92001001D01*
X182444500Y-89100999D01*
X182445704Y-89076495D01*
X182449304Y-89052227D01*
X182455265Y-89028428D01*
X182463530Y-89005329D01*
X182474020Y-88983150D01*
X182486632Y-88962107D01*
X182501247Y-88942401D01*
X182517723Y-88924223D01*
X182535901Y-88907747D01*
X182555607Y-88893132D01*
X182576650Y-88880520D01*
X182598829Y-88870030D01*
X182621928Y-88861765D01*
X182645727Y-88855804D01*
X182669995Y-88852204D01*
X182694499Y-88851000D01*
X183319501Y-88851000D01*
X183344005Y-88852204D01*
X183344005Y-88852204D01*
G37*
D12*
X183007000Y-90551000D03*
D10*
G36*
X179069005Y-88852204D02*
G01*
X179093273Y-88855804D01*
X179117072Y-88861765D01*
X179140171Y-88870030D01*
X179162350Y-88880520D01*
X179183393Y-88893132D01*
X179203099Y-88907747D01*
X179221277Y-88924223D01*
X179237753Y-88942401D01*
X179252368Y-88962107D01*
X179264980Y-88983150D01*
X179275470Y-89005329D01*
X179283735Y-89028428D01*
X179289696Y-89052227D01*
X179293296Y-89076495D01*
X179294500Y-89100999D01*
X179294500Y-92001001D01*
X179293296Y-92025505D01*
X179289696Y-92049773D01*
X179283735Y-92073572D01*
X179275470Y-92096671D01*
X179264980Y-92118850D01*
X179252368Y-92139893D01*
X179237753Y-92159599D01*
X179221277Y-92177777D01*
X179203099Y-92194253D01*
X179183393Y-92208868D01*
X179162350Y-92221480D01*
X179140171Y-92231970D01*
X179117072Y-92240235D01*
X179093273Y-92246196D01*
X179069005Y-92249796D01*
X179044501Y-92251000D01*
X178419499Y-92251000D01*
X178394995Y-92249796D01*
X178370727Y-92246196D01*
X178346928Y-92240235D01*
X178323829Y-92231970D01*
X178301650Y-92221480D01*
X178280607Y-92208868D01*
X178260901Y-92194253D01*
X178242723Y-92177777D01*
X178226247Y-92159599D01*
X178211632Y-92139893D01*
X178199020Y-92118850D01*
X178188530Y-92096671D01*
X178180265Y-92073572D01*
X178174304Y-92049773D01*
X178170704Y-92025505D01*
X178169500Y-92001001D01*
X178169500Y-89100999D01*
X178170704Y-89076495D01*
X178174304Y-89052227D01*
X178180265Y-89028428D01*
X178188530Y-89005329D01*
X178199020Y-88983150D01*
X178211632Y-88962107D01*
X178226247Y-88942401D01*
X178242723Y-88924223D01*
X178260901Y-88907747D01*
X178280607Y-88893132D01*
X178301650Y-88880520D01*
X178323829Y-88870030D01*
X178346928Y-88861765D01*
X178370727Y-88855804D01*
X178394995Y-88852204D01*
X178419499Y-88851000D01*
X179044501Y-88851000D01*
X179069005Y-88852204D01*
X179069005Y-88852204D01*
G37*
D12*
X178732000Y-90551000D03*
D13*
X198120000Y-96012000D03*
X198120000Y-93472000D03*
X198120000Y-94742000D03*
X198120000Y-92202000D03*
D14*
X193294000Y-92456000D03*
D15*
X192819000Y-91506000D03*
X193769000Y-93406000D03*
X192819000Y-93406000D03*
X193769000Y-91506000D03*
D16*
X166840000Y-97640000D03*
X166840000Y-92160000D03*
D17*
X167590000Y-91940000D03*
X167590000Y-97890000D03*
D18*
X168890000Y-92040000D03*
X168910000Y-97790000D03*
D19*
X168790000Y-93590000D03*
X168790000Y-94240000D03*
X168790000Y-94890000D03*
X168790000Y-95540000D03*
X168790000Y-96190000D03*
D20*
X165640000Y-93930000D03*
X165640000Y-95850000D03*
D21*
X182780000Y-102235000D03*
X177927000Y-102235000D03*
D10*
G36*
X196864504Y-111883704D02*
G01*
X196888773Y-111887304D01*
X196912571Y-111893265D01*
X196935671Y-111901530D01*
X196957849Y-111912020D01*
X196978893Y-111924633D01*
X196998598Y-111939247D01*
X197016777Y-111955723D01*
X197033253Y-111973902D01*
X197047867Y-111993607D01*
X197060480Y-112014651D01*
X197070970Y-112036829D01*
X197079235Y-112059929D01*
X197085196Y-112083727D01*
X197088796Y-112107996D01*
X197090000Y-112132500D01*
X197090000Y-113057500D01*
X197088796Y-113082004D01*
X197085196Y-113106273D01*
X197079235Y-113130071D01*
X197070970Y-113153171D01*
X197060480Y-113175349D01*
X197047867Y-113196393D01*
X197033253Y-113216098D01*
X197016777Y-113234277D01*
X196998598Y-113250753D01*
X196978893Y-113265367D01*
X196957849Y-113277980D01*
X196935671Y-113288470D01*
X196912571Y-113296735D01*
X196888773Y-113302696D01*
X196864504Y-113306296D01*
X196840000Y-113307500D01*
X195590000Y-113307500D01*
X195565496Y-113306296D01*
X195541227Y-113302696D01*
X195517429Y-113296735D01*
X195494329Y-113288470D01*
X195472151Y-113277980D01*
X195451107Y-113265367D01*
X195431402Y-113250753D01*
X195413223Y-113234277D01*
X195396747Y-113216098D01*
X195382133Y-113196393D01*
X195369520Y-113175349D01*
X195359030Y-113153171D01*
X195350765Y-113130071D01*
X195344804Y-113106273D01*
X195341204Y-113082004D01*
X195340000Y-113057500D01*
X195340000Y-112132500D01*
X195341204Y-112107996D01*
X195344804Y-112083727D01*
X195350765Y-112059929D01*
X195359030Y-112036829D01*
X195369520Y-112014651D01*
X195382133Y-111993607D01*
X195396747Y-111973902D01*
X195413223Y-111955723D01*
X195431402Y-111939247D01*
X195451107Y-111924633D01*
X195472151Y-111912020D01*
X195494329Y-111901530D01*
X195517429Y-111893265D01*
X195541227Y-111887304D01*
X195565496Y-111883704D01*
X195590000Y-111882500D01*
X196840000Y-111882500D01*
X196864504Y-111883704D01*
X196864504Y-111883704D01*
G37*
D22*
X196215000Y-112595000D03*
D10*
G36*
X196864504Y-114858704D02*
G01*
X196888773Y-114862304D01*
X196912571Y-114868265D01*
X196935671Y-114876530D01*
X196957849Y-114887020D01*
X196978893Y-114899633D01*
X196998598Y-114914247D01*
X197016777Y-114930723D01*
X197033253Y-114948902D01*
X197047867Y-114968607D01*
X197060480Y-114989651D01*
X197070970Y-115011829D01*
X197079235Y-115034929D01*
X197085196Y-115058727D01*
X197088796Y-115082996D01*
X197090000Y-115107500D01*
X197090000Y-116032500D01*
X197088796Y-116057004D01*
X197085196Y-116081273D01*
X197079235Y-116105071D01*
X197070970Y-116128171D01*
X197060480Y-116150349D01*
X197047867Y-116171393D01*
X197033253Y-116191098D01*
X197016777Y-116209277D01*
X196998598Y-116225753D01*
X196978893Y-116240367D01*
X196957849Y-116252980D01*
X196935671Y-116263470D01*
X196912571Y-116271735D01*
X196888773Y-116277696D01*
X196864504Y-116281296D01*
X196840000Y-116282500D01*
X195590000Y-116282500D01*
X195565496Y-116281296D01*
X195541227Y-116277696D01*
X195517429Y-116271735D01*
X195494329Y-116263470D01*
X195472151Y-116252980D01*
X195451107Y-116240367D01*
X195431402Y-116225753D01*
X195413223Y-116209277D01*
X195396747Y-116191098D01*
X195382133Y-116171393D01*
X195369520Y-116150349D01*
X195359030Y-116128171D01*
X195350765Y-116105071D01*
X195344804Y-116081273D01*
X195341204Y-116057004D01*
X195340000Y-116032500D01*
X195340000Y-115107500D01*
X195341204Y-115082996D01*
X195344804Y-115058727D01*
X195350765Y-115034929D01*
X195359030Y-115011829D01*
X195369520Y-114989651D01*
X195382133Y-114968607D01*
X195396747Y-114948902D01*
X195413223Y-114930723D01*
X195431402Y-114914247D01*
X195451107Y-114899633D01*
X195472151Y-114887020D01*
X195494329Y-114876530D01*
X195517429Y-114868265D01*
X195541227Y-114862304D01*
X195565496Y-114858704D01*
X195590000Y-114857500D01*
X196840000Y-114857500D01*
X196864504Y-114858704D01*
X196864504Y-114858704D01*
G37*
D22*
X196215000Y-115570000D03*
D23*
X175829000Y-87916000D03*
X176779000Y-89916000D03*
X174879000Y-89916000D03*
X206375000Y-93980000D03*
X205425000Y-91980000D03*
X207325000Y-91980000D03*
D24*
X195453000Y-100960000D03*
X195453000Y-99060000D03*
X193453000Y-100010000D03*
X189992000Y-93975000D03*
X189992000Y-92075000D03*
X187992000Y-93025000D03*
D23*
X177480000Y-129445000D03*
X175580000Y-129445000D03*
X176530000Y-131445000D03*
D10*
G36*
X172311142Y-91618674D02*
G01*
X172334803Y-91622184D01*
X172358007Y-91627996D01*
X172380529Y-91636054D01*
X172402153Y-91646282D01*
X172422670Y-91658579D01*
X172441883Y-91672829D01*
X172459607Y-91688893D01*
X172475671Y-91706617D01*
X172489921Y-91725830D01*
X172502218Y-91746347D01*
X172512446Y-91767971D01*
X172520504Y-91790493D01*
X172526316Y-91813697D01*
X172529826Y-91837358D01*
X172531000Y-91861250D01*
X172531000Y-92348750D01*
X172529826Y-92372642D01*
X172526316Y-92396303D01*
X172520504Y-92419507D01*
X172512446Y-92442029D01*
X172502218Y-92463653D01*
X172489921Y-92484170D01*
X172475671Y-92503383D01*
X172459607Y-92521107D01*
X172441883Y-92537171D01*
X172422670Y-92551421D01*
X172402153Y-92563718D01*
X172380529Y-92573946D01*
X172358007Y-92582004D01*
X172334803Y-92587816D01*
X172311142Y-92591326D01*
X172287250Y-92592500D01*
X171374750Y-92592500D01*
X171350858Y-92591326D01*
X171327197Y-92587816D01*
X171303993Y-92582004D01*
X171281471Y-92573946D01*
X171259847Y-92563718D01*
X171239330Y-92551421D01*
X171220117Y-92537171D01*
X171202393Y-92521107D01*
X171186329Y-92503383D01*
X171172079Y-92484170D01*
X171159782Y-92463653D01*
X171149554Y-92442029D01*
X171141496Y-92419507D01*
X171135684Y-92396303D01*
X171132174Y-92372642D01*
X171131000Y-92348750D01*
X171131000Y-91861250D01*
X171132174Y-91837358D01*
X171135684Y-91813697D01*
X171141496Y-91790493D01*
X171149554Y-91767971D01*
X171159782Y-91746347D01*
X171172079Y-91725830D01*
X171186329Y-91706617D01*
X171202393Y-91688893D01*
X171220117Y-91672829D01*
X171239330Y-91658579D01*
X171259847Y-91646282D01*
X171281471Y-91636054D01*
X171303993Y-91627996D01*
X171327197Y-91622184D01*
X171350858Y-91618674D01*
X171374750Y-91617500D01*
X172287250Y-91617500D01*
X172311142Y-91618674D01*
X172311142Y-91618674D01*
G37*
D11*
X171831000Y-92105000D03*
D10*
G36*
X172311142Y-93493674D02*
G01*
X172334803Y-93497184D01*
X172358007Y-93502996D01*
X172380529Y-93511054D01*
X172402153Y-93521282D01*
X172422670Y-93533579D01*
X172441883Y-93547829D01*
X172459607Y-93563893D01*
X172475671Y-93581617D01*
X172489921Y-93600830D01*
X172502218Y-93621347D01*
X172512446Y-93642971D01*
X172520504Y-93665493D01*
X172526316Y-93688697D01*
X172529826Y-93712358D01*
X172531000Y-93736250D01*
X172531000Y-94223750D01*
X172529826Y-94247642D01*
X172526316Y-94271303D01*
X172520504Y-94294507D01*
X172512446Y-94317029D01*
X172502218Y-94338653D01*
X172489921Y-94359170D01*
X172475671Y-94378383D01*
X172459607Y-94396107D01*
X172441883Y-94412171D01*
X172422670Y-94426421D01*
X172402153Y-94438718D01*
X172380529Y-94448946D01*
X172358007Y-94457004D01*
X172334803Y-94462816D01*
X172311142Y-94466326D01*
X172287250Y-94467500D01*
X171374750Y-94467500D01*
X171350858Y-94466326D01*
X171327197Y-94462816D01*
X171303993Y-94457004D01*
X171281471Y-94448946D01*
X171259847Y-94438718D01*
X171239330Y-94426421D01*
X171220117Y-94412171D01*
X171202393Y-94396107D01*
X171186329Y-94378383D01*
X171172079Y-94359170D01*
X171159782Y-94338653D01*
X171149554Y-94317029D01*
X171141496Y-94294507D01*
X171135684Y-94271303D01*
X171132174Y-94247642D01*
X171131000Y-94223750D01*
X171131000Y-93736250D01*
X171132174Y-93712358D01*
X171135684Y-93688697D01*
X171141496Y-93665493D01*
X171149554Y-93642971D01*
X171159782Y-93621347D01*
X171172079Y-93600830D01*
X171186329Y-93581617D01*
X171202393Y-93563893D01*
X171220117Y-93547829D01*
X171239330Y-93533579D01*
X171259847Y-93521282D01*
X171281471Y-93511054D01*
X171303993Y-93502996D01*
X171327197Y-93497184D01*
X171350858Y-93493674D01*
X171374750Y-93492500D01*
X172287250Y-93492500D01*
X172311142Y-93493674D01*
X172311142Y-93493674D01*
G37*
D11*
X171831000Y-93980000D03*
D10*
G36*
X172311142Y-97019674D02*
G01*
X172334803Y-97023184D01*
X172358007Y-97028996D01*
X172380529Y-97037054D01*
X172402153Y-97047282D01*
X172422670Y-97059579D01*
X172441883Y-97073829D01*
X172459607Y-97089893D01*
X172475671Y-97107617D01*
X172489921Y-97126830D01*
X172502218Y-97147347D01*
X172512446Y-97168971D01*
X172520504Y-97191493D01*
X172526316Y-97214697D01*
X172529826Y-97238358D01*
X172531000Y-97262250D01*
X172531000Y-97749750D01*
X172529826Y-97773642D01*
X172526316Y-97797303D01*
X172520504Y-97820507D01*
X172512446Y-97843029D01*
X172502218Y-97864653D01*
X172489921Y-97885170D01*
X172475671Y-97904383D01*
X172459607Y-97922107D01*
X172441883Y-97938171D01*
X172422670Y-97952421D01*
X172402153Y-97964718D01*
X172380529Y-97974946D01*
X172358007Y-97983004D01*
X172334803Y-97988816D01*
X172311142Y-97992326D01*
X172287250Y-97993500D01*
X171374750Y-97993500D01*
X171350858Y-97992326D01*
X171327197Y-97988816D01*
X171303993Y-97983004D01*
X171281471Y-97974946D01*
X171259847Y-97964718D01*
X171239330Y-97952421D01*
X171220117Y-97938171D01*
X171202393Y-97922107D01*
X171186329Y-97904383D01*
X171172079Y-97885170D01*
X171159782Y-97864653D01*
X171149554Y-97843029D01*
X171141496Y-97820507D01*
X171135684Y-97797303D01*
X171132174Y-97773642D01*
X171131000Y-97749750D01*
X171131000Y-97262250D01*
X171132174Y-97238358D01*
X171135684Y-97214697D01*
X171141496Y-97191493D01*
X171149554Y-97168971D01*
X171159782Y-97147347D01*
X171172079Y-97126830D01*
X171186329Y-97107617D01*
X171202393Y-97089893D01*
X171220117Y-97073829D01*
X171239330Y-97059579D01*
X171259847Y-97047282D01*
X171281471Y-97037054D01*
X171303993Y-97028996D01*
X171327197Y-97023184D01*
X171350858Y-97019674D01*
X171374750Y-97018500D01*
X172287250Y-97018500D01*
X172311142Y-97019674D01*
X172311142Y-97019674D01*
G37*
D11*
X171831000Y-97506000D03*
D10*
G36*
X172311142Y-95144674D02*
G01*
X172334803Y-95148184D01*
X172358007Y-95153996D01*
X172380529Y-95162054D01*
X172402153Y-95172282D01*
X172422670Y-95184579D01*
X172441883Y-95198829D01*
X172459607Y-95214893D01*
X172475671Y-95232617D01*
X172489921Y-95251830D01*
X172502218Y-95272347D01*
X172512446Y-95293971D01*
X172520504Y-95316493D01*
X172526316Y-95339697D01*
X172529826Y-95363358D01*
X172531000Y-95387250D01*
X172531000Y-95874750D01*
X172529826Y-95898642D01*
X172526316Y-95922303D01*
X172520504Y-95945507D01*
X172512446Y-95968029D01*
X172502218Y-95989653D01*
X172489921Y-96010170D01*
X172475671Y-96029383D01*
X172459607Y-96047107D01*
X172441883Y-96063171D01*
X172422670Y-96077421D01*
X172402153Y-96089718D01*
X172380529Y-96099946D01*
X172358007Y-96108004D01*
X172334803Y-96113816D01*
X172311142Y-96117326D01*
X172287250Y-96118500D01*
X171374750Y-96118500D01*
X171350858Y-96117326D01*
X171327197Y-96113816D01*
X171303993Y-96108004D01*
X171281471Y-96099946D01*
X171259847Y-96089718D01*
X171239330Y-96077421D01*
X171220117Y-96063171D01*
X171202393Y-96047107D01*
X171186329Y-96029383D01*
X171172079Y-96010170D01*
X171159782Y-95989653D01*
X171149554Y-95968029D01*
X171141496Y-95945507D01*
X171135684Y-95922303D01*
X171132174Y-95898642D01*
X171131000Y-95874750D01*
X171131000Y-95387250D01*
X171132174Y-95363358D01*
X171135684Y-95339697D01*
X171141496Y-95316493D01*
X171149554Y-95293971D01*
X171159782Y-95272347D01*
X171172079Y-95251830D01*
X171186329Y-95232617D01*
X171202393Y-95214893D01*
X171220117Y-95198829D01*
X171239330Y-95184579D01*
X171259847Y-95172282D01*
X171281471Y-95162054D01*
X171303993Y-95153996D01*
X171327197Y-95148184D01*
X171350858Y-95144674D01*
X171374750Y-95143500D01*
X172287250Y-95143500D01*
X172311142Y-95144674D01*
X172311142Y-95144674D01*
G37*
D11*
X171831000Y-95631000D03*
D10*
G36*
X183868142Y-97938674D02*
G01*
X183891803Y-97942184D01*
X183915007Y-97947996D01*
X183937529Y-97956054D01*
X183959153Y-97966282D01*
X183979670Y-97978579D01*
X183998883Y-97992829D01*
X184016607Y-98008893D01*
X184032671Y-98026617D01*
X184046921Y-98045830D01*
X184059218Y-98066347D01*
X184069446Y-98087971D01*
X184077504Y-98110493D01*
X184083316Y-98133697D01*
X184086826Y-98157358D01*
X184088000Y-98181250D01*
X184088000Y-98668750D01*
X184086826Y-98692642D01*
X184083316Y-98716303D01*
X184077504Y-98739507D01*
X184069446Y-98762029D01*
X184059218Y-98783653D01*
X184046921Y-98804170D01*
X184032671Y-98823383D01*
X184016607Y-98841107D01*
X183998883Y-98857171D01*
X183979670Y-98871421D01*
X183959153Y-98883718D01*
X183937529Y-98893946D01*
X183915007Y-98902004D01*
X183891803Y-98907816D01*
X183868142Y-98911326D01*
X183844250Y-98912500D01*
X182931750Y-98912500D01*
X182907858Y-98911326D01*
X182884197Y-98907816D01*
X182860993Y-98902004D01*
X182838471Y-98893946D01*
X182816847Y-98883718D01*
X182796330Y-98871421D01*
X182777117Y-98857171D01*
X182759393Y-98841107D01*
X182743329Y-98823383D01*
X182729079Y-98804170D01*
X182716782Y-98783653D01*
X182706554Y-98762029D01*
X182698496Y-98739507D01*
X182692684Y-98716303D01*
X182689174Y-98692642D01*
X182688000Y-98668750D01*
X182688000Y-98181250D01*
X182689174Y-98157358D01*
X182692684Y-98133697D01*
X182698496Y-98110493D01*
X182706554Y-98087971D01*
X182716782Y-98066347D01*
X182729079Y-98045830D01*
X182743329Y-98026617D01*
X182759393Y-98008893D01*
X182777117Y-97992829D01*
X182796330Y-97978579D01*
X182816847Y-97966282D01*
X182838471Y-97956054D01*
X182860993Y-97947996D01*
X182884197Y-97942184D01*
X182907858Y-97938674D01*
X182931750Y-97937500D01*
X183844250Y-97937500D01*
X183868142Y-97938674D01*
X183868142Y-97938674D01*
G37*
D11*
X183388000Y-98425000D03*
D10*
G36*
X183868142Y-96063674D02*
G01*
X183891803Y-96067184D01*
X183915007Y-96072996D01*
X183937529Y-96081054D01*
X183959153Y-96091282D01*
X183979670Y-96103579D01*
X183998883Y-96117829D01*
X184016607Y-96133893D01*
X184032671Y-96151617D01*
X184046921Y-96170830D01*
X184059218Y-96191347D01*
X184069446Y-96212971D01*
X184077504Y-96235493D01*
X184083316Y-96258697D01*
X184086826Y-96282358D01*
X184088000Y-96306250D01*
X184088000Y-96793750D01*
X184086826Y-96817642D01*
X184083316Y-96841303D01*
X184077504Y-96864507D01*
X184069446Y-96887029D01*
X184059218Y-96908653D01*
X184046921Y-96929170D01*
X184032671Y-96948383D01*
X184016607Y-96966107D01*
X183998883Y-96982171D01*
X183979670Y-96996421D01*
X183959153Y-97008718D01*
X183937529Y-97018946D01*
X183915007Y-97027004D01*
X183891803Y-97032816D01*
X183868142Y-97036326D01*
X183844250Y-97037500D01*
X182931750Y-97037500D01*
X182907858Y-97036326D01*
X182884197Y-97032816D01*
X182860993Y-97027004D01*
X182838471Y-97018946D01*
X182816847Y-97008718D01*
X182796330Y-96996421D01*
X182777117Y-96982171D01*
X182759393Y-96966107D01*
X182743329Y-96948383D01*
X182729079Y-96929170D01*
X182716782Y-96908653D01*
X182706554Y-96887029D01*
X182698496Y-96864507D01*
X182692684Y-96841303D01*
X182689174Y-96817642D01*
X182688000Y-96793750D01*
X182688000Y-96306250D01*
X182689174Y-96282358D01*
X182692684Y-96258697D01*
X182698496Y-96235493D01*
X182706554Y-96212971D01*
X182716782Y-96191347D01*
X182729079Y-96170830D01*
X182743329Y-96151617D01*
X182759393Y-96133893D01*
X182777117Y-96117829D01*
X182796330Y-96103579D01*
X182816847Y-96091282D01*
X182838471Y-96081054D01*
X182860993Y-96072996D01*
X182884197Y-96067184D01*
X182907858Y-96063674D01*
X182931750Y-96062500D01*
X183844250Y-96062500D01*
X183868142Y-96063674D01*
X183868142Y-96063674D01*
G37*
D11*
X183388000Y-96550000D03*
D10*
G36*
X209776142Y-93463674D02*
G01*
X209799803Y-93467184D01*
X209823007Y-93472996D01*
X209845529Y-93481054D01*
X209867153Y-93491282D01*
X209887670Y-93503579D01*
X209906883Y-93517829D01*
X209924607Y-93533893D01*
X209940671Y-93551617D01*
X209954921Y-93570830D01*
X209967218Y-93591347D01*
X209977446Y-93612971D01*
X209985504Y-93635493D01*
X209991316Y-93658697D01*
X209994826Y-93682358D01*
X209996000Y-93706250D01*
X209996000Y-94193750D01*
X209994826Y-94217642D01*
X209991316Y-94241303D01*
X209985504Y-94264507D01*
X209977446Y-94287029D01*
X209967218Y-94308653D01*
X209954921Y-94329170D01*
X209940671Y-94348383D01*
X209924607Y-94366107D01*
X209906883Y-94382171D01*
X209887670Y-94396421D01*
X209867153Y-94408718D01*
X209845529Y-94418946D01*
X209823007Y-94427004D01*
X209799803Y-94432816D01*
X209776142Y-94436326D01*
X209752250Y-94437500D01*
X208839750Y-94437500D01*
X208815858Y-94436326D01*
X208792197Y-94432816D01*
X208768993Y-94427004D01*
X208746471Y-94418946D01*
X208724847Y-94408718D01*
X208704330Y-94396421D01*
X208685117Y-94382171D01*
X208667393Y-94366107D01*
X208651329Y-94348383D01*
X208637079Y-94329170D01*
X208624782Y-94308653D01*
X208614554Y-94287029D01*
X208606496Y-94264507D01*
X208600684Y-94241303D01*
X208597174Y-94217642D01*
X208596000Y-94193750D01*
X208596000Y-93706250D01*
X208597174Y-93682358D01*
X208600684Y-93658697D01*
X208606496Y-93635493D01*
X208614554Y-93612971D01*
X208624782Y-93591347D01*
X208637079Y-93570830D01*
X208651329Y-93551617D01*
X208667393Y-93533893D01*
X208685117Y-93517829D01*
X208704330Y-93503579D01*
X208724847Y-93491282D01*
X208746471Y-93481054D01*
X208768993Y-93472996D01*
X208792197Y-93467184D01*
X208815858Y-93463674D01*
X208839750Y-93462500D01*
X209752250Y-93462500D01*
X209776142Y-93463674D01*
X209776142Y-93463674D01*
G37*
D11*
X209296000Y-93950000D03*
D10*
G36*
X209776142Y-91588674D02*
G01*
X209799803Y-91592184D01*
X209823007Y-91597996D01*
X209845529Y-91606054D01*
X209867153Y-91616282D01*
X209887670Y-91628579D01*
X209906883Y-91642829D01*
X209924607Y-91658893D01*
X209940671Y-91676617D01*
X209954921Y-91695830D01*
X209967218Y-91716347D01*
X209977446Y-91737971D01*
X209985504Y-91760493D01*
X209991316Y-91783697D01*
X209994826Y-91807358D01*
X209996000Y-91831250D01*
X209996000Y-92318750D01*
X209994826Y-92342642D01*
X209991316Y-92366303D01*
X209985504Y-92389507D01*
X209977446Y-92412029D01*
X209967218Y-92433653D01*
X209954921Y-92454170D01*
X209940671Y-92473383D01*
X209924607Y-92491107D01*
X209906883Y-92507171D01*
X209887670Y-92521421D01*
X209867153Y-92533718D01*
X209845529Y-92543946D01*
X209823007Y-92552004D01*
X209799803Y-92557816D01*
X209776142Y-92561326D01*
X209752250Y-92562500D01*
X208839750Y-92562500D01*
X208815858Y-92561326D01*
X208792197Y-92557816D01*
X208768993Y-92552004D01*
X208746471Y-92543946D01*
X208724847Y-92533718D01*
X208704330Y-92521421D01*
X208685117Y-92507171D01*
X208667393Y-92491107D01*
X208651329Y-92473383D01*
X208637079Y-92454170D01*
X208624782Y-92433653D01*
X208614554Y-92412029D01*
X208606496Y-92389507D01*
X208600684Y-92366303D01*
X208597174Y-92342642D01*
X208596000Y-92318750D01*
X208596000Y-91831250D01*
X208597174Y-91807358D01*
X208600684Y-91783697D01*
X208606496Y-91760493D01*
X208614554Y-91737971D01*
X208624782Y-91716347D01*
X208637079Y-91695830D01*
X208651329Y-91676617D01*
X208667393Y-91658893D01*
X208685117Y-91642829D01*
X208704330Y-91628579D01*
X208724847Y-91616282D01*
X208746471Y-91606054D01*
X208768993Y-91597996D01*
X208792197Y-91592184D01*
X208815858Y-91588674D01*
X208839750Y-91587500D01*
X209752250Y-91587500D01*
X209776142Y-91588674D01*
X209776142Y-91588674D01*
G37*
D11*
X209296000Y-92075000D03*
D10*
G36*
X195720642Y-102171174D02*
G01*
X195744303Y-102174684D01*
X195767507Y-102180496D01*
X195790029Y-102188554D01*
X195811653Y-102198782D01*
X195832170Y-102211079D01*
X195851383Y-102225329D01*
X195869107Y-102241393D01*
X195885171Y-102259117D01*
X195899421Y-102278330D01*
X195911718Y-102298847D01*
X195921946Y-102320471D01*
X195930004Y-102342993D01*
X195935816Y-102366197D01*
X195939326Y-102389858D01*
X195940500Y-102413750D01*
X195940500Y-103326250D01*
X195939326Y-103350142D01*
X195935816Y-103373803D01*
X195930004Y-103397007D01*
X195921946Y-103419529D01*
X195911718Y-103441153D01*
X195899421Y-103461670D01*
X195885171Y-103480883D01*
X195869107Y-103498607D01*
X195851383Y-103514671D01*
X195832170Y-103528921D01*
X195811653Y-103541218D01*
X195790029Y-103551446D01*
X195767507Y-103559504D01*
X195744303Y-103565316D01*
X195720642Y-103568826D01*
X195696750Y-103570000D01*
X195209250Y-103570000D01*
X195185358Y-103568826D01*
X195161697Y-103565316D01*
X195138493Y-103559504D01*
X195115971Y-103551446D01*
X195094347Y-103541218D01*
X195073830Y-103528921D01*
X195054617Y-103514671D01*
X195036893Y-103498607D01*
X195020829Y-103480883D01*
X195006579Y-103461670D01*
X194994282Y-103441153D01*
X194984054Y-103419529D01*
X194975996Y-103397007D01*
X194970184Y-103373803D01*
X194966674Y-103350142D01*
X194965500Y-103326250D01*
X194965500Y-102413750D01*
X194966674Y-102389858D01*
X194970184Y-102366197D01*
X194975996Y-102342993D01*
X194984054Y-102320471D01*
X194994282Y-102298847D01*
X195006579Y-102278330D01*
X195020829Y-102259117D01*
X195036893Y-102241393D01*
X195054617Y-102225329D01*
X195073830Y-102211079D01*
X195094347Y-102198782D01*
X195115971Y-102188554D01*
X195138493Y-102180496D01*
X195161697Y-102174684D01*
X195185358Y-102171174D01*
X195209250Y-102170000D01*
X195696750Y-102170000D01*
X195720642Y-102171174D01*
X195720642Y-102171174D01*
G37*
D11*
X195453000Y-102870000D03*
D10*
G36*
X193845642Y-102171174D02*
G01*
X193869303Y-102174684D01*
X193892507Y-102180496D01*
X193915029Y-102188554D01*
X193936653Y-102198782D01*
X193957170Y-102211079D01*
X193976383Y-102225329D01*
X193994107Y-102241393D01*
X194010171Y-102259117D01*
X194024421Y-102278330D01*
X194036718Y-102298847D01*
X194046946Y-102320471D01*
X194055004Y-102342993D01*
X194060816Y-102366197D01*
X194064326Y-102389858D01*
X194065500Y-102413750D01*
X194065500Y-103326250D01*
X194064326Y-103350142D01*
X194060816Y-103373803D01*
X194055004Y-103397007D01*
X194046946Y-103419529D01*
X194036718Y-103441153D01*
X194024421Y-103461670D01*
X194010171Y-103480883D01*
X193994107Y-103498607D01*
X193976383Y-103514671D01*
X193957170Y-103528921D01*
X193936653Y-103541218D01*
X193915029Y-103551446D01*
X193892507Y-103559504D01*
X193869303Y-103565316D01*
X193845642Y-103568826D01*
X193821750Y-103570000D01*
X193334250Y-103570000D01*
X193310358Y-103568826D01*
X193286697Y-103565316D01*
X193263493Y-103559504D01*
X193240971Y-103551446D01*
X193219347Y-103541218D01*
X193198830Y-103528921D01*
X193179617Y-103514671D01*
X193161893Y-103498607D01*
X193145829Y-103480883D01*
X193131579Y-103461670D01*
X193119282Y-103441153D01*
X193109054Y-103419529D01*
X193100996Y-103397007D01*
X193095184Y-103373803D01*
X193091674Y-103350142D01*
X193090500Y-103326250D01*
X193090500Y-102413750D01*
X193091674Y-102389858D01*
X193095184Y-102366197D01*
X193100996Y-102342993D01*
X193109054Y-102320471D01*
X193119282Y-102298847D01*
X193131579Y-102278330D01*
X193145829Y-102259117D01*
X193161893Y-102241393D01*
X193179617Y-102225329D01*
X193198830Y-102211079D01*
X193219347Y-102198782D01*
X193240971Y-102188554D01*
X193263493Y-102180496D01*
X193286697Y-102174684D01*
X193310358Y-102171174D01*
X193334250Y-102170000D01*
X193821750Y-102170000D01*
X193845642Y-102171174D01*
X193845642Y-102171174D01*
G37*
D11*
X193578000Y-102870000D03*
D10*
G36*
X190259642Y-95186174D02*
G01*
X190283303Y-95189684D01*
X190306507Y-95195496D01*
X190329029Y-95203554D01*
X190350653Y-95213782D01*
X190371170Y-95226079D01*
X190390383Y-95240329D01*
X190408107Y-95256393D01*
X190424171Y-95274117D01*
X190438421Y-95293330D01*
X190450718Y-95313847D01*
X190460946Y-95335471D01*
X190469004Y-95357993D01*
X190474816Y-95381197D01*
X190478326Y-95404858D01*
X190479500Y-95428750D01*
X190479500Y-96341250D01*
X190478326Y-96365142D01*
X190474816Y-96388803D01*
X190469004Y-96412007D01*
X190460946Y-96434529D01*
X190450718Y-96456153D01*
X190438421Y-96476670D01*
X190424171Y-96495883D01*
X190408107Y-96513607D01*
X190390383Y-96529671D01*
X190371170Y-96543921D01*
X190350653Y-96556218D01*
X190329029Y-96566446D01*
X190306507Y-96574504D01*
X190283303Y-96580316D01*
X190259642Y-96583826D01*
X190235750Y-96585000D01*
X189748250Y-96585000D01*
X189724358Y-96583826D01*
X189700697Y-96580316D01*
X189677493Y-96574504D01*
X189654971Y-96566446D01*
X189633347Y-96556218D01*
X189612830Y-96543921D01*
X189593617Y-96529671D01*
X189575893Y-96513607D01*
X189559829Y-96495883D01*
X189545579Y-96476670D01*
X189533282Y-96456153D01*
X189523054Y-96434529D01*
X189514996Y-96412007D01*
X189509184Y-96388803D01*
X189505674Y-96365142D01*
X189504500Y-96341250D01*
X189504500Y-95428750D01*
X189505674Y-95404858D01*
X189509184Y-95381197D01*
X189514996Y-95357993D01*
X189523054Y-95335471D01*
X189533282Y-95313847D01*
X189545579Y-95293330D01*
X189559829Y-95274117D01*
X189575893Y-95256393D01*
X189593617Y-95240329D01*
X189612830Y-95226079D01*
X189633347Y-95213782D01*
X189654971Y-95203554D01*
X189677493Y-95195496D01*
X189700697Y-95189684D01*
X189724358Y-95186174D01*
X189748250Y-95185000D01*
X190235750Y-95185000D01*
X190259642Y-95186174D01*
X190259642Y-95186174D01*
G37*
D11*
X189992000Y-95885000D03*
D10*
G36*
X188384642Y-95186174D02*
G01*
X188408303Y-95189684D01*
X188431507Y-95195496D01*
X188454029Y-95203554D01*
X188475653Y-95213782D01*
X188496170Y-95226079D01*
X188515383Y-95240329D01*
X188533107Y-95256393D01*
X188549171Y-95274117D01*
X188563421Y-95293330D01*
X188575718Y-95313847D01*
X188585946Y-95335471D01*
X188594004Y-95357993D01*
X188599816Y-95381197D01*
X188603326Y-95404858D01*
X188604500Y-95428750D01*
X188604500Y-96341250D01*
X188603326Y-96365142D01*
X188599816Y-96388803D01*
X188594004Y-96412007D01*
X188585946Y-96434529D01*
X188575718Y-96456153D01*
X188563421Y-96476670D01*
X188549171Y-96495883D01*
X188533107Y-96513607D01*
X188515383Y-96529671D01*
X188496170Y-96543921D01*
X188475653Y-96556218D01*
X188454029Y-96566446D01*
X188431507Y-96574504D01*
X188408303Y-96580316D01*
X188384642Y-96583826D01*
X188360750Y-96585000D01*
X187873250Y-96585000D01*
X187849358Y-96583826D01*
X187825697Y-96580316D01*
X187802493Y-96574504D01*
X187779971Y-96566446D01*
X187758347Y-96556218D01*
X187737830Y-96543921D01*
X187718617Y-96529671D01*
X187700893Y-96513607D01*
X187684829Y-96495883D01*
X187670579Y-96476670D01*
X187658282Y-96456153D01*
X187648054Y-96434529D01*
X187639996Y-96412007D01*
X187634184Y-96388803D01*
X187630674Y-96365142D01*
X187629500Y-96341250D01*
X187629500Y-95428750D01*
X187630674Y-95404858D01*
X187634184Y-95381197D01*
X187639996Y-95357993D01*
X187648054Y-95335471D01*
X187658282Y-95313847D01*
X187670579Y-95293330D01*
X187684829Y-95274117D01*
X187700893Y-95256393D01*
X187718617Y-95240329D01*
X187737830Y-95226079D01*
X187758347Y-95213782D01*
X187779971Y-95203554D01*
X187802493Y-95195496D01*
X187825697Y-95189684D01*
X187849358Y-95186174D01*
X187873250Y-95185000D01*
X188360750Y-95185000D01*
X188384642Y-95186174D01*
X188384642Y-95186174D01*
G37*
D11*
X188117000Y-95885000D03*
D10*
G36*
X218793142Y-133117674D02*
G01*
X218816803Y-133121184D01*
X218840007Y-133126996D01*
X218862529Y-133135054D01*
X218884153Y-133145282D01*
X218904670Y-133157579D01*
X218923883Y-133171829D01*
X218941607Y-133187893D01*
X218957671Y-133205617D01*
X218971921Y-133224830D01*
X218984218Y-133245347D01*
X218994446Y-133266971D01*
X219002504Y-133289493D01*
X219008316Y-133312697D01*
X219011826Y-133336358D01*
X219013000Y-133360250D01*
X219013000Y-133847750D01*
X219011826Y-133871642D01*
X219008316Y-133895303D01*
X219002504Y-133918507D01*
X218994446Y-133941029D01*
X218984218Y-133962653D01*
X218971921Y-133983170D01*
X218957671Y-134002383D01*
X218941607Y-134020107D01*
X218923883Y-134036171D01*
X218904670Y-134050421D01*
X218884153Y-134062718D01*
X218862529Y-134072946D01*
X218840007Y-134081004D01*
X218816803Y-134086816D01*
X218793142Y-134090326D01*
X218769250Y-134091500D01*
X217856750Y-134091500D01*
X217832858Y-134090326D01*
X217809197Y-134086816D01*
X217785993Y-134081004D01*
X217763471Y-134072946D01*
X217741847Y-134062718D01*
X217721330Y-134050421D01*
X217702117Y-134036171D01*
X217684393Y-134020107D01*
X217668329Y-134002383D01*
X217654079Y-133983170D01*
X217641782Y-133962653D01*
X217631554Y-133941029D01*
X217623496Y-133918507D01*
X217617684Y-133895303D01*
X217614174Y-133871642D01*
X217613000Y-133847750D01*
X217613000Y-133360250D01*
X217614174Y-133336358D01*
X217617684Y-133312697D01*
X217623496Y-133289493D01*
X217631554Y-133266971D01*
X217641782Y-133245347D01*
X217654079Y-133224830D01*
X217668329Y-133205617D01*
X217684393Y-133187893D01*
X217702117Y-133171829D01*
X217721330Y-133157579D01*
X217741847Y-133145282D01*
X217763471Y-133135054D01*
X217785993Y-133126996D01*
X217809197Y-133121184D01*
X217832858Y-133117674D01*
X217856750Y-133116500D01*
X218769250Y-133116500D01*
X218793142Y-133117674D01*
X218793142Y-133117674D01*
G37*
D11*
X218313000Y-133604000D03*
D10*
G36*
X218793142Y-131242674D02*
G01*
X218816803Y-131246184D01*
X218840007Y-131251996D01*
X218862529Y-131260054D01*
X218884153Y-131270282D01*
X218904670Y-131282579D01*
X218923883Y-131296829D01*
X218941607Y-131312893D01*
X218957671Y-131330617D01*
X218971921Y-131349830D01*
X218984218Y-131370347D01*
X218994446Y-131391971D01*
X219002504Y-131414493D01*
X219008316Y-131437697D01*
X219011826Y-131461358D01*
X219013000Y-131485250D01*
X219013000Y-131972750D01*
X219011826Y-131996642D01*
X219008316Y-132020303D01*
X219002504Y-132043507D01*
X218994446Y-132066029D01*
X218984218Y-132087653D01*
X218971921Y-132108170D01*
X218957671Y-132127383D01*
X218941607Y-132145107D01*
X218923883Y-132161171D01*
X218904670Y-132175421D01*
X218884153Y-132187718D01*
X218862529Y-132197946D01*
X218840007Y-132206004D01*
X218816803Y-132211816D01*
X218793142Y-132215326D01*
X218769250Y-132216500D01*
X217856750Y-132216500D01*
X217832858Y-132215326D01*
X217809197Y-132211816D01*
X217785993Y-132206004D01*
X217763471Y-132197946D01*
X217741847Y-132187718D01*
X217721330Y-132175421D01*
X217702117Y-132161171D01*
X217684393Y-132145107D01*
X217668329Y-132127383D01*
X217654079Y-132108170D01*
X217641782Y-132087653D01*
X217631554Y-132066029D01*
X217623496Y-132043507D01*
X217617684Y-132020303D01*
X217614174Y-131996642D01*
X217613000Y-131972750D01*
X217613000Y-131485250D01*
X217614174Y-131461358D01*
X217617684Y-131437697D01*
X217623496Y-131414493D01*
X217631554Y-131391971D01*
X217641782Y-131370347D01*
X217654079Y-131349830D01*
X217668329Y-131330617D01*
X217684393Y-131312893D01*
X217702117Y-131296829D01*
X217721330Y-131282579D01*
X217741847Y-131270282D01*
X217763471Y-131260054D01*
X217785993Y-131251996D01*
X217809197Y-131246184D01*
X217832858Y-131242674D01*
X217856750Y-131241500D01*
X218769250Y-131241500D01*
X218793142Y-131242674D01*
X218793142Y-131242674D01*
G37*
D11*
X218313000Y-131729000D03*
D10*
G36*
X202989642Y-84137174D02*
G01*
X203013303Y-84140684D01*
X203036507Y-84146496D01*
X203059029Y-84154554D01*
X203080653Y-84164782D01*
X203101170Y-84177079D01*
X203120383Y-84191329D01*
X203138107Y-84207393D01*
X203154171Y-84225117D01*
X203168421Y-84244330D01*
X203180718Y-84264847D01*
X203190946Y-84286471D01*
X203199004Y-84308993D01*
X203204816Y-84332197D01*
X203208326Y-84355858D01*
X203209500Y-84379750D01*
X203209500Y-85292250D01*
X203208326Y-85316142D01*
X203204816Y-85339803D01*
X203199004Y-85363007D01*
X203190946Y-85385529D01*
X203180718Y-85407153D01*
X203168421Y-85427670D01*
X203154171Y-85446883D01*
X203138107Y-85464607D01*
X203120383Y-85480671D01*
X203101170Y-85494921D01*
X203080653Y-85507218D01*
X203059029Y-85517446D01*
X203036507Y-85525504D01*
X203013303Y-85531316D01*
X202989642Y-85534826D01*
X202965750Y-85536000D01*
X202478250Y-85536000D01*
X202454358Y-85534826D01*
X202430697Y-85531316D01*
X202407493Y-85525504D01*
X202384971Y-85517446D01*
X202363347Y-85507218D01*
X202342830Y-85494921D01*
X202323617Y-85480671D01*
X202305893Y-85464607D01*
X202289829Y-85446883D01*
X202275579Y-85427670D01*
X202263282Y-85407153D01*
X202253054Y-85385529D01*
X202244996Y-85363007D01*
X202239184Y-85339803D01*
X202235674Y-85316142D01*
X202234500Y-85292250D01*
X202234500Y-84379750D01*
X202235674Y-84355858D01*
X202239184Y-84332197D01*
X202244996Y-84308993D01*
X202253054Y-84286471D01*
X202263282Y-84264847D01*
X202275579Y-84244330D01*
X202289829Y-84225117D01*
X202305893Y-84207393D01*
X202323617Y-84191329D01*
X202342830Y-84177079D01*
X202363347Y-84164782D01*
X202384971Y-84154554D01*
X202407493Y-84146496D01*
X202430697Y-84140684D01*
X202454358Y-84137174D01*
X202478250Y-84136000D01*
X202965750Y-84136000D01*
X202989642Y-84137174D01*
X202989642Y-84137174D01*
G37*
D11*
X202722000Y-84836000D03*
D10*
G36*
X204864642Y-84137174D02*
G01*
X204888303Y-84140684D01*
X204911507Y-84146496D01*
X204934029Y-84154554D01*
X204955653Y-84164782D01*
X204976170Y-84177079D01*
X204995383Y-84191329D01*
X205013107Y-84207393D01*
X205029171Y-84225117D01*
X205043421Y-84244330D01*
X205055718Y-84264847D01*
X205065946Y-84286471D01*
X205074004Y-84308993D01*
X205079816Y-84332197D01*
X205083326Y-84355858D01*
X205084500Y-84379750D01*
X205084500Y-85292250D01*
X205083326Y-85316142D01*
X205079816Y-85339803D01*
X205074004Y-85363007D01*
X205065946Y-85385529D01*
X205055718Y-85407153D01*
X205043421Y-85427670D01*
X205029171Y-85446883D01*
X205013107Y-85464607D01*
X204995383Y-85480671D01*
X204976170Y-85494921D01*
X204955653Y-85507218D01*
X204934029Y-85517446D01*
X204911507Y-85525504D01*
X204888303Y-85531316D01*
X204864642Y-85534826D01*
X204840750Y-85536000D01*
X204353250Y-85536000D01*
X204329358Y-85534826D01*
X204305697Y-85531316D01*
X204282493Y-85525504D01*
X204259971Y-85517446D01*
X204238347Y-85507218D01*
X204217830Y-85494921D01*
X204198617Y-85480671D01*
X204180893Y-85464607D01*
X204164829Y-85446883D01*
X204150579Y-85427670D01*
X204138282Y-85407153D01*
X204128054Y-85385529D01*
X204119996Y-85363007D01*
X204114184Y-85339803D01*
X204110674Y-85316142D01*
X204109500Y-85292250D01*
X204109500Y-84379750D01*
X204110674Y-84355858D01*
X204114184Y-84332197D01*
X204119996Y-84308993D01*
X204128054Y-84286471D01*
X204138282Y-84264847D01*
X204150579Y-84244330D01*
X204164829Y-84225117D01*
X204180893Y-84207393D01*
X204198617Y-84191329D01*
X204217830Y-84177079D01*
X204238347Y-84164782D01*
X204259971Y-84154554D01*
X204282493Y-84146496D01*
X204305697Y-84140684D01*
X204329358Y-84137174D01*
X204353250Y-84136000D01*
X204840750Y-84136000D01*
X204864642Y-84137174D01*
X204864642Y-84137174D01*
G37*
D11*
X204597000Y-84836000D03*
D10*
G36*
X207785642Y-104330174D02*
G01*
X207809303Y-104333684D01*
X207832507Y-104339496D01*
X207855029Y-104347554D01*
X207876653Y-104357782D01*
X207897170Y-104370079D01*
X207916383Y-104384329D01*
X207934107Y-104400393D01*
X207950171Y-104418117D01*
X207964421Y-104437330D01*
X207976718Y-104457847D01*
X207986946Y-104479471D01*
X207995004Y-104501993D01*
X208000816Y-104525197D01*
X208004326Y-104548858D01*
X208005500Y-104572750D01*
X208005500Y-105485250D01*
X208004326Y-105509142D01*
X208000816Y-105532803D01*
X207995004Y-105556007D01*
X207986946Y-105578529D01*
X207976718Y-105600153D01*
X207964421Y-105620670D01*
X207950171Y-105639883D01*
X207934107Y-105657607D01*
X207916383Y-105673671D01*
X207897170Y-105687921D01*
X207876653Y-105700218D01*
X207855029Y-105710446D01*
X207832507Y-105718504D01*
X207809303Y-105724316D01*
X207785642Y-105727826D01*
X207761750Y-105729000D01*
X207274250Y-105729000D01*
X207250358Y-105727826D01*
X207226697Y-105724316D01*
X207203493Y-105718504D01*
X207180971Y-105710446D01*
X207159347Y-105700218D01*
X207138830Y-105687921D01*
X207119617Y-105673671D01*
X207101893Y-105657607D01*
X207085829Y-105639883D01*
X207071579Y-105620670D01*
X207059282Y-105600153D01*
X207049054Y-105578529D01*
X207040996Y-105556007D01*
X207035184Y-105532803D01*
X207031674Y-105509142D01*
X207030500Y-105485250D01*
X207030500Y-104572750D01*
X207031674Y-104548858D01*
X207035184Y-104525197D01*
X207040996Y-104501993D01*
X207049054Y-104479471D01*
X207059282Y-104457847D01*
X207071579Y-104437330D01*
X207085829Y-104418117D01*
X207101893Y-104400393D01*
X207119617Y-104384329D01*
X207138830Y-104370079D01*
X207159347Y-104357782D01*
X207180971Y-104347554D01*
X207203493Y-104339496D01*
X207226697Y-104333684D01*
X207250358Y-104330174D01*
X207274250Y-104329000D01*
X207761750Y-104329000D01*
X207785642Y-104330174D01*
X207785642Y-104330174D01*
G37*
D11*
X207518000Y-105029000D03*
D10*
G36*
X209660642Y-104330174D02*
G01*
X209684303Y-104333684D01*
X209707507Y-104339496D01*
X209730029Y-104347554D01*
X209751653Y-104357782D01*
X209772170Y-104370079D01*
X209791383Y-104384329D01*
X209809107Y-104400393D01*
X209825171Y-104418117D01*
X209839421Y-104437330D01*
X209851718Y-104457847D01*
X209861946Y-104479471D01*
X209870004Y-104501993D01*
X209875816Y-104525197D01*
X209879326Y-104548858D01*
X209880500Y-104572750D01*
X209880500Y-105485250D01*
X209879326Y-105509142D01*
X209875816Y-105532803D01*
X209870004Y-105556007D01*
X209861946Y-105578529D01*
X209851718Y-105600153D01*
X209839421Y-105620670D01*
X209825171Y-105639883D01*
X209809107Y-105657607D01*
X209791383Y-105673671D01*
X209772170Y-105687921D01*
X209751653Y-105700218D01*
X209730029Y-105710446D01*
X209707507Y-105718504D01*
X209684303Y-105724316D01*
X209660642Y-105727826D01*
X209636750Y-105729000D01*
X209149250Y-105729000D01*
X209125358Y-105727826D01*
X209101697Y-105724316D01*
X209078493Y-105718504D01*
X209055971Y-105710446D01*
X209034347Y-105700218D01*
X209013830Y-105687921D01*
X208994617Y-105673671D01*
X208976893Y-105657607D01*
X208960829Y-105639883D01*
X208946579Y-105620670D01*
X208934282Y-105600153D01*
X208924054Y-105578529D01*
X208915996Y-105556007D01*
X208910184Y-105532803D01*
X208906674Y-105509142D01*
X208905500Y-105485250D01*
X208905500Y-104572750D01*
X208906674Y-104548858D01*
X208910184Y-104525197D01*
X208915996Y-104501993D01*
X208924054Y-104479471D01*
X208934282Y-104457847D01*
X208946579Y-104437330D01*
X208960829Y-104418117D01*
X208976893Y-104400393D01*
X208994617Y-104384329D01*
X209013830Y-104370079D01*
X209034347Y-104357782D01*
X209055971Y-104347554D01*
X209078493Y-104339496D01*
X209101697Y-104333684D01*
X209125358Y-104330174D01*
X209149250Y-104329000D01*
X209636750Y-104329000D01*
X209660642Y-104330174D01*
X209660642Y-104330174D01*
G37*
D11*
X209393000Y-105029000D03*
D10*
G36*
X207356142Y-84137174D02*
G01*
X207379803Y-84140684D01*
X207403007Y-84146496D01*
X207425529Y-84154554D01*
X207447153Y-84164782D01*
X207467670Y-84177079D01*
X207486883Y-84191329D01*
X207504607Y-84207393D01*
X207520671Y-84225117D01*
X207534921Y-84244330D01*
X207547218Y-84264847D01*
X207557446Y-84286471D01*
X207565504Y-84308993D01*
X207571316Y-84332197D01*
X207574826Y-84355858D01*
X207576000Y-84379750D01*
X207576000Y-85292250D01*
X207574826Y-85316142D01*
X207571316Y-85339803D01*
X207565504Y-85363007D01*
X207557446Y-85385529D01*
X207547218Y-85407153D01*
X207534921Y-85427670D01*
X207520671Y-85446883D01*
X207504607Y-85464607D01*
X207486883Y-85480671D01*
X207467670Y-85494921D01*
X207447153Y-85507218D01*
X207425529Y-85517446D01*
X207403007Y-85525504D01*
X207379803Y-85531316D01*
X207356142Y-85534826D01*
X207332250Y-85536000D01*
X206844750Y-85536000D01*
X206820858Y-85534826D01*
X206797197Y-85531316D01*
X206773993Y-85525504D01*
X206751471Y-85517446D01*
X206729847Y-85507218D01*
X206709330Y-85494921D01*
X206690117Y-85480671D01*
X206672393Y-85464607D01*
X206656329Y-85446883D01*
X206642079Y-85427670D01*
X206629782Y-85407153D01*
X206619554Y-85385529D01*
X206611496Y-85363007D01*
X206605684Y-85339803D01*
X206602174Y-85316142D01*
X206601000Y-85292250D01*
X206601000Y-84379750D01*
X206602174Y-84355858D01*
X206605684Y-84332197D01*
X206611496Y-84308993D01*
X206619554Y-84286471D01*
X206629782Y-84264847D01*
X206642079Y-84244330D01*
X206656329Y-84225117D01*
X206672393Y-84207393D01*
X206690117Y-84191329D01*
X206709330Y-84177079D01*
X206729847Y-84164782D01*
X206751471Y-84154554D01*
X206773993Y-84146496D01*
X206797197Y-84140684D01*
X206820858Y-84137174D01*
X206844750Y-84136000D01*
X207332250Y-84136000D01*
X207356142Y-84137174D01*
X207356142Y-84137174D01*
G37*
D11*
X207088500Y-84836000D03*
D10*
G36*
X209231142Y-84137174D02*
G01*
X209254803Y-84140684D01*
X209278007Y-84146496D01*
X209300529Y-84154554D01*
X209322153Y-84164782D01*
X209342670Y-84177079D01*
X209361883Y-84191329D01*
X209379607Y-84207393D01*
X209395671Y-84225117D01*
X209409921Y-84244330D01*
X209422218Y-84264847D01*
X209432446Y-84286471D01*
X209440504Y-84308993D01*
X209446316Y-84332197D01*
X209449826Y-84355858D01*
X209451000Y-84379750D01*
X209451000Y-85292250D01*
X209449826Y-85316142D01*
X209446316Y-85339803D01*
X209440504Y-85363007D01*
X209432446Y-85385529D01*
X209422218Y-85407153D01*
X209409921Y-85427670D01*
X209395671Y-85446883D01*
X209379607Y-85464607D01*
X209361883Y-85480671D01*
X209342670Y-85494921D01*
X209322153Y-85507218D01*
X209300529Y-85517446D01*
X209278007Y-85525504D01*
X209254803Y-85531316D01*
X209231142Y-85534826D01*
X209207250Y-85536000D01*
X208719750Y-85536000D01*
X208695858Y-85534826D01*
X208672197Y-85531316D01*
X208648993Y-85525504D01*
X208626471Y-85517446D01*
X208604847Y-85507218D01*
X208584330Y-85494921D01*
X208565117Y-85480671D01*
X208547393Y-85464607D01*
X208531329Y-85446883D01*
X208517079Y-85427670D01*
X208504782Y-85407153D01*
X208494554Y-85385529D01*
X208486496Y-85363007D01*
X208480684Y-85339803D01*
X208477174Y-85316142D01*
X208476000Y-85292250D01*
X208476000Y-84379750D01*
X208477174Y-84355858D01*
X208480684Y-84332197D01*
X208486496Y-84308993D01*
X208494554Y-84286471D01*
X208504782Y-84264847D01*
X208517079Y-84244330D01*
X208531329Y-84225117D01*
X208547393Y-84207393D01*
X208565117Y-84191329D01*
X208584330Y-84177079D01*
X208604847Y-84164782D01*
X208626471Y-84154554D01*
X208648993Y-84146496D01*
X208672197Y-84140684D01*
X208695858Y-84137174D01*
X208719750Y-84136000D01*
X209207250Y-84136000D01*
X209231142Y-84137174D01*
X209231142Y-84137174D01*
G37*
D11*
X208963500Y-84836000D03*
D10*
G36*
X179931142Y-128956674D02*
G01*
X179954803Y-128960184D01*
X179978007Y-128965996D01*
X180000529Y-128974054D01*
X180022153Y-128984282D01*
X180042670Y-128996579D01*
X180061883Y-129010829D01*
X180079607Y-129026893D01*
X180095671Y-129044617D01*
X180109921Y-129063830D01*
X180122218Y-129084347D01*
X180132446Y-129105971D01*
X180140504Y-129128493D01*
X180146316Y-129151697D01*
X180149826Y-129175358D01*
X180151000Y-129199250D01*
X180151000Y-129686750D01*
X180149826Y-129710642D01*
X180146316Y-129734303D01*
X180140504Y-129757507D01*
X180132446Y-129780029D01*
X180122218Y-129801653D01*
X180109921Y-129822170D01*
X180095671Y-129841383D01*
X180079607Y-129859107D01*
X180061883Y-129875171D01*
X180042670Y-129889421D01*
X180022153Y-129901718D01*
X180000529Y-129911946D01*
X179978007Y-129920004D01*
X179954803Y-129925816D01*
X179931142Y-129929326D01*
X179907250Y-129930500D01*
X178994750Y-129930500D01*
X178970858Y-129929326D01*
X178947197Y-129925816D01*
X178923993Y-129920004D01*
X178901471Y-129911946D01*
X178879847Y-129901718D01*
X178859330Y-129889421D01*
X178840117Y-129875171D01*
X178822393Y-129859107D01*
X178806329Y-129841383D01*
X178792079Y-129822170D01*
X178779782Y-129801653D01*
X178769554Y-129780029D01*
X178761496Y-129757507D01*
X178755684Y-129734303D01*
X178752174Y-129710642D01*
X178751000Y-129686750D01*
X178751000Y-129199250D01*
X178752174Y-129175358D01*
X178755684Y-129151697D01*
X178761496Y-129128493D01*
X178769554Y-129105971D01*
X178779782Y-129084347D01*
X178792079Y-129063830D01*
X178806329Y-129044617D01*
X178822393Y-129026893D01*
X178840117Y-129010829D01*
X178859330Y-128996579D01*
X178879847Y-128984282D01*
X178901471Y-128974054D01*
X178923993Y-128965996D01*
X178947197Y-128960184D01*
X178970858Y-128956674D01*
X178994750Y-128955500D01*
X179907250Y-128955500D01*
X179931142Y-128956674D01*
X179931142Y-128956674D01*
G37*
D11*
X179451000Y-129443000D03*
D10*
G36*
X179931142Y-130831674D02*
G01*
X179954803Y-130835184D01*
X179978007Y-130840996D01*
X180000529Y-130849054D01*
X180022153Y-130859282D01*
X180042670Y-130871579D01*
X180061883Y-130885829D01*
X180079607Y-130901893D01*
X180095671Y-130919617D01*
X180109921Y-130938830D01*
X180122218Y-130959347D01*
X180132446Y-130980971D01*
X180140504Y-131003493D01*
X180146316Y-131026697D01*
X180149826Y-131050358D01*
X180151000Y-131074250D01*
X180151000Y-131561750D01*
X180149826Y-131585642D01*
X180146316Y-131609303D01*
X180140504Y-131632507D01*
X180132446Y-131655029D01*
X180122218Y-131676653D01*
X180109921Y-131697170D01*
X180095671Y-131716383D01*
X180079607Y-131734107D01*
X180061883Y-131750171D01*
X180042670Y-131764421D01*
X180022153Y-131776718D01*
X180000529Y-131786946D01*
X179978007Y-131795004D01*
X179954803Y-131800816D01*
X179931142Y-131804326D01*
X179907250Y-131805500D01*
X178994750Y-131805500D01*
X178970858Y-131804326D01*
X178947197Y-131800816D01*
X178923993Y-131795004D01*
X178901471Y-131786946D01*
X178879847Y-131776718D01*
X178859330Y-131764421D01*
X178840117Y-131750171D01*
X178822393Y-131734107D01*
X178806329Y-131716383D01*
X178792079Y-131697170D01*
X178779782Y-131676653D01*
X178769554Y-131655029D01*
X178761496Y-131632507D01*
X178755684Y-131609303D01*
X178752174Y-131585642D01*
X178751000Y-131561750D01*
X178751000Y-131074250D01*
X178752174Y-131050358D01*
X178755684Y-131026697D01*
X178761496Y-131003493D01*
X178769554Y-130980971D01*
X178779782Y-130959347D01*
X178792079Y-130938830D01*
X178806329Y-130919617D01*
X178822393Y-130901893D01*
X178840117Y-130885829D01*
X178859330Y-130871579D01*
X178879847Y-130859282D01*
X178901471Y-130849054D01*
X178923993Y-130840996D01*
X178947197Y-130835184D01*
X178970858Y-130831674D01*
X178994750Y-130830500D01*
X179907250Y-130830500D01*
X179931142Y-130831674D01*
X179931142Y-130831674D01*
G37*
D11*
X179451000Y-131318000D03*
D10*
G36*
X173073142Y-107112674D02*
G01*
X173096803Y-107116184D01*
X173120007Y-107121996D01*
X173142529Y-107130054D01*
X173164153Y-107140282D01*
X173184670Y-107152579D01*
X173203883Y-107166829D01*
X173221607Y-107182893D01*
X173237671Y-107200617D01*
X173251921Y-107219830D01*
X173264218Y-107240347D01*
X173274446Y-107261971D01*
X173282504Y-107284493D01*
X173288316Y-107307697D01*
X173291826Y-107331358D01*
X173293000Y-107355250D01*
X173293000Y-107842750D01*
X173291826Y-107866642D01*
X173288316Y-107890303D01*
X173282504Y-107913507D01*
X173274446Y-107936029D01*
X173264218Y-107957653D01*
X173251921Y-107978170D01*
X173237671Y-107997383D01*
X173221607Y-108015107D01*
X173203883Y-108031171D01*
X173184670Y-108045421D01*
X173164153Y-108057718D01*
X173142529Y-108067946D01*
X173120007Y-108076004D01*
X173096803Y-108081816D01*
X173073142Y-108085326D01*
X173049250Y-108086500D01*
X172136750Y-108086500D01*
X172112858Y-108085326D01*
X172089197Y-108081816D01*
X172065993Y-108076004D01*
X172043471Y-108067946D01*
X172021847Y-108057718D01*
X172001330Y-108045421D01*
X171982117Y-108031171D01*
X171964393Y-108015107D01*
X171948329Y-107997383D01*
X171934079Y-107978170D01*
X171921782Y-107957653D01*
X171911554Y-107936029D01*
X171903496Y-107913507D01*
X171897684Y-107890303D01*
X171894174Y-107866642D01*
X171893000Y-107842750D01*
X171893000Y-107355250D01*
X171894174Y-107331358D01*
X171897684Y-107307697D01*
X171903496Y-107284493D01*
X171911554Y-107261971D01*
X171921782Y-107240347D01*
X171934079Y-107219830D01*
X171948329Y-107200617D01*
X171964393Y-107182893D01*
X171982117Y-107166829D01*
X172001330Y-107152579D01*
X172021847Y-107140282D01*
X172043471Y-107130054D01*
X172065993Y-107121996D01*
X172089197Y-107116184D01*
X172112858Y-107112674D01*
X172136750Y-107111500D01*
X173049250Y-107111500D01*
X173073142Y-107112674D01*
X173073142Y-107112674D01*
G37*
D11*
X172593000Y-107599000D03*
D10*
G36*
X173073142Y-108987674D02*
G01*
X173096803Y-108991184D01*
X173120007Y-108996996D01*
X173142529Y-109005054D01*
X173164153Y-109015282D01*
X173184670Y-109027579D01*
X173203883Y-109041829D01*
X173221607Y-109057893D01*
X173237671Y-109075617D01*
X173251921Y-109094830D01*
X173264218Y-109115347D01*
X173274446Y-109136971D01*
X173282504Y-109159493D01*
X173288316Y-109182697D01*
X173291826Y-109206358D01*
X173293000Y-109230250D01*
X173293000Y-109717750D01*
X173291826Y-109741642D01*
X173288316Y-109765303D01*
X173282504Y-109788507D01*
X173274446Y-109811029D01*
X173264218Y-109832653D01*
X173251921Y-109853170D01*
X173237671Y-109872383D01*
X173221607Y-109890107D01*
X173203883Y-109906171D01*
X173184670Y-109920421D01*
X173164153Y-109932718D01*
X173142529Y-109942946D01*
X173120007Y-109951004D01*
X173096803Y-109956816D01*
X173073142Y-109960326D01*
X173049250Y-109961500D01*
X172136750Y-109961500D01*
X172112858Y-109960326D01*
X172089197Y-109956816D01*
X172065993Y-109951004D01*
X172043471Y-109942946D01*
X172021847Y-109932718D01*
X172001330Y-109920421D01*
X171982117Y-109906171D01*
X171964393Y-109890107D01*
X171948329Y-109872383D01*
X171934079Y-109853170D01*
X171921782Y-109832653D01*
X171911554Y-109811029D01*
X171903496Y-109788507D01*
X171897684Y-109765303D01*
X171894174Y-109741642D01*
X171893000Y-109717750D01*
X171893000Y-109230250D01*
X171894174Y-109206358D01*
X171897684Y-109182697D01*
X171903496Y-109159493D01*
X171911554Y-109136971D01*
X171921782Y-109115347D01*
X171934079Y-109094830D01*
X171948329Y-109075617D01*
X171964393Y-109057893D01*
X171982117Y-109041829D01*
X172001330Y-109027579D01*
X172021847Y-109015282D01*
X172043471Y-109005054D01*
X172065993Y-108996996D01*
X172089197Y-108991184D01*
X172112858Y-108987674D01*
X172136750Y-108986500D01*
X173049250Y-108986500D01*
X173073142Y-108987674D01*
X173073142Y-108987674D01*
G37*
D11*
X172593000Y-109474000D03*
D10*
G36*
X181388390Y-96281510D02*
G01*
X181398680Y-96283037D01*
X181408770Y-96285564D01*
X181418564Y-96289069D01*
X181427968Y-96293516D01*
X181436890Y-96298864D01*
X181445246Y-96305061D01*
X181452953Y-96312047D01*
X181459939Y-96319754D01*
X181466136Y-96328110D01*
X181471484Y-96337032D01*
X181475931Y-96346436D01*
X181479436Y-96356230D01*
X181481963Y-96366320D01*
X181483490Y-96376610D01*
X181484000Y-96387000D01*
X181484000Y-97675000D01*
X181483490Y-97685390D01*
X181481963Y-97695680D01*
X181479436Y-97705770D01*
X181475931Y-97715564D01*
X181471484Y-97724968D01*
X181466136Y-97733890D01*
X181459939Y-97742246D01*
X181452953Y-97749953D01*
X181445246Y-97756939D01*
X181436890Y-97763136D01*
X181427968Y-97768484D01*
X181418564Y-97772931D01*
X181408770Y-97776436D01*
X181398680Y-97778963D01*
X181388390Y-97780490D01*
X181378000Y-97781000D01*
X180530000Y-97781000D01*
X180519610Y-97780490D01*
X180509320Y-97778963D01*
X180499230Y-97776436D01*
X180489436Y-97772931D01*
X180480032Y-97768484D01*
X180471110Y-97763136D01*
X180462754Y-97756939D01*
X180455047Y-97749953D01*
X180448061Y-97742246D01*
X180441864Y-97733890D01*
X180436516Y-97724968D01*
X180432069Y-97715564D01*
X180428564Y-97705770D01*
X180426037Y-97695680D01*
X180424510Y-97685390D01*
X180424000Y-97675000D01*
X180424000Y-96387000D01*
X180424510Y-96376610D01*
X180426037Y-96366320D01*
X180428564Y-96356230D01*
X180432069Y-96346436D01*
X180436516Y-96337032D01*
X180441864Y-96328110D01*
X180448061Y-96319754D01*
X180455047Y-96312047D01*
X180462754Y-96305061D01*
X180471110Y-96298864D01*
X180480032Y-96293516D01*
X180489436Y-96289069D01*
X180499230Y-96285564D01*
X180509320Y-96283037D01*
X180519610Y-96281510D01*
X180530000Y-96281000D01*
X181378000Y-96281000D01*
X181388390Y-96281510D01*
X181388390Y-96281510D01*
G37*
D25*
X180954000Y-97031000D03*
D10*
G36*
X180128390Y-96281510D02*
G01*
X180138680Y-96283037D01*
X180148770Y-96285564D01*
X180158564Y-96289069D01*
X180167968Y-96293516D01*
X180176890Y-96298864D01*
X180185246Y-96305061D01*
X180192953Y-96312047D01*
X180199939Y-96319754D01*
X180206136Y-96328110D01*
X180211484Y-96337032D01*
X180215931Y-96346436D01*
X180219436Y-96356230D01*
X180221963Y-96366320D01*
X180223490Y-96376610D01*
X180224000Y-96387000D01*
X180224000Y-97675000D01*
X180223490Y-97685390D01*
X180221963Y-97695680D01*
X180219436Y-97705770D01*
X180215931Y-97715564D01*
X180211484Y-97724968D01*
X180206136Y-97733890D01*
X180199939Y-97742246D01*
X180192953Y-97749953D01*
X180185246Y-97756939D01*
X180176890Y-97763136D01*
X180167968Y-97768484D01*
X180158564Y-97772931D01*
X180148770Y-97776436D01*
X180138680Y-97778963D01*
X180128390Y-97780490D01*
X180118000Y-97781000D01*
X179270000Y-97781000D01*
X179259610Y-97780490D01*
X179249320Y-97778963D01*
X179239230Y-97776436D01*
X179229436Y-97772931D01*
X179220032Y-97768484D01*
X179211110Y-97763136D01*
X179202754Y-97756939D01*
X179195047Y-97749953D01*
X179188061Y-97742246D01*
X179181864Y-97733890D01*
X179176516Y-97724968D01*
X179172069Y-97715564D01*
X179168564Y-97705770D01*
X179166037Y-97695680D01*
X179164510Y-97685390D01*
X179164000Y-97675000D01*
X179164000Y-96387000D01*
X179164510Y-96376610D01*
X179166037Y-96366320D01*
X179168564Y-96356230D01*
X179172069Y-96346436D01*
X179176516Y-96337032D01*
X179181864Y-96328110D01*
X179188061Y-96319754D01*
X179195047Y-96312047D01*
X179202754Y-96305061D01*
X179211110Y-96298864D01*
X179220032Y-96293516D01*
X179229436Y-96289069D01*
X179239230Y-96285564D01*
X179249320Y-96283037D01*
X179259610Y-96281510D01*
X179270000Y-96281000D01*
X180118000Y-96281000D01*
X180128390Y-96281510D01*
X180128390Y-96281510D01*
G37*
D25*
X179694000Y-97031000D03*
D10*
G36*
X178941450Y-97156120D02*
G01*
X178943877Y-97156480D01*
X178946257Y-97157076D01*
X178948567Y-97157903D01*
X178950785Y-97158952D01*
X178952889Y-97160213D01*
X178954860Y-97161675D01*
X178956678Y-97163322D01*
X178958325Y-97165140D01*
X178959787Y-97167111D01*
X178961048Y-97169215D01*
X178962097Y-97171433D01*
X178962924Y-97173743D01*
X178963520Y-97176123D01*
X178963880Y-97178550D01*
X178964000Y-97181000D01*
X178964000Y-97381000D01*
X178963880Y-97383450D01*
X178963520Y-97385877D01*
X178962924Y-97388257D01*
X178962097Y-97390567D01*
X178961048Y-97392785D01*
X178959787Y-97394889D01*
X178958325Y-97396860D01*
X178956678Y-97398678D01*
X178954860Y-97400325D01*
X178952889Y-97401787D01*
X178950785Y-97403048D01*
X178948567Y-97404097D01*
X178946257Y-97404924D01*
X178943877Y-97405520D01*
X178941450Y-97405880D01*
X178939000Y-97406000D01*
X178649000Y-97406000D01*
X178646550Y-97405880D01*
X178644123Y-97405520D01*
X178641743Y-97404924D01*
X178639433Y-97404097D01*
X178637215Y-97403048D01*
X178635111Y-97401787D01*
X178633140Y-97400325D01*
X178631322Y-97398678D01*
X178629675Y-97396860D01*
X178628213Y-97394889D01*
X178626952Y-97392785D01*
X178625903Y-97390567D01*
X178625076Y-97388257D01*
X178624480Y-97385877D01*
X178624120Y-97383450D01*
X178624000Y-97381000D01*
X178624000Y-97181000D01*
X178624120Y-97178550D01*
X178624480Y-97176123D01*
X178625076Y-97173743D01*
X178625903Y-97171433D01*
X178626952Y-97169215D01*
X178628213Y-97167111D01*
X178629675Y-97165140D01*
X178631322Y-97163322D01*
X178633140Y-97161675D01*
X178635111Y-97160213D01*
X178637215Y-97158952D01*
X178639433Y-97157903D01*
X178641743Y-97157076D01*
X178644123Y-97156480D01*
X178646550Y-97156120D01*
X178649000Y-97156000D01*
X178939000Y-97156000D01*
X178941450Y-97156120D01*
X178941450Y-97156120D01*
G37*
D26*
X178794000Y-97281000D03*
D10*
G36*
X178941450Y-96656120D02*
G01*
X178943877Y-96656480D01*
X178946257Y-96657076D01*
X178948567Y-96657903D01*
X178950785Y-96658952D01*
X178952889Y-96660213D01*
X178954860Y-96661675D01*
X178956678Y-96663322D01*
X178958325Y-96665140D01*
X178959787Y-96667111D01*
X178961048Y-96669215D01*
X178962097Y-96671433D01*
X178962924Y-96673743D01*
X178963520Y-96676123D01*
X178963880Y-96678550D01*
X178964000Y-96681000D01*
X178964000Y-96881000D01*
X178963880Y-96883450D01*
X178963520Y-96885877D01*
X178962924Y-96888257D01*
X178962097Y-96890567D01*
X178961048Y-96892785D01*
X178959787Y-96894889D01*
X178958325Y-96896860D01*
X178956678Y-96898678D01*
X178954860Y-96900325D01*
X178952889Y-96901787D01*
X178950785Y-96903048D01*
X178948567Y-96904097D01*
X178946257Y-96904924D01*
X178943877Y-96905520D01*
X178941450Y-96905880D01*
X178939000Y-96906000D01*
X178649000Y-96906000D01*
X178646550Y-96905880D01*
X178644123Y-96905520D01*
X178641743Y-96904924D01*
X178639433Y-96904097D01*
X178637215Y-96903048D01*
X178635111Y-96901787D01*
X178633140Y-96900325D01*
X178631322Y-96898678D01*
X178629675Y-96896860D01*
X178628213Y-96894889D01*
X178626952Y-96892785D01*
X178625903Y-96890567D01*
X178625076Y-96888257D01*
X178624480Y-96885877D01*
X178624120Y-96883450D01*
X178624000Y-96881000D01*
X178624000Y-96681000D01*
X178624120Y-96678550D01*
X178624480Y-96676123D01*
X178625076Y-96673743D01*
X178625903Y-96671433D01*
X178626952Y-96669215D01*
X178628213Y-96667111D01*
X178629675Y-96665140D01*
X178631322Y-96663322D01*
X178633140Y-96661675D01*
X178635111Y-96660213D01*
X178637215Y-96658952D01*
X178639433Y-96657903D01*
X178641743Y-96657076D01*
X178644123Y-96656480D01*
X178646550Y-96656120D01*
X178649000Y-96656000D01*
X178939000Y-96656000D01*
X178941450Y-96656120D01*
X178941450Y-96656120D01*
G37*
D26*
X178794000Y-96781000D03*
D10*
G36*
X182001450Y-97156120D02*
G01*
X182003877Y-97156480D01*
X182006257Y-97157076D01*
X182008567Y-97157903D01*
X182010785Y-97158952D01*
X182012889Y-97160213D01*
X182014860Y-97161675D01*
X182016678Y-97163322D01*
X182018325Y-97165140D01*
X182019787Y-97167111D01*
X182021048Y-97169215D01*
X182022097Y-97171433D01*
X182022924Y-97173743D01*
X182023520Y-97176123D01*
X182023880Y-97178550D01*
X182024000Y-97181000D01*
X182024000Y-97381000D01*
X182023880Y-97383450D01*
X182023520Y-97385877D01*
X182022924Y-97388257D01*
X182022097Y-97390567D01*
X182021048Y-97392785D01*
X182019787Y-97394889D01*
X182018325Y-97396860D01*
X182016678Y-97398678D01*
X182014860Y-97400325D01*
X182012889Y-97401787D01*
X182010785Y-97403048D01*
X182008567Y-97404097D01*
X182006257Y-97404924D01*
X182003877Y-97405520D01*
X182001450Y-97405880D01*
X181999000Y-97406000D01*
X181709000Y-97406000D01*
X181706550Y-97405880D01*
X181704123Y-97405520D01*
X181701743Y-97404924D01*
X181699433Y-97404097D01*
X181697215Y-97403048D01*
X181695111Y-97401787D01*
X181693140Y-97400325D01*
X181691322Y-97398678D01*
X181689675Y-97396860D01*
X181688213Y-97394889D01*
X181686952Y-97392785D01*
X181685903Y-97390567D01*
X181685076Y-97388257D01*
X181684480Y-97385877D01*
X181684120Y-97383450D01*
X181684000Y-97381000D01*
X181684000Y-97181000D01*
X181684120Y-97178550D01*
X181684480Y-97176123D01*
X181685076Y-97173743D01*
X181685903Y-97171433D01*
X181686952Y-97169215D01*
X181688213Y-97167111D01*
X181689675Y-97165140D01*
X181691322Y-97163322D01*
X181693140Y-97161675D01*
X181695111Y-97160213D01*
X181697215Y-97158952D01*
X181699433Y-97157903D01*
X181701743Y-97157076D01*
X181704123Y-97156480D01*
X181706550Y-97156120D01*
X181709000Y-97156000D01*
X181999000Y-97156000D01*
X182001450Y-97156120D01*
X182001450Y-97156120D01*
G37*
D26*
X181854000Y-97281000D03*
D10*
G36*
X182001450Y-96656120D02*
G01*
X182003877Y-96656480D01*
X182006257Y-96657076D01*
X182008567Y-96657903D01*
X182010785Y-96658952D01*
X182012889Y-96660213D01*
X182014860Y-96661675D01*
X182016678Y-96663322D01*
X182018325Y-96665140D01*
X182019787Y-96667111D01*
X182021048Y-96669215D01*
X182022097Y-96671433D01*
X182022924Y-96673743D01*
X182023520Y-96676123D01*
X182023880Y-96678550D01*
X182024000Y-96681000D01*
X182024000Y-96881000D01*
X182023880Y-96883450D01*
X182023520Y-96885877D01*
X182022924Y-96888257D01*
X182022097Y-96890567D01*
X182021048Y-96892785D01*
X182019787Y-96894889D01*
X182018325Y-96896860D01*
X182016678Y-96898678D01*
X182014860Y-96900325D01*
X182012889Y-96901787D01*
X182010785Y-96903048D01*
X182008567Y-96904097D01*
X182006257Y-96904924D01*
X182003877Y-96905520D01*
X182001450Y-96905880D01*
X181999000Y-96906000D01*
X181709000Y-96906000D01*
X181706550Y-96905880D01*
X181704123Y-96905520D01*
X181701743Y-96904924D01*
X181699433Y-96904097D01*
X181697215Y-96903048D01*
X181695111Y-96901787D01*
X181693140Y-96900325D01*
X181691322Y-96898678D01*
X181689675Y-96896860D01*
X181688213Y-96894889D01*
X181686952Y-96892785D01*
X181685903Y-96890567D01*
X181685076Y-96888257D01*
X181684480Y-96885877D01*
X181684120Y-96883450D01*
X181684000Y-96881000D01*
X181684000Y-96681000D01*
X181684120Y-96678550D01*
X181684480Y-96676123D01*
X181685076Y-96673743D01*
X181685903Y-96671433D01*
X181686952Y-96669215D01*
X181688213Y-96667111D01*
X181689675Y-96665140D01*
X181691322Y-96663322D01*
X181693140Y-96661675D01*
X181695111Y-96660213D01*
X181697215Y-96658952D01*
X181699433Y-96657903D01*
X181701743Y-96657076D01*
X181704123Y-96656480D01*
X181706550Y-96656120D01*
X181709000Y-96656000D01*
X181999000Y-96656000D01*
X182001450Y-96656120D01*
X182001450Y-96656120D01*
G37*
D26*
X181854000Y-96781000D03*
D27*
X179324000Y-98431000D03*
X179824000Y-98431000D03*
X180324000Y-98431000D03*
X180824000Y-98431000D03*
X181324000Y-98431000D03*
X181324000Y-95631000D03*
X180824000Y-95631000D03*
X180324000Y-95631000D03*
X179824000Y-95631000D03*
X179324000Y-95631000D03*
D28*
X202311000Y-94191000D03*
D10*
G36*
X202961000Y-94041000D02*
G01*
X202661000Y-94341000D01*
X201961000Y-94341000D01*
X201661000Y-94041000D01*
X202961000Y-94041000D01*
X202961000Y-94041000D01*
G37*
D29*
X202161000Y-94191000D03*
D30*
X202311000Y-92941000D03*
D31*
X201261000Y-91891000D03*
X201261000Y-92491000D03*
X201261000Y-94291000D03*
X201261000Y-93691000D03*
X203361000Y-91891000D03*
X203361000Y-94291000D03*
X203361000Y-93691000D03*
X203361000Y-93091000D03*
X203361000Y-92491000D03*
X201261000Y-93091000D03*
D32*
X220505000Y-101092000D03*
X220505000Y-99822000D03*
X220505000Y-98552000D03*
X220505000Y-97282000D03*
X215105000Y-97282000D03*
X215105000Y-98552000D03*
X215105000Y-99822000D03*
X215105000Y-101092000D03*
D33*
X211567000Y-120332000D03*
X211567000Y-119532000D03*
X211567000Y-118732000D03*
X211567000Y-117932000D03*
X211567000Y-117132000D03*
X211567000Y-116332000D03*
X211567000Y-115532000D03*
X211567000Y-114732000D03*
X211567000Y-113932000D03*
X211567000Y-113132000D03*
X211567000Y-112332000D03*
D34*
X209867000Y-110632000D03*
X209067000Y-110632000D03*
X208267000Y-110632000D03*
X207467000Y-110632000D03*
X206667000Y-110632000D03*
X205867000Y-110632000D03*
X205067000Y-110632000D03*
X204267000Y-110632000D03*
X203467000Y-110632000D03*
X202667000Y-110632000D03*
X201867000Y-110632000D03*
D33*
X200167000Y-112332000D03*
X200167000Y-113132000D03*
X200167000Y-113932000D03*
X200167000Y-114732000D03*
X200167000Y-115532000D03*
X200167000Y-116332000D03*
X200167000Y-117132000D03*
X200167000Y-117932000D03*
X200167000Y-118732000D03*
X200167000Y-119532000D03*
X200167000Y-120332000D03*
D34*
X201867000Y-122032000D03*
X202667000Y-122032000D03*
X203467000Y-122032000D03*
X204267000Y-122032000D03*
X205067000Y-122032000D03*
X205867000Y-122032000D03*
X206667000Y-122032000D03*
X207467000Y-122032000D03*
X208267000Y-122032000D03*
X209067000Y-122032000D03*
X209867000Y-122032000D03*
D35*
X223393000Y-101219000D03*
X223393000Y-98719000D03*
D10*
G36*
X207752142Y-102361674D02*
G01*
X207775803Y-102365184D01*
X207799007Y-102370996D01*
X207821529Y-102379054D01*
X207843153Y-102389282D01*
X207863670Y-102401579D01*
X207882883Y-102415829D01*
X207900607Y-102431893D01*
X207916671Y-102449617D01*
X207930921Y-102468830D01*
X207943218Y-102489347D01*
X207953446Y-102510971D01*
X207961504Y-102533493D01*
X207967316Y-102556697D01*
X207970826Y-102580358D01*
X207972000Y-102604250D01*
X207972000Y-103516750D01*
X207970826Y-103540642D01*
X207967316Y-103564303D01*
X207961504Y-103587507D01*
X207953446Y-103610029D01*
X207943218Y-103631653D01*
X207930921Y-103652170D01*
X207916671Y-103671383D01*
X207900607Y-103689107D01*
X207882883Y-103705171D01*
X207863670Y-103719421D01*
X207843153Y-103731718D01*
X207821529Y-103741946D01*
X207799007Y-103750004D01*
X207775803Y-103755816D01*
X207752142Y-103759326D01*
X207728250Y-103760500D01*
X207240750Y-103760500D01*
X207216858Y-103759326D01*
X207193197Y-103755816D01*
X207169993Y-103750004D01*
X207147471Y-103741946D01*
X207125847Y-103731718D01*
X207105330Y-103719421D01*
X207086117Y-103705171D01*
X207068393Y-103689107D01*
X207052329Y-103671383D01*
X207038079Y-103652170D01*
X207025782Y-103631653D01*
X207015554Y-103610029D01*
X207007496Y-103587507D01*
X207001684Y-103564303D01*
X206998174Y-103540642D01*
X206997000Y-103516750D01*
X206997000Y-102604250D01*
X206998174Y-102580358D01*
X207001684Y-102556697D01*
X207007496Y-102533493D01*
X207015554Y-102510971D01*
X207025782Y-102489347D01*
X207038079Y-102468830D01*
X207052329Y-102449617D01*
X207068393Y-102431893D01*
X207086117Y-102415829D01*
X207105330Y-102401579D01*
X207125847Y-102389282D01*
X207147471Y-102379054D01*
X207169993Y-102370996D01*
X207193197Y-102365184D01*
X207216858Y-102361674D01*
X207240750Y-102360500D01*
X207728250Y-102360500D01*
X207752142Y-102361674D01*
X207752142Y-102361674D01*
G37*
D11*
X207484500Y-103060500D03*
D10*
G36*
X209627142Y-102361674D02*
G01*
X209650803Y-102365184D01*
X209674007Y-102370996D01*
X209696529Y-102379054D01*
X209718153Y-102389282D01*
X209738670Y-102401579D01*
X209757883Y-102415829D01*
X209775607Y-102431893D01*
X209791671Y-102449617D01*
X209805921Y-102468830D01*
X209818218Y-102489347D01*
X209828446Y-102510971D01*
X209836504Y-102533493D01*
X209842316Y-102556697D01*
X209845826Y-102580358D01*
X209847000Y-102604250D01*
X209847000Y-103516750D01*
X209845826Y-103540642D01*
X209842316Y-103564303D01*
X209836504Y-103587507D01*
X209828446Y-103610029D01*
X209818218Y-103631653D01*
X209805921Y-103652170D01*
X209791671Y-103671383D01*
X209775607Y-103689107D01*
X209757883Y-103705171D01*
X209738670Y-103719421D01*
X209718153Y-103731718D01*
X209696529Y-103741946D01*
X209674007Y-103750004D01*
X209650803Y-103755816D01*
X209627142Y-103759326D01*
X209603250Y-103760500D01*
X209115750Y-103760500D01*
X209091858Y-103759326D01*
X209068197Y-103755816D01*
X209044993Y-103750004D01*
X209022471Y-103741946D01*
X209000847Y-103731718D01*
X208980330Y-103719421D01*
X208961117Y-103705171D01*
X208943393Y-103689107D01*
X208927329Y-103671383D01*
X208913079Y-103652170D01*
X208900782Y-103631653D01*
X208890554Y-103610029D01*
X208882496Y-103587507D01*
X208876684Y-103564303D01*
X208873174Y-103540642D01*
X208872000Y-103516750D01*
X208872000Y-102604250D01*
X208873174Y-102580358D01*
X208876684Y-102556697D01*
X208882496Y-102533493D01*
X208890554Y-102510971D01*
X208900782Y-102489347D01*
X208913079Y-102468830D01*
X208927329Y-102449617D01*
X208943393Y-102431893D01*
X208961117Y-102415829D01*
X208980330Y-102401579D01*
X209000847Y-102389282D01*
X209022471Y-102379054D01*
X209044993Y-102370996D01*
X209068197Y-102365184D01*
X209091858Y-102361674D01*
X209115750Y-102360500D01*
X209603250Y-102360500D01*
X209627142Y-102361674D01*
X209627142Y-102361674D01*
G37*
D11*
X209359500Y-103060500D03*
D36*
X211043500Y-101028500D03*
X211043500Y-99758500D03*
X211043500Y-98488500D03*
X211043500Y-97218500D03*
X205643500Y-97218500D03*
X205643500Y-98488500D03*
X205643500Y-99758500D03*
X205643500Y-101028500D03*
D37*
X216662000Y-106771000D03*
X216662000Y-110871000D03*
D38*
X229774000Y-136961000D03*
X223774000Y-136961000D03*
X229774000Y-132461000D03*
X223774000Y-132461000D03*
D39*
X169890000Y-102664000D03*
X169890000Y-108664000D03*
X165390000Y-102664000D03*
X165390000Y-108664000D03*
M02*
