G04 #@! TF.GenerationSoftware,KiCad,Pcbnew,(5.1.9)-1*
G04 #@! TF.CreationDate,2021-11-21T12:26:00+01:00*
G04 #@! TF.ProjectId,SmartSensor,536d6172-7453-4656-9e73-6f722e6b6963,1.3*
G04 #@! TF.SameCoordinates,Original*
G04 #@! TF.FileFunction,Soldermask,Top*
G04 #@! TF.FilePolarity,Negative*
%FSLAX46Y46*%
G04 Gerber Fmt 4.6, Leading zero omitted, Abs format (unit mm)*
G04 Created by KiCad (PCBNEW (5.1.9)-1) date 2021-11-21 12:26:00*
%MOMM*%
%LPD*%
G01*
G04 APERTURE LIST*
%ADD10C,2.502000*%
%ADD11O,1.602000X1.202000*%
%ADD12O,1.802000X1.452000*%
%ADD13O,1.802000X1.802000*%
%ADD14C,0.100000*%
%ADD15C,1.202000*%
%ADD16C,4.502000*%
%ADD17C,0.802000*%
G04 APERTURE END LIST*
G36*
G01*
X205637000Y-97451000D02*
X205637000Y-98001000D01*
G75*
G02*
X205586000Y-98052000I-51000J0D01*
G01*
X204086000Y-98052000D01*
G75*
G02*
X204035000Y-98001000I0J51000D01*
G01*
X204035000Y-97451000D01*
G75*
G02*
X204086000Y-97400000I51000J0D01*
G01*
X205586000Y-97400000D01*
G75*
G02*
X205637000Y-97451000I0J-51000D01*
G01*
G37*
G36*
G01*
X205637000Y-96651000D02*
X205637000Y-97201000D01*
G75*
G02*
X205586000Y-97252000I-51000J0D01*
G01*
X204086000Y-97252000D01*
G75*
G02*
X204035000Y-97201000I0J51000D01*
G01*
X204035000Y-96651000D01*
G75*
G02*
X204086000Y-96600000I51000J0D01*
G01*
X205586000Y-96600000D01*
G75*
G02*
X205637000Y-96651000I0J-51000D01*
G01*
G37*
G36*
G01*
X205637000Y-95851000D02*
X205637000Y-96401000D01*
G75*
G02*
X205586000Y-96452000I-51000J0D01*
G01*
X204086000Y-96452000D01*
G75*
G02*
X204035000Y-96401000I0J51000D01*
G01*
X204035000Y-95851000D01*
G75*
G02*
X204086000Y-95800000I51000J0D01*
G01*
X205586000Y-95800000D01*
G75*
G02*
X205637000Y-95851000I0J-51000D01*
G01*
G37*
G36*
G01*
X205637000Y-95051000D02*
X205637000Y-95601000D01*
G75*
G02*
X205586000Y-95652000I-51000J0D01*
G01*
X204086000Y-95652000D01*
G75*
G02*
X204035000Y-95601000I0J51000D01*
G01*
X204035000Y-95051000D01*
G75*
G02*
X204086000Y-95000000I51000J0D01*
G01*
X205586000Y-95000000D01*
G75*
G02*
X205637000Y-95051000I0J-51000D01*
G01*
G37*
G36*
G01*
X205637000Y-94251000D02*
X205637000Y-94801000D01*
G75*
G02*
X205586000Y-94852000I-51000J0D01*
G01*
X204086000Y-94852000D01*
G75*
G02*
X204035000Y-94801000I0J51000D01*
G01*
X204035000Y-94251000D01*
G75*
G02*
X204086000Y-94200000I51000J0D01*
G01*
X205586000Y-94200000D01*
G75*
G02*
X205637000Y-94251000I0J-51000D01*
G01*
G37*
G36*
G01*
X205637000Y-93451000D02*
X205637000Y-94001000D01*
G75*
G02*
X205586000Y-94052000I-51000J0D01*
G01*
X204086000Y-94052000D01*
G75*
G02*
X204035000Y-94001000I0J51000D01*
G01*
X204035000Y-93451000D01*
G75*
G02*
X204086000Y-93400000I51000J0D01*
G01*
X205586000Y-93400000D01*
G75*
G02*
X205637000Y-93451000I0J-51000D01*
G01*
G37*
G36*
G01*
X205637000Y-92651000D02*
X205637000Y-93201000D01*
G75*
G02*
X205586000Y-93252000I-51000J0D01*
G01*
X204086000Y-93252000D01*
G75*
G02*
X204035000Y-93201000I0J51000D01*
G01*
X204035000Y-92651000D01*
G75*
G02*
X204086000Y-92600000I51000J0D01*
G01*
X205586000Y-92600000D01*
G75*
G02*
X205637000Y-92651000I0J-51000D01*
G01*
G37*
G36*
G01*
X205637000Y-91851000D02*
X205637000Y-92401000D01*
G75*
G02*
X205586000Y-92452000I-51000J0D01*
G01*
X204086000Y-92452000D01*
G75*
G02*
X204035000Y-92401000I0J51000D01*
G01*
X204035000Y-91851000D01*
G75*
G02*
X204086000Y-91800000I51000J0D01*
G01*
X205586000Y-91800000D01*
G75*
G02*
X205637000Y-91851000I0J-51000D01*
G01*
G37*
G36*
G01*
X205637000Y-91051000D02*
X205637000Y-91601000D01*
G75*
G02*
X205586000Y-91652000I-51000J0D01*
G01*
X204086000Y-91652000D01*
G75*
G02*
X204035000Y-91601000I0J51000D01*
G01*
X204035000Y-91051000D01*
G75*
G02*
X204086000Y-91000000I51000J0D01*
G01*
X205586000Y-91000000D01*
G75*
G02*
X205637000Y-91051000I0J-51000D01*
G01*
G37*
G36*
G01*
X205637000Y-90251000D02*
X205637000Y-90801000D01*
G75*
G02*
X205586000Y-90852000I-51000J0D01*
G01*
X204086000Y-90852000D01*
G75*
G02*
X204035000Y-90801000I0J51000D01*
G01*
X204035000Y-90251000D01*
G75*
G02*
X204086000Y-90200000I51000J0D01*
G01*
X205586000Y-90200000D01*
G75*
G02*
X205637000Y-90251000I0J-51000D01*
G01*
G37*
G36*
G01*
X205637000Y-89451000D02*
X205637000Y-90001000D01*
G75*
G02*
X205586000Y-90052000I-51000J0D01*
G01*
X204086000Y-90052000D01*
G75*
G02*
X204035000Y-90001000I0J51000D01*
G01*
X204035000Y-89451000D01*
G75*
G02*
X204086000Y-89400000I51000J0D01*
G01*
X205586000Y-89400000D01*
G75*
G02*
X205637000Y-89451000I0J-51000D01*
G01*
G37*
G36*
G01*
X202861000Y-87225000D02*
X203411000Y-87225000D01*
G75*
G02*
X203462000Y-87276000I0J-51000D01*
G01*
X203462000Y-88776000D01*
G75*
G02*
X203411000Y-88827000I-51000J0D01*
G01*
X202861000Y-88827000D01*
G75*
G02*
X202810000Y-88776000I0J51000D01*
G01*
X202810000Y-87276000D01*
G75*
G02*
X202861000Y-87225000I51000J0D01*
G01*
G37*
G36*
G01*
X202061000Y-87225000D02*
X202611000Y-87225000D01*
G75*
G02*
X202662000Y-87276000I0J-51000D01*
G01*
X202662000Y-88776000D01*
G75*
G02*
X202611000Y-88827000I-51000J0D01*
G01*
X202061000Y-88827000D01*
G75*
G02*
X202010000Y-88776000I0J51000D01*
G01*
X202010000Y-87276000D01*
G75*
G02*
X202061000Y-87225000I51000J0D01*
G01*
G37*
G36*
G01*
X201261000Y-87225000D02*
X201811000Y-87225000D01*
G75*
G02*
X201862000Y-87276000I0J-51000D01*
G01*
X201862000Y-88776000D01*
G75*
G02*
X201811000Y-88827000I-51000J0D01*
G01*
X201261000Y-88827000D01*
G75*
G02*
X201210000Y-88776000I0J51000D01*
G01*
X201210000Y-87276000D01*
G75*
G02*
X201261000Y-87225000I51000J0D01*
G01*
G37*
G36*
G01*
X200461000Y-87225000D02*
X201011000Y-87225000D01*
G75*
G02*
X201062000Y-87276000I0J-51000D01*
G01*
X201062000Y-88776000D01*
G75*
G02*
X201011000Y-88827000I-51000J0D01*
G01*
X200461000Y-88827000D01*
G75*
G02*
X200410000Y-88776000I0J51000D01*
G01*
X200410000Y-87276000D01*
G75*
G02*
X200461000Y-87225000I51000J0D01*
G01*
G37*
G36*
G01*
X199661000Y-87225000D02*
X200211000Y-87225000D01*
G75*
G02*
X200262000Y-87276000I0J-51000D01*
G01*
X200262000Y-88776000D01*
G75*
G02*
X200211000Y-88827000I-51000J0D01*
G01*
X199661000Y-88827000D01*
G75*
G02*
X199610000Y-88776000I0J51000D01*
G01*
X199610000Y-87276000D01*
G75*
G02*
X199661000Y-87225000I51000J0D01*
G01*
G37*
G36*
G01*
X198861000Y-87225000D02*
X199411000Y-87225000D01*
G75*
G02*
X199462000Y-87276000I0J-51000D01*
G01*
X199462000Y-88776000D01*
G75*
G02*
X199411000Y-88827000I-51000J0D01*
G01*
X198861000Y-88827000D01*
G75*
G02*
X198810000Y-88776000I0J51000D01*
G01*
X198810000Y-87276000D01*
G75*
G02*
X198861000Y-87225000I51000J0D01*
G01*
G37*
G36*
G01*
X198061000Y-87225000D02*
X198611000Y-87225000D01*
G75*
G02*
X198662000Y-87276000I0J-51000D01*
G01*
X198662000Y-88776000D01*
G75*
G02*
X198611000Y-88827000I-51000J0D01*
G01*
X198061000Y-88827000D01*
G75*
G02*
X198010000Y-88776000I0J51000D01*
G01*
X198010000Y-87276000D01*
G75*
G02*
X198061000Y-87225000I51000J0D01*
G01*
G37*
G36*
G01*
X197261000Y-87225000D02*
X197811000Y-87225000D01*
G75*
G02*
X197862000Y-87276000I0J-51000D01*
G01*
X197862000Y-88776000D01*
G75*
G02*
X197811000Y-88827000I-51000J0D01*
G01*
X197261000Y-88827000D01*
G75*
G02*
X197210000Y-88776000I0J51000D01*
G01*
X197210000Y-87276000D01*
G75*
G02*
X197261000Y-87225000I51000J0D01*
G01*
G37*
G36*
G01*
X196461000Y-87225000D02*
X197011000Y-87225000D01*
G75*
G02*
X197062000Y-87276000I0J-51000D01*
G01*
X197062000Y-88776000D01*
G75*
G02*
X197011000Y-88827000I-51000J0D01*
G01*
X196461000Y-88827000D01*
G75*
G02*
X196410000Y-88776000I0J51000D01*
G01*
X196410000Y-87276000D01*
G75*
G02*
X196461000Y-87225000I51000J0D01*
G01*
G37*
G36*
G01*
X195661000Y-87225000D02*
X196211000Y-87225000D01*
G75*
G02*
X196262000Y-87276000I0J-51000D01*
G01*
X196262000Y-88776000D01*
G75*
G02*
X196211000Y-88827000I-51000J0D01*
G01*
X195661000Y-88827000D01*
G75*
G02*
X195610000Y-88776000I0J51000D01*
G01*
X195610000Y-87276000D01*
G75*
G02*
X195661000Y-87225000I51000J0D01*
G01*
G37*
G36*
G01*
X194861000Y-87225000D02*
X195411000Y-87225000D01*
G75*
G02*
X195462000Y-87276000I0J-51000D01*
G01*
X195462000Y-88776000D01*
G75*
G02*
X195411000Y-88827000I-51000J0D01*
G01*
X194861000Y-88827000D01*
G75*
G02*
X194810000Y-88776000I0J51000D01*
G01*
X194810000Y-87276000D01*
G75*
G02*
X194861000Y-87225000I51000J0D01*
G01*
G37*
G36*
G01*
X194237000Y-89451000D02*
X194237000Y-90001000D01*
G75*
G02*
X194186000Y-90052000I-51000J0D01*
G01*
X192686000Y-90052000D01*
G75*
G02*
X192635000Y-90001000I0J51000D01*
G01*
X192635000Y-89451000D01*
G75*
G02*
X192686000Y-89400000I51000J0D01*
G01*
X194186000Y-89400000D01*
G75*
G02*
X194237000Y-89451000I0J-51000D01*
G01*
G37*
G36*
G01*
X194237000Y-90251000D02*
X194237000Y-90801000D01*
G75*
G02*
X194186000Y-90852000I-51000J0D01*
G01*
X192686000Y-90852000D01*
G75*
G02*
X192635000Y-90801000I0J51000D01*
G01*
X192635000Y-90251000D01*
G75*
G02*
X192686000Y-90200000I51000J0D01*
G01*
X194186000Y-90200000D01*
G75*
G02*
X194237000Y-90251000I0J-51000D01*
G01*
G37*
G36*
G01*
X194237000Y-91051000D02*
X194237000Y-91601000D01*
G75*
G02*
X194186000Y-91652000I-51000J0D01*
G01*
X192686000Y-91652000D01*
G75*
G02*
X192635000Y-91601000I0J51000D01*
G01*
X192635000Y-91051000D01*
G75*
G02*
X192686000Y-91000000I51000J0D01*
G01*
X194186000Y-91000000D01*
G75*
G02*
X194237000Y-91051000I0J-51000D01*
G01*
G37*
G36*
G01*
X194237000Y-91851000D02*
X194237000Y-92401000D01*
G75*
G02*
X194186000Y-92452000I-51000J0D01*
G01*
X192686000Y-92452000D01*
G75*
G02*
X192635000Y-92401000I0J51000D01*
G01*
X192635000Y-91851000D01*
G75*
G02*
X192686000Y-91800000I51000J0D01*
G01*
X194186000Y-91800000D01*
G75*
G02*
X194237000Y-91851000I0J-51000D01*
G01*
G37*
G36*
G01*
X194237000Y-92651000D02*
X194237000Y-93201000D01*
G75*
G02*
X194186000Y-93252000I-51000J0D01*
G01*
X192686000Y-93252000D01*
G75*
G02*
X192635000Y-93201000I0J51000D01*
G01*
X192635000Y-92651000D01*
G75*
G02*
X192686000Y-92600000I51000J0D01*
G01*
X194186000Y-92600000D01*
G75*
G02*
X194237000Y-92651000I0J-51000D01*
G01*
G37*
G36*
G01*
X194237000Y-93451000D02*
X194237000Y-94001000D01*
G75*
G02*
X194186000Y-94052000I-51000J0D01*
G01*
X192686000Y-94052000D01*
G75*
G02*
X192635000Y-94001000I0J51000D01*
G01*
X192635000Y-93451000D01*
G75*
G02*
X192686000Y-93400000I51000J0D01*
G01*
X194186000Y-93400000D01*
G75*
G02*
X194237000Y-93451000I0J-51000D01*
G01*
G37*
G36*
G01*
X194237000Y-94251000D02*
X194237000Y-94801000D01*
G75*
G02*
X194186000Y-94852000I-51000J0D01*
G01*
X192686000Y-94852000D01*
G75*
G02*
X192635000Y-94801000I0J51000D01*
G01*
X192635000Y-94251000D01*
G75*
G02*
X192686000Y-94200000I51000J0D01*
G01*
X194186000Y-94200000D01*
G75*
G02*
X194237000Y-94251000I0J-51000D01*
G01*
G37*
G36*
G01*
X194237000Y-95051000D02*
X194237000Y-95601000D01*
G75*
G02*
X194186000Y-95652000I-51000J0D01*
G01*
X192686000Y-95652000D01*
G75*
G02*
X192635000Y-95601000I0J51000D01*
G01*
X192635000Y-95051000D01*
G75*
G02*
X192686000Y-95000000I51000J0D01*
G01*
X194186000Y-95000000D01*
G75*
G02*
X194237000Y-95051000I0J-51000D01*
G01*
G37*
G36*
G01*
X194237000Y-95851000D02*
X194237000Y-96401000D01*
G75*
G02*
X194186000Y-96452000I-51000J0D01*
G01*
X192686000Y-96452000D01*
G75*
G02*
X192635000Y-96401000I0J51000D01*
G01*
X192635000Y-95851000D01*
G75*
G02*
X192686000Y-95800000I51000J0D01*
G01*
X194186000Y-95800000D01*
G75*
G02*
X194237000Y-95851000I0J-51000D01*
G01*
G37*
G36*
G01*
X194237000Y-96651000D02*
X194237000Y-97201000D01*
G75*
G02*
X194186000Y-97252000I-51000J0D01*
G01*
X192686000Y-97252000D01*
G75*
G02*
X192635000Y-97201000I0J51000D01*
G01*
X192635000Y-96651000D01*
G75*
G02*
X192686000Y-96600000I51000J0D01*
G01*
X194186000Y-96600000D01*
G75*
G02*
X194237000Y-96651000I0J-51000D01*
G01*
G37*
G36*
G01*
X194237000Y-97451000D02*
X194237000Y-98001000D01*
G75*
G02*
X194186000Y-98052000I-51000J0D01*
G01*
X192686000Y-98052000D01*
G75*
G02*
X192635000Y-98001000I0J51000D01*
G01*
X192635000Y-97451000D01*
G75*
G02*
X192686000Y-97400000I51000J0D01*
G01*
X194186000Y-97400000D01*
G75*
G02*
X194237000Y-97451000I0J-51000D01*
G01*
G37*
G36*
G01*
X194861000Y-98625000D02*
X195411000Y-98625000D01*
G75*
G02*
X195462000Y-98676000I0J-51000D01*
G01*
X195462000Y-100176000D01*
G75*
G02*
X195411000Y-100227000I-51000J0D01*
G01*
X194861000Y-100227000D01*
G75*
G02*
X194810000Y-100176000I0J51000D01*
G01*
X194810000Y-98676000D01*
G75*
G02*
X194861000Y-98625000I51000J0D01*
G01*
G37*
G36*
G01*
X195661000Y-98625000D02*
X196211000Y-98625000D01*
G75*
G02*
X196262000Y-98676000I0J-51000D01*
G01*
X196262000Y-100176000D01*
G75*
G02*
X196211000Y-100227000I-51000J0D01*
G01*
X195661000Y-100227000D01*
G75*
G02*
X195610000Y-100176000I0J51000D01*
G01*
X195610000Y-98676000D01*
G75*
G02*
X195661000Y-98625000I51000J0D01*
G01*
G37*
G36*
G01*
X196461000Y-98625000D02*
X197011000Y-98625000D01*
G75*
G02*
X197062000Y-98676000I0J-51000D01*
G01*
X197062000Y-100176000D01*
G75*
G02*
X197011000Y-100227000I-51000J0D01*
G01*
X196461000Y-100227000D01*
G75*
G02*
X196410000Y-100176000I0J51000D01*
G01*
X196410000Y-98676000D01*
G75*
G02*
X196461000Y-98625000I51000J0D01*
G01*
G37*
G36*
G01*
X197261000Y-98625000D02*
X197811000Y-98625000D01*
G75*
G02*
X197862000Y-98676000I0J-51000D01*
G01*
X197862000Y-100176000D01*
G75*
G02*
X197811000Y-100227000I-51000J0D01*
G01*
X197261000Y-100227000D01*
G75*
G02*
X197210000Y-100176000I0J51000D01*
G01*
X197210000Y-98676000D01*
G75*
G02*
X197261000Y-98625000I51000J0D01*
G01*
G37*
G36*
G01*
X198061000Y-98625000D02*
X198611000Y-98625000D01*
G75*
G02*
X198662000Y-98676000I0J-51000D01*
G01*
X198662000Y-100176000D01*
G75*
G02*
X198611000Y-100227000I-51000J0D01*
G01*
X198061000Y-100227000D01*
G75*
G02*
X198010000Y-100176000I0J51000D01*
G01*
X198010000Y-98676000D01*
G75*
G02*
X198061000Y-98625000I51000J0D01*
G01*
G37*
G36*
G01*
X198861000Y-98625000D02*
X199411000Y-98625000D01*
G75*
G02*
X199462000Y-98676000I0J-51000D01*
G01*
X199462000Y-100176000D01*
G75*
G02*
X199411000Y-100227000I-51000J0D01*
G01*
X198861000Y-100227000D01*
G75*
G02*
X198810000Y-100176000I0J51000D01*
G01*
X198810000Y-98676000D01*
G75*
G02*
X198861000Y-98625000I51000J0D01*
G01*
G37*
G36*
G01*
X199661000Y-98625000D02*
X200211000Y-98625000D01*
G75*
G02*
X200262000Y-98676000I0J-51000D01*
G01*
X200262000Y-100176000D01*
G75*
G02*
X200211000Y-100227000I-51000J0D01*
G01*
X199661000Y-100227000D01*
G75*
G02*
X199610000Y-100176000I0J51000D01*
G01*
X199610000Y-98676000D01*
G75*
G02*
X199661000Y-98625000I51000J0D01*
G01*
G37*
G36*
G01*
X200461000Y-98625000D02*
X201011000Y-98625000D01*
G75*
G02*
X201062000Y-98676000I0J-51000D01*
G01*
X201062000Y-100176000D01*
G75*
G02*
X201011000Y-100227000I-51000J0D01*
G01*
X200461000Y-100227000D01*
G75*
G02*
X200410000Y-100176000I0J51000D01*
G01*
X200410000Y-98676000D01*
G75*
G02*
X200461000Y-98625000I51000J0D01*
G01*
G37*
G36*
G01*
X201261000Y-98625000D02*
X201811000Y-98625000D01*
G75*
G02*
X201862000Y-98676000I0J-51000D01*
G01*
X201862000Y-100176000D01*
G75*
G02*
X201811000Y-100227000I-51000J0D01*
G01*
X201261000Y-100227000D01*
G75*
G02*
X201210000Y-100176000I0J51000D01*
G01*
X201210000Y-98676000D01*
G75*
G02*
X201261000Y-98625000I51000J0D01*
G01*
G37*
G36*
G01*
X202061000Y-98625000D02*
X202611000Y-98625000D01*
G75*
G02*
X202662000Y-98676000I0J-51000D01*
G01*
X202662000Y-100176000D01*
G75*
G02*
X202611000Y-100227000I-51000J0D01*
G01*
X202061000Y-100227000D01*
G75*
G02*
X202010000Y-100176000I0J51000D01*
G01*
X202010000Y-98676000D01*
G75*
G02*
X202061000Y-98625000I51000J0D01*
G01*
G37*
G36*
G01*
X202861000Y-98625000D02*
X203411000Y-98625000D01*
G75*
G02*
X203462000Y-98676000I0J-51000D01*
G01*
X203462000Y-100176000D01*
G75*
G02*
X203411000Y-100227000I-51000J0D01*
G01*
X202861000Y-100227000D01*
G75*
G02*
X202810000Y-100176000I0J51000D01*
G01*
X202810000Y-98676000D01*
G75*
G02*
X202861000Y-98625000I51000J0D01*
G01*
G37*
G36*
G01*
X173485000Y-92478000D02*
X173485000Y-91428000D01*
G75*
G02*
X173536000Y-91377000I51000J0D01*
G01*
X173936000Y-91377000D01*
G75*
G02*
X173987000Y-91428000I0J-51000D01*
G01*
X173987000Y-92478000D01*
G75*
G02*
X173936000Y-92529000I-51000J0D01*
G01*
X173536000Y-92529000D01*
G75*
G02*
X173485000Y-92478000I0J51000D01*
G01*
G37*
G36*
G01*
X172835000Y-92478000D02*
X172835000Y-91428000D01*
G75*
G02*
X172886000Y-91377000I51000J0D01*
G01*
X173286000Y-91377000D01*
G75*
G02*
X173337000Y-91428000I0J-51000D01*
G01*
X173337000Y-92478000D01*
G75*
G02*
X173286000Y-92529000I-51000J0D01*
G01*
X172886000Y-92529000D01*
G75*
G02*
X172835000Y-92478000I0J51000D01*
G01*
G37*
G36*
G01*
X172185000Y-92478000D02*
X172185000Y-91428000D01*
G75*
G02*
X172236000Y-91377000I51000J0D01*
G01*
X172636000Y-91377000D01*
G75*
G02*
X172687000Y-91428000I0J-51000D01*
G01*
X172687000Y-92478000D01*
G75*
G02*
X172636000Y-92529000I-51000J0D01*
G01*
X172236000Y-92529000D01*
G75*
G02*
X172185000Y-92478000I0J51000D01*
G01*
G37*
G36*
G01*
X172185000Y-94378000D02*
X172185000Y-93328000D01*
G75*
G02*
X172236000Y-93277000I51000J0D01*
G01*
X172636000Y-93277000D01*
G75*
G02*
X172687000Y-93328000I0J-51000D01*
G01*
X172687000Y-94378000D01*
G75*
G02*
X172636000Y-94429000I-51000J0D01*
G01*
X172236000Y-94429000D01*
G75*
G02*
X172185000Y-94378000I0J51000D01*
G01*
G37*
G36*
G01*
X172835000Y-94378000D02*
X172835000Y-93328000D01*
G75*
G02*
X172886000Y-93277000I51000J0D01*
G01*
X173286000Y-93277000D01*
G75*
G02*
X173337000Y-93328000I0J-51000D01*
G01*
X173337000Y-94378000D01*
G75*
G02*
X173286000Y-94429000I-51000J0D01*
G01*
X172886000Y-94429000D01*
G75*
G02*
X172835000Y-94378000I0J51000D01*
G01*
G37*
G36*
G01*
X173485000Y-94378000D02*
X173485000Y-93328000D01*
G75*
G02*
X173536000Y-93277000I51000J0D01*
G01*
X173936000Y-93277000D01*
G75*
G02*
X173987000Y-93328000I0J-51000D01*
G01*
X173987000Y-94378000D01*
G75*
G02*
X173936000Y-94429000I-51000J0D01*
G01*
X173536000Y-94429000D01*
G75*
G02*
X173485000Y-94378000I0J51000D01*
G01*
G37*
G36*
G01*
X226795750Y-127695500D02*
X225832250Y-127695500D01*
G75*
G02*
X225563000Y-127426250I0J269250D01*
G01*
X225563000Y-126887750D01*
G75*
G02*
X225832250Y-126618500I269250J0D01*
G01*
X226795750Y-126618500D01*
G75*
G02*
X227065000Y-126887750I0J-269250D01*
G01*
X227065000Y-127426250D01*
G75*
G02*
X226795750Y-127695500I-269250J0D01*
G01*
G37*
G36*
G01*
X226795750Y-129570500D02*
X225832250Y-129570500D01*
G75*
G02*
X225563000Y-129301250I0J269250D01*
G01*
X225563000Y-128762750D01*
G75*
G02*
X225832250Y-128493500I269250J0D01*
G01*
X226795750Y-128493500D01*
G75*
G02*
X227065000Y-128762750I0J-269250D01*
G01*
X227065000Y-129301250D01*
G75*
G02*
X226795750Y-129570500I-269250J0D01*
G01*
G37*
G36*
G01*
X191235750Y-100663000D02*
X190272250Y-100663000D01*
G75*
G02*
X190003000Y-100393750I0J269250D01*
G01*
X190003000Y-99855250D01*
G75*
G02*
X190272250Y-99586000I269250J0D01*
G01*
X191235750Y-99586000D01*
G75*
G02*
X191505000Y-99855250I0J-269250D01*
G01*
X191505000Y-100393750D01*
G75*
G02*
X191235750Y-100663000I-269250J0D01*
G01*
G37*
G36*
G01*
X191235750Y-98788000D02*
X190272250Y-98788000D01*
G75*
G02*
X190003000Y-98518750I0J269250D01*
G01*
X190003000Y-97980250D01*
G75*
G02*
X190272250Y-97711000I269250J0D01*
G01*
X191235750Y-97711000D01*
G75*
G02*
X191505000Y-97980250I0J-269250D01*
G01*
X191505000Y-98518750D01*
G75*
G02*
X191235750Y-98788000I-269250J0D01*
G01*
G37*
G36*
G01*
X187355500Y-88418250D02*
X187355500Y-89381750D01*
G75*
G02*
X187086250Y-89651000I-269250J0D01*
G01*
X186547750Y-89651000D01*
G75*
G02*
X186278500Y-89381750I0J269250D01*
G01*
X186278500Y-88418250D01*
G75*
G02*
X186547750Y-88149000I269250J0D01*
G01*
X187086250Y-88149000D01*
G75*
G02*
X187355500Y-88418250I0J-269250D01*
G01*
G37*
G36*
G01*
X185480500Y-88418250D02*
X185480500Y-89381750D01*
G75*
G02*
X185211250Y-89651000I-269250J0D01*
G01*
X184672750Y-89651000D01*
G75*
G02*
X184403500Y-89381750I0J269250D01*
G01*
X184403500Y-88418250D01*
G75*
G02*
X184672750Y-88149000I269250J0D01*
G01*
X185211250Y-88149000D01*
G75*
G02*
X185480500Y-88418250I0J-269250D01*
G01*
G37*
G36*
G01*
X178495500Y-88418250D02*
X178495500Y-89381750D01*
G75*
G02*
X178226250Y-89651000I-269250J0D01*
G01*
X177687750Y-89651000D01*
G75*
G02*
X177418500Y-89381750I0J269250D01*
G01*
X177418500Y-88418250D01*
G75*
G02*
X177687750Y-88149000I269250J0D01*
G01*
X178226250Y-88149000D01*
G75*
G02*
X178495500Y-88418250I0J-269250D01*
G01*
G37*
G36*
G01*
X180370500Y-88418250D02*
X180370500Y-89381750D01*
G75*
G02*
X180101250Y-89651000I-269250J0D01*
G01*
X179562750Y-89651000D01*
G75*
G02*
X179293500Y-89381750I0J269250D01*
G01*
X179293500Y-88418250D01*
G75*
G02*
X179562750Y-88149000I269250J0D01*
G01*
X180101250Y-88149000D01*
G75*
G02*
X180370500Y-88418250I0J-269250D01*
G01*
G37*
G36*
G01*
X180944500Y-89381750D02*
X180944500Y-88418250D01*
G75*
G02*
X181213750Y-88149000I269250J0D01*
G01*
X181752250Y-88149000D01*
G75*
G02*
X182021500Y-88418250I0J-269250D01*
G01*
X182021500Y-89381750D01*
G75*
G02*
X181752250Y-89651000I-269250J0D01*
G01*
X181213750Y-89651000D01*
G75*
G02*
X180944500Y-89381750I0J269250D01*
G01*
G37*
G36*
G01*
X182819500Y-89381750D02*
X182819500Y-88418250D01*
G75*
G02*
X183088750Y-88149000I269250J0D01*
G01*
X183627250Y-88149000D01*
G75*
G02*
X183896500Y-88418250I0J-269250D01*
G01*
X183896500Y-89381750D01*
G75*
G02*
X183627250Y-89651000I-269250J0D01*
G01*
X183088750Y-89651000D01*
G75*
G02*
X182819500Y-89381750I0J269250D01*
G01*
G37*
G36*
G01*
X207929500Y-109881250D02*
X207929500Y-110844750D01*
G75*
G02*
X207660250Y-111114000I-269250J0D01*
G01*
X207121750Y-111114000D01*
G75*
G02*
X206852500Y-110844750I0J269250D01*
G01*
X206852500Y-109881250D01*
G75*
G02*
X207121750Y-109612000I269250J0D01*
G01*
X207660250Y-109612000D01*
G75*
G02*
X207929500Y-109881250I0J-269250D01*
G01*
G37*
G36*
G01*
X209804500Y-109881250D02*
X209804500Y-110844750D01*
G75*
G02*
X209535250Y-111114000I-269250J0D01*
G01*
X208996750Y-111114000D01*
G75*
G02*
X208727500Y-110844750I0J269250D01*
G01*
X208727500Y-109881250D01*
G75*
G02*
X208996750Y-109612000I269250J0D01*
G01*
X209535250Y-109612000D01*
G75*
G02*
X209804500Y-109881250I0J-269250D01*
G01*
G37*
G36*
G01*
X209804500Y-111913250D02*
X209804500Y-112876750D01*
G75*
G02*
X209535250Y-113146000I-269250J0D01*
G01*
X208996750Y-113146000D01*
G75*
G02*
X208727500Y-112876750I0J269250D01*
G01*
X208727500Y-111913250D01*
G75*
G02*
X208996750Y-111644000I269250J0D01*
G01*
X209535250Y-111644000D01*
G75*
G02*
X209804500Y-111913250I0J-269250D01*
G01*
G37*
G36*
G01*
X207929500Y-111913250D02*
X207929500Y-112876750D01*
G75*
G02*
X207660250Y-113146000I-269250J0D01*
G01*
X207121750Y-113146000D01*
G75*
G02*
X206852500Y-112876750I0J269250D01*
G01*
X206852500Y-111913250D01*
G75*
G02*
X207121750Y-111644000I269250J0D01*
G01*
X207660250Y-111644000D01*
G75*
G02*
X207929500Y-111913250I0J-269250D01*
G01*
G37*
G36*
G01*
X211769500Y-133630250D02*
X211769500Y-134593750D01*
G75*
G02*
X211500250Y-134863000I-269250J0D01*
G01*
X210961750Y-134863000D01*
G75*
G02*
X210692500Y-134593750I0J269250D01*
G01*
X210692500Y-133630250D01*
G75*
G02*
X210961750Y-133361000I269250J0D01*
G01*
X211500250Y-133361000D01*
G75*
G02*
X211769500Y-133630250I0J-269250D01*
G01*
G37*
G36*
G01*
X213644500Y-133630250D02*
X213644500Y-134593750D01*
G75*
G02*
X213375250Y-134863000I-269250J0D01*
G01*
X212836750Y-134863000D01*
G75*
G02*
X212567500Y-134593750I0J269250D01*
G01*
X212567500Y-133630250D01*
G75*
G02*
X212836750Y-133361000I269250J0D01*
G01*
X213375250Y-133361000D01*
G75*
G02*
X213644500Y-133630250I0J-269250D01*
G01*
G37*
G36*
G01*
X200813250Y-133670500D02*
X201776750Y-133670500D01*
G75*
G02*
X202046000Y-133939750I0J-269250D01*
G01*
X202046000Y-134478250D01*
G75*
G02*
X201776750Y-134747500I-269250J0D01*
G01*
X200813250Y-134747500D01*
G75*
G02*
X200544000Y-134478250I0J269250D01*
G01*
X200544000Y-133939750D01*
G75*
G02*
X200813250Y-133670500I269250J0D01*
G01*
G37*
G36*
G01*
X200813250Y-131795500D02*
X201776750Y-131795500D01*
G75*
G02*
X202046000Y-132064750I0J-269250D01*
G01*
X202046000Y-132603250D01*
G75*
G02*
X201776750Y-132872500I-269250J0D01*
G01*
X200813250Y-132872500D01*
G75*
G02*
X200544000Y-132603250I0J269250D01*
G01*
X200544000Y-132064750D01*
G75*
G02*
X200813250Y-131795500I269250J0D01*
G01*
G37*
G36*
G01*
X212694500Y-89762750D02*
X212694500Y-88799250D01*
G75*
G02*
X212963750Y-88530000I269250J0D01*
G01*
X213502250Y-88530000D01*
G75*
G02*
X213771500Y-88799250I0J-269250D01*
G01*
X213771500Y-89762750D01*
G75*
G02*
X213502250Y-90032000I-269250J0D01*
G01*
X212963750Y-90032000D01*
G75*
G02*
X212694500Y-89762750I0J269250D01*
G01*
G37*
G36*
G01*
X210819500Y-89762750D02*
X210819500Y-88799250D01*
G75*
G02*
X211088750Y-88530000I269250J0D01*
G01*
X211627250Y-88530000D01*
G75*
G02*
X211896500Y-88799250I0J-269250D01*
G01*
X211896500Y-89762750D01*
G75*
G02*
X211627250Y-90032000I-269250J0D01*
G01*
X211088750Y-90032000D01*
G75*
G02*
X210819500Y-89762750I0J269250D01*
G01*
G37*
G36*
G01*
X223743500Y-125830750D02*
X223743500Y-124867250D01*
G75*
G02*
X224012750Y-124598000I269250J0D01*
G01*
X224551250Y-124598000D01*
G75*
G02*
X224820500Y-124867250I0J-269250D01*
G01*
X224820500Y-125830750D01*
G75*
G02*
X224551250Y-126100000I-269250J0D01*
G01*
X224012750Y-126100000D01*
G75*
G02*
X223743500Y-125830750I0J269250D01*
G01*
G37*
G36*
G01*
X225618500Y-125830750D02*
X225618500Y-124867250D01*
G75*
G02*
X225887750Y-124598000I269250J0D01*
G01*
X226426250Y-124598000D01*
G75*
G02*
X226695500Y-124867250I0J-269250D01*
G01*
X226695500Y-125830750D01*
G75*
G02*
X226426250Y-126100000I-269250J0D01*
G01*
X225887750Y-126100000D01*
G75*
G02*
X225618500Y-125830750I0J269250D01*
G01*
G37*
G36*
G01*
X210819500Y-91794750D02*
X210819500Y-90831250D01*
G75*
G02*
X211088750Y-90562000I269250J0D01*
G01*
X211627250Y-90562000D01*
G75*
G02*
X211896500Y-90831250I0J-269250D01*
G01*
X211896500Y-91794750D01*
G75*
G02*
X211627250Y-92064000I-269250J0D01*
G01*
X211088750Y-92064000D01*
G75*
G02*
X210819500Y-91794750I0J269250D01*
G01*
G37*
G36*
G01*
X212694500Y-91794750D02*
X212694500Y-90831250D01*
G75*
G02*
X212963750Y-90562000I269250J0D01*
G01*
X213502250Y-90562000D01*
G75*
G02*
X213771500Y-90831250I0J-269250D01*
G01*
X213771500Y-91794750D01*
G75*
G02*
X213502250Y-92064000I-269250J0D01*
G01*
X212963750Y-92064000D01*
G75*
G02*
X212694500Y-91794750I0J269250D01*
G01*
G37*
G36*
G01*
X207036250Y-94076500D02*
X207999750Y-94076500D01*
G75*
G02*
X208269000Y-94345750I0J-269250D01*
G01*
X208269000Y-94884250D01*
G75*
G02*
X207999750Y-95153500I-269250J0D01*
G01*
X207036250Y-95153500D01*
G75*
G02*
X206767000Y-94884250I0J269250D01*
G01*
X206767000Y-94345750D01*
G75*
G02*
X207036250Y-94076500I269250J0D01*
G01*
G37*
G36*
G01*
X207036250Y-95951500D02*
X207999750Y-95951500D01*
G75*
G02*
X208269000Y-96220750I0J-269250D01*
G01*
X208269000Y-96759250D01*
G75*
G02*
X207999750Y-97028500I-269250J0D01*
G01*
X207036250Y-97028500D01*
G75*
G02*
X206767000Y-96759250I0J269250D01*
G01*
X206767000Y-96220750D01*
G75*
G02*
X207036250Y-95951500I269250J0D01*
G01*
G37*
G36*
G01*
X190272250Y-96108500D02*
X191235750Y-96108500D01*
G75*
G02*
X191505000Y-96377750I0J-269250D01*
G01*
X191505000Y-96916250D01*
G75*
G02*
X191235750Y-97185500I-269250J0D01*
G01*
X190272250Y-97185500D01*
G75*
G02*
X190003000Y-96916250I0J269250D01*
G01*
X190003000Y-96377750D01*
G75*
G02*
X190272250Y-96108500I269250J0D01*
G01*
G37*
G36*
G01*
X190272250Y-94233500D02*
X191235750Y-94233500D01*
G75*
G02*
X191505000Y-94502750I0J-269250D01*
G01*
X191505000Y-95041250D01*
G75*
G02*
X191235750Y-95310500I-269250J0D01*
G01*
X190272250Y-95310500D01*
G75*
G02*
X190003000Y-95041250I0J269250D01*
G01*
X190003000Y-94502750D01*
G75*
G02*
X190272250Y-94233500I269250J0D01*
G01*
G37*
G36*
G01*
X219933500Y-103478750D02*
X219933500Y-102515250D01*
G75*
G02*
X220202750Y-102246000I269250J0D01*
G01*
X220741250Y-102246000D01*
G75*
G02*
X221010500Y-102515250I0J-269250D01*
G01*
X221010500Y-103478750D01*
G75*
G02*
X220741250Y-103748000I-269250J0D01*
G01*
X220202750Y-103748000D01*
G75*
G02*
X219933500Y-103478750I0J269250D01*
G01*
G37*
G36*
G01*
X218058500Y-103478750D02*
X218058500Y-102515250D01*
G75*
G02*
X218327750Y-102246000I269250J0D01*
G01*
X218866250Y-102246000D01*
G75*
G02*
X219135500Y-102515250I0J-269250D01*
G01*
X219135500Y-103478750D01*
G75*
G02*
X218866250Y-103748000I-269250J0D01*
G01*
X218327750Y-103748000D01*
G75*
G02*
X218058500Y-103478750I0J269250D01*
G01*
G37*
G36*
G01*
X179357000Y-130275750D02*
X179357000Y-129312250D01*
G75*
G02*
X179626250Y-129043000I269250J0D01*
G01*
X180164750Y-129043000D01*
G75*
G02*
X180434000Y-129312250I0J-269250D01*
G01*
X180434000Y-130275750D01*
G75*
G02*
X180164750Y-130545000I-269250J0D01*
G01*
X179626250Y-130545000D01*
G75*
G02*
X179357000Y-130275750I0J269250D01*
G01*
G37*
G36*
G01*
X177482000Y-130275750D02*
X177482000Y-129312250D01*
G75*
G02*
X177751250Y-129043000I269250J0D01*
G01*
X178289750Y-129043000D01*
G75*
G02*
X178559000Y-129312250I0J-269250D01*
G01*
X178559000Y-130275750D01*
G75*
G02*
X178289750Y-130545000I-269250J0D01*
G01*
X177751250Y-130545000D01*
G75*
G02*
X177482000Y-130275750I0J269250D01*
G01*
G37*
G36*
G01*
X177482000Y-128243750D02*
X177482000Y-127280250D01*
G75*
G02*
X177751250Y-127011000I269250J0D01*
G01*
X178289750Y-127011000D01*
G75*
G02*
X178559000Y-127280250I0J-269250D01*
G01*
X178559000Y-128243750D01*
G75*
G02*
X178289750Y-128513000I-269250J0D01*
G01*
X177751250Y-128513000D01*
G75*
G02*
X177482000Y-128243750I0J269250D01*
G01*
G37*
G36*
G01*
X179357000Y-128243750D02*
X179357000Y-127280250D01*
G75*
G02*
X179626250Y-127011000I269250J0D01*
G01*
X180164750Y-127011000D01*
G75*
G02*
X180434000Y-127280250I0J-269250D01*
G01*
X180434000Y-128243750D01*
G75*
G02*
X180164750Y-128513000I-269250J0D01*
G01*
X179626250Y-128513000D01*
G75*
G02*
X179357000Y-128243750I0J269250D01*
G01*
G37*
G36*
G01*
X177482000Y-126211750D02*
X177482000Y-125248250D01*
G75*
G02*
X177751250Y-124979000I269250J0D01*
G01*
X178289750Y-124979000D01*
G75*
G02*
X178559000Y-125248250I0J-269250D01*
G01*
X178559000Y-126211750D01*
G75*
G02*
X178289750Y-126481000I-269250J0D01*
G01*
X177751250Y-126481000D01*
G75*
G02*
X177482000Y-126211750I0J269250D01*
G01*
G37*
G36*
G01*
X179357000Y-126211750D02*
X179357000Y-125248250D01*
G75*
G02*
X179626250Y-124979000I269250J0D01*
G01*
X180164750Y-124979000D01*
G75*
G02*
X180434000Y-125248250I0J-269250D01*
G01*
X180434000Y-126211750D01*
G75*
G02*
X180164750Y-126481000I-269250J0D01*
G01*
X179626250Y-126481000D01*
G75*
G02*
X179357000Y-126211750I0J269250D01*
G01*
G37*
G36*
G01*
X217951000Y-89592000D02*
X217951000Y-87192000D01*
G75*
G02*
X218002000Y-87141000I51000J0D01*
G01*
X220402000Y-87141000D01*
G75*
G02*
X220453000Y-87192000I0J-51000D01*
G01*
X220453000Y-89592000D01*
G75*
G02*
X220402000Y-89643000I-51000J0D01*
G01*
X218002000Y-89643000D01*
G75*
G02*
X217951000Y-89592000I0J51000D01*
G01*
G37*
D10*
X224202000Y-88392000D03*
G36*
G01*
X178495500Y-86259250D02*
X178495500Y-87222750D01*
G75*
G02*
X178226250Y-87492000I-269250J0D01*
G01*
X177687750Y-87492000D01*
G75*
G02*
X177418500Y-87222750I0J269250D01*
G01*
X177418500Y-86259250D01*
G75*
G02*
X177687750Y-85990000I269250J0D01*
G01*
X178226250Y-85990000D01*
G75*
G02*
X178495500Y-86259250I0J-269250D01*
G01*
G37*
G36*
G01*
X180370500Y-86259250D02*
X180370500Y-87222750D01*
G75*
G02*
X180101250Y-87492000I-269250J0D01*
G01*
X179562750Y-87492000D01*
G75*
G02*
X179293500Y-87222750I0J269250D01*
G01*
X179293500Y-86259250D01*
G75*
G02*
X179562750Y-85990000I269250J0D01*
G01*
X180101250Y-85990000D01*
G75*
G02*
X180370500Y-86259250I0J-269250D01*
G01*
G37*
G36*
G01*
X224763750Y-129570500D02*
X223800250Y-129570500D01*
G75*
G02*
X223531000Y-129301250I0J269250D01*
G01*
X223531000Y-128762750D01*
G75*
G02*
X223800250Y-128493500I269250J0D01*
G01*
X224763750Y-128493500D01*
G75*
G02*
X225033000Y-128762750I0J-269250D01*
G01*
X225033000Y-129301250D01*
G75*
G02*
X224763750Y-129570500I-269250J0D01*
G01*
G37*
G36*
G01*
X224763750Y-127695500D02*
X223800250Y-127695500D01*
G75*
G02*
X223531000Y-127426250I0J269250D01*
G01*
X223531000Y-126887750D01*
G75*
G02*
X223800250Y-126618500I269250J0D01*
G01*
X224763750Y-126618500D01*
G75*
G02*
X225033000Y-126887750I0J-269250D01*
G01*
X225033000Y-127426250D01*
G75*
G02*
X224763750Y-127695500I-269250J0D01*
G01*
G37*
G36*
G01*
X203935750Y-84388500D02*
X202972250Y-84388500D01*
G75*
G02*
X202703000Y-84119250I0J269250D01*
G01*
X202703000Y-83580750D01*
G75*
G02*
X202972250Y-83311500I269250J0D01*
G01*
X203935750Y-83311500D01*
G75*
G02*
X204205000Y-83580750I0J-269250D01*
G01*
X204205000Y-84119250D01*
G75*
G02*
X203935750Y-84388500I-269250J0D01*
G01*
G37*
G36*
G01*
X203935750Y-86263500D02*
X202972250Y-86263500D01*
G75*
G02*
X202703000Y-85994250I0J269250D01*
G01*
X202703000Y-85455750D01*
G75*
G02*
X202972250Y-85186500I269250J0D01*
G01*
X203935750Y-85186500D01*
G75*
G02*
X204205000Y-85455750I0J-269250D01*
G01*
X204205000Y-85994250D01*
G75*
G02*
X203935750Y-86263500I-269250J0D01*
G01*
G37*
G36*
G01*
X172111250Y-103504500D02*
X173074750Y-103504500D01*
G75*
G02*
X173344000Y-103773750I0J-269250D01*
G01*
X173344000Y-104312250D01*
G75*
G02*
X173074750Y-104581500I-269250J0D01*
G01*
X172111250Y-104581500D01*
G75*
G02*
X171842000Y-104312250I0J269250D01*
G01*
X171842000Y-103773750D01*
G75*
G02*
X172111250Y-103504500I269250J0D01*
G01*
G37*
G36*
G01*
X172111250Y-105379500D02*
X173074750Y-105379500D01*
G75*
G02*
X173344000Y-105648750I0J-269250D01*
G01*
X173344000Y-106187250D01*
G75*
G02*
X173074750Y-106456500I-269250J0D01*
G01*
X172111250Y-106456500D01*
G75*
G02*
X171842000Y-106187250I0J269250D01*
G01*
X171842000Y-105648750D01*
G75*
G02*
X172111250Y-105379500I269250J0D01*
G01*
G37*
G36*
G01*
X225324250Y-97759500D02*
X226287750Y-97759500D01*
G75*
G02*
X226557000Y-98028750I0J-269250D01*
G01*
X226557000Y-98567250D01*
G75*
G02*
X226287750Y-98836500I-269250J0D01*
G01*
X225324250Y-98836500D01*
G75*
G02*
X225055000Y-98567250I0J269250D01*
G01*
X225055000Y-98028750D01*
G75*
G02*
X225324250Y-97759500I269250J0D01*
G01*
G37*
G36*
G01*
X225324250Y-99634500D02*
X226287750Y-99634500D01*
G75*
G02*
X226557000Y-99903750I0J-269250D01*
G01*
X226557000Y-100442250D01*
G75*
G02*
X226287750Y-100711500I-269250J0D01*
G01*
X225324250Y-100711500D01*
G75*
G02*
X225055000Y-100442250I0J269250D01*
G01*
X225055000Y-99903750D01*
G75*
G02*
X225324250Y-99634500I269250J0D01*
G01*
G37*
G36*
G01*
X186625500Y-83992663D02*
X186625500Y-86949337D01*
G75*
G02*
X186352837Y-87222000I-272663J0D01*
G01*
X185671163Y-87222000D01*
G75*
G02*
X185398500Y-86949337I0J272663D01*
G01*
X185398500Y-83992663D01*
G75*
G02*
X185671163Y-83720000I272663J0D01*
G01*
X186352837Y-83720000D01*
G75*
G02*
X186625500Y-83992663I0J-272663D01*
G01*
G37*
G36*
G01*
X182350500Y-83992663D02*
X182350500Y-86949337D01*
G75*
G02*
X182077837Y-87222000I-272663J0D01*
G01*
X181396163Y-87222000D01*
G75*
G02*
X181123500Y-86949337I0J272663D01*
G01*
X181123500Y-83992663D01*
G75*
G02*
X181396163Y-83720000I272663J0D01*
G01*
X182077837Y-83720000D01*
G75*
G02*
X182350500Y-83992663I0J-272663D01*
G01*
G37*
G36*
G01*
X212491000Y-130898999D02*
X212491000Y-132499001D01*
G75*
G02*
X212440001Y-132550000I-50999J0D01*
G01*
X211739999Y-132550000D01*
G75*
G02*
X211689000Y-132499001I0J50999D01*
G01*
X211689000Y-130898999D01*
G75*
G02*
X211739999Y-130848000I50999J0D01*
G01*
X212440001Y-130848000D01*
G75*
G02*
X212491000Y-130898999I0J-50999D01*
G01*
G37*
G36*
G01*
X211491000Y-131974000D02*
X211491000Y-132374000D01*
G75*
G02*
X211440000Y-132425000I-51000J0D01*
G01*
X210840000Y-132425000D01*
G75*
G02*
X210789000Y-132374000I0J51000D01*
G01*
X210789000Y-131974000D01*
G75*
G02*
X210840000Y-131923000I51000J0D01*
G01*
X211440000Y-131923000D01*
G75*
G02*
X211491000Y-131974000I0J-51000D01*
G01*
G37*
G36*
G01*
X213391000Y-131024000D02*
X213391000Y-131424000D01*
G75*
G02*
X213340000Y-131475000I-51000J0D01*
G01*
X212740000Y-131475000D01*
G75*
G02*
X212689000Y-131424000I0J51000D01*
G01*
X212689000Y-131024000D01*
G75*
G02*
X212740000Y-130973000I51000J0D01*
G01*
X213340000Y-130973000D01*
G75*
G02*
X213391000Y-131024000I0J-51000D01*
G01*
G37*
G36*
G01*
X213391000Y-131974000D02*
X213391000Y-132374000D01*
G75*
G02*
X213340000Y-132425000I-51000J0D01*
G01*
X212740000Y-132425000D01*
G75*
G02*
X212689000Y-132374000I0J51000D01*
G01*
X212689000Y-131974000D01*
G75*
G02*
X212740000Y-131923000I51000J0D01*
G01*
X213340000Y-131923000D01*
G75*
G02*
X213391000Y-131974000I0J-51000D01*
G01*
G37*
G36*
G01*
X211491000Y-131024000D02*
X211491000Y-131424000D01*
G75*
G02*
X211440000Y-131475000I-51000J0D01*
G01*
X210840000Y-131475000D01*
G75*
G02*
X210789000Y-131424000I0J51000D01*
G01*
X210789000Y-131024000D01*
G75*
G02*
X210840000Y-130973000I51000J0D01*
G01*
X211440000Y-130973000D01*
G75*
G02*
X211491000Y-131024000I0J-51000D01*
G01*
G37*
G36*
G01*
X165840000Y-96914000D02*
X167840000Y-96914000D01*
G75*
G02*
X167891000Y-96965000I0J-51000D01*
G01*
X167891000Y-98315000D01*
G75*
G02*
X167840000Y-98366000I-51000J0D01*
G01*
X165840000Y-98366000D01*
G75*
G02*
X165789000Y-98315000I0J51000D01*
G01*
X165789000Y-96965000D01*
G75*
G02*
X165840000Y-96914000I51000J0D01*
G01*
G37*
G36*
G01*
X165840000Y-91434000D02*
X167840000Y-91434000D01*
G75*
G02*
X167891000Y-91485000I0J-51000D01*
G01*
X167891000Y-92835000D01*
G75*
G02*
X167840000Y-92886000I-51000J0D01*
G01*
X165840000Y-92886000D01*
G75*
G02*
X165789000Y-92835000I0J51000D01*
G01*
X165789000Y-91485000D01*
G75*
G02*
X165840000Y-91434000I51000J0D01*
G01*
G37*
G36*
G01*
X167239999Y-90976500D02*
X167940001Y-90976500D01*
G75*
G02*
X167991000Y-91027499I0J-50999D01*
G01*
X167991000Y-92852501D01*
G75*
G02*
X167940001Y-92903500I-50999J0D01*
G01*
X167239999Y-92903500D01*
G75*
G02*
X167189000Y-92852501I0J50999D01*
G01*
X167189000Y-91027499D01*
G75*
G02*
X167239999Y-90976500I50999J0D01*
G01*
G37*
G36*
G01*
X167239999Y-96926500D02*
X167940001Y-96926500D01*
G75*
G02*
X167991000Y-96977499I0J-50999D01*
G01*
X167991000Y-98802501D01*
G75*
G02*
X167940001Y-98853500I-50999J0D01*
G01*
X167239999Y-98853500D01*
G75*
G02*
X167189000Y-98802501I0J50999D01*
G01*
X167189000Y-96977499D01*
G75*
G02*
X167239999Y-96926500I50999J0D01*
G01*
G37*
G36*
G01*
X168140000Y-90989000D02*
X169640000Y-90989000D01*
G75*
G02*
X169691000Y-91040000I0J-51000D01*
G01*
X169691000Y-93040000D01*
G75*
G02*
X169640000Y-93091000I-51000J0D01*
G01*
X168140000Y-93091000D01*
G75*
G02*
X168089000Y-93040000I0J51000D01*
G01*
X168089000Y-91040000D01*
G75*
G02*
X168140000Y-90989000I51000J0D01*
G01*
G37*
G36*
G01*
X168160000Y-96739000D02*
X169660000Y-96739000D01*
G75*
G02*
X169711000Y-96790000I0J-51000D01*
G01*
X169711000Y-98790000D01*
G75*
G02*
X169660000Y-98841000I-51000J0D01*
G01*
X168160000Y-98841000D01*
G75*
G02*
X168109000Y-98790000I0J51000D01*
G01*
X168109000Y-96790000D01*
G75*
G02*
X168160000Y-96739000I51000J0D01*
G01*
G37*
G36*
G01*
X167914000Y-93790000D02*
X167914000Y-93390000D01*
G75*
G02*
X167965000Y-93339000I51000J0D01*
G01*
X169615000Y-93339000D01*
G75*
G02*
X169666000Y-93390000I0J-51000D01*
G01*
X169666000Y-93790000D01*
G75*
G02*
X169615000Y-93841000I-51000J0D01*
G01*
X167965000Y-93841000D01*
G75*
G02*
X167914000Y-93790000I0J51000D01*
G01*
G37*
G36*
G01*
X167914000Y-94440000D02*
X167914000Y-94040000D01*
G75*
G02*
X167965000Y-93989000I51000J0D01*
G01*
X169615000Y-93989000D01*
G75*
G02*
X169666000Y-94040000I0J-51000D01*
G01*
X169666000Y-94440000D01*
G75*
G02*
X169615000Y-94491000I-51000J0D01*
G01*
X167965000Y-94491000D01*
G75*
G02*
X167914000Y-94440000I0J51000D01*
G01*
G37*
G36*
G01*
X167914000Y-95090000D02*
X167914000Y-94690000D01*
G75*
G02*
X167965000Y-94639000I51000J0D01*
G01*
X169615000Y-94639000D01*
G75*
G02*
X169666000Y-94690000I0J-51000D01*
G01*
X169666000Y-95090000D01*
G75*
G02*
X169615000Y-95141000I-51000J0D01*
G01*
X167965000Y-95141000D01*
G75*
G02*
X167914000Y-95090000I0J51000D01*
G01*
G37*
G36*
G01*
X167914000Y-95740000D02*
X167914000Y-95340000D01*
G75*
G02*
X167965000Y-95289000I51000J0D01*
G01*
X169615000Y-95289000D01*
G75*
G02*
X169666000Y-95340000I0J-51000D01*
G01*
X169666000Y-95740000D01*
G75*
G02*
X169615000Y-95791000I-51000J0D01*
G01*
X167965000Y-95791000D01*
G75*
G02*
X167914000Y-95740000I0J51000D01*
G01*
G37*
G36*
G01*
X167914000Y-96390000D02*
X167914000Y-95990000D01*
G75*
G02*
X167965000Y-95939000I51000J0D01*
G01*
X169615000Y-95939000D01*
G75*
G02*
X169666000Y-95990000I0J-51000D01*
G01*
X169666000Y-96390000D01*
G75*
G02*
X169615000Y-96441000I-51000J0D01*
G01*
X167965000Y-96441000D01*
G75*
G02*
X167914000Y-96390000I0J51000D01*
G01*
G37*
D11*
X168910000Y-92470000D03*
X168910000Y-97310000D03*
D12*
X165910000Y-92160000D03*
X165910000Y-97620000D03*
G36*
G01*
X164339000Y-94645000D02*
X164339000Y-93215000D01*
G75*
G02*
X164390000Y-93164000I51000J0D01*
G01*
X166890000Y-93164000D01*
G75*
G02*
X166941000Y-93215000I0J-51000D01*
G01*
X166941000Y-94645000D01*
G75*
G02*
X166890000Y-94696000I-51000J0D01*
G01*
X164390000Y-94696000D01*
G75*
G02*
X164339000Y-94645000I0J51000D01*
G01*
G37*
G36*
G01*
X164339000Y-96565000D02*
X164339000Y-95135000D01*
G75*
G02*
X164390000Y-95084000I51000J0D01*
G01*
X166890000Y-95084000D01*
G75*
G02*
X166941000Y-95135000I0J-51000D01*
G01*
X166941000Y-96565000D01*
G75*
G02*
X166890000Y-96616000I-51000J0D01*
G01*
X164390000Y-96616000D01*
G75*
G02*
X164339000Y-96565000I0J51000D01*
G01*
G37*
G36*
G01*
X174232000Y-84670000D02*
X174232000Y-82970000D01*
G75*
G02*
X174283000Y-82919000I51000J0D01*
G01*
X175983000Y-82919000D01*
G75*
G02*
X176034000Y-82970000I0J-51000D01*
G01*
X176034000Y-84670000D01*
G75*
G02*
X175983000Y-84721000I-51000J0D01*
G01*
X174283000Y-84721000D01*
G75*
G02*
X174232000Y-84670000I0J51000D01*
G01*
G37*
D13*
X175133000Y-81280000D03*
X171450000Y-81280000D03*
G36*
G01*
X170549000Y-84670000D02*
X170549000Y-82970000D01*
G75*
G02*
X170600000Y-82919000I51000J0D01*
G01*
X172300000Y-82919000D01*
G75*
G02*
X172351000Y-82970000I0J-51000D01*
G01*
X172351000Y-84670000D01*
G75*
G02*
X172300000Y-84721000I-51000J0D01*
G01*
X170600000Y-84721000D01*
G75*
G02*
X170549000Y-84670000I0J51000D01*
G01*
G37*
X225044000Y-117094000D03*
X225044000Y-114554000D03*
X225044000Y-112014000D03*
X225044000Y-109474000D03*
X225044000Y-106934000D03*
G36*
G01*
X224143000Y-105244000D02*
X224143000Y-103544000D01*
G75*
G02*
X224194000Y-103493000I51000J0D01*
G01*
X225894000Y-103493000D01*
G75*
G02*
X225945000Y-103544000I0J-51000D01*
G01*
X225945000Y-105244000D01*
G75*
G02*
X225894000Y-105295000I-51000J0D01*
G01*
X224194000Y-105295000D01*
G75*
G02*
X224143000Y-105244000I0J51000D01*
G01*
G37*
G36*
G01*
X191809000Y-104763000D02*
X193509000Y-104763000D01*
G75*
G02*
X193560000Y-104814000I0J-51000D01*
G01*
X193560000Y-106514000D01*
G75*
G02*
X193509000Y-106565000I-51000J0D01*
G01*
X191809000Y-106565000D01*
G75*
G02*
X191758000Y-106514000I0J51000D01*
G01*
X191758000Y-104814000D01*
G75*
G02*
X191809000Y-104763000I51000J0D01*
G01*
G37*
X192659000Y-108204000D03*
X190119000Y-105664000D03*
X190119000Y-108204000D03*
X187579000Y-105664000D03*
X187579000Y-108204000D03*
X185039000Y-105664000D03*
X185039000Y-108204000D03*
X182499000Y-105664000D03*
X182499000Y-108204000D03*
X219202000Y-124587000D03*
X216662000Y-124587000D03*
X219202000Y-122047000D03*
X216662000Y-122047000D03*
X219202000Y-119507000D03*
X216662000Y-119507000D03*
X219202000Y-116967000D03*
X216662000Y-116967000D03*
X219202000Y-114427000D03*
G36*
G01*
X215761000Y-115277000D02*
X215761000Y-113577000D01*
G75*
G02*
X215812000Y-113526000I51000J0D01*
G01*
X217512000Y-113526000D01*
G75*
G02*
X217563000Y-113577000I0J-51000D01*
G01*
X217563000Y-115277000D01*
G75*
G02*
X217512000Y-115328000I-51000J0D01*
G01*
X215812000Y-115328000D01*
G75*
G02*
X215761000Y-115277000I0J51000D01*
G01*
G37*
G36*
G01*
X176872000Y-142379000D02*
X175172000Y-142379000D01*
G75*
G02*
X175121000Y-142328000I0J51000D01*
G01*
X175121000Y-140628000D01*
G75*
G02*
X175172000Y-140577000I51000J0D01*
G01*
X176872000Y-140577000D01*
G75*
G02*
X176923000Y-140628000I0J-51000D01*
G01*
X176923000Y-142328000D01*
G75*
G02*
X176872000Y-142379000I-51000J0D01*
G01*
G37*
X178562000Y-141478000D03*
G36*
G01*
X174332000Y-139712000D02*
X172632000Y-139712000D01*
G75*
G02*
X172581000Y-139661000I0J51000D01*
G01*
X172581000Y-137961000D01*
G75*
G02*
X172632000Y-137910000I51000J0D01*
G01*
X174332000Y-137910000D01*
G75*
G02*
X174383000Y-137961000I0J-51000D01*
G01*
X174383000Y-139661000D01*
G75*
G02*
X174332000Y-139712000I-51000J0D01*
G01*
G37*
X176022000Y-138811000D03*
X178562000Y-138811000D03*
X181102000Y-138811000D03*
X183642000Y-138811000D03*
X186182000Y-138811000D03*
G36*
G01*
X185408000Y-121373000D02*
X185408000Y-119673000D01*
G75*
G02*
X185459000Y-119622000I51000J0D01*
G01*
X187159000Y-119622000D01*
G75*
G02*
X187210000Y-119673000I0J-51000D01*
G01*
X187210000Y-121373000D01*
G75*
G02*
X187159000Y-121424000I-51000J0D01*
G01*
X185459000Y-121424000D01*
G75*
G02*
X185408000Y-121373000I0J51000D01*
G01*
G37*
X188849000Y-120523000D03*
X186309000Y-123063000D03*
X188849000Y-123063000D03*
X186309000Y-125603000D03*
X188849000Y-125603000D03*
X186309000Y-128143000D03*
X188849000Y-128143000D03*
X212217000Y-81280000D03*
X209677000Y-81280000D03*
X207137000Y-81280000D03*
X204597000Y-81280000D03*
X202057000Y-81280000D03*
X199517000Y-81280000D03*
X196977000Y-81280000D03*
X194437000Y-81280000D03*
X191897000Y-81280000D03*
X189357000Y-81280000D03*
X186817000Y-81280000D03*
G36*
G01*
X183427000Y-80379000D02*
X185127000Y-80379000D01*
G75*
G02*
X185178000Y-80430000I0J-51000D01*
G01*
X185178000Y-82130000D01*
G75*
G02*
X185127000Y-82181000I-51000J0D01*
G01*
X183427000Y-82181000D01*
G75*
G02*
X183376000Y-82130000I0J51000D01*
G01*
X183376000Y-80430000D01*
G75*
G02*
X183427000Y-80379000I51000J0D01*
G01*
G37*
G36*
G01*
X230263000Y-98337000D02*
X230263000Y-100037000D01*
G75*
G02*
X230212000Y-100088000I-51000J0D01*
G01*
X228512000Y-100088000D01*
G75*
G02*
X228461000Y-100037000I0J51000D01*
G01*
X228461000Y-98337000D01*
G75*
G02*
X228512000Y-98286000I51000J0D01*
G01*
X230212000Y-98286000D01*
G75*
G02*
X230263000Y-98337000I0J-51000D01*
G01*
G37*
X229362000Y-101727000D03*
X229362000Y-104267000D03*
X229362000Y-106807000D03*
X229362000Y-109347000D03*
X229362000Y-111887000D03*
X229362000Y-114427000D03*
X229362000Y-116967000D03*
X229362000Y-119507000D03*
X229362000Y-122047000D03*
X229362000Y-124587000D03*
X229362000Y-127127000D03*
G36*
G01*
X224751000Y-144665000D02*
X223051000Y-144665000D01*
G75*
G02*
X223000000Y-144614000I0J51000D01*
G01*
X223000000Y-142914000D01*
G75*
G02*
X223051000Y-142863000I51000J0D01*
G01*
X224751000Y-142863000D01*
G75*
G02*
X224802000Y-142914000I0J-51000D01*
G01*
X224802000Y-144614000D01*
G75*
G02*
X224751000Y-144665000I-51000J0D01*
G01*
G37*
X221361000Y-143764000D03*
X218821000Y-143764000D03*
X216281000Y-143764000D03*
X213741000Y-143764000D03*
X211201000Y-143764000D03*
X208661000Y-143764000D03*
X206121000Y-143764000D03*
X203581000Y-143764000D03*
X201041000Y-143764000D03*
X198501000Y-143764000D03*
X195961000Y-143764000D03*
G36*
G01*
X187846500Y-95633000D02*
X187846500Y-98423000D01*
G75*
G02*
X187795500Y-98474000I-51000J0D01*
G01*
X185892500Y-98474000D01*
G75*
G02*
X185841500Y-98423000I0J51000D01*
G01*
X185841500Y-95633000D01*
G75*
G02*
X185892500Y-95582000I51000J0D01*
G01*
X187795500Y-95582000D01*
G75*
G02*
X187846500Y-95633000I0J-51000D01*
G01*
G37*
G36*
G01*
X182993500Y-95633000D02*
X182993500Y-98423000D01*
G75*
G02*
X182942500Y-98474000I-51000J0D01*
G01*
X181039500Y-98474000D01*
G75*
G02*
X180988500Y-98423000I0J51000D01*
G01*
X180988500Y-95633000D01*
G75*
G02*
X181039500Y-95582000I51000J0D01*
G01*
X182942500Y-95582000D01*
G75*
G02*
X182993500Y-95633000I0J-51000D01*
G01*
G37*
G36*
G01*
X190095894Y-88971500D02*
X191412106Y-88971500D01*
G75*
G02*
X191680000Y-89239394I0J-267894D01*
G01*
X191680000Y-90230606D01*
G75*
G02*
X191412106Y-90498500I-267894J0D01*
G01*
X190095894Y-90498500D01*
G75*
G02*
X189828000Y-90230606I0J267894D01*
G01*
X189828000Y-89239394D01*
G75*
G02*
X190095894Y-88971500I267894J0D01*
G01*
G37*
G36*
G01*
X190095894Y-91946500D02*
X191412106Y-91946500D01*
G75*
G02*
X191680000Y-92214394I0J-267894D01*
G01*
X191680000Y-93205606D01*
G75*
G02*
X191412106Y-93473500I-267894J0D01*
G01*
X190095894Y-93473500D01*
G75*
G02*
X189828000Y-93205606I0J267894D01*
G01*
X189828000Y-92214394D01*
G75*
G02*
X190095894Y-91946500I267894J0D01*
G01*
G37*
G36*
G01*
X178416000Y-84446000D02*
X179216000Y-84446000D01*
G75*
G02*
X179267000Y-84497000I0J-51000D01*
G01*
X179267000Y-85397000D01*
G75*
G02*
X179216000Y-85448000I-51000J0D01*
G01*
X178416000Y-85448000D01*
G75*
G02*
X178365000Y-85397000I0J51000D01*
G01*
X178365000Y-84497000D01*
G75*
G02*
X178416000Y-84446000I51000J0D01*
G01*
G37*
G36*
G01*
X177466000Y-82446000D02*
X178266000Y-82446000D01*
G75*
G02*
X178317000Y-82497000I0J-51000D01*
G01*
X178317000Y-83397000D01*
G75*
G02*
X178266000Y-83448000I-51000J0D01*
G01*
X177466000Y-83448000D01*
G75*
G02*
X177415000Y-83397000I0J51000D01*
G01*
X177415000Y-82497000D01*
G75*
G02*
X177466000Y-82446000I51000J0D01*
G01*
G37*
G36*
G01*
X179366000Y-82446000D02*
X180166000Y-82446000D01*
G75*
G02*
X180217000Y-82497000I0J-51000D01*
G01*
X180217000Y-83397000D01*
G75*
G02*
X180166000Y-83448000I-51000J0D01*
G01*
X179366000Y-83448000D01*
G75*
G02*
X179315000Y-83397000I0J51000D01*
G01*
X179315000Y-82497000D01*
G75*
G02*
X179366000Y-82446000I51000J0D01*
G01*
G37*
G36*
G01*
X169738500Y-90143750D02*
X169738500Y-89180250D01*
G75*
G02*
X170007750Y-88911000I269250J0D01*
G01*
X170546250Y-88911000D01*
G75*
G02*
X170815500Y-89180250I0J-269250D01*
G01*
X170815500Y-90143750D01*
G75*
G02*
X170546250Y-90413000I-269250J0D01*
G01*
X170007750Y-90413000D01*
G75*
G02*
X169738500Y-90143750I0J269250D01*
G01*
G37*
G36*
G01*
X167863500Y-90143750D02*
X167863500Y-89180250D01*
G75*
G02*
X168132750Y-88911000I269250J0D01*
G01*
X168671250Y-88911000D01*
G75*
G02*
X168940500Y-89180250I0J-269250D01*
G01*
X168940500Y-90143750D01*
G75*
G02*
X168671250Y-90413000I-269250J0D01*
G01*
X168132750Y-90413000D01*
G75*
G02*
X167863500Y-90143750I0J269250D01*
G01*
G37*
G36*
G01*
X164464500Y-90143750D02*
X164464500Y-89180250D01*
G75*
G02*
X164733750Y-88911000I269250J0D01*
G01*
X165272250Y-88911000D01*
G75*
G02*
X165541500Y-89180250I0J-269250D01*
G01*
X165541500Y-90143750D01*
G75*
G02*
X165272250Y-90413000I-269250J0D01*
G01*
X164733750Y-90413000D01*
G75*
G02*
X164464500Y-90143750I0J269250D01*
G01*
G37*
G36*
G01*
X166339500Y-90143750D02*
X166339500Y-89180250D01*
G75*
G02*
X166608750Y-88911000I269250J0D01*
G01*
X167147250Y-88911000D01*
G75*
G02*
X167416500Y-89180250I0J-269250D01*
G01*
X167416500Y-90143750D01*
G75*
G02*
X167147250Y-90413000I-269250J0D01*
G01*
X166608750Y-90413000D01*
G75*
G02*
X166339500Y-90143750I0J269250D01*
G01*
G37*
G36*
G01*
X185446250Y-92395500D02*
X186409750Y-92395500D01*
G75*
G02*
X186679000Y-92664750I0J-269250D01*
G01*
X186679000Y-93203250D01*
G75*
G02*
X186409750Y-93472500I-269250J0D01*
G01*
X185446250Y-93472500D01*
G75*
G02*
X185177000Y-93203250I0J269250D01*
G01*
X185177000Y-92664750D01*
G75*
G02*
X185446250Y-92395500I269250J0D01*
G01*
G37*
G36*
G01*
X185446250Y-90520500D02*
X186409750Y-90520500D01*
G75*
G02*
X186679000Y-90789750I0J-269250D01*
G01*
X186679000Y-91328250D01*
G75*
G02*
X186409750Y-91597500I-269250J0D01*
G01*
X185446250Y-91597500D01*
G75*
G02*
X185177000Y-91328250I0J269250D01*
G01*
X185177000Y-90789750D01*
G75*
G02*
X185446250Y-90520500I269250J0D01*
G01*
G37*
G36*
G01*
X208757500Y-116686750D02*
X208757500Y-115723250D01*
G75*
G02*
X209026750Y-115454000I269250J0D01*
G01*
X209565250Y-115454000D01*
G75*
G02*
X209834500Y-115723250I0J-269250D01*
G01*
X209834500Y-116686750D01*
G75*
G02*
X209565250Y-116956000I-269250J0D01*
G01*
X209026750Y-116956000D01*
G75*
G02*
X208757500Y-116686750I0J269250D01*
G01*
G37*
G36*
G01*
X210632500Y-116686750D02*
X210632500Y-115723250D01*
G75*
G02*
X210901750Y-115454000I269250J0D01*
G01*
X211440250Y-115454000D01*
G75*
G02*
X211709500Y-115723250I0J-269250D01*
G01*
X211709500Y-116686750D01*
G75*
G02*
X211440250Y-116956000I-269250J0D01*
G01*
X210901750Y-116956000D01*
G75*
G02*
X210632500Y-116686750I0J269250D01*
G01*
G37*
G36*
G01*
X196495250Y-85207300D02*
X197458750Y-85207300D01*
G75*
G02*
X197728000Y-85476550I0J-269250D01*
G01*
X197728000Y-86015050D01*
G75*
G02*
X197458750Y-86284300I-269250J0D01*
G01*
X196495250Y-86284300D01*
G75*
G02*
X196226000Y-86015050I0J269250D01*
G01*
X196226000Y-85476550D01*
G75*
G02*
X196495250Y-85207300I269250J0D01*
G01*
G37*
G36*
G01*
X196495250Y-83332300D02*
X197458750Y-83332300D01*
G75*
G02*
X197728000Y-83601550I0J-269250D01*
G01*
X197728000Y-84140050D01*
G75*
G02*
X197458750Y-84409300I-269250J0D01*
G01*
X196495250Y-84409300D01*
G75*
G02*
X196226000Y-84140050I0J269250D01*
G01*
X196226000Y-83601550D01*
G75*
G02*
X196495250Y-83332300I269250J0D01*
G01*
G37*
G36*
G01*
X210624400Y-118706050D02*
X210624400Y-117742550D01*
G75*
G02*
X210893650Y-117473300I269250J0D01*
G01*
X211432150Y-117473300D01*
G75*
G02*
X211701400Y-117742550I0J-269250D01*
G01*
X211701400Y-118706050D01*
G75*
G02*
X211432150Y-118975300I-269250J0D01*
G01*
X210893650Y-118975300D01*
G75*
G02*
X210624400Y-118706050I0J269250D01*
G01*
G37*
G36*
G01*
X208749400Y-118706050D02*
X208749400Y-117742550D01*
G75*
G02*
X209018650Y-117473300I269250J0D01*
G01*
X209557150Y-117473300D01*
G75*
G02*
X209826400Y-117742550I0J-269250D01*
G01*
X209826400Y-118706050D01*
G75*
G02*
X209557150Y-118975300I-269250J0D01*
G01*
X209018650Y-118975300D01*
G75*
G02*
X208749400Y-118706050I0J269250D01*
G01*
G37*
G36*
G01*
X172111250Y-107060500D02*
X173074750Y-107060500D01*
G75*
G02*
X173344000Y-107329750I0J-269250D01*
G01*
X173344000Y-107868250D01*
G75*
G02*
X173074750Y-108137500I-269250J0D01*
G01*
X172111250Y-108137500D01*
G75*
G02*
X171842000Y-107868250I0J269250D01*
G01*
X171842000Y-107329750D01*
G75*
G02*
X172111250Y-107060500I269250J0D01*
G01*
G37*
G36*
G01*
X172111250Y-108935500D02*
X173074750Y-108935500D01*
G75*
G02*
X173344000Y-109204750I0J-269250D01*
G01*
X173344000Y-109743250D01*
G75*
G02*
X173074750Y-110012500I-269250J0D01*
G01*
X172111250Y-110012500D01*
G75*
G02*
X171842000Y-109743250I0J269250D01*
G01*
X171842000Y-109204750D01*
G75*
G02*
X172111250Y-108935500I269250J0D01*
G01*
G37*
G36*
G01*
X181873000Y-93829000D02*
X181633000Y-93829000D01*
G75*
G02*
X181582000Y-93778000I0J51000D01*
G01*
X181582000Y-93178000D01*
G75*
G02*
X181633000Y-93127000I51000J0D01*
G01*
X181873000Y-93127000D01*
G75*
G02*
X181924000Y-93178000I0J-51000D01*
G01*
X181924000Y-93778000D01*
G75*
G02*
X181873000Y-93829000I-51000J0D01*
G01*
G37*
G36*
G01*
X182373000Y-93829000D02*
X182133000Y-93829000D01*
G75*
G02*
X182082000Y-93778000I0J51000D01*
G01*
X182082000Y-93178000D01*
G75*
G02*
X182133000Y-93127000I51000J0D01*
G01*
X182373000Y-93127000D01*
G75*
G02*
X182424000Y-93178000I0J-51000D01*
G01*
X182424000Y-93778000D01*
G75*
G02*
X182373000Y-93829000I-51000J0D01*
G01*
G37*
G36*
G01*
X182873000Y-93829000D02*
X182633000Y-93829000D01*
G75*
G02*
X182582000Y-93778000I0J51000D01*
G01*
X182582000Y-93178000D01*
G75*
G02*
X182633000Y-93127000I51000J0D01*
G01*
X182873000Y-93127000D01*
G75*
G02*
X182924000Y-93178000I0J-51000D01*
G01*
X182924000Y-93778000D01*
G75*
G02*
X182873000Y-93829000I-51000J0D01*
G01*
G37*
G36*
G01*
X183373000Y-93829000D02*
X183133000Y-93829000D01*
G75*
G02*
X183082000Y-93778000I0J51000D01*
G01*
X183082000Y-93178000D01*
G75*
G02*
X183133000Y-93127000I51000J0D01*
G01*
X183373000Y-93127000D01*
G75*
G02*
X183424000Y-93178000I0J-51000D01*
G01*
X183424000Y-93778000D01*
G75*
G02*
X183373000Y-93829000I-51000J0D01*
G01*
G37*
G36*
G01*
X183873000Y-93829000D02*
X183633000Y-93829000D01*
G75*
G02*
X183582000Y-93778000I0J51000D01*
G01*
X183582000Y-93178000D01*
G75*
G02*
X183633000Y-93127000I51000J0D01*
G01*
X183873000Y-93127000D01*
G75*
G02*
X183924000Y-93178000I0J-51000D01*
G01*
X183924000Y-93778000D01*
G75*
G02*
X183873000Y-93829000I-51000J0D01*
G01*
G37*
G36*
G01*
X183873000Y-91029000D02*
X183633000Y-91029000D01*
G75*
G02*
X183582000Y-90978000I0J51000D01*
G01*
X183582000Y-90378000D01*
G75*
G02*
X183633000Y-90327000I51000J0D01*
G01*
X183873000Y-90327000D01*
G75*
G02*
X183924000Y-90378000I0J-51000D01*
G01*
X183924000Y-90978000D01*
G75*
G02*
X183873000Y-91029000I-51000J0D01*
G01*
G37*
G36*
G01*
X183373000Y-91029000D02*
X183133000Y-91029000D01*
G75*
G02*
X183082000Y-90978000I0J51000D01*
G01*
X183082000Y-90378000D01*
G75*
G02*
X183133000Y-90327000I51000J0D01*
G01*
X183373000Y-90327000D01*
G75*
G02*
X183424000Y-90378000I0J-51000D01*
G01*
X183424000Y-90978000D01*
G75*
G02*
X183373000Y-91029000I-51000J0D01*
G01*
G37*
G36*
G01*
X182873000Y-91029000D02*
X182633000Y-91029000D01*
G75*
G02*
X182582000Y-90978000I0J51000D01*
G01*
X182582000Y-90378000D01*
G75*
G02*
X182633000Y-90327000I51000J0D01*
G01*
X182873000Y-90327000D01*
G75*
G02*
X182924000Y-90378000I0J-51000D01*
G01*
X182924000Y-90978000D01*
G75*
G02*
X182873000Y-91029000I-51000J0D01*
G01*
G37*
G36*
G01*
X182373000Y-91029000D02*
X182133000Y-91029000D01*
G75*
G02*
X182082000Y-90978000I0J51000D01*
G01*
X182082000Y-90378000D01*
G75*
G02*
X182133000Y-90327000I51000J0D01*
G01*
X182373000Y-90327000D01*
G75*
G02*
X182424000Y-90378000I0J-51000D01*
G01*
X182424000Y-90978000D01*
G75*
G02*
X182373000Y-91029000I-51000J0D01*
G01*
G37*
G36*
G01*
X181873000Y-91029000D02*
X181633000Y-91029000D01*
G75*
G02*
X181582000Y-90978000I0J51000D01*
G01*
X181582000Y-90378000D01*
G75*
G02*
X181633000Y-90327000I51000J0D01*
G01*
X181873000Y-90327000D01*
G75*
G02*
X181924000Y-90378000I0J-51000D01*
G01*
X181924000Y-90978000D01*
G75*
G02*
X181873000Y-91029000I-51000J0D01*
G01*
G37*
D14*
G36*
X181002980Y-92193050D02*
G01*
X181005882Y-92183483D01*
X181010595Y-92174666D01*
X181016938Y-92166938D01*
X181024666Y-92160595D01*
X181033483Y-92155882D01*
X181043050Y-92152980D01*
X181053000Y-92152000D01*
X181502000Y-92152000D01*
X181502000Y-92004000D01*
X181053000Y-92004000D01*
X181043050Y-92003020D01*
X181033483Y-92000118D01*
X181024666Y-91995405D01*
X181016938Y-91989062D01*
X181010595Y-91981334D01*
X181005882Y-91972517D01*
X181002980Y-91962950D01*
X181002000Y-91953000D01*
X181002000Y-91703000D01*
X181002980Y-91693050D01*
X181005882Y-91683483D01*
X181010595Y-91674666D01*
X181016938Y-91666938D01*
X181024666Y-91660595D01*
X181033483Y-91655882D01*
X181043050Y-91652980D01*
X181053000Y-91652000D01*
X181502000Y-91652000D01*
X181502000Y-91253000D01*
X181502980Y-91243050D01*
X181505882Y-91233483D01*
X181510595Y-91224666D01*
X181516938Y-91216938D01*
X181524666Y-91210595D01*
X181533483Y-91205882D01*
X181543050Y-91202980D01*
X181553000Y-91202000D01*
X183953000Y-91202000D01*
X183962950Y-91202980D01*
X183972517Y-91205882D01*
X183981334Y-91210595D01*
X183989062Y-91216938D01*
X183995405Y-91224666D01*
X184000118Y-91233483D01*
X184003020Y-91243050D01*
X184004000Y-91253000D01*
X184004000Y-91652000D01*
X184453000Y-91652000D01*
X184462950Y-91652980D01*
X184472517Y-91655882D01*
X184481334Y-91660595D01*
X184489062Y-91666938D01*
X184495405Y-91674666D01*
X184500118Y-91683483D01*
X184503020Y-91693050D01*
X184504000Y-91703000D01*
X184504000Y-91953000D01*
X184503020Y-91962950D01*
X184500118Y-91972517D01*
X184495405Y-91981334D01*
X184489062Y-91989062D01*
X184481334Y-91995405D01*
X184472517Y-92000118D01*
X184462950Y-92003020D01*
X184453000Y-92004000D01*
X184004000Y-92004000D01*
X184004000Y-92152000D01*
X184453000Y-92152000D01*
X184462950Y-92152980D01*
X184472517Y-92155882D01*
X184481334Y-92160595D01*
X184489062Y-92166938D01*
X184495405Y-92174666D01*
X184500118Y-92183483D01*
X184503020Y-92193050D01*
X184504000Y-92203000D01*
X184504000Y-92453000D01*
X184503020Y-92462950D01*
X184500118Y-92472517D01*
X184495405Y-92481334D01*
X184489062Y-92489062D01*
X184481334Y-92495405D01*
X184472517Y-92500118D01*
X184462950Y-92503020D01*
X184453000Y-92504000D01*
X184004000Y-92504000D01*
X184004000Y-92903000D01*
X184003020Y-92912950D01*
X184000118Y-92922517D01*
X183995405Y-92931334D01*
X183989062Y-92939062D01*
X183981334Y-92945405D01*
X183972517Y-92950118D01*
X183962950Y-92953020D01*
X183953000Y-92954000D01*
X181553000Y-92954000D01*
X181543050Y-92953020D01*
X181533483Y-92950118D01*
X181524666Y-92945405D01*
X181516938Y-92939062D01*
X181510595Y-92931334D01*
X181505882Y-92922517D01*
X181502980Y-92912950D01*
X181502000Y-92903000D01*
X181502000Y-92504000D01*
X181053000Y-92504000D01*
X181043050Y-92503020D01*
X181033483Y-92500118D01*
X181024666Y-92495405D01*
X181016938Y-92489062D01*
X181010595Y-92481334D01*
X181005882Y-92472517D01*
X181002980Y-92462950D01*
X181002000Y-92453000D01*
X181002000Y-92203000D01*
X181002980Y-92193050D01*
G37*
G36*
X207506875Y-105781000D02*
G01*
X207908875Y-105379000D01*
X208651125Y-105379000D01*
X209053125Y-105781000D01*
X207506875Y-105781000D01*
G37*
G36*
G01*
X207879000Y-105730000D02*
X207879000Y-105430000D01*
G75*
G02*
X207930000Y-105379000I51000J0D01*
G01*
X208930000Y-105379000D01*
G75*
G02*
X208981000Y-105430000I0J-51000D01*
G01*
X208981000Y-105730000D01*
G75*
G02*
X208930000Y-105781000I-51000J0D01*
G01*
X207930000Y-105781000D01*
G75*
G02*
X207879000Y-105730000I0J51000D01*
G01*
G37*
G36*
G01*
X207579000Y-107930000D02*
X207579000Y-105730000D01*
G75*
G02*
X207630000Y-105679000I51000J0D01*
G01*
X208930000Y-105679000D01*
G75*
G02*
X208981000Y-105730000I0J-51000D01*
G01*
X208981000Y-107930000D01*
G75*
G02*
X208930000Y-107981000I-51000J0D01*
G01*
X207630000Y-107981000D01*
G75*
G02*
X207579000Y-107930000I0J51000D01*
G01*
G37*
G36*
G01*
X208979000Y-108080000D02*
X208979000Y-107680000D01*
G75*
G02*
X209030000Y-107629000I51000J0D01*
G01*
X209630000Y-107629000D01*
G75*
G02*
X209681000Y-107680000I0J-51000D01*
G01*
X209681000Y-108080000D01*
G75*
G02*
X209630000Y-108131000I-51000J0D01*
G01*
X209030000Y-108131000D01*
G75*
G02*
X208979000Y-108080000I0J51000D01*
G01*
G37*
G36*
G01*
X208979000Y-107480000D02*
X208979000Y-107080000D01*
G75*
G02*
X209030000Y-107029000I51000J0D01*
G01*
X209630000Y-107029000D01*
G75*
G02*
X209681000Y-107080000I0J-51000D01*
G01*
X209681000Y-107480000D01*
G75*
G02*
X209630000Y-107531000I-51000J0D01*
G01*
X209030000Y-107531000D01*
G75*
G02*
X208979000Y-107480000I0J51000D01*
G01*
G37*
G36*
G01*
X208979000Y-105680000D02*
X208979000Y-105280000D01*
G75*
G02*
X209030000Y-105229000I51000J0D01*
G01*
X209630000Y-105229000D01*
G75*
G02*
X209681000Y-105280000I0J-51000D01*
G01*
X209681000Y-105680000D01*
G75*
G02*
X209630000Y-105731000I-51000J0D01*
G01*
X209030000Y-105731000D01*
G75*
G02*
X208979000Y-105680000I0J51000D01*
G01*
G37*
G36*
G01*
X208979000Y-106280000D02*
X208979000Y-105880000D01*
G75*
G02*
X209030000Y-105829000I51000J0D01*
G01*
X209630000Y-105829000D01*
G75*
G02*
X209681000Y-105880000I0J-51000D01*
G01*
X209681000Y-106280000D01*
G75*
G02*
X209630000Y-106331000I-51000J0D01*
G01*
X209030000Y-106331000D01*
G75*
G02*
X208979000Y-106280000I0J51000D01*
G01*
G37*
G36*
G01*
X206879000Y-108080000D02*
X206879000Y-107680000D01*
G75*
G02*
X206930000Y-107629000I51000J0D01*
G01*
X207530000Y-107629000D01*
G75*
G02*
X207581000Y-107680000I0J-51000D01*
G01*
X207581000Y-108080000D01*
G75*
G02*
X207530000Y-108131000I-51000J0D01*
G01*
X206930000Y-108131000D01*
G75*
G02*
X206879000Y-108080000I0J51000D01*
G01*
G37*
G36*
G01*
X206879000Y-105680000D02*
X206879000Y-105280000D01*
G75*
G02*
X206930000Y-105229000I51000J0D01*
G01*
X207530000Y-105229000D01*
G75*
G02*
X207581000Y-105280000I0J-51000D01*
G01*
X207581000Y-105680000D01*
G75*
G02*
X207530000Y-105731000I-51000J0D01*
G01*
X206930000Y-105731000D01*
G75*
G02*
X206879000Y-105680000I0J51000D01*
G01*
G37*
G36*
G01*
X206879000Y-106280000D02*
X206879000Y-105880000D01*
G75*
G02*
X206930000Y-105829000I51000J0D01*
G01*
X207530000Y-105829000D01*
G75*
G02*
X207581000Y-105880000I0J-51000D01*
G01*
X207581000Y-106280000D01*
G75*
G02*
X207530000Y-106331000I-51000J0D01*
G01*
X206930000Y-106331000D01*
G75*
G02*
X206879000Y-106280000I0J51000D01*
G01*
G37*
G36*
G01*
X206879000Y-106880000D02*
X206879000Y-106480000D01*
G75*
G02*
X206930000Y-106429000I51000J0D01*
G01*
X207530000Y-106429000D01*
G75*
G02*
X207581000Y-106480000I0J-51000D01*
G01*
X207581000Y-106880000D01*
G75*
G02*
X207530000Y-106931000I-51000J0D01*
G01*
X206930000Y-106931000D01*
G75*
G02*
X206879000Y-106880000I0J51000D01*
G01*
G37*
G36*
G01*
X206879000Y-107480000D02*
X206879000Y-107080000D01*
G75*
G02*
X206930000Y-107029000I51000J0D01*
G01*
X207530000Y-107029000D01*
G75*
G02*
X207581000Y-107080000I0J-51000D01*
G01*
X207581000Y-107480000D01*
G75*
G02*
X207530000Y-107531000I-51000J0D01*
G01*
X206930000Y-107531000D01*
G75*
G02*
X206879000Y-107480000I0J51000D01*
G01*
G37*
G36*
G01*
X208979000Y-106880000D02*
X208979000Y-106480000D01*
G75*
G02*
X209030000Y-106429000I51000J0D01*
G01*
X209630000Y-106429000D01*
G75*
G02*
X209681000Y-106480000I0J-51000D01*
G01*
X209681000Y-106880000D01*
G75*
G02*
X209630000Y-106931000I-51000J0D01*
G01*
X209030000Y-106931000D01*
G75*
G02*
X208979000Y-106880000I0J51000D01*
G01*
G37*
G36*
G01*
X221331000Y-100792000D02*
X221331000Y-101392000D01*
G75*
G02*
X221280000Y-101443000I-51000J0D01*
G01*
X219730000Y-101443000D01*
G75*
G02*
X219679000Y-101392000I0J51000D01*
G01*
X219679000Y-100792000D01*
G75*
G02*
X219730000Y-100741000I51000J0D01*
G01*
X221280000Y-100741000D01*
G75*
G02*
X221331000Y-100792000I0J-51000D01*
G01*
G37*
G36*
G01*
X221331000Y-99522000D02*
X221331000Y-100122000D01*
G75*
G02*
X221280000Y-100173000I-51000J0D01*
G01*
X219730000Y-100173000D01*
G75*
G02*
X219679000Y-100122000I0J51000D01*
G01*
X219679000Y-99522000D01*
G75*
G02*
X219730000Y-99471000I51000J0D01*
G01*
X221280000Y-99471000D01*
G75*
G02*
X221331000Y-99522000I0J-51000D01*
G01*
G37*
G36*
G01*
X221331000Y-98252000D02*
X221331000Y-98852000D01*
G75*
G02*
X221280000Y-98903000I-51000J0D01*
G01*
X219730000Y-98903000D01*
G75*
G02*
X219679000Y-98852000I0J51000D01*
G01*
X219679000Y-98252000D01*
G75*
G02*
X219730000Y-98201000I51000J0D01*
G01*
X221280000Y-98201000D01*
G75*
G02*
X221331000Y-98252000I0J-51000D01*
G01*
G37*
G36*
G01*
X221331000Y-96982000D02*
X221331000Y-97582000D01*
G75*
G02*
X221280000Y-97633000I-51000J0D01*
G01*
X219730000Y-97633000D01*
G75*
G02*
X219679000Y-97582000I0J51000D01*
G01*
X219679000Y-96982000D01*
G75*
G02*
X219730000Y-96931000I51000J0D01*
G01*
X221280000Y-96931000D01*
G75*
G02*
X221331000Y-96982000I0J-51000D01*
G01*
G37*
G36*
G01*
X215931000Y-96982000D02*
X215931000Y-97582000D01*
G75*
G02*
X215880000Y-97633000I-51000J0D01*
G01*
X214330000Y-97633000D01*
G75*
G02*
X214279000Y-97582000I0J51000D01*
G01*
X214279000Y-96982000D01*
G75*
G02*
X214330000Y-96931000I51000J0D01*
G01*
X215880000Y-96931000D01*
G75*
G02*
X215931000Y-96982000I0J-51000D01*
G01*
G37*
G36*
G01*
X215931000Y-98252000D02*
X215931000Y-98852000D01*
G75*
G02*
X215880000Y-98903000I-51000J0D01*
G01*
X214330000Y-98903000D01*
G75*
G02*
X214279000Y-98852000I0J51000D01*
G01*
X214279000Y-98252000D01*
G75*
G02*
X214330000Y-98201000I51000J0D01*
G01*
X215880000Y-98201000D01*
G75*
G02*
X215931000Y-98252000I0J-51000D01*
G01*
G37*
G36*
G01*
X215931000Y-99522000D02*
X215931000Y-100122000D01*
G75*
G02*
X215880000Y-100173000I-51000J0D01*
G01*
X214330000Y-100173000D01*
G75*
G02*
X214279000Y-100122000I0J51000D01*
G01*
X214279000Y-99522000D01*
G75*
G02*
X214330000Y-99471000I51000J0D01*
G01*
X215880000Y-99471000D01*
G75*
G02*
X215931000Y-99522000I0J-51000D01*
G01*
G37*
G36*
G01*
X215931000Y-100792000D02*
X215931000Y-101392000D01*
G75*
G02*
X215880000Y-101443000I-51000J0D01*
G01*
X214330000Y-101443000D01*
G75*
G02*
X214279000Y-101392000I0J51000D01*
G01*
X214279000Y-100792000D01*
G75*
G02*
X214330000Y-100741000I51000J0D01*
G01*
X215880000Y-100741000D01*
G75*
G02*
X215931000Y-100792000I0J-51000D01*
G01*
G37*
G36*
G01*
X224293000Y-101222000D02*
X222493000Y-101222000D01*
G75*
G02*
X222442000Y-101171000I0J51000D01*
G01*
X222442000Y-100171000D01*
G75*
G02*
X222493000Y-100120000I51000J0D01*
G01*
X224293000Y-100120000D01*
G75*
G02*
X224344000Y-100171000I0J-51000D01*
G01*
X224344000Y-101171000D01*
G75*
G02*
X224293000Y-101222000I-51000J0D01*
G01*
G37*
G36*
G01*
X224293000Y-98722000D02*
X222493000Y-98722000D01*
G75*
G02*
X222442000Y-98671000I0J51000D01*
G01*
X222442000Y-97671000D01*
G75*
G02*
X222493000Y-97620000I51000J0D01*
G01*
X224293000Y-97620000D01*
G75*
G02*
X224344000Y-97671000I0J-51000D01*
G01*
X224344000Y-98671000D01*
G75*
G02*
X224293000Y-98722000I-51000J0D01*
G01*
G37*
G36*
G01*
X216407500Y-111606750D02*
X216407500Y-110643250D01*
G75*
G02*
X216676750Y-110374000I269250J0D01*
G01*
X217215250Y-110374000D01*
G75*
G02*
X217484500Y-110643250I0J-269250D01*
G01*
X217484500Y-111606750D01*
G75*
G02*
X217215250Y-111876000I-269250J0D01*
G01*
X216676750Y-111876000D01*
G75*
G02*
X216407500Y-111606750I0J269250D01*
G01*
G37*
G36*
G01*
X218282500Y-111606750D02*
X218282500Y-110643250D01*
G75*
G02*
X218551750Y-110374000I269250J0D01*
G01*
X219090250Y-110374000D01*
G75*
G02*
X219359500Y-110643250I0J-269250D01*
G01*
X219359500Y-111606750D01*
G75*
G02*
X219090250Y-111876000I-269250J0D01*
G01*
X218551750Y-111876000D01*
G75*
G02*
X218282500Y-111606750I0J269250D01*
G01*
G37*
D15*
X170576000Y-135206000D03*
X172576000Y-135206000D03*
X174576000Y-135206000D03*
X176576000Y-135206000D03*
X178576000Y-135206000D03*
X180576000Y-135206000D03*
X182576000Y-135206000D03*
X184576000Y-135206000D03*
X186576000Y-135206000D03*
X188576000Y-135206000D03*
X188576000Y-113206000D03*
X186576000Y-113206000D03*
X184576000Y-113206000D03*
X182576000Y-113206000D03*
X180576000Y-113206000D03*
X178576000Y-113206000D03*
X176576000Y-113206000D03*
X174576000Y-113206000D03*
X172576000Y-113206000D03*
X170576000Y-113206000D03*
G36*
G01*
X219881999Y-108844000D02*
X221382001Y-108844000D01*
G75*
G02*
X221433000Y-108894999I0J-50999D01*
G01*
X221433000Y-109545001D01*
G75*
G02*
X221382001Y-109596000I-50999J0D01*
G01*
X219881999Y-109596000D01*
G75*
G02*
X219831000Y-109545001I0J50999D01*
G01*
X219831000Y-108894999D01*
G75*
G02*
X219881999Y-108844000I50999J0D01*
G01*
G37*
G36*
G01*
X219881999Y-107574000D02*
X221382001Y-107574000D01*
G75*
G02*
X221433000Y-107624999I0J-50999D01*
G01*
X221433000Y-108275001D01*
G75*
G02*
X221382001Y-108326000I-50999J0D01*
G01*
X219881999Y-108326000D01*
G75*
G02*
X219831000Y-108275001I0J50999D01*
G01*
X219831000Y-107624999D01*
G75*
G02*
X219881999Y-107574000I50999J0D01*
G01*
G37*
G36*
G01*
X219881999Y-106304000D02*
X221382001Y-106304000D01*
G75*
G02*
X221433000Y-106354999I0J-50999D01*
G01*
X221433000Y-107005001D01*
G75*
G02*
X221382001Y-107056000I-50999J0D01*
G01*
X219881999Y-107056000D01*
G75*
G02*
X219831000Y-107005001I0J50999D01*
G01*
X219831000Y-106354999D01*
G75*
G02*
X219881999Y-106304000I50999J0D01*
G01*
G37*
G36*
G01*
X219881999Y-105034000D02*
X221382001Y-105034000D01*
G75*
G02*
X221433000Y-105084999I0J-50999D01*
G01*
X221433000Y-105735001D01*
G75*
G02*
X221382001Y-105786000I-50999J0D01*
G01*
X219881999Y-105786000D01*
G75*
G02*
X219831000Y-105735001I0J50999D01*
G01*
X219831000Y-105084999D01*
G75*
G02*
X219881999Y-105034000I50999J0D01*
G01*
G37*
G36*
G01*
X214481999Y-105034000D02*
X215982001Y-105034000D01*
G75*
G02*
X216033000Y-105084999I0J-50999D01*
G01*
X216033000Y-105735001D01*
G75*
G02*
X215982001Y-105786000I-50999J0D01*
G01*
X214481999Y-105786000D01*
G75*
G02*
X214431000Y-105735001I0J50999D01*
G01*
X214431000Y-105084999D01*
G75*
G02*
X214481999Y-105034000I50999J0D01*
G01*
G37*
G36*
G01*
X214481999Y-106304000D02*
X215982001Y-106304000D01*
G75*
G02*
X216033000Y-106354999I0J-50999D01*
G01*
X216033000Y-107005001D01*
G75*
G02*
X215982001Y-107056000I-50999J0D01*
G01*
X214481999Y-107056000D01*
G75*
G02*
X214431000Y-107005001I0J50999D01*
G01*
X214431000Y-106354999D01*
G75*
G02*
X214481999Y-106304000I50999J0D01*
G01*
G37*
G36*
G01*
X214481999Y-107574000D02*
X215982001Y-107574000D01*
G75*
G02*
X216033000Y-107624999I0J-50999D01*
G01*
X216033000Y-108275001D01*
G75*
G02*
X215982001Y-108326000I-50999J0D01*
G01*
X214481999Y-108326000D01*
G75*
G02*
X214431000Y-108275001I0J50999D01*
G01*
X214431000Y-107624999D01*
G75*
G02*
X214481999Y-107574000I50999J0D01*
G01*
G37*
G36*
G01*
X214481999Y-108844000D02*
X215982001Y-108844000D01*
G75*
G02*
X216033000Y-108894999I0J-50999D01*
G01*
X216033000Y-109545001D01*
G75*
G02*
X215982001Y-109596000I-50999J0D01*
G01*
X214481999Y-109596000D01*
G75*
G02*
X214431000Y-109545001I0J50999D01*
G01*
X214431000Y-108894999D01*
G75*
G02*
X214481999Y-108844000I50999J0D01*
G01*
G37*
G36*
G01*
X207207000Y-87228000D02*
X209607000Y-87228000D01*
G75*
G02*
X209658000Y-87279000I0J-51000D01*
G01*
X209658000Y-89179000D01*
G75*
G02*
X209607000Y-89230000I-51000J0D01*
G01*
X207207000Y-89230000D01*
G75*
G02*
X207156000Y-89179000I0J51000D01*
G01*
X207156000Y-87279000D01*
G75*
G02*
X207207000Y-87228000I51000J0D01*
G01*
G37*
G36*
G01*
X207207000Y-91328000D02*
X209607000Y-91328000D01*
G75*
G02*
X209658000Y-91379000I0J-51000D01*
G01*
X209658000Y-93279000D01*
G75*
G02*
X209607000Y-93330000I-51000J0D01*
G01*
X207207000Y-93330000D01*
G75*
G02*
X207156000Y-93279000I0J51000D01*
G01*
X207156000Y-91379000D01*
G75*
G02*
X207207000Y-91328000I51000J0D01*
G01*
G37*
D16*
X229489000Y-81407000D03*
D17*
X231139000Y-81407000D03*
X230655726Y-82573726D03*
X229489000Y-83057000D03*
X228322274Y-82573726D03*
X227839000Y-81407000D03*
X228322274Y-80240274D03*
X229489000Y-79757000D03*
X230655726Y-80240274D03*
D16*
X166243000Y-81407000D03*
D17*
X167893000Y-81407000D03*
X167409726Y-82573726D03*
X166243000Y-83057000D03*
X165076274Y-82573726D03*
X164593000Y-81407000D03*
X165076274Y-80240274D03*
X166243000Y-79757000D03*
X167409726Y-80240274D03*
D16*
X166243000Y-143891000D03*
D17*
X167893000Y-143891000D03*
X167409726Y-145057726D03*
X166243000Y-145541000D03*
X165076274Y-145057726D03*
X164593000Y-143891000D03*
X165076274Y-142724274D03*
X166243000Y-142241000D03*
X167409726Y-142724274D03*
X230655726Y-142724274D03*
X229489000Y-142241000D03*
X228322274Y-142724274D03*
X227839000Y-143891000D03*
X228322274Y-145057726D03*
X229489000Y-145541000D03*
X230655726Y-145057726D03*
X231139000Y-143891000D03*
D16*
X229489000Y-143891000D03*
G36*
G01*
X203161999Y-130536000D02*
X204762001Y-130536000D01*
G75*
G02*
X204813000Y-130586999I0J-50999D01*
G01*
X204813000Y-131287001D01*
G75*
G02*
X204762001Y-131338000I-50999J0D01*
G01*
X203161999Y-131338000D01*
G75*
G02*
X203111000Y-131287001I0J50999D01*
G01*
X203111000Y-130586999D01*
G75*
G02*
X203161999Y-130536000I50999J0D01*
G01*
G37*
G36*
G01*
X203161999Y-131806000D02*
X204762001Y-131806000D01*
G75*
G02*
X204813000Y-131856999I0J-50999D01*
G01*
X204813000Y-132557001D01*
G75*
G02*
X204762001Y-132608000I-50999J0D01*
G01*
X203161999Y-132608000D01*
G75*
G02*
X203111000Y-132557001I0J50999D01*
G01*
X203111000Y-131856999D01*
G75*
G02*
X203161999Y-131806000I50999J0D01*
G01*
G37*
G36*
G01*
X203161999Y-133076000D02*
X204762001Y-133076000D01*
G75*
G02*
X204813000Y-133126999I0J-50999D01*
G01*
X204813000Y-133827001D01*
G75*
G02*
X204762001Y-133878000I-50999J0D01*
G01*
X203161999Y-133878000D01*
G75*
G02*
X203111000Y-133827001I0J50999D01*
G01*
X203111000Y-133126999D01*
G75*
G02*
X203161999Y-133076000I50999J0D01*
G01*
G37*
G36*
G01*
X203161999Y-134346000D02*
X204762001Y-134346000D01*
G75*
G02*
X204813000Y-134396999I0J-50999D01*
G01*
X204813000Y-135097001D01*
G75*
G02*
X204762001Y-135148000I-50999J0D01*
G01*
X203161999Y-135148000D01*
G75*
G02*
X203111000Y-135097001I0J50999D01*
G01*
X203111000Y-134396999D01*
G75*
G02*
X203161999Y-134346000I50999J0D01*
G01*
G37*
G36*
G01*
X230966000Y-130570000D02*
X230966000Y-132670000D01*
G75*
G02*
X230915000Y-132721000I-51000J0D01*
G01*
X229515000Y-132721000D01*
G75*
G02*
X229464000Y-132670000I0J51000D01*
G01*
X229464000Y-130570000D01*
G75*
G02*
X229515000Y-130519000I51000J0D01*
G01*
X230915000Y-130519000D01*
G75*
G02*
X230966000Y-130570000I0J-51000D01*
G01*
G37*
G36*
G01*
X230966000Y-136570000D02*
X230966000Y-138670000D01*
G75*
G02*
X230915000Y-138721000I-51000J0D01*
G01*
X229515000Y-138721000D01*
G75*
G02*
X229464000Y-138670000I0J51000D01*
G01*
X229464000Y-136570000D01*
G75*
G02*
X229515000Y-136519000I51000J0D01*
G01*
X230915000Y-136519000D01*
G75*
G02*
X230966000Y-136570000I0J-51000D01*
G01*
G37*
G36*
G01*
X226466000Y-130570000D02*
X226466000Y-132670000D01*
G75*
G02*
X226415000Y-132721000I-51000J0D01*
G01*
X225015000Y-132721000D01*
G75*
G02*
X224964000Y-132670000I0J51000D01*
G01*
X224964000Y-130570000D01*
G75*
G02*
X225015000Y-130519000I51000J0D01*
G01*
X226415000Y-130519000D01*
G75*
G02*
X226466000Y-130570000I0J-51000D01*
G01*
G37*
G36*
G01*
X226466000Y-136570000D02*
X226466000Y-138670000D01*
G75*
G02*
X226415000Y-138721000I-51000J0D01*
G01*
X225015000Y-138721000D01*
G75*
G02*
X224964000Y-138670000I0J51000D01*
G01*
X224964000Y-136570000D01*
G75*
G02*
X225015000Y-136519000I51000J0D01*
G01*
X226415000Y-136519000D01*
G75*
G02*
X226466000Y-136570000I0J-51000D01*
G01*
G37*
G36*
G01*
X169266000Y-103841000D02*
X169266000Y-101741000D01*
G75*
G02*
X169317000Y-101690000I51000J0D01*
G01*
X170717000Y-101690000D01*
G75*
G02*
X170768000Y-101741000I0J-51000D01*
G01*
X170768000Y-103841000D01*
G75*
G02*
X170717000Y-103892000I-51000J0D01*
G01*
X169317000Y-103892000D01*
G75*
G02*
X169266000Y-103841000I0J51000D01*
G01*
G37*
G36*
G01*
X169266000Y-109841000D02*
X169266000Y-107741000D01*
G75*
G02*
X169317000Y-107690000I51000J0D01*
G01*
X170717000Y-107690000D01*
G75*
G02*
X170768000Y-107741000I0J-51000D01*
G01*
X170768000Y-109841000D01*
G75*
G02*
X170717000Y-109892000I-51000J0D01*
G01*
X169317000Y-109892000D01*
G75*
G02*
X169266000Y-109841000I0J51000D01*
G01*
G37*
G36*
G01*
X164766000Y-103841000D02*
X164766000Y-101741000D01*
G75*
G02*
X164817000Y-101690000I51000J0D01*
G01*
X166217000Y-101690000D01*
G75*
G02*
X166268000Y-101741000I0J-51000D01*
G01*
X166268000Y-103841000D01*
G75*
G02*
X166217000Y-103892000I-51000J0D01*
G01*
X164817000Y-103892000D01*
G75*
G02*
X164766000Y-103841000I0J51000D01*
G01*
G37*
G36*
G01*
X164766000Y-109841000D02*
X164766000Y-107741000D01*
G75*
G02*
X164817000Y-107690000I51000J0D01*
G01*
X166217000Y-107690000D01*
G75*
G02*
X166268000Y-107741000I0J-51000D01*
G01*
X166268000Y-109841000D01*
G75*
G02*
X166217000Y-109892000I-51000J0D01*
G01*
X164817000Y-109892000D01*
G75*
G02*
X164766000Y-109841000I0J51000D01*
G01*
G37*
G36*
G01*
X222098000Y-132670000D02*
X222098000Y-130570000D01*
G75*
G02*
X222149000Y-130519000I51000J0D01*
G01*
X223549000Y-130519000D01*
G75*
G02*
X223600000Y-130570000I0J-51000D01*
G01*
X223600000Y-132670000D01*
G75*
G02*
X223549000Y-132721000I-51000J0D01*
G01*
X222149000Y-132721000D01*
G75*
G02*
X222098000Y-132670000I0J51000D01*
G01*
G37*
G36*
G01*
X222098000Y-138670000D02*
X222098000Y-136570000D01*
G75*
G02*
X222149000Y-136519000I51000J0D01*
G01*
X223549000Y-136519000D01*
G75*
G02*
X223600000Y-136570000I0J-51000D01*
G01*
X223600000Y-138670000D01*
G75*
G02*
X223549000Y-138721000I-51000J0D01*
G01*
X222149000Y-138721000D01*
G75*
G02*
X222098000Y-138670000I0J51000D01*
G01*
G37*
G36*
G01*
X217598000Y-132670000D02*
X217598000Y-130570000D01*
G75*
G02*
X217649000Y-130519000I51000J0D01*
G01*
X219049000Y-130519000D01*
G75*
G02*
X219100000Y-130570000I0J-51000D01*
G01*
X219100000Y-132670000D01*
G75*
G02*
X219049000Y-132721000I-51000J0D01*
G01*
X217649000Y-132721000D01*
G75*
G02*
X217598000Y-132670000I0J51000D01*
G01*
G37*
G36*
G01*
X217598000Y-138670000D02*
X217598000Y-136570000D01*
G75*
G02*
X217649000Y-136519000I51000J0D01*
G01*
X219049000Y-136519000D01*
G75*
G02*
X219100000Y-136570000I0J-51000D01*
G01*
X219100000Y-138670000D01*
G75*
G02*
X219049000Y-138721000I-51000J0D01*
G01*
X217649000Y-138721000D01*
G75*
G02*
X217598000Y-138670000I0J51000D01*
G01*
G37*
G36*
G01*
X201776750Y-86263500D02*
X200813250Y-86263500D01*
G75*
G02*
X200544000Y-85994250I0J269250D01*
G01*
X200544000Y-85455750D01*
G75*
G02*
X200813250Y-85186500I269250J0D01*
G01*
X201776750Y-85186500D01*
G75*
G02*
X202046000Y-85455750I0J-269250D01*
G01*
X202046000Y-85994250D01*
G75*
G02*
X201776750Y-86263500I-269250J0D01*
G01*
G37*
G36*
G01*
X201776750Y-84388500D02*
X200813250Y-84388500D01*
G75*
G02*
X200544000Y-84119250I0J269250D01*
G01*
X200544000Y-83580750D01*
G75*
G02*
X200813250Y-83311500I269250J0D01*
G01*
X201776750Y-83311500D01*
G75*
G02*
X202046000Y-83580750I0J-269250D01*
G01*
X202046000Y-84119250D01*
G75*
G02*
X201776750Y-84388500I-269250J0D01*
G01*
G37*
G36*
G01*
X198659875Y-83336500D02*
X199612125Y-83336500D01*
G75*
G02*
X199887000Y-83611375I0J-274875D01*
G01*
X199887000Y-84188625D01*
G75*
G02*
X199612125Y-84463500I-274875J0D01*
G01*
X198659875Y-84463500D01*
G75*
G02*
X198385000Y-84188625I0J274875D01*
G01*
X198385000Y-83611375D01*
G75*
G02*
X198659875Y-83336500I274875J0D01*
G01*
G37*
G36*
G01*
X198659875Y-85161500D02*
X199612125Y-85161500D01*
G75*
G02*
X199887000Y-85436375I0J-274875D01*
G01*
X199887000Y-86013625D01*
G75*
G02*
X199612125Y-86288500I-274875J0D01*
G01*
X198659875Y-86288500D01*
G75*
G02*
X198385000Y-86013625I0J274875D01*
G01*
X198385000Y-85436375D01*
G75*
G02*
X198659875Y-85161500I274875J0D01*
G01*
G37*
G36*
G01*
X215765000Y-102520875D02*
X215765000Y-103473125D01*
G75*
G02*
X215490125Y-103748000I-274875J0D01*
G01*
X214912875Y-103748000D01*
G75*
G02*
X214638000Y-103473125I0J274875D01*
G01*
X214638000Y-102520875D01*
G75*
G02*
X214912875Y-102246000I274875J0D01*
G01*
X215490125Y-102246000D01*
G75*
G02*
X215765000Y-102520875I0J-274875D01*
G01*
G37*
G36*
G01*
X217590000Y-102520875D02*
X217590000Y-103473125D01*
G75*
G02*
X217315125Y-103748000I-274875J0D01*
G01*
X216737875Y-103748000D01*
G75*
G02*
X216463000Y-103473125I0J274875D01*
G01*
X216463000Y-102520875D01*
G75*
G02*
X216737875Y-102246000I274875J0D01*
G01*
X217315125Y-102246000D01*
G75*
G02*
X217590000Y-102520875I0J-274875D01*
G01*
G37*
G36*
G01*
X174841000Y-93718500D02*
X174841000Y-92717500D01*
G75*
G02*
X175116500Y-92442000I275500J0D01*
G01*
X175667500Y-92442000D01*
G75*
G02*
X175943000Y-92717500I0J-275500D01*
G01*
X175943000Y-93718500D01*
G75*
G02*
X175667500Y-93994000I-275500J0D01*
G01*
X175116500Y-93994000D01*
G75*
G02*
X174841000Y-93718500I0J275500D01*
G01*
G37*
G36*
G01*
X176741000Y-93718500D02*
X176741000Y-92717500D01*
G75*
G02*
X177016500Y-92442000I275500J0D01*
G01*
X177567500Y-92442000D01*
G75*
G02*
X177843000Y-92717500I0J-275500D01*
G01*
X177843000Y-93718500D01*
G75*
G02*
X177567500Y-93994000I-275500J0D01*
G01*
X177016500Y-93994000D01*
G75*
G02*
X176741000Y-93718500I0J275500D01*
G01*
G37*
G36*
G01*
X176736000Y-91686500D02*
X176736000Y-90685500D01*
G75*
G02*
X177011500Y-90410000I275500J0D01*
G01*
X177562500Y-90410000D01*
G75*
G02*
X177838000Y-90685500I0J-275500D01*
G01*
X177838000Y-91686500D01*
G75*
G02*
X177562500Y-91962000I-275500J0D01*
G01*
X177011500Y-91962000D01*
G75*
G02*
X176736000Y-91686500I0J275500D01*
G01*
G37*
G36*
G01*
X174836000Y-91686500D02*
X174836000Y-90685500D01*
G75*
G02*
X175111500Y-90410000I275500J0D01*
G01*
X175662500Y-90410000D01*
G75*
G02*
X175938000Y-90685500I0J-275500D01*
G01*
X175938000Y-91686500D01*
G75*
G02*
X175662500Y-91962000I-275500J0D01*
G01*
X175111500Y-91962000D01*
G75*
G02*
X174836000Y-91686500I0J275500D01*
G01*
G37*
G36*
G01*
X180434000Y-131344250D02*
X180434000Y-132307750D01*
G75*
G02*
X180164750Y-132577000I-269250J0D01*
G01*
X179626250Y-132577000D01*
G75*
G02*
X179357000Y-132307750I0J269250D01*
G01*
X179357000Y-131344250D01*
G75*
G02*
X179626250Y-131075000I269250J0D01*
G01*
X180164750Y-131075000D01*
G75*
G02*
X180434000Y-131344250I0J-269250D01*
G01*
G37*
G36*
G01*
X178559000Y-131344250D02*
X178559000Y-132307750D01*
G75*
G02*
X178289750Y-132577000I-269250J0D01*
G01*
X177751250Y-132577000D01*
G75*
G02*
X177482000Y-132307750I0J269250D01*
G01*
X177482000Y-131344250D01*
G75*
G02*
X177751250Y-131075000I269250J0D01*
G01*
X178289750Y-131075000D01*
G75*
G02*
X178559000Y-131344250I0J-269250D01*
G01*
G37*
G36*
G01*
X202718250Y-107635500D02*
X203681750Y-107635500D01*
G75*
G02*
X203951000Y-107904750I0J-269250D01*
G01*
X203951000Y-108443250D01*
G75*
G02*
X203681750Y-108712500I-269250J0D01*
G01*
X202718250Y-108712500D01*
G75*
G02*
X202449000Y-108443250I0J269250D01*
G01*
X202449000Y-107904750D01*
G75*
G02*
X202718250Y-107635500I269250J0D01*
G01*
G37*
G36*
G01*
X202718250Y-105760500D02*
X203681750Y-105760500D01*
G75*
G02*
X203951000Y-106029750I0J-269250D01*
G01*
X203951000Y-106568250D01*
G75*
G02*
X203681750Y-106837500I-269250J0D01*
G01*
X202718250Y-106837500D01*
G75*
G02*
X202449000Y-106568250I0J269250D01*
G01*
X202449000Y-106029750D01*
G75*
G02*
X202718250Y-105760500I269250J0D01*
G01*
G37*
G36*
G01*
X166993000Y-86246000D02*
X165493000Y-86246000D01*
G75*
G02*
X165442000Y-86195000I0J51000D01*
G01*
X165442000Y-85195000D01*
G75*
G02*
X165493000Y-85144000I51000J0D01*
G01*
X166993000Y-85144000D01*
G75*
G02*
X167044000Y-85195000I0J-51000D01*
G01*
X167044000Y-86195000D01*
G75*
G02*
X166993000Y-86246000I-51000J0D01*
G01*
G37*
G36*
G01*
X166993000Y-87546000D02*
X165493000Y-87546000D01*
G75*
G02*
X165442000Y-87495000I0J51000D01*
G01*
X165442000Y-86495000D01*
G75*
G02*
X165493000Y-86444000I51000J0D01*
G01*
X166993000Y-86444000D01*
G75*
G02*
X167044000Y-86495000I0J-51000D01*
G01*
X167044000Y-87495000D01*
G75*
G02*
X166993000Y-87546000I-51000J0D01*
G01*
G37*
G36*
G01*
X174383000Y-102984000D02*
X175883000Y-102984000D01*
G75*
G02*
X175934000Y-103035000I0J-51000D01*
G01*
X175934000Y-104035000D01*
G75*
G02*
X175883000Y-104086000I-51000J0D01*
G01*
X174383000Y-104086000D01*
G75*
G02*
X174332000Y-104035000I0J51000D01*
G01*
X174332000Y-103035000D01*
G75*
G02*
X174383000Y-102984000I51000J0D01*
G01*
G37*
G36*
G01*
X174383000Y-101684000D02*
X175883000Y-101684000D01*
G75*
G02*
X175934000Y-101735000I0J-51000D01*
G01*
X175934000Y-102735000D01*
G75*
G02*
X175883000Y-102786000I-51000J0D01*
G01*
X174383000Y-102786000D01*
G75*
G02*
X174332000Y-102735000I0J51000D01*
G01*
X174332000Y-101735000D01*
G75*
G02*
X174383000Y-101684000I51000J0D01*
G01*
G37*
G36*
G01*
X176923000Y-101684000D02*
X178423000Y-101684000D01*
G75*
G02*
X178474000Y-101735000I0J-51000D01*
G01*
X178474000Y-102735000D01*
G75*
G02*
X178423000Y-102786000I-51000J0D01*
G01*
X176923000Y-102786000D01*
G75*
G02*
X176872000Y-102735000I0J51000D01*
G01*
X176872000Y-101735000D01*
G75*
G02*
X176923000Y-101684000I51000J0D01*
G01*
G37*
G36*
G01*
X176923000Y-102984000D02*
X178423000Y-102984000D01*
G75*
G02*
X178474000Y-103035000I0J-51000D01*
G01*
X178474000Y-104035000D01*
G75*
G02*
X178423000Y-104086000I-51000J0D01*
G01*
X176923000Y-104086000D01*
G75*
G02*
X176872000Y-104035000I0J51000D01*
G01*
X176872000Y-103035000D01*
G75*
G02*
X176923000Y-102984000I51000J0D01*
G01*
G37*
G36*
G01*
X172474500Y-89185876D02*
X172474500Y-90138124D01*
G75*
G02*
X172199624Y-90413000I-274876J0D01*
G01*
X171622376Y-90413000D01*
G75*
G02*
X171347500Y-90138124I0J274876D01*
G01*
X171347500Y-89185876D01*
G75*
G02*
X171622376Y-88911000I274876J0D01*
G01*
X172199624Y-88911000D01*
G75*
G02*
X172474500Y-89185876I0J-274876D01*
G01*
G37*
G36*
G01*
X174299500Y-89185876D02*
X174299500Y-90138124D01*
G75*
G02*
X174024624Y-90413000I-274876J0D01*
G01*
X173447376Y-90413000D01*
G75*
G02*
X173172500Y-90138124I0J274876D01*
G01*
X173172500Y-89185876D01*
G75*
G02*
X173447376Y-88911000I274876J0D01*
G01*
X174024624Y-88911000D01*
G75*
G02*
X174299500Y-89185876I0J-274876D01*
G01*
G37*
G36*
G01*
X171356400Y-88131524D02*
X171356400Y-87179276D01*
G75*
G02*
X171631276Y-86904400I274876J0D01*
G01*
X172208524Y-86904400D01*
G75*
G02*
X172483400Y-87179276I0J-274876D01*
G01*
X172483400Y-88131524D01*
G75*
G02*
X172208524Y-88406400I-274876J0D01*
G01*
X171631276Y-88406400D01*
G75*
G02*
X171356400Y-88131524I0J274876D01*
G01*
G37*
G36*
G01*
X173181400Y-88131524D02*
X173181400Y-87179276D01*
G75*
G02*
X173456276Y-86904400I274876J0D01*
G01*
X174033524Y-86904400D01*
G75*
G02*
X174308400Y-87179276I0J-274876D01*
G01*
X174308400Y-88131524D01*
G75*
G02*
X174033524Y-88406400I-274876J0D01*
G01*
X173456276Y-88406400D01*
G75*
G02*
X173181400Y-88131524I0J274876D01*
G01*
G37*
G36*
G01*
X171799124Y-98988500D02*
X170846876Y-98988500D01*
G75*
G02*
X170572000Y-98713624I0J274876D01*
G01*
X170572000Y-98136376D01*
G75*
G02*
X170846876Y-97861500I274876J0D01*
G01*
X171799124Y-97861500D01*
G75*
G02*
X172074000Y-98136376I0J-274876D01*
G01*
X172074000Y-98713624D01*
G75*
G02*
X171799124Y-98988500I-274876J0D01*
G01*
G37*
G36*
G01*
X171799124Y-97163500D02*
X170846876Y-97163500D01*
G75*
G02*
X170572000Y-96888624I0J274876D01*
G01*
X170572000Y-96311376D01*
G75*
G02*
X170846876Y-96036500I274876J0D01*
G01*
X171799124Y-96036500D01*
G75*
G02*
X172074000Y-96311376I0J-274876D01*
G01*
X172074000Y-96888624D01*
G75*
G02*
X171799124Y-97163500I-274876J0D01*
G01*
G37*
G36*
G01*
X205708124Y-106862500D02*
X204755876Y-106862500D01*
G75*
G02*
X204481000Y-106587624I0J274876D01*
G01*
X204481000Y-106010376D01*
G75*
G02*
X204755876Y-105735500I274876J0D01*
G01*
X205708124Y-105735500D01*
G75*
G02*
X205983000Y-106010376I0J-274876D01*
G01*
X205983000Y-106587624D01*
G75*
G02*
X205708124Y-106862500I-274876J0D01*
G01*
G37*
G36*
G01*
X205708124Y-108687500D02*
X204755876Y-108687500D01*
G75*
G02*
X204481000Y-108412624I0J274876D01*
G01*
X204481000Y-107835376D01*
G75*
G02*
X204755876Y-107560500I274876J0D01*
G01*
X205708124Y-107560500D01*
G75*
G02*
X205983000Y-107835376I0J-274876D01*
G01*
X205983000Y-108412624D01*
G75*
G02*
X205708124Y-108687500I-274876J0D01*
G01*
G37*
G36*
G01*
X176295000Y-95897000D02*
X176471000Y-95897000D01*
G75*
G02*
X176559000Y-95985000I0J-88000D01*
G01*
X176559000Y-96736000D01*
G75*
G02*
X176471000Y-96824000I-88000J0D01*
G01*
X176295000Y-96824000D01*
G75*
G02*
X176207000Y-96736000I0J88000D01*
G01*
X176207000Y-95985000D01*
G75*
G02*
X176295000Y-95897000I88000J0D01*
G01*
G37*
G36*
G01*
X175795000Y-95897000D02*
X175971000Y-95897000D01*
G75*
G02*
X176059000Y-95985000I0J-88000D01*
G01*
X176059000Y-96736000D01*
G75*
G02*
X175971000Y-96824000I-88000J0D01*
G01*
X175795000Y-96824000D01*
G75*
G02*
X175707000Y-96736000I0J88000D01*
G01*
X175707000Y-95985000D01*
G75*
G02*
X175795000Y-95897000I88000J0D01*
G01*
G37*
G36*
G01*
X175295000Y-95897000D02*
X175471000Y-95897000D01*
G75*
G02*
X175559000Y-95985000I0J-88000D01*
G01*
X175559000Y-96736000D01*
G75*
G02*
X175471000Y-96824000I-88000J0D01*
G01*
X175295000Y-96824000D01*
G75*
G02*
X175207000Y-96736000I0J88000D01*
G01*
X175207000Y-95985000D01*
G75*
G02*
X175295000Y-95897000I88000J0D01*
G01*
G37*
G36*
G01*
X174795000Y-95897000D02*
X174971000Y-95897000D01*
G75*
G02*
X175059000Y-95985000I0J-88000D01*
G01*
X175059000Y-96736000D01*
G75*
G02*
X174971000Y-96824000I-88000J0D01*
G01*
X174795000Y-96824000D01*
G75*
G02*
X174707000Y-96736000I0J88000D01*
G01*
X174707000Y-95985000D01*
G75*
G02*
X174795000Y-95897000I88000J0D01*
G01*
G37*
G36*
G01*
X174295000Y-95897000D02*
X174471000Y-95897000D01*
G75*
G02*
X174559000Y-95985000I0J-88000D01*
G01*
X174559000Y-96736000D01*
G75*
G02*
X174471000Y-96824000I-88000J0D01*
G01*
X174295000Y-96824000D01*
G75*
G02*
X174207000Y-96736000I0J88000D01*
G01*
X174207000Y-95985000D01*
G75*
G02*
X174295000Y-95897000I88000J0D01*
G01*
G37*
G36*
G01*
X173795000Y-95897000D02*
X173971000Y-95897000D01*
G75*
G02*
X174059000Y-95985000I0J-88000D01*
G01*
X174059000Y-96736000D01*
G75*
G02*
X173971000Y-96824000I-88000J0D01*
G01*
X173795000Y-96824000D01*
G75*
G02*
X173707000Y-96736000I0J88000D01*
G01*
X173707000Y-95985000D01*
G75*
G02*
X173795000Y-95897000I88000J0D01*
G01*
G37*
G36*
G01*
X172820000Y-96872000D02*
X173571000Y-96872000D01*
G75*
G02*
X173659000Y-96960000I0J-88000D01*
G01*
X173659000Y-97136000D01*
G75*
G02*
X173571000Y-97224000I-88000J0D01*
G01*
X172820000Y-97224000D01*
G75*
G02*
X172732000Y-97136000I0J88000D01*
G01*
X172732000Y-96960000D01*
G75*
G02*
X172820000Y-96872000I88000J0D01*
G01*
G37*
G36*
G01*
X172820000Y-97372000D02*
X173571000Y-97372000D01*
G75*
G02*
X173659000Y-97460000I0J-88000D01*
G01*
X173659000Y-97636000D01*
G75*
G02*
X173571000Y-97724000I-88000J0D01*
G01*
X172820000Y-97724000D01*
G75*
G02*
X172732000Y-97636000I0J88000D01*
G01*
X172732000Y-97460000D01*
G75*
G02*
X172820000Y-97372000I88000J0D01*
G01*
G37*
G36*
G01*
X172820000Y-97872000D02*
X173571000Y-97872000D01*
G75*
G02*
X173659000Y-97960000I0J-88000D01*
G01*
X173659000Y-98136000D01*
G75*
G02*
X173571000Y-98224000I-88000J0D01*
G01*
X172820000Y-98224000D01*
G75*
G02*
X172732000Y-98136000I0J88000D01*
G01*
X172732000Y-97960000D01*
G75*
G02*
X172820000Y-97872000I88000J0D01*
G01*
G37*
G36*
G01*
X172820000Y-98372000D02*
X173571000Y-98372000D01*
G75*
G02*
X173659000Y-98460000I0J-88000D01*
G01*
X173659000Y-98636000D01*
G75*
G02*
X173571000Y-98724000I-88000J0D01*
G01*
X172820000Y-98724000D01*
G75*
G02*
X172732000Y-98636000I0J88000D01*
G01*
X172732000Y-98460000D01*
G75*
G02*
X172820000Y-98372000I88000J0D01*
G01*
G37*
G36*
G01*
X172820000Y-98872000D02*
X173571000Y-98872000D01*
G75*
G02*
X173659000Y-98960000I0J-88000D01*
G01*
X173659000Y-99136000D01*
G75*
G02*
X173571000Y-99224000I-88000J0D01*
G01*
X172820000Y-99224000D01*
G75*
G02*
X172732000Y-99136000I0J88000D01*
G01*
X172732000Y-98960000D01*
G75*
G02*
X172820000Y-98872000I88000J0D01*
G01*
G37*
G36*
G01*
X172820000Y-99372000D02*
X173571000Y-99372000D01*
G75*
G02*
X173659000Y-99460000I0J-88000D01*
G01*
X173659000Y-99636000D01*
G75*
G02*
X173571000Y-99724000I-88000J0D01*
G01*
X172820000Y-99724000D01*
G75*
G02*
X172732000Y-99636000I0J88000D01*
G01*
X172732000Y-99460000D01*
G75*
G02*
X172820000Y-99372000I88000J0D01*
G01*
G37*
G36*
G01*
X173795000Y-99772000D02*
X173971000Y-99772000D01*
G75*
G02*
X174059000Y-99860000I0J-88000D01*
G01*
X174059000Y-100611000D01*
G75*
G02*
X173971000Y-100699000I-88000J0D01*
G01*
X173795000Y-100699000D01*
G75*
G02*
X173707000Y-100611000I0J88000D01*
G01*
X173707000Y-99860000D01*
G75*
G02*
X173795000Y-99772000I88000J0D01*
G01*
G37*
G36*
G01*
X174295000Y-99772000D02*
X174471000Y-99772000D01*
G75*
G02*
X174559000Y-99860000I0J-88000D01*
G01*
X174559000Y-100611000D01*
G75*
G02*
X174471000Y-100699000I-88000J0D01*
G01*
X174295000Y-100699000D01*
G75*
G02*
X174207000Y-100611000I0J88000D01*
G01*
X174207000Y-99860000D01*
G75*
G02*
X174295000Y-99772000I88000J0D01*
G01*
G37*
G36*
G01*
X174795000Y-99772000D02*
X174971000Y-99772000D01*
G75*
G02*
X175059000Y-99860000I0J-88000D01*
G01*
X175059000Y-100611000D01*
G75*
G02*
X174971000Y-100699000I-88000J0D01*
G01*
X174795000Y-100699000D01*
G75*
G02*
X174707000Y-100611000I0J88000D01*
G01*
X174707000Y-99860000D01*
G75*
G02*
X174795000Y-99772000I88000J0D01*
G01*
G37*
G36*
G01*
X175295000Y-99772000D02*
X175471000Y-99772000D01*
G75*
G02*
X175559000Y-99860000I0J-88000D01*
G01*
X175559000Y-100611000D01*
G75*
G02*
X175471000Y-100699000I-88000J0D01*
G01*
X175295000Y-100699000D01*
G75*
G02*
X175207000Y-100611000I0J88000D01*
G01*
X175207000Y-99860000D01*
G75*
G02*
X175295000Y-99772000I88000J0D01*
G01*
G37*
G36*
G01*
X175795000Y-99772000D02*
X175971000Y-99772000D01*
G75*
G02*
X176059000Y-99860000I0J-88000D01*
G01*
X176059000Y-100611000D01*
G75*
G02*
X175971000Y-100699000I-88000J0D01*
G01*
X175795000Y-100699000D01*
G75*
G02*
X175707000Y-100611000I0J88000D01*
G01*
X175707000Y-99860000D01*
G75*
G02*
X175795000Y-99772000I88000J0D01*
G01*
G37*
G36*
G01*
X176295000Y-99772000D02*
X176471000Y-99772000D01*
G75*
G02*
X176559000Y-99860000I0J-88000D01*
G01*
X176559000Y-100611000D01*
G75*
G02*
X176471000Y-100699000I-88000J0D01*
G01*
X176295000Y-100699000D01*
G75*
G02*
X176207000Y-100611000I0J88000D01*
G01*
X176207000Y-99860000D01*
G75*
G02*
X176295000Y-99772000I88000J0D01*
G01*
G37*
G36*
G01*
X176695000Y-99372000D02*
X177446000Y-99372000D01*
G75*
G02*
X177534000Y-99460000I0J-88000D01*
G01*
X177534000Y-99636000D01*
G75*
G02*
X177446000Y-99724000I-88000J0D01*
G01*
X176695000Y-99724000D01*
G75*
G02*
X176607000Y-99636000I0J88000D01*
G01*
X176607000Y-99460000D01*
G75*
G02*
X176695000Y-99372000I88000J0D01*
G01*
G37*
G36*
G01*
X176695000Y-98872000D02*
X177446000Y-98872000D01*
G75*
G02*
X177534000Y-98960000I0J-88000D01*
G01*
X177534000Y-99136000D01*
G75*
G02*
X177446000Y-99224000I-88000J0D01*
G01*
X176695000Y-99224000D01*
G75*
G02*
X176607000Y-99136000I0J88000D01*
G01*
X176607000Y-98960000D01*
G75*
G02*
X176695000Y-98872000I88000J0D01*
G01*
G37*
G36*
G01*
X176695000Y-98372000D02*
X177446000Y-98372000D01*
G75*
G02*
X177534000Y-98460000I0J-88000D01*
G01*
X177534000Y-98636000D01*
G75*
G02*
X177446000Y-98724000I-88000J0D01*
G01*
X176695000Y-98724000D01*
G75*
G02*
X176607000Y-98636000I0J88000D01*
G01*
X176607000Y-98460000D01*
G75*
G02*
X176695000Y-98372000I88000J0D01*
G01*
G37*
G36*
G01*
X176695000Y-97872000D02*
X177446000Y-97872000D01*
G75*
G02*
X177534000Y-97960000I0J-88000D01*
G01*
X177534000Y-98136000D01*
G75*
G02*
X177446000Y-98224000I-88000J0D01*
G01*
X176695000Y-98224000D01*
G75*
G02*
X176607000Y-98136000I0J88000D01*
G01*
X176607000Y-97960000D01*
G75*
G02*
X176695000Y-97872000I88000J0D01*
G01*
G37*
G36*
G01*
X176695000Y-97372000D02*
X177446000Y-97372000D01*
G75*
G02*
X177534000Y-97460000I0J-88000D01*
G01*
X177534000Y-97636000D01*
G75*
G02*
X177446000Y-97724000I-88000J0D01*
G01*
X176695000Y-97724000D01*
G75*
G02*
X176607000Y-97636000I0J88000D01*
G01*
X176607000Y-97460000D01*
G75*
G02*
X176695000Y-97372000I88000J0D01*
G01*
G37*
G36*
G01*
X176695000Y-96872000D02*
X177446000Y-96872000D01*
G75*
G02*
X177534000Y-96960000I0J-88000D01*
G01*
X177534000Y-97136000D01*
G75*
G02*
X177446000Y-97224000I-88000J0D01*
G01*
X176695000Y-97224000D01*
G75*
G02*
X176607000Y-97136000I0J88000D01*
G01*
X176607000Y-96960000D01*
G75*
G02*
X176695000Y-96872000I88000J0D01*
G01*
G37*
G36*
G01*
X173833000Y-96947000D02*
X176433000Y-96947000D01*
G75*
G02*
X176484000Y-96998000I0J-51000D01*
G01*
X176484000Y-99598000D01*
G75*
G02*
X176433000Y-99649000I-51000J0D01*
G01*
X173833000Y-99649000D01*
G75*
G02*
X173782000Y-99598000I0J51000D01*
G01*
X173782000Y-96998000D01*
G75*
G02*
X173833000Y-96947000I51000J0D01*
G01*
G37*
D14*
G36*
X212492990Y-131797805D02*
G01*
X212495372Y-131821992D01*
X212502372Y-131845067D01*
X212513737Y-131866331D01*
X212529032Y-131884968D01*
X212547669Y-131900263D01*
X212568933Y-131911628D01*
X212592008Y-131918628D01*
X212616093Y-131921000D01*
X212689000Y-131921000D01*
X212690732Y-131922000D01*
X212691000Y-131923000D01*
X212691000Y-132425000D01*
X212690000Y-132426732D01*
X212689000Y-132427000D01*
X212616093Y-132427000D01*
X212592008Y-132429372D01*
X212568933Y-132436372D01*
X212547669Y-132447737D01*
X212529032Y-132463032D01*
X212513737Y-132481669D01*
X212502372Y-132502933D01*
X212495372Y-132526008D01*
X212492990Y-132550195D01*
X212491825Y-132551821D01*
X212489835Y-132551625D01*
X212489000Y-132549999D01*
X212489000Y-131798001D01*
X212490000Y-131796269D01*
X212492000Y-131796269D01*
X212492990Y-131797805D01*
G37*
G36*
X211690165Y-131796375D02*
G01*
X211691000Y-131798001D01*
X211691000Y-132549999D01*
X211690000Y-132551731D01*
X211688000Y-132551731D01*
X211687010Y-132550195D01*
X211684628Y-132526008D01*
X211677628Y-132502933D01*
X211666263Y-132481669D01*
X211650968Y-132463032D01*
X211632331Y-132447737D01*
X211611067Y-132436372D01*
X211587992Y-132429372D01*
X211563907Y-132427000D01*
X211491000Y-132427000D01*
X211489268Y-132426000D01*
X211489000Y-132425000D01*
X211489000Y-131923000D01*
X211490000Y-131921268D01*
X211491000Y-131921000D01*
X211563907Y-131921000D01*
X211587992Y-131918628D01*
X211611067Y-131911628D01*
X211632331Y-131900263D01*
X211650968Y-131884968D01*
X211666263Y-131866331D01*
X211677628Y-131845067D01*
X211684628Y-131821992D01*
X211687010Y-131797805D01*
X211688175Y-131796179D01*
X211690165Y-131796375D01*
G37*
G36*
X212492990Y-130847805D02*
G01*
X212495372Y-130871992D01*
X212502372Y-130895067D01*
X212513737Y-130916331D01*
X212529032Y-130934968D01*
X212547669Y-130950263D01*
X212568933Y-130961628D01*
X212592008Y-130968628D01*
X212616093Y-130971000D01*
X212689000Y-130971000D01*
X212690732Y-130972000D01*
X212691000Y-130973000D01*
X212691000Y-131475000D01*
X212690000Y-131476732D01*
X212689000Y-131477000D01*
X212616093Y-131477000D01*
X212592008Y-131479372D01*
X212568933Y-131486372D01*
X212547669Y-131497737D01*
X212529032Y-131513032D01*
X212513737Y-131531669D01*
X212502372Y-131552933D01*
X212495372Y-131576008D01*
X212492990Y-131600195D01*
X212491825Y-131601821D01*
X212489835Y-131601625D01*
X212489000Y-131599999D01*
X212489000Y-130848001D01*
X212490000Y-130846269D01*
X212492000Y-130846269D01*
X212492990Y-130847805D01*
G37*
G36*
X211690165Y-130846375D02*
G01*
X211691000Y-130848001D01*
X211691000Y-131599999D01*
X211690000Y-131601731D01*
X211688000Y-131601731D01*
X211687010Y-131600195D01*
X211684628Y-131576008D01*
X211677628Y-131552933D01*
X211666263Y-131531669D01*
X211650968Y-131513032D01*
X211632331Y-131497737D01*
X211611067Y-131486372D01*
X211587992Y-131479372D01*
X211563907Y-131477000D01*
X211491000Y-131477000D01*
X211489268Y-131476000D01*
X211489000Y-131475000D01*
X211489000Y-130973000D01*
X211490000Y-130971268D01*
X211491000Y-130971000D01*
X211563907Y-130971000D01*
X211587992Y-130968628D01*
X211611067Y-130961628D01*
X211632331Y-130950263D01*
X211650968Y-130934968D01*
X211666263Y-130916331D01*
X211677628Y-130895067D01*
X211684628Y-130871992D01*
X211687010Y-130847805D01*
X211688175Y-130846179D01*
X211690165Y-130846375D01*
G37*
G36*
X207580732Y-107530000D02*
G01*
X207581000Y-107531000D01*
X207581000Y-107629000D01*
X207580000Y-107630732D01*
X207579000Y-107631000D01*
X206879000Y-107631000D01*
X206877268Y-107630000D01*
X206877000Y-107629000D01*
X206877000Y-107531000D01*
X206878000Y-107529268D01*
X206879000Y-107529000D01*
X207579000Y-107529000D01*
X207580732Y-107530000D01*
G37*
G36*
X209682732Y-107530000D02*
G01*
X209683000Y-107531000D01*
X209683000Y-107629000D01*
X209682000Y-107630732D01*
X209681000Y-107631000D01*
X208981000Y-107631000D01*
X208979268Y-107630000D01*
X208979000Y-107629000D01*
X208979000Y-107531000D01*
X208980000Y-107529268D01*
X208981000Y-107529000D01*
X209681000Y-107529000D01*
X209682732Y-107530000D01*
G37*
G36*
X207580732Y-106930000D02*
G01*
X207581000Y-106931000D01*
X207581000Y-107029000D01*
X207580000Y-107030732D01*
X207579000Y-107031000D01*
X206879000Y-107031000D01*
X206877268Y-107030000D01*
X206877000Y-107029000D01*
X206877000Y-106931000D01*
X206878000Y-106929268D01*
X206879000Y-106929000D01*
X207579000Y-106929000D01*
X207580732Y-106930000D01*
G37*
G36*
X209682732Y-106930000D02*
G01*
X209683000Y-106931000D01*
X209683000Y-107029000D01*
X209682000Y-107030732D01*
X209681000Y-107031000D01*
X208981000Y-107031000D01*
X208979268Y-107030000D01*
X208979000Y-107029000D01*
X208979000Y-106931000D01*
X208980000Y-106929268D01*
X208981000Y-106929000D01*
X209681000Y-106929000D01*
X209682732Y-106930000D01*
G37*
G36*
X209682732Y-106330000D02*
G01*
X209683000Y-106331000D01*
X209683000Y-106429000D01*
X209682000Y-106430732D01*
X209681000Y-106431000D01*
X208981000Y-106431000D01*
X208979268Y-106430000D01*
X208979000Y-106429000D01*
X208979000Y-106331000D01*
X208980000Y-106329268D01*
X208981000Y-106329000D01*
X209681000Y-106329000D01*
X209682732Y-106330000D01*
G37*
G36*
X207580732Y-106330000D02*
G01*
X207581000Y-106331000D01*
X207581000Y-106429000D01*
X207580000Y-106430732D01*
X207579000Y-106431000D01*
X206879000Y-106431000D01*
X206877268Y-106430000D01*
X206877000Y-106429000D01*
X206877000Y-106331000D01*
X206878000Y-106329268D01*
X206879000Y-106329000D01*
X207579000Y-106329000D01*
X207580732Y-106330000D01*
G37*
G36*
X209682732Y-105730000D02*
G01*
X209683000Y-105731000D01*
X209683000Y-105829000D01*
X209682000Y-105830732D01*
X209681000Y-105831000D01*
X208981000Y-105831000D01*
X208979268Y-105830000D01*
X208979000Y-105829000D01*
X208979000Y-105781000D01*
X208980000Y-105779268D01*
X208981000Y-105779000D01*
X209048297Y-105779000D01*
X209001711Y-105732414D01*
X209001193Y-105730482D01*
X209003125Y-105729000D01*
X209681000Y-105729000D01*
X209682732Y-105730000D01*
G37*
G36*
X207558607Y-105730000D02*
G01*
X207558289Y-105732414D01*
X207511703Y-105779000D01*
X207579000Y-105779000D01*
X207580732Y-105780000D01*
X207581000Y-105781000D01*
X207581000Y-105829000D01*
X207580000Y-105830732D01*
X207579000Y-105831000D01*
X206879000Y-105831000D01*
X206877268Y-105830000D01*
X206877000Y-105829000D01*
X206877000Y-105731000D01*
X206878000Y-105729268D01*
X206879000Y-105729000D01*
X207556875Y-105729000D01*
X207558607Y-105730000D01*
G37*
G36*
X207582990Y-105404905D02*
G01*
X207585372Y-105429092D01*
X207592372Y-105452167D01*
X207603737Y-105473431D01*
X207619032Y-105492068D01*
X207637669Y-105507363D01*
X207658933Y-105518728D01*
X207682008Y-105525728D01*
X207705999Y-105528091D01*
X207729990Y-105525728D01*
X207753065Y-105518728D01*
X207774329Y-105507363D01*
X207793112Y-105491948D01*
X207795086Y-105491622D01*
X207796354Y-105493168D01*
X207795795Y-105494908D01*
X207610289Y-105680414D01*
X207608875Y-105681000D01*
X207581000Y-105681000D01*
X207579268Y-105680000D01*
X207579000Y-105679000D01*
X207579000Y-105405101D01*
X207580000Y-105403369D01*
X207582000Y-105403369D01*
X207582990Y-105404905D01*
G37*
G36*
X175935732Y-102785000D02*
G01*
X175936000Y-102786000D01*
X175936000Y-102984000D01*
X175935000Y-102985732D01*
X175934000Y-102986000D01*
X174332000Y-102986000D01*
X174330268Y-102985000D01*
X174330000Y-102984000D01*
X174330000Y-102786000D01*
X174331000Y-102784268D01*
X174332000Y-102784000D01*
X175934000Y-102784000D01*
X175935732Y-102785000D01*
G37*
G36*
X178475732Y-102785000D02*
G01*
X178476000Y-102786000D01*
X178476000Y-102984000D01*
X178475000Y-102985732D01*
X178474000Y-102986000D01*
X176872000Y-102986000D01*
X176870268Y-102985000D01*
X176870000Y-102984000D01*
X176870000Y-102786000D01*
X176871000Y-102784268D01*
X176872000Y-102784000D01*
X178474000Y-102784000D01*
X178475732Y-102785000D01*
G37*
G36*
X174027555Y-95895010D02*
G01*
X174038551Y-95896093D01*
X174038936Y-95896169D01*
X174043610Y-95897587D01*
X174043972Y-95897737D01*
X174048273Y-95900036D01*
X174048599Y-95900254D01*
X174054896Y-95905421D01*
X174075023Y-95918870D01*
X174097297Y-95928096D01*
X174120948Y-95932800D01*
X174145054Y-95932800D01*
X174168704Y-95928095D01*
X174190978Y-95918869D01*
X174211104Y-95905421D01*
X174217401Y-95900254D01*
X174217727Y-95900036D01*
X174222028Y-95897737D01*
X174222390Y-95897587D01*
X174227064Y-95896169D01*
X174227449Y-95896093D01*
X174238445Y-95895010D01*
X174238641Y-95895000D01*
X174295000Y-95895000D01*
X174296732Y-95896000D01*
X174296732Y-95898000D01*
X174295196Y-95898990D01*
X174278227Y-95900661D01*
X174262093Y-95905556D01*
X174247226Y-95913502D01*
X174234196Y-95924196D01*
X174223502Y-95937226D01*
X174215556Y-95952093D01*
X174210661Y-95968227D01*
X174209000Y-95985094D01*
X174209000Y-96735906D01*
X174210661Y-96752773D01*
X174215556Y-96768907D01*
X174223502Y-96783774D01*
X174234196Y-96796804D01*
X174247226Y-96807498D01*
X174262093Y-96815444D01*
X174278227Y-96820339D01*
X174295094Y-96822000D01*
X174470906Y-96822000D01*
X174487773Y-96820339D01*
X174503907Y-96815444D01*
X174518774Y-96807498D01*
X174531804Y-96796804D01*
X174542498Y-96783774D01*
X174550444Y-96768907D01*
X174555339Y-96752773D01*
X174557000Y-96735906D01*
X174557000Y-95985094D01*
X174555339Y-95968227D01*
X174550444Y-95952093D01*
X174542498Y-95937226D01*
X174531804Y-95924196D01*
X174518774Y-95913502D01*
X174503907Y-95905556D01*
X174487773Y-95900661D01*
X174470804Y-95898990D01*
X174469178Y-95897825D01*
X174469374Y-95895835D01*
X174471000Y-95895000D01*
X174527359Y-95895000D01*
X174527555Y-95895010D01*
X174538551Y-95896093D01*
X174538936Y-95896169D01*
X174543610Y-95897587D01*
X174543972Y-95897737D01*
X174548273Y-95900036D01*
X174548599Y-95900254D01*
X174554896Y-95905421D01*
X174575023Y-95918870D01*
X174597297Y-95928096D01*
X174620948Y-95932800D01*
X174645054Y-95932800D01*
X174668704Y-95928095D01*
X174690978Y-95918869D01*
X174711104Y-95905421D01*
X174717401Y-95900254D01*
X174717727Y-95900036D01*
X174722028Y-95897737D01*
X174722390Y-95897587D01*
X174727064Y-95896169D01*
X174727449Y-95896093D01*
X174738445Y-95895010D01*
X174738641Y-95895000D01*
X174795000Y-95895000D01*
X174796732Y-95896000D01*
X174796732Y-95898000D01*
X174795196Y-95898990D01*
X174778227Y-95900661D01*
X174762093Y-95905556D01*
X174747226Y-95913502D01*
X174734196Y-95924196D01*
X174723502Y-95937226D01*
X174715556Y-95952093D01*
X174710661Y-95968227D01*
X174709000Y-95985094D01*
X174709000Y-96735906D01*
X174710661Y-96752773D01*
X174715556Y-96768907D01*
X174723502Y-96783774D01*
X174734196Y-96796804D01*
X174747226Y-96807498D01*
X174762093Y-96815444D01*
X174778227Y-96820339D01*
X174795094Y-96822000D01*
X174970906Y-96822000D01*
X174987773Y-96820339D01*
X175003907Y-96815444D01*
X175018774Y-96807498D01*
X175031804Y-96796804D01*
X175042498Y-96783774D01*
X175050444Y-96768907D01*
X175055339Y-96752773D01*
X175057000Y-96735906D01*
X175057000Y-95985094D01*
X175055339Y-95968227D01*
X175050444Y-95952093D01*
X175042498Y-95937226D01*
X175031804Y-95924196D01*
X175018774Y-95913502D01*
X175003907Y-95905556D01*
X174987773Y-95900661D01*
X174970804Y-95898990D01*
X174969178Y-95897825D01*
X174969374Y-95895835D01*
X174971000Y-95895000D01*
X175027359Y-95895000D01*
X175027555Y-95895010D01*
X175038551Y-95896093D01*
X175038936Y-95896169D01*
X175043610Y-95897587D01*
X175043972Y-95897737D01*
X175048273Y-95900036D01*
X175048599Y-95900254D01*
X175054896Y-95905421D01*
X175075023Y-95918870D01*
X175097297Y-95928096D01*
X175120948Y-95932800D01*
X175145054Y-95932800D01*
X175168704Y-95928095D01*
X175190978Y-95918869D01*
X175211104Y-95905421D01*
X175217401Y-95900254D01*
X175217727Y-95900036D01*
X175222028Y-95897737D01*
X175222390Y-95897587D01*
X175227064Y-95896169D01*
X175227449Y-95896093D01*
X175238445Y-95895010D01*
X175238641Y-95895000D01*
X175295000Y-95895000D01*
X175296732Y-95896000D01*
X175296732Y-95898000D01*
X175295196Y-95898990D01*
X175278227Y-95900661D01*
X175262093Y-95905556D01*
X175247226Y-95913502D01*
X175234196Y-95924196D01*
X175223502Y-95937226D01*
X175215556Y-95952093D01*
X175210661Y-95968227D01*
X175209000Y-95985094D01*
X175209000Y-96735906D01*
X175210661Y-96752773D01*
X175215556Y-96768907D01*
X175223502Y-96783774D01*
X175234196Y-96796804D01*
X175247226Y-96807498D01*
X175262093Y-96815444D01*
X175278227Y-96820339D01*
X175295094Y-96822000D01*
X175470906Y-96822000D01*
X175487773Y-96820339D01*
X175503907Y-96815444D01*
X175518774Y-96807498D01*
X175531804Y-96796804D01*
X175542498Y-96783774D01*
X175550444Y-96768907D01*
X175555339Y-96752773D01*
X175557000Y-96735906D01*
X175557000Y-95985094D01*
X175555339Y-95968227D01*
X175550444Y-95952093D01*
X175542498Y-95937226D01*
X175531804Y-95924196D01*
X175518774Y-95913502D01*
X175503907Y-95905556D01*
X175487773Y-95900661D01*
X175470804Y-95898990D01*
X175469178Y-95897825D01*
X175469374Y-95895835D01*
X175471000Y-95895000D01*
X175527359Y-95895000D01*
X175527555Y-95895010D01*
X175538551Y-95896093D01*
X175538936Y-95896169D01*
X175543610Y-95897587D01*
X175543972Y-95897737D01*
X175548273Y-95900036D01*
X175548599Y-95900254D01*
X175554896Y-95905421D01*
X175575023Y-95918870D01*
X175597297Y-95928096D01*
X175620948Y-95932800D01*
X175645054Y-95932800D01*
X175668704Y-95928095D01*
X175690978Y-95918869D01*
X175711104Y-95905421D01*
X175717401Y-95900254D01*
X175717727Y-95900036D01*
X175722028Y-95897737D01*
X175722390Y-95897587D01*
X175727064Y-95896169D01*
X175727449Y-95896093D01*
X175738445Y-95895010D01*
X175738641Y-95895000D01*
X175795000Y-95895000D01*
X175796732Y-95896000D01*
X175796732Y-95898000D01*
X175795196Y-95898990D01*
X175778227Y-95900661D01*
X175762093Y-95905556D01*
X175747226Y-95913502D01*
X175734196Y-95924196D01*
X175723502Y-95937226D01*
X175715556Y-95952093D01*
X175710661Y-95968227D01*
X175709000Y-95985094D01*
X175709000Y-96735906D01*
X175710661Y-96752773D01*
X175715556Y-96768907D01*
X175723502Y-96783774D01*
X175734196Y-96796804D01*
X175747226Y-96807498D01*
X175762093Y-96815444D01*
X175778227Y-96820339D01*
X175795094Y-96822000D01*
X175970906Y-96822000D01*
X175987773Y-96820339D01*
X176003907Y-96815444D01*
X176018774Y-96807498D01*
X176031804Y-96796804D01*
X176042498Y-96783774D01*
X176050444Y-96768907D01*
X176055339Y-96752773D01*
X176057000Y-96735906D01*
X176057000Y-95985094D01*
X176055339Y-95968227D01*
X176050444Y-95952093D01*
X176042498Y-95937226D01*
X176031804Y-95924196D01*
X176018774Y-95913502D01*
X176003907Y-95905556D01*
X175987773Y-95900661D01*
X175970804Y-95898990D01*
X175969178Y-95897825D01*
X175969374Y-95895835D01*
X175971000Y-95895000D01*
X176027359Y-95895000D01*
X176027555Y-95895010D01*
X176038551Y-95896093D01*
X176038936Y-95896169D01*
X176043610Y-95897587D01*
X176043972Y-95897737D01*
X176048273Y-95900036D01*
X176048599Y-95900254D01*
X176054896Y-95905421D01*
X176075023Y-95918870D01*
X176097297Y-95928096D01*
X176120948Y-95932800D01*
X176145054Y-95932800D01*
X176168704Y-95928095D01*
X176190978Y-95918869D01*
X176211104Y-95905421D01*
X176217401Y-95900254D01*
X176217727Y-95900036D01*
X176222028Y-95897737D01*
X176222390Y-95897587D01*
X176227064Y-95896169D01*
X176227449Y-95896093D01*
X176238445Y-95895010D01*
X176238641Y-95895000D01*
X176295000Y-95895000D01*
X176296732Y-95896000D01*
X176296732Y-95898000D01*
X176295196Y-95898990D01*
X176278227Y-95900661D01*
X176262093Y-95905556D01*
X176247226Y-95913502D01*
X176234196Y-95924196D01*
X176223502Y-95937226D01*
X176215556Y-95952093D01*
X176210661Y-95968227D01*
X176209000Y-95985094D01*
X176209000Y-96735906D01*
X176210661Y-96752773D01*
X176215556Y-96768907D01*
X176223502Y-96783774D01*
X176234196Y-96796804D01*
X176247226Y-96807498D01*
X176262093Y-96815444D01*
X176278227Y-96820339D01*
X176295094Y-96822000D01*
X176470906Y-96822000D01*
X176487773Y-96820339D01*
X176503907Y-96815444D01*
X176518774Y-96807498D01*
X176531804Y-96796804D01*
X176542498Y-96783774D01*
X176550444Y-96768907D01*
X176555339Y-96752773D01*
X176557010Y-96735804D01*
X176558175Y-96734178D01*
X176560165Y-96734374D01*
X176561000Y-96736000D01*
X176561000Y-96746907D01*
X176563372Y-96770992D01*
X176570372Y-96794067D01*
X176581737Y-96815331D01*
X176597032Y-96833968D01*
X176615669Y-96849263D01*
X176636933Y-96860628D01*
X176660008Y-96867628D01*
X176684093Y-96870000D01*
X176695000Y-96870000D01*
X176696732Y-96871000D01*
X176696732Y-96873000D01*
X176695196Y-96873990D01*
X176678227Y-96875661D01*
X176662093Y-96880556D01*
X176647226Y-96888502D01*
X176634196Y-96899196D01*
X176623502Y-96912226D01*
X176615556Y-96927093D01*
X176610661Y-96943227D01*
X176609000Y-96960094D01*
X176609000Y-97135906D01*
X176610661Y-97152773D01*
X176615556Y-97168907D01*
X176623502Y-97183774D01*
X176634196Y-97196804D01*
X176647226Y-97207498D01*
X176662093Y-97215444D01*
X176678227Y-97220339D01*
X176695094Y-97222000D01*
X177445906Y-97222000D01*
X177462773Y-97220339D01*
X177478907Y-97215444D01*
X177493774Y-97207498D01*
X177506804Y-97196804D01*
X177517498Y-97183774D01*
X177525444Y-97168907D01*
X177530339Y-97152773D01*
X177532010Y-97135804D01*
X177533175Y-97134178D01*
X177535165Y-97134374D01*
X177536000Y-97136000D01*
X177536000Y-97192359D01*
X177535990Y-97192555D01*
X177534907Y-97203551D01*
X177534831Y-97203936D01*
X177533413Y-97208610D01*
X177533263Y-97208972D01*
X177530964Y-97213273D01*
X177530746Y-97213599D01*
X177525579Y-97219896D01*
X177512130Y-97240023D01*
X177502904Y-97262297D01*
X177498200Y-97285948D01*
X177498200Y-97310054D01*
X177502905Y-97333704D01*
X177512131Y-97355978D01*
X177525579Y-97376104D01*
X177530746Y-97382401D01*
X177530964Y-97382727D01*
X177533263Y-97387028D01*
X177533413Y-97387390D01*
X177534831Y-97392064D01*
X177534907Y-97392449D01*
X177535990Y-97403445D01*
X177536000Y-97403641D01*
X177536000Y-97460000D01*
X177535000Y-97461732D01*
X177533000Y-97461732D01*
X177532010Y-97460196D01*
X177530339Y-97443227D01*
X177525444Y-97427093D01*
X177517498Y-97412226D01*
X177506804Y-97399196D01*
X177493774Y-97388502D01*
X177478907Y-97380556D01*
X177462773Y-97375661D01*
X177445906Y-97374000D01*
X176695094Y-97374000D01*
X176678227Y-97375661D01*
X176662093Y-97380556D01*
X176647226Y-97388502D01*
X176634196Y-97399196D01*
X176623502Y-97412226D01*
X176615556Y-97427093D01*
X176610661Y-97443227D01*
X176609000Y-97460094D01*
X176609000Y-97635906D01*
X176610661Y-97652773D01*
X176615556Y-97668907D01*
X176623502Y-97683774D01*
X176634196Y-97696804D01*
X176647226Y-97707498D01*
X176662093Y-97715444D01*
X176678227Y-97720339D01*
X176695094Y-97722000D01*
X177445906Y-97722000D01*
X177462773Y-97720339D01*
X177478907Y-97715444D01*
X177493774Y-97707498D01*
X177506804Y-97696804D01*
X177517498Y-97683774D01*
X177525444Y-97668907D01*
X177530339Y-97652773D01*
X177532010Y-97635804D01*
X177533175Y-97634178D01*
X177535165Y-97634374D01*
X177536000Y-97636000D01*
X177536000Y-97692359D01*
X177535990Y-97692555D01*
X177534907Y-97703551D01*
X177534831Y-97703936D01*
X177533413Y-97708610D01*
X177533263Y-97708972D01*
X177530964Y-97713273D01*
X177530746Y-97713599D01*
X177525579Y-97719896D01*
X177512130Y-97740023D01*
X177502904Y-97762297D01*
X177498200Y-97785948D01*
X177498200Y-97810054D01*
X177502905Y-97833704D01*
X177512131Y-97855978D01*
X177525579Y-97876104D01*
X177530746Y-97882401D01*
X177530964Y-97882727D01*
X177533263Y-97887028D01*
X177533413Y-97887390D01*
X177534831Y-97892064D01*
X177534907Y-97892449D01*
X177535990Y-97903445D01*
X177536000Y-97903641D01*
X177536000Y-97960000D01*
X177535000Y-97961732D01*
X177533000Y-97961732D01*
X177532010Y-97960196D01*
X177530339Y-97943227D01*
X177525444Y-97927093D01*
X177517498Y-97912226D01*
X177506804Y-97899196D01*
X177493774Y-97888502D01*
X177478907Y-97880556D01*
X177462773Y-97875661D01*
X177445906Y-97874000D01*
X176695094Y-97874000D01*
X176678227Y-97875661D01*
X176662093Y-97880556D01*
X176647226Y-97888502D01*
X176634196Y-97899196D01*
X176623502Y-97912226D01*
X176615556Y-97927093D01*
X176610661Y-97943227D01*
X176609000Y-97960094D01*
X176609000Y-98135906D01*
X176610661Y-98152773D01*
X176615556Y-98168907D01*
X176623502Y-98183774D01*
X176634196Y-98196804D01*
X176647226Y-98207498D01*
X176662093Y-98215444D01*
X176678227Y-98220339D01*
X176695094Y-98222000D01*
X177445906Y-98222000D01*
X177462773Y-98220339D01*
X177478907Y-98215444D01*
X177493774Y-98207498D01*
X177506804Y-98196804D01*
X177517498Y-98183774D01*
X177525444Y-98168907D01*
X177530339Y-98152773D01*
X177532010Y-98135804D01*
X177533175Y-98134178D01*
X177535165Y-98134374D01*
X177536000Y-98136000D01*
X177536000Y-98192359D01*
X177535990Y-98192555D01*
X177534907Y-98203551D01*
X177534831Y-98203936D01*
X177533413Y-98208610D01*
X177533263Y-98208972D01*
X177530964Y-98213273D01*
X177530746Y-98213599D01*
X177525579Y-98219896D01*
X177512130Y-98240023D01*
X177502904Y-98262297D01*
X177498200Y-98285948D01*
X177498200Y-98310054D01*
X177502905Y-98333704D01*
X177512131Y-98355978D01*
X177525579Y-98376104D01*
X177530746Y-98382401D01*
X177530964Y-98382727D01*
X177533263Y-98387028D01*
X177533413Y-98387390D01*
X177534831Y-98392064D01*
X177534907Y-98392449D01*
X177535990Y-98403445D01*
X177536000Y-98403641D01*
X177536000Y-98460000D01*
X177535000Y-98461732D01*
X177533000Y-98461732D01*
X177532010Y-98460196D01*
X177530339Y-98443227D01*
X177525444Y-98427093D01*
X177517498Y-98412226D01*
X177506804Y-98399196D01*
X177493774Y-98388502D01*
X177478907Y-98380556D01*
X177462773Y-98375661D01*
X177445906Y-98374000D01*
X176695094Y-98374000D01*
X176678227Y-98375661D01*
X176662093Y-98380556D01*
X176647226Y-98388502D01*
X176634196Y-98399196D01*
X176623502Y-98412226D01*
X176615556Y-98427093D01*
X176610661Y-98443227D01*
X176609000Y-98460094D01*
X176609000Y-98635906D01*
X176610661Y-98652773D01*
X176615556Y-98668907D01*
X176623502Y-98683774D01*
X176634196Y-98696804D01*
X176647226Y-98707498D01*
X176662093Y-98715444D01*
X176678227Y-98720339D01*
X176695094Y-98722000D01*
X177445906Y-98722000D01*
X177462773Y-98720339D01*
X177478907Y-98715444D01*
X177493774Y-98707498D01*
X177506804Y-98696804D01*
X177517498Y-98683774D01*
X177525444Y-98668907D01*
X177530339Y-98652773D01*
X177532010Y-98635804D01*
X177533175Y-98634178D01*
X177535165Y-98634374D01*
X177536000Y-98636000D01*
X177536000Y-98692359D01*
X177535990Y-98692555D01*
X177534907Y-98703551D01*
X177534831Y-98703936D01*
X177533413Y-98708610D01*
X177533263Y-98708972D01*
X177530964Y-98713273D01*
X177530746Y-98713599D01*
X177525579Y-98719896D01*
X177512130Y-98740023D01*
X177502904Y-98762297D01*
X177498200Y-98785948D01*
X177498200Y-98810054D01*
X177502905Y-98833704D01*
X177512131Y-98855978D01*
X177525579Y-98876104D01*
X177530746Y-98882401D01*
X177530964Y-98882727D01*
X177533263Y-98887028D01*
X177533413Y-98887390D01*
X177534831Y-98892064D01*
X177534907Y-98892449D01*
X177535990Y-98903445D01*
X177536000Y-98903641D01*
X177536000Y-98960000D01*
X177535000Y-98961732D01*
X177533000Y-98961732D01*
X177532010Y-98960196D01*
X177530339Y-98943227D01*
X177525444Y-98927093D01*
X177517498Y-98912226D01*
X177506804Y-98899196D01*
X177493774Y-98888502D01*
X177478907Y-98880556D01*
X177462773Y-98875661D01*
X177445906Y-98874000D01*
X176695094Y-98874000D01*
X176678227Y-98875661D01*
X176662093Y-98880556D01*
X176647226Y-98888502D01*
X176634196Y-98899196D01*
X176623502Y-98912226D01*
X176615556Y-98927093D01*
X176610661Y-98943227D01*
X176609000Y-98960094D01*
X176609000Y-99135906D01*
X176610661Y-99152773D01*
X176615556Y-99168907D01*
X176623502Y-99183774D01*
X176634196Y-99196804D01*
X176647226Y-99207498D01*
X176662093Y-99215444D01*
X176678227Y-99220339D01*
X176695094Y-99222000D01*
X177445906Y-99222000D01*
X177462773Y-99220339D01*
X177478907Y-99215444D01*
X177493774Y-99207498D01*
X177506804Y-99196804D01*
X177517498Y-99183774D01*
X177525444Y-99168907D01*
X177530339Y-99152773D01*
X177532010Y-99135804D01*
X177533175Y-99134178D01*
X177535165Y-99134374D01*
X177536000Y-99136000D01*
X177536000Y-99192359D01*
X177535990Y-99192555D01*
X177534907Y-99203551D01*
X177534831Y-99203936D01*
X177533413Y-99208610D01*
X177533263Y-99208972D01*
X177530964Y-99213273D01*
X177530746Y-99213599D01*
X177525579Y-99219896D01*
X177512130Y-99240023D01*
X177502904Y-99262297D01*
X177498200Y-99285948D01*
X177498200Y-99310054D01*
X177502905Y-99333704D01*
X177512131Y-99355978D01*
X177525579Y-99376104D01*
X177530746Y-99382401D01*
X177530964Y-99382727D01*
X177533263Y-99387028D01*
X177533413Y-99387390D01*
X177534831Y-99392064D01*
X177534907Y-99392449D01*
X177535990Y-99403445D01*
X177536000Y-99403641D01*
X177536000Y-99460000D01*
X177535000Y-99461732D01*
X177533000Y-99461732D01*
X177532010Y-99460196D01*
X177530339Y-99443227D01*
X177525444Y-99427093D01*
X177517498Y-99412226D01*
X177506804Y-99399196D01*
X177493774Y-99388502D01*
X177478907Y-99380556D01*
X177462773Y-99375661D01*
X177445906Y-99374000D01*
X176695094Y-99374000D01*
X176678227Y-99375661D01*
X176662093Y-99380556D01*
X176647226Y-99388502D01*
X176634196Y-99399196D01*
X176623502Y-99412226D01*
X176615556Y-99427093D01*
X176610661Y-99443227D01*
X176609000Y-99460094D01*
X176609000Y-99635906D01*
X176610661Y-99652773D01*
X176615556Y-99668907D01*
X176623502Y-99683774D01*
X176634196Y-99696804D01*
X176647226Y-99707498D01*
X176662093Y-99715444D01*
X176678227Y-99720339D01*
X176695196Y-99722010D01*
X176696822Y-99723175D01*
X176696626Y-99725165D01*
X176695000Y-99726000D01*
X176684093Y-99726000D01*
X176660008Y-99728372D01*
X176636933Y-99735372D01*
X176615669Y-99746737D01*
X176597032Y-99762032D01*
X176581737Y-99780669D01*
X176570372Y-99801933D01*
X176563372Y-99825008D01*
X176561000Y-99849093D01*
X176561000Y-99860000D01*
X176560000Y-99861732D01*
X176558000Y-99861732D01*
X176557010Y-99860196D01*
X176555339Y-99843227D01*
X176550444Y-99827093D01*
X176542498Y-99812226D01*
X176531804Y-99799196D01*
X176518774Y-99788502D01*
X176503907Y-99780556D01*
X176487773Y-99775661D01*
X176470906Y-99774000D01*
X176295094Y-99774000D01*
X176278227Y-99775661D01*
X176262093Y-99780556D01*
X176247226Y-99788502D01*
X176234196Y-99799196D01*
X176223502Y-99812226D01*
X176215556Y-99827093D01*
X176210661Y-99843227D01*
X176209000Y-99860094D01*
X176209000Y-100610906D01*
X176210661Y-100627773D01*
X176215556Y-100643907D01*
X176223502Y-100658774D01*
X176234196Y-100671804D01*
X176247226Y-100682498D01*
X176262093Y-100690444D01*
X176278227Y-100695339D01*
X176295196Y-100697010D01*
X176296822Y-100698175D01*
X176296626Y-100700165D01*
X176295000Y-100701000D01*
X176238641Y-100701000D01*
X176238445Y-100700990D01*
X176227449Y-100699907D01*
X176227064Y-100699831D01*
X176222390Y-100698413D01*
X176222028Y-100698263D01*
X176217727Y-100695964D01*
X176217401Y-100695746D01*
X176211104Y-100690579D01*
X176190977Y-100677130D01*
X176168703Y-100667904D01*
X176145052Y-100663200D01*
X176120946Y-100663200D01*
X176097296Y-100667905D01*
X176075022Y-100677131D01*
X176054896Y-100690579D01*
X176048599Y-100695746D01*
X176048273Y-100695964D01*
X176043972Y-100698263D01*
X176043610Y-100698413D01*
X176038936Y-100699831D01*
X176038551Y-100699907D01*
X176027555Y-100700990D01*
X176027359Y-100701000D01*
X175971000Y-100701000D01*
X175969268Y-100700000D01*
X175969268Y-100698000D01*
X175970804Y-100697010D01*
X175987773Y-100695339D01*
X176003907Y-100690444D01*
X176018774Y-100682498D01*
X176031804Y-100671804D01*
X176042498Y-100658774D01*
X176050444Y-100643907D01*
X176055339Y-100627773D01*
X176057000Y-100610906D01*
X176057000Y-99860094D01*
X176055339Y-99843227D01*
X176050444Y-99827093D01*
X176042498Y-99812226D01*
X176031804Y-99799196D01*
X176018774Y-99788502D01*
X176003907Y-99780556D01*
X175987773Y-99775661D01*
X175970906Y-99774000D01*
X175795094Y-99774000D01*
X175778227Y-99775661D01*
X175762093Y-99780556D01*
X175747226Y-99788502D01*
X175734196Y-99799196D01*
X175723502Y-99812226D01*
X175715556Y-99827093D01*
X175710661Y-99843227D01*
X175709000Y-99860094D01*
X175709000Y-100610906D01*
X175710661Y-100627773D01*
X175715556Y-100643907D01*
X175723502Y-100658774D01*
X175734196Y-100671804D01*
X175747226Y-100682498D01*
X175762093Y-100690444D01*
X175778227Y-100695339D01*
X175795196Y-100697010D01*
X175796822Y-100698175D01*
X175796626Y-100700165D01*
X175795000Y-100701000D01*
X175738641Y-100701000D01*
X175738445Y-100700990D01*
X175727449Y-100699907D01*
X175727064Y-100699831D01*
X175722390Y-100698413D01*
X175722028Y-100698263D01*
X175717727Y-100695964D01*
X175717401Y-100695746D01*
X175711104Y-100690579D01*
X175690977Y-100677130D01*
X175668703Y-100667904D01*
X175645052Y-100663200D01*
X175620946Y-100663200D01*
X175597296Y-100667905D01*
X175575022Y-100677131D01*
X175554896Y-100690579D01*
X175548599Y-100695746D01*
X175548273Y-100695964D01*
X175543972Y-100698263D01*
X175543610Y-100698413D01*
X175538936Y-100699831D01*
X175538551Y-100699907D01*
X175527555Y-100700990D01*
X175527359Y-100701000D01*
X175471000Y-100701000D01*
X175469268Y-100700000D01*
X175469268Y-100698000D01*
X175470804Y-100697010D01*
X175487773Y-100695339D01*
X175503907Y-100690444D01*
X175518774Y-100682498D01*
X175531804Y-100671804D01*
X175542498Y-100658774D01*
X175550444Y-100643907D01*
X175555339Y-100627773D01*
X175557000Y-100610906D01*
X175557000Y-99860094D01*
X175555339Y-99843227D01*
X175550444Y-99827093D01*
X175542498Y-99812226D01*
X175531804Y-99799196D01*
X175518774Y-99788502D01*
X175503907Y-99780556D01*
X175487773Y-99775661D01*
X175470906Y-99774000D01*
X175295094Y-99774000D01*
X175278227Y-99775661D01*
X175262093Y-99780556D01*
X175247226Y-99788502D01*
X175234196Y-99799196D01*
X175223502Y-99812226D01*
X175215556Y-99827093D01*
X175210661Y-99843227D01*
X175209000Y-99860094D01*
X175209000Y-100610906D01*
X175210661Y-100627773D01*
X175215556Y-100643907D01*
X175223502Y-100658774D01*
X175234196Y-100671804D01*
X175247226Y-100682498D01*
X175262093Y-100690444D01*
X175278227Y-100695339D01*
X175295196Y-100697010D01*
X175296822Y-100698175D01*
X175296626Y-100700165D01*
X175295000Y-100701000D01*
X175238641Y-100701000D01*
X175238445Y-100700990D01*
X175227449Y-100699907D01*
X175227064Y-100699831D01*
X175222390Y-100698413D01*
X175222028Y-100698263D01*
X175217727Y-100695964D01*
X175217401Y-100695746D01*
X175211104Y-100690579D01*
X175190977Y-100677130D01*
X175168703Y-100667904D01*
X175145052Y-100663200D01*
X175120946Y-100663200D01*
X175097296Y-100667905D01*
X175075022Y-100677131D01*
X175054896Y-100690579D01*
X175048599Y-100695746D01*
X175048273Y-100695964D01*
X175043972Y-100698263D01*
X175043610Y-100698413D01*
X175038936Y-100699831D01*
X175038551Y-100699907D01*
X175027555Y-100700990D01*
X175027359Y-100701000D01*
X174971000Y-100701000D01*
X174969268Y-100700000D01*
X174969268Y-100698000D01*
X174970804Y-100697010D01*
X174987773Y-100695339D01*
X175003907Y-100690444D01*
X175018774Y-100682498D01*
X175031804Y-100671804D01*
X175042498Y-100658774D01*
X175050444Y-100643907D01*
X175055339Y-100627773D01*
X175057000Y-100610906D01*
X175057000Y-99860094D01*
X175055339Y-99843227D01*
X175050444Y-99827093D01*
X175042498Y-99812226D01*
X175031804Y-99799196D01*
X175018774Y-99788502D01*
X175003907Y-99780556D01*
X174987773Y-99775661D01*
X174970906Y-99774000D01*
X174795094Y-99774000D01*
X174778227Y-99775661D01*
X174762093Y-99780556D01*
X174747226Y-99788502D01*
X174734196Y-99799196D01*
X174723502Y-99812226D01*
X174715556Y-99827093D01*
X174710661Y-99843227D01*
X174709000Y-99860094D01*
X174709000Y-100610906D01*
X174710661Y-100627773D01*
X174715556Y-100643907D01*
X174723502Y-100658774D01*
X174734196Y-100671804D01*
X174747226Y-100682498D01*
X174762093Y-100690444D01*
X174778227Y-100695339D01*
X174795196Y-100697010D01*
X174796822Y-100698175D01*
X174796626Y-100700165D01*
X174795000Y-100701000D01*
X174738641Y-100701000D01*
X174738445Y-100700990D01*
X174727449Y-100699907D01*
X174727064Y-100699831D01*
X174722390Y-100698413D01*
X174722028Y-100698263D01*
X174717727Y-100695964D01*
X174717401Y-100695746D01*
X174711104Y-100690579D01*
X174690977Y-100677130D01*
X174668703Y-100667904D01*
X174645052Y-100663200D01*
X174620946Y-100663200D01*
X174597296Y-100667905D01*
X174575022Y-100677131D01*
X174554896Y-100690579D01*
X174548599Y-100695746D01*
X174548273Y-100695964D01*
X174543972Y-100698263D01*
X174543610Y-100698413D01*
X174538936Y-100699831D01*
X174538551Y-100699907D01*
X174527555Y-100700990D01*
X174527359Y-100701000D01*
X174471000Y-100701000D01*
X174469268Y-100700000D01*
X174469268Y-100698000D01*
X174470804Y-100697010D01*
X174487773Y-100695339D01*
X174503907Y-100690444D01*
X174518774Y-100682498D01*
X174531804Y-100671804D01*
X174542498Y-100658774D01*
X174550444Y-100643907D01*
X174555339Y-100627773D01*
X174557000Y-100610906D01*
X174557000Y-99860094D01*
X174555339Y-99843227D01*
X174550444Y-99827093D01*
X174542498Y-99812226D01*
X174531804Y-99799196D01*
X174518774Y-99788502D01*
X174503907Y-99780556D01*
X174487773Y-99775661D01*
X174470906Y-99774000D01*
X174295094Y-99774000D01*
X174278227Y-99775661D01*
X174262093Y-99780556D01*
X174247226Y-99788502D01*
X174234196Y-99799196D01*
X174223502Y-99812226D01*
X174215556Y-99827093D01*
X174210661Y-99843227D01*
X174209000Y-99860094D01*
X174209000Y-100610906D01*
X174210661Y-100627773D01*
X174215556Y-100643907D01*
X174223502Y-100658774D01*
X174234196Y-100671804D01*
X174247226Y-100682498D01*
X174262093Y-100690444D01*
X174278227Y-100695339D01*
X174295196Y-100697010D01*
X174296822Y-100698175D01*
X174296626Y-100700165D01*
X174295000Y-100701000D01*
X174238641Y-100701000D01*
X174238445Y-100700990D01*
X174227449Y-100699907D01*
X174227064Y-100699831D01*
X174222390Y-100698413D01*
X174222028Y-100698263D01*
X174217727Y-100695964D01*
X174217401Y-100695746D01*
X174211104Y-100690579D01*
X174190977Y-100677130D01*
X174168703Y-100667904D01*
X174145052Y-100663200D01*
X174120946Y-100663200D01*
X174097296Y-100667905D01*
X174075022Y-100677131D01*
X174054896Y-100690579D01*
X174048599Y-100695746D01*
X174048273Y-100695964D01*
X174043972Y-100698263D01*
X174043610Y-100698413D01*
X174038936Y-100699831D01*
X174038551Y-100699907D01*
X174027555Y-100700990D01*
X174027359Y-100701000D01*
X173971000Y-100701000D01*
X173969268Y-100700000D01*
X173969268Y-100698000D01*
X173970804Y-100697010D01*
X173987773Y-100695339D01*
X174003907Y-100690444D01*
X174018774Y-100682498D01*
X174031804Y-100671804D01*
X174042498Y-100658774D01*
X174050444Y-100643907D01*
X174055339Y-100627773D01*
X174057000Y-100610906D01*
X174057000Y-99860094D01*
X174055339Y-99843227D01*
X174050444Y-99827093D01*
X174042498Y-99812226D01*
X174031804Y-99799196D01*
X174018774Y-99788502D01*
X174003907Y-99780556D01*
X173987773Y-99775661D01*
X173970906Y-99774000D01*
X173795094Y-99774000D01*
X173778227Y-99775661D01*
X173762093Y-99780556D01*
X173747226Y-99788502D01*
X173734196Y-99799196D01*
X173723502Y-99812226D01*
X173715556Y-99827093D01*
X173710661Y-99843227D01*
X173708990Y-99860196D01*
X173707825Y-99861822D01*
X173705835Y-99861626D01*
X173705000Y-99860000D01*
X173705000Y-99849093D01*
X173702628Y-99825008D01*
X173695628Y-99801933D01*
X173684263Y-99780669D01*
X173668968Y-99762032D01*
X173650331Y-99746737D01*
X173629067Y-99735372D01*
X173605992Y-99728372D01*
X173581907Y-99726000D01*
X173571000Y-99726000D01*
X173569268Y-99725000D01*
X173569268Y-99723000D01*
X173570804Y-99722010D01*
X173587773Y-99720339D01*
X173603907Y-99715444D01*
X173618774Y-99707498D01*
X173631804Y-99696804D01*
X173642498Y-99683774D01*
X173650444Y-99668907D01*
X173655339Y-99652773D01*
X173657000Y-99635906D01*
X173657000Y-99460094D01*
X173655339Y-99443227D01*
X173650444Y-99427093D01*
X173642498Y-99412226D01*
X173631804Y-99399196D01*
X173618774Y-99388502D01*
X173603907Y-99380556D01*
X173587773Y-99375661D01*
X173570906Y-99374000D01*
X172820094Y-99374000D01*
X172803227Y-99375661D01*
X172787093Y-99380556D01*
X172772226Y-99388502D01*
X172759196Y-99399196D01*
X172748502Y-99412226D01*
X172740556Y-99427093D01*
X172735661Y-99443227D01*
X172733990Y-99460196D01*
X172732825Y-99461822D01*
X172730835Y-99461626D01*
X172730000Y-99460000D01*
X172730000Y-99403641D01*
X172730010Y-99403445D01*
X172731093Y-99392449D01*
X172731169Y-99392064D01*
X172732587Y-99387390D01*
X172732737Y-99387028D01*
X172735036Y-99382727D01*
X172735254Y-99382401D01*
X172740421Y-99376104D01*
X172753870Y-99355977D01*
X172763096Y-99333703D01*
X172767800Y-99310052D01*
X172767800Y-99285946D01*
X172763095Y-99262296D01*
X172753869Y-99240022D01*
X172740421Y-99219896D01*
X172735254Y-99213599D01*
X172735036Y-99213273D01*
X172732737Y-99208972D01*
X172732587Y-99208610D01*
X172731169Y-99203936D01*
X172731093Y-99203551D01*
X172730010Y-99192555D01*
X172730000Y-99192359D01*
X172730000Y-99136000D01*
X172731000Y-99134268D01*
X172733000Y-99134268D01*
X172733990Y-99135804D01*
X172735661Y-99152773D01*
X172740556Y-99168907D01*
X172748502Y-99183774D01*
X172759196Y-99196804D01*
X172772226Y-99207498D01*
X172787093Y-99215444D01*
X172803227Y-99220339D01*
X172820094Y-99222000D01*
X173570906Y-99222000D01*
X173587773Y-99220339D01*
X173603907Y-99215444D01*
X173618774Y-99207498D01*
X173631804Y-99196804D01*
X173642498Y-99183774D01*
X173650444Y-99168907D01*
X173655339Y-99152773D01*
X173657000Y-99135906D01*
X173657000Y-98960094D01*
X173655339Y-98943227D01*
X173650444Y-98927093D01*
X173642498Y-98912226D01*
X173631804Y-98899196D01*
X173618774Y-98888502D01*
X173603907Y-98880556D01*
X173587773Y-98875661D01*
X173570906Y-98874000D01*
X172820094Y-98874000D01*
X172803227Y-98875661D01*
X172787093Y-98880556D01*
X172772226Y-98888502D01*
X172759196Y-98899196D01*
X172748502Y-98912226D01*
X172740556Y-98927093D01*
X172735661Y-98943227D01*
X172733990Y-98960196D01*
X172732825Y-98961822D01*
X172730835Y-98961626D01*
X172730000Y-98960000D01*
X172730000Y-98903641D01*
X172730010Y-98903445D01*
X172731093Y-98892449D01*
X172731169Y-98892064D01*
X172732587Y-98887390D01*
X172732737Y-98887028D01*
X172735036Y-98882727D01*
X172735254Y-98882401D01*
X172740421Y-98876104D01*
X172753870Y-98855977D01*
X172763096Y-98833703D01*
X172767800Y-98810052D01*
X172767800Y-98785946D01*
X172763095Y-98762296D01*
X172753869Y-98740022D01*
X172740421Y-98719896D01*
X172735254Y-98713599D01*
X172735036Y-98713273D01*
X172732737Y-98708972D01*
X172732587Y-98708610D01*
X172731169Y-98703936D01*
X172731093Y-98703551D01*
X172730010Y-98692555D01*
X172730000Y-98692359D01*
X172730000Y-98636000D01*
X172731000Y-98634268D01*
X172733000Y-98634268D01*
X172733990Y-98635804D01*
X172735661Y-98652773D01*
X172740556Y-98668907D01*
X172748502Y-98683774D01*
X172759196Y-98696804D01*
X172772226Y-98707498D01*
X172787093Y-98715444D01*
X172803227Y-98720339D01*
X172820094Y-98722000D01*
X173570906Y-98722000D01*
X173587773Y-98720339D01*
X173603907Y-98715444D01*
X173618774Y-98707498D01*
X173631804Y-98696804D01*
X173642498Y-98683774D01*
X173650444Y-98668907D01*
X173655339Y-98652773D01*
X173657000Y-98635906D01*
X173657000Y-98460094D01*
X173655339Y-98443227D01*
X173650444Y-98427093D01*
X173642498Y-98412226D01*
X173631804Y-98399196D01*
X173618774Y-98388502D01*
X173603907Y-98380556D01*
X173587773Y-98375661D01*
X173570906Y-98374000D01*
X172820094Y-98374000D01*
X172803227Y-98375661D01*
X172787093Y-98380556D01*
X172772226Y-98388502D01*
X172759196Y-98399196D01*
X172748502Y-98412226D01*
X172740556Y-98427093D01*
X172735661Y-98443227D01*
X172733990Y-98460196D01*
X172732825Y-98461822D01*
X172730835Y-98461626D01*
X172730000Y-98460000D01*
X172730000Y-98403641D01*
X172730010Y-98403445D01*
X172731093Y-98392449D01*
X172731169Y-98392064D01*
X172732587Y-98387390D01*
X172732737Y-98387028D01*
X172735036Y-98382727D01*
X172735254Y-98382401D01*
X172740421Y-98376104D01*
X172753870Y-98355977D01*
X172763096Y-98333703D01*
X172767800Y-98310052D01*
X172767800Y-98285946D01*
X172763095Y-98262296D01*
X172753869Y-98240022D01*
X172740421Y-98219896D01*
X172735254Y-98213599D01*
X172735036Y-98213273D01*
X172732737Y-98208972D01*
X172732587Y-98208610D01*
X172731169Y-98203936D01*
X172731093Y-98203551D01*
X172730010Y-98192555D01*
X172730000Y-98192359D01*
X172730000Y-98136000D01*
X172731000Y-98134268D01*
X172733000Y-98134268D01*
X172733990Y-98135804D01*
X172735661Y-98152773D01*
X172740556Y-98168907D01*
X172748502Y-98183774D01*
X172759196Y-98196804D01*
X172772226Y-98207498D01*
X172787093Y-98215444D01*
X172803227Y-98220339D01*
X172820094Y-98222000D01*
X173570906Y-98222000D01*
X173587773Y-98220339D01*
X173603907Y-98215444D01*
X173618774Y-98207498D01*
X173631804Y-98196804D01*
X173642498Y-98183774D01*
X173650444Y-98168907D01*
X173655339Y-98152773D01*
X173657000Y-98135906D01*
X173657000Y-97960094D01*
X173655339Y-97943227D01*
X173650444Y-97927093D01*
X173642498Y-97912226D01*
X173631804Y-97899196D01*
X173618774Y-97888502D01*
X173603907Y-97880556D01*
X173587773Y-97875661D01*
X173570906Y-97874000D01*
X172820094Y-97874000D01*
X172803227Y-97875661D01*
X172787093Y-97880556D01*
X172772226Y-97888502D01*
X172759196Y-97899196D01*
X172748502Y-97912226D01*
X172740556Y-97927093D01*
X172735661Y-97943227D01*
X172733990Y-97960196D01*
X172732825Y-97961822D01*
X172730835Y-97961626D01*
X172730000Y-97960000D01*
X172730000Y-97903641D01*
X172730010Y-97903445D01*
X172731093Y-97892449D01*
X172731169Y-97892064D01*
X172732587Y-97887390D01*
X172732737Y-97887028D01*
X172735036Y-97882727D01*
X172735254Y-97882401D01*
X172740421Y-97876104D01*
X172753870Y-97855977D01*
X172763096Y-97833703D01*
X172767800Y-97810052D01*
X172767800Y-97785946D01*
X172763095Y-97762296D01*
X172753869Y-97740022D01*
X172740421Y-97719896D01*
X172735254Y-97713599D01*
X172735036Y-97713273D01*
X172732737Y-97708972D01*
X172732587Y-97708610D01*
X172731169Y-97703936D01*
X172731093Y-97703551D01*
X172730010Y-97692555D01*
X172730000Y-97692359D01*
X172730000Y-97636000D01*
X172731000Y-97634268D01*
X172733000Y-97634268D01*
X172733990Y-97635804D01*
X172735661Y-97652773D01*
X172740556Y-97668907D01*
X172748502Y-97683774D01*
X172759196Y-97696804D01*
X172772226Y-97707498D01*
X172787093Y-97715444D01*
X172803227Y-97720339D01*
X172820094Y-97722000D01*
X173570906Y-97722000D01*
X173587773Y-97720339D01*
X173603907Y-97715444D01*
X173618774Y-97707498D01*
X173631804Y-97696804D01*
X173642498Y-97683774D01*
X173650444Y-97668907D01*
X173655339Y-97652773D01*
X173657000Y-97635906D01*
X173657000Y-97460094D01*
X173655339Y-97443227D01*
X173650444Y-97427093D01*
X173642498Y-97412226D01*
X173631804Y-97399196D01*
X173618774Y-97388502D01*
X173603907Y-97380556D01*
X173587773Y-97375661D01*
X173570906Y-97374000D01*
X172820094Y-97374000D01*
X172803227Y-97375661D01*
X172787093Y-97380556D01*
X172772226Y-97388502D01*
X172759196Y-97399196D01*
X172748502Y-97412226D01*
X172740556Y-97427093D01*
X172735661Y-97443227D01*
X172733990Y-97460196D01*
X172732825Y-97461822D01*
X172730835Y-97461626D01*
X172730000Y-97460000D01*
X172730000Y-97403641D01*
X172730010Y-97403445D01*
X172731093Y-97392449D01*
X172731169Y-97392064D01*
X172732587Y-97387390D01*
X172732737Y-97387028D01*
X172735036Y-97382727D01*
X172735254Y-97382401D01*
X172740421Y-97376104D01*
X172753870Y-97355977D01*
X172763096Y-97333703D01*
X172767800Y-97310052D01*
X172767800Y-97285946D01*
X172763095Y-97262296D01*
X172753869Y-97240022D01*
X172740421Y-97219896D01*
X172735254Y-97213599D01*
X172735036Y-97213273D01*
X172732737Y-97208972D01*
X172732587Y-97208610D01*
X172731169Y-97203936D01*
X172731093Y-97203551D01*
X172730010Y-97192555D01*
X172730000Y-97192359D01*
X172730000Y-97136000D01*
X172731000Y-97134268D01*
X172733000Y-97134268D01*
X172733990Y-97135804D01*
X172735661Y-97152773D01*
X172740556Y-97168907D01*
X172748502Y-97183774D01*
X172759196Y-97196804D01*
X172772226Y-97207498D01*
X172787093Y-97215444D01*
X172803227Y-97220339D01*
X172820094Y-97222000D01*
X173570906Y-97222000D01*
X173587773Y-97220339D01*
X173603907Y-97215444D01*
X173618774Y-97207498D01*
X173631804Y-97196804D01*
X173642498Y-97183774D01*
X173650444Y-97168907D01*
X173655339Y-97152773D01*
X173657000Y-97135906D01*
X173657000Y-96960094D01*
X173655908Y-96949000D01*
X173784000Y-96949000D01*
X173784000Y-99647000D01*
X176482000Y-99647000D01*
X176482000Y-96949000D01*
X173784000Y-96949000D01*
X173655908Y-96949000D01*
X173655339Y-96943227D01*
X173650444Y-96927093D01*
X173642498Y-96912226D01*
X173631804Y-96899196D01*
X173618774Y-96888502D01*
X173603907Y-96880556D01*
X173587773Y-96875661D01*
X173570804Y-96873990D01*
X173569178Y-96872825D01*
X173569374Y-96870835D01*
X173571000Y-96870000D01*
X173581907Y-96870000D01*
X173605992Y-96867628D01*
X173629067Y-96860628D01*
X173650331Y-96849263D01*
X173668968Y-96833968D01*
X173684263Y-96815331D01*
X173695628Y-96794067D01*
X173702628Y-96770992D01*
X173705000Y-96746907D01*
X173705000Y-96736000D01*
X173706000Y-96734268D01*
X173708000Y-96734268D01*
X173708990Y-96735804D01*
X173710661Y-96752773D01*
X173715556Y-96768907D01*
X173723502Y-96783774D01*
X173734196Y-96796804D01*
X173747226Y-96807498D01*
X173762093Y-96815444D01*
X173778227Y-96820339D01*
X173795094Y-96822000D01*
X173970906Y-96822000D01*
X173987773Y-96820339D01*
X174003907Y-96815444D01*
X174018774Y-96807498D01*
X174031804Y-96796804D01*
X174042498Y-96783774D01*
X174050444Y-96768907D01*
X174055339Y-96752773D01*
X174057000Y-96735906D01*
X174057000Y-95985094D01*
X174055339Y-95968227D01*
X174050444Y-95952093D01*
X174042498Y-95937226D01*
X174031804Y-95924196D01*
X174018774Y-95913502D01*
X174003907Y-95905556D01*
X173987773Y-95900661D01*
X173970804Y-95898990D01*
X173969178Y-95897825D01*
X173969374Y-95895835D01*
X173971000Y-95895000D01*
X174027359Y-95895000D01*
X174027555Y-95895010D01*
G37*
G36*
X202811732Y-98624000D02*
G01*
X202812000Y-98625000D01*
X202812000Y-100227000D01*
X202811000Y-100228732D01*
X202810000Y-100229000D01*
X202662000Y-100229000D01*
X202660268Y-100228000D01*
X202660000Y-100227000D01*
X202660000Y-98625000D01*
X202661000Y-98623268D01*
X202662000Y-98623000D01*
X202810000Y-98623000D01*
X202811732Y-98624000D01*
G37*
G36*
X195611732Y-98624000D02*
G01*
X195612000Y-98625000D01*
X195612000Y-100227000D01*
X195611000Y-100228732D01*
X195610000Y-100229000D01*
X195462000Y-100229000D01*
X195460268Y-100228000D01*
X195460000Y-100227000D01*
X195460000Y-98625000D01*
X195461000Y-98623268D01*
X195462000Y-98623000D01*
X195610000Y-98623000D01*
X195611732Y-98624000D01*
G37*
G36*
X196411732Y-98624000D02*
G01*
X196412000Y-98625000D01*
X196412000Y-100227000D01*
X196411000Y-100228732D01*
X196410000Y-100229000D01*
X196262000Y-100229000D01*
X196260268Y-100228000D01*
X196260000Y-100227000D01*
X196260000Y-98625000D01*
X196261000Y-98623268D01*
X196262000Y-98623000D01*
X196410000Y-98623000D01*
X196411732Y-98624000D01*
G37*
G36*
X197211732Y-98624000D02*
G01*
X197212000Y-98625000D01*
X197212000Y-100227000D01*
X197211000Y-100228732D01*
X197210000Y-100229000D01*
X197062000Y-100229000D01*
X197060268Y-100228000D01*
X197060000Y-100227000D01*
X197060000Y-98625000D01*
X197061000Y-98623268D01*
X197062000Y-98623000D01*
X197210000Y-98623000D01*
X197211732Y-98624000D01*
G37*
G36*
X198011732Y-98624000D02*
G01*
X198012000Y-98625000D01*
X198012000Y-100227000D01*
X198011000Y-100228732D01*
X198010000Y-100229000D01*
X197862000Y-100229000D01*
X197860268Y-100228000D01*
X197860000Y-100227000D01*
X197860000Y-98625000D01*
X197861000Y-98623268D01*
X197862000Y-98623000D01*
X198010000Y-98623000D01*
X198011732Y-98624000D01*
G37*
G36*
X198811732Y-98624000D02*
G01*
X198812000Y-98625000D01*
X198812000Y-100227000D01*
X198811000Y-100228732D01*
X198810000Y-100229000D01*
X198662000Y-100229000D01*
X198660268Y-100228000D01*
X198660000Y-100227000D01*
X198660000Y-98625000D01*
X198661000Y-98623268D01*
X198662000Y-98623000D01*
X198810000Y-98623000D01*
X198811732Y-98624000D01*
G37*
G36*
X199611732Y-98624000D02*
G01*
X199612000Y-98625000D01*
X199612000Y-100227000D01*
X199611000Y-100228732D01*
X199610000Y-100229000D01*
X199462000Y-100229000D01*
X199460268Y-100228000D01*
X199460000Y-100227000D01*
X199460000Y-98625000D01*
X199461000Y-98623268D01*
X199462000Y-98623000D01*
X199610000Y-98623000D01*
X199611732Y-98624000D01*
G37*
G36*
X202011732Y-98624000D02*
G01*
X202012000Y-98625000D01*
X202012000Y-100227000D01*
X202011000Y-100228732D01*
X202010000Y-100229000D01*
X201862000Y-100229000D01*
X201860268Y-100228000D01*
X201860000Y-100227000D01*
X201860000Y-98625000D01*
X201861000Y-98623268D01*
X201862000Y-98623000D01*
X202010000Y-98623000D01*
X202011732Y-98624000D01*
G37*
G36*
X201211732Y-98624000D02*
G01*
X201212000Y-98625000D01*
X201212000Y-100227000D01*
X201211000Y-100228732D01*
X201210000Y-100229000D01*
X201062000Y-100229000D01*
X201060268Y-100228000D01*
X201060000Y-100227000D01*
X201060000Y-98625000D01*
X201061000Y-98623268D01*
X201062000Y-98623000D01*
X201210000Y-98623000D01*
X201211732Y-98624000D01*
G37*
G36*
X200411732Y-98624000D02*
G01*
X200412000Y-98625000D01*
X200412000Y-100227000D01*
X200411000Y-100228732D01*
X200410000Y-100229000D01*
X200262000Y-100229000D01*
X200260268Y-100228000D01*
X200260000Y-100227000D01*
X200260000Y-98625000D01*
X200261000Y-98623268D01*
X200262000Y-98623000D01*
X200410000Y-98623000D01*
X200411732Y-98624000D01*
G37*
G36*
X168110165Y-96787375D02*
G01*
X168111000Y-96789001D01*
X168111000Y-98839000D01*
X168115999Y-98839000D01*
X168117731Y-98840000D01*
X168117731Y-98842000D01*
X168116195Y-98842990D01*
X168092008Y-98845372D01*
X168068933Y-98852372D01*
X168063522Y-98855264D01*
X168062579Y-98855500D01*
X167991000Y-98855500D01*
X167989268Y-98854500D01*
X167989000Y-98853500D01*
X167989000Y-96928500D01*
X167891000Y-96928500D01*
X167889268Y-96927500D01*
X167889000Y-96926500D01*
X167889000Y-96914000D01*
X167890000Y-96912268D01*
X167891000Y-96912000D01*
X167983907Y-96912000D01*
X168007992Y-96909628D01*
X168031067Y-96902628D01*
X168052331Y-96891263D01*
X168070968Y-96875968D01*
X168086263Y-96857331D01*
X168097628Y-96836067D01*
X168104628Y-96812992D01*
X168107010Y-96788805D01*
X168108175Y-96787179D01*
X168110165Y-96787375D01*
G37*
G36*
X205638732Y-97251000D02*
G01*
X205639000Y-97252000D01*
X205639000Y-97400000D01*
X205638000Y-97401732D01*
X205637000Y-97402000D01*
X204035000Y-97402000D01*
X204033268Y-97401000D01*
X204033000Y-97400000D01*
X204033000Y-97252000D01*
X204034000Y-97250268D01*
X204035000Y-97250000D01*
X205637000Y-97250000D01*
X205638732Y-97251000D01*
G37*
G36*
X194238732Y-97251000D02*
G01*
X194239000Y-97252000D01*
X194239000Y-97400000D01*
X194238000Y-97401732D01*
X194237000Y-97402000D01*
X192635000Y-97402000D01*
X192633268Y-97401000D01*
X192633000Y-97400000D01*
X192633000Y-97252000D01*
X192634000Y-97250268D01*
X192635000Y-97250000D01*
X194237000Y-97250000D01*
X194238732Y-97251000D01*
G37*
G36*
X194238732Y-96451000D02*
G01*
X194239000Y-96452000D01*
X194239000Y-96600000D01*
X194238000Y-96601732D01*
X194237000Y-96602000D01*
X192635000Y-96602000D01*
X192633268Y-96601000D01*
X192633000Y-96600000D01*
X192633000Y-96452000D01*
X192634000Y-96450268D01*
X192635000Y-96450000D01*
X194237000Y-96450000D01*
X194238732Y-96451000D01*
G37*
G36*
X205638732Y-96451000D02*
G01*
X205639000Y-96452000D01*
X205639000Y-96600000D01*
X205638000Y-96601732D01*
X205637000Y-96602000D01*
X204035000Y-96602000D01*
X204033268Y-96601000D01*
X204033000Y-96600000D01*
X204033000Y-96452000D01*
X204034000Y-96450268D01*
X204035000Y-96450000D01*
X205637000Y-96450000D01*
X205638732Y-96451000D01*
G37*
G36*
X169667732Y-95790000D02*
G01*
X169668000Y-95791000D01*
X169668000Y-95939000D01*
X169667000Y-95940732D01*
X169666000Y-95941000D01*
X167914000Y-95941000D01*
X167912268Y-95940000D01*
X167912000Y-95939000D01*
X167912000Y-95791000D01*
X167913000Y-95789268D01*
X167914000Y-95789000D01*
X169666000Y-95789000D01*
X169667732Y-95790000D01*
G37*
G36*
X194238732Y-95651000D02*
G01*
X194239000Y-95652000D01*
X194239000Y-95800000D01*
X194238000Y-95801732D01*
X194237000Y-95802000D01*
X192635000Y-95802000D01*
X192633268Y-95801000D01*
X192633000Y-95800000D01*
X192633000Y-95652000D01*
X192634000Y-95650268D01*
X192635000Y-95650000D01*
X194237000Y-95650000D01*
X194238732Y-95651000D01*
G37*
G36*
X205638732Y-95651000D02*
G01*
X205639000Y-95652000D01*
X205639000Y-95800000D01*
X205638000Y-95801732D01*
X205637000Y-95802000D01*
X204035000Y-95802000D01*
X204033268Y-95801000D01*
X204033000Y-95800000D01*
X204033000Y-95652000D01*
X204034000Y-95650268D01*
X204035000Y-95650000D01*
X205637000Y-95650000D01*
X205638732Y-95651000D01*
G37*
G36*
X169667732Y-95140000D02*
G01*
X169668000Y-95141000D01*
X169668000Y-95289000D01*
X169667000Y-95290732D01*
X169666000Y-95291000D01*
X167914000Y-95291000D01*
X167912268Y-95290000D01*
X167912000Y-95289000D01*
X167912000Y-95141000D01*
X167913000Y-95139268D01*
X167914000Y-95139000D01*
X169666000Y-95139000D01*
X169667732Y-95140000D01*
G37*
G36*
X205638732Y-94851000D02*
G01*
X205639000Y-94852000D01*
X205639000Y-95000000D01*
X205638000Y-95001732D01*
X205637000Y-95002000D01*
X204035000Y-95002000D01*
X204033268Y-95001000D01*
X204033000Y-95000000D01*
X204033000Y-94852000D01*
X204034000Y-94850268D01*
X204035000Y-94850000D01*
X205637000Y-94850000D01*
X205638732Y-94851000D01*
G37*
G36*
X194238732Y-94851000D02*
G01*
X194239000Y-94852000D01*
X194239000Y-95000000D01*
X194238000Y-95001732D01*
X194237000Y-95002000D01*
X192635000Y-95002000D01*
X192633268Y-95001000D01*
X192633000Y-95000000D01*
X192633000Y-94852000D01*
X192634000Y-94850268D01*
X192635000Y-94850000D01*
X194237000Y-94850000D01*
X194238732Y-94851000D01*
G37*
G36*
X169667732Y-94490000D02*
G01*
X169668000Y-94491000D01*
X169668000Y-94639000D01*
X169667000Y-94640732D01*
X169666000Y-94641000D01*
X167914000Y-94641000D01*
X167912268Y-94640000D01*
X167912000Y-94639000D01*
X167912000Y-94491000D01*
X167913000Y-94489268D01*
X167914000Y-94489000D01*
X169666000Y-94489000D01*
X169667732Y-94490000D01*
G37*
G36*
X172836732Y-93276000D02*
G01*
X172837000Y-93277000D01*
X172837000Y-94429000D01*
X172836000Y-94430732D01*
X172835000Y-94431000D01*
X172687000Y-94431000D01*
X172685268Y-94430000D01*
X172685000Y-94429000D01*
X172685000Y-93277000D01*
X172686000Y-93275268D01*
X172687000Y-93275000D01*
X172835000Y-93275000D01*
X172836732Y-93276000D01*
G37*
G36*
X173486732Y-93276000D02*
G01*
X173487000Y-93277000D01*
X173487000Y-94429000D01*
X173486000Y-94430732D01*
X173485000Y-94431000D01*
X173337000Y-94431000D01*
X173335268Y-94430000D01*
X173335000Y-94429000D01*
X173335000Y-93277000D01*
X173336000Y-93275268D01*
X173337000Y-93275000D01*
X173485000Y-93275000D01*
X173486732Y-93276000D01*
G37*
G36*
X205638732Y-94051000D02*
G01*
X205639000Y-94052000D01*
X205639000Y-94200000D01*
X205638000Y-94201732D01*
X205637000Y-94202000D01*
X204035000Y-94202000D01*
X204033268Y-94201000D01*
X204033000Y-94200000D01*
X204033000Y-94052000D01*
X204034000Y-94050268D01*
X204035000Y-94050000D01*
X205637000Y-94050000D01*
X205638732Y-94051000D01*
G37*
G36*
X194238732Y-94051000D02*
G01*
X194239000Y-94052000D01*
X194239000Y-94200000D01*
X194238000Y-94201732D01*
X194237000Y-94202000D01*
X192635000Y-94202000D01*
X192633268Y-94201000D01*
X192633000Y-94200000D01*
X192633000Y-94052000D01*
X192634000Y-94050268D01*
X192635000Y-94050000D01*
X194237000Y-94050000D01*
X194238732Y-94051000D01*
G37*
G36*
X169667732Y-93840000D02*
G01*
X169668000Y-93841000D01*
X169668000Y-93989000D01*
X169667000Y-93990732D01*
X169666000Y-93991000D01*
X167914000Y-93991000D01*
X167912268Y-93990000D01*
X167912000Y-93989000D01*
X167912000Y-93841000D01*
X167913000Y-93839268D01*
X167914000Y-93839000D01*
X169666000Y-93839000D01*
X169667732Y-93840000D01*
G37*
G36*
X181528333Y-92945097D02*
G01*
X181534252Y-92948261D01*
X181543445Y-92951050D01*
X181553094Y-92952000D01*
X183952906Y-92952000D01*
X183962555Y-92951050D01*
X183971748Y-92948261D01*
X183977668Y-92945097D01*
X183979667Y-92945163D01*
X183980610Y-92946927D01*
X183979880Y-92948407D01*
X183974304Y-92952983D01*
X183974146Y-92953100D01*
X183970973Y-92955220D01*
X183953926Y-92972267D01*
X183940532Y-92992315D01*
X183931323Y-93014546D01*
X183926000Y-93050435D01*
X183926000Y-93127000D01*
X183925000Y-93128732D01*
X183924000Y-93129000D01*
X183584000Y-93129000D01*
X183584000Y-93829000D01*
X183583000Y-93830732D01*
X183582000Y-93831000D01*
X183424000Y-93831000D01*
X183422268Y-93830000D01*
X183422000Y-93829000D01*
X183422000Y-93129000D01*
X183084000Y-93129000D01*
X183084000Y-93829000D01*
X183083000Y-93830732D01*
X183082000Y-93831000D01*
X182924000Y-93831000D01*
X182922268Y-93830000D01*
X182922000Y-93829000D01*
X182922000Y-93129000D01*
X182584000Y-93129000D01*
X182584000Y-93829000D01*
X182583000Y-93830732D01*
X182582000Y-93831000D01*
X182424000Y-93831000D01*
X182422268Y-93830000D01*
X182422000Y-93829000D01*
X182422000Y-93129000D01*
X182084000Y-93129000D01*
X182084000Y-93829000D01*
X182083000Y-93830732D01*
X182082000Y-93831000D01*
X181924000Y-93831000D01*
X181922268Y-93830000D01*
X181922000Y-93829000D01*
X181922000Y-93129000D01*
X181582000Y-93129000D01*
X181580268Y-93128000D01*
X181580000Y-93127000D01*
X181580000Y-93050384D01*
X181577628Y-93026299D01*
X181570628Y-93003224D01*
X181559263Y-92981960D01*
X181543998Y-92963359D01*
X181532753Y-92955020D01*
X181531965Y-92953204D01*
X181526121Y-92948407D01*
X181525417Y-92946535D01*
X181526686Y-92944989D01*
X181528333Y-92945097D01*
G37*
G36*
X194238732Y-93251000D02*
G01*
X194239000Y-93252000D01*
X194239000Y-93400000D01*
X194238000Y-93401732D01*
X194237000Y-93402000D01*
X192635000Y-93402000D01*
X192633268Y-93401000D01*
X192633000Y-93400000D01*
X192633000Y-93252000D01*
X192634000Y-93250268D01*
X192635000Y-93250000D01*
X194237000Y-93250000D01*
X194238732Y-93251000D01*
G37*
G36*
X205638732Y-93251000D02*
G01*
X205639000Y-93252000D01*
X205639000Y-93400000D01*
X205638000Y-93401732D01*
X205637000Y-93402000D01*
X204035000Y-93402000D01*
X204033268Y-93401000D01*
X204033000Y-93400000D01*
X204033000Y-93252000D01*
X204034000Y-93250268D01*
X204035000Y-93250000D01*
X205637000Y-93250000D01*
X205638732Y-93251000D01*
G37*
G36*
X169692732Y-93090000D02*
G01*
X169693000Y-93091000D01*
X169693000Y-93141759D01*
X169692546Y-93143028D01*
X169688737Y-93147669D01*
X169677372Y-93168933D01*
X169670372Y-93192008D01*
X169668000Y-93216093D01*
X169668000Y-93339000D01*
X169667000Y-93340732D01*
X169666000Y-93341000D01*
X167964001Y-93341000D01*
X167962269Y-93340000D01*
X167962269Y-93338000D01*
X167963805Y-93337010D01*
X167987992Y-93334628D01*
X168011067Y-93327628D01*
X168032331Y-93316263D01*
X168050968Y-93300968D01*
X168066263Y-93282331D01*
X168077628Y-93261067D01*
X168084628Y-93237992D01*
X168087000Y-93213907D01*
X168087000Y-93091000D01*
X168088000Y-93089268D01*
X168089000Y-93089000D01*
X169691000Y-93089000D01*
X169692732Y-93090000D01*
G37*
G36*
X168063522Y-90974736D02*
G01*
X168068933Y-90977628D01*
X168092008Y-90984628D01*
X168116195Y-90987010D01*
X168117821Y-90988175D01*
X168117625Y-90990165D01*
X168115999Y-90991000D01*
X168091000Y-90991000D01*
X168091000Y-93028499D01*
X168090000Y-93030231D01*
X168088000Y-93030231D01*
X168087010Y-93028695D01*
X168084628Y-93004508D01*
X168077628Y-92981433D01*
X168066263Y-92960169D01*
X168050968Y-92941532D01*
X168032331Y-92926237D01*
X168011067Y-92914872D01*
X167987992Y-92907872D01*
X167963805Y-92905490D01*
X167962179Y-92904325D01*
X167962375Y-92902335D01*
X167964001Y-92901500D01*
X167989000Y-92901500D01*
X167989000Y-90976500D01*
X167990000Y-90974768D01*
X167991000Y-90974500D01*
X168062579Y-90974500D01*
X168063522Y-90974736D01*
G37*
G36*
X205638732Y-92451000D02*
G01*
X205639000Y-92452000D01*
X205639000Y-92600000D01*
X205638000Y-92601732D01*
X205637000Y-92602000D01*
X204035000Y-92602000D01*
X204033268Y-92601000D01*
X204033000Y-92600000D01*
X204033000Y-92452000D01*
X204034000Y-92450268D01*
X204035000Y-92450000D01*
X205637000Y-92450000D01*
X205638732Y-92451000D01*
G37*
G36*
X194238732Y-92451000D02*
G01*
X194239000Y-92452000D01*
X194239000Y-92600000D01*
X194238000Y-92601732D01*
X194237000Y-92602000D01*
X192635000Y-92602000D01*
X192633268Y-92601000D01*
X192633000Y-92600000D01*
X192633000Y-92452000D01*
X192634000Y-92450268D01*
X192635000Y-92450000D01*
X194237000Y-92450000D01*
X194238732Y-92451000D01*
G37*
G36*
X173486732Y-91376000D02*
G01*
X173487000Y-91377000D01*
X173487000Y-92529000D01*
X173486000Y-92530732D01*
X173485000Y-92531000D01*
X173337000Y-92531000D01*
X173335268Y-92530000D01*
X173335000Y-92529000D01*
X173335000Y-91377000D01*
X173336000Y-91375268D01*
X173337000Y-91375000D01*
X173485000Y-91375000D01*
X173486732Y-91376000D01*
G37*
G36*
X172836732Y-91376000D02*
G01*
X172837000Y-91377000D01*
X172837000Y-92529000D01*
X172836000Y-92530732D01*
X172835000Y-92531000D01*
X172687000Y-92531000D01*
X172685268Y-92530000D01*
X172685000Y-92529000D01*
X172685000Y-91377000D01*
X172686000Y-91375268D01*
X172687000Y-91375000D01*
X172835000Y-91375000D01*
X172836732Y-91376000D01*
G37*
G36*
X184488649Y-91990694D02*
G01*
X184488222Y-91992289D01*
X184482908Y-91998765D01*
X184482776Y-91998910D01*
X184481698Y-91999988D01*
X184468306Y-92020037D01*
X184459083Y-92042312D01*
X184454381Y-92065963D01*
X184454384Y-92090069D01*
X184459091Y-92113717D01*
X184468322Y-92135993D01*
X184481719Y-92156037D01*
X184482793Y-92157111D01*
X184482925Y-92157256D01*
X184488223Y-92163711D01*
X184488549Y-92165684D01*
X184487003Y-92166953D01*
X184485408Y-92166526D01*
X184480218Y-92162266D01*
X184471748Y-92157739D01*
X184462555Y-92154950D01*
X184452906Y-92154000D01*
X184004000Y-92154000D01*
X184002268Y-92153000D01*
X184002000Y-92152000D01*
X184002000Y-92004000D01*
X184003000Y-92002268D01*
X184004000Y-92002000D01*
X184452906Y-92002000D01*
X184462555Y-92001050D01*
X184471748Y-91998261D01*
X184480218Y-91993734D01*
X184485407Y-91989474D01*
X184487380Y-91989148D01*
X184488649Y-91990694D01*
G37*
G36*
X181020592Y-91989474D02*
G01*
X181025782Y-91993734D01*
X181034252Y-91998261D01*
X181043445Y-92001050D01*
X181053094Y-92002000D01*
X181502000Y-92002000D01*
X181503732Y-92003000D01*
X181504000Y-92004000D01*
X181504000Y-92152000D01*
X181503000Y-92153732D01*
X181502000Y-92154000D01*
X181053094Y-92154000D01*
X181043445Y-92154950D01*
X181034252Y-92157739D01*
X181025782Y-92162266D01*
X181020593Y-92166526D01*
X181018620Y-92166852D01*
X181017351Y-92165306D01*
X181017778Y-92163711D01*
X181023092Y-92157235D01*
X181023224Y-92157090D01*
X181024302Y-92156012D01*
X181037694Y-92135963D01*
X181046917Y-92113688D01*
X181051619Y-92090037D01*
X181051616Y-92065931D01*
X181046909Y-92042283D01*
X181037678Y-92020007D01*
X181024281Y-91999963D01*
X181023207Y-91998889D01*
X181023075Y-91998744D01*
X181017777Y-91992289D01*
X181017451Y-91990316D01*
X181018997Y-91989047D01*
X181020592Y-91989474D01*
G37*
G36*
X205638732Y-91651000D02*
G01*
X205639000Y-91652000D01*
X205639000Y-91800000D01*
X205638000Y-91801732D01*
X205637000Y-91802000D01*
X204035000Y-91802000D01*
X204033268Y-91801000D01*
X204033000Y-91800000D01*
X204033000Y-91652000D01*
X204034000Y-91650268D01*
X204035000Y-91650000D01*
X205637000Y-91650000D01*
X205638732Y-91651000D01*
G37*
G36*
X194238732Y-91651000D02*
G01*
X194239000Y-91652000D01*
X194239000Y-91800000D01*
X194238000Y-91801732D01*
X194237000Y-91802000D01*
X192635000Y-91802000D01*
X192633268Y-91801000D01*
X192633000Y-91800000D01*
X192633000Y-91652000D01*
X192634000Y-91650268D01*
X192635000Y-91650000D01*
X194237000Y-91650000D01*
X194238732Y-91651000D01*
G37*
G36*
X182083732Y-90326000D02*
G01*
X182084000Y-90327000D01*
X182084000Y-91027000D01*
X182422000Y-91027000D01*
X182422000Y-90327000D01*
X182423000Y-90325268D01*
X182424000Y-90325000D01*
X182582000Y-90325000D01*
X182583732Y-90326000D01*
X182584000Y-90327000D01*
X182584000Y-91027000D01*
X182922000Y-91027000D01*
X182922000Y-90327000D01*
X182923000Y-90325268D01*
X182924000Y-90325000D01*
X183082000Y-90325000D01*
X183083732Y-90326000D01*
X183084000Y-90327000D01*
X183084000Y-91027000D01*
X183422000Y-91027000D01*
X183422000Y-90327000D01*
X183423000Y-90325268D01*
X183424000Y-90325000D01*
X183582000Y-90325000D01*
X183583732Y-90326000D01*
X183584000Y-90327000D01*
X183584000Y-91027000D01*
X183924000Y-91027000D01*
X183925732Y-91028000D01*
X183926000Y-91029000D01*
X183926000Y-91105616D01*
X183928372Y-91129701D01*
X183935372Y-91152776D01*
X183946737Y-91174040D01*
X183962002Y-91192641D01*
X183973247Y-91200980D01*
X183974035Y-91202796D01*
X183979879Y-91207593D01*
X183980583Y-91209465D01*
X183979314Y-91211011D01*
X183977667Y-91210903D01*
X183971748Y-91207739D01*
X183962555Y-91204950D01*
X183952906Y-91204000D01*
X181553094Y-91204000D01*
X181543445Y-91204950D01*
X181534252Y-91207739D01*
X181528332Y-91210903D01*
X181526333Y-91210837D01*
X181525390Y-91209073D01*
X181526120Y-91207593D01*
X181531696Y-91203017D01*
X181531854Y-91202900D01*
X181535027Y-91200780D01*
X181552074Y-91183733D01*
X181565468Y-91163685D01*
X181574677Y-91141454D01*
X181580000Y-91105565D01*
X181580000Y-91029000D01*
X181581000Y-91027268D01*
X181582000Y-91027000D01*
X181922000Y-91027000D01*
X181922000Y-90327000D01*
X181923000Y-90325268D01*
X181924000Y-90325000D01*
X182082000Y-90325000D01*
X182083732Y-90326000D01*
G37*
G36*
X194238732Y-90851000D02*
G01*
X194239000Y-90852000D01*
X194239000Y-91000000D01*
X194238000Y-91001732D01*
X194237000Y-91002000D01*
X192635000Y-91002000D01*
X192633268Y-91001000D01*
X192633000Y-91000000D01*
X192633000Y-90852000D01*
X192634000Y-90850268D01*
X192635000Y-90850000D01*
X194237000Y-90850000D01*
X194238732Y-90851000D01*
G37*
G36*
X205638732Y-90851000D02*
G01*
X205639000Y-90852000D01*
X205639000Y-91000000D01*
X205638000Y-91001732D01*
X205637000Y-91002000D01*
X204035000Y-91002000D01*
X204033268Y-91001000D01*
X204033000Y-91000000D01*
X204033000Y-90852000D01*
X204034000Y-90850268D01*
X204035000Y-90850000D01*
X205637000Y-90850000D01*
X205638732Y-90851000D01*
G37*
G36*
X205638732Y-90051000D02*
G01*
X205639000Y-90052000D01*
X205639000Y-90200000D01*
X205638000Y-90201732D01*
X205637000Y-90202000D01*
X204035000Y-90202000D01*
X204033268Y-90201000D01*
X204033000Y-90200000D01*
X204033000Y-90052000D01*
X204034000Y-90050268D01*
X204035000Y-90050000D01*
X205637000Y-90050000D01*
X205638732Y-90051000D01*
G37*
G36*
X194238732Y-90051000D02*
G01*
X194239000Y-90052000D01*
X194239000Y-90200000D01*
X194238000Y-90201732D01*
X194237000Y-90202000D01*
X192635000Y-90202000D01*
X192633268Y-90201000D01*
X192633000Y-90200000D01*
X192633000Y-90052000D01*
X192634000Y-90050268D01*
X192635000Y-90050000D01*
X194237000Y-90050000D01*
X194238732Y-90051000D01*
G37*
G36*
X197211732Y-87224000D02*
G01*
X197212000Y-87225000D01*
X197212000Y-88827000D01*
X197211000Y-88828732D01*
X197210000Y-88829000D01*
X197062000Y-88829000D01*
X197060268Y-88828000D01*
X197060000Y-88827000D01*
X197060000Y-87225000D01*
X197061000Y-87223268D01*
X197062000Y-87223000D01*
X197210000Y-87223000D01*
X197211732Y-87224000D01*
G37*
G36*
X202811732Y-87224000D02*
G01*
X202812000Y-87225000D01*
X202812000Y-88827000D01*
X202811000Y-88828732D01*
X202810000Y-88829000D01*
X202662000Y-88829000D01*
X202660268Y-88828000D01*
X202660000Y-88827000D01*
X202660000Y-87225000D01*
X202661000Y-87223268D01*
X202662000Y-87223000D01*
X202810000Y-87223000D01*
X202811732Y-87224000D01*
G37*
G36*
X195611732Y-87224000D02*
G01*
X195612000Y-87225000D01*
X195612000Y-88827000D01*
X195611000Y-88828732D01*
X195610000Y-88829000D01*
X195462000Y-88829000D01*
X195460268Y-88828000D01*
X195460000Y-88827000D01*
X195460000Y-87225000D01*
X195461000Y-87223268D01*
X195462000Y-87223000D01*
X195610000Y-87223000D01*
X195611732Y-87224000D01*
G37*
G36*
X196411732Y-87224000D02*
G01*
X196412000Y-87225000D01*
X196412000Y-88827000D01*
X196411000Y-88828732D01*
X196410000Y-88829000D01*
X196262000Y-88829000D01*
X196260268Y-88828000D01*
X196260000Y-88827000D01*
X196260000Y-87225000D01*
X196261000Y-87223268D01*
X196262000Y-87223000D01*
X196410000Y-87223000D01*
X196411732Y-87224000D01*
G37*
G36*
X198011732Y-87224000D02*
G01*
X198012000Y-87225000D01*
X198012000Y-88827000D01*
X198011000Y-88828732D01*
X198010000Y-88829000D01*
X197862000Y-88829000D01*
X197860268Y-88828000D01*
X197860000Y-88827000D01*
X197860000Y-87225000D01*
X197861000Y-87223268D01*
X197862000Y-87223000D01*
X198010000Y-87223000D01*
X198011732Y-87224000D01*
G37*
G36*
X198811732Y-87224000D02*
G01*
X198812000Y-87225000D01*
X198812000Y-88827000D01*
X198811000Y-88828732D01*
X198810000Y-88829000D01*
X198662000Y-88829000D01*
X198660268Y-88828000D01*
X198660000Y-88827000D01*
X198660000Y-87225000D01*
X198661000Y-87223268D01*
X198662000Y-87223000D01*
X198810000Y-87223000D01*
X198811732Y-87224000D01*
G37*
G36*
X199611732Y-87224000D02*
G01*
X199612000Y-87225000D01*
X199612000Y-88827000D01*
X199611000Y-88828732D01*
X199610000Y-88829000D01*
X199462000Y-88829000D01*
X199460268Y-88828000D01*
X199460000Y-88827000D01*
X199460000Y-87225000D01*
X199461000Y-87223268D01*
X199462000Y-87223000D01*
X199610000Y-87223000D01*
X199611732Y-87224000D01*
G37*
G36*
X200411732Y-87224000D02*
G01*
X200412000Y-87225000D01*
X200412000Y-88827000D01*
X200411000Y-88828732D01*
X200410000Y-88829000D01*
X200262000Y-88829000D01*
X200260268Y-88828000D01*
X200260000Y-88827000D01*
X200260000Y-87225000D01*
X200261000Y-87223268D01*
X200262000Y-87223000D01*
X200410000Y-87223000D01*
X200411732Y-87224000D01*
G37*
G36*
X201211732Y-87224000D02*
G01*
X201212000Y-87225000D01*
X201212000Y-88827000D01*
X201211000Y-88828732D01*
X201210000Y-88829000D01*
X201062000Y-88829000D01*
X201060268Y-88828000D01*
X201060000Y-88827000D01*
X201060000Y-87225000D01*
X201061000Y-87223268D01*
X201062000Y-87223000D01*
X201210000Y-87223000D01*
X201211732Y-87224000D01*
G37*
G36*
X202011732Y-87224000D02*
G01*
X202012000Y-87225000D01*
X202012000Y-88827000D01*
X202011000Y-88828732D01*
X202010000Y-88829000D01*
X201862000Y-88829000D01*
X201860268Y-88828000D01*
X201860000Y-88827000D01*
X201860000Y-87225000D01*
X201861000Y-87223268D01*
X201862000Y-87223000D01*
X202010000Y-87223000D01*
X202011732Y-87224000D01*
G37*
G36*
X167045732Y-86245000D02*
G01*
X167046000Y-86246000D01*
X167046000Y-86444000D01*
X167045000Y-86445732D01*
X167044000Y-86446000D01*
X165442000Y-86446000D01*
X165440268Y-86445000D01*
X165440000Y-86444000D01*
X165440000Y-86246000D01*
X165441000Y-86244268D01*
X165442000Y-86244000D01*
X167044000Y-86244000D01*
X167045732Y-86245000D01*
G37*
M02*
