M48
; DRILL file {KiCad (5.1.9)-1} date 11/21/21 12:26:06
; FORMAT={-:-/ absolute / metric / decimal}
; #@! TF.CreationDate,2021-11-21T12:26:06+01:00
; #@! TF.GenerationSoftware,Kicad,Pcbnew,(5.1.9)-1
; #@! TF.FileFunction,Plated,1,2,PTH
FMAT,2
METRIC
T1C0.200
T2C0.400
T3C0.650
T4C0.700
T5C0.710
T6C0.800
T7C1.000
T8C1.200
T9C2.200
%
G90
G05
T1
X181.803Y-92.078
X182.753Y-91.503
X182.753Y-92.653
X183.703Y-92.078
T2
X164.593Y-81.407
X164.593Y-143.891
X165.076Y-80.24
X165.076Y-82.574
X165.076Y-142.724
X165.076Y-145.058
X166.243Y-79.757
X166.243Y-83.057
X166.243Y-87.884
X166.243Y-142.241
X166.243Y-145.541
X167.41Y-80.24
X167.41Y-82.574
X167.41Y-142.724
X167.41Y-145.058
X167.533Y-93.623
X167.568Y-95.54
X167.893Y-81.407
X167.893Y-143.891
X170.0Y-83.058
X171.45Y-95.123
X172.302Y-121.349
X173.086Y-94.775
X173.228Y-96.393
X173.228Y-102.362
X173.482Y-132.461
X173.609Y-111.633
X174.536Y-93.726
X174.585Y-88.432
X175.501Y-89.94
X176.657Y-104.521
X180.721Y-90.678
X181.064Y-101.346
X181.483Y-103.161
X181.483Y-131.826
X182.118Y-111.506
X183.212Y-121.842
X183.388Y-99.695
X188.325Y-103.013
X188.595Y-104.14
X189.992Y-132.926
X190.135Y-101.711
X190.246Y-96.012
X190.754Y-120.65
X190.754Y-123.788
X191.135Y-102.14
X192.151Y-96.139
X192.31Y-89.502
X192.354Y-90.501
X194.31Y-88.392
X194.818Y-89.535
X195.072Y-101.727
X195.915Y-100.894
X196.834Y-101.42
X196.904Y-95.174
X196.977Y-85.09
X197.51Y-100.683
X197.611Y-95.885
X197.629Y-94.36
X198.077Y-106.299
X198.374Y-89.535
X198.628Y-100.838
X199.142Y-90.175
X199.72Y-95.16
X199.861Y-96.647
X199.905Y-89.529
X200.852Y-96.511
X202.057Y-93.25
X202.31Y-95.34
X202.438Y-96.52
X202.57Y-97.541
X202.687Y-91.319
X202.692Y-119.126
X203.073Y-93.25
X203.299Y-95.138
X203.327Y-90.551
X203.493Y-94.157
X203.575Y-116.205
X203.575Y-119.888
X204.524Y-99.124
X204.851Y-100.076
X205.613Y-102.108
X206.375Y-105.029
X206.375Y-119.888
X206.375Y-120.904
X206.825Y-116.205
X206.883Y-102.108
X207.107Y-97.925
X207.264Y-108.839
X208.01Y-101.965
X208.072Y-97.663
X208.514Y-94.468
X210.087Y-107.291
X210.272Y-99.568
X210.73Y-98.679
X210.73Y-100.457
X211.391Y-113.855
X211.455Y-97.282
X211.455Y-105.41
X211.709Y-94.742
X212.217Y-104.648
X212.217Y-106.68
X212.217Y-112.776
X212.223Y-98.007
X212.942Y-99.689
X213.233Y-98.732
X214.37Y-93.459
X214.376Y-126.206
X214.852Y-90.551
X214.852Y-91.567
X214.852Y-92.583
X216.069Y-127.935
X219.075Y-98.552
X220.345Y-90.551
X220.853Y-93.472
X221.964Y-102.108
X223.144Y-91.562
X223.647Y-120.396
X224.282Y-123.825
X224.536Y-102.108
X225.298Y-92.583
X227.839Y-81.407
X227.839Y-143.891
X228.322Y-80.24
X228.322Y-82.574
X228.322Y-142.724
X228.322Y-145.058
X229.489Y-79.757
X229.489Y-83.057
X229.489Y-142.241
X229.489Y-145.541
X230.656Y-80.24
X230.656Y-82.574
X230.656Y-142.724
X230.656Y-145.058
X231.139Y-81.407
X231.139Y-143.891
T5
X170.576Y-113.206
X170.576Y-135.206
X172.576Y-113.206
X172.576Y-135.206
X174.576Y-113.206
X174.576Y-135.206
X176.576Y-113.206
X176.576Y-135.206
X178.576Y-113.206
X178.576Y-135.206
X180.576Y-113.206
X180.576Y-135.206
X182.576Y-113.206
X182.576Y-135.206
X184.576Y-113.206
X184.576Y-135.206
X186.576Y-113.206
X186.576Y-135.206
X188.576Y-113.206
X188.576Y-135.206
T6
X178.371Y-83.498
X178.816Y-92.075
X190.119Y-86.995
X193.04Y-129.413
X193.04Y-133.477
X220.16Y-136.594
X222.631Y-129.159
X223.266Y-140.589
T7
X171.45Y-81.28
X171.45Y-83.82
X173.482Y-138.811
X175.133Y-81.28
X175.133Y-83.82
X176.022Y-138.811
X176.022Y-141.478
X178.562Y-138.811
X178.562Y-141.478
X181.102Y-138.811
X182.499Y-105.664
X182.499Y-108.204
X183.642Y-138.811
X184.277Y-81.28
X185.039Y-105.664
X185.039Y-108.204
X186.182Y-138.811
X186.309Y-120.523
X186.309Y-123.063
X186.309Y-125.603
X186.309Y-128.143
X186.817Y-81.28
X187.579Y-105.664
X187.579Y-108.204
X188.849Y-120.523
X188.849Y-123.063
X188.849Y-125.603
X188.849Y-128.143
X189.357Y-81.28
X190.119Y-105.664
X190.119Y-108.204
X191.897Y-81.28
X192.659Y-105.664
X192.659Y-108.204
X194.437Y-81.28
X195.961Y-143.764
X196.977Y-81.28
X198.501Y-143.764
X199.517Y-81.28
X201.041Y-143.764
X202.057Y-81.28
X203.581Y-143.764
X204.597Y-81.28
X206.121Y-143.764
X207.137Y-81.28
X208.661Y-143.764
X209.677Y-81.28
X211.201Y-143.764
X212.217Y-81.28
X213.741Y-143.764
X216.281Y-143.764
X216.662Y-114.427
X216.662Y-116.967
X216.662Y-119.507
X216.662Y-122.047
X216.662Y-124.587
X218.821Y-143.764
X219.202Y-114.427
X219.202Y-116.967
X219.202Y-119.507
X219.202Y-122.047
X219.202Y-124.587
X221.361Y-143.764
X223.901Y-143.764
X225.044Y-104.394
X225.044Y-106.934
X225.044Y-109.474
X225.044Y-112.014
X225.044Y-114.554
X225.044Y-117.094
X229.362Y-99.187
X229.362Y-101.727
X229.362Y-104.267
X229.362Y-106.807
X229.362Y-109.347
X229.362Y-111.887
X229.362Y-114.427
X229.362Y-116.967
X229.362Y-119.507
X229.362Y-122.047
X229.362Y-124.587
X229.362Y-127.127
T8
X219.202Y-88.392
X224.202Y-88.392
T9
X166.243Y-81.407
X166.243Y-143.891
X229.489Y-81.407
X229.489Y-143.891
T3
X168.71Y-92.47G85X169.11Y-92.47
G05
X168.71Y-97.31G85X169.11Y-97.31
G05
T4
X165.66Y-92.16G85X166.16Y-92.16
G05
X165.66Y-97.62G85X166.16Y-97.62
G05
T0
M30
