G04 #@! TF.GenerationSoftware,KiCad,Pcbnew,(5.1.9)-1*
G04 #@! TF.CreationDate,2021-11-21T12:26:00+01:00*
G04 #@! TF.ProjectId,SmartSensor,536d6172-7453-4656-9e73-6f722e6b6963,1.3*
G04 #@! TF.SameCoordinates,Original*
G04 #@! TF.FileFunction,Soldermask,Bot*
G04 #@! TF.FilePolarity,Negative*
%FSLAX46Y46*%
G04 Gerber Fmt 4.6, Leading zero omitted, Abs format (unit mm)*
G04 Created by KiCad (PCBNEW (5.1.9)-1) date 2021-11-21 12:26:00*
%MOMM*%
%LPD*%
G01*
G04 APERTURE LIST*
%ADD10C,2.502000*%
%ADD11O,1.602000X1.202000*%
%ADD12O,1.802000X1.452000*%
%ADD13O,1.802000X1.802000*%
%ADD14C,1.202000*%
%ADD15C,4.502000*%
%ADD16C,0.802000*%
G04 APERTURE END LIST*
G36*
G01*
X217951000Y-89592000D02*
X217951000Y-87192000D01*
G75*
G02*
X218002000Y-87141000I51000J0D01*
G01*
X220402000Y-87141000D01*
G75*
G02*
X220453000Y-87192000I0J-51000D01*
G01*
X220453000Y-89592000D01*
G75*
G02*
X220402000Y-89643000I-51000J0D01*
G01*
X218002000Y-89643000D01*
G75*
G02*
X217951000Y-89592000I0J51000D01*
G01*
G37*
D10*
X224202000Y-88392000D03*
D11*
X168910000Y-92470000D03*
X168910000Y-97310000D03*
D12*
X165910000Y-92160000D03*
X165910000Y-97620000D03*
G36*
G01*
X174232000Y-84670000D02*
X174232000Y-82970000D01*
G75*
G02*
X174283000Y-82919000I51000J0D01*
G01*
X175983000Y-82919000D01*
G75*
G02*
X176034000Y-82970000I0J-51000D01*
G01*
X176034000Y-84670000D01*
G75*
G02*
X175983000Y-84721000I-51000J0D01*
G01*
X174283000Y-84721000D01*
G75*
G02*
X174232000Y-84670000I0J51000D01*
G01*
G37*
D13*
X175133000Y-81280000D03*
X171450000Y-81280000D03*
G36*
G01*
X170549000Y-84670000D02*
X170549000Y-82970000D01*
G75*
G02*
X170600000Y-82919000I51000J0D01*
G01*
X172300000Y-82919000D01*
G75*
G02*
X172351000Y-82970000I0J-51000D01*
G01*
X172351000Y-84670000D01*
G75*
G02*
X172300000Y-84721000I-51000J0D01*
G01*
X170600000Y-84721000D01*
G75*
G02*
X170549000Y-84670000I0J51000D01*
G01*
G37*
X225044000Y-117094000D03*
X225044000Y-114554000D03*
X225044000Y-112014000D03*
X225044000Y-109474000D03*
X225044000Y-106934000D03*
G36*
G01*
X224143000Y-105244000D02*
X224143000Y-103544000D01*
G75*
G02*
X224194000Y-103493000I51000J0D01*
G01*
X225894000Y-103493000D01*
G75*
G02*
X225945000Y-103544000I0J-51000D01*
G01*
X225945000Y-105244000D01*
G75*
G02*
X225894000Y-105295000I-51000J0D01*
G01*
X224194000Y-105295000D01*
G75*
G02*
X224143000Y-105244000I0J51000D01*
G01*
G37*
G36*
G01*
X191809000Y-104763000D02*
X193509000Y-104763000D01*
G75*
G02*
X193560000Y-104814000I0J-51000D01*
G01*
X193560000Y-106514000D01*
G75*
G02*
X193509000Y-106565000I-51000J0D01*
G01*
X191809000Y-106565000D01*
G75*
G02*
X191758000Y-106514000I0J51000D01*
G01*
X191758000Y-104814000D01*
G75*
G02*
X191809000Y-104763000I51000J0D01*
G01*
G37*
X192659000Y-108204000D03*
X190119000Y-105664000D03*
X190119000Y-108204000D03*
X187579000Y-105664000D03*
X187579000Y-108204000D03*
X185039000Y-105664000D03*
X185039000Y-108204000D03*
X182499000Y-105664000D03*
X182499000Y-108204000D03*
X219202000Y-124587000D03*
X216662000Y-124587000D03*
X219202000Y-122047000D03*
X216662000Y-122047000D03*
X219202000Y-119507000D03*
X216662000Y-119507000D03*
X219202000Y-116967000D03*
X216662000Y-116967000D03*
X219202000Y-114427000D03*
G36*
G01*
X215761000Y-115277000D02*
X215761000Y-113577000D01*
G75*
G02*
X215812000Y-113526000I51000J0D01*
G01*
X217512000Y-113526000D01*
G75*
G02*
X217563000Y-113577000I0J-51000D01*
G01*
X217563000Y-115277000D01*
G75*
G02*
X217512000Y-115328000I-51000J0D01*
G01*
X215812000Y-115328000D01*
G75*
G02*
X215761000Y-115277000I0J51000D01*
G01*
G37*
G36*
G01*
X176872000Y-142379000D02*
X175172000Y-142379000D01*
G75*
G02*
X175121000Y-142328000I0J51000D01*
G01*
X175121000Y-140628000D01*
G75*
G02*
X175172000Y-140577000I51000J0D01*
G01*
X176872000Y-140577000D01*
G75*
G02*
X176923000Y-140628000I0J-51000D01*
G01*
X176923000Y-142328000D01*
G75*
G02*
X176872000Y-142379000I-51000J0D01*
G01*
G37*
X178562000Y-141478000D03*
G36*
G01*
X174332000Y-139712000D02*
X172632000Y-139712000D01*
G75*
G02*
X172581000Y-139661000I0J51000D01*
G01*
X172581000Y-137961000D01*
G75*
G02*
X172632000Y-137910000I51000J0D01*
G01*
X174332000Y-137910000D01*
G75*
G02*
X174383000Y-137961000I0J-51000D01*
G01*
X174383000Y-139661000D01*
G75*
G02*
X174332000Y-139712000I-51000J0D01*
G01*
G37*
X176022000Y-138811000D03*
X178562000Y-138811000D03*
X181102000Y-138811000D03*
X183642000Y-138811000D03*
X186182000Y-138811000D03*
G36*
G01*
X185408000Y-121373000D02*
X185408000Y-119673000D01*
G75*
G02*
X185459000Y-119622000I51000J0D01*
G01*
X187159000Y-119622000D01*
G75*
G02*
X187210000Y-119673000I0J-51000D01*
G01*
X187210000Y-121373000D01*
G75*
G02*
X187159000Y-121424000I-51000J0D01*
G01*
X185459000Y-121424000D01*
G75*
G02*
X185408000Y-121373000I0J51000D01*
G01*
G37*
X188849000Y-120523000D03*
X186309000Y-123063000D03*
X188849000Y-123063000D03*
X186309000Y-125603000D03*
X188849000Y-125603000D03*
X186309000Y-128143000D03*
X188849000Y-128143000D03*
X212217000Y-81280000D03*
X209677000Y-81280000D03*
X207137000Y-81280000D03*
X204597000Y-81280000D03*
X202057000Y-81280000D03*
X199517000Y-81280000D03*
X196977000Y-81280000D03*
X194437000Y-81280000D03*
X191897000Y-81280000D03*
X189357000Y-81280000D03*
X186817000Y-81280000D03*
G36*
G01*
X183427000Y-80379000D02*
X185127000Y-80379000D01*
G75*
G02*
X185178000Y-80430000I0J-51000D01*
G01*
X185178000Y-82130000D01*
G75*
G02*
X185127000Y-82181000I-51000J0D01*
G01*
X183427000Y-82181000D01*
G75*
G02*
X183376000Y-82130000I0J51000D01*
G01*
X183376000Y-80430000D01*
G75*
G02*
X183427000Y-80379000I51000J0D01*
G01*
G37*
G36*
G01*
X230263000Y-98337000D02*
X230263000Y-100037000D01*
G75*
G02*
X230212000Y-100088000I-51000J0D01*
G01*
X228512000Y-100088000D01*
G75*
G02*
X228461000Y-100037000I0J51000D01*
G01*
X228461000Y-98337000D01*
G75*
G02*
X228512000Y-98286000I51000J0D01*
G01*
X230212000Y-98286000D01*
G75*
G02*
X230263000Y-98337000I0J-51000D01*
G01*
G37*
X229362000Y-101727000D03*
X229362000Y-104267000D03*
X229362000Y-106807000D03*
X229362000Y-109347000D03*
X229362000Y-111887000D03*
X229362000Y-114427000D03*
X229362000Y-116967000D03*
X229362000Y-119507000D03*
X229362000Y-122047000D03*
X229362000Y-124587000D03*
X229362000Y-127127000D03*
G36*
G01*
X224751000Y-144665000D02*
X223051000Y-144665000D01*
G75*
G02*
X223000000Y-144614000I0J51000D01*
G01*
X223000000Y-142914000D01*
G75*
G02*
X223051000Y-142863000I51000J0D01*
G01*
X224751000Y-142863000D01*
G75*
G02*
X224802000Y-142914000I0J-51000D01*
G01*
X224802000Y-144614000D01*
G75*
G02*
X224751000Y-144665000I-51000J0D01*
G01*
G37*
X221361000Y-143764000D03*
X218821000Y-143764000D03*
X216281000Y-143764000D03*
X213741000Y-143764000D03*
X211201000Y-143764000D03*
X208661000Y-143764000D03*
X206121000Y-143764000D03*
X203581000Y-143764000D03*
X201041000Y-143764000D03*
X198501000Y-143764000D03*
X195961000Y-143764000D03*
D14*
X170576000Y-135206000D03*
X172576000Y-135206000D03*
X174576000Y-135206000D03*
X176576000Y-135206000D03*
X178576000Y-135206000D03*
X180576000Y-135206000D03*
X182576000Y-135206000D03*
X184576000Y-135206000D03*
X186576000Y-135206000D03*
X188576000Y-135206000D03*
X188576000Y-113206000D03*
X186576000Y-113206000D03*
X184576000Y-113206000D03*
X182576000Y-113206000D03*
X180576000Y-113206000D03*
X178576000Y-113206000D03*
X176576000Y-113206000D03*
X174576000Y-113206000D03*
X172576000Y-113206000D03*
X170576000Y-113206000D03*
D15*
X229489000Y-81407000D03*
D16*
X231139000Y-81407000D03*
X230655726Y-82573726D03*
X229489000Y-83057000D03*
X228322274Y-82573726D03*
X227839000Y-81407000D03*
X228322274Y-80240274D03*
X229489000Y-79757000D03*
X230655726Y-80240274D03*
D15*
X166243000Y-81407000D03*
D16*
X167893000Y-81407000D03*
X167409726Y-82573726D03*
X166243000Y-83057000D03*
X165076274Y-82573726D03*
X164593000Y-81407000D03*
X165076274Y-80240274D03*
X166243000Y-79757000D03*
X167409726Y-80240274D03*
D15*
X166243000Y-143891000D03*
D16*
X167893000Y-143891000D03*
X167409726Y-145057726D03*
X166243000Y-145541000D03*
X165076274Y-145057726D03*
X164593000Y-143891000D03*
X165076274Y-142724274D03*
X166243000Y-142241000D03*
X167409726Y-142724274D03*
X230655726Y-142724274D03*
X229489000Y-142241000D03*
X228322274Y-142724274D03*
X227839000Y-143891000D03*
X228322274Y-145057726D03*
X229489000Y-145541000D03*
X230655726Y-145057726D03*
X231139000Y-143891000D03*
D15*
X229489000Y-143891000D03*
M02*
