G04 #@! TF.GenerationSoftware,KiCad,Pcbnew,(5.1.9)-1*
G04 #@! TF.CreationDate,2021-11-21T12:26:00+01:00*
G04 #@! TF.ProjectId,SmartSensor,536d6172-7453-4656-9e73-6f722e6b6963,1.3*
G04 #@! TF.SameCoordinates,Original*
G04 #@! TF.FileFunction,Legend,Bot*
G04 #@! TF.FilePolarity,Positive*
%FSLAX46Y46*%
G04 Gerber Fmt 4.6, Leading zero omitted, Abs format (unit mm)*
G04 Created by KiCad (PCBNEW (5.1.9)-1) date 2021-11-21 12:26:00*
%MOMM*%
%LPD*%
G01*
G04 APERTURE LIST*
%ADD10C,0.120000*%
%ADD11C,0.150000*%
%ADD12C,2.502000*%
%ADD13O,1.602000X1.202000*%
%ADD14O,1.802000X1.452000*%
%ADD15O,1.802000X1.802000*%
%ADD16C,1.202000*%
%ADD17C,4.502000*%
%ADD18C,0.802000*%
G04 APERTURE END LIST*
D10*
X212471000Y-138557000D02*
X212471000Y-140335000D01*
X211836000Y-137922000D02*
X212471000Y-138557000D01*
X208026000Y-137922000D02*
X211836000Y-137922000D01*
X208026000Y-135890000D02*
X208026000Y-137922000D01*
X199771000Y-135890000D02*
X208026000Y-135890000D01*
X199771000Y-135890000D02*
X199771000Y-140335000D01*
D11*
X207819142Y-136256780D02*
X207152476Y-137256780D01*
X207152476Y-136256780D02*
X207819142Y-137256780D01*
X206438190Y-136732971D02*
X206295333Y-136780590D01*
X206247714Y-136828209D01*
X206200095Y-136923447D01*
X206200095Y-137066304D01*
X206247714Y-137161542D01*
X206295333Y-137209161D01*
X206390571Y-137256780D01*
X206771523Y-137256780D01*
X206771523Y-136256780D01*
X206438190Y-136256780D01*
X206342952Y-136304400D01*
X206295333Y-136352019D01*
X206247714Y-136447257D01*
X206247714Y-136542495D01*
X206295333Y-136637733D01*
X206342952Y-136685352D01*
X206438190Y-136732971D01*
X206771523Y-136732971D01*
X205771523Y-136732971D02*
X205438190Y-136732971D01*
X205295333Y-137256780D02*
X205771523Y-137256780D01*
X205771523Y-136256780D01*
X205295333Y-136256780D01*
X204866761Y-136732971D02*
X204533428Y-136732971D01*
X204390571Y-137256780D02*
X204866761Y-137256780D01*
X204866761Y-136256780D01*
X204390571Y-136256780D01*
X203200095Y-137256780D02*
X203200095Y-136256780D01*
X202819142Y-136256780D01*
X202723904Y-136304400D01*
X202676285Y-136352019D01*
X202628666Y-136447257D01*
X202628666Y-136590114D01*
X202676285Y-136685352D01*
X202723904Y-136732971D01*
X202819142Y-136780590D01*
X203200095Y-136780590D01*
X202200095Y-137256780D02*
X202200095Y-136256780D01*
X201723904Y-137256780D02*
X201723904Y-136256780D01*
X201152476Y-137256780D01*
X201152476Y-136256780D01*
X200723904Y-137209161D02*
X200581047Y-137256780D01*
X200342952Y-137256780D01*
X200247714Y-137209161D01*
X200200095Y-137161542D01*
X200152476Y-137066304D01*
X200152476Y-136971066D01*
X200200095Y-136875828D01*
X200247714Y-136828209D01*
X200342952Y-136780590D01*
X200533428Y-136732971D01*
X200628666Y-136685352D01*
X200676285Y-136637733D01*
X200723904Y-136542495D01*
X200723904Y-136447257D01*
X200676285Y-136352019D01*
X200628666Y-136304400D01*
X200533428Y-136256780D01*
X200295333Y-136256780D01*
X200152476Y-136304400D01*
X223011904Y-116721000D02*
X223107142Y-116673380D01*
X223250000Y-116673380D01*
X223392857Y-116721000D01*
X223488095Y-116816238D01*
X223535714Y-116911476D01*
X223583333Y-117101952D01*
X223583333Y-117244809D01*
X223535714Y-117435285D01*
X223488095Y-117530523D01*
X223392857Y-117625761D01*
X223250000Y-117673380D01*
X223154761Y-117673380D01*
X223011904Y-117625761D01*
X222964285Y-117578142D01*
X222964285Y-117244809D01*
X223154761Y-117244809D01*
X222535714Y-117673380D02*
X222535714Y-116673380D01*
X221964285Y-117673380D01*
X221964285Y-116673380D01*
X221488095Y-117673380D02*
X221488095Y-116673380D01*
X221250000Y-116673380D01*
X221107142Y-116721000D01*
X221011904Y-116816238D01*
X220964285Y-116911476D01*
X220916666Y-117101952D01*
X220916666Y-117244809D01*
X220964285Y-117435285D01*
X221011904Y-117530523D01*
X221107142Y-117625761D01*
X221250000Y-117673380D01*
X221488095Y-117673380D01*
X223742095Y-106386380D02*
X223170666Y-106386380D01*
X223456380Y-107386380D02*
X223456380Y-106386380D01*
X222932571Y-106386380D02*
X222265904Y-107386380D01*
X222265904Y-106386380D02*
X222932571Y-107386380D01*
X221694476Y-106386380D02*
X221599238Y-106386380D01*
X221504000Y-106434000D01*
X221456380Y-106481619D01*
X221408761Y-106576857D01*
X221361142Y-106767333D01*
X221361142Y-107005428D01*
X221408761Y-107195904D01*
X221456380Y-107291142D01*
X221504000Y-107338761D01*
X221599238Y-107386380D01*
X221694476Y-107386380D01*
X221789714Y-107338761D01*
X221837333Y-107291142D01*
X221884952Y-107195904D01*
X221932571Y-107005428D01*
X221932571Y-106767333D01*
X221884952Y-106576857D01*
X221837333Y-106481619D01*
X221789714Y-106434000D01*
X221694476Y-106386380D01*
X223019857Y-110053380D02*
X223353190Y-109577190D01*
X223591285Y-110053380D02*
X223591285Y-109053380D01*
X223210333Y-109053380D01*
X223115095Y-109101000D01*
X223067476Y-109148619D01*
X223019857Y-109243857D01*
X223019857Y-109386714D01*
X223067476Y-109481952D01*
X223115095Y-109529571D01*
X223210333Y-109577190D01*
X223591285Y-109577190D01*
X222686523Y-109053380D02*
X222019857Y-110053380D01*
X222019857Y-109053380D02*
X222686523Y-110053380D01*
X221448428Y-109053380D02*
X221353190Y-109053380D01*
X221257952Y-109101000D01*
X221210333Y-109148619D01*
X221162714Y-109243857D01*
X221115095Y-109434333D01*
X221115095Y-109672428D01*
X221162714Y-109862904D01*
X221210333Y-109958142D01*
X221257952Y-110005761D01*
X221353190Y-110053380D01*
X221448428Y-110053380D01*
X221543666Y-110005761D01*
X221591285Y-109958142D01*
X221638904Y-109862904D01*
X221686523Y-109672428D01*
X221686523Y-109434333D01*
X221638904Y-109243857D01*
X221591285Y-109148619D01*
X221543666Y-109101000D01*
X221448428Y-109053380D01*
X227329904Y-126754000D02*
X227425142Y-126706380D01*
X227568000Y-126706380D01*
X227710857Y-126754000D01*
X227806095Y-126849238D01*
X227853714Y-126944476D01*
X227901333Y-127134952D01*
X227901333Y-127277809D01*
X227853714Y-127468285D01*
X227806095Y-127563523D01*
X227710857Y-127658761D01*
X227568000Y-127706380D01*
X227472761Y-127706380D01*
X227329904Y-127658761D01*
X227282285Y-127611142D01*
X227282285Y-127277809D01*
X227472761Y-127277809D01*
X226853714Y-127706380D02*
X226853714Y-126706380D01*
X226282285Y-127706380D01*
X226282285Y-126706380D01*
X225806095Y-127706380D02*
X225806095Y-126706380D01*
X225568000Y-126706380D01*
X225425142Y-126754000D01*
X225329904Y-126849238D01*
X225282285Y-126944476D01*
X225234666Y-127134952D01*
X225234666Y-127277809D01*
X225282285Y-127468285D01*
X225329904Y-127563523D01*
X225425142Y-127658761D01*
X225568000Y-127706380D01*
X225806095Y-127706380D01*
X227329904Y-124214000D02*
X227425142Y-124166380D01*
X227568000Y-124166380D01*
X227710857Y-124214000D01*
X227806095Y-124309238D01*
X227853714Y-124404476D01*
X227901333Y-124594952D01*
X227901333Y-124737809D01*
X227853714Y-124928285D01*
X227806095Y-125023523D01*
X227710857Y-125118761D01*
X227568000Y-125166380D01*
X227472761Y-125166380D01*
X227329904Y-125118761D01*
X227282285Y-125071142D01*
X227282285Y-124737809D01*
X227472761Y-124737809D01*
X226853714Y-125166380D02*
X226853714Y-124166380D01*
X226282285Y-125166380D01*
X226282285Y-124166380D01*
X225806095Y-125166380D02*
X225806095Y-124166380D01*
X225568000Y-124166380D01*
X225425142Y-124214000D01*
X225329904Y-124309238D01*
X225282285Y-124404476D01*
X225234666Y-124594952D01*
X225234666Y-124737809D01*
X225282285Y-124928285D01*
X225329904Y-125023523D01*
X225425142Y-125118761D01*
X225568000Y-125166380D01*
X225806095Y-125166380D01*
X227877476Y-122451761D02*
X227734619Y-122499380D01*
X227496523Y-122499380D01*
X227401285Y-122451761D01*
X227353666Y-122404142D01*
X227306047Y-122308904D01*
X227306047Y-122213666D01*
X227353666Y-122118428D01*
X227401285Y-122070809D01*
X227496523Y-122023190D01*
X227687000Y-121975571D01*
X227782238Y-121927952D01*
X227829857Y-121880333D01*
X227877476Y-121785095D01*
X227877476Y-121689857D01*
X227829857Y-121594619D01*
X227782238Y-121547000D01*
X227687000Y-121499380D01*
X227448904Y-121499380D01*
X227306047Y-121547000D01*
X226877476Y-122499380D02*
X226877476Y-121499380D01*
X226639380Y-121499380D01*
X226496523Y-121547000D01*
X226401285Y-121642238D01*
X226353666Y-121737476D01*
X226306047Y-121927952D01*
X226306047Y-122070809D01*
X226353666Y-122261285D01*
X226401285Y-122356523D01*
X226496523Y-122451761D01*
X226639380Y-122499380D01*
X226877476Y-122499380D01*
X225925095Y-122213666D02*
X225448904Y-122213666D01*
X226020333Y-122499380D02*
X225687000Y-121499380D01*
X225353666Y-122499380D01*
X224496523Y-122499380D02*
X225067952Y-122499380D01*
X224782238Y-122499380D02*
X224782238Y-121499380D01*
X224877476Y-121642238D01*
X224972714Y-121737476D01*
X225067952Y-121785095D01*
X227853666Y-120038761D02*
X227710809Y-120086380D01*
X227472714Y-120086380D01*
X227377476Y-120038761D01*
X227329857Y-119991142D01*
X227282238Y-119895904D01*
X227282238Y-119800666D01*
X227329857Y-119705428D01*
X227377476Y-119657809D01*
X227472714Y-119610190D01*
X227663190Y-119562571D01*
X227758428Y-119514952D01*
X227806047Y-119467333D01*
X227853666Y-119372095D01*
X227853666Y-119276857D01*
X227806047Y-119181619D01*
X227758428Y-119134000D01*
X227663190Y-119086380D01*
X227425095Y-119086380D01*
X227282238Y-119134000D01*
X226282238Y-119991142D02*
X226329857Y-120038761D01*
X226472714Y-120086380D01*
X226567952Y-120086380D01*
X226710809Y-120038761D01*
X226806047Y-119943523D01*
X226853666Y-119848285D01*
X226901285Y-119657809D01*
X226901285Y-119514952D01*
X226853666Y-119324476D01*
X226806047Y-119229238D01*
X226710809Y-119134000D01*
X226567952Y-119086380D01*
X226472714Y-119086380D01*
X226329857Y-119134000D01*
X226282238Y-119181619D01*
X225377476Y-120086380D02*
X225853666Y-120086380D01*
X225853666Y-119086380D01*
X224520333Y-120086380D02*
X225091761Y-120086380D01*
X224806047Y-120086380D02*
X224806047Y-119086380D01*
X224901285Y-119229238D01*
X224996523Y-119324476D01*
X225091761Y-119372095D01*
X231846380Y-115855904D02*
X230846380Y-115855904D01*
X230846380Y-116236857D01*
X230894000Y-116332095D01*
X230941619Y-116379714D01*
X231036857Y-116427333D01*
X231179714Y-116427333D01*
X231274952Y-116379714D01*
X231322571Y-116332095D01*
X231370190Y-116236857D01*
X231370190Y-115855904D01*
X231322571Y-117189238D02*
X231370190Y-117332095D01*
X231417809Y-117379714D01*
X231513047Y-117427333D01*
X231655904Y-117427333D01*
X231751142Y-117379714D01*
X231798761Y-117332095D01*
X231846380Y-117236857D01*
X231846380Y-116855904D01*
X230846380Y-116855904D01*
X230846380Y-117189238D01*
X230894000Y-117284476D01*
X230941619Y-117332095D01*
X231036857Y-117379714D01*
X231132095Y-117379714D01*
X231227333Y-117332095D01*
X231274952Y-117284476D01*
X231322571Y-117189238D01*
X231322571Y-116855904D01*
X230846380Y-117760666D02*
X230846380Y-118379714D01*
X231227333Y-118046380D01*
X231227333Y-118189238D01*
X231274952Y-118284476D01*
X231322571Y-118332095D01*
X231417809Y-118379714D01*
X231655904Y-118379714D01*
X231751142Y-118332095D01*
X231798761Y-118284476D01*
X231846380Y-118189238D01*
X231846380Y-117903523D01*
X231798761Y-117808285D01*
X231751142Y-117760666D01*
X227782380Y-113442904D02*
X226782380Y-113442904D01*
X226782380Y-113823857D01*
X226830000Y-113919095D01*
X226877619Y-113966714D01*
X226972857Y-114014333D01*
X227115714Y-114014333D01*
X227210952Y-113966714D01*
X227258571Y-113919095D01*
X227306190Y-113823857D01*
X227306190Y-113442904D01*
X227258571Y-114776238D02*
X227306190Y-114919095D01*
X227353809Y-114966714D01*
X227449047Y-115014333D01*
X227591904Y-115014333D01*
X227687142Y-114966714D01*
X227734761Y-114919095D01*
X227782380Y-114823857D01*
X227782380Y-114442904D01*
X226782380Y-114442904D01*
X226782380Y-114776238D01*
X226830000Y-114871476D01*
X226877619Y-114919095D01*
X226972857Y-114966714D01*
X227068095Y-114966714D01*
X227163333Y-114919095D01*
X227210952Y-114871476D01*
X227258571Y-114776238D01*
X227258571Y-114442904D01*
X227115714Y-115871476D02*
X227782380Y-115871476D01*
X226734761Y-115633380D02*
X227449047Y-115395285D01*
X227449047Y-116014333D01*
X231719380Y-110140952D02*
X231052714Y-110140952D01*
X231243190Y-110140952D02*
X231147952Y-110188571D01*
X231100333Y-110236190D01*
X231052714Y-110331428D01*
X231052714Y-110426666D01*
X231671761Y-111140952D02*
X231719380Y-111045714D01*
X231719380Y-110855238D01*
X231671761Y-110760000D01*
X231576523Y-110712380D01*
X231195571Y-110712380D01*
X231100333Y-110760000D01*
X231052714Y-110855238D01*
X231052714Y-111045714D01*
X231100333Y-111140952D01*
X231195571Y-111188571D01*
X231290809Y-111188571D01*
X231386047Y-110712380D01*
X231671761Y-111569523D02*
X231719380Y-111664761D01*
X231719380Y-111855238D01*
X231671761Y-111950476D01*
X231576523Y-111998095D01*
X231528904Y-111998095D01*
X231433666Y-111950476D01*
X231386047Y-111855238D01*
X231386047Y-111712380D01*
X231338428Y-111617142D01*
X231243190Y-111569523D01*
X231195571Y-111569523D01*
X231100333Y-111617142D01*
X231052714Y-111712380D01*
X231052714Y-111855238D01*
X231100333Y-111950476D01*
X231671761Y-112807619D02*
X231719380Y-112712380D01*
X231719380Y-112521904D01*
X231671761Y-112426666D01*
X231576523Y-112379047D01*
X231195571Y-112379047D01*
X231100333Y-112426666D01*
X231052714Y-112521904D01*
X231052714Y-112712380D01*
X231100333Y-112807619D01*
X231195571Y-112855238D01*
X231290809Y-112855238D01*
X231386047Y-112379047D01*
X231052714Y-113140952D02*
X231052714Y-113521904D01*
X230719380Y-113283809D02*
X231576523Y-113283809D01*
X231671761Y-113331428D01*
X231719380Y-113426666D01*
X231719380Y-113521904D01*
X226830000Y-108712095D02*
X226782380Y-108616857D01*
X226782380Y-108474000D01*
X226830000Y-108331142D01*
X226925238Y-108235904D01*
X227020476Y-108188285D01*
X227210952Y-108140666D01*
X227353809Y-108140666D01*
X227544285Y-108188285D01*
X227639523Y-108235904D01*
X227734761Y-108331142D01*
X227782380Y-108474000D01*
X227782380Y-108569238D01*
X227734761Y-108712095D01*
X227687142Y-108759714D01*
X227353809Y-108759714D01*
X227353809Y-108569238D01*
X227782380Y-109188285D02*
X226782380Y-109188285D01*
X227782380Y-109759714D01*
X226782380Y-109759714D01*
X227782380Y-110235904D02*
X226782380Y-110235904D01*
X226782380Y-110474000D01*
X226830000Y-110616857D01*
X226925238Y-110712095D01*
X227020476Y-110759714D01*
X227210952Y-110807333D01*
X227353809Y-110807333D01*
X227544285Y-110759714D01*
X227639523Y-110712095D01*
X227734761Y-110616857D01*
X227782380Y-110474000D01*
X227782380Y-110235904D01*
X230846380Y-105568904D02*
X230846380Y-106140333D01*
X231846380Y-105854619D02*
X230846380Y-105854619D01*
X230846380Y-106378428D02*
X231846380Y-107045095D01*
X230846380Y-107045095D02*
X231846380Y-106378428D01*
X230846380Y-107616523D02*
X230846380Y-107711761D01*
X230894000Y-107807000D01*
X230941619Y-107854619D01*
X231036857Y-107902238D01*
X231227333Y-107949857D01*
X231465428Y-107949857D01*
X231655904Y-107902238D01*
X231751142Y-107854619D01*
X231798761Y-107807000D01*
X231846380Y-107711761D01*
X231846380Y-107616523D01*
X231798761Y-107521285D01*
X231751142Y-107473666D01*
X231655904Y-107426047D01*
X231465428Y-107378428D01*
X231227333Y-107378428D01*
X231036857Y-107426047D01*
X230941619Y-107473666D01*
X230894000Y-107521285D01*
X230846380Y-107616523D01*
X227782380Y-103751142D02*
X227306190Y-103417809D01*
X227782380Y-103179714D02*
X226782380Y-103179714D01*
X226782380Y-103560666D01*
X226830000Y-103655904D01*
X226877619Y-103703523D01*
X226972857Y-103751142D01*
X227115714Y-103751142D01*
X227210952Y-103703523D01*
X227258571Y-103655904D01*
X227306190Y-103560666D01*
X227306190Y-103179714D01*
X226782380Y-104084476D02*
X227782380Y-104751142D01*
X226782380Y-104751142D02*
X227782380Y-104084476D01*
X226782380Y-105322571D02*
X226782380Y-105417809D01*
X226830000Y-105513047D01*
X226877619Y-105560666D01*
X226972857Y-105608285D01*
X227163333Y-105655904D01*
X227401428Y-105655904D01*
X227591904Y-105608285D01*
X227687142Y-105560666D01*
X227734761Y-105513047D01*
X227782380Y-105417809D01*
X227782380Y-105322571D01*
X227734761Y-105227333D01*
X227687142Y-105179714D01*
X227591904Y-105132095D01*
X227401428Y-105084476D01*
X227163333Y-105084476D01*
X226972857Y-105132095D01*
X226877619Y-105179714D01*
X226830000Y-105227333D01*
X226782380Y-105322571D01*
X227790190Y-101306380D02*
X227171142Y-101306380D01*
X227504476Y-101687333D01*
X227361619Y-101687333D01*
X227266380Y-101734952D01*
X227218761Y-101782571D01*
X227171142Y-101877809D01*
X227171142Y-102115904D01*
X227218761Y-102211142D01*
X227266380Y-102258761D01*
X227361619Y-102306380D01*
X227647333Y-102306380D01*
X227742571Y-102258761D01*
X227790190Y-102211142D01*
X226742571Y-102211142D02*
X226694952Y-102258761D01*
X226742571Y-102306380D01*
X226790190Y-102258761D01*
X226742571Y-102211142D01*
X226742571Y-102306380D01*
X226361619Y-101306380D02*
X225742571Y-101306380D01*
X226075904Y-101687333D01*
X225933047Y-101687333D01*
X225837809Y-101734952D01*
X225790190Y-101782571D01*
X225742571Y-101877809D01*
X225742571Y-102115904D01*
X225790190Y-102211142D01*
X225837809Y-102258761D01*
X225933047Y-102306380D01*
X226218761Y-102306380D01*
X226314000Y-102258761D01*
X226361619Y-102211142D01*
X225456857Y-101306380D02*
X225123523Y-102306380D01*
X224790190Y-101306380D01*
X227790190Y-98639380D02*
X227171142Y-98639380D01*
X227504476Y-99020333D01*
X227361619Y-99020333D01*
X227266380Y-99067952D01*
X227218761Y-99115571D01*
X227171142Y-99210809D01*
X227171142Y-99448904D01*
X227218761Y-99544142D01*
X227266380Y-99591761D01*
X227361619Y-99639380D01*
X227647333Y-99639380D01*
X227742571Y-99591761D01*
X227790190Y-99544142D01*
X226742571Y-99544142D02*
X226694952Y-99591761D01*
X226742571Y-99639380D01*
X226790190Y-99591761D01*
X226742571Y-99544142D01*
X226742571Y-99639380D01*
X226361619Y-98639380D02*
X225742571Y-98639380D01*
X226075904Y-99020333D01*
X225933047Y-99020333D01*
X225837809Y-99067952D01*
X225790190Y-99115571D01*
X225742571Y-99210809D01*
X225742571Y-99448904D01*
X225790190Y-99544142D01*
X225837809Y-99591761D01*
X225933047Y-99639380D01*
X226218761Y-99639380D01*
X226314000Y-99591761D01*
X226361619Y-99544142D01*
X225456857Y-98639380D02*
X225123523Y-99639380D01*
X224790190Y-98639380D01*
X224448619Y-142192190D02*
X224448619Y-141573142D01*
X224067666Y-141906476D01*
X224067666Y-141763619D01*
X224020047Y-141668380D01*
X223972428Y-141620761D01*
X223877190Y-141573142D01*
X223639095Y-141573142D01*
X223543857Y-141620761D01*
X223496238Y-141668380D01*
X223448619Y-141763619D01*
X223448619Y-142049333D01*
X223496238Y-142144571D01*
X223543857Y-142192190D01*
X223543857Y-141144571D02*
X223496238Y-141096952D01*
X223448619Y-141144571D01*
X223496238Y-141192190D01*
X223543857Y-141144571D01*
X223448619Y-141144571D01*
X224448619Y-140763619D02*
X224448619Y-140144571D01*
X224067666Y-140477904D01*
X224067666Y-140335047D01*
X224020047Y-140239809D01*
X223972428Y-140192190D01*
X223877190Y-140144571D01*
X223639095Y-140144571D01*
X223543857Y-140192190D01*
X223496238Y-140239809D01*
X223448619Y-140335047D01*
X223448619Y-140620761D01*
X223496238Y-140716000D01*
X223543857Y-140763619D01*
X224448619Y-139858857D02*
X223448619Y-139525523D01*
X224448619Y-139192190D01*
X221194333Y-142168190D02*
X221194333Y-141692000D01*
X220908619Y-142263428D02*
X221908619Y-141930095D01*
X220908619Y-141596761D01*
X221908619Y-141406285D02*
X221908619Y-140834857D01*
X220908619Y-141120571D02*
X221908619Y-141120571D01*
X220908619Y-140501523D02*
X221908619Y-140501523D01*
X221194333Y-140168190D01*
X221908619Y-139834857D01*
X220908619Y-139834857D01*
X220813380Y-139596761D02*
X220813380Y-138834857D01*
X220908619Y-138596761D02*
X221908619Y-138596761D01*
X221908619Y-138215809D01*
X221861000Y-138120571D01*
X221813380Y-138072952D01*
X221718142Y-138025333D01*
X221575285Y-138025333D01*
X221480047Y-138072952D01*
X221432428Y-138120571D01*
X221384809Y-138215809D01*
X221384809Y-138596761D01*
X221194333Y-137644380D02*
X221194333Y-137168190D01*
X220908619Y-137739619D02*
X221908619Y-137406285D01*
X220908619Y-137072952D01*
X221908619Y-136549142D02*
X221908619Y-136453904D01*
X221861000Y-136358666D01*
X221813380Y-136311047D01*
X221718142Y-136263428D01*
X221527666Y-136215809D01*
X221289571Y-136215809D01*
X221099095Y-136263428D01*
X221003857Y-136311047D01*
X220956238Y-136358666D01*
X220908619Y-136453904D01*
X220908619Y-136549142D01*
X220956238Y-136644380D01*
X221003857Y-136692000D01*
X221099095Y-136739619D01*
X221289571Y-136787238D01*
X221527666Y-136787238D01*
X221718142Y-136739619D01*
X221813380Y-136692000D01*
X221861000Y-136644380D01*
X221908619Y-136549142D01*
X218654333Y-142168190D02*
X218654333Y-141692000D01*
X218368619Y-142263428D02*
X219368619Y-141930095D01*
X218368619Y-141596761D01*
X219368619Y-141406285D02*
X219368619Y-140834857D01*
X218368619Y-141120571D02*
X219368619Y-141120571D01*
X218368619Y-140501523D02*
X219368619Y-140501523D01*
X218654333Y-140168190D01*
X219368619Y-139834857D01*
X218368619Y-139834857D01*
X218273380Y-139596761D02*
X218273380Y-138834857D01*
X218368619Y-138596761D02*
X219368619Y-138596761D01*
X219368619Y-138215809D01*
X219321000Y-138120571D01*
X219273380Y-138072952D01*
X219178142Y-138025333D01*
X219035285Y-138025333D01*
X218940047Y-138072952D01*
X218892428Y-138120571D01*
X218844809Y-138215809D01*
X218844809Y-138596761D01*
X218654333Y-137644380D02*
X218654333Y-137168190D01*
X218368619Y-137739619D02*
X219368619Y-137406285D01*
X218368619Y-137072952D01*
X218368619Y-136215809D02*
X218368619Y-136787238D01*
X218368619Y-136501523D02*
X219368619Y-136501523D01*
X219225761Y-136596761D01*
X219130523Y-136692000D01*
X219082904Y-136787238D01*
X216114333Y-142168190D02*
X216114333Y-141692000D01*
X215828619Y-142263428D02*
X216828619Y-141930095D01*
X215828619Y-141596761D01*
X216828619Y-141406285D02*
X216828619Y-140834857D01*
X215828619Y-141120571D02*
X216828619Y-141120571D01*
X215828619Y-140501523D02*
X216828619Y-140501523D01*
X216114333Y-140168190D01*
X216828619Y-139834857D01*
X215828619Y-139834857D01*
X215733380Y-139596761D02*
X215733380Y-138834857D01*
X215828619Y-138596761D02*
X216828619Y-138596761D01*
X216828619Y-138215809D01*
X216781000Y-138120571D01*
X216733380Y-138072952D01*
X216638142Y-138025333D01*
X216495285Y-138025333D01*
X216400047Y-138072952D01*
X216352428Y-138120571D01*
X216304809Y-138215809D01*
X216304809Y-138596761D01*
X216114333Y-137644380D02*
X216114333Y-137168190D01*
X215828619Y-137739619D02*
X216828619Y-137406285D01*
X215828619Y-137072952D01*
X216733380Y-136787238D02*
X216781000Y-136739619D01*
X216828619Y-136644380D01*
X216828619Y-136406285D01*
X216781000Y-136311047D01*
X216733380Y-136263428D01*
X216638142Y-136215809D01*
X216542904Y-136215809D01*
X216400047Y-136263428D01*
X215828619Y-136834857D01*
X215828619Y-136215809D01*
X213574333Y-142168190D02*
X213574333Y-141692000D01*
X213288619Y-142263428D02*
X214288619Y-141930095D01*
X213288619Y-141596761D01*
X214288619Y-141406285D02*
X214288619Y-140834857D01*
X213288619Y-141120571D02*
X214288619Y-141120571D01*
X213288619Y-140501523D02*
X214288619Y-140501523D01*
X213574333Y-140168190D01*
X214288619Y-139834857D01*
X213288619Y-139834857D01*
X213193380Y-139596761D02*
X213193380Y-138834857D01*
X213288619Y-138596761D02*
X214288619Y-138596761D01*
X214288619Y-138215809D01*
X214241000Y-138120571D01*
X214193380Y-138072952D01*
X214098142Y-138025333D01*
X213955285Y-138025333D01*
X213860047Y-138072952D01*
X213812428Y-138120571D01*
X213764809Y-138215809D01*
X213764809Y-138596761D01*
X213574333Y-137644380D02*
X213574333Y-137168190D01*
X213288619Y-137739619D02*
X214288619Y-137406285D01*
X213288619Y-137072952D01*
X214288619Y-136834857D02*
X214288619Y-136215809D01*
X213907666Y-136549142D01*
X213907666Y-136406285D01*
X213860047Y-136311047D01*
X213812428Y-136263428D01*
X213717190Y-136215809D01*
X213479095Y-136215809D01*
X213383857Y-136263428D01*
X213336238Y-136311047D01*
X213288619Y-136406285D01*
X213288619Y-136692000D01*
X213336238Y-136787238D01*
X213383857Y-136834857D01*
X211748619Y-142150885D02*
X210748619Y-141817552D01*
X211748619Y-141484219D01*
X210748619Y-140579457D02*
X211224809Y-140912790D01*
X210748619Y-141150885D02*
X211748619Y-141150885D01*
X211748619Y-140769933D01*
X211701000Y-140674695D01*
X211653380Y-140627076D01*
X211558142Y-140579457D01*
X211415285Y-140579457D01*
X211320047Y-140627076D01*
X211272428Y-140674695D01*
X211224809Y-140769933D01*
X211224809Y-141150885D01*
X211272428Y-140150885D02*
X211272428Y-139817552D01*
X210748619Y-139674695D02*
X210748619Y-140150885D01*
X211748619Y-140150885D01*
X211748619Y-139674695D01*
X211272428Y-138912790D02*
X211272428Y-139246123D01*
X210748619Y-139246123D02*
X211748619Y-139246123D01*
X211748619Y-138769933D01*
X208494333Y-142120785D02*
X208494333Y-141644595D01*
X208208619Y-142216023D02*
X209208619Y-141882690D01*
X208208619Y-141549357D01*
X208208619Y-141216023D02*
X209208619Y-141216023D01*
X209208619Y-140977928D01*
X209161000Y-140835071D01*
X209065761Y-140739833D01*
X208970523Y-140692214D01*
X208780047Y-140644595D01*
X208637190Y-140644595D01*
X208446714Y-140692214D01*
X208351476Y-140739833D01*
X208256238Y-140835071D01*
X208208619Y-140977928D01*
X208208619Y-141216023D01*
X208208619Y-139692214D02*
X208208619Y-140263642D01*
X208208619Y-139977928D02*
X209208619Y-139977928D01*
X209065761Y-140073166D01*
X208970523Y-140168404D01*
X208922904Y-140263642D01*
X205668619Y-142184285D02*
X206668619Y-142184285D01*
X206668619Y-141946190D01*
X206621000Y-141803333D01*
X206525761Y-141708095D01*
X206430523Y-141660476D01*
X206240047Y-141612857D01*
X206097190Y-141612857D01*
X205906714Y-141660476D01*
X205811476Y-141708095D01*
X205716238Y-141803333D01*
X205668619Y-141946190D01*
X205668619Y-142184285D01*
X205668619Y-140660476D02*
X205668619Y-141231904D01*
X205668619Y-140946190D02*
X206668619Y-140946190D01*
X206525761Y-141041428D01*
X206430523Y-141136666D01*
X206382904Y-141231904D01*
X206240047Y-140089047D02*
X206287666Y-140184285D01*
X206335285Y-140231904D01*
X206430523Y-140279523D01*
X206478142Y-140279523D01*
X206573380Y-140231904D01*
X206621000Y-140184285D01*
X206668619Y-140089047D01*
X206668619Y-139898571D01*
X206621000Y-139803333D01*
X206573380Y-139755714D01*
X206478142Y-139708095D01*
X206430523Y-139708095D01*
X206335285Y-139755714D01*
X206287666Y-139803333D01*
X206240047Y-139898571D01*
X206240047Y-140089047D01*
X206192428Y-140184285D01*
X206144809Y-140231904D01*
X206049571Y-140279523D01*
X205859095Y-140279523D01*
X205763857Y-140231904D01*
X205716238Y-140184285D01*
X205668619Y-140089047D01*
X205668619Y-139898571D01*
X205716238Y-139803333D01*
X205763857Y-139755714D01*
X205859095Y-139708095D01*
X206049571Y-139708095D01*
X206144809Y-139755714D01*
X206192428Y-139803333D01*
X206240047Y-139898571D01*
X203128619Y-142215952D02*
X204128619Y-142215952D01*
X204128619Y-141835000D01*
X204081000Y-141739761D01*
X204033380Y-141692142D01*
X203938142Y-141644523D01*
X203795285Y-141644523D01*
X203700047Y-141692142D01*
X203652428Y-141739761D01*
X203604809Y-141835000D01*
X203604809Y-142215952D01*
X204128619Y-141311190D02*
X203128619Y-141073095D01*
X203842904Y-140882619D01*
X203128619Y-140692142D01*
X204128619Y-140454047D01*
X203128619Y-140073095D02*
X204128619Y-140073095D01*
X203414333Y-139739761D01*
X204128619Y-139406428D01*
X203128619Y-139406428D01*
X203128619Y-138406428D02*
X203128619Y-138977857D01*
X203128619Y-138692142D02*
X204128619Y-138692142D01*
X203985761Y-138787380D01*
X203890523Y-138882619D01*
X203842904Y-138977857D01*
X200588619Y-142215952D02*
X201588619Y-142215952D01*
X201588619Y-141835000D01*
X201541000Y-141739761D01*
X201493380Y-141692142D01*
X201398142Y-141644523D01*
X201255285Y-141644523D01*
X201160047Y-141692142D01*
X201112428Y-141739761D01*
X201064809Y-141835000D01*
X201064809Y-142215952D01*
X201588619Y-141311190D02*
X200588619Y-141073095D01*
X201302904Y-140882619D01*
X200588619Y-140692142D01*
X201588619Y-140454047D01*
X200588619Y-140073095D02*
X201588619Y-140073095D01*
X200874333Y-139739761D01*
X201588619Y-139406428D01*
X200588619Y-139406428D01*
X201588619Y-138739761D02*
X201588619Y-138644523D01*
X201541000Y-138549285D01*
X201493380Y-138501666D01*
X201398142Y-138454047D01*
X201207666Y-138406428D01*
X200969571Y-138406428D01*
X200779095Y-138454047D01*
X200683857Y-138501666D01*
X200636238Y-138549285D01*
X200588619Y-138644523D01*
X200588619Y-138739761D01*
X200636238Y-138835000D01*
X200683857Y-138882619D01*
X200779095Y-138930238D01*
X200969571Y-138977857D01*
X201207666Y-138977857D01*
X201398142Y-138930238D01*
X201493380Y-138882619D01*
X201541000Y-138835000D01*
X201588619Y-138739761D01*
X198874000Y-141731904D02*
X198921619Y-141827142D01*
X198921619Y-141970000D01*
X198874000Y-142112857D01*
X198778761Y-142208095D01*
X198683523Y-142255714D01*
X198493047Y-142303333D01*
X198350190Y-142303333D01*
X198159714Y-142255714D01*
X198064476Y-142208095D01*
X197969238Y-142112857D01*
X197921619Y-141970000D01*
X197921619Y-141874761D01*
X197969238Y-141731904D01*
X198016857Y-141684285D01*
X198350190Y-141684285D01*
X198350190Y-141874761D01*
X197921619Y-141255714D02*
X198921619Y-141255714D01*
X197921619Y-140684285D01*
X198921619Y-140684285D01*
X197921619Y-140208095D02*
X198921619Y-140208095D01*
X198921619Y-139970000D01*
X198874000Y-139827142D01*
X198778761Y-139731904D01*
X198683523Y-139684285D01*
X198493047Y-139636666D01*
X198350190Y-139636666D01*
X198159714Y-139684285D01*
X198064476Y-139731904D01*
X197969238Y-139827142D01*
X197921619Y-139970000D01*
X197921619Y-140208095D01*
X196334000Y-141731904D02*
X196381619Y-141827142D01*
X196381619Y-141970000D01*
X196334000Y-142112857D01*
X196238761Y-142208095D01*
X196143523Y-142255714D01*
X195953047Y-142303333D01*
X195810190Y-142303333D01*
X195619714Y-142255714D01*
X195524476Y-142208095D01*
X195429238Y-142112857D01*
X195381619Y-141970000D01*
X195381619Y-141874761D01*
X195429238Y-141731904D01*
X195476857Y-141684285D01*
X195810190Y-141684285D01*
X195810190Y-141874761D01*
X195381619Y-141255714D02*
X196381619Y-141255714D01*
X195381619Y-140684285D01*
X196381619Y-140684285D01*
X195381619Y-140208095D02*
X196381619Y-140208095D01*
X196381619Y-139970000D01*
X196334000Y-139827142D01*
X196238761Y-139731904D01*
X196143523Y-139684285D01*
X195953047Y-139636666D01*
X195810190Y-139636666D01*
X195619714Y-139684285D01*
X195524476Y-139731904D01*
X195429238Y-139827142D01*
X195381619Y-139970000D01*
X195381619Y-140208095D01*
X212717000Y-84835904D02*
X212764619Y-84931142D01*
X212764619Y-85074000D01*
X212717000Y-85216857D01*
X212621761Y-85312095D01*
X212526523Y-85359714D01*
X212336047Y-85407333D01*
X212193190Y-85407333D01*
X212002714Y-85359714D01*
X211907476Y-85312095D01*
X211812238Y-85216857D01*
X211764619Y-85074000D01*
X211764619Y-84978761D01*
X211812238Y-84835904D01*
X211859857Y-84788285D01*
X212193190Y-84788285D01*
X212193190Y-84978761D01*
X211764619Y-84359714D02*
X212764619Y-84359714D01*
X211764619Y-83788285D01*
X212764619Y-83788285D01*
X211764619Y-83312095D02*
X212764619Y-83312095D01*
X212764619Y-83074000D01*
X212717000Y-82931142D01*
X212621761Y-82835904D01*
X212526523Y-82788285D01*
X212336047Y-82740666D01*
X212193190Y-82740666D01*
X212002714Y-82788285D01*
X211907476Y-82835904D01*
X211812238Y-82931142D01*
X211764619Y-83074000D01*
X211764619Y-83312095D01*
X210050000Y-84835904D02*
X210097619Y-84931142D01*
X210097619Y-85074000D01*
X210050000Y-85216857D01*
X209954761Y-85312095D01*
X209859523Y-85359714D01*
X209669047Y-85407333D01*
X209526190Y-85407333D01*
X209335714Y-85359714D01*
X209240476Y-85312095D01*
X209145238Y-85216857D01*
X209097619Y-85074000D01*
X209097619Y-84978761D01*
X209145238Y-84835904D01*
X209192857Y-84788285D01*
X209526190Y-84788285D01*
X209526190Y-84978761D01*
X209097619Y-84359714D02*
X210097619Y-84359714D01*
X209097619Y-83788285D01*
X210097619Y-83788285D01*
X209097619Y-83312095D02*
X210097619Y-83312095D01*
X210097619Y-83074000D01*
X210050000Y-82931142D01*
X209954761Y-82835904D01*
X209859523Y-82788285D01*
X209669047Y-82740666D01*
X209526190Y-82740666D01*
X209335714Y-82788285D01*
X209240476Y-82835904D01*
X209145238Y-82931142D01*
X209097619Y-83074000D01*
X209097619Y-83312095D01*
X206732238Y-85137476D02*
X206684619Y-84994619D01*
X206684619Y-84756523D01*
X206732238Y-84661285D01*
X206779857Y-84613666D01*
X206875095Y-84566047D01*
X206970333Y-84566047D01*
X207065571Y-84613666D01*
X207113190Y-84661285D01*
X207160809Y-84756523D01*
X207208428Y-84947000D01*
X207256047Y-85042238D01*
X207303666Y-85089857D01*
X207398904Y-85137476D01*
X207494142Y-85137476D01*
X207589380Y-85089857D01*
X207637000Y-85042238D01*
X207684619Y-84947000D01*
X207684619Y-84708904D01*
X207637000Y-84566047D01*
X206779857Y-83566047D02*
X206732238Y-83613666D01*
X206684619Y-83756523D01*
X206684619Y-83851761D01*
X206732238Y-83994619D01*
X206827476Y-84089857D01*
X206922714Y-84137476D01*
X207113190Y-84185095D01*
X207256047Y-84185095D01*
X207446523Y-84137476D01*
X207541761Y-84089857D01*
X207637000Y-83994619D01*
X207684619Y-83851761D01*
X207684619Y-83756523D01*
X207637000Y-83613666D01*
X207589380Y-83566047D01*
X206684619Y-82661285D02*
X206684619Y-83137476D01*
X207684619Y-83137476D01*
X204319238Y-85288285D02*
X204271619Y-85145428D01*
X204271619Y-84907333D01*
X204319238Y-84812095D01*
X204366857Y-84764476D01*
X204462095Y-84716857D01*
X204557333Y-84716857D01*
X204652571Y-84764476D01*
X204700190Y-84812095D01*
X204747809Y-84907333D01*
X204795428Y-85097809D01*
X204843047Y-85193047D01*
X204890666Y-85240666D01*
X204985904Y-85288285D01*
X205081142Y-85288285D01*
X205176380Y-85240666D01*
X205224000Y-85193047D01*
X205271619Y-85097809D01*
X205271619Y-84859714D01*
X205224000Y-84716857D01*
X204271619Y-84288285D02*
X205271619Y-84288285D01*
X205271619Y-84050190D01*
X205224000Y-83907333D01*
X205128761Y-83812095D01*
X205033523Y-83764476D01*
X204843047Y-83716857D01*
X204700190Y-83716857D01*
X204509714Y-83764476D01*
X204414476Y-83812095D01*
X204319238Y-83907333D01*
X204271619Y-84050190D01*
X204271619Y-84288285D01*
X204557333Y-83335904D02*
X204557333Y-82859714D01*
X204271619Y-83431142D02*
X205271619Y-83097809D01*
X204271619Y-82764476D01*
X201652238Y-86216904D02*
X201604619Y-86074047D01*
X201604619Y-85835952D01*
X201652238Y-85740714D01*
X201699857Y-85693095D01*
X201795095Y-85645476D01*
X201890333Y-85645476D01*
X201985571Y-85693095D01*
X202033190Y-85740714D01*
X202080809Y-85835952D01*
X202128428Y-86026428D01*
X202176047Y-86121666D01*
X202223666Y-86169285D01*
X202318904Y-86216904D01*
X202414142Y-86216904D01*
X202509380Y-86169285D01*
X202557000Y-86121666D01*
X202604619Y-86026428D01*
X202604619Y-85788333D01*
X202557000Y-85645476D01*
X201699857Y-84645476D02*
X201652238Y-84693095D01*
X201604619Y-84835952D01*
X201604619Y-84931190D01*
X201652238Y-85074047D01*
X201747476Y-85169285D01*
X201842714Y-85216904D01*
X202033190Y-85264523D01*
X202176047Y-85264523D01*
X202366523Y-85216904D01*
X202461761Y-85169285D01*
X202557000Y-85074047D01*
X202604619Y-84931190D01*
X202604619Y-84835952D01*
X202557000Y-84693095D01*
X202509380Y-84645476D01*
X201604619Y-84216904D02*
X202604619Y-84216904D01*
X201604619Y-83645476D02*
X202176047Y-84074047D01*
X202604619Y-83645476D02*
X202033190Y-84216904D01*
X201604619Y-82693095D02*
X201604619Y-83264523D01*
X201604619Y-82978809D02*
X202604619Y-82978809D01*
X202461761Y-83074047D01*
X202366523Y-83169285D01*
X202318904Y-83264523D01*
X199064619Y-90891809D02*
X200064619Y-90891809D01*
X199350333Y-90558476D01*
X200064619Y-90225142D01*
X199064619Y-90225142D01*
X199064619Y-89748952D02*
X200064619Y-89748952D01*
X199112238Y-89320380D02*
X199064619Y-89177523D01*
X199064619Y-88939428D01*
X199112238Y-88844190D01*
X199159857Y-88796571D01*
X199255095Y-88748952D01*
X199350333Y-88748952D01*
X199445571Y-88796571D01*
X199493190Y-88844190D01*
X199540809Y-88939428D01*
X199588428Y-89129904D01*
X199636047Y-89225142D01*
X199683666Y-89272761D01*
X199778904Y-89320380D01*
X199874142Y-89320380D01*
X199969380Y-89272761D01*
X200017000Y-89225142D01*
X200064619Y-89129904D01*
X200064619Y-88891809D01*
X200017000Y-88748952D01*
X200064619Y-88129904D02*
X200064619Y-87939428D01*
X200017000Y-87844190D01*
X199921761Y-87748952D01*
X199731285Y-87701333D01*
X199397952Y-87701333D01*
X199207476Y-87748952D01*
X199112238Y-87844190D01*
X199064619Y-87939428D01*
X199064619Y-88129904D01*
X199112238Y-88225142D01*
X199207476Y-88320380D01*
X199397952Y-88368000D01*
X199731285Y-88368000D01*
X199921761Y-88320380D01*
X200017000Y-88225142D01*
X200064619Y-88129904D01*
X199064619Y-86748952D02*
X199064619Y-87320380D01*
X199064619Y-87034666D02*
X200064619Y-87034666D01*
X199921761Y-87129904D01*
X199826523Y-87225142D01*
X199778904Y-87320380D01*
X200112238Y-85606095D02*
X198826523Y-86463238D01*
X199064619Y-84701333D02*
X199540809Y-85034666D01*
X199064619Y-85272761D02*
X200064619Y-85272761D01*
X200064619Y-84891809D01*
X200017000Y-84796571D01*
X199969380Y-84748952D01*
X199874142Y-84701333D01*
X199731285Y-84701333D01*
X199636047Y-84748952D01*
X199588428Y-84796571D01*
X199540809Y-84891809D01*
X199540809Y-85272761D01*
X200064619Y-84368000D02*
X199064619Y-83701333D01*
X200064619Y-83701333D02*
X199064619Y-84368000D01*
X199969380Y-83368000D02*
X200017000Y-83320380D01*
X200064619Y-83225142D01*
X200064619Y-82987047D01*
X200017000Y-82891809D01*
X199969380Y-82844190D01*
X199874142Y-82796571D01*
X199778904Y-82796571D01*
X199636047Y-82844190D01*
X199064619Y-83415619D01*
X199064619Y-82796571D01*
X196524619Y-90645761D02*
X197524619Y-90645761D01*
X196810333Y-90312428D01*
X197524619Y-89979095D01*
X196524619Y-89979095D01*
X197524619Y-89312428D02*
X197524619Y-89121952D01*
X197477000Y-89026714D01*
X197381761Y-88931476D01*
X197191285Y-88883857D01*
X196857952Y-88883857D01*
X196667476Y-88931476D01*
X196572238Y-89026714D01*
X196524619Y-89121952D01*
X196524619Y-89312428D01*
X196572238Y-89407666D01*
X196667476Y-89502904D01*
X196857952Y-89550523D01*
X197191285Y-89550523D01*
X197381761Y-89502904D01*
X197477000Y-89407666D01*
X197524619Y-89312428D01*
X196572238Y-88502904D02*
X196524619Y-88360047D01*
X196524619Y-88121952D01*
X196572238Y-88026714D01*
X196619857Y-87979095D01*
X196715095Y-87931476D01*
X196810333Y-87931476D01*
X196905571Y-87979095D01*
X196953190Y-88026714D01*
X197000809Y-88121952D01*
X197048428Y-88312428D01*
X197096047Y-88407666D01*
X197143666Y-88455285D01*
X197238904Y-88502904D01*
X197334142Y-88502904D01*
X197429380Y-88455285D01*
X197477000Y-88407666D01*
X197524619Y-88312428D01*
X197524619Y-88074333D01*
X197477000Y-87931476D01*
X196524619Y-87502904D02*
X197524619Y-87502904D01*
X196524619Y-86502904D02*
X196524619Y-87074333D01*
X196524619Y-86788619D02*
X197524619Y-86788619D01*
X197381761Y-86883857D01*
X197286523Y-86979095D01*
X197238904Y-87074333D01*
X197572238Y-85360047D02*
X196286523Y-86217190D01*
X197524619Y-85169571D02*
X197524619Y-84598142D01*
X196524619Y-84883857D02*
X197524619Y-84883857D01*
X197524619Y-84360047D02*
X196524619Y-83693380D01*
X197524619Y-83693380D02*
X196524619Y-84360047D01*
X197429380Y-83360047D02*
X197477000Y-83312428D01*
X197524619Y-83217190D01*
X197524619Y-82979095D01*
X197477000Y-82883857D01*
X197429380Y-82836238D01*
X197334142Y-82788619D01*
X197238904Y-82788619D01*
X197096047Y-82836238D01*
X196524619Y-83407666D01*
X196524619Y-82788619D01*
X194270333Y-94749190D02*
X194270333Y-94273000D01*
X193984619Y-94844428D02*
X194984619Y-94511095D01*
X193984619Y-94177761D01*
X193984619Y-93844428D02*
X194984619Y-93844428D01*
X194984619Y-93606333D01*
X194937000Y-93463476D01*
X194841761Y-93368238D01*
X194746523Y-93320619D01*
X194556047Y-93273000D01*
X194413190Y-93273000D01*
X194222714Y-93320619D01*
X194127476Y-93368238D01*
X194032238Y-93463476D01*
X193984619Y-93606333D01*
X193984619Y-93844428D01*
X194270333Y-92892047D02*
X194270333Y-92415857D01*
X193984619Y-92987285D02*
X194984619Y-92653952D01*
X193984619Y-92320619D01*
X193984619Y-91987285D02*
X194984619Y-91987285D01*
X194984619Y-91606333D01*
X194937000Y-91511095D01*
X194889380Y-91463476D01*
X194794142Y-91415857D01*
X194651285Y-91415857D01*
X194556047Y-91463476D01*
X194508428Y-91511095D01*
X194460809Y-91606333D01*
X194460809Y-91987285D01*
X194984619Y-91130142D02*
X194984619Y-90558714D01*
X193984619Y-90844428D02*
X194984619Y-90844428D01*
X194508428Y-90225380D02*
X194508428Y-89892047D01*
X193984619Y-89749190D02*
X193984619Y-90225380D01*
X194984619Y-90225380D01*
X194984619Y-89749190D01*
X193984619Y-88749190D02*
X194460809Y-89082523D01*
X193984619Y-89320619D02*
X194984619Y-89320619D01*
X194984619Y-88939666D01*
X194937000Y-88844428D01*
X194889380Y-88796809D01*
X194794142Y-88749190D01*
X194651285Y-88749190D01*
X194556047Y-88796809D01*
X194508428Y-88844428D01*
X194460809Y-88939666D01*
X194460809Y-89320619D01*
X193889380Y-88558714D02*
X193889380Y-87796809D01*
X193984619Y-87558714D02*
X194984619Y-87558714D01*
X193984619Y-87082523D02*
X194984619Y-87082523D01*
X193984619Y-86511095D01*
X194984619Y-86511095D01*
X193889380Y-86273000D02*
X193889380Y-85511095D01*
X194984619Y-85273000D02*
X194175095Y-85273000D01*
X194079857Y-85225380D01*
X194032238Y-85177761D01*
X193984619Y-85082523D01*
X193984619Y-84892047D01*
X194032238Y-84796809D01*
X194079857Y-84749190D01*
X194175095Y-84701571D01*
X194984619Y-84701571D01*
X194032238Y-84273000D02*
X193984619Y-84130142D01*
X193984619Y-83892047D01*
X194032238Y-83796809D01*
X194079857Y-83749190D01*
X194175095Y-83701571D01*
X194270333Y-83701571D01*
X194365571Y-83749190D01*
X194413190Y-83796809D01*
X194460809Y-83892047D01*
X194508428Y-84082523D01*
X194556047Y-84177761D01*
X194603666Y-84225380D01*
X194698904Y-84273000D01*
X194794142Y-84273000D01*
X194889380Y-84225380D01*
X194937000Y-84177761D01*
X194984619Y-84082523D01*
X194984619Y-83844428D01*
X194937000Y-83701571D01*
X194508428Y-83273000D02*
X194508428Y-82939666D01*
X193984619Y-82796809D02*
X193984619Y-83273000D01*
X194984619Y-83273000D01*
X194984619Y-82796809D01*
X192444619Y-84915238D02*
X191444619Y-84581904D01*
X192444619Y-84248571D01*
X191444619Y-83915238D02*
X192444619Y-83915238D01*
X191444619Y-83439047D02*
X192444619Y-83439047D01*
X191444619Y-82867619D01*
X192444619Y-82867619D01*
X189904619Y-84915238D02*
X188904619Y-84581904D01*
X189904619Y-84248571D01*
X188904619Y-83915238D02*
X189904619Y-83915238D01*
X188904619Y-83439047D02*
X189904619Y-83439047D01*
X188904619Y-82867619D01*
X189904619Y-82867619D01*
X187237619Y-85970857D02*
X186237619Y-85637523D01*
X187237619Y-85304190D01*
X186761428Y-84637523D02*
X186713809Y-84494666D01*
X186666190Y-84447047D01*
X186570952Y-84399428D01*
X186428095Y-84399428D01*
X186332857Y-84447047D01*
X186285238Y-84494666D01*
X186237619Y-84589904D01*
X186237619Y-84970857D01*
X187237619Y-84970857D01*
X187237619Y-84637523D01*
X187190000Y-84542285D01*
X187142380Y-84494666D01*
X187047142Y-84447047D01*
X186951904Y-84447047D01*
X186856666Y-84494666D01*
X186809047Y-84542285D01*
X186761428Y-84637523D01*
X186761428Y-84970857D01*
X186523333Y-84018476D02*
X186523333Y-83542285D01*
X186237619Y-84113714D02*
X187237619Y-83780380D01*
X186237619Y-83447047D01*
X187237619Y-83256571D02*
X187237619Y-82685142D01*
X186237619Y-82970857D02*
X187237619Y-82970857D01*
X184697619Y-85970857D02*
X183697619Y-85637523D01*
X184697619Y-85304190D01*
X184221428Y-84637523D02*
X184173809Y-84494666D01*
X184126190Y-84447047D01*
X184030952Y-84399428D01*
X183888095Y-84399428D01*
X183792857Y-84447047D01*
X183745238Y-84494666D01*
X183697619Y-84589904D01*
X183697619Y-84970857D01*
X184697619Y-84970857D01*
X184697619Y-84637523D01*
X184650000Y-84542285D01*
X184602380Y-84494666D01*
X184507142Y-84447047D01*
X184411904Y-84447047D01*
X184316666Y-84494666D01*
X184269047Y-84542285D01*
X184221428Y-84637523D01*
X184221428Y-84970857D01*
X183983333Y-84018476D02*
X183983333Y-83542285D01*
X183697619Y-84113714D02*
X184697619Y-83780380D01*
X183697619Y-83447047D01*
X184697619Y-83256571D02*
X184697619Y-82685142D01*
X183697619Y-82970857D02*
X184697619Y-82970857D01*
X181736952Y-85161428D02*
X180975047Y-85161428D01*
X181356000Y-85542380D02*
X181356000Y-84780476D01*
X181863952Y-82621428D02*
X181102047Y-82621428D01*
X174116952Y-85161428D02*
X173355047Y-85161428D01*
X173736000Y-85542380D02*
X173736000Y-84780476D01*
X174116952Y-82621428D02*
X173355047Y-82621428D01*
X180030142Y-87955380D02*
X180030142Y-86955380D01*
X180030142Y-87336333D02*
X179934904Y-87288714D01*
X179744428Y-87288714D01*
X179649190Y-87336333D01*
X179601571Y-87383952D01*
X179553952Y-87479190D01*
X179553952Y-87764904D01*
X179601571Y-87860142D01*
X179649190Y-87907761D01*
X179744428Y-87955380D01*
X179934904Y-87955380D01*
X180030142Y-87907761D01*
X178696809Y-87955380D02*
X178696809Y-87431571D01*
X178744428Y-87336333D01*
X178839666Y-87288714D01*
X179030142Y-87288714D01*
X179125380Y-87336333D01*
X178696809Y-87907761D02*
X178792047Y-87955380D01*
X179030142Y-87955380D01*
X179125380Y-87907761D01*
X179173000Y-87812523D01*
X179173000Y-87717285D01*
X179125380Y-87622047D01*
X179030142Y-87574428D01*
X178792047Y-87574428D01*
X178696809Y-87526809D01*
X178363476Y-87288714D02*
X177982523Y-87288714D01*
X178220619Y-86955380D02*
X178220619Y-87812523D01*
X178173000Y-87907761D01*
X178077761Y-87955380D01*
X177982523Y-87955380D01*
X177792047Y-87288714D02*
X177411095Y-87288714D01*
X177649190Y-86955380D02*
X177649190Y-87812523D01*
X177601571Y-87907761D01*
X177506333Y-87955380D01*
X177411095Y-87955380D01*
X176696809Y-87907761D02*
X176792047Y-87955380D01*
X176982523Y-87955380D01*
X177077761Y-87907761D01*
X177125380Y-87812523D01*
X177125380Y-87431571D01*
X177077761Y-87336333D01*
X176982523Y-87288714D01*
X176792047Y-87288714D01*
X176696809Y-87336333D01*
X176649190Y-87431571D01*
X176649190Y-87526809D01*
X177125380Y-87622047D01*
X176220619Y-87955380D02*
X176220619Y-87288714D01*
X176220619Y-87479190D02*
X176173000Y-87383952D01*
X176125380Y-87336333D01*
X176030142Y-87288714D01*
X175934904Y-87288714D01*
X175696809Y-87288714D02*
X175458714Y-87955380D01*
X175220619Y-87288714D02*
X175458714Y-87955380D01*
X175553952Y-88193476D01*
X175601571Y-88241095D01*
X175696809Y-88288714D01*
D10*
X173803000Y-85150000D02*
X175133000Y-85150000D01*
X173803000Y-83820000D02*
X173803000Y-85150000D01*
X173803000Y-82550000D02*
X176463000Y-82550000D01*
X176463000Y-82550000D02*
X176463000Y-79950000D01*
X173803000Y-82550000D02*
X173803000Y-79950000D01*
X173803000Y-79950000D02*
X176463000Y-79950000D01*
X170120000Y-79950000D02*
X172780000Y-79950000D01*
X170120000Y-82550000D02*
X170120000Y-79950000D01*
X172780000Y-82550000D02*
X172780000Y-79950000D01*
X170120000Y-82550000D02*
X172780000Y-82550000D01*
X170120000Y-83820000D02*
X170120000Y-85150000D01*
X170120000Y-85150000D02*
X171450000Y-85150000D01*
X213547000Y-79950000D02*
X213547000Y-82610000D01*
X185547000Y-79950000D02*
X213547000Y-79950000D01*
X185547000Y-82610000D02*
X213547000Y-82610000D01*
X185547000Y-79950000D02*
X185547000Y-82610000D01*
X184277000Y-79950000D02*
X182947000Y-79950000D01*
X182947000Y-79950000D02*
X182947000Y-81280000D01*
X230692000Y-97857000D02*
X229362000Y-97857000D01*
X230692000Y-99187000D02*
X230692000Y-97857000D01*
X230692000Y-100457000D02*
X228032000Y-100457000D01*
X228032000Y-100457000D02*
X228032000Y-128457000D01*
X230692000Y-100457000D02*
X230692000Y-128457000D01*
X230692000Y-128457000D02*
X228032000Y-128457000D01*
X225231000Y-145094000D02*
X225231000Y-143764000D01*
X223901000Y-145094000D02*
X225231000Y-145094000D01*
X222631000Y-145094000D02*
X222631000Y-142434000D01*
X222631000Y-142434000D02*
X194631000Y-142434000D01*
X222631000Y-145094000D02*
X194631000Y-145094000D01*
X194631000Y-145094000D02*
X194631000Y-142434000D01*
D11*
X178133333Y-79589380D02*
X178133333Y-80303666D01*
X178180952Y-80446523D01*
X178276190Y-80541761D01*
X178419047Y-80589380D01*
X178514285Y-80589380D01*
X177704761Y-79684619D02*
X177657142Y-79637000D01*
X177561904Y-79589380D01*
X177323809Y-79589380D01*
X177228571Y-79637000D01*
X177180952Y-79684619D01*
X177133333Y-79779857D01*
X177133333Y-79875095D01*
X177180952Y-80017952D01*
X177752380Y-80589380D01*
X177133333Y-80589380D01*
X169116333Y-84542380D02*
X169116333Y-85256666D01*
X169163952Y-85399523D01*
X169259190Y-85494761D01*
X169402047Y-85542380D01*
X169497285Y-85542380D01*
X168735380Y-84542380D02*
X168116333Y-84542380D01*
X168449666Y-84923333D01*
X168306809Y-84923333D01*
X168211571Y-84970952D01*
X168163952Y-85018571D01*
X168116333Y-85113809D01*
X168116333Y-85351904D01*
X168163952Y-85447142D01*
X168211571Y-85494761D01*
X168306809Y-85542380D01*
X168592523Y-85542380D01*
X168687761Y-85494761D01*
X168735380Y-85447142D01*
X215693523Y-79970380D02*
X215693523Y-80684666D01*
X215741142Y-80827523D01*
X215836380Y-80922761D01*
X215979238Y-80970380D01*
X216074476Y-80970380D01*
X214693523Y-80970380D02*
X215264952Y-80970380D01*
X214979238Y-80970380D02*
X214979238Y-79970380D01*
X215074476Y-80113238D01*
X215169714Y-80208476D01*
X215264952Y-80256095D01*
X214074476Y-79970380D02*
X213979238Y-79970380D01*
X213884000Y-80018000D01*
X213836380Y-80065619D01*
X213788761Y-80160857D01*
X213741142Y-80351333D01*
X213741142Y-80589428D01*
X213788761Y-80779904D01*
X213836380Y-80875142D01*
X213884000Y-80922761D01*
X213979238Y-80970380D01*
X214074476Y-80970380D01*
X214169714Y-80922761D01*
X214217333Y-80875142D01*
X214264952Y-80779904D01*
X214312571Y-80589428D01*
X214312571Y-80351333D01*
X214264952Y-80160857D01*
X214217333Y-80065619D01*
X214169714Y-80018000D01*
X214074476Y-79970380D01*
X230171523Y-96309380D02*
X230171523Y-97023666D01*
X230219142Y-97166523D01*
X230314380Y-97261761D01*
X230457238Y-97309380D01*
X230552476Y-97309380D01*
X229171523Y-97309380D02*
X229742952Y-97309380D01*
X229457238Y-97309380D02*
X229457238Y-96309380D01*
X229552476Y-96452238D01*
X229647714Y-96547476D01*
X229742952Y-96595095D01*
X228219142Y-97309380D02*
X228790571Y-97309380D01*
X228504857Y-97309380D02*
X228504857Y-96309380D01*
X228600095Y-96452238D01*
X228695333Y-96547476D01*
X228790571Y-96595095D01*
X227123523Y-141057380D02*
X227123523Y-141771666D01*
X227171142Y-141914523D01*
X227266380Y-142009761D01*
X227409238Y-142057380D01*
X227504476Y-142057380D01*
X226123523Y-142057380D02*
X226694952Y-142057380D01*
X226409238Y-142057380D02*
X226409238Y-141057380D01*
X226504476Y-141200238D01*
X226599714Y-141295476D01*
X226694952Y-141343095D01*
X225742571Y-141152619D02*
X225694952Y-141105000D01*
X225599714Y-141057380D01*
X225361619Y-141057380D01*
X225266380Y-141105000D01*
X225218761Y-141152619D01*
X225171142Y-141247857D01*
X225171142Y-141343095D01*
X225218761Y-141485952D01*
X225790190Y-142057380D01*
X225171142Y-142057380D01*
%LPC*%
G36*
G01*
X217951000Y-89592000D02*
X217951000Y-87192000D01*
G75*
G02*
X218002000Y-87141000I51000J0D01*
G01*
X220402000Y-87141000D01*
G75*
G02*
X220453000Y-87192000I0J-51000D01*
G01*
X220453000Y-89592000D01*
G75*
G02*
X220402000Y-89643000I-51000J0D01*
G01*
X218002000Y-89643000D01*
G75*
G02*
X217951000Y-89592000I0J51000D01*
G01*
G37*
D12*
X224202000Y-88392000D03*
D13*
X168910000Y-92470000D03*
X168910000Y-97310000D03*
D14*
X165910000Y-92160000D03*
X165910000Y-97620000D03*
G36*
G01*
X174232000Y-84670000D02*
X174232000Y-82970000D01*
G75*
G02*
X174283000Y-82919000I51000J0D01*
G01*
X175983000Y-82919000D01*
G75*
G02*
X176034000Y-82970000I0J-51000D01*
G01*
X176034000Y-84670000D01*
G75*
G02*
X175983000Y-84721000I-51000J0D01*
G01*
X174283000Y-84721000D01*
G75*
G02*
X174232000Y-84670000I0J51000D01*
G01*
G37*
D15*
X175133000Y-81280000D03*
X171450000Y-81280000D03*
G36*
G01*
X170549000Y-84670000D02*
X170549000Y-82970000D01*
G75*
G02*
X170600000Y-82919000I51000J0D01*
G01*
X172300000Y-82919000D01*
G75*
G02*
X172351000Y-82970000I0J-51000D01*
G01*
X172351000Y-84670000D01*
G75*
G02*
X172300000Y-84721000I-51000J0D01*
G01*
X170600000Y-84721000D01*
G75*
G02*
X170549000Y-84670000I0J51000D01*
G01*
G37*
X225044000Y-117094000D03*
X225044000Y-114554000D03*
X225044000Y-112014000D03*
X225044000Y-109474000D03*
X225044000Y-106934000D03*
G36*
G01*
X224143000Y-105244000D02*
X224143000Y-103544000D01*
G75*
G02*
X224194000Y-103493000I51000J0D01*
G01*
X225894000Y-103493000D01*
G75*
G02*
X225945000Y-103544000I0J-51000D01*
G01*
X225945000Y-105244000D01*
G75*
G02*
X225894000Y-105295000I-51000J0D01*
G01*
X224194000Y-105295000D01*
G75*
G02*
X224143000Y-105244000I0J51000D01*
G01*
G37*
G36*
G01*
X191809000Y-104763000D02*
X193509000Y-104763000D01*
G75*
G02*
X193560000Y-104814000I0J-51000D01*
G01*
X193560000Y-106514000D01*
G75*
G02*
X193509000Y-106565000I-51000J0D01*
G01*
X191809000Y-106565000D01*
G75*
G02*
X191758000Y-106514000I0J51000D01*
G01*
X191758000Y-104814000D01*
G75*
G02*
X191809000Y-104763000I51000J0D01*
G01*
G37*
X192659000Y-108204000D03*
X190119000Y-105664000D03*
X190119000Y-108204000D03*
X187579000Y-105664000D03*
X187579000Y-108204000D03*
X185039000Y-105664000D03*
X185039000Y-108204000D03*
X182499000Y-105664000D03*
X182499000Y-108204000D03*
X219202000Y-124587000D03*
X216662000Y-124587000D03*
X219202000Y-122047000D03*
X216662000Y-122047000D03*
X219202000Y-119507000D03*
X216662000Y-119507000D03*
X219202000Y-116967000D03*
X216662000Y-116967000D03*
X219202000Y-114427000D03*
G36*
G01*
X215761000Y-115277000D02*
X215761000Y-113577000D01*
G75*
G02*
X215812000Y-113526000I51000J0D01*
G01*
X217512000Y-113526000D01*
G75*
G02*
X217563000Y-113577000I0J-51000D01*
G01*
X217563000Y-115277000D01*
G75*
G02*
X217512000Y-115328000I-51000J0D01*
G01*
X215812000Y-115328000D01*
G75*
G02*
X215761000Y-115277000I0J51000D01*
G01*
G37*
G36*
G01*
X176872000Y-142379000D02*
X175172000Y-142379000D01*
G75*
G02*
X175121000Y-142328000I0J51000D01*
G01*
X175121000Y-140628000D01*
G75*
G02*
X175172000Y-140577000I51000J0D01*
G01*
X176872000Y-140577000D01*
G75*
G02*
X176923000Y-140628000I0J-51000D01*
G01*
X176923000Y-142328000D01*
G75*
G02*
X176872000Y-142379000I-51000J0D01*
G01*
G37*
X178562000Y-141478000D03*
G36*
G01*
X174332000Y-139712000D02*
X172632000Y-139712000D01*
G75*
G02*
X172581000Y-139661000I0J51000D01*
G01*
X172581000Y-137961000D01*
G75*
G02*
X172632000Y-137910000I51000J0D01*
G01*
X174332000Y-137910000D01*
G75*
G02*
X174383000Y-137961000I0J-51000D01*
G01*
X174383000Y-139661000D01*
G75*
G02*
X174332000Y-139712000I-51000J0D01*
G01*
G37*
X176022000Y-138811000D03*
X178562000Y-138811000D03*
X181102000Y-138811000D03*
X183642000Y-138811000D03*
X186182000Y-138811000D03*
G36*
G01*
X185408000Y-121373000D02*
X185408000Y-119673000D01*
G75*
G02*
X185459000Y-119622000I51000J0D01*
G01*
X187159000Y-119622000D01*
G75*
G02*
X187210000Y-119673000I0J-51000D01*
G01*
X187210000Y-121373000D01*
G75*
G02*
X187159000Y-121424000I-51000J0D01*
G01*
X185459000Y-121424000D01*
G75*
G02*
X185408000Y-121373000I0J51000D01*
G01*
G37*
X188849000Y-120523000D03*
X186309000Y-123063000D03*
X188849000Y-123063000D03*
X186309000Y-125603000D03*
X188849000Y-125603000D03*
X186309000Y-128143000D03*
X188849000Y-128143000D03*
X212217000Y-81280000D03*
X209677000Y-81280000D03*
X207137000Y-81280000D03*
X204597000Y-81280000D03*
X202057000Y-81280000D03*
X199517000Y-81280000D03*
X196977000Y-81280000D03*
X194437000Y-81280000D03*
X191897000Y-81280000D03*
X189357000Y-81280000D03*
X186817000Y-81280000D03*
G36*
G01*
X183427000Y-80379000D02*
X185127000Y-80379000D01*
G75*
G02*
X185178000Y-80430000I0J-51000D01*
G01*
X185178000Y-82130000D01*
G75*
G02*
X185127000Y-82181000I-51000J0D01*
G01*
X183427000Y-82181000D01*
G75*
G02*
X183376000Y-82130000I0J51000D01*
G01*
X183376000Y-80430000D01*
G75*
G02*
X183427000Y-80379000I51000J0D01*
G01*
G37*
G36*
G01*
X230263000Y-98337000D02*
X230263000Y-100037000D01*
G75*
G02*
X230212000Y-100088000I-51000J0D01*
G01*
X228512000Y-100088000D01*
G75*
G02*
X228461000Y-100037000I0J51000D01*
G01*
X228461000Y-98337000D01*
G75*
G02*
X228512000Y-98286000I51000J0D01*
G01*
X230212000Y-98286000D01*
G75*
G02*
X230263000Y-98337000I0J-51000D01*
G01*
G37*
X229362000Y-101727000D03*
X229362000Y-104267000D03*
X229362000Y-106807000D03*
X229362000Y-109347000D03*
X229362000Y-111887000D03*
X229362000Y-114427000D03*
X229362000Y-116967000D03*
X229362000Y-119507000D03*
X229362000Y-122047000D03*
X229362000Y-124587000D03*
X229362000Y-127127000D03*
G36*
G01*
X224751000Y-144665000D02*
X223051000Y-144665000D01*
G75*
G02*
X223000000Y-144614000I0J51000D01*
G01*
X223000000Y-142914000D01*
G75*
G02*
X223051000Y-142863000I51000J0D01*
G01*
X224751000Y-142863000D01*
G75*
G02*
X224802000Y-142914000I0J-51000D01*
G01*
X224802000Y-144614000D01*
G75*
G02*
X224751000Y-144665000I-51000J0D01*
G01*
G37*
X221361000Y-143764000D03*
X218821000Y-143764000D03*
X216281000Y-143764000D03*
X213741000Y-143764000D03*
X211201000Y-143764000D03*
X208661000Y-143764000D03*
X206121000Y-143764000D03*
X203581000Y-143764000D03*
X201041000Y-143764000D03*
X198501000Y-143764000D03*
X195961000Y-143764000D03*
D16*
X170576000Y-135206000D03*
X172576000Y-135206000D03*
X174576000Y-135206000D03*
X176576000Y-135206000D03*
X178576000Y-135206000D03*
X180576000Y-135206000D03*
X182576000Y-135206000D03*
X184576000Y-135206000D03*
X186576000Y-135206000D03*
X188576000Y-135206000D03*
X188576000Y-113206000D03*
X186576000Y-113206000D03*
X184576000Y-113206000D03*
X182576000Y-113206000D03*
X180576000Y-113206000D03*
X178576000Y-113206000D03*
X176576000Y-113206000D03*
X174576000Y-113206000D03*
X172576000Y-113206000D03*
X170576000Y-113206000D03*
D17*
X229489000Y-81407000D03*
D18*
X231139000Y-81407000D03*
X230655726Y-82573726D03*
X229489000Y-83057000D03*
X228322274Y-82573726D03*
X227839000Y-81407000D03*
X228322274Y-80240274D03*
X229489000Y-79757000D03*
X230655726Y-80240274D03*
D17*
X166243000Y-81407000D03*
D18*
X167893000Y-81407000D03*
X167409726Y-82573726D03*
X166243000Y-83057000D03*
X165076274Y-82573726D03*
X164593000Y-81407000D03*
X165076274Y-80240274D03*
X166243000Y-79757000D03*
X167409726Y-80240274D03*
D17*
X166243000Y-143891000D03*
D18*
X167893000Y-143891000D03*
X167409726Y-145057726D03*
X166243000Y-145541000D03*
X165076274Y-145057726D03*
X164593000Y-143891000D03*
X165076274Y-142724274D03*
X166243000Y-142241000D03*
X167409726Y-142724274D03*
X230655726Y-142724274D03*
X229489000Y-142241000D03*
X228322274Y-142724274D03*
X227839000Y-143891000D03*
X228322274Y-145057726D03*
X229489000Y-145541000D03*
X230655726Y-145057726D03*
X231139000Y-143891000D03*
D17*
X229489000Y-143891000D03*
M02*
