M48
; DRILL file {KiCad (5.1.9)-1} date 06/14/21 08:33:12
; FORMAT={-:-/ absolute / metric / decimal}
; #@! TF.CreationDate,2021-06-14T08:33:12+02:00
; #@! TF.GenerationSoftware,Kicad,Pcbnew,(5.1.9)-1
; #@! TF.FileFunction,Plated,1,2,PTH
FMAT,2
METRIC
T1C0.200
T2C0.400
T3C0.650
T4C0.700
T5C0.710
T6C0.800
T7C1.000
T8C1.200
T9C2.200
%
G90
G05
T1
X179.374Y-97.031
X180.324Y-96.456
X180.324Y-97.606
X181.274Y-97.031
T2
X164.593Y-81.407
X164.593Y-143.891
X165.076Y-80.24
X165.076Y-82.574
X165.076Y-142.724
X165.076Y-145.058
X166.243Y-79.757
X166.243Y-83.057
X166.243Y-142.241
X166.243Y-145.541
X167.41Y-80.24
X167.41Y-82.574
X167.41Y-142.724
X167.41Y-145.058
X167.893Y-81.407
X167.893Y-143.891
X173.228Y-95.631
X175.387Y-124.333
X178.054Y-124.333
X178.689Y-95.631
X178.695Y-98.431
X184.15Y-144.018
X185.42Y-87.376
X190.246Y-114.808
X191.516Y-121.793
X191.88Y-90.567
X192.151Y-118.618
X192.151Y-125.73
X192.278Y-116.205
X192.283Y-120.391
X192.913Y-127.635
X194.05Y-125.482
X194.056Y-116.205
X194.467Y-118.872
X194.5Y-126.623
X194.5Y-127.825
X194.945Y-96.774
X195.707Y-96.012
X195.834Y-91.821
X196.063Y-124.046
X197.104Y-124.624
X197.231Y-104.648
X197.358Y-100.838
X198.614Y-120.497
X199.898Y-91.059
X200.025Y-94.742
X200.025Y-97.499
X200.3Y-92.181
X201.803Y-84.836
X201.803Y-117.856
X201.803Y-118.856
X202.793Y-100.584
X204.343Y-93.726
X204.425Y-91.567
X205.105Y-112.014
X206.121Y-112.141
X206.198Y-102.158
X206.248Y-95.758
X206.629Y-109.22
X206.629Y-123.825
X207.264Y-131.064
X207.264Y-132.207
X207.518Y-112.395
X207.523Y-123.378
X209.804Y-84.836
X209.804Y-128.623
X210.312Y-112.395
X210.82Y-110.617
X210.82Y-131.032
X211.836Y-130.302
X211.836Y-133.223
X212.09Y-84.836
X212.217Y-83.439
X212.471Y-97.155
X213.487Y-124.333
X214.376Y-86.106
X214.757Y-133.223
X214.815Y-127.312
X214.815Y-130.106
X215.011Y-118.11
X216.32Y-99.822
X218.186Y-104.394
X219.202Y-105.156
X222.631Y-129.159
X222.69Y-105.605
X223.139Y-104.394
X227.839Y-81.407
X227.839Y-143.891
X228.322Y-80.24
X228.322Y-82.574
X228.322Y-142.724
X228.322Y-145.058
X229.489Y-79.757
X229.489Y-83.057
X229.489Y-142.241
X229.489Y-145.541
X230.656Y-80.24
X230.656Y-82.574
X230.656Y-142.724
X230.656Y-145.058
X231.139Y-81.407
X231.139Y-143.891
T5
X170.576Y-113.206
X170.576Y-135.206
X172.576Y-113.206
X172.576Y-135.206
X174.576Y-113.206
X174.576Y-135.206
X176.576Y-113.206
X176.576Y-135.206
X178.576Y-113.206
X178.576Y-135.206
X180.576Y-113.206
X180.576Y-135.206
X182.576Y-113.206
X182.576Y-135.206
X184.576Y-113.206
X184.576Y-135.206
X186.576Y-113.206
X186.576Y-135.206
X188.576Y-113.206
X188.576Y-135.206
T6
X177.165Y-88.9
X183.134Y-119.062
X190.627Y-138.43
X193.294Y-99.187
T7
X173.482Y-138.811
X175.768Y-82.55
X175.768Y-85.09
X176.022Y-138.811
X176.022Y-141.478
X178.562Y-138.811
X178.562Y-141.478
X179.451Y-82.677
X179.451Y-85.217
X181.102Y-138.811
X183.642Y-138.811
X184.277Y-81.28
X186.182Y-138.811
X186.309Y-106.934
X186.309Y-109.474
X186.309Y-120.523
X186.309Y-123.063
X186.309Y-125.603
X186.309Y-128.143
X186.817Y-81.28
X188.849Y-106.934
X188.849Y-109.474
X188.849Y-120.523
X188.849Y-123.063
X188.849Y-125.603
X188.849Y-128.143
X189.357Y-81.28
X191.389Y-106.934
X191.389Y-109.474
X191.897Y-81.28
X193.929Y-106.934
X193.929Y-109.474
X194.437Y-81.28
X195.961Y-143.764
X196.469Y-106.934
X196.469Y-109.474
X196.977Y-81.28
X198.501Y-143.764
X199.517Y-81.28
X201.041Y-143.764
X202.057Y-81.28
X203.581Y-143.764
X204.597Y-81.28
X206.121Y-143.764
X207.137Y-81.28
X208.661Y-143.764
X209.677Y-81.28
X211.201Y-143.764
X212.217Y-81.28
X213.741Y-143.764
X216.281Y-143.764
X216.662Y-114.427
X216.662Y-116.967
X216.662Y-119.507
X216.662Y-122.047
X216.662Y-124.587
X218.821Y-143.764
X219.202Y-114.427
X219.202Y-116.967
X219.202Y-119.507
X219.202Y-122.047
X219.202Y-124.587
X221.361Y-143.764
X223.901Y-143.764
X225.044Y-104.394
X225.044Y-106.934
X225.044Y-109.474
X225.044Y-112.014
X225.044Y-114.554
X225.044Y-117.094
X229.362Y-99.187
X229.362Y-101.727
X229.362Y-104.267
X229.362Y-106.807
X229.362Y-109.347
X229.362Y-111.887
X229.362Y-114.427
X229.362Y-116.967
X229.362Y-119.507
X229.362Y-122.047
X229.362Y-124.587
X229.362Y-127.127
T8
X219.202Y-88.392
X224.202Y-88.392
T9
X166.243Y-81.407
X166.243Y-143.891
X229.489Y-81.407
X229.489Y-143.891
T3
X168.71Y-92.47G85X169.11Y-92.47
G05
X168.71Y-97.31G85X169.11Y-97.31
G05
T4
X165.66Y-92.16G85X166.16Y-92.16
G05
X165.66Y-97.62G85X166.16Y-97.62
G05
T0
M30
