G04 #@! TF.GenerationSoftware,KiCad,Pcbnew,(5.1.9)-1*
G04 #@! TF.CreationDate,2021-06-14T08:32:31+02:00*
G04 #@! TF.ProjectId,SmartSensor,536d6172-7453-4656-9e73-6f722e6b6963,rev?*
G04 #@! TF.SameCoordinates,Original*
G04 #@! TF.FileFunction,Soldermask,Top*
G04 #@! TF.FilePolarity,Negative*
%FSLAX46Y46*%
G04 Gerber Fmt 4.6, Leading zero omitted, Abs format (unit mm)*
G04 Created by KiCad (PCBNEW (5.1.9)-1) date 2021-06-14 08:32:31*
%MOMM*%
%LPD*%
G01*
G04 APERTURE LIST*
%ADD10C,2.502000*%
%ADD11O,1.602000X1.202000*%
%ADD12O,1.802000X1.452000*%
%ADD13O,1.802000X1.802000*%
%ADD14C,0.100000*%
%ADD15C,1.202000*%
%ADD16C,4.502000*%
%ADD17C,0.802000*%
G04 APERTURE END LIST*
G36*
G01*
X226795750Y-127695500D02*
X225832250Y-127695500D01*
G75*
G02*
X225563000Y-127426250I0J269250D01*
G01*
X225563000Y-126887750D01*
G75*
G02*
X225832250Y-126618500I269250J0D01*
G01*
X226795750Y-126618500D01*
G75*
G02*
X227065000Y-126887750I0J-269250D01*
G01*
X227065000Y-127426250D01*
G75*
G02*
X226795750Y-127695500I-269250J0D01*
G01*
G37*
G36*
G01*
X226795750Y-129570500D02*
X225832250Y-129570500D01*
G75*
G02*
X225563000Y-129301250I0J269250D01*
G01*
X225563000Y-128762750D01*
G75*
G02*
X225832250Y-128493500I269250J0D01*
G01*
X226795750Y-128493500D01*
G75*
G02*
X227065000Y-128762750I0J-269250D01*
G01*
X227065000Y-129301250D01*
G75*
G02*
X226795750Y-129570500I-269250J0D01*
G01*
G37*
G36*
G01*
X184754500Y-99033750D02*
X184754500Y-98070250D01*
G75*
G02*
X185023750Y-97801000I269250J0D01*
G01*
X185562250Y-97801000D01*
G75*
G02*
X185831500Y-98070250I0J-269250D01*
G01*
X185831500Y-99033750D01*
G75*
G02*
X185562250Y-99303000I-269250J0D01*
G01*
X185023750Y-99303000D01*
G75*
G02*
X184754500Y-99033750I0J269250D01*
G01*
G37*
G36*
G01*
X186629500Y-99033750D02*
X186629500Y-98070250D01*
G75*
G02*
X186898750Y-97801000I269250J0D01*
G01*
X187437250Y-97801000D01*
G75*
G02*
X187706500Y-98070250I0J-269250D01*
G01*
X187706500Y-99033750D01*
G75*
G02*
X187437250Y-99303000I-269250J0D01*
G01*
X186898750Y-99303000D01*
G75*
G02*
X186629500Y-99033750I0J269250D01*
G01*
G37*
G36*
G01*
X184561500Y-93371250D02*
X184561500Y-94334750D01*
G75*
G02*
X184292250Y-94604000I-269250J0D01*
G01*
X183753750Y-94604000D01*
G75*
G02*
X183484500Y-94334750I0J269250D01*
G01*
X183484500Y-93371250D01*
G75*
G02*
X183753750Y-93102000I269250J0D01*
G01*
X184292250Y-93102000D01*
G75*
G02*
X184561500Y-93371250I0J-269250D01*
G01*
G37*
G36*
G01*
X182686500Y-93371250D02*
X182686500Y-94334750D01*
G75*
G02*
X182417250Y-94604000I-269250J0D01*
G01*
X181878750Y-94604000D01*
G75*
G02*
X181609500Y-94334750I0J269250D01*
G01*
X181609500Y-93371250D01*
G75*
G02*
X181878750Y-93102000I269250J0D01*
G01*
X182417250Y-93102000D01*
G75*
G02*
X182686500Y-93371250I0J-269250D01*
G01*
G37*
G36*
G01*
X175447500Y-93498250D02*
X175447500Y-94461750D01*
G75*
G02*
X175178250Y-94731000I-269250J0D01*
G01*
X174639750Y-94731000D01*
G75*
G02*
X174370500Y-94461750I0J269250D01*
G01*
X174370500Y-93498250D01*
G75*
G02*
X174639750Y-93229000I269250J0D01*
G01*
X175178250Y-93229000D01*
G75*
G02*
X175447500Y-93498250I0J-269250D01*
G01*
G37*
G36*
G01*
X177322500Y-93498250D02*
X177322500Y-94461750D01*
G75*
G02*
X177053250Y-94731000I-269250J0D01*
G01*
X176514750Y-94731000D01*
G75*
G02*
X176245500Y-94461750I0J269250D01*
G01*
X176245500Y-93498250D01*
G75*
G02*
X176514750Y-93229000I269250J0D01*
G01*
X177053250Y-93229000D01*
G75*
G02*
X177322500Y-93498250I0J-269250D01*
G01*
G37*
G36*
G01*
X178150500Y-94334750D02*
X178150500Y-93371250D01*
G75*
G02*
X178419750Y-93102000I269250J0D01*
G01*
X178958250Y-93102000D01*
G75*
G02*
X179227500Y-93371250I0J-269250D01*
G01*
X179227500Y-94334750D01*
G75*
G02*
X178958250Y-94604000I-269250J0D01*
G01*
X178419750Y-94604000D01*
G75*
G02*
X178150500Y-94334750I0J269250D01*
G01*
G37*
G36*
G01*
X180025500Y-94334750D02*
X180025500Y-93371250D01*
G75*
G02*
X180294750Y-93102000I269250J0D01*
G01*
X180833250Y-93102000D01*
G75*
G02*
X181102500Y-93371250I0J-269250D01*
G01*
X181102500Y-94334750D01*
G75*
G02*
X180833250Y-94604000I-269250J0D01*
G01*
X180294750Y-94604000D01*
G75*
G02*
X180025500Y-94334750I0J269250D01*
G01*
G37*
G36*
G01*
X208126750Y-89057500D02*
X207163250Y-89057500D01*
G75*
G02*
X206894000Y-88788250I0J269250D01*
G01*
X206894000Y-88249750D01*
G75*
G02*
X207163250Y-87980500I269250J0D01*
G01*
X208126750Y-87980500D01*
G75*
G02*
X208396000Y-88249750I0J-269250D01*
G01*
X208396000Y-88788250D01*
G75*
G02*
X208126750Y-89057500I-269250J0D01*
G01*
G37*
G36*
G01*
X208126750Y-90932500D02*
X207163250Y-90932500D01*
G75*
G02*
X206894000Y-90663250I0J269250D01*
G01*
X206894000Y-90124750D01*
G75*
G02*
X207163250Y-89855500I269250J0D01*
G01*
X208126750Y-89855500D01*
G75*
G02*
X208396000Y-90124750I0J-269250D01*
G01*
X208396000Y-90663250D01*
G75*
G02*
X208126750Y-90932500I-269250J0D01*
G01*
G37*
G36*
G01*
X206094750Y-90962500D02*
X205131250Y-90962500D01*
G75*
G02*
X204862000Y-90693250I0J269250D01*
G01*
X204862000Y-90154750D01*
G75*
G02*
X205131250Y-89885500I269250J0D01*
G01*
X206094750Y-89885500D01*
G75*
G02*
X206364000Y-90154750I0J-269250D01*
G01*
X206364000Y-90693250D01*
G75*
G02*
X206094750Y-90962500I-269250J0D01*
G01*
G37*
G36*
G01*
X206094750Y-89087500D02*
X205131250Y-89087500D01*
G75*
G02*
X204862000Y-88818250I0J269250D01*
G01*
X204862000Y-88279750D01*
G75*
G02*
X205131250Y-88010500I269250J0D01*
G01*
X206094750Y-88010500D01*
G75*
G02*
X206364000Y-88279750I0J-269250D01*
G01*
X206364000Y-88818250D01*
G75*
G02*
X206094750Y-89087500I-269250J0D01*
G01*
G37*
G36*
G01*
X198470500Y-99668750D02*
X198470500Y-98705250D01*
G75*
G02*
X198739750Y-98436000I269250J0D01*
G01*
X199278250Y-98436000D01*
G75*
G02*
X199547500Y-98705250I0J-269250D01*
G01*
X199547500Y-99668750D01*
G75*
G02*
X199278250Y-99938000I-269250J0D01*
G01*
X198739750Y-99938000D01*
G75*
G02*
X198470500Y-99668750I0J269250D01*
G01*
G37*
G36*
G01*
X196595500Y-99668750D02*
X196595500Y-98705250D01*
G75*
G02*
X196864750Y-98436000I269250J0D01*
G01*
X197403250Y-98436000D01*
G75*
G02*
X197672500Y-98705250I0J-269250D01*
G01*
X197672500Y-99668750D01*
G75*
G02*
X197403250Y-99938000I-269250J0D01*
G01*
X196864750Y-99938000D01*
G75*
G02*
X196595500Y-99668750I0J269250D01*
G01*
G37*
G36*
G01*
X190219750Y-88930500D02*
X189256250Y-88930500D01*
G75*
G02*
X188987000Y-88661250I0J269250D01*
G01*
X188987000Y-88122750D01*
G75*
G02*
X189256250Y-87853500I269250J0D01*
G01*
X190219750Y-87853500D01*
G75*
G02*
X190489000Y-88122750I0J-269250D01*
G01*
X190489000Y-88661250D01*
G75*
G02*
X190219750Y-88930500I-269250J0D01*
G01*
G37*
G36*
G01*
X190219750Y-90805500D02*
X189256250Y-90805500D01*
G75*
G02*
X188987000Y-90536250I0J269250D01*
G01*
X188987000Y-89997750D01*
G75*
G02*
X189256250Y-89728500I269250J0D01*
G01*
X190219750Y-89728500D01*
G75*
G02*
X190489000Y-89997750I0J-269250D01*
G01*
X190489000Y-90536250D01*
G75*
G02*
X190219750Y-90805500I-269250J0D01*
G01*
G37*
G36*
G01*
X220949500Y-108304750D02*
X220949500Y-107341250D01*
G75*
G02*
X221218750Y-107072000I269250J0D01*
G01*
X221757250Y-107072000D01*
G75*
G02*
X222026500Y-107341250I0J-269250D01*
G01*
X222026500Y-108304750D01*
G75*
G02*
X221757250Y-108574000I-269250J0D01*
G01*
X221218750Y-108574000D01*
G75*
G02*
X220949500Y-108304750I0J269250D01*
G01*
G37*
G36*
G01*
X219074500Y-108304750D02*
X219074500Y-107341250D01*
G75*
G02*
X219343750Y-107072000I269250J0D01*
G01*
X219882250Y-107072000D01*
G75*
G02*
X220151500Y-107341250I0J-269250D01*
G01*
X220151500Y-108304750D01*
G75*
G02*
X219882250Y-108574000I-269250J0D01*
G01*
X219343750Y-108574000D01*
G75*
G02*
X219074500Y-108304750I0J269250D01*
G01*
G37*
G36*
G01*
X223743500Y-125830750D02*
X223743500Y-124867250D01*
G75*
G02*
X224012750Y-124598000I269250J0D01*
G01*
X224551250Y-124598000D01*
G75*
G02*
X224820500Y-124867250I0J-269250D01*
G01*
X224820500Y-125830750D01*
G75*
G02*
X224551250Y-126100000I-269250J0D01*
G01*
X224012750Y-126100000D01*
G75*
G02*
X223743500Y-125830750I0J269250D01*
G01*
G37*
G36*
G01*
X225618500Y-125830750D02*
X225618500Y-124867250D01*
G75*
G02*
X225887750Y-124598000I269250J0D01*
G01*
X226426250Y-124598000D01*
G75*
G02*
X226695500Y-124867250I0J-269250D01*
G01*
X226695500Y-125830750D01*
G75*
G02*
X226426250Y-126100000I-269250J0D01*
G01*
X225887750Y-126100000D01*
G75*
G02*
X225618500Y-125830750I0J269250D01*
G01*
G37*
G36*
G01*
X219074500Y-110336750D02*
X219074500Y-109373250D01*
G75*
G02*
X219343750Y-109104000I269250J0D01*
G01*
X219882250Y-109104000D01*
G75*
G02*
X220151500Y-109373250I0J-269250D01*
G01*
X220151500Y-110336750D01*
G75*
G02*
X219882250Y-110606000I-269250J0D01*
G01*
X219343750Y-110606000D01*
G75*
G02*
X219074500Y-110336750I0J269250D01*
G01*
G37*
G36*
G01*
X220949500Y-110336750D02*
X220949500Y-109373250D01*
G75*
G02*
X221218750Y-109104000I269250J0D01*
G01*
X221757250Y-109104000D01*
G75*
G02*
X222026500Y-109373250I0J-269250D01*
G01*
X222026500Y-110336750D01*
G75*
G02*
X221757250Y-110606000I-269250J0D01*
G01*
X221218750Y-110606000D01*
G75*
G02*
X220949500Y-110336750I0J269250D01*
G01*
G37*
G36*
G01*
X214222750Y-118618500D02*
X213259250Y-118618500D01*
G75*
G02*
X212990000Y-118349250I0J269250D01*
G01*
X212990000Y-117810750D01*
G75*
G02*
X213259250Y-117541500I269250J0D01*
G01*
X214222750Y-117541500D01*
G75*
G02*
X214492000Y-117810750I0J-269250D01*
G01*
X214492000Y-118349250D01*
G75*
G02*
X214222750Y-118618500I-269250J0D01*
G01*
G37*
G36*
G01*
X214222750Y-116743500D02*
X213259250Y-116743500D01*
G75*
G02*
X212990000Y-116474250I0J269250D01*
G01*
X212990000Y-115935750D01*
G75*
G02*
X213259250Y-115666500I269250J0D01*
G01*
X214222750Y-115666500D01*
G75*
G02*
X214492000Y-115935750I0J-269250D01*
G01*
X214492000Y-116474250D01*
G75*
G02*
X214222750Y-116743500I-269250J0D01*
G01*
G37*
G36*
G01*
X196614000Y-118210750D02*
X196614000Y-117247250D01*
G75*
G02*
X196883250Y-116978000I269250J0D01*
G01*
X197421750Y-116978000D01*
G75*
G02*
X197691000Y-117247250I0J-269250D01*
G01*
X197691000Y-118210750D01*
G75*
G02*
X197421750Y-118480000I-269250J0D01*
G01*
X196883250Y-118480000D01*
G75*
G02*
X196614000Y-118210750I0J269250D01*
G01*
G37*
G36*
G01*
X194739000Y-118210750D02*
X194739000Y-117247250D01*
G75*
G02*
X195008250Y-116978000I269250J0D01*
G01*
X195546750Y-116978000D01*
G75*
G02*
X195816000Y-117247250I0J-269250D01*
G01*
X195816000Y-118210750D01*
G75*
G02*
X195546750Y-118480000I-269250J0D01*
G01*
X195008250Y-118480000D01*
G75*
G02*
X194739000Y-118210750I0J269250D01*
G01*
G37*
G36*
G01*
X218409500Y-103478750D02*
X218409500Y-102515250D01*
G75*
G02*
X218678750Y-102246000I269250J0D01*
G01*
X219217250Y-102246000D01*
G75*
G02*
X219486500Y-102515250I0J-269250D01*
G01*
X219486500Y-103478750D01*
G75*
G02*
X219217250Y-103748000I-269250J0D01*
G01*
X218678750Y-103748000D01*
G75*
G02*
X218409500Y-103478750I0J269250D01*
G01*
G37*
G36*
G01*
X216534500Y-103478750D02*
X216534500Y-102515250D01*
G75*
G02*
X216803750Y-102246000I269250J0D01*
G01*
X217342250Y-102246000D01*
G75*
G02*
X217611500Y-102515250I0J-269250D01*
G01*
X217611500Y-103478750D01*
G75*
G02*
X217342250Y-103748000I-269250J0D01*
G01*
X216803750Y-103748000D01*
G75*
G02*
X216534500Y-103478750I0J269250D01*
G01*
G37*
G36*
G01*
X179357000Y-130275750D02*
X179357000Y-129312250D01*
G75*
G02*
X179626250Y-129043000I269250J0D01*
G01*
X180164750Y-129043000D01*
G75*
G02*
X180434000Y-129312250I0J-269250D01*
G01*
X180434000Y-130275750D01*
G75*
G02*
X180164750Y-130545000I-269250J0D01*
G01*
X179626250Y-130545000D01*
G75*
G02*
X179357000Y-130275750I0J269250D01*
G01*
G37*
G36*
G01*
X177482000Y-130275750D02*
X177482000Y-129312250D01*
G75*
G02*
X177751250Y-129043000I269250J0D01*
G01*
X178289750Y-129043000D01*
G75*
G02*
X178559000Y-129312250I0J-269250D01*
G01*
X178559000Y-130275750D01*
G75*
G02*
X178289750Y-130545000I-269250J0D01*
G01*
X177751250Y-130545000D01*
G75*
G02*
X177482000Y-130275750I0J269250D01*
G01*
G37*
G36*
G01*
X177482000Y-128243750D02*
X177482000Y-127280250D01*
G75*
G02*
X177751250Y-127011000I269250J0D01*
G01*
X178289750Y-127011000D01*
G75*
G02*
X178559000Y-127280250I0J-269250D01*
G01*
X178559000Y-128243750D01*
G75*
G02*
X178289750Y-128513000I-269250J0D01*
G01*
X177751250Y-128513000D01*
G75*
G02*
X177482000Y-128243750I0J269250D01*
G01*
G37*
G36*
G01*
X179357000Y-128243750D02*
X179357000Y-127280250D01*
G75*
G02*
X179626250Y-127011000I269250J0D01*
G01*
X180164750Y-127011000D01*
G75*
G02*
X180434000Y-127280250I0J-269250D01*
G01*
X180434000Y-128243750D01*
G75*
G02*
X180164750Y-128513000I-269250J0D01*
G01*
X179626250Y-128513000D01*
G75*
G02*
X179357000Y-128243750I0J269250D01*
G01*
G37*
G36*
G01*
X177482000Y-126211750D02*
X177482000Y-125248250D01*
G75*
G02*
X177751250Y-124979000I269250J0D01*
G01*
X178289750Y-124979000D01*
G75*
G02*
X178559000Y-125248250I0J-269250D01*
G01*
X178559000Y-126211750D01*
G75*
G02*
X178289750Y-126481000I-269250J0D01*
G01*
X177751250Y-126481000D01*
G75*
G02*
X177482000Y-126211750I0J269250D01*
G01*
G37*
G36*
G01*
X179357000Y-126211750D02*
X179357000Y-125248250D01*
G75*
G02*
X179626250Y-124979000I269250J0D01*
G01*
X180164750Y-124979000D01*
G75*
G02*
X180434000Y-125248250I0J-269250D01*
G01*
X180434000Y-126211750D01*
G75*
G02*
X180164750Y-126481000I-269250J0D01*
G01*
X179626250Y-126481000D01*
G75*
G02*
X179357000Y-126211750I0J269250D01*
G01*
G37*
G36*
G01*
X217951000Y-89592000D02*
X217951000Y-87192000D01*
G75*
G02*
X218002000Y-87141000I51000J0D01*
G01*
X220402000Y-87141000D01*
G75*
G02*
X220453000Y-87192000I0J-51000D01*
G01*
X220453000Y-89592000D01*
G75*
G02*
X220402000Y-89643000I-51000J0D01*
G01*
X218002000Y-89643000D01*
G75*
G02*
X217951000Y-89592000I0J51000D01*
G01*
G37*
D10*
X224202000Y-88392000D03*
G36*
G01*
X175447500Y-91339250D02*
X175447500Y-92302750D01*
G75*
G02*
X175178250Y-92572000I-269250J0D01*
G01*
X174639750Y-92572000D01*
G75*
G02*
X174370500Y-92302750I0J269250D01*
G01*
X174370500Y-91339250D01*
G75*
G02*
X174639750Y-91070000I269250J0D01*
G01*
X175178250Y-91070000D01*
G75*
G02*
X175447500Y-91339250I0J-269250D01*
G01*
G37*
G36*
G01*
X177322500Y-91339250D02*
X177322500Y-92302750D01*
G75*
G02*
X177053250Y-92572000I-269250J0D01*
G01*
X176514750Y-92572000D01*
G75*
G02*
X176245500Y-92302750I0J269250D01*
G01*
X176245500Y-91339250D01*
G75*
G02*
X176514750Y-91070000I269250J0D01*
G01*
X177053250Y-91070000D01*
G75*
G02*
X177322500Y-91339250I0J-269250D01*
G01*
G37*
G36*
G01*
X224763750Y-129570500D02*
X223800250Y-129570500D01*
G75*
G02*
X223531000Y-129301250I0J269250D01*
G01*
X223531000Y-128762750D01*
G75*
G02*
X223800250Y-128493500I269250J0D01*
G01*
X224763750Y-128493500D01*
G75*
G02*
X225033000Y-128762750I0J-269250D01*
G01*
X225033000Y-129301250D01*
G75*
G02*
X224763750Y-129570500I-269250J0D01*
G01*
G37*
G36*
G01*
X224763750Y-127695500D02*
X223800250Y-127695500D01*
G75*
G02*
X223531000Y-127426250I0J269250D01*
G01*
X223531000Y-126887750D01*
G75*
G02*
X223800250Y-126618500I269250J0D01*
G01*
X224763750Y-126618500D01*
G75*
G02*
X225033000Y-126887750I0J-269250D01*
G01*
X225033000Y-127426250D01*
G75*
G02*
X224763750Y-127695500I-269250J0D01*
G01*
G37*
G36*
G01*
X211642500Y-106515750D02*
X211642500Y-107479250D01*
G75*
G02*
X211373250Y-107748500I-269250J0D01*
G01*
X210834750Y-107748500D01*
G75*
G02*
X210565500Y-107479250I0J269250D01*
G01*
X210565500Y-106515750D01*
G75*
G02*
X210834750Y-106246500I269250J0D01*
G01*
X211373250Y-106246500D01*
G75*
G02*
X211642500Y-106515750I0J-269250D01*
G01*
G37*
G36*
G01*
X213517500Y-106515750D02*
X213517500Y-107479250D01*
G75*
G02*
X213248250Y-107748500I-269250J0D01*
G01*
X212709750Y-107748500D01*
G75*
G02*
X212440500Y-107479250I0J269250D01*
G01*
X212440500Y-106515750D01*
G75*
G02*
X212709750Y-106246500I269250J0D01*
G01*
X213248250Y-106246500D01*
G75*
G02*
X213517500Y-106515750I0J-269250D01*
G01*
G37*
G36*
G01*
X172111250Y-103504500D02*
X173074750Y-103504500D01*
G75*
G02*
X173344000Y-103773750I0J-269250D01*
G01*
X173344000Y-104312250D01*
G75*
G02*
X173074750Y-104581500I-269250J0D01*
G01*
X172111250Y-104581500D01*
G75*
G02*
X171842000Y-104312250I0J269250D01*
G01*
X171842000Y-103773750D01*
G75*
G02*
X172111250Y-103504500I269250J0D01*
G01*
G37*
G36*
G01*
X172111250Y-105379500D02*
X173074750Y-105379500D01*
G75*
G02*
X173344000Y-105648750I0J-269250D01*
G01*
X173344000Y-106187250D01*
G75*
G02*
X173074750Y-106456500I-269250J0D01*
G01*
X172111250Y-106456500D01*
G75*
G02*
X171842000Y-106187250I0J269250D01*
G01*
X171842000Y-105648750D01*
G75*
G02*
X172111250Y-105379500I269250J0D01*
G01*
G37*
G36*
G01*
X225324250Y-98170500D02*
X226287750Y-98170500D01*
G75*
G02*
X226557000Y-98439750I0J-269250D01*
G01*
X226557000Y-98978250D01*
G75*
G02*
X226287750Y-99247500I-269250J0D01*
G01*
X225324250Y-99247500D01*
G75*
G02*
X225055000Y-98978250I0J269250D01*
G01*
X225055000Y-98439750D01*
G75*
G02*
X225324250Y-98170500I269250J0D01*
G01*
G37*
G36*
G01*
X225324250Y-100045500D02*
X226287750Y-100045500D01*
G75*
G02*
X226557000Y-100314750I0J-269250D01*
G01*
X226557000Y-100853250D01*
G75*
G02*
X226287750Y-101122500I-269250J0D01*
G01*
X225324250Y-101122500D01*
G75*
G02*
X225055000Y-100853250I0J269250D01*
G01*
X225055000Y-100314750D01*
G75*
G02*
X225324250Y-100045500I269250J0D01*
G01*
G37*
G36*
G01*
X183620500Y-89072664D02*
X183620500Y-92029336D01*
G75*
G02*
X183347836Y-92302000I-272664J0D01*
G01*
X182666164Y-92302000D01*
G75*
G02*
X182393500Y-92029336I0J272664D01*
G01*
X182393500Y-89072664D01*
G75*
G02*
X182666164Y-88800000I272664J0D01*
G01*
X183347836Y-88800000D01*
G75*
G02*
X183620500Y-89072664I0J-272664D01*
G01*
G37*
G36*
G01*
X179345500Y-89072664D02*
X179345500Y-92029336D01*
G75*
G02*
X179072836Y-92302000I-272664J0D01*
G01*
X178391164Y-92302000D01*
G75*
G02*
X178118500Y-92029336I0J272664D01*
G01*
X178118500Y-89072664D01*
G75*
G02*
X178391164Y-88800000I272664J0D01*
G01*
X179072836Y-88800000D01*
G75*
G02*
X179345500Y-89072664I0J-272664D01*
G01*
G37*
G36*
G01*
X194094001Y-92857000D02*
X192493999Y-92857000D01*
G75*
G02*
X192443000Y-92806001I0J50999D01*
G01*
X192443000Y-92105999D01*
G75*
G02*
X192493999Y-92055000I50999J0D01*
G01*
X194094001Y-92055000D01*
G75*
G02*
X194145000Y-92105999I0J-50999D01*
G01*
X194145000Y-92806001D01*
G75*
G02*
X194094001Y-92857000I-50999J0D01*
G01*
G37*
G36*
G01*
X193019000Y-91857000D02*
X192619000Y-91857000D01*
G75*
G02*
X192568000Y-91806000I0J51000D01*
G01*
X192568000Y-91206000D01*
G75*
G02*
X192619000Y-91155000I51000J0D01*
G01*
X193019000Y-91155000D01*
G75*
G02*
X193070000Y-91206000I0J-51000D01*
G01*
X193070000Y-91806000D01*
G75*
G02*
X193019000Y-91857000I-51000J0D01*
G01*
G37*
G36*
G01*
X193969000Y-93757000D02*
X193569000Y-93757000D01*
G75*
G02*
X193518000Y-93706000I0J51000D01*
G01*
X193518000Y-93106000D01*
G75*
G02*
X193569000Y-93055000I51000J0D01*
G01*
X193969000Y-93055000D01*
G75*
G02*
X194020000Y-93106000I0J-51000D01*
G01*
X194020000Y-93706000D01*
G75*
G02*
X193969000Y-93757000I-51000J0D01*
G01*
G37*
G36*
G01*
X193019000Y-93757000D02*
X192619000Y-93757000D01*
G75*
G02*
X192568000Y-93706000I0J51000D01*
G01*
X192568000Y-93106000D01*
G75*
G02*
X192619000Y-93055000I51000J0D01*
G01*
X193019000Y-93055000D01*
G75*
G02*
X193070000Y-93106000I0J-51000D01*
G01*
X193070000Y-93706000D01*
G75*
G02*
X193019000Y-93757000I-51000J0D01*
G01*
G37*
G36*
G01*
X193969000Y-91857000D02*
X193569000Y-91857000D01*
G75*
G02*
X193518000Y-91806000I0J51000D01*
G01*
X193518000Y-91206000D01*
G75*
G02*
X193569000Y-91155000I51000J0D01*
G01*
X193969000Y-91155000D01*
G75*
G02*
X194020000Y-91206000I0J-51000D01*
G01*
X194020000Y-91806000D01*
G75*
G02*
X193969000Y-91857000I-51000J0D01*
G01*
G37*
G36*
G01*
X165840000Y-96914000D02*
X167840000Y-96914000D01*
G75*
G02*
X167891000Y-96965000I0J-51000D01*
G01*
X167891000Y-98315000D01*
G75*
G02*
X167840000Y-98366000I-51000J0D01*
G01*
X165840000Y-98366000D01*
G75*
G02*
X165789000Y-98315000I0J51000D01*
G01*
X165789000Y-96965000D01*
G75*
G02*
X165840000Y-96914000I51000J0D01*
G01*
G37*
G36*
G01*
X165840000Y-91434000D02*
X167840000Y-91434000D01*
G75*
G02*
X167891000Y-91485000I0J-51000D01*
G01*
X167891000Y-92835000D01*
G75*
G02*
X167840000Y-92886000I-51000J0D01*
G01*
X165840000Y-92886000D01*
G75*
G02*
X165789000Y-92835000I0J51000D01*
G01*
X165789000Y-91485000D01*
G75*
G02*
X165840000Y-91434000I51000J0D01*
G01*
G37*
G36*
G01*
X167239999Y-90976500D02*
X167940001Y-90976500D01*
G75*
G02*
X167991000Y-91027499I0J-50999D01*
G01*
X167991000Y-92852501D01*
G75*
G02*
X167940001Y-92903500I-50999J0D01*
G01*
X167239999Y-92903500D01*
G75*
G02*
X167189000Y-92852501I0J50999D01*
G01*
X167189000Y-91027499D01*
G75*
G02*
X167239999Y-90976500I50999J0D01*
G01*
G37*
G36*
G01*
X167239999Y-96926500D02*
X167940001Y-96926500D01*
G75*
G02*
X167991000Y-96977499I0J-50999D01*
G01*
X167991000Y-98802501D01*
G75*
G02*
X167940001Y-98853500I-50999J0D01*
G01*
X167239999Y-98853500D01*
G75*
G02*
X167189000Y-98802501I0J50999D01*
G01*
X167189000Y-96977499D01*
G75*
G02*
X167239999Y-96926500I50999J0D01*
G01*
G37*
G36*
G01*
X168140000Y-90989000D02*
X169640000Y-90989000D01*
G75*
G02*
X169691000Y-91040000I0J-51000D01*
G01*
X169691000Y-93040000D01*
G75*
G02*
X169640000Y-93091000I-51000J0D01*
G01*
X168140000Y-93091000D01*
G75*
G02*
X168089000Y-93040000I0J51000D01*
G01*
X168089000Y-91040000D01*
G75*
G02*
X168140000Y-90989000I51000J0D01*
G01*
G37*
G36*
G01*
X168160000Y-96739000D02*
X169660000Y-96739000D01*
G75*
G02*
X169711000Y-96790000I0J-51000D01*
G01*
X169711000Y-98790000D01*
G75*
G02*
X169660000Y-98841000I-51000J0D01*
G01*
X168160000Y-98841000D01*
G75*
G02*
X168109000Y-98790000I0J51000D01*
G01*
X168109000Y-96790000D01*
G75*
G02*
X168160000Y-96739000I51000J0D01*
G01*
G37*
G36*
G01*
X167914000Y-93790000D02*
X167914000Y-93390000D01*
G75*
G02*
X167965000Y-93339000I51000J0D01*
G01*
X169615000Y-93339000D01*
G75*
G02*
X169666000Y-93390000I0J-51000D01*
G01*
X169666000Y-93790000D01*
G75*
G02*
X169615000Y-93841000I-51000J0D01*
G01*
X167965000Y-93841000D01*
G75*
G02*
X167914000Y-93790000I0J51000D01*
G01*
G37*
G36*
G01*
X167914000Y-94440000D02*
X167914000Y-94040000D01*
G75*
G02*
X167965000Y-93989000I51000J0D01*
G01*
X169615000Y-93989000D01*
G75*
G02*
X169666000Y-94040000I0J-51000D01*
G01*
X169666000Y-94440000D01*
G75*
G02*
X169615000Y-94491000I-51000J0D01*
G01*
X167965000Y-94491000D01*
G75*
G02*
X167914000Y-94440000I0J51000D01*
G01*
G37*
G36*
G01*
X167914000Y-95090000D02*
X167914000Y-94690000D01*
G75*
G02*
X167965000Y-94639000I51000J0D01*
G01*
X169615000Y-94639000D01*
G75*
G02*
X169666000Y-94690000I0J-51000D01*
G01*
X169666000Y-95090000D01*
G75*
G02*
X169615000Y-95141000I-51000J0D01*
G01*
X167965000Y-95141000D01*
G75*
G02*
X167914000Y-95090000I0J51000D01*
G01*
G37*
G36*
G01*
X167914000Y-95740000D02*
X167914000Y-95340000D01*
G75*
G02*
X167965000Y-95289000I51000J0D01*
G01*
X169615000Y-95289000D01*
G75*
G02*
X169666000Y-95340000I0J-51000D01*
G01*
X169666000Y-95740000D01*
G75*
G02*
X169615000Y-95791000I-51000J0D01*
G01*
X167965000Y-95791000D01*
G75*
G02*
X167914000Y-95740000I0J51000D01*
G01*
G37*
G36*
G01*
X167914000Y-96390000D02*
X167914000Y-95990000D01*
G75*
G02*
X167965000Y-95939000I51000J0D01*
G01*
X169615000Y-95939000D01*
G75*
G02*
X169666000Y-95990000I0J-51000D01*
G01*
X169666000Y-96390000D01*
G75*
G02*
X169615000Y-96441000I-51000J0D01*
G01*
X167965000Y-96441000D01*
G75*
G02*
X167914000Y-96390000I0J51000D01*
G01*
G37*
D11*
X168910000Y-92470000D03*
X168910000Y-97310000D03*
D12*
X165910000Y-92160000D03*
X165910000Y-97620000D03*
G36*
G01*
X164339000Y-94645000D02*
X164339000Y-93215000D01*
G75*
G02*
X164390000Y-93164000I51000J0D01*
G01*
X166890000Y-93164000D01*
G75*
G02*
X166941000Y-93215000I0J-51000D01*
G01*
X166941000Y-94645000D01*
G75*
G02*
X166890000Y-94696000I-51000J0D01*
G01*
X164390000Y-94696000D01*
G75*
G02*
X164339000Y-94645000I0J51000D01*
G01*
G37*
G36*
G01*
X164339000Y-96565000D02*
X164339000Y-95135000D01*
G75*
G02*
X164390000Y-95084000I51000J0D01*
G01*
X166890000Y-95084000D01*
G75*
G02*
X166941000Y-95135000I0J-51000D01*
G01*
X166941000Y-96565000D01*
G75*
G02*
X166890000Y-96616000I-51000J0D01*
G01*
X164390000Y-96616000D01*
G75*
G02*
X164339000Y-96565000I0J51000D01*
G01*
G37*
G36*
G01*
X174867000Y-85940000D02*
X174867000Y-84240000D01*
G75*
G02*
X174918000Y-84189000I51000J0D01*
G01*
X176618000Y-84189000D01*
G75*
G02*
X176669000Y-84240000I0J-51000D01*
G01*
X176669000Y-85940000D01*
G75*
G02*
X176618000Y-85991000I-51000J0D01*
G01*
X174918000Y-85991000D01*
G75*
G02*
X174867000Y-85940000I0J51000D01*
G01*
G37*
D13*
X175768000Y-82550000D03*
X179451000Y-82677000D03*
G36*
G01*
X178550000Y-86067000D02*
X178550000Y-84367000D01*
G75*
G02*
X178601000Y-84316000I51000J0D01*
G01*
X180301000Y-84316000D01*
G75*
G02*
X180352000Y-84367000I0J-51000D01*
G01*
X180352000Y-86067000D01*
G75*
G02*
X180301000Y-86118000I-51000J0D01*
G01*
X178601000Y-86118000D01*
G75*
G02*
X178550000Y-86067000I0J51000D01*
G01*
G37*
X225044000Y-117094000D03*
X225044000Y-114554000D03*
X225044000Y-112014000D03*
X225044000Y-109474000D03*
X225044000Y-106934000D03*
G36*
G01*
X224143000Y-105244000D02*
X224143000Y-103544000D01*
G75*
G02*
X224194000Y-103493000I51000J0D01*
G01*
X225894000Y-103493000D01*
G75*
G02*
X225945000Y-103544000I0J-51000D01*
G01*
X225945000Y-105244000D01*
G75*
G02*
X225894000Y-105295000I-51000J0D01*
G01*
X224194000Y-105295000D01*
G75*
G02*
X224143000Y-105244000I0J51000D01*
G01*
G37*
G36*
G01*
X195619000Y-106033000D02*
X197319000Y-106033000D01*
G75*
G02*
X197370000Y-106084000I0J-51000D01*
G01*
X197370000Y-107784000D01*
G75*
G02*
X197319000Y-107835000I-51000J0D01*
G01*
X195619000Y-107835000D01*
G75*
G02*
X195568000Y-107784000I0J51000D01*
G01*
X195568000Y-106084000D01*
G75*
G02*
X195619000Y-106033000I51000J0D01*
G01*
G37*
X196469000Y-109474000D03*
X193929000Y-106934000D03*
X193929000Y-109474000D03*
X191389000Y-106934000D03*
X191389000Y-109474000D03*
X188849000Y-106934000D03*
X188849000Y-109474000D03*
X186309000Y-106934000D03*
X186309000Y-109474000D03*
X219202000Y-124587000D03*
X216662000Y-124587000D03*
X219202000Y-122047000D03*
X216662000Y-122047000D03*
X219202000Y-119507000D03*
X216662000Y-119507000D03*
X219202000Y-116967000D03*
X216662000Y-116967000D03*
X219202000Y-114427000D03*
G36*
G01*
X215761000Y-115277000D02*
X215761000Y-113577000D01*
G75*
G02*
X215812000Y-113526000I51000J0D01*
G01*
X217512000Y-113526000D01*
G75*
G02*
X217563000Y-113577000I0J-51000D01*
G01*
X217563000Y-115277000D01*
G75*
G02*
X217512000Y-115328000I-51000J0D01*
G01*
X215812000Y-115328000D01*
G75*
G02*
X215761000Y-115277000I0J51000D01*
G01*
G37*
G36*
G01*
X176872000Y-142379000D02*
X175172000Y-142379000D01*
G75*
G02*
X175121000Y-142328000I0J51000D01*
G01*
X175121000Y-140628000D01*
G75*
G02*
X175172000Y-140577000I51000J0D01*
G01*
X176872000Y-140577000D01*
G75*
G02*
X176923000Y-140628000I0J-51000D01*
G01*
X176923000Y-142328000D01*
G75*
G02*
X176872000Y-142379000I-51000J0D01*
G01*
G37*
X178562000Y-141478000D03*
G36*
G01*
X174332000Y-139712000D02*
X172632000Y-139712000D01*
G75*
G02*
X172581000Y-139661000I0J51000D01*
G01*
X172581000Y-137961000D01*
G75*
G02*
X172632000Y-137910000I51000J0D01*
G01*
X174332000Y-137910000D01*
G75*
G02*
X174383000Y-137961000I0J-51000D01*
G01*
X174383000Y-139661000D01*
G75*
G02*
X174332000Y-139712000I-51000J0D01*
G01*
G37*
X176022000Y-138811000D03*
X178562000Y-138811000D03*
X181102000Y-138811000D03*
X183642000Y-138811000D03*
X186182000Y-138811000D03*
G36*
G01*
X185408000Y-121373000D02*
X185408000Y-119673000D01*
G75*
G02*
X185459000Y-119622000I51000J0D01*
G01*
X187159000Y-119622000D01*
G75*
G02*
X187210000Y-119673000I0J-51000D01*
G01*
X187210000Y-121373000D01*
G75*
G02*
X187159000Y-121424000I-51000J0D01*
G01*
X185459000Y-121424000D01*
G75*
G02*
X185408000Y-121373000I0J51000D01*
G01*
G37*
X188849000Y-120523000D03*
X186309000Y-123063000D03*
X188849000Y-123063000D03*
X186309000Y-125603000D03*
X188849000Y-125603000D03*
X186309000Y-128143000D03*
X188849000Y-128143000D03*
X212217000Y-81280000D03*
X209677000Y-81280000D03*
X207137000Y-81280000D03*
X204597000Y-81280000D03*
X202057000Y-81280000D03*
X199517000Y-81280000D03*
X196977000Y-81280000D03*
X194437000Y-81280000D03*
X191897000Y-81280000D03*
X189357000Y-81280000D03*
X186817000Y-81280000D03*
G36*
G01*
X183427000Y-80379000D02*
X185127000Y-80379000D01*
G75*
G02*
X185178000Y-80430000I0J-51000D01*
G01*
X185178000Y-82130000D01*
G75*
G02*
X185127000Y-82181000I-51000J0D01*
G01*
X183427000Y-82181000D01*
G75*
G02*
X183376000Y-82130000I0J51000D01*
G01*
X183376000Y-80430000D01*
G75*
G02*
X183427000Y-80379000I51000J0D01*
G01*
G37*
G36*
G01*
X230263000Y-98337000D02*
X230263000Y-100037000D01*
G75*
G02*
X230212000Y-100088000I-51000J0D01*
G01*
X228512000Y-100088000D01*
G75*
G02*
X228461000Y-100037000I0J51000D01*
G01*
X228461000Y-98337000D01*
G75*
G02*
X228512000Y-98286000I51000J0D01*
G01*
X230212000Y-98286000D01*
G75*
G02*
X230263000Y-98337000I0J-51000D01*
G01*
G37*
X229362000Y-101727000D03*
X229362000Y-104267000D03*
X229362000Y-106807000D03*
X229362000Y-109347000D03*
X229362000Y-111887000D03*
X229362000Y-114427000D03*
X229362000Y-116967000D03*
X229362000Y-119507000D03*
X229362000Y-122047000D03*
X229362000Y-124587000D03*
X229362000Y-127127000D03*
G36*
G01*
X224751000Y-144665000D02*
X223051000Y-144665000D01*
G75*
G02*
X223000000Y-144614000I0J51000D01*
G01*
X223000000Y-142914000D01*
G75*
G02*
X223051000Y-142863000I51000J0D01*
G01*
X224751000Y-142863000D01*
G75*
G02*
X224802000Y-142914000I0J-51000D01*
G01*
X224802000Y-144614000D01*
G75*
G02*
X224751000Y-144665000I-51000J0D01*
G01*
G37*
X221361000Y-143764000D03*
X218821000Y-143764000D03*
X216281000Y-143764000D03*
X213741000Y-143764000D03*
X211201000Y-143764000D03*
X208661000Y-143764000D03*
X206121000Y-143764000D03*
X203581000Y-143764000D03*
X201041000Y-143764000D03*
X198501000Y-143764000D03*
X195961000Y-143764000D03*
G36*
G01*
X183782500Y-100840000D02*
X183782500Y-103630000D01*
G75*
G02*
X183731500Y-103681000I-51000J0D01*
G01*
X181828500Y-103681000D01*
G75*
G02*
X181777500Y-103630000I0J51000D01*
G01*
X181777500Y-100840000D01*
G75*
G02*
X181828500Y-100789000I51000J0D01*
G01*
X183731500Y-100789000D01*
G75*
G02*
X183782500Y-100840000I0J-51000D01*
G01*
G37*
G36*
G01*
X178929500Y-100840000D02*
X178929500Y-103630000D01*
G75*
G02*
X178878500Y-103681000I-51000J0D01*
G01*
X176975500Y-103681000D01*
G75*
G02*
X176924500Y-103630000I0J51000D01*
G01*
X176924500Y-100840000D01*
G75*
G02*
X176975500Y-100789000I51000J0D01*
G01*
X178878500Y-100789000D01*
G75*
G02*
X178929500Y-100840000I0J-51000D01*
G01*
G37*
G36*
G01*
X195556894Y-111831500D02*
X196873106Y-111831500D01*
G75*
G02*
X197141000Y-112099394I0J-267894D01*
G01*
X197141000Y-113090606D01*
G75*
G02*
X196873106Y-113358500I-267894J0D01*
G01*
X195556894Y-113358500D01*
G75*
G02*
X195289000Y-113090606I0J267894D01*
G01*
X195289000Y-112099394D01*
G75*
G02*
X195556894Y-111831500I267894J0D01*
G01*
G37*
G36*
G01*
X195556894Y-114806500D02*
X196873106Y-114806500D01*
G75*
G02*
X197141000Y-115074394I0J-267894D01*
G01*
X197141000Y-116065606D01*
G75*
G02*
X196873106Y-116333500I-267894J0D01*
G01*
X195556894Y-116333500D01*
G75*
G02*
X195289000Y-116065606I0J267894D01*
G01*
X195289000Y-115074394D01*
G75*
G02*
X195556894Y-114806500I267894J0D01*
G01*
G37*
G36*
G01*
X176229000Y-88417000D02*
X175429000Y-88417000D01*
G75*
G02*
X175378000Y-88366000I0J51000D01*
G01*
X175378000Y-87466000D01*
G75*
G02*
X175429000Y-87415000I51000J0D01*
G01*
X176229000Y-87415000D01*
G75*
G02*
X176280000Y-87466000I0J-51000D01*
G01*
X176280000Y-88366000D01*
G75*
G02*
X176229000Y-88417000I-51000J0D01*
G01*
G37*
G36*
G01*
X177179000Y-90417000D02*
X176379000Y-90417000D01*
G75*
G02*
X176328000Y-90366000I0J51000D01*
G01*
X176328000Y-89466000D01*
G75*
G02*
X176379000Y-89415000I51000J0D01*
G01*
X177179000Y-89415000D01*
G75*
G02*
X177230000Y-89466000I0J-51000D01*
G01*
X177230000Y-90366000D01*
G75*
G02*
X177179000Y-90417000I-51000J0D01*
G01*
G37*
G36*
G01*
X175279000Y-90417000D02*
X174479000Y-90417000D01*
G75*
G02*
X174428000Y-90366000I0J51000D01*
G01*
X174428000Y-89466000D01*
G75*
G02*
X174479000Y-89415000I51000J0D01*
G01*
X175279000Y-89415000D01*
G75*
G02*
X175330000Y-89466000I0J-51000D01*
G01*
X175330000Y-90366000D01*
G75*
G02*
X175279000Y-90417000I-51000J0D01*
G01*
G37*
G36*
G01*
X172312750Y-92643500D02*
X171349250Y-92643500D01*
G75*
G02*
X171080000Y-92374250I0J269250D01*
G01*
X171080000Y-91835750D01*
G75*
G02*
X171349250Y-91566500I269250J0D01*
G01*
X172312750Y-91566500D01*
G75*
G02*
X172582000Y-91835750I0J-269250D01*
G01*
X172582000Y-92374250D01*
G75*
G02*
X172312750Y-92643500I-269250J0D01*
G01*
G37*
G36*
G01*
X172312750Y-94518500D02*
X171349250Y-94518500D01*
G75*
G02*
X171080000Y-94249250I0J269250D01*
G01*
X171080000Y-93710750D01*
G75*
G02*
X171349250Y-93441500I269250J0D01*
G01*
X172312750Y-93441500D01*
G75*
G02*
X172582000Y-93710750I0J-269250D01*
G01*
X172582000Y-94249250D01*
G75*
G02*
X172312750Y-94518500I-269250J0D01*
G01*
G37*
G36*
G01*
X172312750Y-98044500D02*
X171349250Y-98044500D01*
G75*
G02*
X171080000Y-97775250I0J269250D01*
G01*
X171080000Y-97236750D01*
G75*
G02*
X171349250Y-96967500I269250J0D01*
G01*
X172312750Y-96967500D01*
G75*
G02*
X172582000Y-97236750I0J-269250D01*
G01*
X172582000Y-97775250D01*
G75*
G02*
X172312750Y-98044500I-269250J0D01*
G01*
G37*
G36*
G01*
X172312750Y-96169500D02*
X171349250Y-96169500D01*
G75*
G02*
X171080000Y-95900250I0J269250D01*
G01*
X171080000Y-95361750D01*
G75*
G02*
X171349250Y-95092500I269250J0D01*
G01*
X172312750Y-95092500D01*
G75*
G02*
X172582000Y-95361750I0J-269250D01*
G01*
X172582000Y-95900250D01*
G75*
G02*
X172312750Y-96169500I-269250J0D01*
G01*
G37*
G36*
G01*
X182906250Y-97886500D02*
X183869750Y-97886500D01*
G75*
G02*
X184139000Y-98155750I0J-269250D01*
G01*
X184139000Y-98694250D01*
G75*
G02*
X183869750Y-98963500I-269250J0D01*
G01*
X182906250Y-98963500D01*
G75*
G02*
X182637000Y-98694250I0J269250D01*
G01*
X182637000Y-98155750D01*
G75*
G02*
X182906250Y-97886500I269250J0D01*
G01*
G37*
G36*
G01*
X182906250Y-96011500D02*
X183869750Y-96011500D01*
G75*
G02*
X184139000Y-96280750I0J-269250D01*
G01*
X184139000Y-96819250D01*
G75*
G02*
X183869750Y-97088500I-269250J0D01*
G01*
X182906250Y-97088500D01*
G75*
G02*
X182637000Y-96819250I0J269250D01*
G01*
X182637000Y-96280750D01*
G75*
G02*
X182906250Y-96011500I269250J0D01*
G01*
G37*
G36*
G01*
X202183500Y-85317750D02*
X202183500Y-84354250D01*
G75*
G02*
X202452750Y-84085000I269250J0D01*
G01*
X202991250Y-84085000D01*
G75*
G02*
X203260500Y-84354250I0J-269250D01*
G01*
X203260500Y-85317750D01*
G75*
G02*
X202991250Y-85587000I-269250J0D01*
G01*
X202452750Y-85587000D01*
G75*
G02*
X202183500Y-85317750I0J269250D01*
G01*
G37*
G36*
G01*
X204058500Y-85317750D02*
X204058500Y-84354250D01*
G75*
G02*
X204327750Y-84085000I269250J0D01*
G01*
X204866250Y-84085000D01*
G75*
G02*
X205135500Y-84354250I0J-269250D01*
G01*
X205135500Y-85317750D01*
G75*
G02*
X204866250Y-85587000I-269250J0D01*
G01*
X204327750Y-85587000D01*
G75*
G02*
X204058500Y-85317750I0J269250D01*
G01*
G37*
G36*
G01*
X208023000Y-106515750D02*
X208023000Y-107479250D01*
G75*
G02*
X207753750Y-107748500I-269250J0D01*
G01*
X207215250Y-107748500D01*
G75*
G02*
X206946000Y-107479250I0J269250D01*
G01*
X206946000Y-106515750D01*
G75*
G02*
X207215250Y-106246500I269250J0D01*
G01*
X207753750Y-106246500D01*
G75*
G02*
X208023000Y-106515750I0J-269250D01*
G01*
G37*
G36*
G01*
X209898000Y-106515750D02*
X209898000Y-107479250D01*
G75*
G02*
X209628750Y-107748500I-269250J0D01*
G01*
X209090250Y-107748500D01*
G75*
G02*
X208821000Y-107479250I0J269250D01*
G01*
X208821000Y-106515750D01*
G75*
G02*
X209090250Y-106246500I269250J0D01*
G01*
X209628750Y-106246500D01*
G75*
G02*
X209898000Y-106515750I0J-269250D01*
G01*
G37*
G36*
G01*
X207627000Y-84354250D02*
X207627000Y-85317750D01*
G75*
G02*
X207357750Y-85587000I-269250J0D01*
G01*
X206819250Y-85587000D01*
G75*
G02*
X206550000Y-85317750I0J269250D01*
G01*
X206550000Y-84354250D01*
G75*
G02*
X206819250Y-84085000I269250J0D01*
G01*
X207357750Y-84085000D01*
G75*
G02*
X207627000Y-84354250I0J-269250D01*
G01*
G37*
G36*
G01*
X209502000Y-84354250D02*
X209502000Y-85317750D01*
G75*
G02*
X209232750Y-85587000I-269250J0D01*
G01*
X208694250Y-85587000D01*
G75*
G02*
X208425000Y-85317750I0J269250D01*
G01*
X208425000Y-84354250D01*
G75*
G02*
X208694250Y-84085000I269250J0D01*
G01*
X209232750Y-84085000D01*
G75*
G02*
X209502000Y-84354250I0J-269250D01*
G01*
G37*
G36*
G01*
X172111250Y-107060500D02*
X173074750Y-107060500D01*
G75*
G02*
X173344000Y-107329750I0J-269250D01*
G01*
X173344000Y-107868250D01*
G75*
G02*
X173074750Y-108137500I-269250J0D01*
G01*
X172111250Y-108137500D01*
G75*
G02*
X171842000Y-107868250I0J269250D01*
G01*
X171842000Y-107329750D01*
G75*
G02*
X172111250Y-107060500I269250J0D01*
G01*
G37*
G36*
G01*
X172111250Y-108935500D02*
X173074750Y-108935500D01*
G75*
G02*
X173344000Y-109204750I0J-269250D01*
G01*
X173344000Y-109743250D01*
G75*
G02*
X173074750Y-110012500I-269250J0D01*
G01*
X172111250Y-110012500D01*
G75*
G02*
X171842000Y-109743250I0J269250D01*
G01*
X171842000Y-109204750D01*
G75*
G02*
X172111250Y-108935500I269250J0D01*
G01*
G37*
G36*
G01*
X179444000Y-98782000D02*
X179204000Y-98782000D01*
G75*
G02*
X179153000Y-98731000I0J51000D01*
G01*
X179153000Y-98131000D01*
G75*
G02*
X179204000Y-98080000I51000J0D01*
G01*
X179444000Y-98080000D01*
G75*
G02*
X179495000Y-98131000I0J-51000D01*
G01*
X179495000Y-98731000D01*
G75*
G02*
X179444000Y-98782000I-51000J0D01*
G01*
G37*
G36*
G01*
X179944000Y-98782000D02*
X179704000Y-98782000D01*
G75*
G02*
X179653000Y-98731000I0J51000D01*
G01*
X179653000Y-98131000D01*
G75*
G02*
X179704000Y-98080000I51000J0D01*
G01*
X179944000Y-98080000D01*
G75*
G02*
X179995000Y-98131000I0J-51000D01*
G01*
X179995000Y-98731000D01*
G75*
G02*
X179944000Y-98782000I-51000J0D01*
G01*
G37*
G36*
G01*
X180444000Y-98782000D02*
X180204000Y-98782000D01*
G75*
G02*
X180153000Y-98731000I0J51000D01*
G01*
X180153000Y-98131000D01*
G75*
G02*
X180204000Y-98080000I51000J0D01*
G01*
X180444000Y-98080000D01*
G75*
G02*
X180495000Y-98131000I0J-51000D01*
G01*
X180495000Y-98731000D01*
G75*
G02*
X180444000Y-98782000I-51000J0D01*
G01*
G37*
G36*
G01*
X180944000Y-98782000D02*
X180704000Y-98782000D01*
G75*
G02*
X180653000Y-98731000I0J51000D01*
G01*
X180653000Y-98131000D01*
G75*
G02*
X180704000Y-98080000I51000J0D01*
G01*
X180944000Y-98080000D01*
G75*
G02*
X180995000Y-98131000I0J-51000D01*
G01*
X180995000Y-98731000D01*
G75*
G02*
X180944000Y-98782000I-51000J0D01*
G01*
G37*
G36*
G01*
X181444000Y-98782000D02*
X181204000Y-98782000D01*
G75*
G02*
X181153000Y-98731000I0J51000D01*
G01*
X181153000Y-98131000D01*
G75*
G02*
X181204000Y-98080000I51000J0D01*
G01*
X181444000Y-98080000D01*
G75*
G02*
X181495000Y-98131000I0J-51000D01*
G01*
X181495000Y-98731000D01*
G75*
G02*
X181444000Y-98782000I-51000J0D01*
G01*
G37*
G36*
G01*
X181444000Y-95982000D02*
X181204000Y-95982000D01*
G75*
G02*
X181153000Y-95931000I0J51000D01*
G01*
X181153000Y-95331000D01*
G75*
G02*
X181204000Y-95280000I51000J0D01*
G01*
X181444000Y-95280000D01*
G75*
G02*
X181495000Y-95331000I0J-51000D01*
G01*
X181495000Y-95931000D01*
G75*
G02*
X181444000Y-95982000I-51000J0D01*
G01*
G37*
G36*
G01*
X180944000Y-95982000D02*
X180704000Y-95982000D01*
G75*
G02*
X180653000Y-95931000I0J51000D01*
G01*
X180653000Y-95331000D01*
G75*
G02*
X180704000Y-95280000I51000J0D01*
G01*
X180944000Y-95280000D01*
G75*
G02*
X180995000Y-95331000I0J-51000D01*
G01*
X180995000Y-95931000D01*
G75*
G02*
X180944000Y-95982000I-51000J0D01*
G01*
G37*
G36*
G01*
X180444000Y-95982000D02*
X180204000Y-95982000D01*
G75*
G02*
X180153000Y-95931000I0J51000D01*
G01*
X180153000Y-95331000D01*
G75*
G02*
X180204000Y-95280000I51000J0D01*
G01*
X180444000Y-95280000D01*
G75*
G02*
X180495000Y-95331000I0J-51000D01*
G01*
X180495000Y-95931000D01*
G75*
G02*
X180444000Y-95982000I-51000J0D01*
G01*
G37*
G36*
G01*
X179944000Y-95982000D02*
X179704000Y-95982000D01*
G75*
G02*
X179653000Y-95931000I0J51000D01*
G01*
X179653000Y-95331000D01*
G75*
G02*
X179704000Y-95280000I51000J0D01*
G01*
X179944000Y-95280000D01*
G75*
G02*
X179995000Y-95331000I0J-51000D01*
G01*
X179995000Y-95931000D01*
G75*
G02*
X179944000Y-95982000I-51000J0D01*
G01*
G37*
G36*
G01*
X179444000Y-95982000D02*
X179204000Y-95982000D01*
G75*
G02*
X179153000Y-95931000I0J51000D01*
G01*
X179153000Y-95331000D01*
G75*
G02*
X179204000Y-95280000I51000J0D01*
G01*
X179444000Y-95280000D01*
G75*
G02*
X179495000Y-95331000I0J-51000D01*
G01*
X179495000Y-95931000D01*
G75*
G02*
X179444000Y-95982000I-51000J0D01*
G01*
G37*
D14*
G36*
X178573980Y-97146050D02*
G01*
X178576882Y-97136483D01*
X178581595Y-97127666D01*
X178587938Y-97119938D01*
X178595666Y-97113595D01*
X178604483Y-97108882D01*
X178614050Y-97105980D01*
X178624000Y-97105000D01*
X179073000Y-97105000D01*
X179073000Y-96957000D01*
X178624000Y-96957000D01*
X178614050Y-96956020D01*
X178604483Y-96953118D01*
X178595666Y-96948405D01*
X178587938Y-96942062D01*
X178581595Y-96934334D01*
X178576882Y-96925517D01*
X178573980Y-96915950D01*
X178573000Y-96906000D01*
X178573000Y-96656000D01*
X178573980Y-96646050D01*
X178576882Y-96636483D01*
X178581595Y-96627666D01*
X178587938Y-96619938D01*
X178595666Y-96613595D01*
X178604483Y-96608882D01*
X178614050Y-96605980D01*
X178624000Y-96605000D01*
X179073000Y-96605000D01*
X179073000Y-96206000D01*
X179073980Y-96196050D01*
X179076882Y-96186483D01*
X179081595Y-96177666D01*
X179087938Y-96169938D01*
X179095666Y-96163595D01*
X179104483Y-96158882D01*
X179114050Y-96155980D01*
X179124000Y-96155000D01*
X181524000Y-96155000D01*
X181533950Y-96155980D01*
X181543517Y-96158882D01*
X181552334Y-96163595D01*
X181560062Y-96169938D01*
X181566405Y-96177666D01*
X181571118Y-96186483D01*
X181574020Y-96196050D01*
X181575000Y-96206000D01*
X181575000Y-96605000D01*
X182024000Y-96605000D01*
X182033950Y-96605980D01*
X182043517Y-96608882D01*
X182052334Y-96613595D01*
X182060062Y-96619938D01*
X182066405Y-96627666D01*
X182071118Y-96636483D01*
X182074020Y-96646050D01*
X182075000Y-96656000D01*
X182075000Y-96906000D01*
X182074020Y-96915950D01*
X182071118Y-96925517D01*
X182066405Y-96934334D01*
X182060062Y-96942062D01*
X182052334Y-96948405D01*
X182043517Y-96953118D01*
X182033950Y-96956020D01*
X182024000Y-96957000D01*
X181575000Y-96957000D01*
X181575000Y-97105000D01*
X182024000Y-97105000D01*
X182033950Y-97105980D01*
X182043517Y-97108882D01*
X182052334Y-97113595D01*
X182060062Y-97119938D01*
X182066405Y-97127666D01*
X182071118Y-97136483D01*
X182074020Y-97146050D01*
X182075000Y-97156000D01*
X182075000Y-97406000D01*
X182074020Y-97415950D01*
X182071118Y-97425517D01*
X182066405Y-97434334D01*
X182060062Y-97442062D01*
X182052334Y-97448405D01*
X182043517Y-97453118D01*
X182033950Y-97456020D01*
X182024000Y-97457000D01*
X181575000Y-97457000D01*
X181575000Y-97856000D01*
X181574020Y-97865950D01*
X181571118Y-97875517D01*
X181566405Y-97884334D01*
X181560062Y-97892062D01*
X181552334Y-97898405D01*
X181543517Y-97903118D01*
X181533950Y-97906020D01*
X181524000Y-97907000D01*
X179124000Y-97907000D01*
X179114050Y-97906020D01*
X179104483Y-97903118D01*
X179095666Y-97898405D01*
X179087938Y-97892062D01*
X179081595Y-97884334D01*
X179076882Y-97875517D01*
X179073980Y-97865950D01*
X179073000Y-97856000D01*
X179073000Y-97457000D01*
X178624000Y-97457000D01*
X178614050Y-97456020D01*
X178604483Y-97453118D01*
X178595666Y-97448405D01*
X178587938Y-97442062D01*
X178581595Y-97434334D01*
X178576882Y-97425517D01*
X178573980Y-97415950D01*
X178573000Y-97406000D01*
X178573000Y-97156000D01*
X178573980Y-97146050D01*
G37*
G36*
X203084125Y-93990000D02*
G01*
X202682125Y-94392000D01*
X201939875Y-94392000D01*
X201537875Y-93990000D01*
X203084125Y-93990000D01*
G37*
G36*
G01*
X202712000Y-94041000D02*
X202712000Y-94341000D01*
G75*
G02*
X202661000Y-94392000I-51000J0D01*
G01*
X201661000Y-94392000D01*
G75*
G02*
X201610000Y-94341000I0J51000D01*
G01*
X201610000Y-94041000D01*
G75*
G02*
X201661000Y-93990000I51000J0D01*
G01*
X202661000Y-93990000D01*
G75*
G02*
X202712000Y-94041000I0J-51000D01*
G01*
G37*
G36*
G01*
X203012000Y-91841000D02*
X203012000Y-94041000D01*
G75*
G02*
X202961000Y-94092000I-51000J0D01*
G01*
X201661000Y-94092000D01*
G75*
G02*
X201610000Y-94041000I0J51000D01*
G01*
X201610000Y-91841000D01*
G75*
G02*
X201661000Y-91790000I51000J0D01*
G01*
X202961000Y-91790000D01*
G75*
G02*
X203012000Y-91841000I0J-51000D01*
G01*
G37*
G36*
G01*
X201612000Y-91691000D02*
X201612000Y-92091000D01*
G75*
G02*
X201561000Y-92142000I-51000J0D01*
G01*
X200961000Y-92142000D01*
G75*
G02*
X200910000Y-92091000I0J51000D01*
G01*
X200910000Y-91691000D01*
G75*
G02*
X200961000Y-91640000I51000J0D01*
G01*
X201561000Y-91640000D01*
G75*
G02*
X201612000Y-91691000I0J-51000D01*
G01*
G37*
G36*
G01*
X201612000Y-92291000D02*
X201612000Y-92691000D01*
G75*
G02*
X201561000Y-92742000I-51000J0D01*
G01*
X200961000Y-92742000D01*
G75*
G02*
X200910000Y-92691000I0J51000D01*
G01*
X200910000Y-92291000D01*
G75*
G02*
X200961000Y-92240000I51000J0D01*
G01*
X201561000Y-92240000D01*
G75*
G02*
X201612000Y-92291000I0J-51000D01*
G01*
G37*
G36*
G01*
X201612000Y-94091000D02*
X201612000Y-94491000D01*
G75*
G02*
X201561000Y-94542000I-51000J0D01*
G01*
X200961000Y-94542000D01*
G75*
G02*
X200910000Y-94491000I0J51000D01*
G01*
X200910000Y-94091000D01*
G75*
G02*
X200961000Y-94040000I51000J0D01*
G01*
X201561000Y-94040000D01*
G75*
G02*
X201612000Y-94091000I0J-51000D01*
G01*
G37*
G36*
G01*
X201612000Y-93491000D02*
X201612000Y-93891000D01*
G75*
G02*
X201561000Y-93942000I-51000J0D01*
G01*
X200961000Y-93942000D01*
G75*
G02*
X200910000Y-93891000I0J51000D01*
G01*
X200910000Y-93491000D01*
G75*
G02*
X200961000Y-93440000I51000J0D01*
G01*
X201561000Y-93440000D01*
G75*
G02*
X201612000Y-93491000I0J-51000D01*
G01*
G37*
G36*
G01*
X203712000Y-91691000D02*
X203712000Y-92091000D01*
G75*
G02*
X203661000Y-92142000I-51000J0D01*
G01*
X203061000Y-92142000D01*
G75*
G02*
X203010000Y-92091000I0J51000D01*
G01*
X203010000Y-91691000D01*
G75*
G02*
X203061000Y-91640000I51000J0D01*
G01*
X203661000Y-91640000D01*
G75*
G02*
X203712000Y-91691000I0J-51000D01*
G01*
G37*
G36*
G01*
X203712000Y-94091000D02*
X203712000Y-94491000D01*
G75*
G02*
X203661000Y-94542000I-51000J0D01*
G01*
X203061000Y-94542000D01*
G75*
G02*
X203010000Y-94491000I0J51000D01*
G01*
X203010000Y-94091000D01*
G75*
G02*
X203061000Y-94040000I51000J0D01*
G01*
X203661000Y-94040000D01*
G75*
G02*
X203712000Y-94091000I0J-51000D01*
G01*
G37*
G36*
G01*
X203712000Y-93491000D02*
X203712000Y-93891000D01*
G75*
G02*
X203661000Y-93942000I-51000J0D01*
G01*
X203061000Y-93942000D01*
G75*
G02*
X203010000Y-93891000I0J51000D01*
G01*
X203010000Y-93491000D01*
G75*
G02*
X203061000Y-93440000I51000J0D01*
G01*
X203661000Y-93440000D01*
G75*
G02*
X203712000Y-93491000I0J-51000D01*
G01*
G37*
G36*
G01*
X203712000Y-92891000D02*
X203712000Y-93291000D01*
G75*
G02*
X203661000Y-93342000I-51000J0D01*
G01*
X203061000Y-93342000D01*
G75*
G02*
X203010000Y-93291000I0J51000D01*
G01*
X203010000Y-92891000D01*
G75*
G02*
X203061000Y-92840000I51000J0D01*
G01*
X203661000Y-92840000D01*
G75*
G02*
X203712000Y-92891000I0J-51000D01*
G01*
G37*
G36*
G01*
X203712000Y-92291000D02*
X203712000Y-92691000D01*
G75*
G02*
X203661000Y-92742000I-51000J0D01*
G01*
X203061000Y-92742000D01*
G75*
G02*
X203010000Y-92691000I0J51000D01*
G01*
X203010000Y-92291000D01*
G75*
G02*
X203061000Y-92240000I51000J0D01*
G01*
X203661000Y-92240000D01*
G75*
G02*
X203712000Y-92291000I0J-51000D01*
G01*
G37*
G36*
G01*
X201612000Y-92891000D02*
X201612000Y-93291000D01*
G75*
G02*
X201561000Y-93342000I-51000J0D01*
G01*
X200961000Y-93342000D01*
G75*
G02*
X200910000Y-93291000I0J51000D01*
G01*
X200910000Y-92891000D01*
G75*
G02*
X200961000Y-92840000I51000J0D01*
G01*
X201561000Y-92840000D01*
G75*
G02*
X201612000Y-92891000I0J-51000D01*
G01*
G37*
G36*
G01*
X221331000Y-100792000D02*
X221331000Y-101392000D01*
G75*
G02*
X221280000Y-101443000I-51000J0D01*
G01*
X219730000Y-101443000D01*
G75*
G02*
X219679000Y-101392000I0J51000D01*
G01*
X219679000Y-100792000D01*
G75*
G02*
X219730000Y-100741000I51000J0D01*
G01*
X221280000Y-100741000D01*
G75*
G02*
X221331000Y-100792000I0J-51000D01*
G01*
G37*
G36*
G01*
X221331000Y-99522000D02*
X221331000Y-100122000D01*
G75*
G02*
X221280000Y-100173000I-51000J0D01*
G01*
X219730000Y-100173000D01*
G75*
G02*
X219679000Y-100122000I0J51000D01*
G01*
X219679000Y-99522000D01*
G75*
G02*
X219730000Y-99471000I51000J0D01*
G01*
X221280000Y-99471000D01*
G75*
G02*
X221331000Y-99522000I0J-51000D01*
G01*
G37*
G36*
G01*
X221331000Y-98252000D02*
X221331000Y-98852000D01*
G75*
G02*
X221280000Y-98903000I-51000J0D01*
G01*
X219730000Y-98903000D01*
G75*
G02*
X219679000Y-98852000I0J51000D01*
G01*
X219679000Y-98252000D01*
G75*
G02*
X219730000Y-98201000I51000J0D01*
G01*
X221280000Y-98201000D01*
G75*
G02*
X221331000Y-98252000I0J-51000D01*
G01*
G37*
G36*
G01*
X221331000Y-96982000D02*
X221331000Y-97582000D01*
G75*
G02*
X221280000Y-97633000I-51000J0D01*
G01*
X219730000Y-97633000D01*
G75*
G02*
X219679000Y-97582000I0J51000D01*
G01*
X219679000Y-96982000D01*
G75*
G02*
X219730000Y-96931000I51000J0D01*
G01*
X221280000Y-96931000D01*
G75*
G02*
X221331000Y-96982000I0J-51000D01*
G01*
G37*
G36*
G01*
X215931000Y-96982000D02*
X215931000Y-97582000D01*
G75*
G02*
X215880000Y-97633000I-51000J0D01*
G01*
X214330000Y-97633000D01*
G75*
G02*
X214279000Y-97582000I0J51000D01*
G01*
X214279000Y-96982000D01*
G75*
G02*
X214330000Y-96931000I51000J0D01*
G01*
X215880000Y-96931000D01*
G75*
G02*
X215931000Y-96982000I0J-51000D01*
G01*
G37*
G36*
G01*
X215931000Y-98252000D02*
X215931000Y-98852000D01*
G75*
G02*
X215880000Y-98903000I-51000J0D01*
G01*
X214330000Y-98903000D01*
G75*
G02*
X214279000Y-98852000I0J51000D01*
G01*
X214279000Y-98252000D01*
G75*
G02*
X214330000Y-98201000I51000J0D01*
G01*
X215880000Y-98201000D01*
G75*
G02*
X215931000Y-98252000I0J-51000D01*
G01*
G37*
G36*
G01*
X215931000Y-99522000D02*
X215931000Y-100122000D01*
G75*
G02*
X215880000Y-100173000I-51000J0D01*
G01*
X214330000Y-100173000D01*
G75*
G02*
X214279000Y-100122000I0J51000D01*
G01*
X214279000Y-99522000D01*
G75*
G02*
X214330000Y-99471000I51000J0D01*
G01*
X215880000Y-99471000D01*
G75*
G02*
X215931000Y-99522000I0J-51000D01*
G01*
G37*
G36*
G01*
X215931000Y-100792000D02*
X215931000Y-101392000D01*
G75*
G02*
X215880000Y-101443000I-51000J0D01*
G01*
X214330000Y-101443000D01*
G75*
G02*
X214279000Y-101392000I0J51000D01*
G01*
X214279000Y-100792000D01*
G75*
G02*
X214330000Y-100741000I51000J0D01*
G01*
X215880000Y-100741000D01*
G75*
G02*
X215931000Y-100792000I0J-51000D01*
G01*
G37*
G36*
G01*
X212368000Y-120057000D02*
X212368000Y-120607000D01*
G75*
G02*
X212317000Y-120658000I-51000J0D01*
G01*
X210817000Y-120658000D01*
G75*
G02*
X210766000Y-120607000I0J51000D01*
G01*
X210766000Y-120057000D01*
G75*
G02*
X210817000Y-120006000I51000J0D01*
G01*
X212317000Y-120006000D01*
G75*
G02*
X212368000Y-120057000I0J-51000D01*
G01*
G37*
G36*
G01*
X212368000Y-119257000D02*
X212368000Y-119807000D01*
G75*
G02*
X212317000Y-119858000I-51000J0D01*
G01*
X210817000Y-119858000D01*
G75*
G02*
X210766000Y-119807000I0J51000D01*
G01*
X210766000Y-119257000D01*
G75*
G02*
X210817000Y-119206000I51000J0D01*
G01*
X212317000Y-119206000D01*
G75*
G02*
X212368000Y-119257000I0J-51000D01*
G01*
G37*
G36*
G01*
X212368000Y-118457000D02*
X212368000Y-119007000D01*
G75*
G02*
X212317000Y-119058000I-51000J0D01*
G01*
X210817000Y-119058000D01*
G75*
G02*
X210766000Y-119007000I0J51000D01*
G01*
X210766000Y-118457000D01*
G75*
G02*
X210817000Y-118406000I51000J0D01*
G01*
X212317000Y-118406000D01*
G75*
G02*
X212368000Y-118457000I0J-51000D01*
G01*
G37*
G36*
G01*
X212368000Y-117657000D02*
X212368000Y-118207000D01*
G75*
G02*
X212317000Y-118258000I-51000J0D01*
G01*
X210817000Y-118258000D01*
G75*
G02*
X210766000Y-118207000I0J51000D01*
G01*
X210766000Y-117657000D01*
G75*
G02*
X210817000Y-117606000I51000J0D01*
G01*
X212317000Y-117606000D01*
G75*
G02*
X212368000Y-117657000I0J-51000D01*
G01*
G37*
G36*
G01*
X212368000Y-116857000D02*
X212368000Y-117407000D01*
G75*
G02*
X212317000Y-117458000I-51000J0D01*
G01*
X210817000Y-117458000D01*
G75*
G02*
X210766000Y-117407000I0J51000D01*
G01*
X210766000Y-116857000D01*
G75*
G02*
X210817000Y-116806000I51000J0D01*
G01*
X212317000Y-116806000D01*
G75*
G02*
X212368000Y-116857000I0J-51000D01*
G01*
G37*
G36*
G01*
X212368000Y-116057000D02*
X212368000Y-116607000D01*
G75*
G02*
X212317000Y-116658000I-51000J0D01*
G01*
X210817000Y-116658000D01*
G75*
G02*
X210766000Y-116607000I0J51000D01*
G01*
X210766000Y-116057000D01*
G75*
G02*
X210817000Y-116006000I51000J0D01*
G01*
X212317000Y-116006000D01*
G75*
G02*
X212368000Y-116057000I0J-51000D01*
G01*
G37*
G36*
G01*
X212368000Y-115257000D02*
X212368000Y-115807000D01*
G75*
G02*
X212317000Y-115858000I-51000J0D01*
G01*
X210817000Y-115858000D01*
G75*
G02*
X210766000Y-115807000I0J51000D01*
G01*
X210766000Y-115257000D01*
G75*
G02*
X210817000Y-115206000I51000J0D01*
G01*
X212317000Y-115206000D01*
G75*
G02*
X212368000Y-115257000I0J-51000D01*
G01*
G37*
G36*
G01*
X212368000Y-114457000D02*
X212368000Y-115007000D01*
G75*
G02*
X212317000Y-115058000I-51000J0D01*
G01*
X210817000Y-115058000D01*
G75*
G02*
X210766000Y-115007000I0J51000D01*
G01*
X210766000Y-114457000D01*
G75*
G02*
X210817000Y-114406000I51000J0D01*
G01*
X212317000Y-114406000D01*
G75*
G02*
X212368000Y-114457000I0J-51000D01*
G01*
G37*
G36*
G01*
X212368000Y-113657000D02*
X212368000Y-114207000D01*
G75*
G02*
X212317000Y-114258000I-51000J0D01*
G01*
X210817000Y-114258000D01*
G75*
G02*
X210766000Y-114207000I0J51000D01*
G01*
X210766000Y-113657000D01*
G75*
G02*
X210817000Y-113606000I51000J0D01*
G01*
X212317000Y-113606000D01*
G75*
G02*
X212368000Y-113657000I0J-51000D01*
G01*
G37*
G36*
G01*
X212368000Y-112857000D02*
X212368000Y-113407000D01*
G75*
G02*
X212317000Y-113458000I-51000J0D01*
G01*
X210817000Y-113458000D01*
G75*
G02*
X210766000Y-113407000I0J51000D01*
G01*
X210766000Y-112857000D01*
G75*
G02*
X210817000Y-112806000I51000J0D01*
G01*
X212317000Y-112806000D01*
G75*
G02*
X212368000Y-112857000I0J-51000D01*
G01*
G37*
G36*
G01*
X212368000Y-112057000D02*
X212368000Y-112607000D01*
G75*
G02*
X212317000Y-112658000I-51000J0D01*
G01*
X210817000Y-112658000D01*
G75*
G02*
X210766000Y-112607000I0J51000D01*
G01*
X210766000Y-112057000D01*
G75*
G02*
X210817000Y-112006000I51000J0D01*
G01*
X212317000Y-112006000D01*
G75*
G02*
X212368000Y-112057000I0J-51000D01*
G01*
G37*
G36*
G01*
X209592000Y-109831000D02*
X210142000Y-109831000D01*
G75*
G02*
X210193000Y-109882000I0J-51000D01*
G01*
X210193000Y-111382000D01*
G75*
G02*
X210142000Y-111433000I-51000J0D01*
G01*
X209592000Y-111433000D01*
G75*
G02*
X209541000Y-111382000I0J51000D01*
G01*
X209541000Y-109882000D01*
G75*
G02*
X209592000Y-109831000I51000J0D01*
G01*
G37*
G36*
G01*
X208792000Y-109831000D02*
X209342000Y-109831000D01*
G75*
G02*
X209393000Y-109882000I0J-51000D01*
G01*
X209393000Y-111382000D01*
G75*
G02*
X209342000Y-111433000I-51000J0D01*
G01*
X208792000Y-111433000D01*
G75*
G02*
X208741000Y-111382000I0J51000D01*
G01*
X208741000Y-109882000D01*
G75*
G02*
X208792000Y-109831000I51000J0D01*
G01*
G37*
G36*
G01*
X207992000Y-109831000D02*
X208542000Y-109831000D01*
G75*
G02*
X208593000Y-109882000I0J-51000D01*
G01*
X208593000Y-111382000D01*
G75*
G02*
X208542000Y-111433000I-51000J0D01*
G01*
X207992000Y-111433000D01*
G75*
G02*
X207941000Y-111382000I0J51000D01*
G01*
X207941000Y-109882000D01*
G75*
G02*
X207992000Y-109831000I51000J0D01*
G01*
G37*
G36*
G01*
X207192000Y-109831000D02*
X207742000Y-109831000D01*
G75*
G02*
X207793000Y-109882000I0J-51000D01*
G01*
X207793000Y-111382000D01*
G75*
G02*
X207742000Y-111433000I-51000J0D01*
G01*
X207192000Y-111433000D01*
G75*
G02*
X207141000Y-111382000I0J51000D01*
G01*
X207141000Y-109882000D01*
G75*
G02*
X207192000Y-109831000I51000J0D01*
G01*
G37*
G36*
G01*
X206392000Y-109831000D02*
X206942000Y-109831000D01*
G75*
G02*
X206993000Y-109882000I0J-51000D01*
G01*
X206993000Y-111382000D01*
G75*
G02*
X206942000Y-111433000I-51000J0D01*
G01*
X206392000Y-111433000D01*
G75*
G02*
X206341000Y-111382000I0J51000D01*
G01*
X206341000Y-109882000D01*
G75*
G02*
X206392000Y-109831000I51000J0D01*
G01*
G37*
G36*
G01*
X205592000Y-109831000D02*
X206142000Y-109831000D01*
G75*
G02*
X206193000Y-109882000I0J-51000D01*
G01*
X206193000Y-111382000D01*
G75*
G02*
X206142000Y-111433000I-51000J0D01*
G01*
X205592000Y-111433000D01*
G75*
G02*
X205541000Y-111382000I0J51000D01*
G01*
X205541000Y-109882000D01*
G75*
G02*
X205592000Y-109831000I51000J0D01*
G01*
G37*
G36*
G01*
X204792000Y-109831000D02*
X205342000Y-109831000D01*
G75*
G02*
X205393000Y-109882000I0J-51000D01*
G01*
X205393000Y-111382000D01*
G75*
G02*
X205342000Y-111433000I-51000J0D01*
G01*
X204792000Y-111433000D01*
G75*
G02*
X204741000Y-111382000I0J51000D01*
G01*
X204741000Y-109882000D01*
G75*
G02*
X204792000Y-109831000I51000J0D01*
G01*
G37*
G36*
G01*
X203992000Y-109831000D02*
X204542000Y-109831000D01*
G75*
G02*
X204593000Y-109882000I0J-51000D01*
G01*
X204593000Y-111382000D01*
G75*
G02*
X204542000Y-111433000I-51000J0D01*
G01*
X203992000Y-111433000D01*
G75*
G02*
X203941000Y-111382000I0J51000D01*
G01*
X203941000Y-109882000D01*
G75*
G02*
X203992000Y-109831000I51000J0D01*
G01*
G37*
G36*
G01*
X203192000Y-109831000D02*
X203742000Y-109831000D01*
G75*
G02*
X203793000Y-109882000I0J-51000D01*
G01*
X203793000Y-111382000D01*
G75*
G02*
X203742000Y-111433000I-51000J0D01*
G01*
X203192000Y-111433000D01*
G75*
G02*
X203141000Y-111382000I0J51000D01*
G01*
X203141000Y-109882000D01*
G75*
G02*
X203192000Y-109831000I51000J0D01*
G01*
G37*
G36*
G01*
X202392000Y-109831000D02*
X202942000Y-109831000D01*
G75*
G02*
X202993000Y-109882000I0J-51000D01*
G01*
X202993000Y-111382000D01*
G75*
G02*
X202942000Y-111433000I-51000J0D01*
G01*
X202392000Y-111433000D01*
G75*
G02*
X202341000Y-111382000I0J51000D01*
G01*
X202341000Y-109882000D01*
G75*
G02*
X202392000Y-109831000I51000J0D01*
G01*
G37*
G36*
G01*
X201592000Y-109831000D02*
X202142000Y-109831000D01*
G75*
G02*
X202193000Y-109882000I0J-51000D01*
G01*
X202193000Y-111382000D01*
G75*
G02*
X202142000Y-111433000I-51000J0D01*
G01*
X201592000Y-111433000D01*
G75*
G02*
X201541000Y-111382000I0J51000D01*
G01*
X201541000Y-109882000D01*
G75*
G02*
X201592000Y-109831000I51000J0D01*
G01*
G37*
G36*
G01*
X200968000Y-112057000D02*
X200968000Y-112607000D01*
G75*
G02*
X200917000Y-112658000I-51000J0D01*
G01*
X199417000Y-112658000D01*
G75*
G02*
X199366000Y-112607000I0J51000D01*
G01*
X199366000Y-112057000D01*
G75*
G02*
X199417000Y-112006000I51000J0D01*
G01*
X200917000Y-112006000D01*
G75*
G02*
X200968000Y-112057000I0J-51000D01*
G01*
G37*
G36*
G01*
X200968000Y-112857000D02*
X200968000Y-113407000D01*
G75*
G02*
X200917000Y-113458000I-51000J0D01*
G01*
X199417000Y-113458000D01*
G75*
G02*
X199366000Y-113407000I0J51000D01*
G01*
X199366000Y-112857000D01*
G75*
G02*
X199417000Y-112806000I51000J0D01*
G01*
X200917000Y-112806000D01*
G75*
G02*
X200968000Y-112857000I0J-51000D01*
G01*
G37*
G36*
G01*
X200968000Y-113657000D02*
X200968000Y-114207000D01*
G75*
G02*
X200917000Y-114258000I-51000J0D01*
G01*
X199417000Y-114258000D01*
G75*
G02*
X199366000Y-114207000I0J51000D01*
G01*
X199366000Y-113657000D01*
G75*
G02*
X199417000Y-113606000I51000J0D01*
G01*
X200917000Y-113606000D01*
G75*
G02*
X200968000Y-113657000I0J-51000D01*
G01*
G37*
G36*
G01*
X200968000Y-114457000D02*
X200968000Y-115007000D01*
G75*
G02*
X200917000Y-115058000I-51000J0D01*
G01*
X199417000Y-115058000D01*
G75*
G02*
X199366000Y-115007000I0J51000D01*
G01*
X199366000Y-114457000D01*
G75*
G02*
X199417000Y-114406000I51000J0D01*
G01*
X200917000Y-114406000D01*
G75*
G02*
X200968000Y-114457000I0J-51000D01*
G01*
G37*
G36*
G01*
X200968000Y-115257000D02*
X200968000Y-115807000D01*
G75*
G02*
X200917000Y-115858000I-51000J0D01*
G01*
X199417000Y-115858000D01*
G75*
G02*
X199366000Y-115807000I0J51000D01*
G01*
X199366000Y-115257000D01*
G75*
G02*
X199417000Y-115206000I51000J0D01*
G01*
X200917000Y-115206000D01*
G75*
G02*
X200968000Y-115257000I0J-51000D01*
G01*
G37*
G36*
G01*
X200968000Y-116057000D02*
X200968000Y-116607000D01*
G75*
G02*
X200917000Y-116658000I-51000J0D01*
G01*
X199417000Y-116658000D01*
G75*
G02*
X199366000Y-116607000I0J51000D01*
G01*
X199366000Y-116057000D01*
G75*
G02*
X199417000Y-116006000I51000J0D01*
G01*
X200917000Y-116006000D01*
G75*
G02*
X200968000Y-116057000I0J-51000D01*
G01*
G37*
G36*
G01*
X200968000Y-116857000D02*
X200968000Y-117407000D01*
G75*
G02*
X200917000Y-117458000I-51000J0D01*
G01*
X199417000Y-117458000D01*
G75*
G02*
X199366000Y-117407000I0J51000D01*
G01*
X199366000Y-116857000D01*
G75*
G02*
X199417000Y-116806000I51000J0D01*
G01*
X200917000Y-116806000D01*
G75*
G02*
X200968000Y-116857000I0J-51000D01*
G01*
G37*
G36*
G01*
X200968000Y-117657000D02*
X200968000Y-118207000D01*
G75*
G02*
X200917000Y-118258000I-51000J0D01*
G01*
X199417000Y-118258000D01*
G75*
G02*
X199366000Y-118207000I0J51000D01*
G01*
X199366000Y-117657000D01*
G75*
G02*
X199417000Y-117606000I51000J0D01*
G01*
X200917000Y-117606000D01*
G75*
G02*
X200968000Y-117657000I0J-51000D01*
G01*
G37*
G36*
G01*
X200968000Y-118457000D02*
X200968000Y-119007000D01*
G75*
G02*
X200917000Y-119058000I-51000J0D01*
G01*
X199417000Y-119058000D01*
G75*
G02*
X199366000Y-119007000I0J51000D01*
G01*
X199366000Y-118457000D01*
G75*
G02*
X199417000Y-118406000I51000J0D01*
G01*
X200917000Y-118406000D01*
G75*
G02*
X200968000Y-118457000I0J-51000D01*
G01*
G37*
G36*
G01*
X200968000Y-119257000D02*
X200968000Y-119807000D01*
G75*
G02*
X200917000Y-119858000I-51000J0D01*
G01*
X199417000Y-119858000D01*
G75*
G02*
X199366000Y-119807000I0J51000D01*
G01*
X199366000Y-119257000D01*
G75*
G02*
X199417000Y-119206000I51000J0D01*
G01*
X200917000Y-119206000D01*
G75*
G02*
X200968000Y-119257000I0J-51000D01*
G01*
G37*
G36*
G01*
X200968000Y-120057000D02*
X200968000Y-120607000D01*
G75*
G02*
X200917000Y-120658000I-51000J0D01*
G01*
X199417000Y-120658000D01*
G75*
G02*
X199366000Y-120607000I0J51000D01*
G01*
X199366000Y-120057000D01*
G75*
G02*
X199417000Y-120006000I51000J0D01*
G01*
X200917000Y-120006000D01*
G75*
G02*
X200968000Y-120057000I0J-51000D01*
G01*
G37*
G36*
G01*
X201592000Y-121231000D02*
X202142000Y-121231000D01*
G75*
G02*
X202193000Y-121282000I0J-51000D01*
G01*
X202193000Y-122782000D01*
G75*
G02*
X202142000Y-122833000I-51000J0D01*
G01*
X201592000Y-122833000D01*
G75*
G02*
X201541000Y-122782000I0J51000D01*
G01*
X201541000Y-121282000D01*
G75*
G02*
X201592000Y-121231000I51000J0D01*
G01*
G37*
G36*
G01*
X202392000Y-121231000D02*
X202942000Y-121231000D01*
G75*
G02*
X202993000Y-121282000I0J-51000D01*
G01*
X202993000Y-122782000D01*
G75*
G02*
X202942000Y-122833000I-51000J0D01*
G01*
X202392000Y-122833000D01*
G75*
G02*
X202341000Y-122782000I0J51000D01*
G01*
X202341000Y-121282000D01*
G75*
G02*
X202392000Y-121231000I51000J0D01*
G01*
G37*
G36*
G01*
X203192000Y-121231000D02*
X203742000Y-121231000D01*
G75*
G02*
X203793000Y-121282000I0J-51000D01*
G01*
X203793000Y-122782000D01*
G75*
G02*
X203742000Y-122833000I-51000J0D01*
G01*
X203192000Y-122833000D01*
G75*
G02*
X203141000Y-122782000I0J51000D01*
G01*
X203141000Y-121282000D01*
G75*
G02*
X203192000Y-121231000I51000J0D01*
G01*
G37*
G36*
G01*
X203992000Y-121231000D02*
X204542000Y-121231000D01*
G75*
G02*
X204593000Y-121282000I0J-51000D01*
G01*
X204593000Y-122782000D01*
G75*
G02*
X204542000Y-122833000I-51000J0D01*
G01*
X203992000Y-122833000D01*
G75*
G02*
X203941000Y-122782000I0J51000D01*
G01*
X203941000Y-121282000D01*
G75*
G02*
X203992000Y-121231000I51000J0D01*
G01*
G37*
G36*
G01*
X204792000Y-121231000D02*
X205342000Y-121231000D01*
G75*
G02*
X205393000Y-121282000I0J-51000D01*
G01*
X205393000Y-122782000D01*
G75*
G02*
X205342000Y-122833000I-51000J0D01*
G01*
X204792000Y-122833000D01*
G75*
G02*
X204741000Y-122782000I0J51000D01*
G01*
X204741000Y-121282000D01*
G75*
G02*
X204792000Y-121231000I51000J0D01*
G01*
G37*
G36*
G01*
X205592000Y-121231000D02*
X206142000Y-121231000D01*
G75*
G02*
X206193000Y-121282000I0J-51000D01*
G01*
X206193000Y-122782000D01*
G75*
G02*
X206142000Y-122833000I-51000J0D01*
G01*
X205592000Y-122833000D01*
G75*
G02*
X205541000Y-122782000I0J51000D01*
G01*
X205541000Y-121282000D01*
G75*
G02*
X205592000Y-121231000I51000J0D01*
G01*
G37*
G36*
G01*
X206392000Y-121231000D02*
X206942000Y-121231000D01*
G75*
G02*
X206993000Y-121282000I0J-51000D01*
G01*
X206993000Y-122782000D01*
G75*
G02*
X206942000Y-122833000I-51000J0D01*
G01*
X206392000Y-122833000D01*
G75*
G02*
X206341000Y-122782000I0J51000D01*
G01*
X206341000Y-121282000D01*
G75*
G02*
X206392000Y-121231000I51000J0D01*
G01*
G37*
G36*
G01*
X207192000Y-121231000D02*
X207742000Y-121231000D01*
G75*
G02*
X207793000Y-121282000I0J-51000D01*
G01*
X207793000Y-122782000D01*
G75*
G02*
X207742000Y-122833000I-51000J0D01*
G01*
X207192000Y-122833000D01*
G75*
G02*
X207141000Y-122782000I0J51000D01*
G01*
X207141000Y-121282000D01*
G75*
G02*
X207192000Y-121231000I51000J0D01*
G01*
G37*
G36*
G01*
X207992000Y-121231000D02*
X208542000Y-121231000D01*
G75*
G02*
X208593000Y-121282000I0J-51000D01*
G01*
X208593000Y-122782000D01*
G75*
G02*
X208542000Y-122833000I-51000J0D01*
G01*
X207992000Y-122833000D01*
G75*
G02*
X207941000Y-122782000I0J51000D01*
G01*
X207941000Y-121282000D01*
G75*
G02*
X207992000Y-121231000I51000J0D01*
G01*
G37*
G36*
G01*
X208792000Y-121231000D02*
X209342000Y-121231000D01*
G75*
G02*
X209393000Y-121282000I0J-51000D01*
G01*
X209393000Y-122782000D01*
G75*
G02*
X209342000Y-122833000I-51000J0D01*
G01*
X208792000Y-122833000D01*
G75*
G02*
X208741000Y-122782000I0J51000D01*
G01*
X208741000Y-121282000D01*
G75*
G02*
X208792000Y-121231000I51000J0D01*
G01*
G37*
G36*
G01*
X209592000Y-121231000D02*
X210142000Y-121231000D01*
G75*
G02*
X210193000Y-121282000I0J-51000D01*
G01*
X210193000Y-122782000D01*
G75*
G02*
X210142000Y-122833000I-51000J0D01*
G01*
X209592000Y-122833000D01*
G75*
G02*
X209541000Y-122782000I0J51000D01*
G01*
X209541000Y-121282000D01*
G75*
G02*
X209592000Y-121231000I51000J0D01*
G01*
G37*
G36*
G01*
X224293000Y-101770000D02*
X222493000Y-101770000D01*
G75*
G02*
X222442000Y-101719000I0J51000D01*
G01*
X222442000Y-100719000D01*
G75*
G02*
X222493000Y-100668000I51000J0D01*
G01*
X224293000Y-100668000D01*
G75*
G02*
X224344000Y-100719000I0J-51000D01*
G01*
X224344000Y-101719000D01*
G75*
G02*
X224293000Y-101770000I-51000J0D01*
G01*
G37*
G36*
G01*
X224293000Y-99270000D02*
X222493000Y-99270000D01*
G75*
G02*
X222442000Y-99219000I0J51000D01*
G01*
X222442000Y-98219000D01*
G75*
G02*
X222493000Y-98168000I51000J0D01*
G01*
X224293000Y-98168000D01*
G75*
G02*
X224344000Y-98219000I0J-51000D01*
G01*
X224344000Y-99219000D01*
G75*
G02*
X224293000Y-99270000I-51000J0D01*
G01*
G37*
G36*
G01*
X206946000Y-103542250D02*
X206946000Y-102578750D01*
G75*
G02*
X207215250Y-102309500I269250J0D01*
G01*
X207753750Y-102309500D01*
G75*
G02*
X208023000Y-102578750I0J-269250D01*
G01*
X208023000Y-103542250D01*
G75*
G02*
X207753750Y-103811500I-269250J0D01*
G01*
X207215250Y-103811500D01*
G75*
G02*
X206946000Y-103542250I0J269250D01*
G01*
G37*
G36*
G01*
X208821000Y-103542250D02*
X208821000Y-102578750D01*
G75*
G02*
X209090250Y-102309500I269250J0D01*
G01*
X209628750Y-102309500D01*
G75*
G02*
X209898000Y-102578750I0J-269250D01*
G01*
X209898000Y-103542250D01*
G75*
G02*
X209628750Y-103811500I-269250J0D01*
G01*
X209090250Y-103811500D01*
G75*
G02*
X208821000Y-103542250I0J269250D01*
G01*
G37*
D15*
X170576000Y-135206000D03*
X172576000Y-135206000D03*
X174576000Y-135206000D03*
X176576000Y-135206000D03*
X178576000Y-135206000D03*
X180576000Y-135206000D03*
X182576000Y-135206000D03*
X184576000Y-135206000D03*
X186576000Y-135206000D03*
X188576000Y-135206000D03*
X188576000Y-113206000D03*
X186576000Y-113206000D03*
X184576000Y-113206000D03*
X182576000Y-113206000D03*
X180576000Y-113206000D03*
X178576000Y-113206000D03*
X176576000Y-113206000D03*
X174576000Y-113206000D03*
X172576000Y-113206000D03*
X170576000Y-113206000D03*
G36*
G01*
X210293499Y-100652500D02*
X211793501Y-100652500D01*
G75*
G02*
X211844500Y-100703499I0J-50999D01*
G01*
X211844500Y-101353501D01*
G75*
G02*
X211793501Y-101404500I-50999J0D01*
G01*
X210293499Y-101404500D01*
G75*
G02*
X210242500Y-101353501I0J50999D01*
G01*
X210242500Y-100703499D01*
G75*
G02*
X210293499Y-100652500I50999J0D01*
G01*
G37*
G36*
G01*
X210293499Y-99382500D02*
X211793501Y-99382500D01*
G75*
G02*
X211844500Y-99433499I0J-50999D01*
G01*
X211844500Y-100083501D01*
G75*
G02*
X211793501Y-100134500I-50999J0D01*
G01*
X210293499Y-100134500D01*
G75*
G02*
X210242500Y-100083501I0J50999D01*
G01*
X210242500Y-99433499D01*
G75*
G02*
X210293499Y-99382500I50999J0D01*
G01*
G37*
G36*
G01*
X210293499Y-98112500D02*
X211793501Y-98112500D01*
G75*
G02*
X211844500Y-98163499I0J-50999D01*
G01*
X211844500Y-98813501D01*
G75*
G02*
X211793501Y-98864500I-50999J0D01*
G01*
X210293499Y-98864500D01*
G75*
G02*
X210242500Y-98813501I0J50999D01*
G01*
X210242500Y-98163499D01*
G75*
G02*
X210293499Y-98112500I50999J0D01*
G01*
G37*
G36*
G01*
X210293499Y-96842500D02*
X211793501Y-96842500D01*
G75*
G02*
X211844500Y-96893499I0J-50999D01*
G01*
X211844500Y-97543501D01*
G75*
G02*
X211793501Y-97594500I-50999J0D01*
G01*
X210293499Y-97594500D01*
G75*
G02*
X210242500Y-97543501I0J50999D01*
G01*
X210242500Y-96893499D01*
G75*
G02*
X210293499Y-96842500I50999J0D01*
G01*
G37*
G36*
G01*
X204893499Y-96842500D02*
X206393501Y-96842500D01*
G75*
G02*
X206444500Y-96893499I0J-50999D01*
G01*
X206444500Y-97543501D01*
G75*
G02*
X206393501Y-97594500I-50999J0D01*
G01*
X204893499Y-97594500D01*
G75*
G02*
X204842500Y-97543501I0J50999D01*
G01*
X204842500Y-96893499D01*
G75*
G02*
X204893499Y-96842500I50999J0D01*
G01*
G37*
G36*
G01*
X204893499Y-98112500D02*
X206393501Y-98112500D01*
G75*
G02*
X206444500Y-98163499I0J-50999D01*
G01*
X206444500Y-98813501D01*
G75*
G02*
X206393501Y-98864500I-50999J0D01*
G01*
X204893499Y-98864500D01*
G75*
G02*
X204842500Y-98813501I0J50999D01*
G01*
X204842500Y-98163499D01*
G75*
G02*
X204893499Y-98112500I50999J0D01*
G01*
G37*
G36*
G01*
X204893499Y-99382500D02*
X206393501Y-99382500D01*
G75*
G02*
X206444500Y-99433499I0J-50999D01*
G01*
X206444500Y-100083501D01*
G75*
G02*
X206393501Y-100134500I-50999J0D01*
G01*
X204893499Y-100134500D01*
G75*
G02*
X204842500Y-100083501I0J50999D01*
G01*
X204842500Y-99433499D01*
G75*
G02*
X204893499Y-99382500I50999J0D01*
G01*
G37*
G36*
G01*
X204893499Y-100652500D02*
X206393501Y-100652500D01*
G75*
G02*
X206444500Y-100703499I0J-50999D01*
G01*
X206444500Y-101353501D01*
G75*
G02*
X206393501Y-101404500I-50999J0D01*
G01*
X204893499Y-101404500D01*
G75*
G02*
X204842500Y-101353501I0J50999D01*
G01*
X204842500Y-100703499D01*
G75*
G02*
X204893499Y-100652500I50999J0D01*
G01*
G37*
G36*
G01*
X215462000Y-105770000D02*
X217862000Y-105770000D01*
G75*
G02*
X217913000Y-105821000I0J-51000D01*
G01*
X217913000Y-107721000D01*
G75*
G02*
X217862000Y-107772000I-51000J0D01*
G01*
X215462000Y-107772000D01*
G75*
G02*
X215411000Y-107721000I0J51000D01*
G01*
X215411000Y-105821000D01*
G75*
G02*
X215462000Y-105770000I51000J0D01*
G01*
G37*
G36*
G01*
X215462000Y-109870000D02*
X217862000Y-109870000D01*
G75*
G02*
X217913000Y-109921000I0J-51000D01*
G01*
X217913000Y-111821000D01*
G75*
G02*
X217862000Y-111872000I-51000J0D01*
G01*
X215462000Y-111872000D01*
G75*
G02*
X215411000Y-111821000I0J51000D01*
G01*
X215411000Y-109921000D01*
G75*
G02*
X215462000Y-109870000I51000J0D01*
G01*
G37*
D16*
X229489000Y-81407000D03*
D17*
X231139000Y-81407000D03*
X230655726Y-82573726D03*
X229489000Y-83057000D03*
X228322274Y-82573726D03*
X227839000Y-81407000D03*
X228322274Y-80240274D03*
X229489000Y-79757000D03*
X230655726Y-80240274D03*
D16*
X166243000Y-81407000D03*
D17*
X167893000Y-81407000D03*
X167409726Y-82573726D03*
X166243000Y-83057000D03*
X165076274Y-82573726D03*
X164593000Y-81407000D03*
X165076274Y-80240274D03*
X166243000Y-79757000D03*
X167409726Y-80240274D03*
D16*
X166243000Y-143891000D03*
D17*
X167893000Y-143891000D03*
X167409726Y-145057726D03*
X166243000Y-145541000D03*
X165076274Y-145057726D03*
X164593000Y-143891000D03*
X165076274Y-142724274D03*
X166243000Y-142241000D03*
X167409726Y-142724274D03*
X230655726Y-142724274D03*
X229489000Y-142241000D03*
X228322274Y-142724274D03*
X227839000Y-143891000D03*
X228322274Y-145057726D03*
X229489000Y-145541000D03*
X230655726Y-145057726D03*
X231139000Y-143891000D03*
D16*
X229489000Y-143891000D03*
G36*
G01*
X199193001Y-96442000D02*
X197592999Y-96442000D01*
G75*
G02*
X197542000Y-96391001I0J50999D01*
G01*
X197542000Y-95690999D01*
G75*
G02*
X197592999Y-95640000I50999J0D01*
G01*
X199193001Y-95640000D01*
G75*
G02*
X199244000Y-95690999I0J-50999D01*
G01*
X199244000Y-96391001D01*
G75*
G02*
X199193001Y-96442000I-50999J0D01*
G01*
G37*
G36*
G01*
X199193001Y-95172000D02*
X197592999Y-95172000D01*
G75*
G02*
X197542000Y-95121001I0J50999D01*
G01*
X197542000Y-94420999D01*
G75*
G02*
X197592999Y-94370000I50999J0D01*
G01*
X199193001Y-94370000D01*
G75*
G02*
X199244000Y-94420999I0J-50999D01*
G01*
X199244000Y-95121001D01*
G75*
G02*
X199193001Y-95172000I-50999J0D01*
G01*
G37*
G36*
G01*
X199193001Y-93902000D02*
X197592999Y-93902000D01*
G75*
G02*
X197542000Y-93851001I0J50999D01*
G01*
X197542000Y-93150999D01*
G75*
G02*
X197592999Y-93100000I50999J0D01*
G01*
X199193001Y-93100000D01*
G75*
G02*
X199244000Y-93150999I0J-50999D01*
G01*
X199244000Y-93851001D01*
G75*
G02*
X199193001Y-93902000I-50999J0D01*
G01*
G37*
G36*
G01*
X199193001Y-92632000D02*
X197592999Y-92632000D01*
G75*
G02*
X197542000Y-92581001I0J50999D01*
G01*
X197542000Y-91880999D01*
G75*
G02*
X197592999Y-91830000I50999J0D01*
G01*
X199193001Y-91830000D01*
G75*
G02*
X199244000Y-91880999I0J-50999D01*
G01*
X199244000Y-92581001D01*
G75*
G02*
X199193001Y-92632000I-50999J0D01*
G01*
G37*
G36*
G01*
X230966000Y-130570000D02*
X230966000Y-132670000D01*
G75*
G02*
X230915000Y-132721000I-51000J0D01*
G01*
X229515000Y-132721000D01*
G75*
G02*
X229464000Y-132670000I0J51000D01*
G01*
X229464000Y-130570000D01*
G75*
G02*
X229515000Y-130519000I51000J0D01*
G01*
X230915000Y-130519000D01*
G75*
G02*
X230966000Y-130570000I0J-51000D01*
G01*
G37*
G36*
G01*
X230966000Y-136570000D02*
X230966000Y-138670000D01*
G75*
G02*
X230915000Y-138721000I-51000J0D01*
G01*
X229515000Y-138721000D01*
G75*
G02*
X229464000Y-138670000I0J51000D01*
G01*
X229464000Y-136570000D01*
G75*
G02*
X229515000Y-136519000I51000J0D01*
G01*
X230915000Y-136519000D01*
G75*
G02*
X230966000Y-136570000I0J-51000D01*
G01*
G37*
G36*
G01*
X226466000Y-130570000D02*
X226466000Y-132670000D01*
G75*
G02*
X226415000Y-132721000I-51000J0D01*
G01*
X225015000Y-132721000D01*
G75*
G02*
X224964000Y-132670000I0J51000D01*
G01*
X224964000Y-130570000D01*
G75*
G02*
X225015000Y-130519000I51000J0D01*
G01*
X226415000Y-130519000D01*
G75*
G02*
X226466000Y-130570000I0J-51000D01*
G01*
G37*
G36*
G01*
X226466000Y-136570000D02*
X226466000Y-138670000D01*
G75*
G02*
X226415000Y-138721000I-51000J0D01*
G01*
X225015000Y-138721000D01*
G75*
G02*
X224964000Y-138670000I0J51000D01*
G01*
X224964000Y-136570000D01*
G75*
G02*
X225015000Y-136519000I51000J0D01*
G01*
X226415000Y-136519000D01*
G75*
G02*
X226466000Y-136570000I0J-51000D01*
G01*
G37*
G36*
G01*
X169266000Y-103841000D02*
X169266000Y-101741000D01*
G75*
G02*
X169317000Y-101690000I51000J0D01*
G01*
X170717000Y-101690000D01*
G75*
G02*
X170768000Y-101741000I0J-51000D01*
G01*
X170768000Y-103841000D01*
G75*
G02*
X170717000Y-103892000I-51000J0D01*
G01*
X169317000Y-103892000D01*
G75*
G02*
X169266000Y-103841000I0J51000D01*
G01*
G37*
G36*
G01*
X169266000Y-109841000D02*
X169266000Y-107741000D01*
G75*
G02*
X169317000Y-107690000I51000J0D01*
G01*
X170717000Y-107690000D01*
G75*
G02*
X170768000Y-107741000I0J-51000D01*
G01*
X170768000Y-109841000D01*
G75*
G02*
X170717000Y-109892000I-51000J0D01*
G01*
X169317000Y-109892000D01*
G75*
G02*
X169266000Y-109841000I0J51000D01*
G01*
G37*
G36*
G01*
X164766000Y-103841000D02*
X164766000Y-101741000D01*
G75*
G02*
X164817000Y-101690000I51000J0D01*
G01*
X166217000Y-101690000D01*
G75*
G02*
X166268000Y-101741000I0J-51000D01*
G01*
X166268000Y-103841000D01*
G75*
G02*
X166217000Y-103892000I-51000J0D01*
G01*
X164817000Y-103892000D01*
G75*
G02*
X164766000Y-103841000I0J51000D01*
G01*
G37*
G36*
G01*
X164766000Y-109841000D02*
X164766000Y-107741000D01*
G75*
G02*
X164817000Y-107690000I51000J0D01*
G01*
X166217000Y-107690000D01*
G75*
G02*
X166268000Y-107741000I0J-51000D01*
G01*
X166268000Y-109841000D01*
G75*
G02*
X166217000Y-109892000I-51000J0D01*
G01*
X164817000Y-109892000D01*
G75*
G02*
X164766000Y-109841000I0J51000D01*
G01*
G37*
G36*
G01*
X222098000Y-132670000D02*
X222098000Y-130570000D01*
G75*
G02*
X222149000Y-130519000I51000J0D01*
G01*
X223549000Y-130519000D01*
G75*
G02*
X223600000Y-130570000I0J-51000D01*
G01*
X223600000Y-132670000D01*
G75*
G02*
X223549000Y-132721000I-51000J0D01*
G01*
X222149000Y-132721000D01*
G75*
G02*
X222098000Y-132670000I0J51000D01*
G01*
G37*
G36*
G01*
X222098000Y-138670000D02*
X222098000Y-136570000D01*
G75*
G02*
X222149000Y-136519000I51000J0D01*
G01*
X223549000Y-136519000D01*
G75*
G02*
X223600000Y-136570000I0J-51000D01*
G01*
X223600000Y-138670000D01*
G75*
G02*
X223549000Y-138721000I-51000J0D01*
G01*
X222149000Y-138721000D01*
G75*
G02*
X222098000Y-138670000I0J51000D01*
G01*
G37*
G36*
G01*
X217598000Y-132670000D02*
X217598000Y-130570000D01*
G75*
G02*
X217649000Y-130519000I51000J0D01*
G01*
X219049000Y-130519000D01*
G75*
G02*
X219100000Y-130570000I0J-51000D01*
G01*
X219100000Y-132670000D01*
G75*
G02*
X219049000Y-132721000I-51000J0D01*
G01*
X217649000Y-132721000D01*
G75*
G02*
X217598000Y-132670000I0J51000D01*
G01*
G37*
G36*
G01*
X217598000Y-138670000D02*
X217598000Y-136570000D01*
G75*
G02*
X217649000Y-136519000I51000J0D01*
G01*
X219049000Y-136519000D01*
G75*
G02*
X219100000Y-136570000I0J-51000D01*
G01*
X219100000Y-138670000D01*
G75*
G02*
X219049000Y-138721000I-51000J0D01*
G01*
X217649000Y-138721000D01*
G75*
G02*
X217598000Y-138670000I0J51000D01*
G01*
G37*
G36*
G01*
X213517500Y-104547250D02*
X213517500Y-105510750D01*
G75*
G02*
X213248250Y-105780000I-269250J0D01*
G01*
X212709750Y-105780000D01*
G75*
G02*
X212440500Y-105510750I0J269250D01*
G01*
X212440500Y-104547250D01*
G75*
G02*
X212709750Y-104278000I269250J0D01*
G01*
X213248250Y-104278000D01*
G75*
G02*
X213517500Y-104547250I0J-269250D01*
G01*
G37*
G36*
G01*
X211642500Y-104547250D02*
X211642500Y-105510750D01*
G75*
G02*
X211373250Y-105780000I-269250J0D01*
G01*
X210834750Y-105780000D01*
G75*
G02*
X210565500Y-105510750I0J269250D01*
G01*
X210565500Y-104547250D01*
G75*
G02*
X210834750Y-104278000I269250J0D01*
G01*
X211373250Y-104278000D01*
G75*
G02*
X211642500Y-104547250I0J-269250D01*
G01*
G37*
G36*
G01*
X209923000Y-104552876D02*
X209923000Y-105505124D01*
G75*
G02*
X209648124Y-105780000I-274876J0D01*
G01*
X209070876Y-105780000D01*
G75*
G02*
X208796000Y-105505124I0J274876D01*
G01*
X208796000Y-104552876D01*
G75*
G02*
X209070876Y-104278000I274876J0D01*
G01*
X209648124Y-104278000D01*
G75*
G02*
X209923000Y-104552876I0J-274876D01*
G01*
G37*
G36*
G01*
X208098000Y-104552876D02*
X208098000Y-105505124D01*
G75*
G02*
X207823124Y-105780000I-274876J0D01*
G01*
X207245876Y-105780000D01*
G75*
G02*
X206971000Y-105505124I0J274876D01*
G01*
X206971000Y-104552876D01*
G75*
G02*
X207245876Y-104278000I274876J0D01*
G01*
X207823124Y-104278000D01*
G75*
G02*
X208098000Y-104552876I0J-274876D01*
G01*
G37*
G36*
G01*
X214241000Y-102520876D02*
X214241000Y-103473124D01*
G75*
G02*
X213966124Y-103748000I-274876J0D01*
G01*
X213388876Y-103748000D01*
G75*
G02*
X213114000Y-103473124I0J274876D01*
G01*
X213114000Y-102520876D01*
G75*
G02*
X213388876Y-102246000I274876J0D01*
G01*
X213966124Y-102246000D01*
G75*
G02*
X214241000Y-102520876I0J-274876D01*
G01*
G37*
G36*
G01*
X216066000Y-102520876D02*
X216066000Y-103473124D01*
G75*
G02*
X215791124Y-103748000I-274876J0D01*
G01*
X215213876Y-103748000D01*
G75*
G02*
X214939000Y-103473124I0J274876D01*
G01*
X214939000Y-102520876D01*
G75*
G02*
X215213876Y-102246000I274876J0D01*
G01*
X215791124Y-102246000D01*
G75*
G02*
X216066000Y-102520876I0J-274876D01*
G01*
G37*
D14*
G36*
X206342732Y-121230000D02*
G01*
X206343000Y-121231000D01*
X206343000Y-122833000D01*
X206342000Y-122834732D01*
X206341000Y-122835000D01*
X206193000Y-122835000D01*
X206191268Y-122834000D01*
X206191000Y-122833000D01*
X206191000Y-121231000D01*
X206192000Y-121229268D01*
X206193000Y-121229000D01*
X206341000Y-121229000D01*
X206342732Y-121230000D01*
G37*
G36*
X202342732Y-121230000D02*
G01*
X202343000Y-121231000D01*
X202343000Y-122833000D01*
X202342000Y-122834732D01*
X202341000Y-122835000D01*
X202193000Y-122835000D01*
X202191268Y-122834000D01*
X202191000Y-122833000D01*
X202191000Y-121231000D01*
X202192000Y-121229268D01*
X202193000Y-121229000D01*
X202341000Y-121229000D01*
X202342732Y-121230000D01*
G37*
G36*
X209542732Y-121230000D02*
G01*
X209543000Y-121231000D01*
X209543000Y-122833000D01*
X209542000Y-122834732D01*
X209541000Y-122835000D01*
X209393000Y-122835000D01*
X209391268Y-122834000D01*
X209391000Y-122833000D01*
X209391000Y-121231000D01*
X209392000Y-121229268D01*
X209393000Y-121229000D01*
X209541000Y-121229000D01*
X209542732Y-121230000D01*
G37*
G36*
X208742732Y-121230000D02*
G01*
X208743000Y-121231000D01*
X208743000Y-122833000D01*
X208742000Y-122834732D01*
X208741000Y-122835000D01*
X208593000Y-122835000D01*
X208591268Y-122834000D01*
X208591000Y-122833000D01*
X208591000Y-121231000D01*
X208592000Y-121229268D01*
X208593000Y-121229000D01*
X208741000Y-121229000D01*
X208742732Y-121230000D01*
G37*
G36*
X203942732Y-121230000D02*
G01*
X203943000Y-121231000D01*
X203943000Y-122833000D01*
X203942000Y-122834732D01*
X203941000Y-122835000D01*
X203793000Y-122835000D01*
X203791268Y-122834000D01*
X203791000Y-122833000D01*
X203791000Y-121231000D01*
X203792000Y-121229268D01*
X203793000Y-121229000D01*
X203941000Y-121229000D01*
X203942732Y-121230000D01*
G37*
G36*
X205542732Y-121230000D02*
G01*
X205543000Y-121231000D01*
X205543000Y-122833000D01*
X205542000Y-122834732D01*
X205541000Y-122835000D01*
X205393000Y-122835000D01*
X205391268Y-122834000D01*
X205391000Y-122833000D01*
X205391000Y-121231000D01*
X205392000Y-121229268D01*
X205393000Y-121229000D01*
X205541000Y-121229000D01*
X205542732Y-121230000D01*
G37*
G36*
X204742732Y-121230000D02*
G01*
X204743000Y-121231000D01*
X204743000Y-122833000D01*
X204742000Y-122834732D01*
X204741000Y-122835000D01*
X204593000Y-122835000D01*
X204591268Y-122834000D01*
X204591000Y-122833000D01*
X204591000Y-121231000D01*
X204592000Y-121229268D01*
X204593000Y-121229000D01*
X204741000Y-121229000D01*
X204742732Y-121230000D01*
G37*
G36*
X207142732Y-121230000D02*
G01*
X207143000Y-121231000D01*
X207143000Y-122833000D01*
X207142000Y-122834732D01*
X207141000Y-122835000D01*
X206993000Y-122835000D01*
X206991268Y-122834000D01*
X206991000Y-122833000D01*
X206991000Y-121231000D01*
X206992000Y-121229268D01*
X206993000Y-121229000D01*
X207141000Y-121229000D01*
X207142732Y-121230000D01*
G37*
G36*
X203142732Y-121230000D02*
G01*
X203143000Y-121231000D01*
X203143000Y-122833000D01*
X203142000Y-122834732D01*
X203141000Y-122835000D01*
X202993000Y-122835000D01*
X202991268Y-122834000D01*
X202991000Y-122833000D01*
X202991000Y-121231000D01*
X202992000Y-121229268D01*
X202993000Y-121229000D01*
X203141000Y-121229000D01*
X203142732Y-121230000D01*
G37*
G36*
X207942732Y-121230000D02*
G01*
X207943000Y-121231000D01*
X207943000Y-122833000D01*
X207942000Y-122834732D01*
X207941000Y-122835000D01*
X207793000Y-122835000D01*
X207791268Y-122834000D01*
X207791000Y-122833000D01*
X207791000Y-121231000D01*
X207792000Y-121229268D01*
X207793000Y-121229000D01*
X207941000Y-121229000D01*
X207942732Y-121230000D01*
G37*
G36*
X200969732Y-119857000D02*
G01*
X200970000Y-119858000D01*
X200970000Y-120006000D01*
X200969000Y-120007732D01*
X200968000Y-120008000D01*
X199366000Y-120008000D01*
X199364268Y-120007000D01*
X199364000Y-120006000D01*
X199364000Y-119858000D01*
X199365000Y-119856268D01*
X199366000Y-119856000D01*
X200968000Y-119856000D01*
X200969732Y-119857000D01*
G37*
G36*
X212369732Y-119857000D02*
G01*
X212370000Y-119858000D01*
X212370000Y-120006000D01*
X212369000Y-120007732D01*
X212368000Y-120008000D01*
X210766000Y-120008000D01*
X210764268Y-120007000D01*
X210764000Y-120006000D01*
X210764000Y-119858000D01*
X210765000Y-119856268D01*
X210766000Y-119856000D01*
X212368000Y-119856000D01*
X212369732Y-119857000D01*
G37*
G36*
X212369732Y-119057000D02*
G01*
X212370000Y-119058000D01*
X212370000Y-119206000D01*
X212369000Y-119207732D01*
X212368000Y-119208000D01*
X210766000Y-119208000D01*
X210764268Y-119207000D01*
X210764000Y-119206000D01*
X210764000Y-119058000D01*
X210765000Y-119056268D01*
X210766000Y-119056000D01*
X212368000Y-119056000D01*
X212369732Y-119057000D01*
G37*
G36*
X200969732Y-119057000D02*
G01*
X200970000Y-119058000D01*
X200970000Y-119206000D01*
X200969000Y-119207732D01*
X200968000Y-119208000D01*
X199366000Y-119208000D01*
X199364268Y-119207000D01*
X199364000Y-119206000D01*
X199364000Y-119058000D01*
X199365000Y-119056268D01*
X199366000Y-119056000D01*
X200968000Y-119056000D01*
X200969732Y-119057000D01*
G37*
G36*
X212369732Y-118257000D02*
G01*
X212370000Y-118258000D01*
X212370000Y-118406000D01*
X212369000Y-118407732D01*
X212368000Y-118408000D01*
X210766000Y-118408000D01*
X210764268Y-118407000D01*
X210764000Y-118406000D01*
X210764000Y-118258000D01*
X210765000Y-118256268D01*
X210766000Y-118256000D01*
X212368000Y-118256000D01*
X212369732Y-118257000D01*
G37*
G36*
X200969732Y-118257000D02*
G01*
X200970000Y-118258000D01*
X200970000Y-118406000D01*
X200969000Y-118407732D01*
X200968000Y-118408000D01*
X199366000Y-118408000D01*
X199364268Y-118407000D01*
X199364000Y-118406000D01*
X199364000Y-118258000D01*
X199365000Y-118256268D01*
X199366000Y-118256000D01*
X200968000Y-118256000D01*
X200969732Y-118257000D01*
G37*
G36*
X212369732Y-117457000D02*
G01*
X212370000Y-117458000D01*
X212370000Y-117606000D01*
X212369000Y-117607732D01*
X212368000Y-117608000D01*
X210766000Y-117608000D01*
X210764268Y-117607000D01*
X210764000Y-117606000D01*
X210764000Y-117458000D01*
X210765000Y-117456268D01*
X210766000Y-117456000D01*
X212368000Y-117456000D01*
X212369732Y-117457000D01*
G37*
G36*
X200969732Y-117457000D02*
G01*
X200970000Y-117458000D01*
X200970000Y-117606000D01*
X200969000Y-117607732D01*
X200968000Y-117608000D01*
X199366000Y-117608000D01*
X199364268Y-117607000D01*
X199364000Y-117606000D01*
X199364000Y-117458000D01*
X199365000Y-117456268D01*
X199366000Y-117456000D01*
X200968000Y-117456000D01*
X200969732Y-117457000D01*
G37*
G36*
X200969732Y-116657000D02*
G01*
X200970000Y-116658000D01*
X200970000Y-116806000D01*
X200969000Y-116807732D01*
X200968000Y-116808000D01*
X199366000Y-116808000D01*
X199364268Y-116807000D01*
X199364000Y-116806000D01*
X199364000Y-116658000D01*
X199365000Y-116656268D01*
X199366000Y-116656000D01*
X200968000Y-116656000D01*
X200969732Y-116657000D01*
G37*
G36*
X212369732Y-116657000D02*
G01*
X212370000Y-116658000D01*
X212370000Y-116806000D01*
X212369000Y-116807732D01*
X212368000Y-116808000D01*
X210766000Y-116808000D01*
X210764268Y-116807000D01*
X210764000Y-116806000D01*
X210764000Y-116658000D01*
X210765000Y-116656268D01*
X210766000Y-116656000D01*
X212368000Y-116656000D01*
X212369732Y-116657000D01*
G37*
G36*
X200969732Y-115857000D02*
G01*
X200970000Y-115858000D01*
X200970000Y-116006000D01*
X200969000Y-116007732D01*
X200968000Y-116008000D01*
X199366000Y-116008000D01*
X199364268Y-116007000D01*
X199364000Y-116006000D01*
X199364000Y-115858000D01*
X199365000Y-115856268D01*
X199366000Y-115856000D01*
X200968000Y-115856000D01*
X200969732Y-115857000D01*
G37*
G36*
X212369732Y-115857000D02*
G01*
X212370000Y-115858000D01*
X212370000Y-116006000D01*
X212369000Y-116007732D01*
X212368000Y-116008000D01*
X210766000Y-116008000D01*
X210764268Y-116007000D01*
X210764000Y-116006000D01*
X210764000Y-115858000D01*
X210765000Y-115856268D01*
X210766000Y-115856000D01*
X212368000Y-115856000D01*
X212369732Y-115857000D01*
G37*
G36*
X212369732Y-115057000D02*
G01*
X212370000Y-115058000D01*
X212370000Y-115206000D01*
X212369000Y-115207732D01*
X212368000Y-115208000D01*
X210766000Y-115208000D01*
X210764268Y-115207000D01*
X210764000Y-115206000D01*
X210764000Y-115058000D01*
X210765000Y-115056268D01*
X210766000Y-115056000D01*
X212368000Y-115056000D01*
X212369732Y-115057000D01*
G37*
G36*
X200969732Y-115057000D02*
G01*
X200970000Y-115058000D01*
X200970000Y-115206000D01*
X200969000Y-115207732D01*
X200968000Y-115208000D01*
X199366000Y-115208000D01*
X199364268Y-115207000D01*
X199364000Y-115206000D01*
X199364000Y-115058000D01*
X199365000Y-115056268D01*
X199366000Y-115056000D01*
X200968000Y-115056000D01*
X200969732Y-115057000D01*
G37*
G36*
X212369732Y-114257000D02*
G01*
X212370000Y-114258000D01*
X212370000Y-114406000D01*
X212369000Y-114407732D01*
X212368000Y-114408000D01*
X210766000Y-114408000D01*
X210764268Y-114407000D01*
X210764000Y-114406000D01*
X210764000Y-114258000D01*
X210765000Y-114256268D01*
X210766000Y-114256000D01*
X212368000Y-114256000D01*
X212369732Y-114257000D01*
G37*
G36*
X200969732Y-114257000D02*
G01*
X200970000Y-114258000D01*
X200970000Y-114406000D01*
X200969000Y-114407732D01*
X200968000Y-114408000D01*
X199366000Y-114408000D01*
X199364268Y-114407000D01*
X199364000Y-114406000D01*
X199364000Y-114258000D01*
X199365000Y-114256268D01*
X199366000Y-114256000D01*
X200968000Y-114256000D01*
X200969732Y-114257000D01*
G37*
G36*
X212369732Y-113457000D02*
G01*
X212370000Y-113458000D01*
X212370000Y-113606000D01*
X212369000Y-113607732D01*
X212368000Y-113608000D01*
X210766000Y-113608000D01*
X210764268Y-113607000D01*
X210764000Y-113606000D01*
X210764000Y-113458000D01*
X210765000Y-113456268D01*
X210766000Y-113456000D01*
X212368000Y-113456000D01*
X212369732Y-113457000D01*
G37*
G36*
X200969732Y-113457000D02*
G01*
X200970000Y-113458000D01*
X200970000Y-113606000D01*
X200969000Y-113607732D01*
X200968000Y-113608000D01*
X199366000Y-113608000D01*
X199364268Y-113607000D01*
X199364000Y-113606000D01*
X199364000Y-113458000D01*
X199365000Y-113456268D01*
X199366000Y-113456000D01*
X200968000Y-113456000D01*
X200969732Y-113457000D01*
G37*
G36*
X200969732Y-112657000D02*
G01*
X200970000Y-112658000D01*
X200970000Y-112806000D01*
X200969000Y-112807732D01*
X200968000Y-112808000D01*
X199366000Y-112808000D01*
X199364268Y-112807000D01*
X199364000Y-112806000D01*
X199364000Y-112658000D01*
X199365000Y-112656268D01*
X199366000Y-112656000D01*
X200968000Y-112656000D01*
X200969732Y-112657000D01*
G37*
G36*
X212369732Y-112657000D02*
G01*
X212370000Y-112658000D01*
X212370000Y-112806000D01*
X212369000Y-112807732D01*
X212368000Y-112808000D01*
X210766000Y-112808000D01*
X210764268Y-112807000D01*
X210764000Y-112806000D01*
X210764000Y-112658000D01*
X210765000Y-112656268D01*
X210766000Y-112656000D01*
X212368000Y-112656000D01*
X212369732Y-112657000D01*
G37*
G36*
X202342732Y-109830000D02*
G01*
X202343000Y-109831000D01*
X202343000Y-111433000D01*
X202342000Y-111434732D01*
X202341000Y-111435000D01*
X202193000Y-111435000D01*
X202191268Y-111434000D01*
X202191000Y-111433000D01*
X202191000Y-109831000D01*
X202192000Y-109829268D01*
X202193000Y-109829000D01*
X202341000Y-109829000D01*
X202342732Y-109830000D01*
G37*
G36*
X204742732Y-109830000D02*
G01*
X204743000Y-109831000D01*
X204743000Y-111433000D01*
X204742000Y-111434732D01*
X204741000Y-111435000D01*
X204593000Y-111435000D01*
X204591268Y-111434000D01*
X204591000Y-111433000D01*
X204591000Y-109831000D01*
X204592000Y-109829268D01*
X204593000Y-109829000D01*
X204741000Y-109829000D01*
X204742732Y-109830000D01*
G37*
G36*
X203142732Y-109830000D02*
G01*
X203143000Y-109831000D01*
X203143000Y-111433000D01*
X203142000Y-111434732D01*
X203141000Y-111435000D01*
X202993000Y-111435000D01*
X202991268Y-111434000D01*
X202991000Y-111433000D01*
X202991000Y-109831000D01*
X202992000Y-109829268D01*
X202993000Y-109829000D01*
X203141000Y-109829000D01*
X203142732Y-109830000D01*
G37*
G36*
X203942732Y-109830000D02*
G01*
X203943000Y-109831000D01*
X203943000Y-111433000D01*
X203942000Y-111434732D01*
X203941000Y-111435000D01*
X203793000Y-111435000D01*
X203791268Y-111434000D01*
X203791000Y-111433000D01*
X203791000Y-109831000D01*
X203792000Y-109829268D01*
X203793000Y-109829000D01*
X203941000Y-109829000D01*
X203942732Y-109830000D01*
G37*
G36*
X209542732Y-109830000D02*
G01*
X209543000Y-109831000D01*
X209543000Y-111433000D01*
X209542000Y-111434732D01*
X209541000Y-111435000D01*
X209393000Y-111435000D01*
X209391268Y-111434000D01*
X209391000Y-111433000D01*
X209391000Y-109831000D01*
X209392000Y-109829268D01*
X209393000Y-109829000D01*
X209541000Y-109829000D01*
X209542732Y-109830000D01*
G37*
G36*
X208742732Y-109830000D02*
G01*
X208743000Y-109831000D01*
X208743000Y-111433000D01*
X208742000Y-111434732D01*
X208741000Y-111435000D01*
X208593000Y-111435000D01*
X208591268Y-111434000D01*
X208591000Y-111433000D01*
X208591000Y-109831000D01*
X208592000Y-109829268D01*
X208593000Y-109829000D01*
X208741000Y-109829000D01*
X208742732Y-109830000D01*
G37*
G36*
X207942732Y-109830000D02*
G01*
X207943000Y-109831000D01*
X207943000Y-111433000D01*
X207942000Y-111434732D01*
X207941000Y-111435000D01*
X207793000Y-111435000D01*
X207791268Y-111434000D01*
X207791000Y-111433000D01*
X207791000Y-109831000D01*
X207792000Y-109829268D01*
X207793000Y-109829000D01*
X207941000Y-109829000D01*
X207942732Y-109830000D01*
G37*
G36*
X207142732Y-109830000D02*
G01*
X207143000Y-109831000D01*
X207143000Y-111433000D01*
X207142000Y-111434732D01*
X207141000Y-111435000D01*
X206993000Y-111435000D01*
X206991268Y-111434000D01*
X206991000Y-111433000D01*
X206991000Y-109831000D01*
X206992000Y-109829268D01*
X206993000Y-109829000D01*
X207141000Y-109829000D01*
X207142732Y-109830000D01*
G37*
G36*
X206342732Y-109830000D02*
G01*
X206343000Y-109831000D01*
X206343000Y-111433000D01*
X206342000Y-111434732D01*
X206341000Y-111435000D01*
X206193000Y-111435000D01*
X206191268Y-111434000D01*
X206191000Y-111433000D01*
X206191000Y-109831000D01*
X206192000Y-109829268D01*
X206193000Y-109829000D01*
X206341000Y-109829000D01*
X206342732Y-109830000D01*
G37*
G36*
X205542732Y-109830000D02*
G01*
X205543000Y-109831000D01*
X205543000Y-111433000D01*
X205542000Y-111434732D01*
X205541000Y-111435000D01*
X205393000Y-111435000D01*
X205391268Y-111434000D01*
X205391000Y-111433000D01*
X205391000Y-109831000D01*
X205392000Y-109829268D01*
X205393000Y-109829000D01*
X205541000Y-109829000D01*
X205542732Y-109830000D01*
G37*
G36*
X168110165Y-96787375D02*
G01*
X168111000Y-96789001D01*
X168111000Y-98839000D01*
X168115999Y-98839000D01*
X168117731Y-98840000D01*
X168117731Y-98842000D01*
X168116195Y-98842990D01*
X168092008Y-98845372D01*
X168068933Y-98852372D01*
X168063522Y-98855264D01*
X168062579Y-98855500D01*
X167991000Y-98855500D01*
X167989268Y-98854500D01*
X167989000Y-98853500D01*
X167989000Y-96928500D01*
X167891000Y-96928500D01*
X167889268Y-96927500D01*
X167889000Y-96926500D01*
X167889000Y-96914000D01*
X167890000Y-96912268D01*
X167891000Y-96912000D01*
X167983907Y-96912000D01*
X168007992Y-96909628D01*
X168031067Y-96902628D01*
X168052331Y-96891263D01*
X168070968Y-96875968D01*
X168086263Y-96857331D01*
X168097628Y-96836067D01*
X168104628Y-96812992D01*
X168107010Y-96788805D01*
X168108175Y-96787179D01*
X168110165Y-96787375D01*
G37*
G36*
X179099333Y-97898097D02*
G01*
X179105252Y-97901261D01*
X179114445Y-97904050D01*
X179124094Y-97905000D01*
X181523906Y-97905000D01*
X181533555Y-97904050D01*
X181542748Y-97901261D01*
X181548668Y-97898097D01*
X181550667Y-97898163D01*
X181551610Y-97899927D01*
X181550880Y-97901407D01*
X181545304Y-97905983D01*
X181545146Y-97906100D01*
X181541973Y-97908220D01*
X181524926Y-97925267D01*
X181511532Y-97945315D01*
X181502323Y-97967546D01*
X181497000Y-98003435D01*
X181497000Y-98080000D01*
X181496000Y-98081732D01*
X181495000Y-98082000D01*
X181155000Y-98082000D01*
X181155000Y-98782000D01*
X181154000Y-98783732D01*
X181153000Y-98784000D01*
X180995000Y-98784000D01*
X180993268Y-98783000D01*
X180993000Y-98782000D01*
X180993000Y-98082000D01*
X180655000Y-98082000D01*
X180655000Y-98782000D01*
X180654000Y-98783732D01*
X180653000Y-98784000D01*
X180495000Y-98784000D01*
X180493268Y-98783000D01*
X180493000Y-98782000D01*
X180493000Y-98082000D01*
X180155000Y-98082000D01*
X180155000Y-98782000D01*
X180154000Y-98783732D01*
X180153000Y-98784000D01*
X179995000Y-98784000D01*
X179993268Y-98783000D01*
X179993000Y-98782000D01*
X179993000Y-98082000D01*
X179655000Y-98082000D01*
X179655000Y-98782000D01*
X179654000Y-98783732D01*
X179653000Y-98784000D01*
X179495000Y-98784000D01*
X179493268Y-98783000D01*
X179493000Y-98782000D01*
X179493000Y-98082000D01*
X179153000Y-98082000D01*
X179151268Y-98081000D01*
X179151000Y-98080000D01*
X179151000Y-98003384D01*
X179148628Y-97979299D01*
X179141628Y-97956224D01*
X179130263Y-97934960D01*
X179114998Y-97916359D01*
X179103753Y-97908020D01*
X179102965Y-97906204D01*
X179097121Y-97901407D01*
X179096417Y-97899535D01*
X179097686Y-97897989D01*
X179099333Y-97898097D01*
G37*
G36*
X182059649Y-96943694D02*
G01*
X182059222Y-96945289D01*
X182053908Y-96951765D01*
X182053776Y-96951910D01*
X182052698Y-96952988D01*
X182039306Y-96973037D01*
X182030083Y-96995312D01*
X182025381Y-97018963D01*
X182025384Y-97043069D01*
X182030091Y-97066717D01*
X182039322Y-97088993D01*
X182052719Y-97109037D01*
X182053793Y-97110111D01*
X182053925Y-97110256D01*
X182059223Y-97116711D01*
X182059549Y-97118684D01*
X182058003Y-97119953D01*
X182056408Y-97119526D01*
X182051218Y-97115266D01*
X182042748Y-97110739D01*
X182033555Y-97107950D01*
X182023906Y-97107000D01*
X181575000Y-97107000D01*
X181573268Y-97106000D01*
X181573000Y-97105000D01*
X181573000Y-96957000D01*
X181574000Y-96955268D01*
X181575000Y-96955000D01*
X182023906Y-96955000D01*
X182033555Y-96954050D01*
X182042748Y-96951261D01*
X182051218Y-96946734D01*
X182056407Y-96942474D01*
X182058380Y-96942148D01*
X182059649Y-96943694D01*
G37*
G36*
X178591592Y-96942474D02*
G01*
X178596782Y-96946734D01*
X178605252Y-96951261D01*
X178614445Y-96954050D01*
X178624094Y-96955000D01*
X179073000Y-96955000D01*
X179074732Y-96956000D01*
X179075000Y-96957000D01*
X179075000Y-97105000D01*
X179074000Y-97106732D01*
X179073000Y-97107000D01*
X178624094Y-97107000D01*
X178614445Y-97107950D01*
X178605252Y-97110739D01*
X178596782Y-97115266D01*
X178591593Y-97119526D01*
X178589620Y-97119852D01*
X178588351Y-97118306D01*
X178588778Y-97116711D01*
X178594092Y-97110235D01*
X178594224Y-97110090D01*
X178595302Y-97109012D01*
X178608694Y-97088963D01*
X178617917Y-97066688D01*
X178622619Y-97043037D01*
X178622616Y-97018931D01*
X178617909Y-96995283D01*
X178608678Y-96973007D01*
X178595281Y-96952963D01*
X178594207Y-96951889D01*
X178594075Y-96951744D01*
X178588777Y-96945289D01*
X178588451Y-96943316D01*
X178589997Y-96942047D01*
X178591592Y-96942474D01*
G37*
G36*
X179654732Y-95279000D02*
G01*
X179655000Y-95280000D01*
X179655000Y-95980000D01*
X179993000Y-95980000D01*
X179993000Y-95280000D01*
X179994000Y-95278268D01*
X179995000Y-95278000D01*
X180153000Y-95278000D01*
X180154732Y-95279000D01*
X180155000Y-95280000D01*
X180155000Y-95980000D01*
X180493000Y-95980000D01*
X180493000Y-95280000D01*
X180494000Y-95278268D01*
X180495000Y-95278000D01*
X180653000Y-95278000D01*
X180654732Y-95279000D01*
X180655000Y-95280000D01*
X180655000Y-95980000D01*
X180993000Y-95980000D01*
X180993000Y-95280000D01*
X180994000Y-95278268D01*
X180995000Y-95278000D01*
X181153000Y-95278000D01*
X181154732Y-95279000D01*
X181155000Y-95280000D01*
X181155000Y-95980000D01*
X181495000Y-95980000D01*
X181496732Y-95981000D01*
X181497000Y-95982000D01*
X181497000Y-96058616D01*
X181499372Y-96082701D01*
X181506372Y-96105776D01*
X181517737Y-96127040D01*
X181533002Y-96145641D01*
X181544247Y-96153980D01*
X181545035Y-96155796D01*
X181550879Y-96160593D01*
X181551583Y-96162465D01*
X181550314Y-96164011D01*
X181548667Y-96163903D01*
X181542748Y-96160739D01*
X181533555Y-96157950D01*
X181523906Y-96157000D01*
X179124094Y-96157000D01*
X179114445Y-96157950D01*
X179105252Y-96160739D01*
X179099332Y-96163903D01*
X179097333Y-96163837D01*
X179096390Y-96162073D01*
X179097120Y-96160593D01*
X179102696Y-96156017D01*
X179102854Y-96155900D01*
X179106027Y-96153780D01*
X179123074Y-96136733D01*
X179136468Y-96116685D01*
X179145677Y-96094454D01*
X179151000Y-96058565D01*
X179151000Y-95982000D01*
X179152000Y-95980268D01*
X179153000Y-95980000D01*
X179493000Y-95980000D01*
X179493000Y-95280000D01*
X179494000Y-95278268D01*
X179495000Y-95278000D01*
X179653000Y-95278000D01*
X179654732Y-95279000D01*
G37*
G36*
X169667732Y-95790000D02*
G01*
X169668000Y-95791000D01*
X169668000Y-95939000D01*
X169667000Y-95940732D01*
X169666000Y-95941000D01*
X167914000Y-95941000D01*
X167912268Y-95940000D01*
X167912000Y-95939000D01*
X167912000Y-95791000D01*
X167913000Y-95789268D01*
X167914000Y-95789000D01*
X169666000Y-95789000D01*
X169667732Y-95790000D01*
G37*
G36*
X169667732Y-95140000D02*
G01*
X169668000Y-95141000D01*
X169668000Y-95289000D01*
X169667000Y-95290732D01*
X169666000Y-95291000D01*
X167914000Y-95291000D01*
X167912268Y-95290000D01*
X167912000Y-95289000D01*
X167912000Y-95141000D01*
X167913000Y-95139268D01*
X167914000Y-95139000D01*
X169666000Y-95139000D01*
X169667732Y-95140000D01*
G37*
G36*
X169667732Y-94490000D02*
G01*
X169668000Y-94491000D01*
X169668000Y-94639000D01*
X169667000Y-94640732D01*
X169666000Y-94641000D01*
X167914000Y-94641000D01*
X167912268Y-94640000D01*
X167912000Y-94639000D01*
X167912000Y-94491000D01*
X167913000Y-94489268D01*
X167914000Y-94489000D01*
X169666000Y-94489000D01*
X169667732Y-94490000D01*
G37*
G36*
X203011732Y-94091000D02*
G01*
X203012000Y-94092000D01*
X203012000Y-94365899D01*
X203011000Y-94367631D01*
X203009000Y-94367631D01*
X203008010Y-94366095D01*
X203005628Y-94341908D01*
X202998628Y-94318833D01*
X202987263Y-94297569D01*
X202971968Y-94278932D01*
X202953331Y-94263637D01*
X202932067Y-94252272D01*
X202908992Y-94245272D01*
X202885001Y-94242909D01*
X202861010Y-94245272D01*
X202837935Y-94252272D01*
X202816671Y-94263637D01*
X202797888Y-94279052D01*
X202795914Y-94279378D01*
X202794646Y-94277832D01*
X202795205Y-94276092D01*
X202980711Y-94090586D01*
X202982125Y-94090000D01*
X203010000Y-94090000D01*
X203011732Y-94091000D01*
G37*
G36*
X203713732Y-93941000D02*
G01*
X203714000Y-93942000D01*
X203714000Y-94040000D01*
X203713000Y-94041732D01*
X203712000Y-94042000D01*
X203034125Y-94042000D01*
X203032393Y-94041000D01*
X203032711Y-94038586D01*
X203079297Y-93992000D01*
X203012000Y-93992000D01*
X203010268Y-93991000D01*
X203010000Y-93990000D01*
X203010000Y-93942000D01*
X203011000Y-93940268D01*
X203012000Y-93940000D01*
X203712000Y-93940000D01*
X203713732Y-93941000D01*
G37*
G36*
X201611732Y-93941000D02*
G01*
X201612000Y-93942000D01*
X201612000Y-93990000D01*
X201611000Y-93991732D01*
X201610000Y-93992000D01*
X201542703Y-93992000D01*
X201589289Y-94038586D01*
X201589807Y-94040518D01*
X201587875Y-94042000D01*
X200910000Y-94042000D01*
X200908268Y-94041000D01*
X200908000Y-94040000D01*
X200908000Y-93942000D01*
X200909000Y-93940268D01*
X200910000Y-93940000D01*
X201610000Y-93940000D01*
X201611732Y-93941000D01*
G37*
G36*
X169667732Y-93840000D02*
G01*
X169668000Y-93841000D01*
X169668000Y-93989000D01*
X169667000Y-93990732D01*
X169666000Y-93991000D01*
X167914000Y-93991000D01*
X167912268Y-93990000D01*
X167912000Y-93989000D01*
X167912000Y-93841000D01*
X167913000Y-93839268D01*
X167914000Y-93839000D01*
X169666000Y-93839000D01*
X169667732Y-93840000D01*
G37*
G36*
X201611732Y-93341000D02*
G01*
X201612000Y-93342000D01*
X201612000Y-93440000D01*
X201611000Y-93441732D01*
X201610000Y-93442000D01*
X200910000Y-93442000D01*
X200908268Y-93441000D01*
X200908000Y-93440000D01*
X200908000Y-93342000D01*
X200909000Y-93340268D01*
X200910000Y-93340000D01*
X201610000Y-93340000D01*
X201611732Y-93341000D01*
G37*
G36*
X203713732Y-93341000D02*
G01*
X203714000Y-93342000D01*
X203714000Y-93440000D01*
X203713000Y-93441732D01*
X203712000Y-93442000D01*
X203012000Y-93442000D01*
X203010268Y-93441000D01*
X203010000Y-93440000D01*
X203010000Y-93342000D01*
X203011000Y-93340268D01*
X203012000Y-93340000D01*
X203712000Y-93340000D01*
X203713732Y-93341000D01*
G37*
G36*
X169692732Y-93090000D02*
G01*
X169693000Y-93091000D01*
X169693000Y-93141759D01*
X169692546Y-93143028D01*
X169688737Y-93147669D01*
X169677372Y-93168933D01*
X169670372Y-93192008D01*
X169668000Y-93216093D01*
X169668000Y-93339000D01*
X169667000Y-93340732D01*
X169666000Y-93341000D01*
X167964001Y-93341000D01*
X167962269Y-93340000D01*
X167962269Y-93338000D01*
X167963805Y-93337010D01*
X167987992Y-93334628D01*
X168011067Y-93327628D01*
X168032331Y-93316263D01*
X168050968Y-93300968D01*
X168066263Y-93282331D01*
X168077628Y-93261067D01*
X168084628Y-93237992D01*
X168087000Y-93213907D01*
X168087000Y-93091000D01*
X168088000Y-93089268D01*
X168089000Y-93089000D01*
X169691000Y-93089000D01*
X169692732Y-93090000D01*
G37*
G36*
X194146731Y-92856000D02*
G01*
X194146731Y-92858000D01*
X194145195Y-92858990D01*
X194121008Y-92861372D01*
X194097933Y-92868372D01*
X194076669Y-92879737D01*
X194058032Y-92895032D01*
X194042737Y-92913669D01*
X194031372Y-92934933D01*
X194024372Y-92958008D01*
X194022000Y-92982093D01*
X194022000Y-93055000D01*
X194021000Y-93056732D01*
X194020000Y-93057000D01*
X193518000Y-93057000D01*
X193516268Y-93056000D01*
X193516000Y-93055000D01*
X193516000Y-92982093D01*
X193513628Y-92958008D01*
X193506628Y-92934933D01*
X193495263Y-92913669D01*
X193479968Y-92895032D01*
X193461331Y-92879737D01*
X193440067Y-92868372D01*
X193416992Y-92861372D01*
X193392805Y-92858990D01*
X193391179Y-92857825D01*
X193391375Y-92855835D01*
X193393001Y-92855000D01*
X194144999Y-92855000D01*
X194146731Y-92856000D01*
G37*
G36*
X193196731Y-92856000D02*
G01*
X193196731Y-92858000D01*
X193195195Y-92858990D01*
X193171008Y-92861372D01*
X193147933Y-92868372D01*
X193126669Y-92879737D01*
X193108032Y-92895032D01*
X193092737Y-92913669D01*
X193081372Y-92934933D01*
X193074372Y-92958008D01*
X193072000Y-92982093D01*
X193072000Y-93055000D01*
X193071000Y-93056732D01*
X193070000Y-93057000D01*
X192568000Y-93057000D01*
X192566268Y-93056000D01*
X192566000Y-93055000D01*
X192566000Y-92982093D01*
X192563628Y-92958008D01*
X192556628Y-92934933D01*
X192545263Y-92913669D01*
X192529968Y-92895032D01*
X192511331Y-92879737D01*
X192490067Y-92868372D01*
X192466992Y-92861372D01*
X192442805Y-92858990D01*
X192441179Y-92857825D01*
X192441375Y-92855835D01*
X192443001Y-92855000D01*
X193194999Y-92855000D01*
X193196731Y-92856000D01*
G37*
G36*
X168063522Y-90974736D02*
G01*
X168068933Y-90977628D01*
X168092008Y-90984628D01*
X168116195Y-90987010D01*
X168117821Y-90988175D01*
X168117625Y-90990165D01*
X168115999Y-90991000D01*
X168091000Y-90991000D01*
X168091000Y-93028499D01*
X168090000Y-93030231D01*
X168088000Y-93030231D01*
X168087010Y-93028695D01*
X168084628Y-93004508D01*
X168077628Y-92981433D01*
X168066263Y-92960169D01*
X168050968Y-92941532D01*
X168032331Y-92926237D01*
X168011067Y-92914872D01*
X167987992Y-92907872D01*
X167963805Y-92905490D01*
X167962179Y-92904325D01*
X167962375Y-92902335D01*
X167964001Y-92901500D01*
X167989000Y-92901500D01*
X167989000Y-90976500D01*
X167990000Y-90974768D01*
X167991000Y-90974500D01*
X168062579Y-90974500D01*
X168063522Y-90974736D01*
G37*
G36*
X201611732Y-92741000D02*
G01*
X201612000Y-92742000D01*
X201612000Y-92840000D01*
X201611000Y-92841732D01*
X201610000Y-92842000D01*
X200910000Y-92842000D01*
X200908268Y-92841000D01*
X200908000Y-92840000D01*
X200908000Y-92742000D01*
X200909000Y-92740268D01*
X200910000Y-92740000D01*
X201610000Y-92740000D01*
X201611732Y-92741000D01*
G37*
G36*
X203713732Y-92741000D02*
G01*
X203714000Y-92742000D01*
X203714000Y-92840000D01*
X203713000Y-92841732D01*
X203712000Y-92842000D01*
X203012000Y-92842000D01*
X203010268Y-92841000D01*
X203010000Y-92840000D01*
X203010000Y-92742000D01*
X203011000Y-92740268D01*
X203012000Y-92740000D01*
X203712000Y-92740000D01*
X203713732Y-92741000D01*
G37*
G36*
X201611732Y-92141000D02*
G01*
X201612000Y-92142000D01*
X201612000Y-92240000D01*
X201611000Y-92241732D01*
X201610000Y-92242000D01*
X200910000Y-92242000D01*
X200908268Y-92241000D01*
X200908000Y-92240000D01*
X200908000Y-92142000D01*
X200909000Y-92140268D01*
X200910000Y-92140000D01*
X201610000Y-92140000D01*
X201611732Y-92141000D01*
G37*
G36*
X203713732Y-92141000D02*
G01*
X203714000Y-92142000D01*
X203714000Y-92240000D01*
X203713000Y-92241732D01*
X203712000Y-92242000D01*
X203012000Y-92242000D01*
X203010268Y-92241000D01*
X203010000Y-92240000D01*
X203010000Y-92142000D01*
X203011000Y-92140268D01*
X203012000Y-92140000D01*
X203712000Y-92140000D01*
X203713732Y-92141000D01*
G37*
G36*
X193071732Y-91856000D02*
G01*
X193072000Y-91857000D01*
X193072000Y-91929907D01*
X193074372Y-91953992D01*
X193081372Y-91977067D01*
X193092737Y-91998331D01*
X193108032Y-92016968D01*
X193126669Y-92032263D01*
X193147933Y-92043628D01*
X193171008Y-92050628D01*
X193195195Y-92053010D01*
X193196821Y-92054175D01*
X193196625Y-92056165D01*
X193194999Y-92057000D01*
X192443001Y-92057000D01*
X192441269Y-92056000D01*
X192441269Y-92054000D01*
X192442805Y-92053010D01*
X192466992Y-92050628D01*
X192490067Y-92043628D01*
X192511331Y-92032263D01*
X192529968Y-92016968D01*
X192545263Y-91998331D01*
X192556628Y-91977067D01*
X192563628Y-91953992D01*
X192566000Y-91929907D01*
X192566000Y-91857000D01*
X192567000Y-91855268D01*
X192568000Y-91855000D01*
X193070000Y-91855000D01*
X193071732Y-91856000D01*
G37*
G36*
X194021732Y-91856000D02*
G01*
X194022000Y-91857000D01*
X194022000Y-91929907D01*
X194024372Y-91953992D01*
X194031372Y-91977067D01*
X194042737Y-91998331D01*
X194058032Y-92016968D01*
X194076669Y-92032263D01*
X194097933Y-92043628D01*
X194121008Y-92050628D01*
X194145195Y-92053010D01*
X194146821Y-92054175D01*
X194146625Y-92056165D01*
X194144999Y-92057000D01*
X193393001Y-92057000D01*
X193391269Y-92056000D01*
X193391269Y-92054000D01*
X193392805Y-92053010D01*
X193416992Y-92050628D01*
X193440067Y-92043628D01*
X193461331Y-92032263D01*
X193479968Y-92016968D01*
X193495263Y-91998331D01*
X193506628Y-91977067D01*
X193513628Y-91953992D01*
X193516000Y-91929907D01*
X193516000Y-91857000D01*
X193517000Y-91855268D01*
X193518000Y-91855000D01*
X194020000Y-91855000D01*
X194021732Y-91856000D01*
G37*
M02*
