%FSLAX45Y45*%
G04 Gerber Fmt 4.5, Leading zero omitted, Abs format (unit mm)*
G04 Created by KiCad (PCBNEW (5.1.9)-1) date 2021-06-14 08:33:28*
%MOMM*%
%LPD*%
G01*
G04 APERTURE LIST*
%TA.AperFunction,Profile*%
%ADD10C,0.050000*%
%TD*%
%ADD11C,0.200000*%
%ADD12C,0.300000*%
G04 APERTURE END LIST*
D10*
X23228300Y-13779500D02*
X23228300Y-14224000D01*
X23228300Y-13042900D02*
X23228300Y-13779500D01*
X16344900Y-13931900D02*
X16344900Y-7975600D01*
X16344900Y-7861300D02*
X23228300Y-7861300D01*
X16344900Y-7975600D02*
X16344900Y-7861300D01*
X23228300Y-14630400D02*
X23228300Y-14668500D01*
X21285200Y-14668500D02*
X17195800Y-14668500D01*
X23228300Y-7861300D02*
X23228300Y-8343900D01*
X23228300Y-9982200D02*
X23228300Y-10617200D01*
X22136100Y-14668500D02*
X21285200Y-14668500D01*
X16344900Y-14668500D02*
X16344900Y-13931900D01*
X17195800Y-14668500D02*
X16344900Y-14668500D01*
X23228300Y-8343900D02*
X23228300Y-9055100D01*
X23228300Y-12077700D02*
X23228300Y-13042900D01*
X23228300Y-10617200D02*
X23228300Y-11353800D01*
X23228300Y-14668500D02*
X22136100Y-14668500D01*
X23228300Y-11353800D02*
X23228300Y-12077700D01*
X23228300Y-14503400D02*
X23228300Y-14630400D01*
X23228300Y-9055100D02*
X23228300Y-9982200D01*
X23228300Y-14224000D02*
X23228300Y-14503400D01*
D11*
X17927400Y-9693100D02*
X17947400Y-9713100D01*
X17947400Y-9693100D02*
X17927400Y-9713100D01*
X18022400Y-9635600D02*
X18042400Y-9655600D01*
X18042400Y-9635600D02*
X18022400Y-9655600D01*
X18022400Y-9750600D02*
X18042400Y-9770600D01*
X18042400Y-9750600D02*
X18022400Y-9770600D01*
X18117400Y-9693100D02*
X18137400Y-9713100D01*
X18137400Y-9693100D02*
X18117400Y-9713100D01*
X16479300Y-8140700D02*
G75*
G03*
X16479300Y-8140700I-20000J0D01*
G01*
X16479300Y-14389100D02*
G75*
G03*
X16479300Y-14389100I-20000J0D01*
G01*
X16527627Y-8024027D02*
G75*
G03*
X16527627Y-8024027I-20000J0D01*
G01*
X16527627Y-8257373D02*
G75*
G03*
X16527627Y-8257373I-20000J0D01*
G01*
X16527627Y-14272427D02*
G75*
G03*
X16527627Y-14272427I-20000J0D01*
G01*
X16527627Y-14505773D02*
G75*
G03*
X16527627Y-14505773I-20000J0D01*
G01*
X16644300Y-7975700D02*
G75*
G03*
X16644300Y-7975700I-20000J0D01*
G01*
X16644300Y-8305700D02*
G75*
G03*
X16644300Y-8305700I-20000J0D01*
G01*
X16644300Y-14224100D02*
G75*
G03*
X16644300Y-14224100I-20000J0D01*
G01*
X16644300Y-14554100D02*
G75*
G03*
X16644300Y-14554100I-20000J0D01*
G01*
X16760973Y-8024027D02*
G75*
G03*
X16760973Y-8024027I-20000J0D01*
G01*
X16760973Y-8257373D02*
G75*
G03*
X16760973Y-8257373I-20000J0D01*
G01*
X16760973Y-14272427D02*
G75*
G03*
X16760973Y-14272427I-20000J0D01*
G01*
X16760973Y-14505773D02*
G75*
G03*
X16760973Y-14505773I-20000J0D01*
G01*
X16809300Y-8140700D02*
G75*
G03*
X16809300Y-8140700I-20000J0D01*
G01*
X16809300Y-14389100D02*
G75*
G03*
X16809300Y-14389100I-20000J0D01*
G01*
X17342800Y-9563100D02*
G75*
G03*
X17342800Y-9563100I-20000J0D01*
G01*
X17558700Y-12433300D02*
G75*
G03*
X17558700Y-12433300I-20000J0D01*
G01*
X17825400Y-12433300D02*
G75*
G03*
X17825400Y-12433300I-20000J0D01*
G01*
X17888900Y-9563100D02*
G75*
G03*
X17888900Y-9563100I-20000J0D01*
G01*
X17889500Y-9843100D02*
G75*
G03*
X17889500Y-9843100I-20000J0D01*
G01*
X18435000Y-14401800D02*
G75*
G03*
X18435000Y-14401800I-20000J0D01*
G01*
X18562000Y-8737600D02*
G75*
G03*
X18562000Y-8737600I-20000J0D01*
G01*
X19044600Y-11480800D02*
G75*
G03*
X19044600Y-11480800I-20000J0D01*
G01*
X19171600Y-12179300D02*
G75*
G03*
X19171600Y-12179300I-20000J0D01*
G01*
X19208050Y-9056750D02*
G75*
G03*
X19208050Y-9056750I-20000J0D01*
G01*
X19235100Y-11861800D02*
G75*
G03*
X19235100Y-11861800I-20000J0D01*
G01*
X19235100Y-12573000D02*
G75*
G03*
X19235100Y-12573000I-20000J0D01*
G01*
X19247800Y-11620500D02*
G75*
G03*
X19247800Y-11620500I-20000J0D01*
G01*
X19248265Y-12039135D02*
G75*
G03*
X19248265Y-12039135I-20000J0D01*
G01*
X19311300Y-12763500D02*
G75*
G03*
X19311300Y-12763500I-20000J0D01*
G01*
X19424994Y-12548206D02*
G75*
G03*
X19424994Y-12548206I-20000J0D01*
G01*
X19425600Y-11620500D02*
G75*
G03*
X19425600Y-11620500I-20000J0D01*
G01*
X19466701Y-11887200D02*
G75*
G03*
X19466701Y-11887200I-20000J0D01*
G01*
X19470050Y-12662342D02*
G75*
G03*
X19470050Y-12662342I-20000J0D01*
G01*
X19470050Y-12782550D02*
G75*
G03*
X19470050Y-12782550I-20000J0D01*
G01*
X19514500Y-9677400D02*
G75*
G03*
X19514500Y-9677400I-20000J0D01*
G01*
X19590700Y-9601200D02*
G75*
G03*
X19590700Y-9601200I-20000J0D01*
G01*
X19603400Y-9182100D02*
G75*
G03*
X19603400Y-9182100I-20000J0D01*
G01*
X19626277Y-12404562D02*
G75*
G03*
X19626277Y-12404562I-20000J0D01*
G01*
X19730400Y-12462400D02*
G75*
G03*
X19730400Y-12462400I-20000J0D01*
G01*
X19743100Y-10464800D02*
G75*
G03*
X19743100Y-10464800I-20000J0D01*
G01*
X19755800Y-10083800D02*
G75*
G03*
X19755800Y-10083800I-20000J0D01*
G01*
X19881358Y-12049695D02*
G75*
G03*
X19881358Y-12049695I-20000J0D01*
G01*
X20009800Y-9105900D02*
G75*
G03*
X20009800Y-9105900I-20000J0D01*
G01*
X20022500Y-9474200D02*
G75*
G03*
X20022500Y-9474200I-20000J0D01*
G01*
X20022500Y-9749900D02*
G75*
G03*
X20022500Y-9749900I-20000J0D01*
G01*
X20049965Y-9218135D02*
G75*
G03*
X20049965Y-9218135I-20000J0D01*
G01*
X20200300Y-8483600D02*
G75*
G03*
X20200300Y-8483600I-20000J0D01*
G01*
X20200300Y-11785600D02*
G75*
G03*
X20200300Y-11785600I-20000J0D01*
G01*
X20200300Y-11885600D02*
G75*
G03*
X20200300Y-11885600I-20000J0D01*
G01*
X20299302Y-10058400D02*
G75*
G03*
X20299302Y-10058400I-20000J0D01*
G01*
X20454300Y-9372600D02*
G75*
G03*
X20454300Y-9372600I-20000J0D01*
G01*
X20462500Y-9156700D02*
G75*
G03*
X20462500Y-9156700I-20000J0D01*
G01*
X20530500Y-11201400D02*
G75*
G03*
X20530500Y-11201400I-20000J0D01*
G01*
X20632100Y-11214100D02*
G75*
G03*
X20632100Y-11214100I-20000J0D01*
G01*
X20639800Y-10215800D02*
G75*
G03*
X20639800Y-10215800I-20000J0D01*
G01*
X20644800Y-9575800D02*
G75*
G03*
X20644800Y-9575800I-20000J0D01*
G01*
X20682900Y-10922000D02*
G75*
G03*
X20682900Y-10922000I-20000J0D01*
G01*
X20682900Y-12382500D02*
G75*
G03*
X20682900Y-12382500I-20000J0D01*
G01*
X20746400Y-13106400D02*
G75*
G03*
X20746400Y-13106400I-20000J0D01*
G01*
X20746400Y-13220700D02*
G75*
G03*
X20746400Y-13220700I-20000J0D01*
G01*
X20771800Y-11239500D02*
G75*
G03*
X20771800Y-11239500I-20000J0D01*
G01*
X20772343Y-12337779D02*
G75*
G03*
X20772343Y-12337779I-20000J0D01*
G01*
X21000400Y-8483600D02*
G75*
G03*
X21000400Y-8483600I-20000J0D01*
G01*
X21000400Y-12862302D02*
G75*
G03*
X21000400Y-12862302I-20000J0D01*
G01*
X21051200Y-11239500D02*
G75*
G03*
X21051200Y-11239500I-20000J0D01*
G01*
X21102000Y-11061700D02*
G75*
G03*
X21102000Y-11061700I-20000J0D01*
G01*
X21102000Y-13103199D02*
G75*
G03*
X21102000Y-13103199I-20000J0D01*
G01*
X21203600Y-13030200D02*
G75*
G03*
X21203600Y-13030200I-20000J0D01*
G01*
X21203600Y-13322300D02*
G75*
G03*
X21203600Y-13322300I-20000J0D01*
G01*
X21229000Y-8483600D02*
G75*
G03*
X21229000Y-8483600I-20000J0D01*
G01*
X21241700Y-8343900D02*
G75*
G03*
X21241700Y-8343900I-20000J0D01*
G01*
X21267100Y-9715500D02*
G75*
G03*
X21267100Y-9715500I-20000J0D01*
G01*
X21368700Y-12433300D02*
G75*
G03*
X21368700Y-12433300I-20000J0D01*
G01*
X21457600Y-8610600D02*
G75*
G03*
X21457600Y-8610600I-20000J0D01*
G01*
X21495700Y-13322300D02*
G75*
G03*
X21495700Y-13322300I-20000J0D01*
G01*
X21501499Y-12731199D02*
G75*
G03*
X21501499Y-12731199I-20000J0D01*
G01*
X21501499Y-13010599D02*
G75*
G03*
X21501499Y-13010599I-20000J0D01*
G01*
X21521100Y-11811000D02*
G75*
G03*
X21521100Y-11811000I-20000J0D01*
G01*
X21652000Y-9982200D02*
G75*
G03*
X21652000Y-9982200I-20000J0D01*
G01*
X21838600Y-10439400D02*
G75*
G03*
X21838600Y-10439400I-20000J0D01*
G01*
X21940200Y-10515600D02*
G75*
G03*
X21940200Y-10515600I-20000J0D01*
G01*
X22283100Y-12915900D02*
G75*
G03*
X22283100Y-12915900I-20000J0D01*
G01*
X22288985Y-10560515D02*
G75*
G03*
X22288985Y-10560515I-20000J0D01*
G01*
X22333900Y-10439400D02*
G75*
G03*
X22333900Y-10439400I-20000J0D01*
G01*
X22803900Y-8140700D02*
G75*
G03*
X22803900Y-8140700I-20000J0D01*
G01*
X22803900Y-14389100D02*
G75*
G03*
X22803900Y-14389100I-20000J0D01*
G01*
X22852227Y-8024027D02*
G75*
G03*
X22852227Y-8024027I-20000J0D01*
G01*
X22852227Y-8257373D02*
G75*
G03*
X22852227Y-8257373I-20000J0D01*
G01*
X22852227Y-14272427D02*
G75*
G03*
X22852227Y-14272427I-20000J0D01*
G01*
X22852227Y-14505773D02*
G75*
G03*
X22852227Y-14505773I-20000J0D01*
G01*
X22968900Y-7975700D02*
G75*
G03*
X22968900Y-7975700I-20000J0D01*
G01*
X22968900Y-8305700D02*
G75*
G03*
X22968900Y-8305700I-20000J0D01*
G01*
X22968900Y-14224100D02*
G75*
G03*
X22968900Y-14224100I-20000J0D01*
G01*
X22968900Y-14554100D02*
G75*
G03*
X22968900Y-14554100I-20000J0D01*
G01*
X23085573Y-8024027D02*
G75*
G03*
X23085573Y-8024027I-20000J0D01*
G01*
X23085573Y-8257373D02*
G75*
G03*
X23085573Y-8257373I-20000J0D01*
G01*
X23085573Y-14272427D02*
G75*
G03*
X23085573Y-14272427I-20000J0D01*
G01*
X23085573Y-14505773D02*
G75*
G03*
X23085573Y-14505773I-20000J0D01*
G01*
X23133900Y-8140700D02*
G75*
G03*
X23133900Y-8140700I-20000J0D01*
G01*
X23133900Y-14389100D02*
G75*
G03*
X23133900Y-14389100I-20000J0D01*
G01*
X16891000Y-9214500D02*
X16891000Y-9279500D01*
X16858500Y-9247000D02*
X16923500Y-9247000D01*
X16871000Y-9269500D02*
X16911000Y-9269500D01*
X16871000Y-9224500D02*
X16911000Y-9224500D01*
X16911000Y-9269500D02*
G75*
G03*
X16911000Y-9224500I0J22500D01*
G01*
X16871000Y-9224500D02*
G75*
G03*
X16871000Y-9269500I0J-22500D01*
G01*
X16891000Y-9698500D02*
X16891000Y-9763500D01*
X16858500Y-9731000D02*
X16923500Y-9731000D01*
X16871000Y-9753500D02*
X16911000Y-9753500D01*
X16871000Y-9708500D02*
X16911000Y-9708500D01*
X16911000Y-9753500D02*
G75*
G03*
X16911000Y-9708500I0J22500D01*
G01*
X16871000Y-9708500D02*
G75*
G03*
X16871000Y-9753500I0J-22500D01*
G01*
X16615749Y-9240749D02*
X16615749Y-9191251D01*
X16566251Y-9191251D01*
X16566251Y-9240749D01*
X16615749Y-9240749D01*
X16566000Y-9241000D02*
X16616000Y-9241000D01*
X16566000Y-9191000D02*
X16616000Y-9191000D01*
X16616000Y-9241000D02*
G75*
G03*
X16616000Y-9191000I0J25000D01*
G01*
X16566000Y-9191000D02*
G75*
G03*
X16566000Y-9241000I0J-25000D01*
G01*
X16615749Y-9786749D02*
X16615749Y-9737251D01*
X16566251Y-9737251D01*
X16566251Y-9786749D01*
X16615749Y-9786749D01*
X16566000Y-9787000D02*
X16616000Y-9787000D01*
X16566000Y-9737000D02*
X16616000Y-9737000D01*
X16616000Y-9787000D02*
G75*
G03*
X16616000Y-9737000I0J25000D01*
G01*
X16566000Y-9737000D02*
G75*
G03*
X16566000Y-9787000I0J-25000D01*
G01*
X17057600Y-11356100D02*
X17093100Y-11320600D01*
X17057600Y-11285100D01*
X17022100Y-11320600D01*
X17057600Y-11356100D01*
X17057600Y-13556100D02*
X17093100Y-13520600D01*
X17057600Y-13485100D01*
X17022100Y-13520600D01*
X17057600Y-13556100D01*
X17257600Y-11356100D02*
X17293100Y-11320600D01*
X17257600Y-11285100D01*
X17222100Y-11320600D01*
X17257600Y-11356100D01*
X17257600Y-13556100D02*
X17293100Y-13520600D01*
X17257600Y-13485100D01*
X17222100Y-13520600D01*
X17257600Y-13556100D01*
X17457600Y-11356100D02*
X17493100Y-11320600D01*
X17457600Y-11285100D01*
X17422100Y-11320600D01*
X17457600Y-11356100D01*
X17457600Y-13556100D02*
X17493100Y-13520600D01*
X17457600Y-13485100D01*
X17422100Y-13520600D01*
X17457600Y-13556100D01*
X17657600Y-11356100D02*
X17693100Y-11320600D01*
X17657600Y-11285100D01*
X17622100Y-11320600D01*
X17657600Y-11356100D01*
X17657600Y-13556100D02*
X17693100Y-13520600D01*
X17657600Y-13485100D01*
X17622100Y-13520600D01*
X17657600Y-13556100D01*
X17857600Y-11356100D02*
X17893100Y-11320600D01*
X17857600Y-11285100D01*
X17822100Y-11320600D01*
X17857600Y-11356100D01*
X17857600Y-13556100D02*
X17893100Y-13520600D01*
X17857600Y-13485100D01*
X17822100Y-13520600D01*
X17857600Y-13556100D01*
X18057600Y-11356100D02*
X18093100Y-11320600D01*
X18057600Y-11285100D01*
X18022100Y-11320600D01*
X18057600Y-11356100D01*
X18057600Y-13556100D02*
X18093100Y-13520600D01*
X18057600Y-13485100D01*
X18022100Y-13520600D01*
X18057600Y-13556100D01*
X18257600Y-11356100D02*
X18293100Y-11320600D01*
X18257600Y-11285100D01*
X18222100Y-11320600D01*
X18257600Y-11356100D01*
X18257600Y-13556100D02*
X18293100Y-13520600D01*
X18257600Y-13485100D01*
X18222100Y-13520600D01*
X18257600Y-13556100D01*
X18457600Y-11356100D02*
X18493100Y-11320600D01*
X18457600Y-11285100D01*
X18422100Y-11320600D01*
X18457600Y-11356100D01*
X18457600Y-13556100D02*
X18493100Y-13520600D01*
X18457600Y-13485100D01*
X18422100Y-13520600D01*
X18457600Y-13556100D01*
X18657600Y-11356100D02*
X18693100Y-11320600D01*
X18657600Y-11285100D01*
X18622100Y-11320600D01*
X18657600Y-11356100D01*
X18657600Y-13556100D02*
X18693100Y-13520600D01*
X18657600Y-13485100D01*
X18622100Y-13520600D01*
X18657600Y-13556100D01*
X18857600Y-11356100D02*
X18893100Y-11320600D01*
X18857600Y-11285100D01*
X18822100Y-11320600D01*
X18857600Y-11356100D01*
X18857600Y-13556100D02*
X18893100Y-13520600D01*
X18857600Y-13485100D01*
X18822100Y-13520600D01*
X18857600Y-13556100D01*
X17676500Y-8850000D02*
X17756500Y-8930000D01*
X17756500Y-8850000D02*
X17676500Y-8930000D01*
X17756500Y-8890000D02*
G75*
G03*
X17756500Y-8890000I-40000J0D01*
G01*
X18273400Y-11866250D02*
X18353400Y-11946250D01*
X18353400Y-11866250D02*
X18273400Y-11946250D01*
X18353400Y-11906250D02*
G75*
G03*
X18353400Y-11906250I-40000J0D01*
G01*
X19022700Y-13803000D02*
X19102700Y-13883000D01*
X19102700Y-13803000D02*
X19022700Y-13883000D01*
X19102700Y-13843000D02*
G75*
G03*
X19102700Y-13843000I-40000J0D01*
G01*
X19289400Y-9878700D02*
X19369400Y-9958700D01*
X19369400Y-9878700D02*
X19289400Y-9958700D01*
X19369400Y-9918700D02*
G75*
G03*
X19369400Y-9918700I-40000J0D01*
G01*
X17298200Y-13831100D02*
X17398200Y-13931100D01*
X17398200Y-13831100D02*
X17298200Y-13931100D01*
X17348200Y-13831100D02*
X17348200Y-13931100D01*
X17298200Y-13881100D02*
X17398200Y-13881100D01*
X17526800Y-8205000D02*
X17626800Y-8305000D01*
X17626800Y-8205000D02*
X17526800Y-8305000D01*
X17576800Y-8205000D02*
X17576800Y-8305000D01*
X17526800Y-8255000D02*
X17626800Y-8255000D01*
X17526800Y-8459000D02*
X17626800Y-8559000D01*
X17626800Y-8459000D02*
X17526800Y-8559000D01*
X17576800Y-8459000D02*
X17576800Y-8559000D01*
X17526800Y-8509000D02*
X17626800Y-8509000D01*
X17552200Y-13831100D02*
X17652200Y-13931100D01*
X17652200Y-13831100D02*
X17552200Y-13931100D01*
X17602200Y-13831100D02*
X17602200Y-13931100D01*
X17552200Y-13881100D02*
X17652200Y-13881100D01*
X17552200Y-14097800D02*
X17652200Y-14197800D01*
X17652200Y-14097800D02*
X17552200Y-14197800D01*
X17602200Y-14097800D02*
X17602200Y-14197800D01*
X17552200Y-14147800D02*
X17652200Y-14147800D01*
X17806200Y-13831100D02*
X17906200Y-13931100D01*
X17906200Y-13831100D02*
X17806200Y-13931100D01*
X17856200Y-13831100D02*
X17856200Y-13931100D01*
X17806200Y-13881100D02*
X17906200Y-13881100D01*
X17806200Y-14097800D02*
X17906200Y-14197800D01*
X17906200Y-14097800D02*
X17806200Y-14197800D01*
X17856200Y-14097800D02*
X17856200Y-14197800D01*
X17806200Y-14147800D02*
X17906200Y-14147800D01*
X17895100Y-8217700D02*
X17995100Y-8317700D01*
X17995100Y-8217700D02*
X17895100Y-8317700D01*
X17945100Y-8217700D02*
X17945100Y-8317700D01*
X17895100Y-8267700D02*
X17995100Y-8267700D01*
X17895100Y-8471700D02*
X17995100Y-8571700D01*
X17995100Y-8471700D02*
X17895100Y-8571700D01*
X17945100Y-8471700D02*
X17945100Y-8571700D01*
X17895100Y-8521700D02*
X17995100Y-8521700D01*
X18060200Y-13831100D02*
X18160200Y-13931100D01*
X18160200Y-13831100D02*
X18060200Y-13931100D01*
X18110200Y-13831100D02*
X18110200Y-13931100D01*
X18060200Y-13881100D02*
X18160200Y-13881100D01*
X18314200Y-13831100D02*
X18414200Y-13931100D01*
X18414200Y-13831100D02*
X18314200Y-13931100D01*
X18364200Y-13831100D02*
X18364200Y-13931100D01*
X18314200Y-13881100D02*
X18414200Y-13881100D01*
X18377700Y-8078000D02*
X18477700Y-8178000D01*
X18477700Y-8078000D02*
X18377700Y-8178000D01*
X18427700Y-8078000D02*
X18427700Y-8178000D01*
X18377700Y-8128000D02*
X18477700Y-8128000D01*
X18568200Y-13831100D02*
X18668200Y-13931100D01*
X18668200Y-13831100D02*
X18568200Y-13931100D01*
X18618200Y-13831100D02*
X18618200Y-13931100D01*
X18568200Y-13881100D02*
X18668200Y-13881100D01*
X18580900Y-10643400D02*
X18680900Y-10743400D01*
X18680900Y-10643400D02*
X18580900Y-10743400D01*
X18630900Y-10643400D02*
X18630900Y-10743400D01*
X18580900Y-10693400D02*
X18680900Y-10693400D01*
X18580900Y-10897400D02*
X18680900Y-10997400D01*
X18680900Y-10897400D02*
X18580900Y-10997400D01*
X18630900Y-10897400D02*
X18630900Y-10997400D01*
X18580900Y-10947400D02*
X18680900Y-10947400D01*
X18580900Y-12002300D02*
X18680900Y-12102300D01*
X18680900Y-12002300D02*
X18580900Y-12102300D01*
X18630900Y-12002300D02*
X18630900Y-12102300D01*
X18580900Y-12052300D02*
X18680900Y-12052300D01*
X18580900Y-12256300D02*
X18680900Y-12356300D01*
X18680900Y-12256300D02*
X18580900Y-12356300D01*
X18630900Y-12256300D02*
X18630900Y-12356300D01*
X18580900Y-12306300D02*
X18680900Y-12306300D01*
X18580900Y-12510300D02*
X18680900Y-12610300D01*
X18680900Y-12510300D02*
X18580900Y-12610300D01*
X18630900Y-12510300D02*
X18630900Y-12610300D01*
X18580900Y-12560300D02*
X18680900Y-12560300D01*
X18580900Y-12764300D02*
X18680900Y-12864300D01*
X18680900Y-12764300D02*
X18580900Y-12864300D01*
X18630900Y-12764300D02*
X18630900Y-12864300D01*
X18580900Y-12814300D02*
X18680900Y-12814300D01*
X18631700Y-8078000D02*
X18731700Y-8178000D01*
X18731700Y-8078000D02*
X18631700Y-8178000D01*
X18681700Y-8078000D02*
X18681700Y-8178000D01*
X18631700Y-8128000D02*
X18731700Y-8128000D01*
X18834900Y-10643400D02*
X18934900Y-10743400D01*
X18934900Y-10643400D02*
X18834900Y-10743400D01*
X18884900Y-10643400D02*
X18884900Y-10743400D01*
X18834900Y-10693400D02*
X18934900Y-10693400D01*
X18834900Y-10897400D02*
X18934900Y-10997400D01*
X18934900Y-10897400D02*
X18834900Y-10997400D01*
X18884900Y-10897400D02*
X18884900Y-10997400D01*
X18834900Y-10947400D02*
X18934900Y-10947400D01*
X18834900Y-12002300D02*
X18934900Y-12102300D01*
X18934900Y-12002300D02*
X18834900Y-12102300D01*
X18884900Y-12002300D02*
X18884900Y-12102300D01*
X18834900Y-12052300D02*
X18934900Y-12052300D01*
X18834900Y-12256300D02*
X18934900Y-12356300D01*
X18934900Y-12256300D02*
X18834900Y-12356300D01*
X18884900Y-12256300D02*
X18884900Y-12356300D01*
X18834900Y-12306300D02*
X18934900Y-12306300D01*
X18834900Y-12510300D02*
X18934900Y-12610300D01*
X18934900Y-12510300D02*
X18834900Y-12610300D01*
X18884900Y-12510300D02*
X18884900Y-12610300D01*
X18834900Y-12560300D02*
X18934900Y-12560300D01*
X18834900Y-12764300D02*
X18934900Y-12864300D01*
X18934900Y-12764300D02*
X18834900Y-12864300D01*
X18884900Y-12764300D02*
X18884900Y-12864300D01*
X18834900Y-12814300D02*
X18934900Y-12814300D01*
X18885700Y-8078000D02*
X18985700Y-8178000D01*
X18985700Y-8078000D02*
X18885700Y-8178000D01*
X18935700Y-8078000D02*
X18935700Y-8178000D01*
X18885700Y-8128000D02*
X18985700Y-8128000D01*
X19088900Y-10643400D02*
X19188900Y-10743400D01*
X19188900Y-10643400D02*
X19088900Y-10743400D01*
X19138900Y-10643400D02*
X19138900Y-10743400D01*
X19088900Y-10693400D02*
X19188900Y-10693400D01*
X19088900Y-10897400D02*
X19188900Y-10997400D01*
X19188900Y-10897400D02*
X19088900Y-10997400D01*
X19138900Y-10897400D02*
X19138900Y-10997400D01*
X19088900Y-10947400D02*
X19188900Y-10947400D01*
X19139700Y-8078000D02*
X19239700Y-8178000D01*
X19239700Y-8078000D02*
X19139700Y-8178000D01*
X19189700Y-8078000D02*
X19189700Y-8178000D01*
X19139700Y-8128000D02*
X19239700Y-8128000D01*
X19342900Y-10643400D02*
X19442900Y-10743400D01*
X19442900Y-10643400D02*
X19342900Y-10743400D01*
X19392900Y-10643400D02*
X19392900Y-10743400D01*
X19342900Y-10693400D02*
X19442900Y-10693400D01*
X19342900Y-10897400D02*
X19442900Y-10997400D01*
X19442900Y-10897400D02*
X19342900Y-10997400D01*
X19392900Y-10897400D02*
X19392900Y-10997400D01*
X19342900Y-10947400D02*
X19442900Y-10947400D01*
X19393700Y-8078000D02*
X19493700Y-8178000D01*
X19493700Y-8078000D02*
X19393700Y-8178000D01*
X19443700Y-8078000D02*
X19443700Y-8178000D01*
X19393700Y-8128000D02*
X19493700Y-8128000D01*
X19546100Y-14326400D02*
X19646100Y-14426400D01*
X19646100Y-14326400D02*
X19546100Y-14426400D01*
X19596100Y-14326400D02*
X19596100Y-14426400D01*
X19546100Y-14376400D02*
X19646100Y-14376400D01*
X19596900Y-10643400D02*
X19696900Y-10743400D01*
X19696900Y-10643400D02*
X19596900Y-10743400D01*
X19646900Y-10643400D02*
X19646900Y-10743400D01*
X19596900Y-10693400D02*
X19696900Y-10693400D01*
X19596900Y-10897400D02*
X19696900Y-10997400D01*
X19696900Y-10897400D02*
X19596900Y-10997400D01*
X19646900Y-10897400D02*
X19646900Y-10997400D01*
X19596900Y-10947400D02*
X19696900Y-10947400D01*
X19647700Y-8078000D02*
X19747700Y-8178000D01*
X19747700Y-8078000D02*
X19647700Y-8178000D01*
X19697700Y-8078000D02*
X19697700Y-8178000D01*
X19647700Y-8128000D02*
X19747700Y-8128000D01*
X19800100Y-14326400D02*
X19900100Y-14426400D01*
X19900100Y-14326400D02*
X19800100Y-14426400D01*
X19850100Y-14326400D02*
X19850100Y-14426400D01*
X19800100Y-14376400D02*
X19900100Y-14376400D01*
X19901700Y-8078000D02*
X20001700Y-8178000D01*
X20001700Y-8078000D02*
X19901700Y-8178000D01*
X19951700Y-8078000D02*
X19951700Y-8178000D01*
X19901700Y-8128000D02*
X20001700Y-8128000D01*
X20054100Y-14326400D02*
X20154100Y-14426400D01*
X20154100Y-14326400D02*
X20054100Y-14426400D01*
X20104100Y-14326400D02*
X20104100Y-14426400D01*
X20054100Y-14376400D02*
X20154100Y-14376400D01*
X20155700Y-8078000D02*
X20255700Y-8178000D01*
X20255700Y-8078000D02*
X20155700Y-8178000D01*
X20205700Y-8078000D02*
X20205700Y-8178000D01*
X20155700Y-8128000D02*
X20255700Y-8128000D01*
X20308100Y-14326400D02*
X20408100Y-14426400D01*
X20408100Y-14326400D02*
X20308100Y-14426400D01*
X20358100Y-14326400D02*
X20358100Y-14426400D01*
X20308100Y-14376400D02*
X20408100Y-14376400D01*
X20409700Y-8078000D02*
X20509700Y-8178000D01*
X20509700Y-8078000D02*
X20409700Y-8178000D01*
X20459700Y-8078000D02*
X20459700Y-8178000D01*
X20409700Y-8128000D02*
X20509700Y-8128000D01*
X20562100Y-14326400D02*
X20662100Y-14426400D01*
X20662100Y-14326400D02*
X20562100Y-14426400D01*
X20612100Y-14326400D02*
X20612100Y-14426400D01*
X20562100Y-14376400D02*
X20662100Y-14376400D01*
X20663700Y-8078000D02*
X20763700Y-8178000D01*
X20763700Y-8078000D02*
X20663700Y-8178000D01*
X20713700Y-8078000D02*
X20713700Y-8178000D01*
X20663700Y-8128000D02*
X20763700Y-8128000D01*
X20816100Y-14326400D02*
X20916100Y-14426400D01*
X20916100Y-14326400D02*
X20816100Y-14426400D01*
X20866100Y-14326400D02*
X20866100Y-14426400D01*
X20816100Y-14376400D02*
X20916100Y-14376400D01*
X20917700Y-8078000D02*
X21017700Y-8178000D01*
X21017700Y-8078000D02*
X20917700Y-8178000D01*
X20967700Y-8078000D02*
X20967700Y-8178000D01*
X20917700Y-8128000D02*
X21017700Y-8128000D01*
X21070100Y-14326400D02*
X21170100Y-14426400D01*
X21170100Y-14326400D02*
X21070100Y-14426400D01*
X21120100Y-14326400D02*
X21120100Y-14426400D01*
X21070100Y-14376400D02*
X21170100Y-14376400D01*
X21171700Y-8078000D02*
X21271700Y-8178000D01*
X21271700Y-8078000D02*
X21171700Y-8178000D01*
X21221700Y-8078000D02*
X21221700Y-8178000D01*
X21171700Y-8128000D02*
X21271700Y-8128000D01*
X21324100Y-14326400D02*
X21424100Y-14426400D01*
X21424100Y-14326400D02*
X21324100Y-14426400D01*
X21374100Y-14326400D02*
X21374100Y-14426400D01*
X21324100Y-14376400D02*
X21424100Y-14376400D01*
X21578100Y-14326400D02*
X21678100Y-14426400D01*
X21678100Y-14326400D02*
X21578100Y-14426400D01*
X21628100Y-14326400D02*
X21628100Y-14426400D01*
X21578100Y-14376400D02*
X21678100Y-14376400D01*
X21616200Y-11392700D02*
X21716200Y-11492700D01*
X21716200Y-11392700D02*
X21616200Y-11492700D01*
X21666200Y-11392700D02*
X21666200Y-11492700D01*
X21616200Y-11442700D02*
X21716200Y-11442700D01*
X21616200Y-11646700D02*
X21716200Y-11746700D01*
X21716200Y-11646700D02*
X21616200Y-11746700D01*
X21666200Y-11646700D02*
X21666200Y-11746700D01*
X21616200Y-11696700D02*
X21716200Y-11696700D01*
X21616200Y-11900700D02*
X21716200Y-12000700D01*
X21716200Y-11900700D02*
X21616200Y-12000700D01*
X21666200Y-11900700D02*
X21666200Y-12000700D01*
X21616200Y-11950700D02*
X21716200Y-11950700D01*
X21616200Y-12154700D02*
X21716200Y-12254700D01*
X21716200Y-12154700D02*
X21616200Y-12254700D01*
X21666200Y-12154700D02*
X21666200Y-12254700D01*
X21616200Y-12204700D02*
X21716200Y-12204700D01*
X21616200Y-12408700D02*
X21716200Y-12508700D01*
X21716200Y-12408700D02*
X21616200Y-12508700D01*
X21666200Y-12408700D02*
X21666200Y-12508700D01*
X21616200Y-12458700D02*
X21716200Y-12458700D01*
X21832100Y-14326400D02*
X21932100Y-14426400D01*
X21932100Y-14326400D02*
X21832100Y-14426400D01*
X21882100Y-14326400D02*
X21882100Y-14426400D01*
X21832100Y-14376400D02*
X21932100Y-14376400D01*
X21870200Y-11392700D02*
X21970200Y-11492700D01*
X21970200Y-11392700D02*
X21870200Y-11492700D01*
X21920200Y-11392700D02*
X21920200Y-11492700D01*
X21870200Y-11442700D02*
X21970200Y-11442700D01*
X21870200Y-11646700D02*
X21970200Y-11746700D01*
X21970200Y-11646700D02*
X21870200Y-11746700D01*
X21920200Y-11646700D02*
X21920200Y-11746700D01*
X21870200Y-11696700D02*
X21970200Y-11696700D01*
X21870200Y-11900700D02*
X21970200Y-12000700D01*
X21970200Y-11900700D02*
X21870200Y-12000700D01*
X21920200Y-11900700D02*
X21920200Y-12000700D01*
X21870200Y-11950700D02*
X21970200Y-11950700D01*
X21870200Y-12154700D02*
X21970200Y-12254700D01*
X21970200Y-12154700D02*
X21870200Y-12254700D01*
X21920200Y-12154700D02*
X21920200Y-12254700D01*
X21870200Y-12204700D02*
X21970200Y-12204700D01*
X21870200Y-12408700D02*
X21970200Y-12508700D01*
X21970200Y-12408700D02*
X21870200Y-12508700D01*
X21920200Y-12408700D02*
X21920200Y-12508700D01*
X21870200Y-12458700D02*
X21970200Y-12458700D01*
X22086100Y-14326400D02*
X22186100Y-14426400D01*
X22186100Y-14326400D02*
X22086100Y-14426400D01*
X22136100Y-14326400D02*
X22136100Y-14426400D01*
X22086100Y-14376400D02*
X22186100Y-14376400D01*
X22340100Y-14326400D02*
X22440100Y-14426400D01*
X22440100Y-14326400D02*
X22340100Y-14426400D01*
X22390100Y-14326400D02*
X22390100Y-14426400D01*
X22340100Y-14376400D02*
X22440100Y-14376400D01*
X22454400Y-10389400D02*
X22554400Y-10489400D01*
X22554400Y-10389400D02*
X22454400Y-10489400D01*
X22504400Y-10389400D02*
X22504400Y-10489400D01*
X22454400Y-10439400D02*
X22554400Y-10439400D01*
X22454400Y-10643400D02*
X22554400Y-10743400D01*
X22554400Y-10643400D02*
X22454400Y-10743400D01*
X22504400Y-10643400D02*
X22504400Y-10743400D01*
X22454400Y-10693400D02*
X22554400Y-10693400D01*
X22454400Y-10897400D02*
X22554400Y-10997400D01*
X22554400Y-10897400D02*
X22454400Y-10997400D01*
X22504400Y-10897400D02*
X22504400Y-10997400D01*
X22454400Y-10947400D02*
X22554400Y-10947400D01*
X22454400Y-11151400D02*
X22554400Y-11251400D01*
X22554400Y-11151400D02*
X22454400Y-11251400D01*
X22504400Y-11151400D02*
X22504400Y-11251400D01*
X22454400Y-11201400D02*
X22554400Y-11201400D01*
X22454400Y-11405400D02*
X22554400Y-11505400D01*
X22554400Y-11405400D02*
X22454400Y-11505400D01*
X22504400Y-11405400D02*
X22504400Y-11505400D01*
X22454400Y-11455400D02*
X22554400Y-11455400D01*
X22454400Y-11659400D02*
X22554400Y-11759400D01*
X22554400Y-11659400D02*
X22454400Y-11759400D01*
X22504400Y-11659400D02*
X22504400Y-11759400D01*
X22454400Y-11709400D02*
X22554400Y-11709400D01*
X22886200Y-9868700D02*
X22986200Y-9968700D01*
X22986200Y-9868700D02*
X22886200Y-9968700D01*
X22936200Y-9868700D02*
X22936200Y-9968700D01*
X22886200Y-9918700D02*
X22986200Y-9918700D01*
X22886200Y-10122700D02*
X22986200Y-10222700D01*
X22986200Y-10122700D02*
X22886200Y-10222700D01*
X22936200Y-10122700D02*
X22936200Y-10222700D01*
X22886200Y-10172700D02*
X22986200Y-10172700D01*
X22886200Y-10376700D02*
X22986200Y-10476700D01*
X22986200Y-10376700D02*
X22886200Y-10476700D01*
X22936200Y-10376700D02*
X22936200Y-10476700D01*
X22886200Y-10426700D02*
X22986200Y-10426700D01*
X22886200Y-10630700D02*
X22986200Y-10730700D01*
X22986200Y-10630700D02*
X22886200Y-10730700D01*
X22936200Y-10630700D02*
X22936200Y-10730700D01*
X22886200Y-10680700D02*
X22986200Y-10680700D01*
X22886200Y-10884700D02*
X22986200Y-10984700D01*
X22986200Y-10884700D02*
X22886200Y-10984700D01*
X22936200Y-10884700D02*
X22936200Y-10984700D01*
X22886200Y-10934700D02*
X22986200Y-10934700D01*
X22886200Y-11138700D02*
X22986200Y-11238700D01*
X22986200Y-11138700D02*
X22886200Y-11238700D01*
X22936200Y-11138700D02*
X22936200Y-11238700D01*
X22886200Y-11188700D02*
X22986200Y-11188700D01*
X22886200Y-11392700D02*
X22986200Y-11492700D01*
X22986200Y-11392700D02*
X22886200Y-11492700D01*
X22936200Y-11392700D02*
X22936200Y-11492700D01*
X22886200Y-11442700D02*
X22986200Y-11442700D01*
X22886200Y-11646700D02*
X22986200Y-11746700D01*
X22986200Y-11646700D02*
X22886200Y-11746700D01*
X22936200Y-11646700D02*
X22936200Y-11746700D01*
X22886200Y-11696700D02*
X22986200Y-11696700D01*
X22886200Y-11900700D02*
X22986200Y-12000700D01*
X22986200Y-11900700D02*
X22886200Y-12000700D01*
X22936200Y-11900700D02*
X22936200Y-12000700D01*
X22886200Y-11950700D02*
X22986200Y-11950700D01*
X22886200Y-12154700D02*
X22986200Y-12254700D01*
X22986200Y-12154700D02*
X22886200Y-12254700D01*
X22936200Y-12154700D02*
X22936200Y-12254700D01*
X22886200Y-12204700D02*
X22986200Y-12204700D01*
X22886200Y-12408700D02*
X22986200Y-12508700D01*
X22986200Y-12408700D02*
X22886200Y-12508700D01*
X22936200Y-12408700D02*
X22936200Y-12508700D01*
X22886200Y-12458700D02*
X22986200Y-12458700D01*
X22886200Y-12662700D02*
X22986200Y-12762700D01*
X22986200Y-12662700D02*
X22886200Y-12762700D01*
X22936200Y-12662700D02*
X22936200Y-12762700D01*
X22886200Y-12712700D02*
X22986200Y-12712700D01*
X21860200Y-8779200D02*
X21980200Y-8899200D01*
X21980200Y-8779200D02*
X21860200Y-8899200D01*
X21962627Y-8881627D02*
X21962627Y-8796773D01*
X21877773Y-8796773D01*
X21877773Y-8881627D01*
X21962627Y-8881627D01*
X22360200Y-8779200D02*
X22480200Y-8899200D01*
X22480200Y-8779200D02*
X22360200Y-8899200D01*
X22462627Y-8881627D02*
X22462627Y-8796773D01*
X22377773Y-8796773D01*
X22377773Y-8881627D01*
X22462627Y-8881627D01*
X16514300Y-8030700D02*
X16734300Y-8250700D01*
X16734300Y-8030700D02*
X16514300Y-8250700D01*
X16624300Y-8250700D02*
X16734300Y-8140700D01*
X16624300Y-8030700D01*
X16514300Y-8140700D01*
X16624300Y-8250700D01*
X16514300Y-14279100D02*
X16734300Y-14499100D01*
X16734300Y-14279100D02*
X16514300Y-14499100D01*
X16624300Y-14499100D02*
X16734300Y-14389100D01*
X16624300Y-14279100D01*
X16514300Y-14389100D01*
X16624300Y-14499100D01*
X22838900Y-8030700D02*
X23058900Y-8250700D01*
X23058900Y-8030700D02*
X22838900Y-8250700D01*
X22948900Y-8250700D02*
X23058900Y-8140700D01*
X22948900Y-8030700D01*
X22838900Y-8140700D01*
X22948900Y-8250700D01*
X22838900Y-14279100D02*
X23058900Y-14499100D01*
X23058900Y-14279100D02*
X22838900Y-14499100D01*
X22948900Y-14499100D02*
X23058900Y-14389100D01*
X22948900Y-14279100D01*
X22838900Y-14389100D01*
X22948900Y-14499100D01*
D12*
X16628828Y-15136714D02*
X16628828Y-14836714D01*
X16700257Y-14836714D01*
X16743114Y-14851000D01*
X16771686Y-14879571D01*
X16785971Y-14908143D01*
X16800257Y-14965286D01*
X16800257Y-15008143D01*
X16785971Y-15065286D01*
X16771686Y-15093857D01*
X16743114Y-15122429D01*
X16700257Y-15136714D01*
X16628828Y-15136714D01*
X16928828Y-15136714D02*
X16928828Y-14936714D01*
X16928828Y-14993857D02*
X16943114Y-14965286D01*
X16957400Y-14951000D01*
X16985971Y-14936714D01*
X17014543Y-14936714D01*
X17114543Y-15136714D02*
X17114543Y-14936714D01*
X17114543Y-14836714D02*
X17100257Y-14851000D01*
X17114543Y-14865286D01*
X17128828Y-14851000D01*
X17114543Y-14836714D01*
X17114543Y-14865286D01*
X17300257Y-15136714D02*
X17271686Y-15122429D01*
X17257400Y-15093857D01*
X17257400Y-14836714D01*
X17457400Y-15136714D02*
X17428828Y-15122429D01*
X17414543Y-15093857D01*
X17414543Y-14836714D01*
X17800257Y-15136714D02*
X17800257Y-14836714D01*
X17900257Y-15051000D01*
X18000257Y-14836714D01*
X18000257Y-15136714D01*
X18271686Y-15136714D02*
X18271686Y-14979571D01*
X18257400Y-14951000D01*
X18228828Y-14936714D01*
X18171686Y-14936714D01*
X18143114Y-14951000D01*
X18271686Y-15122429D02*
X18243114Y-15136714D01*
X18171686Y-15136714D01*
X18143114Y-15122429D01*
X18128828Y-15093857D01*
X18128828Y-15065286D01*
X18143114Y-15036714D01*
X18171686Y-15022429D01*
X18243114Y-15022429D01*
X18271686Y-15008143D01*
X18414543Y-14936714D02*
X18414543Y-15236714D01*
X18414543Y-14951000D02*
X18443114Y-14936714D01*
X18500257Y-14936714D01*
X18528828Y-14951000D01*
X18543114Y-14965286D01*
X18557400Y-14993857D01*
X18557400Y-15079571D01*
X18543114Y-15108143D01*
X18528828Y-15122429D01*
X18500257Y-15136714D01*
X18443114Y-15136714D01*
X18414543Y-15122429D01*
X18685971Y-15108143D02*
X18700257Y-15122429D01*
X18685971Y-15136714D01*
X18671686Y-15122429D01*
X18685971Y-15108143D01*
X18685971Y-15136714D01*
X18685971Y-14951000D02*
X18700257Y-14965286D01*
X18685971Y-14979571D01*
X18671686Y-14965286D01*
X18685971Y-14951000D01*
X18685971Y-14979571D01*
X16322400Y-15621000D02*
X16342400Y-15641000D01*
X16342400Y-15621000D02*
X16322400Y-15641000D01*
X16685971Y-15466714D02*
X16714543Y-15466714D01*
X16743114Y-15481000D01*
X16757400Y-15495286D01*
X16771686Y-15523857D01*
X16785971Y-15581000D01*
X16785971Y-15652429D01*
X16771686Y-15709571D01*
X16757400Y-15738143D01*
X16743114Y-15752429D01*
X16714543Y-15766714D01*
X16685971Y-15766714D01*
X16657400Y-15752429D01*
X16643114Y-15738143D01*
X16628828Y-15709571D01*
X16614543Y-15652429D01*
X16614543Y-15581000D01*
X16628828Y-15523857D01*
X16643114Y-15495286D01*
X16657400Y-15481000D01*
X16685971Y-15466714D01*
X16914543Y-15738143D02*
X16928828Y-15752429D01*
X16914543Y-15766714D01*
X16900257Y-15752429D01*
X16914543Y-15738143D01*
X16914543Y-15766714D01*
X17043114Y-15495286D02*
X17057400Y-15481000D01*
X17085971Y-15466714D01*
X17157400Y-15466714D01*
X17185971Y-15481000D01*
X17200257Y-15495286D01*
X17214543Y-15523857D01*
X17214543Y-15552429D01*
X17200257Y-15595286D01*
X17028828Y-15766714D01*
X17214543Y-15766714D01*
X17400257Y-15466714D02*
X17428828Y-15466714D01*
X17457400Y-15481000D01*
X17471686Y-15495286D01*
X17485971Y-15523857D01*
X17500257Y-15581000D01*
X17500257Y-15652429D01*
X17485971Y-15709571D01*
X17471686Y-15738143D01*
X17457400Y-15752429D01*
X17428828Y-15766714D01*
X17400257Y-15766714D01*
X17371686Y-15752429D01*
X17357400Y-15738143D01*
X17343114Y-15709571D01*
X17328828Y-15652429D01*
X17328828Y-15581000D01*
X17343114Y-15523857D01*
X17357400Y-15495286D01*
X17371686Y-15481000D01*
X17400257Y-15466714D01*
X17628828Y-15766714D02*
X17628828Y-15566714D01*
X17628828Y-15595286D02*
X17643114Y-15581000D01*
X17671686Y-15566714D01*
X17714543Y-15566714D01*
X17743114Y-15581000D01*
X17757400Y-15609571D01*
X17757400Y-15766714D01*
X17757400Y-15609571D02*
X17771686Y-15581000D01*
X17800257Y-15566714D01*
X17843114Y-15566714D01*
X17871686Y-15581000D01*
X17885971Y-15609571D01*
X17885971Y-15766714D01*
X18028828Y-15766714D02*
X18028828Y-15566714D01*
X18028828Y-15595286D02*
X18043114Y-15581000D01*
X18071686Y-15566714D01*
X18114543Y-15566714D01*
X18143114Y-15581000D01*
X18157400Y-15609571D01*
X18157400Y-15766714D01*
X18157400Y-15609571D02*
X18171686Y-15581000D01*
X18200257Y-15566714D01*
X18243114Y-15566714D01*
X18271686Y-15581000D01*
X18285971Y-15609571D01*
X18285971Y-15766714D01*
X18871686Y-15452429D02*
X18614543Y-15838143D01*
X19257400Y-15466714D02*
X19285971Y-15466714D01*
X19314543Y-15481000D01*
X19328828Y-15495286D01*
X19343114Y-15523857D01*
X19357400Y-15581000D01*
X19357400Y-15652429D01*
X19343114Y-15709571D01*
X19328828Y-15738143D01*
X19314543Y-15752429D01*
X19285971Y-15766714D01*
X19257400Y-15766714D01*
X19228828Y-15752429D01*
X19214543Y-15738143D01*
X19200257Y-15709571D01*
X19185971Y-15652429D01*
X19185971Y-15581000D01*
X19200257Y-15523857D01*
X19214543Y-15495286D01*
X19228828Y-15481000D01*
X19257400Y-15466714D01*
X19485971Y-15738143D02*
X19500257Y-15752429D01*
X19485971Y-15766714D01*
X19471686Y-15752429D01*
X19485971Y-15738143D01*
X19485971Y-15766714D01*
X19685971Y-15466714D02*
X19714543Y-15466714D01*
X19743114Y-15481000D01*
X19757400Y-15495286D01*
X19771686Y-15523857D01*
X19785971Y-15581000D01*
X19785971Y-15652429D01*
X19771686Y-15709571D01*
X19757400Y-15738143D01*
X19743114Y-15752429D01*
X19714543Y-15766714D01*
X19685971Y-15766714D01*
X19657400Y-15752429D01*
X19643114Y-15738143D01*
X19628828Y-15709571D01*
X19614543Y-15652429D01*
X19614543Y-15581000D01*
X19628828Y-15523857D01*
X19643114Y-15495286D01*
X19657400Y-15481000D01*
X19685971Y-15466714D01*
X19971686Y-15466714D02*
X20000257Y-15466714D01*
X20028828Y-15481000D01*
X20043114Y-15495286D01*
X20057400Y-15523857D01*
X20071686Y-15581000D01*
X20071686Y-15652429D01*
X20057400Y-15709571D01*
X20043114Y-15738143D01*
X20028828Y-15752429D01*
X20000257Y-15766714D01*
X19971686Y-15766714D01*
X19943114Y-15752429D01*
X19928828Y-15738143D01*
X19914543Y-15709571D01*
X19900257Y-15652429D01*
X19900257Y-15581000D01*
X19914543Y-15523857D01*
X19928828Y-15495286D01*
X19943114Y-15481000D01*
X19971686Y-15466714D01*
X20243114Y-15595286D02*
X20214543Y-15581000D01*
X20200257Y-15566714D01*
X20185971Y-15538143D01*
X20185971Y-15523857D01*
X20200257Y-15495286D01*
X20214543Y-15481000D01*
X20243114Y-15466714D01*
X20300257Y-15466714D01*
X20328828Y-15481000D01*
X20343114Y-15495286D01*
X20357400Y-15523857D01*
X20357400Y-15538143D01*
X20343114Y-15566714D01*
X20328828Y-15581000D01*
X20300257Y-15595286D01*
X20243114Y-15595286D01*
X20214543Y-15609571D01*
X20200257Y-15623857D01*
X20185971Y-15652429D01*
X20185971Y-15709571D01*
X20200257Y-15738143D01*
X20214543Y-15752429D01*
X20243114Y-15766714D01*
X20300257Y-15766714D01*
X20328828Y-15752429D01*
X20343114Y-15738143D01*
X20357400Y-15709571D01*
X20357400Y-15652429D01*
X20343114Y-15623857D01*
X20328828Y-15609571D01*
X20300257Y-15595286D01*
X20471686Y-15466714D02*
X20471686Y-15523857D01*
X20585971Y-15466714D02*
X20585971Y-15523857D01*
X21028828Y-15881000D02*
X21014543Y-15866714D01*
X20985971Y-15823857D01*
X20971686Y-15795286D01*
X20957400Y-15752429D01*
X20943114Y-15681000D01*
X20943114Y-15623857D01*
X20957400Y-15552429D01*
X20971686Y-15509571D01*
X20985971Y-15481000D01*
X21014543Y-15438143D01*
X21028828Y-15423857D01*
X21271686Y-15566714D02*
X21271686Y-15766714D01*
X21200257Y-15452429D02*
X21128828Y-15666714D01*
X21314543Y-15666714D01*
X21657400Y-15766714D02*
X21657400Y-15466714D01*
X21785971Y-15766714D02*
X21785971Y-15609571D01*
X21771686Y-15581000D01*
X21743114Y-15566714D01*
X21700257Y-15566714D01*
X21671686Y-15581000D01*
X21657400Y-15595286D01*
X21971686Y-15766714D02*
X21943114Y-15752429D01*
X21928828Y-15738143D01*
X21914543Y-15709571D01*
X21914543Y-15623857D01*
X21928828Y-15595286D01*
X21943114Y-15581000D01*
X21971686Y-15566714D01*
X22014543Y-15566714D01*
X22043114Y-15581000D01*
X22057400Y-15595286D01*
X22071686Y-15623857D01*
X22071686Y-15709571D01*
X22057400Y-15738143D01*
X22043114Y-15752429D01*
X22014543Y-15766714D01*
X21971686Y-15766714D01*
X22243114Y-15766714D02*
X22214543Y-15752429D01*
X22200257Y-15723857D01*
X22200257Y-15466714D01*
X22471686Y-15752429D02*
X22443114Y-15766714D01*
X22385971Y-15766714D01*
X22357400Y-15752429D01*
X22343114Y-15723857D01*
X22343114Y-15609571D01*
X22357400Y-15581000D01*
X22385971Y-15566714D01*
X22443114Y-15566714D01*
X22471686Y-15581000D01*
X22485971Y-15609571D01*
X22485971Y-15638143D01*
X22343114Y-15666714D01*
X22600257Y-15752429D02*
X22628828Y-15766714D01*
X22685971Y-15766714D01*
X22714543Y-15752429D01*
X22728828Y-15723857D01*
X22728828Y-15709571D01*
X22714543Y-15681000D01*
X22685971Y-15666714D01*
X22643114Y-15666714D01*
X22614543Y-15652429D01*
X22600257Y-15623857D01*
X22600257Y-15609571D01*
X22614543Y-15581000D01*
X22643114Y-15566714D01*
X22685971Y-15566714D01*
X22714543Y-15581000D01*
X22828828Y-15881000D02*
X22843114Y-15866714D01*
X22871686Y-15823857D01*
X22885971Y-15795286D01*
X22900257Y-15752429D01*
X22914543Y-15681000D01*
X22914543Y-15623857D01*
X22900257Y-15552429D01*
X22885971Y-15509571D01*
X22871686Y-15481000D01*
X22843114Y-15438143D01*
X22828828Y-15423857D01*
X16342400Y-16027000D02*
G75*
G03*
X16342400Y-16027000I-20000J0D01*
G01*
X16685971Y-15862714D02*
X16714543Y-15862714D01*
X16743114Y-15877000D01*
X16757400Y-15891286D01*
X16771686Y-15919857D01*
X16785971Y-15977000D01*
X16785971Y-16048429D01*
X16771686Y-16105571D01*
X16757400Y-16134143D01*
X16743114Y-16148429D01*
X16714543Y-16162714D01*
X16685971Y-16162714D01*
X16657400Y-16148429D01*
X16643114Y-16134143D01*
X16628828Y-16105571D01*
X16614543Y-16048429D01*
X16614543Y-15977000D01*
X16628828Y-15919857D01*
X16643114Y-15891286D01*
X16657400Y-15877000D01*
X16685971Y-15862714D01*
X16914543Y-16134143D02*
X16928828Y-16148429D01*
X16914543Y-16162714D01*
X16900257Y-16148429D01*
X16914543Y-16134143D01*
X16914543Y-16162714D01*
X17185971Y-15962714D02*
X17185971Y-16162714D01*
X17114543Y-15848429D02*
X17043114Y-16062714D01*
X17228828Y-16062714D01*
X17400257Y-15862714D02*
X17428828Y-15862714D01*
X17457400Y-15877000D01*
X17471686Y-15891286D01*
X17485971Y-15919857D01*
X17500257Y-15977000D01*
X17500257Y-16048429D01*
X17485971Y-16105571D01*
X17471686Y-16134143D01*
X17457400Y-16148429D01*
X17428828Y-16162714D01*
X17400257Y-16162714D01*
X17371686Y-16148429D01*
X17357400Y-16134143D01*
X17343114Y-16105571D01*
X17328828Y-16048429D01*
X17328828Y-15977000D01*
X17343114Y-15919857D01*
X17357400Y-15891286D01*
X17371686Y-15877000D01*
X17400257Y-15862714D01*
X17628828Y-16162714D02*
X17628828Y-15962714D01*
X17628828Y-15991286D02*
X17643114Y-15977000D01*
X17671686Y-15962714D01*
X17714543Y-15962714D01*
X17743114Y-15977000D01*
X17757400Y-16005571D01*
X17757400Y-16162714D01*
X17757400Y-16005571D02*
X17771686Y-15977000D01*
X17800257Y-15962714D01*
X17843114Y-15962714D01*
X17871686Y-15977000D01*
X17885971Y-16005571D01*
X17885971Y-16162714D01*
X18028828Y-16162714D02*
X18028828Y-15962714D01*
X18028828Y-15991286D02*
X18043114Y-15977000D01*
X18071686Y-15962714D01*
X18114543Y-15962714D01*
X18143114Y-15977000D01*
X18157400Y-16005571D01*
X18157400Y-16162714D01*
X18157400Y-16005571D02*
X18171686Y-15977000D01*
X18200257Y-15962714D01*
X18243114Y-15962714D01*
X18271686Y-15977000D01*
X18285971Y-16005571D01*
X18285971Y-16162714D01*
X18871686Y-15848429D02*
X18614543Y-16234143D01*
X19257400Y-15862714D02*
X19285971Y-15862714D01*
X19314543Y-15877000D01*
X19328828Y-15891286D01*
X19343114Y-15919857D01*
X19357400Y-15977000D01*
X19357400Y-16048429D01*
X19343114Y-16105571D01*
X19328828Y-16134143D01*
X19314543Y-16148429D01*
X19285971Y-16162714D01*
X19257400Y-16162714D01*
X19228828Y-16148429D01*
X19214543Y-16134143D01*
X19200257Y-16105571D01*
X19185971Y-16048429D01*
X19185971Y-15977000D01*
X19200257Y-15919857D01*
X19214543Y-15891286D01*
X19228828Y-15877000D01*
X19257400Y-15862714D01*
X19485971Y-16134143D02*
X19500257Y-16148429D01*
X19485971Y-16162714D01*
X19471686Y-16148429D01*
X19485971Y-16134143D01*
X19485971Y-16162714D01*
X19685971Y-15862714D02*
X19714543Y-15862714D01*
X19743114Y-15877000D01*
X19757400Y-15891286D01*
X19771686Y-15919857D01*
X19785971Y-15977000D01*
X19785971Y-16048429D01*
X19771686Y-16105571D01*
X19757400Y-16134143D01*
X19743114Y-16148429D01*
X19714543Y-16162714D01*
X19685971Y-16162714D01*
X19657400Y-16148429D01*
X19643114Y-16134143D01*
X19628828Y-16105571D01*
X19614543Y-16048429D01*
X19614543Y-15977000D01*
X19628828Y-15919857D01*
X19643114Y-15891286D01*
X19657400Y-15877000D01*
X19685971Y-15862714D01*
X20071686Y-16162714D02*
X19900257Y-16162714D01*
X19985971Y-16162714D02*
X19985971Y-15862714D01*
X19957400Y-15905571D01*
X19928828Y-15934143D01*
X19900257Y-15948429D01*
X20328828Y-15862714D02*
X20271686Y-15862714D01*
X20243114Y-15877000D01*
X20228828Y-15891286D01*
X20200257Y-15934143D01*
X20185971Y-15991286D01*
X20185971Y-16105571D01*
X20200257Y-16134143D01*
X20214543Y-16148429D01*
X20243114Y-16162714D01*
X20300257Y-16162714D01*
X20328828Y-16148429D01*
X20343114Y-16134143D01*
X20357400Y-16105571D01*
X20357400Y-16034143D01*
X20343114Y-16005571D01*
X20328828Y-15991286D01*
X20300257Y-15977000D01*
X20243114Y-15977000D01*
X20214543Y-15991286D01*
X20200257Y-16005571D01*
X20185971Y-16034143D01*
X20471686Y-15862714D02*
X20471686Y-15919857D01*
X20585971Y-15862714D02*
X20585971Y-15919857D01*
X21028828Y-16277000D02*
X21014543Y-16262714D01*
X20985971Y-16219857D01*
X20971686Y-16191286D01*
X20957400Y-16148429D01*
X20943114Y-16077000D01*
X20943114Y-16019857D01*
X20957400Y-15948429D01*
X20971686Y-15905571D01*
X20985971Y-15877000D01*
X21014543Y-15834143D01*
X21028828Y-15819857D01*
X21300257Y-16162714D02*
X21128828Y-16162714D01*
X21214543Y-16162714D02*
X21214543Y-15862714D01*
X21185971Y-15905571D01*
X21157400Y-15934143D01*
X21128828Y-15948429D01*
X21485971Y-15862714D02*
X21514543Y-15862714D01*
X21543114Y-15877000D01*
X21557400Y-15891286D01*
X21571686Y-15919857D01*
X21585971Y-15977000D01*
X21585971Y-16048429D01*
X21571686Y-16105571D01*
X21557400Y-16134143D01*
X21543114Y-16148429D01*
X21514543Y-16162714D01*
X21485971Y-16162714D01*
X21457400Y-16148429D01*
X21443114Y-16134143D01*
X21428828Y-16105571D01*
X21414543Y-16048429D01*
X21414543Y-15977000D01*
X21428828Y-15919857D01*
X21443114Y-15891286D01*
X21457400Y-15877000D01*
X21485971Y-15862714D01*
X21700257Y-15891286D02*
X21714543Y-15877000D01*
X21743114Y-15862714D01*
X21814543Y-15862714D01*
X21843114Y-15877000D01*
X21857400Y-15891286D01*
X21871686Y-15919857D01*
X21871686Y-15948429D01*
X21857400Y-15991286D01*
X21685971Y-16162714D01*
X21871686Y-16162714D01*
X22228828Y-16162714D02*
X22228828Y-15862714D01*
X22357400Y-16162714D02*
X22357400Y-16005571D01*
X22343114Y-15977000D01*
X22314543Y-15962714D01*
X22271686Y-15962714D01*
X22243114Y-15977000D01*
X22228828Y-15991286D01*
X22543114Y-16162714D02*
X22514543Y-16148429D01*
X22500257Y-16134143D01*
X22485971Y-16105571D01*
X22485971Y-16019857D01*
X22500257Y-15991286D01*
X22514543Y-15977000D01*
X22543114Y-15962714D01*
X22585971Y-15962714D01*
X22614543Y-15977000D01*
X22628828Y-15991286D01*
X22643114Y-16019857D01*
X22643114Y-16105571D01*
X22628828Y-16134143D01*
X22614543Y-16148429D01*
X22585971Y-16162714D01*
X22543114Y-16162714D01*
X22814543Y-16162714D02*
X22785971Y-16148429D01*
X22771686Y-16119857D01*
X22771686Y-15862714D01*
X23043114Y-16148429D02*
X23014543Y-16162714D01*
X22957400Y-16162714D01*
X22928828Y-16148429D01*
X22914543Y-16119857D01*
X22914543Y-16005571D01*
X22928828Y-15977000D01*
X22957400Y-15962714D01*
X23014543Y-15962714D01*
X23043114Y-15977000D01*
X23057400Y-16005571D01*
X23057400Y-16034143D01*
X22914543Y-16062714D01*
X23171686Y-16148429D02*
X23200257Y-16162714D01*
X23257400Y-16162714D01*
X23285971Y-16148429D01*
X23300257Y-16119857D01*
X23300257Y-16105571D01*
X23285971Y-16077000D01*
X23257400Y-16062714D01*
X23214543Y-16062714D01*
X23185971Y-16048429D01*
X23171686Y-16019857D01*
X23171686Y-16005571D01*
X23185971Y-15977000D01*
X23214543Y-15962714D01*
X23257400Y-15962714D01*
X23285971Y-15977000D01*
X23400257Y-16277000D02*
X23414543Y-16262714D01*
X23443114Y-16219857D01*
X23457400Y-16191286D01*
X23471686Y-16148429D01*
X23485971Y-16077000D01*
X23485971Y-16019857D01*
X23471686Y-15948429D01*
X23457400Y-15905571D01*
X23443114Y-15877000D01*
X23414543Y-15834143D01*
X23400257Y-15819857D01*
X16309900Y-16390500D02*
X16309900Y-16455500D01*
X16277400Y-16423000D02*
X16342400Y-16423000D01*
X16685971Y-16258714D02*
X16714543Y-16258714D01*
X16743114Y-16273000D01*
X16757400Y-16287286D01*
X16771686Y-16315857D01*
X16785971Y-16373000D01*
X16785971Y-16444429D01*
X16771686Y-16501571D01*
X16757400Y-16530143D01*
X16743114Y-16544429D01*
X16714543Y-16558714D01*
X16685971Y-16558714D01*
X16657400Y-16544429D01*
X16643114Y-16530143D01*
X16628828Y-16501571D01*
X16614543Y-16444429D01*
X16614543Y-16373000D01*
X16628828Y-16315857D01*
X16643114Y-16287286D01*
X16657400Y-16273000D01*
X16685971Y-16258714D01*
X16914543Y-16530143D02*
X16928828Y-16544429D01*
X16914543Y-16558714D01*
X16900257Y-16544429D01*
X16914543Y-16530143D01*
X16914543Y-16558714D01*
X17185971Y-16258714D02*
X17128828Y-16258714D01*
X17100257Y-16273000D01*
X17085971Y-16287286D01*
X17057400Y-16330143D01*
X17043114Y-16387286D01*
X17043114Y-16501571D01*
X17057400Y-16530143D01*
X17071686Y-16544429D01*
X17100257Y-16558714D01*
X17157400Y-16558714D01*
X17185971Y-16544429D01*
X17200257Y-16530143D01*
X17214543Y-16501571D01*
X17214543Y-16430143D01*
X17200257Y-16401571D01*
X17185971Y-16387286D01*
X17157400Y-16373000D01*
X17100257Y-16373000D01*
X17071686Y-16387286D01*
X17057400Y-16401571D01*
X17043114Y-16430143D01*
X17485971Y-16258714D02*
X17343114Y-16258714D01*
X17328828Y-16401571D01*
X17343114Y-16387286D01*
X17371686Y-16373000D01*
X17443114Y-16373000D01*
X17471686Y-16387286D01*
X17485971Y-16401571D01*
X17500257Y-16430143D01*
X17500257Y-16501571D01*
X17485971Y-16530143D01*
X17471686Y-16544429D01*
X17443114Y-16558714D01*
X17371686Y-16558714D01*
X17343114Y-16544429D01*
X17328828Y-16530143D01*
X17628828Y-16558714D02*
X17628828Y-16358714D01*
X17628828Y-16387286D02*
X17643114Y-16373000D01*
X17671686Y-16358714D01*
X17714543Y-16358714D01*
X17743114Y-16373000D01*
X17757400Y-16401571D01*
X17757400Y-16558714D01*
X17757400Y-16401571D02*
X17771686Y-16373000D01*
X17800257Y-16358714D01*
X17843114Y-16358714D01*
X17871686Y-16373000D01*
X17885971Y-16401571D01*
X17885971Y-16558714D01*
X18028828Y-16558714D02*
X18028828Y-16358714D01*
X18028828Y-16387286D02*
X18043114Y-16373000D01*
X18071686Y-16358714D01*
X18114543Y-16358714D01*
X18143114Y-16373000D01*
X18157400Y-16401571D01*
X18157400Y-16558714D01*
X18157400Y-16401571D02*
X18171686Y-16373000D01*
X18200257Y-16358714D01*
X18243114Y-16358714D01*
X18271686Y-16373000D01*
X18285971Y-16401571D01*
X18285971Y-16558714D01*
X18871686Y-16244429D02*
X18614543Y-16630143D01*
X19257400Y-16258714D02*
X19285971Y-16258714D01*
X19314543Y-16273000D01*
X19328828Y-16287286D01*
X19343114Y-16315857D01*
X19357400Y-16373000D01*
X19357400Y-16444429D01*
X19343114Y-16501571D01*
X19328828Y-16530143D01*
X19314543Y-16544429D01*
X19285971Y-16558714D01*
X19257400Y-16558714D01*
X19228828Y-16544429D01*
X19214543Y-16530143D01*
X19200257Y-16501571D01*
X19185971Y-16444429D01*
X19185971Y-16373000D01*
X19200257Y-16315857D01*
X19214543Y-16287286D01*
X19228828Y-16273000D01*
X19257400Y-16258714D01*
X19485971Y-16530143D02*
X19500257Y-16544429D01*
X19485971Y-16558714D01*
X19471686Y-16544429D01*
X19485971Y-16530143D01*
X19485971Y-16558714D01*
X19685971Y-16258714D02*
X19714543Y-16258714D01*
X19743114Y-16273000D01*
X19757400Y-16287286D01*
X19771686Y-16315857D01*
X19785971Y-16373000D01*
X19785971Y-16444429D01*
X19771686Y-16501571D01*
X19757400Y-16530143D01*
X19743114Y-16544429D01*
X19714543Y-16558714D01*
X19685971Y-16558714D01*
X19657400Y-16544429D01*
X19643114Y-16530143D01*
X19628828Y-16501571D01*
X19614543Y-16444429D01*
X19614543Y-16373000D01*
X19628828Y-16315857D01*
X19643114Y-16287286D01*
X19657400Y-16273000D01*
X19685971Y-16258714D01*
X19900257Y-16287286D02*
X19914543Y-16273000D01*
X19943114Y-16258714D01*
X20014543Y-16258714D01*
X20043114Y-16273000D01*
X20057400Y-16287286D01*
X20071686Y-16315857D01*
X20071686Y-16344429D01*
X20057400Y-16387286D01*
X19885971Y-16558714D01*
X20071686Y-16558714D01*
X20328828Y-16258714D02*
X20271686Y-16258714D01*
X20243114Y-16273000D01*
X20228828Y-16287286D01*
X20200257Y-16330143D01*
X20185971Y-16387286D01*
X20185971Y-16501571D01*
X20200257Y-16530143D01*
X20214543Y-16544429D01*
X20243114Y-16558714D01*
X20300257Y-16558714D01*
X20328828Y-16544429D01*
X20343114Y-16530143D01*
X20357400Y-16501571D01*
X20357400Y-16430143D01*
X20343114Y-16401571D01*
X20328828Y-16387286D01*
X20300257Y-16373000D01*
X20243114Y-16373000D01*
X20214543Y-16387286D01*
X20200257Y-16401571D01*
X20185971Y-16430143D01*
X20471686Y-16258714D02*
X20471686Y-16315857D01*
X20585971Y-16258714D02*
X20585971Y-16315857D01*
X21028828Y-16673000D02*
X21014543Y-16658714D01*
X20985971Y-16615857D01*
X20971686Y-16587286D01*
X20957400Y-16544429D01*
X20943114Y-16473000D01*
X20943114Y-16415857D01*
X20957400Y-16344429D01*
X20971686Y-16301571D01*
X20985971Y-16273000D01*
X21014543Y-16230143D01*
X21028828Y-16215857D01*
X21200257Y-16258714D02*
X21228828Y-16258714D01*
X21257400Y-16273000D01*
X21271686Y-16287286D01*
X21285971Y-16315857D01*
X21300257Y-16373000D01*
X21300257Y-16444429D01*
X21285971Y-16501571D01*
X21271686Y-16530143D01*
X21257400Y-16544429D01*
X21228828Y-16558714D01*
X21200257Y-16558714D01*
X21171686Y-16544429D01*
X21157400Y-16530143D01*
X21143114Y-16501571D01*
X21128828Y-16444429D01*
X21128828Y-16373000D01*
X21143114Y-16315857D01*
X21157400Y-16287286D01*
X21171686Y-16273000D01*
X21200257Y-16258714D01*
X21657400Y-16558714D02*
X21657400Y-16258714D01*
X21785971Y-16558714D02*
X21785971Y-16401571D01*
X21771686Y-16373000D01*
X21743114Y-16358714D01*
X21700257Y-16358714D01*
X21671686Y-16373000D01*
X21657400Y-16387286D01*
X21971686Y-16558714D02*
X21943114Y-16544429D01*
X21928828Y-16530143D01*
X21914543Y-16501571D01*
X21914543Y-16415857D01*
X21928828Y-16387286D01*
X21943114Y-16373000D01*
X21971686Y-16358714D01*
X22014543Y-16358714D01*
X22043114Y-16373000D01*
X22057400Y-16387286D01*
X22071686Y-16415857D01*
X22071686Y-16501571D01*
X22057400Y-16530143D01*
X22043114Y-16544429D01*
X22014543Y-16558714D01*
X21971686Y-16558714D01*
X22243114Y-16558714D02*
X22214543Y-16544429D01*
X22200257Y-16515857D01*
X22200257Y-16258714D01*
X22471686Y-16544429D02*
X22443114Y-16558714D01*
X22385971Y-16558714D01*
X22357400Y-16544429D01*
X22343114Y-16515857D01*
X22343114Y-16401571D01*
X22357400Y-16373000D01*
X22385971Y-16358714D01*
X22443114Y-16358714D01*
X22471686Y-16373000D01*
X22485971Y-16401571D01*
X22485971Y-16430143D01*
X22343114Y-16458714D01*
X22600257Y-16544429D02*
X22628828Y-16558714D01*
X22685971Y-16558714D01*
X22714543Y-16544429D01*
X22728828Y-16515857D01*
X22728828Y-16501571D01*
X22714543Y-16473000D01*
X22685971Y-16458714D01*
X22643114Y-16458714D01*
X22614543Y-16444429D01*
X22600257Y-16415857D01*
X22600257Y-16401571D01*
X22614543Y-16373000D01*
X22643114Y-16358714D01*
X22685971Y-16358714D01*
X22714543Y-16373000D01*
X23085971Y-16444429D02*
X23314543Y-16444429D01*
X23200257Y-16558714D02*
X23200257Y-16330143D01*
X23671686Y-16287286D02*
X23685971Y-16273000D01*
X23714543Y-16258714D01*
X23785971Y-16258714D01*
X23814543Y-16273000D01*
X23828828Y-16287286D01*
X23843114Y-16315857D01*
X23843114Y-16344429D01*
X23828828Y-16387286D01*
X23657400Y-16558714D01*
X23843114Y-16558714D01*
X24185971Y-16544429D02*
X24214543Y-16558714D01*
X24271686Y-16558714D01*
X24300257Y-16544429D01*
X24314543Y-16515857D01*
X24314543Y-16501571D01*
X24300257Y-16473000D01*
X24271686Y-16458714D01*
X24228828Y-16458714D01*
X24200257Y-16444429D01*
X24185971Y-16415857D01*
X24185971Y-16401571D01*
X24200257Y-16373000D01*
X24228828Y-16358714D01*
X24271686Y-16358714D01*
X24300257Y-16373000D01*
X24485971Y-16558714D02*
X24457400Y-16544429D01*
X24443114Y-16515857D01*
X24443114Y-16258714D01*
X24643114Y-16558714D02*
X24614543Y-16544429D01*
X24600257Y-16530143D01*
X24585971Y-16501571D01*
X24585971Y-16415857D01*
X24600257Y-16387286D01*
X24614543Y-16373000D01*
X24643114Y-16358714D01*
X24685971Y-16358714D01*
X24714543Y-16373000D01*
X24728828Y-16387286D01*
X24743114Y-16415857D01*
X24743114Y-16501571D01*
X24728828Y-16530143D01*
X24714543Y-16544429D01*
X24685971Y-16558714D01*
X24643114Y-16558714D01*
X24828828Y-16358714D02*
X24943114Y-16358714D01*
X24871686Y-16258714D02*
X24871686Y-16515857D01*
X24885971Y-16544429D01*
X24914543Y-16558714D01*
X24943114Y-16558714D01*
X25028828Y-16544429D02*
X25057400Y-16558714D01*
X25114543Y-16558714D01*
X25143114Y-16544429D01*
X25157400Y-16515857D01*
X25157400Y-16501571D01*
X25143114Y-16473000D01*
X25114543Y-16458714D01*
X25071686Y-16458714D01*
X25043114Y-16444429D01*
X25028828Y-16415857D01*
X25028828Y-16401571D01*
X25043114Y-16373000D01*
X25071686Y-16358714D01*
X25114543Y-16358714D01*
X25143114Y-16373000D01*
X25257400Y-16673000D02*
X25271686Y-16658714D01*
X25300257Y-16615857D01*
X25314543Y-16587286D01*
X25328828Y-16544429D01*
X25343114Y-16473000D01*
X25343114Y-16415857D01*
X25328828Y-16344429D01*
X25314543Y-16301571D01*
X25300257Y-16273000D01*
X25271686Y-16230143D01*
X25257400Y-16215857D01*
X16332149Y-16843749D02*
X16332149Y-16794251D01*
X16282651Y-16794251D01*
X16282651Y-16843749D01*
X16332149Y-16843749D01*
X16685971Y-16654714D02*
X16714543Y-16654714D01*
X16743114Y-16669000D01*
X16757400Y-16683286D01*
X16771686Y-16711857D01*
X16785971Y-16769000D01*
X16785971Y-16840429D01*
X16771686Y-16897572D01*
X16757400Y-16926143D01*
X16743114Y-16940429D01*
X16714543Y-16954714D01*
X16685971Y-16954714D01*
X16657400Y-16940429D01*
X16643114Y-16926143D01*
X16628828Y-16897572D01*
X16614543Y-16840429D01*
X16614543Y-16769000D01*
X16628828Y-16711857D01*
X16643114Y-16683286D01*
X16657400Y-16669000D01*
X16685971Y-16654714D01*
X16914543Y-16926143D02*
X16928828Y-16940429D01*
X16914543Y-16954714D01*
X16900257Y-16940429D01*
X16914543Y-16926143D01*
X16914543Y-16954714D01*
X17028828Y-16654714D02*
X17228828Y-16654714D01*
X17100257Y-16954714D01*
X17400257Y-16654714D02*
X17428828Y-16654714D01*
X17457400Y-16669000D01*
X17471686Y-16683286D01*
X17485971Y-16711857D01*
X17500257Y-16769000D01*
X17500257Y-16840429D01*
X17485971Y-16897572D01*
X17471686Y-16926143D01*
X17457400Y-16940429D01*
X17428828Y-16954714D01*
X17400257Y-16954714D01*
X17371686Y-16940429D01*
X17357400Y-16926143D01*
X17343114Y-16897572D01*
X17328828Y-16840429D01*
X17328828Y-16769000D01*
X17343114Y-16711857D01*
X17357400Y-16683286D01*
X17371686Y-16669000D01*
X17400257Y-16654714D01*
X17628828Y-16954714D02*
X17628828Y-16754714D01*
X17628828Y-16783286D02*
X17643114Y-16769000D01*
X17671686Y-16754714D01*
X17714543Y-16754714D01*
X17743114Y-16769000D01*
X17757400Y-16797572D01*
X17757400Y-16954714D01*
X17757400Y-16797572D02*
X17771686Y-16769000D01*
X17800257Y-16754714D01*
X17843114Y-16754714D01*
X17871686Y-16769000D01*
X17885971Y-16797572D01*
X17885971Y-16954714D01*
X18028828Y-16954714D02*
X18028828Y-16754714D01*
X18028828Y-16783286D02*
X18043114Y-16769000D01*
X18071686Y-16754714D01*
X18114543Y-16754714D01*
X18143114Y-16769000D01*
X18157400Y-16797572D01*
X18157400Y-16954714D01*
X18157400Y-16797572D02*
X18171686Y-16769000D01*
X18200257Y-16754714D01*
X18243114Y-16754714D01*
X18271686Y-16769000D01*
X18285971Y-16797572D01*
X18285971Y-16954714D01*
X18871686Y-16640429D02*
X18614543Y-17026143D01*
X19257400Y-16654714D02*
X19285971Y-16654714D01*
X19314543Y-16669000D01*
X19328828Y-16683286D01*
X19343114Y-16711857D01*
X19357400Y-16769000D01*
X19357400Y-16840429D01*
X19343114Y-16897572D01*
X19328828Y-16926143D01*
X19314543Y-16940429D01*
X19285971Y-16954714D01*
X19257400Y-16954714D01*
X19228828Y-16940429D01*
X19214543Y-16926143D01*
X19200257Y-16897572D01*
X19185971Y-16840429D01*
X19185971Y-16769000D01*
X19200257Y-16711857D01*
X19214543Y-16683286D01*
X19228828Y-16669000D01*
X19257400Y-16654714D01*
X19485971Y-16926143D02*
X19500257Y-16940429D01*
X19485971Y-16954714D01*
X19471686Y-16940429D01*
X19485971Y-16926143D01*
X19485971Y-16954714D01*
X19685971Y-16654714D02*
X19714543Y-16654714D01*
X19743114Y-16669000D01*
X19757400Y-16683286D01*
X19771686Y-16711857D01*
X19785971Y-16769000D01*
X19785971Y-16840429D01*
X19771686Y-16897572D01*
X19757400Y-16926143D01*
X19743114Y-16940429D01*
X19714543Y-16954714D01*
X19685971Y-16954714D01*
X19657400Y-16940429D01*
X19643114Y-16926143D01*
X19628828Y-16897572D01*
X19614543Y-16840429D01*
X19614543Y-16769000D01*
X19628828Y-16711857D01*
X19643114Y-16683286D01*
X19657400Y-16669000D01*
X19685971Y-16654714D01*
X19900257Y-16683286D02*
X19914543Y-16669000D01*
X19943114Y-16654714D01*
X20014543Y-16654714D01*
X20043114Y-16669000D01*
X20057400Y-16683286D01*
X20071686Y-16711857D01*
X20071686Y-16740429D01*
X20057400Y-16783286D01*
X19885971Y-16954714D01*
X20071686Y-16954714D01*
X20243114Y-16783286D02*
X20214543Y-16769000D01*
X20200257Y-16754714D01*
X20185971Y-16726143D01*
X20185971Y-16711857D01*
X20200257Y-16683286D01*
X20214543Y-16669000D01*
X20243114Y-16654714D01*
X20300257Y-16654714D01*
X20328828Y-16669000D01*
X20343114Y-16683286D01*
X20357400Y-16711857D01*
X20357400Y-16726143D01*
X20343114Y-16754714D01*
X20328828Y-16769000D01*
X20300257Y-16783286D01*
X20243114Y-16783286D01*
X20214543Y-16797572D01*
X20200257Y-16811857D01*
X20185971Y-16840429D01*
X20185971Y-16897572D01*
X20200257Y-16926143D01*
X20214543Y-16940429D01*
X20243114Y-16954714D01*
X20300257Y-16954714D01*
X20328828Y-16940429D01*
X20343114Y-16926143D01*
X20357400Y-16897572D01*
X20357400Y-16840429D01*
X20343114Y-16811857D01*
X20328828Y-16797572D01*
X20300257Y-16783286D01*
X20471686Y-16654714D02*
X20471686Y-16711857D01*
X20585971Y-16654714D02*
X20585971Y-16711857D01*
X21028828Y-17069000D02*
X21014543Y-17054714D01*
X20985971Y-17011857D01*
X20971686Y-16983286D01*
X20957400Y-16940429D01*
X20943114Y-16869000D01*
X20943114Y-16811857D01*
X20957400Y-16740429D01*
X20971686Y-16697571D01*
X20985971Y-16669000D01*
X21014543Y-16626143D01*
X21028828Y-16611857D01*
X21200257Y-16654714D02*
X21228828Y-16654714D01*
X21257400Y-16669000D01*
X21271686Y-16683286D01*
X21285971Y-16711857D01*
X21300257Y-16769000D01*
X21300257Y-16840429D01*
X21285971Y-16897572D01*
X21271686Y-16926143D01*
X21257400Y-16940429D01*
X21228828Y-16954714D01*
X21200257Y-16954714D01*
X21171686Y-16940429D01*
X21157400Y-16926143D01*
X21143114Y-16897572D01*
X21128828Y-16840429D01*
X21128828Y-16769000D01*
X21143114Y-16711857D01*
X21157400Y-16683286D01*
X21171686Y-16669000D01*
X21200257Y-16654714D01*
X21657400Y-16954714D02*
X21657400Y-16654714D01*
X21785971Y-16954714D02*
X21785971Y-16797572D01*
X21771686Y-16769000D01*
X21743114Y-16754714D01*
X21700257Y-16754714D01*
X21671686Y-16769000D01*
X21657400Y-16783286D01*
X21971686Y-16954714D02*
X21943114Y-16940429D01*
X21928828Y-16926143D01*
X21914543Y-16897572D01*
X21914543Y-16811857D01*
X21928828Y-16783286D01*
X21943114Y-16769000D01*
X21971686Y-16754714D01*
X22014543Y-16754714D01*
X22043114Y-16769000D01*
X22057400Y-16783286D01*
X22071686Y-16811857D01*
X22071686Y-16897572D01*
X22057400Y-16926143D01*
X22043114Y-16940429D01*
X22014543Y-16954714D01*
X21971686Y-16954714D01*
X22243114Y-16954714D02*
X22214543Y-16940429D01*
X22200257Y-16911857D01*
X22200257Y-16654714D01*
X22471686Y-16940429D02*
X22443114Y-16954714D01*
X22385971Y-16954714D01*
X22357400Y-16940429D01*
X22343114Y-16911857D01*
X22343114Y-16797572D01*
X22357400Y-16769000D01*
X22385971Y-16754714D01*
X22443114Y-16754714D01*
X22471686Y-16769000D01*
X22485971Y-16797572D01*
X22485971Y-16826143D01*
X22343114Y-16854714D01*
X22600257Y-16940429D02*
X22628828Y-16954714D01*
X22685971Y-16954714D01*
X22714543Y-16940429D01*
X22728828Y-16911857D01*
X22728828Y-16897572D01*
X22714543Y-16869000D01*
X22685971Y-16854714D01*
X22643114Y-16854714D01*
X22614543Y-16840429D01*
X22600257Y-16811857D01*
X22600257Y-16797572D01*
X22614543Y-16769000D01*
X22643114Y-16754714D01*
X22685971Y-16754714D01*
X22714543Y-16769000D01*
X23085971Y-16840429D02*
X23314543Y-16840429D01*
X23200257Y-16954714D02*
X23200257Y-16726143D01*
X23671686Y-16683286D02*
X23685971Y-16669000D01*
X23714543Y-16654714D01*
X23785971Y-16654714D01*
X23814543Y-16669000D01*
X23828828Y-16683286D01*
X23843114Y-16711857D01*
X23843114Y-16740429D01*
X23828828Y-16783286D01*
X23657400Y-16954714D01*
X23843114Y-16954714D01*
X24185971Y-16940429D02*
X24214543Y-16954714D01*
X24271686Y-16954714D01*
X24300257Y-16940429D01*
X24314543Y-16911857D01*
X24314543Y-16897572D01*
X24300257Y-16869000D01*
X24271686Y-16854714D01*
X24228828Y-16854714D01*
X24200257Y-16840429D01*
X24185971Y-16811857D01*
X24185971Y-16797572D01*
X24200257Y-16769000D01*
X24228828Y-16754714D01*
X24271686Y-16754714D01*
X24300257Y-16769000D01*
X24485971Y-16954714D02*
X24457400Y-16940429D01*
X24443114Y-16911857D01*
X24443114Y-16654714D01*
X24643114Y-16954714D02*
X24614543Y-16940429D01*
X24600257Y-16926143D01*
X24585971Y-16897572D01*
X24585971Y-16811857D01*
X24600257Y-16783286D01*
X24614543Y-16769000D01*
X24643114Y-16754714D01*
X24685971Y-16754714D01*
X24714543Y-16769000D01*
X24728828Y-16783286D01*
X24743114Y-16811857D01*
X24743114Y-16897572D01*
X24728828Y-16926143D01*
X24714543Y-16940429D01*
X24685971Y-16954714D01*
X24643114Y-16954714D01*
X24828828Y-16754714D02*
X24943114Y-16754714D01*
X24871686Y-16654714D02*
X24871686Y-16911857D01*
X24885971Y-16940429D01*
X24914543Y-16954714D01*
X24943114Y-16954714D01*
X25028828Y-16940429D02*
X25057400Y-16954714D01*
X25114543Y-16954714D01*
X25143114Y-16940429D01*
X25157400Y-16911857D01*
X25157400Y-16897572D01*
X25143114Y-16869000D01*
X25114543Y-16854714D01*
X25071686Y-16854714D01*
X25043114Y-16840429D01*
X25028828Y-16811857D01*
X25028828Y-16797572D01*
X25043114Y-16769000D01*
X25071686Y-16754714D01*
X25114543Y-16754714D01*
X25143114Y-16769000D01*
X25257400Y-17069000D02*
X25271686Y-17054714D01*
X25300257Y-17011857D01*
X25314543Y-16983286D01*
X25328828Y-16940429D01*
X25343114Y-16869000D01*
X25343114Y-16811857D01*
X25328828Y-16740429D01*
X25314543Y-16697571D01*
X25300257Y-16669000D01*
X25271686Y-16626143D01*
X25257400Y-16611857D01*
X16306900Y-17250500D02*
X16342400Y-17215000D01*
X16306900Y-17179500D01*
X16271400Y-17215000D01*
X16306900Y-17250500D01*
X16685971Y-17050714D02*
X16714543Y-17050714D01*
X16743114Y-17065000D01*
X16757400Y-17079286D01*
X16771686Y-17107857D01*
X16785971Y-17165000D01*
X16785971Y-17236429D01*
X16771686Y-17293572D01*
X16757400Y-17322143D01*
X16743114Y-17336429D01*
X16714543Y-17350714D01*
X16685971Y-17350714D01*
X16657400Y-17336429D01*
X16643114Y-17322143D01*
X16628828Y-17293572D01*
X16614543Y-17236429D01*
X16614543Y-17165000D01*
X16628828Y-17107857D01*
X16643114Y-17079286D01*
X16657400Y-17065000D01*
X16685971Y-17050714D01*
X16914543Y-17322143D02*
X16928828Y-17336429D01*
X16914543Y-17350714D01*
X16900257Y-17336429D01*
X16914543Y-17322143D01*
X16914543Y-17350714D01*
X17028828Y-17050714D02*
X17228828Y-17050714D01*
X17100257Y-17350714D01*
X17500257Y-17350714D02*
X17328828Y-17350714D01*
X17414543Y-17350714D02*
X17414543Y-17050714D01*
X17385971Y-17093572D01*
X17357400Y-17122143D01*
X17328828Y-17136429D01*
X17628828Y-17350714D02*
X17628828Y-17150714D01*
X17628828Y-17179286D02*
X17643114Y-17165000D01*
X17671686Y-17150714D01*
X17714543Y-17150714D01*
X17743114Y-17165000D01*
X17757400Y-17193572D01*
X17757400Y-17350714D01*
X17757400Y-17193572D02*
X17771686Y-17165000D01*
X17800257Y-17150714D01*
X17843114Y-17150714D01*
X17871686Y-17165000D01*
X17885971Y-17193572D01*
X17885971Y-17350714D01*
X18028828Y-17350714D02*
X18028828Y-17150714D01*
X18028828Y-17179286D02*
X18043114Y-17165000D01*
X18071686Y-17150714D01*
X18114543Y-17150714D01*
X18143114Y-17165000D01*
X18157400Y-17193572D01*
X18157400Y-17350714D01*
X18157400Y-17193572D02*
X18171686Y-17165000D01*
X18200257Y-17150714D01*
X18243114Y-17150714D01*
X18271686Y-17165000D01*
X18285971Y-17193572D01*
X18285971Y-17350714D01*
X18871686Y-17036429D02*
X18614543Y-17422143D01*
X19257400Y-17050714D02*
X19285971Y-17050714D01*
X19314543Y-17065000D01*
X19328828Y-17079286D01*
X19343114Y-17107857D01*
X19357400Y-17165000D01*
X19357400Y-17236429D01*
X19343114Y-17293572D01*
X19328828Y-17322143D01*
X19314543Y-17336429D01*
X19285971Y-17350714D01*
X19257400Y-17350714D01*
X19228828Y-17336429D01*
X19214543Y-17322143D01*
X19200257Y-17293572D01*
X19185971Y-17236429D01*
X19185971Y-17165000D01*
X19200257Y-17107857D01*
X19214543Y-17079286D01*
X19228828Y-17065000D01*
X19257400Y-17050714D01*
X19485971Y-17322143D02*
X19500257Y-17336429D01*
X19485971Y-17350714D01*
X19471686Y-17336429D01*
X19485971Y-17322143D01*
X19485971Y-17350714D01*
X19685971Y-17050714D02*
X19714543Y-17050714D01*
X19743114Y-17065000D01*
X19757400Y-17079286D01*
X19771686Y-17107857D01*
X19785971Y-17165000D01*
X19785971Y-17236429D01*
X19771686Y-17293572D01*
X19757400Y-17322143D01*
X19743114Y-17336429D01*
X19714543Y-17350714D01*
X19685971Y-17350714D01*
X19657400Y-17336429D01*
X19643114Y-17322143D01*
X19628828Y-17293572D01*
X19614543Y-17236429D01*
X19614543Y-17165000D01*
X19628828Y-17107857D01*
X19643114Y-17079286D01*
X19657400Y-17065000D01*
X19685971Y-17050714D01*
X19900257Y-17079286D02*
X19914543Y-17065000D01*
X19943114Y-17050714D01*
X20014543Y-17050714D01*
X20043114Y-17065000D01*
X20057400Y-17079286D01*
X20071686Y-17107857D01*
X20071686Y-17136429D01*
X20057400Y-17179286D01*
X19885971Y-17350714D01*
X20071686Y-17350714D01*
X20243114Y-17179286D02*
X20214543Y-17165000D01*
X20200257Y-17150714D01*
X20185971Y-17122143D01*
X20185971Y-17107857D01*
X20200257Y-17079286D01*
X20214543Y-17065000D01*
X20243114Y-17050714D01*
X20300257Y-17050714D01*
X20328828Y-17065000D01*
X20343114Y-17079286D01*
X20357400Y-17107857D01*
X20357400Y-17122143D01*
X20343114Y-17150714D01*
X20328828Y-17165000D01*
X20300257Y-17179286D01*
X20243114Y-17179286D01*
X20214543Y-17193572D01*
X20200257Y-17207857D01*
X20185971Y-17236429D01*
X20185971Y-17293572D01*
X20200257Y-17322143D01*
X20214543Y-17336429D01*
X20243114Y-17350714D01*
X20300257Y-17350714D01*
X20328828Y-17336429D01*
X20343114Y-17322143D01*
X20357400Y-17293572D01*
X20357400Y-17236429D01*
X20343114Y-17207857D01*
X20328828Y-17193572D01*
X20300257Y-17179286D01*
X20471686Y-17050714D02*
X20471686Y-17107857D01*
X20585971Y-17050714D02*
X20585971Y-17107857D01*
X21028828Y-17465000D02*
X21014543Y-17450714D01*
X20985971Y-17407857D01*
X20971686Y-17379286D01*
X20957400Y-17336429D01*
X20943114Y-17265000D01*
X20943114Y-17207857D01*
X20957400Y-17136429D01*
X20971686Y-17093572D01*
X20985971Y-17065000D01*
X21014543Y-17022143D01*
X21028828Y-17007857D01*
X21128828Y-17079286D02*
X21143114Y-17065000D01*
X21171686Y-17050714D01*
X21243114Y-17050714D01*
X21271686Y-17065000D01*
X21285971Y-17079286D01*
X21300257Y-17107857D01*
X21300257Y-17136429D01*
X21285971Y-17179286D01*
X21114543Y-17350714D01*
X21300257Y-17350714D01*
X21485971Y-17050714D02*
X21514543Y-17050714D01*
X21543114Y-17065000D01*
X21557400Y-17079286D01*
X21571686Y-17107857D01*
X21585971Y-17165000D01*
X21585971Y-17236429D01*
X21571686Y-17293572D01*
X21557400Y-17322143D01*
X21543114Y-17336429D01*
X21514543Y-17350714D01*
X21485971Y-17350714D01*
X21457400Y-17336429D01*
X21443114Y-17322143D01*
X21428828Y-17293572D01*
X21414543Y-17236429D01*
X21414543Y-17165000D01*
X21428828Y-17107857D01*
X21443114Y-17079286D01*
X21457400Y-17065000D01*
X21485971Y-17050714D01*
X21943114Y-17350714D02*
X21943114Y-17050714D01*
X22071686Y-17350714D02*
X22071686Y-17193572D01*
X22057400Y-17165000D01*
X22028828Y-17150714D01*
X21985971Y-17150714D01*
X21957400Y-17165000D01*
X21943114Y-17179286D01*
X22257400Y-17350714D02*
X22228828Y-17336429D01*
X22214543Y-17322143D01*
X22200257Y-17293572D01*
X22200257Y-17207857D01*
X22214543Y-17179286D01*
X22228828Y-17165000D01*
X22257400Y-17150714D01*
X22300257Y-17150714D01*
X22328828Y-17165000D01*
X22343114Y-17179286D01*
X22357400Y-17207857D01*
X22357400Y-17293572D01*
X22343114Y-17322143D01*
X22328828Y-17336429D01*
X22300257Y-17350714D01*
X22257400Y-17350714D01*
X22528828Y-17350714D02*
X22500257Y-17336429D01*
X22485971Y-17307857D01*
X22485971Y-17050714D01*
X22757400Y-17336429D02*
X22728828Y-17350714D01*
X22671686Y-17350714D01*
X22643114Y-17336429D01*
X22628828Y-17307857D01*
X22628828Y-17193572D01*
X22643114Y-17165000D01*
X22671686Y-17150714D01*
X22728828Y-17150714D01*
X22757400Y-17165000D01*
X22771686Y-17193572D01*
X22771686Y-17222143D01*
X22628828Y-17250714D01*
X22885971Y-17336429D02*
X22914543Y-17350714D01*
X22971686Y-17350714D01*
X23000257Y-17336429D01*
X23014543Y-17307857D01*
X23014543Y-17293572D01*
X23000257Y-17265000D01*
X22971686Y-17250714D01*
X22928828Y-17250714D01*
X22900257Y-17236429D01*
X22885971Y-17207857D01*
X22885971Y-17193572D01*
X22900257Y-17165000D01*
X22928828Y-17150714D01*
X22971686Y-17150714D01*
X23000257Y-17165000D01*
X23114543Y-17465000D02*
X23128828Y-17450714D01*
X23157400Y-17407857D01*
X23171686Y-17379286D01*
X23185971Y-17336429D01*
X23200257Y-17265000D01*
X23200257Y-17207857D01*
X23185971Y-17136429D01*
X23171686Y-17093572D01*
X23157400Y-17065000D01*
X23128828Y-17022143D01*
X23114543Y-17007857D01*
X16262400Y-17571000D02*
X16342400Y-17651000D01*
X16342400Y-17571000D02*
X16262400Y-17651000D01*
X16342400Y-17611000D02*
G75*
G03*
X16342400Y-17611000I-40000J0D01*
G01*
X16685971Y-17446714D02*
X16714543Y-17446714D01*
X16743114Y-17461000D01*
X16757400Y-17475286D01*
X16771686Y-17503857D01*
X16785971Y-17561000D01*
X16785971Y-17632429D01*
X16771686Y-17689572D01*
X16757400Y-17718143D01*
X16743114Y-17732429D01*
X16714543Y-17746714D01*
X16685971Y-17746714D01*
X16657400Y-17732429D01*
X16643114Y-17718143D01*
X16628828Y-17689572D01*
X16614543Y-17632429D01*
X16614543Y-17561000D01*
X16628828Y-17503857D01*
X16643114Y-17475286D01*
X16657400Y-17461000D01*
X16685971Y-17446714D01*
X16914543Y-17718143D02*
X16928828Y-17732429D01*
X16914543Y-17746714D01*
X16900257Y-17732429D01*
X16914543Y-17718143D01*
X16914543Y-17746714D01*
X17100257Y-17575286D02*
X17071686Y-17561000D01*
X17057400Y-17546714D01*
X17043114Y-17518143D01*
X17043114Y-17503857D01*
X17057400Y-17475286D01*
X17071686Y-17461000D01*
X17100257Y-17446714D01*
X17157400Y-17446714D01*
X17185971Y-17461000D01*
X17200257Y-17475286D01*
X17214543Y-17503857D01*
X17214543Y-17518143D01*
X17200257Y-17546714D01*
X17185971Y-17561000D01*
X17157400Y-17575286D01*
X17100257Y-17575286D01*
X17071686Y-17589572D01*
X17057400Y-17603857D01*
X17043114Y-17632429D01*
X17043114Y-17689572D01*
X17057400Y-17718143D01*
X17071686Y-17732429D01*
X17100257Y-17746714D01*
X17157400Y-17746714D01*
X17185971Y-17732429D01*
X17200257Y-17718143D01*
X17214543Y-17689572D01*
X17214543Y-17632429D01*
X17200257Y-17603857D01*
X17185971Y-17589572D01*
X17157400Y-17575286D01*
X17400257Y-17446714D02*
X17428828Y-17446714D01*
X17457400Y-17461000D01*
X17471686Y-17475286D01*
X17485971Y-17503857D01*
X17500257Y-17561000D01*
X17500257Y-17632429D01*
X17485971Y-17689572D01*
X17471686Y-17718143D01*
X17457400Y-17732429D01*
X17428828Y-17746714D01*
X17400257Y-17746714D01*
X17371686Y-17732429D01*
X17357400Y-17718143D01*
X17343114Y-17689572D01*
X17328828Y-17632429D01*
X17328828Y-17561000D01*
X17343114Y-17503857D01*
X17357400Y-17475286D01*
X17371686Y-17461000D01*
X17400257Y-17446714D01*
X17628828Y-17746714D02*
X17628828Y-17546714D01*
X17628828Y-17575286D02*
X17643114Y-17561000D01*
X17671686Y-17546714D01*
X17714543Y-17546714D01*
X17743114Y-17561000D01*
X17757400Y-17589572D01*
X17757400Y-17746714D01*
X17757400Y-17589572D02*
X17771686Y-17561000D01*
X17800257Y-17546714D01*
X17843114Y-17546714D01*
X17871686Y-17561000D01*
X17885971Y-17589572D01*
X17885971Y-17746714D01*
X18028828Y-17746714D02*
X18028828Y-17546714D01*
X18028828Y-17575286D02*
X18043114Y-17561000D01*
X18071686Y-17546714D01*
X18114543Y-17546714D01*
X18143114Y-17561000D01*
X18157400Y-17589572D01*
X18157400Y-17746714D01*
X18157400Y-17589572D02*
X18171686Y-17561000D01*
X18200257Y-17546714D01*
X18243114Y-17546714D01*
X18271686Y-17561000D01*
X18285971Y-17589572D01*
X18285971Y-17746714D01*
X18871686Y-17432429D02*
X18614543Y-17818143D01*
X19257400Y-17446714D02*
X19285971Y-17446714D01*
X19314543Y-17461000D01*
X19328828Y-17475286D01*
X19343114Y-17503857D01*
X19357400Y-17561000D01*
X19357400Y-17632429D01*
X19343114Y-17689572D01*
X19328828Y-17718143D01*
X19314543Y-17732429D01*
X19285971Y-17746714D01*
X19257400Y-17746714D01*
X19228828Y-17732429D01*
X19214543Y-17718143D01*
X19200257Y-17689572D01*
X19185971Y-17632429D01*
X19185971Y-17561000D01*
X19200257Y-17503857D01*
X19214543Y-17475286D01*
X19228828Y-17461000D01*
X19257400Y-17446714D01*
X19485971Y-17718143D02*
X19500257Y-17732429D01*
X19485971Y-17746714D01*
X19471686Y-17732429D01*
X19485971Y-17718143D01*
X19485971Y-17746714D01*
X19685971Y-17446714D02*
X19714543Y-17446714D01*
X19743114Y-17461000D01*
X19757400Y-17475286D01*
X19771686Y-17503857D01*
X19785971Y-17561000D01*
X19785971Y-17632429D01*
X19771686Y-17689572D01*
X19757400Y-17718143D01*
X19743114Y-17732429D01*
X19714543Y-17746714D01*
X19685971Y-17746714D01*
X19657400Y-17732429D01*
X19643114Y-17718143D01*
X19628828Y-17689572D01*
X19614543Y-17632429D01*
X19614543Y-17561000D01*
X19628828Y-17503857D01*
X19643114Y-17475286D01*
X19657400Y-17461000D01*
X19685971Y-17446714D01*
X19885971Y-17446714D02*
X20071686Y-17446714D01*
X19971686Y-17561000D01*
X20014543Y-17561000D01*
X20043114Y-17575286D01*
X20057400Y-17589572D01*
X20071686Y-17618143D01*
X20071686Y-17689572D01*
X20057400Y-17718143D01*
X20043114Y-17732429D01*
X20014543Y-17746714D01*
X19928828Y-17746714D01*
X19900257Y-17732429D01*
X19885971Y-17718143D01*
X20357400Y-17746714D02*
X20185971Y-17746714D01*
X20271686Y-17746714D02*
X20271686Y-17446714D01*
X20243114Y-17489572D01*
X20214543Y-17518143D01*
X20185971Y-17532429D01*
X20471686Y-17446714D02*
X20471686Y-17503857D01*
X20585971Y-17446714D02*
X20585971Y-17503857D01*
X21028828Y-17861000D02*
X21014543Y-17846714D01*
X20985971Y-17803857D01*
X20971686Y-17775286D01*
X20957400Y-17732429D01*
X20943114Y-17661000D01*
X20943114Y-17603857D01*
X20957400Y-17532429D01*
X20971686Y-17489572D01*
X20985971Y-17461000D01*
X21014543Y-17418143D01*
X21028828Y-17403857D01*
X21271686Y-17546714D02*
X21271686Y-17746714D01*
X21200257Y-17432429D02*
X21128828Y-17646714D01*
X21314543Y-17646714D01*
X21657400Y-17746714D02*
X21657400Y-17446714D01*
X21785971Y-17746714D02*
X21785971Y-17589572D01*
X21771686Y-17561000D01*
X21743114Y-17546714D01*
X21700257Y-17546714D01*
X21671686Y-17561000D01*
X21657400Y-17575286D01*
X21971686Y-17746714D02*
X21943114Y-17732429D01*
X21928828Y-17718143D01*
X21914543Y-17689572D01*
X21914543Y-17603857D01*
X21928828Y-17575286D01*
X21943114Y-17561000D01*
X21971686Y-17546714D01*
X22014543Y-17546714D01*
X22043114Y-17561000D01*
X22057400Y-17575286D01*
X22071686Y-17603857D01*
X22071686Y-17689572D01*
X22057400Y-17718143D01*
X22043114Y-17732429D01*
X22014543Y-17746714D01*
X21971686Y-17746714D01*
X22243114Y-17746714D02*
X22214543Y-17732429D01*
X22200257Y-17703857D01*
X22200257Y-17446714D01*
X22471686Y-17732429D02*
X22443114Y-17746714D01*
X22385971Y-17746714D01*
X22357400Y-17732429D01*
X22343114Y-17703857D01*
X22343114Y-17589572D01*
X22357400Y-17561000D01*
X22385971Y-17546714D01*
X22443114Y-17546714D01*
X22471686Y-17561000D01*
X22485971Y-17589572D01*
X22485971Y-17618143D01*
X22343114Y-17646714D01*
X22600257Y-17732429D02*
X22628828Y-17746714D01*
X22685971Y-17746714D01*
X22714543Y-17732429D01*
X22728828Y-17703857D01*
X22728828Y-17689572D01*
X22714543Y-17661000D01*
X22685971Y-17646714D01*
X22643114Y-17646714D01*
X22614543Y-17632429D01*
X22600257Y-17603857D01*
X22600257Y-17589572D01*
X22614543Y-17561000D01*
X22643114Y-17546714D01*
X22685971Y-17546714D01*
X22714543Y-17561000D01*
X22828828Y-17861000D02*
X22843114Y-17846714D01*
X22871686Y-17803857D01*
X22885971Y-17775286D01*
X22900257Y-17732429D01*
X22914543Y-17661000D01*
X22914543Y-17603857D01*
X22900257Y-17532429D01*
X22885971Y-17489572D01*
X22871686Y-17461000D01*
X22843114Y-17418143D01*
X22828828Y-17403857D01*
X16242400Y-17957000D02*
X16342400Y-18057000D01*
X16342400Y-17957000D02*
X16242400Y-18057000D01*
X16292400Y-17957000D02*
X16292400Y-18057000D01*
X16242400Y-18007000D02*
X16342400Y-18007000D01*
X16785971Y-18142714D02*
X16614543Y-18142714D01*
X16700257Y-18142714D02*
X16700257Y-17842714D01*
X16671686Y-17885572D01*
X16643114Y-17914143D01*
X16614543Y-17928429D01*
X16914543Y-18114143D02*
X16928828Y-18128429D01*
X16914543Y-18142714D01*
X16900257Y-18128429D01*
X16914543Y-18114143D01*
X16914543Y-18142714D01*
X17114543Y-17842714D02*
X17143114Y-17842714D01*
X17171686Y-17857000D01*
X17185971Y-17871286D01*
X17200257Y-17899857D01*
X17214543Y-17957000D01*
X17214543Y-18028429D01*
X17200257Y-18085572D01*
X17185971Y-18114143D01*
X17171686Y-18128429D01*
X17143114Y-18142714D01*
X17114543Y-18142714D01*
X17085971Y-18128429D01*
X17071686Y-18114143D01*
X17057400Y-18085572D01*
X17043114Y-18028429D01*
X17043114Y-17957000D01*
X17057400Y-17899857D01*
X17071686Y-17871286D01*
X17085971Y-17857000D01*
X17114543Y-17842714D01*
X17400257Y-17842714D02*
X17428828Y-17842714D01*
X17457400Y-17857000D01*
X17471686Y-17871286D01*
X17485971Y-17899857D01*
X17500257Y-17957000D01*
X17500257Y-18028429D01*
X17485971Y-18085572D01*
X17471686Y-18114143D01*
X17457400Y-18128429D01*
X17428828Y-18142714D01*
X17400257Y-18142714D01*
X17371686Y-18128429D01*
X17357400Y-18114143D01*
X17343114Y-18085572D01*
X17328828Y-18028429D01*
X17328828Y-17957000D01*
X17343114Y-17899857D01*
X17357400Y-17871286D01*
X17371686Y-17857000D01*
X17400257Y-17842714D01*
X17628828Y-18142714D02*
X17628828Y-17942714D01*
X17628828Y-17971286D02*
X17643114Y-17957000D01*
X17671686Y-17942714D01*
X17714543Y-17942714D01*
X17743114Y-17957000D01*
X17757400Y-17985572D01*
X17757400Y-18142714D01*
X17757400Y-17985572D02*
X17771686Y-17957000D01*
X17800257Y-17942714D01*
X17843114Y-17942714D01*
X17871686Y-17957000D01*
X17885971Y-17985572D01*
X17885971Y-18142714D01*
X18028828Y-18142714D02*
X18028828Y-17942714D01*
X18028828Y-17971286D02*
X18043114Y-17957000D01*
X18071686Y-17942714D01*
X18114543Y-17942714D01*
X18143114Y-17957000D01*
X18157400Y-17985572D01*
X18157400Y-18142714D01*
X18157400Y-17985572D02*
X18171686Y-17957000D01*
X18200257Y-17942714D01*
X18243114Y-17942714D01*
X18271686Y-17957000D01*
X18285971Y-17985572D01*
X18285971Y-18142714D01*
X18871686Y-17828429D02*
X18614543Y-18214143D01*
X19257400Y-17842714D02*
X19285971Y-17842714D01*
X19314543Y-17857000D01*
X19328828Y-17871286D01*
X19343114Y-17899857D01*
X19357400Y-17957000D01*
X19357400Y-18028429D01*
X19343114Y-18085572D01*
X19328828Y-18114143D01*
X19314543Y-18128429D01*
X19285971Y-18142714D01*
X19257400Y-18142714D01*
X19228828Y-18128429D01*
X19214543Y-18114143D01*
X19200257Y-18085572D01*
X19185971Y-18028429D01*
X19185971Y-17957000D01*
X19200257Y-17899857D01*
X19214543Y-17871286D01*
X19228828Y-17857000D01*
X19257400Y-17842714D01*
X19485971Y-18114143D02*
X19500257Y-18128429D01*
X19485971Y-18142714D01*
X19471686Y-18128429D01*
X19485971Y-18114143D01*
X19485971Y-18142714D01*
X19685971Y-17842714D02*
X19714543Y-17842714D01*
X19743114Y-17857000D01*
X19757400Y-17871286D01*
X19771686Y-17899857D01*
X19785971Y-17957000D01*
X19785971Y-18028429D01*
X19771686Y-18085572D01*
X19757400Y-18114143D01*
X19743114Y-18128429D01*
X19714543Y-18142714D01*
X19685971Y-18142714D01*
X19657400Y-18128429D01*
X19643114Y-18114143D01*
X19628828Y-18085572D01*
X19614543Y-18028429D01*
X19614543Y-17957000D01*
X19628828Y-17899857D01*
X19643114Y-17871286D01*
X19657400Y-17857000D01*
X19685971Y-17842714D01*
X19885971Y-17842714D02*
X20071686Y-17842714D01*
X19971686Y-17957000D01*
X20014543Y-17957000D01*
X20043114Y-17971286D01*
X20057400Y-17985572D01*
X20071686Y-18014143D01*
X20071686Y-18085572D01*
X20057400Y-18114143D01*
X20043114Y-18128429D01*
X20014543Y-18142714D01*
X19928828Y-18142714D01*
X19900257Y-18128429D01*
X19885971Y-18114143D01*
X20214543Y-18142714D02*
X20271686Y-18142714D01*
X20300257Y-18128429D01*
X20314543Y-18114143D01*
X20343114Y-18071286D01*
X20357400Y-18014143D01*
X20357400Y-17899857D01*
X20343114Y-17871286D01*
X20328828Y-17857000D01*
X20300257Y-17842714D01*
X20243114Y-17842714D01*
X20214543Y-17857000D01*
X20200257Y-17871286D01*
X20185971Y-17899857D01*
X20185971Y-17971286D01*
X20200257Y-17999857D01*
X20214543Y-18014143D01*
X20243114Y-18028429D01*
X20300257Y-18028429D01*
X20328828Y-18014143D01*
X20343114Y-17999857D01*
X20357400Y-17971286D01*
X20471686Y-17842714D02*
X20471686Y-17899857D01*
X20585971Y-17842714D02*
X20585971Y-17899857D01*
X21028828Y-18257000D02*
X21014543Y-18242714D01*
X20985971Y-18199857D01*
X20971686Y-18171286D01*
X20957400Y-18128429D01*
X20943114Y-18057000D01*
X20943114Y-17999857D01*
X20957400Y-17928429D01*
X20971686Y-17885572D01*
X20985971Y-17857000D01*
X21014543Y-17814143D01*
X21028828Y-17799857D01*
X21185971Y-17971286D02*
X21157400Y-17957000D01*
X21143114Y-17942714D01*
X21128828Y-17914143D01*
X21128828Y-17899857D01*
X21143114Y-17871286D01*
X21157400Y-17857000D01*
X21185971Y-17842714D01*
X21243114Y-17842714D01*
X21271686Y-17857000D01*
X21285971Y-17871286D01*
X21300257Y-17899857D01*
X21300257Y-17914143D01*
X21285971Y-17942714D01*
X21271686Y-17957000D01*
X21243114Y-17971286D01*
X21185971Y-17971286D01*
X21157400Y-17985572D01*
X21143114Y-17999857D01*
X21128828Y-18028429D01*
X21128828Y-18085572D01*
X21143114Y-18114143D01*
X21157400Y-18128429D01*
X21185971Y-18142714D01*
X21243114Y-18142714D01*
X21271686Y-18128429D01*
X21285971Y-18114143D01*
X21300257Y-18085572D01*
X21300257Y-18028429D01*
X21285971Y-17999857D01*
X21271686Y-17985572D01*
X21243114Y-17971286D01*
X21414543Y-17871286D02*
X21428828Y-17857000D01*
X21457400Y-17842714D01*
X21528828Y-17842714D01*
X21557400Y-17857000D01*
X21571686Y-17871286D01*
X21585971Y-17899857D01*
X21585971Y-17928429D01*
X21571686Y-17971286D01*
X21400257Y-18142714D01*
X21585971Y-18142714D01*
X21943114Y-18142714D02*
X21943114Y-17842714D01*
X22071686Y-18142714D02*
X22071686Y-17985572D01*
X22057400Y-17957000D01*
X22028828Y-17942714D01*
X21985971Y-17942714D01*
X21957400Y-17957000D01*
X21943114Y-17971286D01*
X22257400Y-18142714D02*
X22228828Y-18128429D01*
X22214543Y-18114143D01*
X22200257Y-18085572D01*
X22200257Y-17999857D01*
X22214543Y-17971286D01*
X22228828Y-17957000D01*
X22257400Y-17942714D01*
X22300257Y-17942714D01*
X22328828Y-17957000D01*
X22343114Y-17971286D01*
X22357400Y-17999857D01*
X22357400Y-18085572D01*
X22343114Y-18114143D01*
X22328828Y-18128429D01*
X22300257Y-18142714D01*
X22257400Y-18142714D01*
X22528828Y-18142714D02*
X22500257Y-18128429D01*
X22485971Y-18099857D01*
X22485971Y-17842714D01*
X22757400Y-18128429D02*
X22728828Y-18142714D01*
X22671686Y-18142714D01*
X22643114Y-18128429D01*
X22628828Y-18099857D01*
X22628828Y-17985572D01*
X22643114Y-17957000D01*
X22671686Y-17942714D01*
X22728828Y-17942714D01*
X22757400Y-17957000D01*
X22771686Y-17985572D01*
X22771686Y-18014143D01*
X22628828Y-18042714D01*
X22885971Y-18128429D02*
X22914543Y-18142714D01*
X22971686Y-18142714D01*
X23000257Y-18128429D01*
X23014543Y-18099857D01*
X23014543Y-18085572D01*
X23000257Y-18057000D01*
X22971686Y-18042714D01*
X22928828Y-18042714D01*
X22900257Y-18028429D01*
X22885971Y-17999857D01*
X22885971Y-17985572D01*
X22900257Y-17957000D01*
X22928828Y-17942714D01*
X22971686Y-17942714D01*
X23000257Y-17957000D01*
X23114543Y-18257000D02*
X23128828Y-18242714D01*
X23157400Y-18199857D01*
X23171686Y-18171286D01*
X23185971Y-18128429D01*
X23200257Y-18057000D01*
X23200257Y-17999857D01*
X23185971Y-17928429D01*
X23171686Y-17885572D01*
X23157400Y-17857000D01*
X23128828Y-17814143D01*
X23114543Y-17799857D01*
X16222400Y-18343000D02*
X16342400Y-18463000D01*
X16342400Y-18343000D02*
X16222400Y-18463000D01*
X16324827Y-18445427D02*
X16324827Y-18360573D01*
X16239973Y-18360573D01*
X16239973Y-18445427D01*
X16324827Y-18445427D01*
X16785971Y-18538714D02*
X16614543Y-18538714D01*
X16700257Y-18538714D02*
X16700257Y-18238714D01*
X16671686Y-18281572D01*
X16643114Y-18310143D01*
X16614543Y-18324429D01*
X16914543Y-18510143D02*
X16928828Y-18524429D01*
X16914543Y-18538714D01*
X16900257Y-18524429D01*
X16914543Y-18510143D01*
X16914543Y-18538714D01*
X17043114Y-18267286D02*
X17057400Y-18253000D01*
X17085971Y-18238714D01*
X17157400Y-18238714D01*
X17185971Y-18253000D01*
X17200257Y-18267286D01*
X17214543Y-18295857D01*
X17214543Y-18324429D01*
X17200257Y-18367286D01*
X17028828Y-18538714D01*
X17214543Y-18538714D01*
X17400257Y-18238714D02*
X17428828Y-18238714D01*
X17457400Y-18253000D01*
X17471686Y-18267286D01*
X17485971Y-18295857D01*
X17500257Y-18353000D01*
X17500257Y-18424429D01*
X17485971Y-18481572D01*
X17471686Y-18510143D01*
X17457400Y-18524429D01*
X17428828Y-18538714D01*
X17400257Y-18538714D01*
X17371686Y-18524429D01*
X17357400Y-18510143D01*
X17343114Y-18481572D01*
X17328828Y-18424429D01*
X17328828Y-18353000D01*
X17343114Y-18295857D01*
X17357400Y-18267286D01*
X17371686Y-18253000D01*
X17400257Y-18238714D01*
X17628828Y-18538714D02*
X17628828Y-18338714D01*
X17628828Y-18367286D02*
X17643114Y-18353000D01*
X17671686Y-18338714D01*
X17714543Y-18338714D01*
X17743114Y-18353000D01*
X17757400Y-18381572D01*
X17757400Y-18538714D01*
X17757400Y-18381572D02*
X17771686Y-18353000D01*
X17800257Y-18338714D01*
X17843114Y-18338714D01*
X17871686Y-18353000D01*
X17885971Y-18381572D01*
X17885971Y-18538714D01*
X18028828Y-18538714D02*
X18028828Y-18338714D01*
X18028828Y-18367286D02*
X18043114Y-18353000D01*
X18071686Y-18338714D01*
X18114543Y-18338714D01*
X18143114Y-18353000D01*
X18157400Y-18381572D01*
X18157400Y-18538714D01*
X18157400Y-18381572D02*
X18171686Y-18353000D01*
X18200257Y-18338714D01*
X18243114Y-18338714D01*
X18271686Y-18353000D01*
X18285971Y-18381572D01*
X18285971Y-18538714D01*
X18871686Y-18224429D02*
X18614543Y-18610143D01*
X19257400Y-18238714D02*
X19285971Y-18238714D01*
X19314543Y-18253000D01*
X19328828Y-18267286D01*
X19343114Y-18295857D01*
X19357400Y-18353000D01*
X19357400Y-18424429D01*
X19343114Y-18481572D01*
X19328828Y-18510143D01*
X19314543Y-18524429D01*
X19285971Y-18538714D01*
X19257400Y-18538714D01*
X19228828Y-18524429D01*
X19214543Y-18510143D01*
X19200257Y-18481572D01*
X19185971Y-18424429D01*
X19185971Y-18353000D01*
X19200257Y-18295857D01*
X19214543Y-18267286D01*
X19228828Y-18253000D01*
X19257400Y-18238714D01*
X19485971Y-18510143D02*
X19500257Y-18524429D01*
X19485971Y-18538714D01*
X19471686Y-18524429D01*
X19485971Y-18510143D01*
X19485971Y-18538714D01*
X19685971Y-18238714D02*
X19714543Y-18238714D01*
X19743114Y-18253000D01*
X19757400Y-18267286D01*
X19771686Y-18295857D01*
X19785971Y-18353000D01*
X19785971Y-18424429D01*
X19771686Y-18481572D01*
X19757400Y-18510143D01*
X19743114Y-18524429D01*
X19714543Y-18538714D01*
X19685971Y-18538714D01*
X19657400Y-18524429D01*
X19643114Y-18510143D01*
X19628828Y-18481572D01*
X19614543Y-18424429D01*
X19614543Y-18353000D01*
X19628828Y-18295857D01*
X19643114Y-18267286D01*
X19657400Y-18253000D01*
X19685971Y-18238714D01*
X20043114Y-18338714D02*
X20043114Y-18538714D01*
X19971686Y-18224429D02*
X19900257Y-18438714D01*
X20085971Y-18438714D01*
X20171686Y-18238714D02*
X20371686Y-18238714D01*
X20243114Y-18538714D01*
X20471686Y-18238714D02*
X20471686Y-18295857D01*
X20585971Y-18238714D02*
X20585971Y-18295857D01*
X21028828Y-18653000D02*
X21014543Y-18638714D01*
X20985971Y-18595857D01*
X20971686Y-18567286D01*
X20957400Y-18524429D01*
X20943114Y-18453000D01*
X20943114Y-18395857D01*
X20957400Y-18324429D01*
X20971686Y-18281572D01*
X20985971Y-18253000D01*
X21014543Y-18210143D01*
X21028828Y-18195857D01*
X21128828Y-18267286D02*
X21143114Y-18253000D01*
X21171686Y-18238714D01*
X21243114Y-18238714D01*
X21271686Y-18253000D01*
X21285971Y-18267286D01*
X21300257Y-18295857D01*
X21300257Y-18324429D01*
X21285971Y-18367286D01*
X21114543Y-18538714D01*
X21300257Y-18538714D01*
X21657400Y-18538714D02*
X21657400Y-18238714D01*
X21785971Y-18538714D02*
X21785971Y-18381572D01*
X21771686Y-18353000D01*
X21743114Y-18338714D01*
X21700257Y-18338714D01*
X21671686Y-18353000D01*
X21657400Y-18367286D01*
X21971686Y-18538714D02*
X21943114Y-18524429D01*
X21928828Y-18510143D01*
X21914543Y-18481572D01*
X21914543Y-18395857D01*
X21928828Y-18367286D01*
X21943114Y-18353000D01*
X21971686Y-18338714D01*
X22014543Y-18338714D01*
X22043114Y-18353000D01*
X22057400Y-18367286D01*
X22071686Y-18395857D01*
X22071686Y-18481572D01*
X22057400Y-18510143D01*
X22043114Y-18524429D01*
X22014543Y-18538714D01*
X21971686Y-18538714D01*
X22243114Y-18538714D02*
X22214543Y-18524429D01*
X22200257Y-18495857D01*
X22200257Y-18238714D01*
X22471686Y-18524429D02*
X22443114Y-18538714D01*
X22385971Y-18538714D01*
X22357400Y-18524429D01*
X22343114Y-18495857D01*
X22343114Y-18381572D01*
X22357400Y-18353000D01*
X22385971Y-18338714D01*
X22443114Y-18338714D01*
X22471686Y-18353000D01*
X22485971Y-18381572D01*
X22485971Y-18410143D01*
X22343114Y-18438714D01*
X22600257Y-18524429D02*
X22628828Y-18538714D01*
X22685971Y-18538714D01*
X22714543Y-18524429D01*
X22728828Y-18495857D01*
X22728828Y-18481572D01*
X22714543Y-18453000D01*
X22685971Y-18438714D01*
X22643114Y-18438714D01*
X22614543Y-18424429D01*
X22600257Y-18395857D01*
X22600257Y-18381572D01*
X22614543Y-18353000D01*
X22643114Y-18338714D01*
X22685971Y-18338714D01*
X22714543Y-18353000D01*
X22828828Y-18653000D02*
X22843114Y-18638714D01*
X22871686Y-18595857D01*
X22885971Y-18567286D01*
X22900257Y-18524429D01*
X22914543Y-18453000D01*
X22914543Y-18395857D01*
X22900257Y-18324429D01*
X22885971Y-18281572D01*
X22871686Y-18253000D01*
X22843114Y-18210143D01*
X22828828Y-18195857D01*
X16122400Y-18689000D02*
X16342400Y-18909000D01*
X16342400Y-18689000D02*
X16122400Y-18909000D01*
X16232400Y-18909000D02*
X16342400Y-18799000D01*
X16232400Y-18689000D01*
X16122400Y-18799000D01*
X16232400Y-18909000D01*
X16614543Y-18663286D02*
X16628828Y-18649000D01*
X16657400Y-18634714D01*
X16728828Y-18634714D01*
X16757400Y-18649000D01*
X16771686Y-18663286D01*
X16785971Y-18691857D01*
X16785971Y-18720429D01*
X16771686Y-18763286D01*
X16600257Y-18934714D01*
X16785971Y-18934714D01*
X16914543Y-18906143D02*
X16928828Y-18920429D01*
X16914543Y-18934714D01*
X16900257Y-18920429D01*
X16914543Y-18906143D01*
X16914543Y-18934714D01*
X17043114Y-18663286D02*
X17057400Y-18649000D01*
X17085971Y-18634714D01*
X17157400Y-18634714D01*
X17185971Y-18649000D01*
X17200257Y-18663286D01*
X17214543Y-18691857D01*
X17214543Y-18720429D01*
X17200257Y-18763286D01*
X17028828Y-18934714D01*
X17214543Y-18934714D01*
X17400257Y-18634714D02*
X17428828Y-18634714D01*
X17457400Y-18649000D01*
X17471686Y-18663286D01*
X17485971Y-18691857D01*
X17500257Y-18749000D01*
X17500257Y-18820429D01*
X17485971Y-18877572D01*
X17471686Y-18906143D01*
X17457400Y-18920429D01*
X17428828Y-18934714D01*
X17400257Y-18934714D01*
X17371686Y-18920429D01*
X17357400Y-18906143D01*
X17343114Y-18877572D01*
X17328828Y-18820429D01*
X17328828Y-18749000D01*
X17343114Y-18691857D01*
X17357400Y-18663286D01*
X17371686Y-18649000D01*
X17400257Y-18634714D01*
X17628828Y-18934714D02*
X17628828Y-18734714D01*
X17628828Y-18763286D02*
X17643114Y-18749000D01*
X17671686Y-18734714D01*
X17714543Y-18734714D01*
X17743114Y-18749000D01*
X17757400Y-18777572D01*
X17757400Y-18934714D01*
X17757400Y-18777572D02*
X17771686Y-18749000D01*
X17800257Y-18734714D01*
X17843114Y-18734714D01*
X17871686Y-18749000D01*
X17885971Y-18777572D01*
X17885971Y-18934714D01*
X18028828Y-18934714D02*
X18028828Y-18734714D01*
X18028828Y-18763286D02*
X18043114Y-18749000D01*
X18071686Y-18734714D01*
X18114543Y-18734714D01*
X18143114Y-18749000D01*
X18157400Y-18777572D01*
X18157400Y-18934714D01*
X18157400Y-18777572D02*
X18171686Y-18749000D01*
X18200257Y-18734714D01*
X18243114Y-18734714D01*
X18271686Y-18749000D01*
X18285971Y-18777572D01*
X18285971Y-18934714D01*
X18871686Y-18620429D02*
X18614543Y-19006143D01*
X19257400Y-18634714D02*
X19285971Y-18634714D01*
X19314543Y-18649000D01*
X19328828Y-18663286D01*
X19343114Y-18691857D01*
X19357400Y-18749000D01*
X19357400Y-18820429D01*
X19343114Y-18877572D01*
X19328828Y-18906143D01*
X19314543Y-18920429D01*
X19285971Y-18934714D01*
X19257400Y-18934714D01*
X19228828Y-18920429D01*
X19214543Y-18906143D01*
X19200257Y-18877572D01*
X19185971Y-18820429D01*
X19185971Y-18749000D01*
X19200257Y-18691857D01*
X19214543Y-18663286D01*
X19228828Y-18649000D01*
X19257400Y-18634714D01*
X19485971Y-18906143D02*
X19500257Y-18920429D01*
X19485971Y-18934714D01*
X19471686Y-18920429D01*
X19485971Y-18906143D01*
X19485971Y-18934714D01*
X19685971Y-18634714D02*
X19714543Y-18634714D01*
X19743114Y-18649000D01*
X19757400Y-18663286D01*
X19771686Y-18691857D01*
X19785971Y-18749000D01*
X19785971Y-18820429D01*
X19771686Y-18877572D01*
X19757400Y-18906143D01*
X19743114Y-18920429D01*
X19714543Y-18934714D01*
X19685971Y-18934714D01*
X19657400Y-18920429D01*
X19643114Y-18906143D01*
X19628828Y-18877572D01*
X19614543Y-18820429D01*
X19614543Y-18749000D01*
X19628828Y-18691857D01*
X19643114Y-18663286D01*
X19657400Y-18649000D01*
X19685971Y-18634714D01*
X19957400Y-18763286D02*
X19928828Y-18749000D01*
X19914543Y-18734714D01*
X19900257Y-18706143D01*
X19900257Y-18691857D01*
X19914543Y-18663286D01*
X19928828Y-18649000D01*
X19957400Y-18634714D01*
X20014543Y-18634714D01*
X20043114Y-18649000D01*
X20057400Y-18663286D01*
X20071686Y-18691857D01*
X20071686Y-18706143D01*
X20057400Y-18734714D01*
X20043114Y-18749000D01*
X20014543Y-18763286D01*
X19957400Y-18763286D01*
X19928828Y-18777572D01*
X19914543Y-18791857D01*
X19900257Y-18820429D01*
X19900257Y-18877572D01*
X19914543Y-18906143D01*
X19928828Y-18920429D01*
X19957400Y-18934714D01*
X20014543Y-18934714D01*
X20043114Y-18920429D01*
X20057400Y-18906143D01*
X20071686Y-18877572D01*
X20071686Y-18820429D01*
X20057400Y-18791857D01*
X20043114Y-18777572D01*
X20014543Y-18763286D01*
X20171686Y-18634714D02*
X20371686Y-18634714D01*
X20243114Y-18934714D01*
X20471686Y-18634714D02*
X20471686Y-18691857D01*
X20585971Y-18634714D02*
X20585971Y-18691857D01*
X21028828Y-19049000D02*
X21014543Y-19034714D01*
X20985971Y-18991857D01*
X20971686Y-18963286D01*
X20957400Y-18920429D01*
X20943114Y-18849000D01*
X20943114Y-18791857D01*
X20957400Y-18720429D01*
X20971686Y-18677572D01*
X20985971Y-18649000D01*
X21014543Y-18606143D01*
X21028828Y-18591857D01*
X21271686Y-18734714D02*
X21271686Y-18934714D01*
X21200257Y-18620429D02*
X21128828Y-18834714D01*
X21314543Y-18834714D01*
X21657400Y-18934714D02*
X21657400Y-18634714D01*
X21785971Y-18934714D02*
X21785971Y-18777572D01*
X21771686Y-18749000D01*
X21743114Y-18734714D01*
X21700257Y-18734714D01*
X21671686Y-18749000D01*
X21657400Y-18763286D01*
X21971686Y-18934714D02*
X21943114Y-18920429D01*
X21928828Y-18906143D01*
X21914543Y-18877572D01*
X21914543Y-18791857D01*
X21928828Y-18763286D01*
X21943114Y-18749000D01*
X21971686Y-18734714D01*
X22014543Y-18734714D01*
X22043114Y-18749000D01*
X22057400Y-18763286D01*
X22071686Y-18791857D01*
X22071686Y-18877572D01*
X22057400Y-18906143D01*
X22043114Y-18920429D01*
X22014543Y-18934714D01*
X21971686Y-18934714D01*
X22243114Y-18934714D02*
X22214543Y-18920429D01*
X22200257Y-18891857D01*
X22200257Y-18634714D01*
X22471686Y-18920429D02*
X22443114Y-18934714D01*
X22385971Y-18934714D01*
X22357400Y-18920429D01*
X22343114Y-18891857D01*
X22343114Y-18777572D01*
X22357400Y-18749000D01*
X22385971Y-18734714D01*
X22443114Y-18734714D01*
X22471686Y-18749000D01*
X22485971Y-18777572D01*
X22485971Y-18806143D01*
X22343114Y-18834714D01*
X22600257Y-18920429D02*
X22628828Y-18934714D01*
X22685971Y-18934714D01*
X22714543Y-18920429D01*
X22728828Y-18891857D01*
X22728828Y-18877572D01*
X22714543Y-18849000D01*
X22685971Y-18834714D01*
X22643114Y-18834714D01*
X22614543Y-18820429D01*
X22600257Y-18791857D01*
X22600257Y-18777572D01*
X22614543Y-18749000D01*
X22643114Y-18734714D01*
X22685971Y-18734714D01*
X22714543Y-18749000D01*
X22828828Y-19049000D02*
X22843114Y-19034714D01*
X22871686Y-18991857D01*
X22885971Y-18963286D01*
X22900257Y-18920429D01*
X22914543Y-18849000D01*
X22914543Y-18791857D01*
X22900257Y-18720429D01*
X22885971Y-18677572D01*
X22871686Y-18649000D01*
X22843114Y-18606143D01*
X22828828Y-18591857D01*
M02*
