G04 #@! TF.GenerationSoftware,KiCad,Pcbnew,(5.1.9)-1*
G04 #@! TF.CreationDate,2021-03-20T17:22:42+01:00*
G04 #@! TF.ProjectId,SmartSensor,536d6172-7453-4656-9e73-6f722e6b6963,rev?*
G04 #@! TF.SameCoordinates,Original*
G04 #@! TF.FileFunction,Paste,Top*
G04 #@! TF.FilePolarity,Positive*
%FSLAX46Y46*%
G04 Gerber Fmt 4.6, Leading zero omitted, Abs format (unit mm)*
G04 Created by KiCad (PCBNEW (5.1.9)-1) date 2021-03-20 17:22:42*
%MOMM*%
%LPD*%
G01*
G04 APERTURE LIST*
%ADD10R,0.800000X0.350000*%
%ADD11R,0.300000X0.500000*%
%ADD12R,2.000000X1.350000*%
%ADD13R,0.700000X1.825000*%
%ADD14R,1.500000X2.000000*%
%ADD15R,1.650000X0.400000*%
%ADD16R,2.500000X1.430000*%
%ADD17R,1.903000X2.790000*%
%ADD18R,0.800000X0.900000*%
%ADD19R,0.900000X0.800000*%
%ADD20R,0.240000X0.600000*%
%ADD21C,0.100000*%
%ADD22R,1.000000X0.300000*%
%ADD23R,1.300000X2.200000*%
%ADD24R,0.600000X0.400000*%
%ADD25R,1.550000X0.600000*%
%ADD26R,1.500000X0.550000*%
%ADD27R,0.550000X1.500000*%
%ADD28R,1.800000X1.000000*%
%ADD29R,1.500000X0.650000*%
%ADD30R,2.400000X1.900000*%
%ADD31R,1.600000X0.700000*%
%ADD32R,1.400000X2.100000*%
G04 APERTURE END LIST*
G36*
G01*
X226770250Y-127644500D02*
X225857750Y-127644500D01*
G75*
G02*
X225614000Y-127400750I0J243750D01*
G01*
X225614000Y-126913250D01*
G75*
G02*
X225857750Y-126669500I243750J0D01*
G01*
X226770250Y-126669500D01*
G75*
G02*
X227014000Y-126913250I0J-243750D01*
G01*
X227014000Y-127400750D01*
G75*
G02*
X226770250Y-127644500I-243750J0D01*
G01*
G37*
G36*
G01*
X226770250Y-129519500D02*
X225857750Y-129519500D01*
G75*
G02*
X225614000Y-129275750I0J243750D01*
G01*
X225614000Y-128788250D01*
G75*
G02*
X225857750Y-128544500I243750J0D01*
G01*
X226770250Y-128544500D01*
G75*
G02*
X227014000Y-128788250I0J-243750D01*
G01*
X227014000Y-129275750D01*
G75*
G02*
X226770250Y-129519500I-243750J0D01*
G01*
G37*
G36*
G01*
X184805500Y-99008250D02*
X184805500Y-98095750D01*
G75*
G02*
X185049250Y-97852000I243750J0D01*
G01*
X185536750Y-97852000D01*
G75*
G02*
X185780500Y-98095750I0J-243750D01*
G01*
X185780500Y-99008250D01*
G75*
G02*
X185536750Y-99252000I-243750J0D01*
G01*
X185049250Y-99252000D01*
G75*
G02*
X184805500Y-99008250I0J243750D01*
G01*
G37*
G36*
G01*
X186680500Y-99008250D02*
X186680500Y-98095750D01*
G75*
G02*
X186924250Y-97852000I243750J0D01*
G01*
X187411750Y-97852000D01*
G75*
G02*
X187655500Y-98095750I0J-243750D01*
G01*
X187655500Y-99008250D01*
G75*
G02*
X187411750Y-99252000I-243750J0D01*
G01*
X186924250Y-99252000D01*
G75*
G02*
X186680500Y-99008250I0J243750D01*
G01*
G37*
G36*
G01*
X184510500Y-93396750D02*
X184510500Y-94309250D01*
G75*
G02*
X184266750Y-94553000I-243750J0D01*
G01*
X183779250Y-94553000D01*
G75*
G02*
X183535500Y-94309250I0J243750D01*
G01*
X183535500Y-93396750D01*
G75*
G02*
X183779250Y-93153000I243750J0D01*
G01*
X184266750Y-93153000D01*
G75*
G02*
X184510500Y-93396750I0J-243750D01*
G01*
G37*
G36*
G01*
X182635500Y-93396750D02*
X182635500Y-94309250D01*
G75*
G02*
X182391750Y-94553000I-243750J0D01*
G01*
X181904250Y-94553000D01*
G75*
G02*
X181660500Y-94309250I0J243750D01*
G01*
X181660500Y-93396750D01*
G75*
G02*
X181904250Y-93153000I243750J0D01*
G01*
X182391750Y-93153000D01*
G75*
G02*
X182635500Y-93396750I0J-243750D01*
G01*
G37*
G36*
G01*
X175396500Y-93523750D02*
X175396500Y-94436250D01*
G75*
G02*
X175152750Y-94680000I-243750J0D01*
G01*
X174665250Y-94680000D01*
G75*
G02*
X174421500Y-94436250I0J243750D01*
G01*
X174421500Y-93523750D01*
G75*
G02*
X174665250Y-93280000I243750J0D01*
G01*
X175152750Y-93280000D01*
G75*
G02*
X175396500Y-93523750I0J-243750D01*
G01*
G37*
G36*
G01*
X177271500Y-93523750D02*
X177271500Y-94436250D01*
G75*
G02*
X177027750Y-94680000I-243750J0D01*
G01*
X176540250Y-94680000D01*
G75*
G02*
X176296500Y-94436250I0J243750D01*
G01*
X176296500Y-93523750D01*
G75*
G02*
X176540250Y-93280000I243750J0D01*
G01*
X177027750Y-93280000D01*
G75*
G02*
X177271500Y-93523750I0J-243750D01*
G01*
G37*
G36*
G01*
X178201500Y-94309250D02*
X178201500Y-93396750D01*
G75*
G02*
X178445250Y-93153000I243750J0D01*
G01*
X178932750Y-93153000D01*
G75*
G02*
X179176500Y-93396750I0J-243750D01*
G01*
X179176500Y-94309250D01*
G75*
G02*
X178932750Y-94553000I-243750J0D01*
G01*
X178445250Y-94553000D01*
G75*
G02*
X178201500Y-94309250I0J243750D01*
G01*
G37*
G36*
G01*
X180076500Y-94309250D02*
X180076500Y-93396750D01*
G75*
G02*
X180320250Y-93153000I243750J0D01*
G01*
X180807750Y-93153000D01*
G75*
G02*
X181051500Y-93396750I0J-243750D01*
G01*
X181051500Y-94309250D01*
G75*
G02*
X180807750Y-94553000I-243750J0D01*
G01*
X180320250Y-94553000D01*
G75*
G02*
X180076500Y-94309250I0J243750D01*
G01*
G37*
G36*
G01*
X208101250Y-89006500D02*
X207188750Y-89006500D01*
G75*
G02*
X206945000Y-88762750I0J243750D01*
G01*
X206945000Y-88275250D01*
G75*
G02*
X207188750Y-88031500I243750J0D01*
G01*
X208101250Y-88031500D01*
G75*
G02*
X208345000Y-88275250I0J-243750D01*
G01*
X208345000Y-88762750D01*
G75*
G02*
X208101250Y-89006500I-243750J0D01*
G01*
G37*
G36*
G01*
X208101250Y-90881500D02*
X207188750Y-90881500D01*
G75*
G02*
X206945000Y-90637750I0J243750D01*
G01*
X206945000Y-90150250D01*
G75*
G02*
X207188750Y-89906500I243750J0D01*
G01*
X208101250Y-89906500D01*
G75*
G02*
X208345000Y-90150250I0J-243750D01*
G01*
X208345000Y-90637750D01*
G75*
G02*
X208101250Y-90881500I-243750J0D01*
G01*
G37*
G36*
G01*
X206069250Y-90911500D02*
X205156750Y-90911500D01*
G75*
G02*
X204913000Y-90667750I0J243750D01*
G01*
X204913000Y-90180250D01*
G75*
G02*
X205156750Y-89936500I243750J0D01*
G01*
X206069250Y-89936500D01*
G75*
G02*
X206313000Y-90180250I0J-243750D01*
G01*
X206313000Y-90667750D01*
G75*
G02*
X206069250Y-90911500I-243750J0D01*
G01*
G37*
G36*
G01*
X206069250Y-89036500D02*
X205156750Y-89036500D01*
G75*
G02*
X204913000Y-88792750I0J243750D01*
G01*
X204913000Y-88305250D01*
G75*
G02*
X205156750Y-88061500I243750J0D01*
G01*
X206069250Y-88061500D01*
G75*
G02*
X206313000Y-88305250I0J-243750D01*
G01*
X206313000Y-88792750D01*
G75*
G02*
X206069250Y-89036500I-243750J0D01*
G01*
G37*
G36*
G01*
X198521500Y-99643250D02*
X198521500Y-98730750D01*
G75*
G02*
X198765250Y-98487000I243750J0D01*
G01*
X199252750Y-98487000D01*
G75*
G02*
X199496500Y-98730750I0J-243750D01*
G01*
X199496500Y-99643250D01*
G75*
G02*
X199252750Y-99887000I-243750J0D01*
G01*
X198765250Y-99887000D01*
G75*
G02*
X198521500Y-99643250I0J243750D01*
G01*
G37*
G36*
G01*
X196646500Y-99643250D02*
X196646500Y-98730750D01*
G75*
G02*
X196890250Y-98487000I243750J0D01*
G01*
X197377750Y-98487000D01*
G75*
G02*
X197621500Y-98730750I0J-243750D01*
G01*
X197621500Y-99643250D01*
G75*
G02*
X197377750Y-99887000I-243750J0D01*
G01*
X196890250Y-99887000D01*
G75*
G02*
X196646500Y-99643250I0J243750D01*
G01*
G37*
G36*
G01*
X190194250Y-88879500D02*
X189281750Y-88879500D01*
G75*
G02*
X189038000Y-88635750I0J243750D01*
G01*
X189038000Y-88148250D01*
G75*
G02*
X189281750Y-87904500I243750J0D01*
G01*
X190194250Y-87904500D01*
G75*
G02*
X190438000Y-88148250I0J-243750D01*
G01*
X190438000Y-88635750D01*
G75*
G02*
X190194250Y-88879500I-243750J0D01*
G01*
G37*
G36*
G01*
X190194250Y-90754500D02*
X189281750Y-90754500D01*
G75*
G02*
X189038000Y-90510750I0J243750D01*
G01*
X189038000Y-90023250D01*
G75*
G02*
X189281750Y-89779500I243750J0D01*
G01*
X190194250Y-89779500D01*
G75*
G02*
X190438000Y-90023250I0J-243750D01*
G01*
X190438000Y-90510750D01*
G75*
G02*
X190194250Y-90754500I-243750J0D01*
G01*
G37*
G36*
G01*
X221000500Y-108279250D02*
X221000500Y-107366750D01*
G75*
G02*
X221244250Y-107123000I243750J0D01*
G01*
X221731750Y-107123000D01*
G75*
G02*
X221975500Y-107366750I0J-243750D01*
G01*
X221975500Y-108279250D01*
G75*
G02*
X221731750Y-108523000I-243750J0D01*
G01*
X221244250Y-108523000D01*
G75*
G02*
X221000500Y-108279250I0J243750D01*
G01*
G37*
G36*
G01*
X219125500Y-108279250D02*
X219125500Y-107366750D01*
G75*
G02*
X219369250Y-107123000I243750J0D01*
G01*
X219856750Y-107123000D01*
G75*
G02*
X220100500Y-107366750I0J-243750D01*
G01*
X220100500Y-108279250D01*
G75*
G02*
X219856750Y-108523000I-243750J0D01*
G01*
X219369250Y-108523000D01*
G75*
G02*
X219125500Y-108279250I0J243750D01*
G01*
G37*
G36*
G01*
X223794500Y-125805250D02*
X223794500Y-124892750D01*
G75*
G02*
X224038250Y-124649000I243750J0D01*
G01*
X224525750Y-124649000D01*
G75*
G02*
X224769500Y-124892750I0J-243750D01*
G01*
X224769500Y-125805250D01*
G75*
G02*
X224525750Y-126049000I-243750J0D01*
G01*
X224038250Y-126049000D01*
G75*
G02*
X223794500Y-125805250I0J243750D01*
G01*
G37*
G36*
G01*
X225669500Y-125805250D02*
X225669500Y-124892750D01*
G75*
G02*
X225913250Y-124649000I243750J0D01*
G01*
X226400750Y-124649000D01*
G75*
G02*
X226644500Y-124892750I0J-243750D01*
G01*
X226644500Y-125805250D01*
G75*
G02*
X226400750Y-126049000I-243750J0D01*
G01*
X225913250Y-126049000D01*
G75*
G02*
X225669500Y-125805250I0J243750D01*
G01*
G37*
G36*
G01*
X219125500Y-110311250D02*
X219125500Y-109398750D01*
G75*
G02*
X219369250Y-109155000I243750J0D01*
G01*
X219856750Y-109155000D01*
G75*
G02*
X220100500Y-109398750I0J-243750D01*
G01*
X220100500Y-110311250D01*
G75*
G02*
X219856750Y-110555000I-243750J0D01*
G01*
X219369250Y-110555000D01*
G75*
G02*
X219125500Y-110311250I0J243750D01*
G01*
G37*
G36*
G01*
X221000500Y-110311250D02*
X221000500Y-109398750D01*
G75*
G02*
X221244250Y-109155000I243750J0D01*
G01*
X221731750Y-109155000D01*
G75*
G02*
X221975500Y-109398750I0J-243750D01*
G01*
X221975500Y-110311250D01*
G75*
G02*
X221731750Y-110555000I-243750J0D01*
G01*
X221244250Y-110555000D01*
G75*
G02*
X221000500Y-110311250I0J243750D01*
G01*
G37*
G36*
G01*
X214197250Y-118567500D02*
X213284750Y-118567500D01*
G75*
G02*
X213041000Y-118323750I0J243750D01*
G01*
X213041000Y-117836250D01*
G75*
G02*
X213284750Y-117592500I243750J0D01*
G01*
X214197250Y-117592500D01*
G75*
G02*
X214441000Y-117836250I0J-243750D01*
G01*
X214441000Y-118323750D01*
G75*
G02*
X214197250Y-118567500I-243750J0D01*
G01*
G37*
G36*
G01*
X214197250Y-116692500D02*
X213284750Y-116692500D01*
G75*
G02*
X213041000Y-116448750I0J243750D01*
G01*
X213041000Y-115961250D01*
G75*
G02*
X213284750Y-115717500I243750J0D01*
G01*
X214197250Y-115717500D01*
G75*
G02*
X214441000Y-115961250I0J-243750D01*
G01*
X214441000Y-116448750D01*
G75*
G02*
X214197250Y-116692500I-243750J0D01*
G01*
G37*
G36*
G01*
X196665000Y-118185250D02*
X196665000Y-117272750D01*
G75*
G02*
X196908750Y-117029000I243750J0D01*
G01*
X197396250Y-117029000D01*
G75*
G02*
X197640000Y-117272750I0J-243750D01*
G01*
X197640000Y-118185250D01*
G75*
G02*
X197396250Y-118429000I-243750J0D01*
G01*
X196908750Y-118429000D01*
G75*
G02*
X196665000Y-118185250I0J243750D01*
G01*
G37*
G36*
G01*
X194790000Y-118185250D02*
X194790000Y-117272750D01*
G75*
G02*
X195033750Y-117029000I243750J0D01*
G01*
X195521250Y-117029000D01*
G75*
G02*
X195765000Y-117272750I0J-243750D01*
G01*
X195765000Y-118185250D01*
G75*
G02*
X195521250Y-118429000I-243750J0D01*
G01*
X195033750Y-118429000D01*
G75*
G02*
X194790000Y-118185250I0J243750D01*
G01*
G37*
G36*
G01*
X218460500Y-103580250D02*
X218460500Y-102667750D01*
G75*
G02*
X218704250Y-102424000I243750J0D01*
G01*
X219191750Y-102424000D01*
G75*
G02*
X219435500Y-102667750I0J-243750D01*
G01*
X219435500Y-103580250D01*
G75*
G02*
X219191750Y-103824000I-243750J0D01*
G01*
X218704250Y-103824000D01*
G75*
G02*
X218460500Y-103580250I0J243750D01*
G01*
G37*
G36*
G01*
X216585500Y-103580250D02*
X216585500Y-102667750D01*
G75*
G02*
X216829250Y-102424000I243750J0D01*
G01*
X217316750Y-102424000D01*
G75*
G02*
X217560500Y-102667750I0J-243750D01*
G01*
X217560500Y-103580250D01*
G75*
G02*
X217316750Y-103824000I-243750J0D01*
G01*
X216829250Y-103824000D01*
G75*
G02*
X216585500Y-103580250I0J243750D01*
G01*
G37*
G36*
G01*
X171978500Y-132663250D02*
X171978500Y-131750750D01*
G75*
G02*
X172222250Y-131507000I243750J0D01*
G01*
X172709750Y-131507000D01*
G75*
G02*
X172953500Y-131750750I0J-243750D01*
G01*
X172953500Y-132663250D01*
G75*
G02*
X172709750Y-132907000I-243750J0D01*
G01*
X172222250Y-132907000D01*
G75*
G02*
X171978500Y-132663250I0J243750D01*
G01*
G37*
G36*
G01*
X170103500Y-132663250D02*
X170103500Y-131750750D01*
G75*
G02*
X170347250Y-131507000I243750J0D01*
G01*
X170834750Y-131507000D01*
G75*
G02*
X171078500Y-131750750I0J-243750D01*
G01*
X171078500Y-132663250D01*
G75*
G02*
X170834750Y-132907000I-243750J0D01*
G01*
X170347250Y-132907000D01*
G75*
G02*
X170103500Y-132663250I0J243750D01*
G01*
G37*
G36*
G01*
X170103500Y-130504250D02*
X170103500Y-129591750D01*
G75*
G02*
X170347250Y-129348000I243750J0D01*
G01*
X170834750Y-129348000D01*
G75*
G02*
X171078500Y-129591750I0J-243750D01*
G01*
X171078500Y-130504250D01*
G75*
G02*
X170834750Y-130748000I-243750J0D01*
G01*
X170347250Y-130748000D01*
G75*
G02*
X170103500Y-130504250I0J243750D01*
G01*
G37*
G36*
G01*
X171978500Y-130504250D02*
X171978500Y-129591750D01*
G75*
G02*
X172222250Y-129348000I243750J0D01*
G01*
X172709750Y-129348000D01*
G75*
G02*
X172953500Y-129591750I0J-243750D01*
G01*
X172953500Y-130504250D01*
G75*
G02*
X172709750Y-130748000I-243750J0D01*
G01*
X172222250Y-130748000D01*
G75*
G02*
X171978500Y-130504250I0J243750D01*
G01*
G37*
G36*
G01*
X170103500Y-128345250D02*
X170103500Y-127432750D01*
G75*
G02*
X170347250Y-127189000I243750J0D01*
G01*
X170834750Y-127189000D01*
G75*
G02*
X171078500Y-127432750I0J-243750D01*
G01*
X171078500Y-128345250D01*
G75*
G02*
X170834750Y-128589000I-243750J0D01*
G01*
X170347250Y-128589000D01*
G75*
G02*
X170103500Y-128345250I0J243750D01*
G01*
G37*
G36*
G01*
X171978500Y-128345250D02*
X171978500Y-127432750D01*
G75*
G02*
X172222250Y-127189000I243750J0D01*
G01*
X172709750Y-127189000D01*
G75*
G02*
X172953500Y-127432750I0J-243750D01*
G01*
X172953500Y-128345250D01*
G75*
G02*
X172709750Y-128589000I-243750J0D01*
G01*
X172222250Y-128589000D01*
G75*
G02*
X171978500Y-128345250I0J243750D01*
G01*
G37*
G36*
G01*
X175396500Y-91364750D02*
X175396500Y-92277250D01*
G75*
G02*
X175152750Y-92521000I-243750J0D01*
G01*
X174665250Y-92521000D01*
G75*
G02*
X174421500Y-92277250I0J243750D01*
G01*
X174421500Y-91364750D01*
G75*
G02*
X174665250Y-91121000I243750J0D01*
G01*
X175152750Y-91121000D01*
G75*
G02*
X175396500Y-91364750I0J-243750D01*
G01*
G37*
G36*
G01*
X177271500Y-91364750D02*
X177271500Y-92277250D01*
G75*
G02*
X177027750Y-92521000I-243750J0D01*
G01*
X176540250Y-92521000D01*
G75*
G02*
X176296500Y-92277250I0J243750D01*
G01*
X176296500Y-91364750D01*
G75*
G02*
X176540250Y-91121000I243750J0D01*
G01*
X177027750Y-91121000D01*
G75*
G02*
X177271500Y-91364750I0J-243750D01*
G01*
G37*
G36*
G01*
X224738250Y-129519500D02*
X223825750Y-129519500D01*
G75*
G02*
X223582000Y-129275750I0J243750D01*
G01*
X223582000Y-128788250D01*
G75*
G02*
X223825750Y-128544500I243750J0D01*
G01*
X224738250Y-128544500D01*
G75*
G02*
X224982000Y-128788250I0J-243750D01*
G01*
X224982000Y-129275750D01*
G75*
G02*
X224738250Y-129519500I-243750J0D01*
G01*
G37*
G36*
G01*
X224738250Y-127644500D02*
X223825750Y-127644500D01*
G75*
G02*
X223582000Y-127400750I0J243750D01*
G01*
X223582000Y-126913250D01*
G75*
G02*
X223825750Y-126669500I243750J0D01*
G01*
X224738250Y-126669500D01*
G75*
G02*
X224982000Y-126913250I0J-243750D01*
G01*
X224982000Y-127400750D01*
G75*
G02*
X224738250Y-127644500I-243750J0D01*
G01*
G37*
G36*
G01*
X211561500Y-104572750D02*
X211561500Y-105485250D01*
G75*
G02*
X211317750Y-105729000I-243750J0D01*
G01*
X210830250Y-105729000D01*
G75*
G02*
X210586500Y-105485250I0J243750D01*
G01*
X210586500Y-104572750D01*
G75*
G02*
X210830250Y-104329000I243750J0D01*
G01*
X211317750Y-104329000D01*
G75*
G02*
X211561500Y-104572750I0J-243750D01*
G01*
G37*
G36*
G01*
X213436500Y-104572750D02*
X213436500Y-105485250D01*
G75*
G02*
X213192750Y-105729000I-243750J0D01*
G01*
X212705250Y-105729000D01*
G75*
G02*
X212461500Y-105485250I0J243750D01*
G01*
X212461500Y-104572750D01*
G75*
G02*
X212705250Y-104329000I243750J0D01*
G01*
X213192750Y-104329000D01*
G75*
G02*
X213436500Y-104572750I0J-243750D01*
G01*
G37*
G36*
G01*
X172136750Y-103555500D02*
X173049250Y-103555500D01*
G75*
G02*
X173293000Y-103799250I0J-243750D01*
G01*
X173293000Y-104286750D01*
G75*
G02*
X173049250Y-104530500I-243750J0D01*
G01*
X172136750Y-104530500D01*
G75*
G02*
X171893000Y-104286750I0J243750D01*
G01*
X171893000Y-103799250D01*
G75*
G02*
X172136750Y-103555500I243750J0D01*
G01*
G37*
G36*
G01*
X172136750Y-105430500D02*
X173049250Y-105430500D01*
G75*
G02*
X173293000Y-105674250I0J-243750D01*
G01*
X173293000Y-106161750D01*
G75*
G02*
X173049250Y-106405500I-243750J0D01*
G01*
X172136750Y-106405500D01*
G75*
G02*
X171893000Y-106161750I0J243750D01*
G01*
X171893000Y-105674250D01*
G75*
G02*
X172136750Y-105430500I243750J0D01*
G01*
G37*
G36*
G01*
X225349750Y-98221500D02*
X226262250Y-98221500D01*
G75*
G02*
X226506000Y-98465250I0J-243750D01*
G01*
X226506000Y-98952750D01*
G75*
G02*
X226262250Y-99196500I-243750J0D01*
G01*
X225349750Y-99196500D01*
G75*
G02*
X225106000Y-98952750I0J243750D01*
G01*
X225106000Y-98465250D01*
G75*
G02*
X225349750Y-98221500I243750J0D01*
G01*
G37*
G36*
G01*
X225349750Y-100096500D02*
X226262250Y-100096500D01*
G75*
G02*
X226506000Y-100340250I0J-243750D01*
G01*
X226506000Y-100827750D01*
G75*
G02*
X226262250Y-101071500I-243750J0D01*
G01*
X225349750Y-101071500D01*
G75*
G02*
X225106000Y-100827750I0J243750D01*
G01*
X225106000Y-100340250D01*
G75*
G02*
X225349750Y-100096500I243750J0D01*
G01*
G37*
G36*
G01*
X183569500Y-89100999D02*
X183569500Y-92001001D01*
G75*
G02*
X183319501Y-92251000I-249999J0D01*
G01*
X182694499Y-92251000D01*
G75*
G02*
X182444500Y-92001001I0J249999D01*
G01*
X182444500Y-89100999D01*
G75*
G02*
X182694499Y-88851000I249999J0D01*
G01*
X183319501Y-88851000D01*
G75*
G02*
X183569500Y-89100999I0J-249999D01*
G01*
G37*
G36*
G01*
X179294500Y-89100999D02*
X179294500Y-92001001D01*
G75*
G02*
X179044501Y-92251000I-249999J0D01*
G01*
X178419499Y-92251000D01*
G75*
G02*
X178169500Y-92001001I0J249999D01*
G01*
X178169500Y-89100999D01*
G75*
G02*
X178419499Y-88851000I249999J0D01*
G01*
X179044501Y-88851000D01*
G75*
G02*
X179294500Y-89100999I0J-249999D01*
G01*
G37*
D10*
X193294000Y-92456000D03*
D11*
X192819000Y-91506000D03*
X193769000Y-93406000D03*
X192819000Y-93406000D03*
X193769000Y-91506000D03*
D12*
X166840000Y-97640000D03*
X166840000Y-92160000D03*
D13*
X167590000Y-91940000D03*
X167590000Y-97890000D03*
D14*
X168890000Y-92040000D03*
X168910000Y-97790000D03*
D15*
X168790000Y-93590000D03*
X168790000Y-94240000D03*
X168790000Y-94890000D03*
X168790000Y-95540000D03*
X168790000Y-96190000D03*
D16*
X165640000Y-93930000D03*
X165640000Y-95850000D03*
D17*
X182780000Y-102235000D03*
X177927000Y-102235000D03*
G36*
G01*
X195590000Y-111882500D02*
X196840000Y-111882500D01*
G75*
G02*
X197090000Y-112132500I0J-250000D01*
G01*
X197090000Y-113057500D01*
G75*
G02*
X196840000Y-113307500I-250000J0D01*
G01*
X195590000Y-113307500D01*
G75*
G02*
X195340000Y-113057500I0J250000D01*
G01*
X195340000Y-112132500D01*
G75*
G02*
X195590000Y-111882500I250000J0D01*
G01*
G37*
G36*
G01*
X195590000Y-114857500D02*
X196840000Y-114857500D01*
G75*
G02*
X197090000Y-115107500I0J-250000D01*
G01*
X197090000Y-116032500D01*
G75*
G02*
X196840000Y-116282500I-250000J0D01*
G01*
X195590000Y-116282500D01*
G75*
G02*
X195340000Y-116032500I0J250000D01*
G01*
X195340000Y-115107500D01*
G75*
G02*
X195590000Y-114857500I250000J0D01*
G01*
G37*
D18*
X175829000Y-87916000D03*
X176779000Y-89916000D03*
X174879000Y-89916000D03*
X206502000Y-91980000D03*
X207452000Y-93980000D03*
X205552000Y-93980000D03*
D19*
X195453000Y-100960000D03*
X195453000Y-99060000D03*
X193453000Y-100010000D03*
X189992000Y-93975000D03*
X189992000Y-92075000D03*
X187992000Y-93025000D03*
D18*
X177480000Y-129445000D03*
X175580000Y-129445000D03*
X176530000Y-131445000D03*
G36*
G01*
X172287250Y-92592500D02*
X171374750Y-92592500D01*
G75*
G02*
X171131000Y-92348750I0J243750D01*
G01*
X171131000Y-91861250D01*
G75*
G02*
X171374750Y-91617500I243750J0D01*
G01*
X172287250Y-91617500D01*
G75*
G02*
X172531000Y-91861250I0J-243750D01*
G01*
X172531000Y-92348750D01*
G75*
G02*
X172287250Y-92592500I-243750J0D01*
G01*
G37*
G36*
G01*
X172287250Y-94467500D02*
X171374750Y-94467500D01*
G75*
G02*
X171131000Y-94223750I0J243750D01*
G01*
X171131000Y-93736250D01*
G75*
G02*
X171374750Y-93492500I243750J0D01*
G01*
X172287250Y-93492500D01*
G75*
G02*
X172531000Y-93736250I0J-243750D01*
G01*
X172531000Y-94223750D01*
G75*
G02*
X172287250Y-94467500I-243750J0D01*
G01*
G37*
G36*
G01*
X172287250Y-97993500D02*
X171374750Y-97993500D01*
G75*
G02*
X171131000Y-97749750I0J243750D01*
G01*
X171131000Y-97262250D01*
G75*
G02*
X171374750Y-97018500I243750J0D01*
G01*
X172287250Y-97018500D01*
G75*
G02*
X172531000Y-97262250I0J-243750D01*
G01*
X172531000Y-97749750D01*
G75*
G02*
X172287250Y-97993500I-243750J0D01*
G01*
G37*
G36*
G01*
X172287250Y-96118500D02*
X171374750Y-96118500D01*
G75*
G02*
X171131000Y-95874750I0J243750D01*
G01*
X171131000Y-95387250D01*
G75*
G02*
X171374750Y-95143500I243750J0D01*
G01*
X172287250Y-95143500D01*
G75*
G02*
X172531000Y-95387250I0J-243750D01*
G01*
X172531000Y-95874750D01*
G75*
G02*
X172287250Y-96118500I-243750J0D01*
G01*
G37*
G36*
G01*
X182931750Y-97937500D02*
X183844250Y-97937500D01*
G75*
G02*
X184088000Y-98181250I0J-243750D01*
G01*
X184088000Y-98668750D01*
G75*
G02*
X183844250Y-98912500I-243750J0D01*
G01*
X182931750Y-98912500D01*
G75*
G02*
X182688000Y-98668750I0J243750D01*
G01*
X182688000Y-98181250D01*
G75*
G02*
X182931750Y-97937500I243750J0D01*
G01*
G37*
G36*
G01*
X182931750Y-96062500D02*
X183844250Y-96062500D01*
G75*
G02*
X184088000Y-96306250I0J-243750D01*
G01*
X184088000Y-96793750D01*
G75*
G02*
X183844250Y-97037500I-243750J0D01*
G01*
X182931750Y-97037500D01*
G75*
G02*
X182688000Y-96793750I0J243750D01*
G01*
X182688000Y-96306250D01*
G75*
G02*
X182931750Y-96062500I243750J0D01*
G01*
G37*
G36*
G01*
X208839750Y-93462500D02*
X209752250Y-93462500D01*
G75*
G02*
X209996000Y-93706250I0J-243750D01*
G01*
X209996000Y-94193750D01*
G75*
G02*
X209752250Y-94437500I-243750J0D01*
G01*
X208839750Y-94437500D01*
G75*
G02*
X208596000Y-94193750I0J243750D01*
G01*
X208596000Y-93706250D01*
G75*
G02*
X208839750Y-93462500I243750J0D01*
G01*
G37*
G36*
G01*
X208839750Y-91587500D02*
X209752250Y-91587500D01*
G75*
G02*
X209996000Y-91831250I0J-243750D01*
G01*
X209996000Y-92318750D01*
G75*
G02*
X209752250Y-92562500I-243750J0D01*
G01*
X208839750Y-92562500D01*
G75*
G02*
X208596000Y-92318750I0J243750D01*
G01*
X208596000Y-91831250D01*
G75*
G02*
X208839750Y-91587500I243750J0D01*
G01*
G37*
G36*
G01*
X195940500Y-102413750D02*
X195940500Y-103326250D01*
G75*
G02*
X195696750Y-103570000I-243750J0D01*
G01*
X195209250Y-103570000D01*
G75*
G02*
X194965500Y-103326250I0J243750D01*
G01*
X194965500Y-102413750D01*
G75*
G02*
X195209250Y-102170000I243750J0D01*
G01*
X195696750Y-102170000D01*
G75*
G02*
X195940500Y-102413750I0J-243750D01*
G01*
G37*
G36*
G01*
X194065500Y-102413750D02*
X194065500Y-103326250D01*
G75*
G02*
X193821750Y-103570000I-243750J0D01*
G01*
X193334250Y-103570000D01*
G75*
G02*
X193090500Y-103326250I0J243750D01*
G01*
X193090500Y-102413750D01*
G75*
G02*
X193334250Y-102170000I243750J0D01*
G01*
X193821750Y-102170000D01*
G75*
G02*
X194065500Y-102413750I0J-243750D01*
G01*
G37*
G36*
G01*
X190479500Y-95428750D02*
X190479500Y-96341250D01*
G75*
G02*
X190235750Y-96585000I-243750J0D01*
G01*
X189748250Y-96585000D01*
G75*
G02*
X189504500Y-96341250I0J243750D01*
G01*
X189504500Y-95428750D01*
G75*
G02*
X189748250Y-95185000I243750J0D01*
G01*
X190235750Y-95185000D01*
G75*
G02*
X190479500Y-95428750I0J-243750D01*
G01*
G37*
G36*
G01*
X188604500Y-95428750D02*
X188604500Y-96341250D01*
G75*
G02*
X188360750Y-96585000I-243750J0D01*
G01*
X187873250Y-96585000D01*
G75*
G02*
X187629500Y-96341250I0J243750D01*
G01*
X187629500Y-95428750D01*
G75*
G02*
X187873250Y-95185000I243750J0D01*
G01*
X188360750Y-95185000D01*
G75*
G02*
X188604500Y-95428750I0J-243750D01*
G01*
G37*
G36*
G01*
X202234500Y-85292250D02*
X202234500Y-84379750D01*
G75*
G02*
X202478250Y-84136000I243750J0D01*
G01*
X202965750Y-84136000D01*
G75*
G02*
X203209500Y-84379750I0J-243750D01*
G01*
X203209500Y-85292250D01*
G75*
G02*
X202965750Y-85536000I-243750J0D01*
G01*
X202478250Y-85536000D01*
G75*
G02*
X202234500Y-85292250I0J243750D01*
G01*
G37*
G36*
G01*
X204109500Y-85292250D02*
X204109500Y-84379750D01*
G75*
G02*
X204353250Y-84136000I243750J0D01*
G01*
X204840750Y-84136000D01*
G75*
G02*
X205084500Y-84379750I0J-243750D01*
G01*
X205084500Y-85292250D01*
G75*
G02*
X204840750Y-85536000I-243750J0D01*
G01*
X204353250Y-85536000D01*
G75*
G02*
X204109500Y-85292250I0J243750D01*
G01*
G37*
G36*
G01*
X208005500Y-104572750D02*
X208005500Y-105485250D01*
G75*
G02*
X207761750Y-105729000I-243750J0D01*
G01*
X207274250Y-105729000D01*
G75*
G02*
X207030500Y-105485250I0J243750D01*
G01*
X207030500Y-104572750D01*
G75*
G02*
X207274250Y-104329000I243750J0D01*
G01*
X207761750Y-104329000D01*
G75*
G02*
X208005500Y-104572750I0J-243750D01*
G01*
G37*
G36*
G01*
X209880500Y-104572750D02*
X209880500Y-105485250D01*
G75*
G02*
X209636750Y-105729000I-243750J0D01*
G01*
X209149250Y-105729000D01*
G75*
G02*
X208905500Y-105485250I0J243750D01*
G01*
X208905500Y-104572750D01*
G75*
G02*
X209149250Y-104329000I243750J0D01*
G01*
X209636750Y-104329000D01*
G75*
G02*
X209880500Y-104572750I0J-243750D01*
G01*
G37*
G36*
G01*
X207576000Y-84379750D02*
X207576000Y-85292250D01*
G75*
G02*
X207332250Y-85536000I-243750J0D01*
G01*
X206844750Y-85536000D01*
G75*
G02*
X206601000Y-85292250I0J243750D01*
G01*
X206601000Y-84379750D01*
G75*
G02*
X206844750Y-84136000I243750J0D01*
G01*
X207332250Y-84136000D01*
G75*
G02*
X207576000Y-84379750I0J-243750D01*
G01*
G37*
G36*
G01*
X209451000Y-84379750D02*
X209451000Y-85292250D01*
G75*
G02*
X209207250Y-85536000I-243750J0D01*
G01*
X208719750Y-85536000D01*
G75*
G02*
X208476000Y-85292250I0J243750D01*
G01*
X208476000Y-84379750D01*
G75*
G02*
X208719750Y-84136000I243750J0D01*
G01*
X209207250Y-84136000D01*
G75*
G02*
X209451000Y-84379750I0J-243750D01*
G01*
G37*
G36*
G01*
X178994750Y-128955500D02*
X179907250Y-128955500D01*
G75*
G02*
X180151000Y-129199250I0J-243750D01*
G01*
X180151000Y-129686750D01*
G75*
G02*
X179907250Y-129930500I-243750J0D01*
G01*
X178994750Y-129930500D01*
G75*
G02*
X178751000Y-129686750I0J243750D01*
G01*
X178751000Y-129199250D01*
G75*
G02*
X178994750Y-128955500I243750J0D01*
G01*
G37*
G36*
G01*
X178994750Y-130830500D02*
X179907250Y-130830500D01*
G75*
G02*
X180151000Y-131074250I0J-243750D01*
G01*
X180151000Y-131561750D01*
G75*
G02*
X179907250Y-131805500I-243750J0D01*
G01*
X178994750Y-131805500D01*
G75*
G02*
X178751000Y-131561750I0J243750D01*
G01*
X178751000Y-131074250D01*
G75*
G02*
X178994750Y-130830500I243750J0D01*
G01*
G37*
G36*
G01*
X172136750Y-107111500D02*
X173049250Y-107111500D01*
G75*
G02*
X173293000Y-107355250I0J-243750D01*
G01*
X173293000Y-107842750D01*
G75*
G02*
X173049250Y-108086500I-243750J0D01*
G01*
X172136750Y-108086500D01*
G75*
G02*
X171893000Y-107842750I0J243750D01*
G01*
X171893000Y-107355250D01*
G75*
G02*
X172136750Y-107111500I243750J0D01*
G01*
G37*
G36*
G01*
X172136750Y-108986500D02*
X173049250Y-108986500D01*
G75*
G02*
X173293000Y-109230250I0J-243750D01*
G01*
X173293000Y-109717750D01*
G75*
G02*
X173049250Y-109961500I-243750J0D01*
G01*
X172136750Y-109961500D01*
G75*
G02*
X171893000Y-109717750I0J243750D01*
G01*
X171893000Y-109230250D01*
G75*
G02*
X172136750Y-108986500I243750J0D01*
G01*
G37*
G36*
G01*
X181378000Y-97781000D02*
X180530000Y-97781000D01*
G75*
G02*
X180424000Y-97675000I0J106000D01*
G01*
X180424000Y-96387000D01*
G75*
G02*
X180530000Y-96281000I106000J0D01*
G01*
X181378000Y-96281000D01*
G75*
G02*
X181484000Y-96387000I0J-106000D01*
G01*
X181484000Y-97675000D01*
G75*
G02*
X181378000Y-97781000I-106000J0D01*
G01*
G37*
G36*
G01*
X180118000Y-97781000D02*
X179270000Y-97781000D01*
G75*
G02*
X179164000Y-97675000I0J106000D01*
G01*
X179164000Y-96387000D01*
G75*
G02*
X179270000Y-96281000I106000J0D01*
G01*
X180118000Y-96281000D01*
G75*
G02*
X180224000Y-96387000I0J-106000D01*
G01*
X180224000Y-97675000D01*
G75*
G02*
X180118000Y-97781000I-106000J0D01*
G01*
G37*
G36*
G01*
X178939000Y-97406000D02*
X178649000Y-97406000D01*
G75*
G02*
X178624000Y-97381000I0J25000D01*
G01*
X178624000Y-97181000D01*
G75*
G02*
X178649000Y-97156000I25000J0D01*
G01*
X178939000Y-97156000D01*
G75*
G02*
X178964000Y-97181000I0J-25000D01*
G01*
X178964000Y-97381000D01*
G75*
G02*
X178939000Y-97406000I-25000J0D01*
G01*
G37*
G36*
G01*
X178939000Y-96906000D02*
X178649000Y-96906000D01*
G75*
G02*
X178624000Y-96881000I0J25000D01*
G01*
X178624000Y-96681000D01*
G75*
G02*
X178649000Y-96656000I25000J0D01*
G01*
X178939000Y-96656000D01*
G75*
G02*
X178964000Y-96681000I0J-25000D01*
G01*
X178964000Y-96881000D01*
G75*
G02*
X178939000Y-96906000I-25000J0D01*
G01*
G37*
G36*
G01*
X181999000Y-97406000D02*
X181709000Y-97406000D01*
G75*
G02*
X181684000Y-97381000I0J25000D01*
G01*
X181684000Y-97181000D01*
G75*
G02*
X181709000Y-97156000I25000J0D01*
G01*
X181999000Y-97156000D01*
G75*
G02*
X182024000Y-97181000I0J-25000D01*
G01*
X182024000Y-97381000D01*
G75*
G02*
X181999000Y-97406000I-25000J0D01*
G01*
G37*
G36*
G01*
X181999000Y-96906000D02*
X181709000Y-96906000D01*
G75*
G02*
X181684000Y-96881000I0J25000D01*
G01*
X181684000Y-96681000D01*
G75*
G02*
X181709000Y-96656000I25000J0D01*
G01*
X181999000Y-96656000D01*
G75*
G02*
X182024000Y-96681000I0J-25000D01*
G01*
X182024000Y-96881000D01*
G75*
G02*
X181999000Y-96906000I-25000J0D01*
G01*
G37*
D20*
X179324000Y-98431000D03*
X179824000Y-98431000D03*
X180324000Y-98431000D03*
X180824000Y-98431000D03*
X181324000Y-98431000D03*
X181324000Y-95631000D03*
X180824000Y-95631000D03*
X180324000Y-95631000D03*
X179824000Y-95631000D03*
X179324000Y-95631000D03*
D21*
G36*
X202961000Y-94041000D02*
G01*
X202661000Y-94341000D01*
X201961000Y-94341000D01*
X201661000Y-94041000D01*
X202961000Y-94041000D01*
G37*
D22*
X202161000Y-94191000D03*
D23*
X202311000Y-92941000D03*
D24*
X201261000Y-91891000D03*
X201261000Y-92491000D03*
X201261000Y-94291000D03*
X201261000Y-93691000D03*
X203361000Y-91891000D03*
X203361000Y-94291000D03*
X203361000Y-93691000D03*
X203361000Y-93091000D03*
X203361000Y-92491000D03*
X201261000Y-93091000D03*
D25*
X220505000Y-101092000D03*
X220505000Y-99822000D03*
X220505000Y-98552000D03*
X220505000Y-97282000D03*
X215105000Y-97282000D03*
X215105000Y-98552000D03*
X215105000Y-99822000D03*
X215105000Y-101092000D03*
D26*
X211567000Y-120332000D03*
X211567000Y-119532000D03*
X211567000Y-118732000D03*
X211567000Y-117932000D03*
X211567000Y-117132000D03*
X211567000Y-116332000D03*
X211567000Y-115532000D03*
X211567000Y-114732000D03*
X211567000Y-113932000D03*
X211567000Y-113132000D03*
X211567000Y-112332000D03*
D27*
X209867000Y-110632000D03*
X209067000Y-110632000D03*
X208267000Y-110632000D03*
X207467000Y-110632000D03*
X206667000Y-110632000D03*
X205867000Y-110632000D03*
X205067000Y-110632000D03*
X204267000Y-110632000D03*
X203467000Y-110632000D03*
X202667000Y-110632000D03*
X201867000Y-110632000D03*
D26*
X200167000Y-112332000D03*
X200167000Y-113132000D03*
X200167000Y-113932000D03*
X200167000Y-114732000D03*
X200167000Y-115532000D03*
X200167000Y-116332000D03*
X200167000Y-117132000D03*
X200167000Y-117932000D03*
X200167000Y-118732000D03*
X200167000Y-119532000D03*
X200167000Y-120332000D03*
D27*
X201867000Y-122032000D03*
X202667000Y-122032000D03*
X203467000Y-122032000D03*
X204267000Y-122032000D03*
X205067000Y-122032000D03*
X205867000Y-122032000D03*
X206667000Y-122032000D03*
X207467000Y-122032000D03*
X208267000Y-122032000D03*
X209067000Y-122032000D03*
X209867000Y-122032000D03*
D28*
X223393000Y-101219000D03*
X223393000Y-98719000D03*
G36*
G01*
X206997000Y-103516750D02*
X206997000Y-102604250D01*
G75*
G02*
X207240750Y-102360500I243750J0D01*
G01*
X207728250Y-102360500D01*
G75*
G02*
X207972000Y-102604250I0J-243750D01*
G01*
X207972000Y-103516750D01*
G75*
G02*
X207728250Y-103760500I-243750J0D01*
G01*
X207240750Y-103760500D01*
G75*
G02*
X206997000Y-103516750I0J243750D01*
G01*
G37*
G36*
G01*
X208872000Y-103516750D02*
X208872000Y-102604250D01*
G75*
G02*
X209115750Y-102360500I243750J0D01*
G01*
X209603250Y-102360500D01*
G75*
G02*
X209847000Y-102604250I0J-243750D01*
G01*
X209847000Y-103516750D01*
G75*
G02*
X209603250Y-103760500I-243750J0D01*
G01*
X209115750Y-103760500D01*
G75*
G02*
X208872000Y-103516750I0J243750D01*
G01*
G37*
D29*
X211043500Y-101028500D03*
X211043500Y-99758500D03*
X211043500Y-98488500D03*
X211043500Y-97218500D03*
X205643500Y-97218500D03*
X205643500Y-98488500D03*
X205643500Y-99758500D03*
X205643500Y-101028500D03*
D30*
X216662000Y-106771000D03*
X216662000Y-110871000D03*
D31*
X198393000Y-96041000D03*
X198393000Y-94771000D03*
X198393000Y-93501000D03*
X198393000Y-92231000D03*
D32*
X230215000Y-131620000D03*
X230215000Y-137620000D03*
X225715000Y-131620000D03*
X225715000Y-137620000D03*
X170017000Y-102791000D03*
X170017000Y-108791000D03*
X165517000Y-102791000D03*
X165517000Y-108791000D03*
X222849000Y-131620000D03*
X222849000Y-137620000D03*
X218349000Y-131620000D03*
X218349000Y-137620000D03*
M02*
